<?xml version="1.0" encoding="us-ascii" standalone="no"?><svg xmlns="http://www.w3.org/2000/svg" xmlns:xlink="http://www.w3.org/1999/xlink" contentStyleType="text/css" height="958px" preserveAspectRatio="none" style="width:1245px;height:958px;" version="1.1" viewBox="0 0 1245 958" width="1245px" zoomAndPan="magnify"><defs/><g><text fill="#000000" font-family="Inter" font-size="14" font-weight="bold" lengthAdjust="spacing" textLength="331" x="455.5" y="27.9951">Device Link Based Certificate Choice Flow</text><rect fill="#D2E4F4" height="859.3984" style="stroke:#989898;stroke-width:1.0;" width="10" x="165" y="83.5938"/><rect fill="#D2E4F4" height="859.3984" style="stroke:#989898;stroke-width:1.0;" width="10" x="399" y="83.5938"/><rect fill="#D2E4F4" height="638.2031" style="stroke:#989898;stroke-width:1.0;" width="10" x="873" y="184.125"/><rect fill="#D2E4F4" height="344.0703" style="stroke:#989898;stroke-width:1.0;" width="10" x="1089" y="466.2578"/><rect fill="none" height="179.6016" rx="3.5" ry="3.5" style="stroke:#989898;stroke-width:1.0;" width="370.5" x="102" y="243.3906"/><rect fill="none" height="75.3984" rx="3.5" ry="3.5" style="stroke:#989898;stroke-width:1.0;" width="350.5" x="112" y="267.5234"/><rect fill="none" height="223.5391" rx="3.5" ry="3.5" style="stroke:#989898;stroke-width:1.0;" width="799" x="335.5" y="630.9219"/><rect fill="none" height="163.2734" rx="3.5" ry="3.5" style="stroke:#989898;stroke-width:1.0;" width="779" x="345.5" y="684.1875"/><line style="stroke:#989898;stroke-width:0.5;stroke-dasharray:5.0,5.0;" x1="170" x2="170" y1="73.5938" y2="951.9922"/><line style="stroke:#989898;stroke-width:0.5;stroke-dasharray:5.0,5.0;" x1="403.5" x2="403.5" y1="73.5938" y2="951.9922"/><line style="stroke:#989898;stroke-width:0.5;stroke-dasharray:5.0,5.0;" x1="878" x2="878" y1="73.5938" y2="951.9922"/><line style="stroke:#989898;stroke-width:0.5;stroke-dasharray:5.0,5.0;" x1="1093.5" x2="1093.5" y1="73.5938" y2="951.9922"/><rect fill="#A5C8E8" height="30.2969" rx="3.5" ry="3.5" style="stroke:#202020;stroke-width:1.5;" width="96" x="122" y="42.2969"/><text fill="#202020" font-family="Inter" font-size="14" lengthAdjust="spacing" textLength="82" x="129" y="62.292">RP frontend</text><rect fill="#A5C8E8" height="30.2969" rx="3.5" ry="3.5" style="stroke:#202020;stroke-width:1.5;" width="97" x="355.5" y="42.2969"/><text fill="#202020" font-family="Inter" font-size="14" lengthAdjust="spacing" textLength="83" x="362.5" y="62.292">RP backend</text><rect fill="#A5C8E8" height="30.2969" rx="3.5" ry="3.5" style="stroke:#202020;stroke-width:1.5;" width="58" x="849" y="42.2969"/><text fill="#202020" font-family="Inter" font-size="14" lengthAdjust="spacing" textLength="44" x="856" y="62.292">RP API</text><rect fill="#A5C8E8" height="30.2969" rx="3.5" ry="3.5" style="stroke:#202020;stroke-width:1.5;" width="41" x="1073.5" y="42.2969"/><text fill="#202020" font-family="Inter" font-size="14" lengthAdjust="spacing" textLength="27" x="1080.5" y="62.292">App</text><rect fill="#D2E4F4" height="859.3984" style="stroke:#989898;stroke-width:1.0;" width="10" x="165" y="83.5938"/><rect fill="#D2E4F4" height="859.3984" style="stroke:#989898;stroke-width:1.0;" width="10" x="399" y="83.5938"/><rect fill="#D2E4F4" height="638.2031" style="stroke:#989898;stroke-width:1.0;" width="10" x="873" y="184.125"/><rect fill="#D2E4F4" height="344.0703" style="stroke:#989898;stroke-width:1.0;" width="10" x="1089" y="466.2578"/><path d="M5,92.0938 L5,110.0938 A3.5,3.5 0 0 0 8.5,113.5938 L332.5,113.5938 A3.5,3.5 0 0 0 336,110.0938 L336,98.5938 L326,88.5938 L8.5,88.5938 A3.5,3.5 0 0 0 5,92.0938 " fill="#DFDFDF" style="stroke:#202020;stroke-width:1.5;"/><path d="M326,88.5938 L326,96.8438 A1.75,1.75 0 0 0 327.75,98.5938 L336,98.5938 L326,88.5938 " fill="#DFDFDF" style="stroke:#202020;stroke-width:1.5;"/><text fill="#202020" font-family="Inter" font-size="13" lengthAdjust="spacing" textLength="310" x="11" y="105.6606">User initiates a login on a website or mobile app.</text><polygon fill="#202020" points="387,135.8594,397,139.8594,387,143.8594" style="stroke:#202020;stroke-width:1.0;"/><line style="stroke:#202020;stroke-width:1.0;" x1="175" x2="393" y1="139.8594" y2="139.8594"/><text fill="#000000" font-family="Inter" font-size="13" font-weight="bold" lengthAdjust="spacing" textLength="9" x="198.5" y="134.7935">1</text><text fill="#000000" font-family="Inter" font-size="13" lengthAdjust="spacing" textLength="52" x="211.5" y="134.7935">Request</text><text fill="#000000" font-family="Inter" font-size="13" lengthAdjust="spacing" textLength="4" x="263.5" y="134.7935">&#160;</text><text fill="#000000" font-family="Inter" font-size="13" lengthAdjust="spacing" textLength="63" x="267.5" y="134.7935">certificate</text><text fill="#000000" font-family="Inter" font-size="13" lengthAdjust="spacing" textLength="4" x="330.5" y="134.7935">&#160;</text><text fill="#000000" font-family="Inter" font-size="13" lengthAdjust="spacing" textLength="41" x="334.5" y="134.7935">choice</text><polygon fill="#202020" points="861,180.125,871,184.125,861,188.125" style="stroke:#202020;stroke-width:1.0;"/><line style="stroke:#202020;stroke-width:1.0;" x1="409" x2="867" y1="184.125" y2="184.125"/><text fill="#000000" font-family="Inter" font-size="13" font-weight="bold" lengthAdjust="spacing" textLength="9" x="418.5" y="171.4927">2</text><text fill="#000000" font-family="monospace" font-size="13" lengthAdjust="spacing" textLength="32" x="631.5" y="163.9263">POST</text><text fill="#000000" font-family="monospace" font-size="13" lengthAdjust="spacing" textLength="432" x="431.5" y="179.0591">/v3/signature/certificate-choice/device-link/anonymous</text><polygon fill="#202020" points="420,192.125,410,196.125,420,200.125" style="stroke:#202020;stroke-width:1.0;"/><line style="stroke:#202020;stroke-width:1.0;stroke-dasharray:2.0,2.0;" x1="414" x2="872" y1="196.125" y2="196.125"/><text fill="#000000" font-family="Inter" font-size="13" font-weight="bold" lengthAdjust="spacing" textLength="9" x="488.5" y="216.7583">3</text><text fill="#000000" font-family="monospace" font-size="13" lengthAdjust="spacing" textLength="72" x="501.5" y="209.1919">sessionID</text><text fill="#000000" font-family="Inter" font-size="13" lengthAdjust="spacing" textLength="4" x="573.5" y="209.1919">,</text><text fill="#000000" font-family="Inter" font-size="13" lengthAdjust="spacing" textLength="4" x="577.5" y="209.1919">&#160;</text><text fill="#000000" font-family="monospace" font-size="13" lengthAdjust="spacing" textLength="96" x="581.5" y="209.1919">sessionToken</text><text fill="#000000" font-family="Inter" font-size="13" lengthAdjust="spacing" textLength="4" x="677.5" y="209.1919">,</text><text fill="#000000" font-family="Inter" font-size="13" lengthAdjust="spacing" textLength="4" x="681.5" y="209.1919">&#160;</text><text fill="#000000" font-family="monospace" font-size="13" lengthAdjust="spacing" textLength="104" x="685.5" y="209.1919">sessionSecret</text><text fill="#000000" font-family="Inter" font-size="13" lengthAdjust="spacing" textLength="4" x="789.5" y="209.1919">,</text><text fill="#000000" font-family="monospace" font-size="13" lengthAdjust="spacing" textLength="112" x="591.5" y="224.3247">deviceLinkBase</text><path d="M105.5,243.3906 L166,243.3906 L166,250.5234 L156,260.5234 L102,260.5234 L102,246.8906 A3.5,3.5 0 0 1 105.5,243.3906 " fill="#EEEEEE" style="stroke:#989898;stroke-width:1.5;"/><rect fill="none" height="179.6016" rx="3.5" ry="3.5" style="stroke:#989898;stroke-width:1.0;" width="370.5" x="102" y="243.3906"/><text fill="#202020" font-family="Inter" font-size="13" font-weight="bold" lengthAdjust="spacing" textLength="19" x="117" y="256.4575">alt</text><text fill="#989898" font-family="Inter" font-size="11" font-weight="bold" lengthAdjust="spacing" textLength="222" x="181" y="255.6011">[Cross-device use-case (QR code)]</text><path d="M115.5,267.5234 L189,267.5234 L189,274.6563 L179,284.6563 L112,284.6563 L112,271.0234 A3.5,3.5 0 0 1 115.5,267.5234 " fill="#EEEEEE" style="stroke:#989898;stroke-width:1.5;"/><rect fill="none" height="75.3984" rx="3.5" ry="3.5" style="stroke:#989898;stroke-width:1.0;" width="350.5" x="112" y="267.5234"/><text fill="#202020" font-family="Inter" font-size="13" font-weight="bold" lengthAdjust="spacing" textLength="32" x="127" y="280.5903">loop</text><text fill="#989898" font-family="Inter" font-size="11" font-weight="bold" lengthAdjust="spacing" textLength="132" x="204" y="279.7339">[until user interacts]</text><polygon fill="#202020" points="387,301.7891,397,305.7891,387,309.7891" style="stroke:#202020;stroke-width:1.0;"/><line style="stroke:#202020;stroke-width:1.0;" x1="175" x2="393" y1="305.7891" y2="305.7891"/><text fill="#000000" font-family="Inter" font-size="13" font-weight="bold" lengthAdjust="spacing" textLength="9" x="187" y="300.7231">4</text><text fill="#000000" font-family="Inter" font-size="13" lengthAdjust="spacing" textLength="52" x="200" y="300.7231">Request</text><text fill="#000000" font-family="Inter" font-size="13" lengthAdjust="spacing" textLength="4" x="252" y="300.7231">&#160;</text><text fill="#000000" font-family="Inter" font-size="13" lengthAdjust="spacing" textLength="17" x="256" y="300.7231">for</text><text fill="#000000" font-family="Inter" font-size="13" lengthAdjust="spacing" textLength="4" x="273" y="300.7231">&#160;</text><text fill="#000000" font-family="Inter" font-size="13" lengthAdjust="spacing" textLength="53" x="277" y="300.7231">updated</text><text fill="#000000" font-family="Inter" font-size="13" lengthAdjust="spacing" textLength="4" x="330" y="300.7231">&#160;</text><text fill="#000000" font-family="Inter" font-size="13" lengthAdjust="spacing" textLength="18" x="334" y="300.7231">QR</text><text fill="#000000" font-family="Inter" font-size="13" lengthAdjust="spacing" textLength="4" x="352" y="300.7231">&#160;</text><text fill="#000000" font-family="Inter" font-size="13" lengthAdjust="spacing" textLength="31" x="356" y="300.7231">code</text><polygon fill="#202020" points="186,313.7891,176,317.7891,186,321.7891" style="stroke:#202020;stroke-width:1.0;"/><line style="stroke:#202020;stroke-width:1.0;stroke-dasharray:2.0,2.0;" x1="180" x2="398" y1="317.7891" y2="317.7891"/><text fill="#000000" font-family="Inter" font-size="13" font-weight="bold" lengthAdjust="spacing" textLength="9" x="200" y="330.856">5</text><text fill="#000000" font-family="Inter" font-size="13" lengthAdjust="spacing" textLength="47" x="213" y="330.856">Provide</text><text fill="#000000" font-family="Inter" font-size="13" lengthAdjust="spacing" textLength="4" x="260" y="330.856">&#160;</text><text fill="#000000" font-family="Inter" font-size="13" lengthAdjust="spacing" textLength="53" x="264" y="330.856">updated</text><text fill="#000000" font-family="Inter" font-size="13" lengthAdjust="spacing" textLength="4" x="317" y="330.856">&#160;</text><text fill="#000000" font-family="Inter" font-size="13" lengthAdjust="spacing" textLength="18" x="321" y="330.856">QR</text><text fill="#000000" font-family="Inter" font-size="13" lengthAdjust="spacing" textLength="4" x="339" y="330.856">&#160;</text><text fill="#000000" font-family="Inter" font-size="13" lengthAdjust="spacing" textLength="31" x="343" y="330.856">code</text><line style="stroke:#989898;stroke-width:1.0;stroke-dasharray:2.0,2.0;" x1="102" x2="472.5" y1="350.9219" y2="350.9219"/><text fill="#989898" font-family="Inter" font-size="11" font-weight="bold" lengthAdjust="spacing" textLength="306" x="107" y="361.1323">[Same-device use-case (Web2App or App2App)]</text><polygon fill="#202020" points="387,381.8594,397,385.8594,387,389.8594" style="stroke:#202020;stroke-width:1.0;"/><line style="stroke:#202020;stroke-width:1.0;" x1="175" x2="393" y1="385.8594" y2="385.8594"/><text fill="#000000" font-family="Inter" font-size="13" font-weight="bold" lengthAdjust="spacing" textLength="9" x="219.5" y="380.7935">6</text><text fill="#000000" font-family="Inter" font-size="13" lengthAdjust="spacing" textLength="52" x="232.5" y="380.7935">Request</text><text fill="#000000" font-family="Inter" font-size="13" lengthAdjust="spacing" textLength="4" x="284.5" y="380.7935">&#160;</text><text fill="#000000" font-family="Inter" font-size="13" lengthAdjust="spacing" textLength="41" x="288.5" y="380.7935">device</text><text fill="#000000" font-family="Inter" font-size="13" lengthAdjust="spacing" textLength="4" x="329.5" y="380.7935">&#160;</text><text fill="#000000" font-family="Inter" font-size="13" lengthAdjust="spacing" textLength="21" x="333.5" y="380.7935">link</text><polygon fill="#202020" points="186,393.8594,176,397.8594,186,401.8594" style="stroke:#202020;stroke-width:1.0;"/><line style="stroke:#202020;stroke-width:1.0;stroke-dasharray:2.0,2.0;" x1="180" x2="398" y1="397.8594" y2="397.8594"/><text fill="#000000" font-family="Inter" font-size="13" font-weight="bold" lengthAdjust="spacing" textLength="9" x="226" y="410.9263">7</text><text fill="#000000" font-family="Inter" font-size="13" lengthAdjust="spacing" textLength="84" x="239" y="410.9263">Same-device</text><text fill="#000000" font-family="Inter" font-size="13" lengthAdjust="spacing" textLength="4" x="323" y="410.9263">&#160;</text><text fill="#000000" font-family="Inter" font-size="13" lengthAdjust="spacing" textLength="21" x="327" y="410.9263">link</text><polygon fill="#202020" points="1077,462.2578,1087,466.2578,1077,470.2578" style="stroke:#202020;stroke-width:1.0;"/><line style="stroke:#202020;stroke-width:1.0;" x1="175" x2="1083" y1="466.2578" y2="466.2578"/><text fill="#000000" font-family="Inter" font-size="13" font-weight="bold" lengthAdjust="spacing" textLength="9" x="465" y="453.6255">8</text><text fill="#000000" font-family="Inter" font-size="13" lengthAdjust="spacing" textLength="30" x="478" y="446.0591">User</text><text fill="#000000" font-family="Inter" font-size="13" lengthAdjust="spacing" textLength="4" x="508" y="446.0591">&#160;</text><text fill="#000000" font-family="Inter" font-size="13" lengthAdjust="spacing" textLength="37" x="512" y="446.0591">scans</text><text fill="#000000" font-family="Inter" font-size="13" lengthAdjust="spacing" textLength="4" x="549" y="446.0591">&#160;</text><text fill="#000000" font-family="Inter" font-size="13" lengthAdjust="spacing" textLength="21" x="553" y="446.0591">the</text><text fill="#000000" font-family="Inter" font-size="13" lengthAdjust="spacing" textLength="4" x="574" y="446.0591">&#160;</text><text fill="#000000" font-family="Inter" font-size="13" lengthAdjust="spacing" textLength="18" x="578" y="446.0591">QR</text><text fill="#000000" font-family="Inter" font-size="13" lengthAdjust="spacing" textLength="4" x="596" y="446.0591">&#160;</text><text fill="#000000" font-family="Inter" font-size="13" lengthAdjust="spacing" textLength="31" x="600" y="446.0591">code</text><text fill="#000000" font-family="Inter" font-size="13" lengthAdjust="spacing" textLength="4" x="631" y="446.0591">&#160;</text><text fill="#000000" font-family="Inter" font-size="13" lengthAdjust="spacing" textLength="13" x="635" y="446.0591">or</text><text fill="#000000" font-family="Inter" font-size="13" lengthAdjust="spacing" textLength="4" x="648" y="446.0591">&#160;</text><text fill="#000000" font-family="Inter" font-size="13" lengthAdjust="spacing" textLength="34" x="652" y="446.0591">clicks</text><text fill="#000000" font-family="Inter" font-size="13" lengthAdjust="spacing" textLength="4" x="686" y="446.0591">&#160;</text><text fill="#000000" font-family="Inter" font-size="13" lengthAdjust="spacing" textLength="16" x="690" y="446.0591">on</text><text fill="#000000" font-family="Inter" font-size="13" lengthAdjust="spacing" textLength="4" x="706" y="446.0591">&#160;</text><text fill="#000000" font-family="Inter" font-size="13" lengthAdjust="spacing" textLength="8" x="710" y="446.0591">a</text><text fill="#000000" font-family="Inter" font-size="13" lengthAdjust="spacing" textLength="4" x="718" y="446.0591">&#160;</text><text fill="#000000" font-family="Inter" font-size="13" lengthAdjust="spacing" textLength="60" x="722" y="446.0591">Web2App</text><text fill="#000000" font-family="Inter" font-size="13" lengthAdjust="spacing" textLength="4" x="782" y="446.0591">&#160;</text><text fill="#000000" font-family="Inter" font-size="13" lengthAdjust="spacing" textLength="13" x="786" y="446.0591">or</text><text fill="#000000" font-family="Inter" font-size="13" lengthAdjust="spacing" textLength="58" x="597" y="461.1919">App2App</text><text fill="#000000" font-family="Inter" font-size="13" lengthAdjust="spacing" textLength="4" x="655" y="461.1919">&#160;</text><text fill="#000000" font-family="Inter" font-size="13" lengthAdjust="spacing" textLength="21" x="659" y="461.1919">link</text><line style="stroke:#202020;stroke-width:1.0;" x1="1099" x2="1141" y1="510.5234" y2="510.5234"/><line style="stroke:#202020;stroke-width:1.0;" x1="1141" x2="1141" y1="510.5234" y2="523.5234"/><line style="stroke:#202020;stroke-width:1.0;" x1="1100" x2="1141" y1="523.5234" y2="523.5234"/><polygon fill="#202020" points="1110,519.5234,1100,523.5234,1110,527.5234" style="stroke:#202020;stroke-width:1.0;"/><text fill="#000000" font-family="Inter" font-size="13" font-weight="bold" lengthAdjust="spacing" textLength="9" x="1106" y="497.8911">9</text><text fill="#000000" font-family="Inter" font-size="13" lengthAdjust="spacing" textLength="52" x="1119" y="490.3247">Validate</text><text fill="#000000" font-family="Inter" font-size="13" lengthAdjust="spacing" textLength="4" x="1171" y="490.3247">&#160;</text><text fill="#000000" font-family="Inter" font-size="13" lengthAdjust="spacing" textLength="21" x="1175" y="490.3247">the</text><text fill="#000000" font-family="Inter" font-size="13" lengthAdjust="spacing" textLength="4" x="1122.5" y="505.4575">&#160;</text><text fill="#000000" font-family="Inter" font-size="13" lengthAdjust="spacing" textLength="41" x="1126.5" y="505.4575">device</text><text fill="#000000" font-family="Inter" font-size="13" lengthAdjust="spacing" textLength="4" x="1167.5" y="505.4575">&#160;</text><text fill="#000000" font-family="Inter" font-size="13" lengthAdjust="spacing" textLength="21" x="1171.5" y="505.4575">link</text><line style="stroke:#202020;stroke-width:1.0;" x1="1099" x2="1141" y1="567.7891" y2="567.7891"/><line style="stroke:#202020;stroke-width:1.0;" x1="1141" x2="1141" y1="567.7891" y2="580.7891"/><line style="stroke:#202020;stroke-width:1.0;" x1="1100" x2="1141" y1="580.7891" y2="580.7891"/><polygon fill="#202020" points="1110,576.7891,1100,580.7891,1110,584.7891" style="stroke:#202020;stroke-width:1.0;"/><text fill="#000000" font-family="Inter" font-size="13" font-weight="bold" lengthAdjust="spacing" textLength="18" x="1106" y="555.1567">10</text><text fill="#000000" font-family="Inter" font-size="13" lengthAdjust="spacing" textLength="46" x="1128" y="547.5903">Display</text><text fill="#000000" font-family="Inter" font-size="13" lengthAdjust="spacing" textLength="4" x="1174" y="547.5903">&#160;</text><text fill="#000000" font-family="Inter" font-size="13" lengthAdjust="spacing" textLength="51" x="1178" y="547.5903">account</text><text fill="#000000" font-family="Inter" font-size="13" lengthAdjust="spacing" textLength="4" x="1128" y="562.7231">&#160;</text><text fill="#000000" font-family="Inter" font-size="13" lengthAdjust="spacing" textLength="80" x="1132" y="562.7231">confirmation</text><text fill="#000000" font-family="Inter" font-size="13" lengthAdjust="spacing" textLength="4" x="1212" y="562.7231">&#160;</text><text fill="#000000" font-family="Inter" font-size="13" lengthAdjust="spacing" textLength="13" x="1216" y="562.7231">UI</text><path d="M950,597.2891 L950,615.2891 A3.5,3.5 0 0 0 953.5,618.7891 L1234.5,618.7891 A3.5,3.5 0 0 0 1238,615.2891 L1238,603.7891 L1228,593.7891 L953.5,593.7891 A3.5,3.5 0 0 0 950,597.2891 " fill="#DFDFDF" style="stroke:#202020;stroke-width:1.5;"/><path d="M1228,593.7891 L1228,602.0391 A1.75,1.75 0 0 0 1229.75,603.7891 L1238,603.7891 L1228,593.7891 " fill="#DFDFDF" style="stroke:#202020;stroke-width:1.5;"/><text fill="#202020" font-family="Inter" font-size="13" lengthAdjust="spacing" textLength="267" x="956" y="610.856">User confirms the device and the account</text><path d="M339,630.9219 L412.5,630.9219 L412.5,638.0547 L402.5,648.0547 L335.5,648.0547 L335.5,634.4219 A3.5,3.5 0 0 1 339,630.9219 " fill="#EEEEEE" style="stroke:#989898;stroke-width:1.5;"/><rect fill="none" height="223.5391" rx="3.5" ry="3.5" style="stroke:#989898;stroke-width:1.0;" width="799" x="335.5" y="630.9219"/><text fill="#202020" font-family="Inter" font-size="13" font-weight="bold" lengthAdjust="spacing" textLength="32" x="350.5" y="643.9888">loop</text><text fill="#989898" font-family="Inter" font-size="11" font-weight="bold" lengthAdjust="spacing" textLength="162" x="427.5" y="643.1323">[until completed or error]</text><polygon fill="#202020" points="861,665.1875,871,669.1875,861,673.1875" style="stroke:#202020;stroke-width:1.0;"/><line style="stroke:#202020;stroke-width:1.0;" x1="409" x2="867" y1="669.1875" y2="669.1875"/><text fill="#000000" font-family="Inter" font-size="13" font-weight="bold" lengthAdjust="spacing" textLength="18" x="522" y="664.1216">11</text><text fill="#000000" font-family="monospace" font-size="13" lengthAdjust="spacing" textLength="24" x="544" y="664.1216">GET</text><text fill="#000000" font-family="monospace" font-size="13" lengthAdjust="spacing" textLength="8" x="568" y="664.1216">&#160;</text><text fill="#000000" font-family="monospace" font-size="13" lengthAdjust="spacing" textLength="184" x="576" y="664.1216">/v3/session/{sessionID}</text><path d="M349,684.1875 L409.5,684.1875 L409.5,691.3203 L399.5,701.3203 L345.5,701.3203 L345.5,687.6875 A3.5,3.5 0 0 1 349,684.1875 " fill="#EEEEEE" style="stroke:#989898;stroke-width:1.5;"/><rect fill="none" height="163.2734" rx="3.5" ry="3.5" style="stroke:#989898;stroke-width:1.0;" width="779" x="345.5" y="684.1875"/><text fill="#202020" font-family="Inter" font-size="13" font-weight="bold" lengthAdjust="spacing" textLength="19" x="360.5" y="697.2544">alt</text><text fill="#989898" font-family="Inter" font-size="11" font-weight="bold" lengthAdjust="spacing" textLength="62" x="424.5" y="696.3979">[pending]</text><polygon fill="#202020" points="420,701.3203,410,705.3203,420,709.3203" style="stroke:#202020;stroke-width:1.0;"/><line style="stroke:#202020;stroke-width:1.0;stroke-dasharray:2.0,2.0;" x1="414" x2="872" y1="705.3203" y2="705.3203"/><text fill="#000000" font-family="Inter" font-size="13" font-weight="bold" lengthAdjust="spacing" textLength="18" x="574" y="718.3872">12</text><text fill="#000000" font-family="monospace" font-size="13" lengthAdjust="spacing" textLength="56" x="596" y="718.3872">session</text><text fill="#000000" font-family="monospace" font-size="13" lengthAdjust="spacing" textLength="8" x="652" y="718.3872">&#160;</text><text fill="#000000" font-family="monospace" font-size="13" lengthAdjust="spacing" textLength="48" x="660" y="718.3872">status</text><line style="stroke:#989898;stroke-width:1.0;stroke-dasharray:2.0,2.0;" x1="345.5" x2="1124.5" y1="731.4531" y2="731.4531"/><text fill="#989898" font-family="Inter" font-size="11" font-weight="bold" lengthAdjust="spacing" textLength="121" x="350.5" y="741.6636">[error (or timeout)]</text><polygon fill="#202020" points="420,745.2578,410,749.2578,420,753.2578" style="stroke:#202020;stroke-width:1.0;"/><line style="stroke:#202020;stroke-width:1.0;stroke-dasharray:2.0,2.0;" x1="414" x2="872" y1="749.2578" y2="749.2578"/><text fill="#000000" font-family="Inter" font-size="13" font-weight="bold" lengthAdjust="spacing" textLength="18" x="610" y="762.3247">13</text><text fill="#000000" font-family="monospace" font-size="13" lengthAdjust="spacing" textLength="40" x="632" y="762.3247">error</text><line style="stroke:#989898;stroke-width:1.0;stroke-dasharray:2.0,2.0;" x1="345.5" x2="1124.5" y1="775.3906" y2="775.3906"/><text fill="#989898" font-family="Inter" font-size="11" font-weight="bold" lengthAdjust="spacing" textLength="77" x="350.5" y="785.6011">[completed]</text><polygon fill="#202020" points="894,806.3281,884,810.3281,894,814.3281" style="stroke:#202020;stroke-width:1.0;"/><line style="stroke:#202020;stroke-width:1.0;" x1="888" x2="1093" y1="810.3281" y2="810.3281"/><text fill="#000000" font-family="Inter" font-size="13" font-weight="bold" lengthAdjust="spacing" textLength="18" x="897.5" y="805.2622">14</text><text fill="#000000" font-family="monospace" font-size="13" lengthAdjust="spacing" textLength="56" x="919.5" y="805.2622">Confirm</text><text fill="#000000" font-family="monospace" font-size="13" lengthAdjust="spacing" textLength="8" x="975.5" y="805.2622">&#160;</text><text fill="#000000" font-family="monospace" font-size="13" lengthAdjust="spacing" textLength="32" x="983.5" y="805.2622">user</text><text fill="#000000" font-family="monospace" font-size="13" lengthAdjust="spacing" textLength="8" x="1015.5" y="805.2622">&#160;</text><text fill="#000000" font-family="monospace" font-size="13" lengthAdjust="spacing" textLength="56" x="1023.5" y="805.2622">account</text><polygon fill="#202020" points="420,818.3281,410,822.3281,420,826.3281" style="stroke:#202020;stroke-width:1.0;"/><line style="stroke:#202020;stroke-width:1.0;stroke-dasharray:2.0,2.0;" x1="414" x2="877" y1="822.3281" y2="822.3281"/><text fill="#000000" font-family="Inter" font-size="13" font-weight="bold" lengthAdjust="spacing" textLength="18" x="545.5" y="835.395">15</text><text fill="#000000" font-family="monospace" font-size="13" lengthAdjust="spacing" textLength="48" x="567.5" y="835.395">result</text><text fill="#000000" font-family="Inter" font-size="13" lengthAdjust="spacing" textLength="4" x="615.5" y="835.395">&#160;</text><text fill="#000000" font-family="Inter" font-size="13" lengthAdjust="spacing" textLength="50" x="619.5" y="835.395">(signing</text><text fill="#000000" font-family="Inter" font-size="13" lengthAdjust="spacing" textLength="4" x="669.5" y="835.395">&#160;</text><text fill="#000000" font-family="Inter" font-size="13" lengthAdjust="spacing" textLength="68" x="673.5" y="835.395">certificate)</text><path d="M204,869.9609 L204,932.9609 A3.5,3.5 0 0 0 207.5,936.4609 L1074.5,936.4609 A3.5,3.5 0 0 0 1078,932.9609 L1078,876.4609 L1068,866.4609 L207.5,866.4609 A3.5,3.5 0 0 0 204,869.9609 " fill="#DFDFDF" style="stroke:#202020;stroke-width:1.5;"/><path d="M1068,866.4609 L1068,874.7109 A1.75,1.75 0 0 0 1069.75,876.4609 L1078,876.4609 L1068,866.4609 " fill="#DFDFDF" style="stroke:#202020;stroke-width:1.5;"/><text fill="#202020" font-family="Inter" font-size="13" lengthAdjust="spacing" textLength="750" x="210" y="883.5278">This device link based certificate choice flow MUST be followed by a linked signature session, as the user is sent to the</text><text fill="#202020" font-family="Inter" font-size="13" lengthAdjust="spacing" textLength="284" x="210" y="898.6606">callback URL only after signing. The endpoint</text><text fill="#202020" font-family="monospace" font-size="13" lengthAdjust="spacing" textLength="408" x="498" y="898.6606">/v3/signature/notification/linked/{document-number}</text><text fill="#202020" font-family="Inter" font-size="13" lengthAdjust="spacing" textLength="149" x="910" y="898.6606">MUST be used, and the</text><text fill="#202020" font-family="Inter" font-size="13" lengthAdjust="spacing" textLength="46" x="210" y="913.7935">current</text><text fill="#202020" font-family="monospace" font-size="13" lengthAdjust="spacing" textLength="72" x="260" y="913.7935">sessionID</text><text fill="#202020" font-family="Inter" font-size="13" lengthAdjust="spacing" textLength="621" x="336" y="913.7935">must be provided as input in order to link this session to the notification-based signature session.</text><text fill="#202020" font-family="Inter" font-size="13" lengthAdjust="spacing" textLength="4" x="210" y="928.9263">&#160;</text></g></svg>