<?xml version="1.0" encoding="us-ascii" standalone="no"?><svg xmlns="http://www.w3.org/2000/svg" xmlns:xlink="http://www.w3.org/1999/xlink" contentStyleType="text/css" height="738px" preserveAspectRatio="none" style="width:900px;height:738px;" version="1.1" viewBox="0 0 900 738" width="900px" zoomAndPan="magnify"><defs/><g><text fill="#000000" font-family="Inter" font-size="14" font-weight="bold" lengthAdjust="spacing" textLength="247" x="325" y="27.9951">Notification Based Signing Flow</text><rect fill="#D2E4F4" height="639.2656" style="stroke:#989898;stroke-width:1.0;" width="10" x="126" y="83.5938"/><rect fill="#D2E4F4" height="639.2656" style="stroke:#989898;stroke-width:1.0;" width="10" x="285" y="83.5938"/><rect fill="#D2E4F4" height="434.3359" style="stroke:#989898;stroke-width:1.0;" width="10" x="538" y="184.125"/><rect fill="none" height="265.6719" rx="3.5" ry="3.5" style="stroke:#989898;stroke-width:1.0;" width="520" x="221.5" y="384.9219"/><rect fill="none" height="163.2734" rx="3.5" ry="3.5" style="stroke:#989898;stroke-width:1.0;" width="500" x="231.5" y="480.3203"/><line style="stroke:#989898;stroke-width:0.5;stroke-dasharray:5.0,5.0;" x1="131" x2="131" y1="73.5938" y2="731.8594"/><line style="stroke:#989898;stroke-width:0.5;stroke-dasharray:5.0,5.0;" x1="289.5" x2="289.5" y1="73.5938" y2="731.8594"/><line style="stroke:#989898;stroke-width:0.5;stroke-dasharray:5.0,5.0;" x1="543" x2="543" y1="73.5938" y2="731.8594"/><line style="stroke:#989898;stroke-width:0.5;stroke-dasharray:5.0,5.0;" x1="700.5" x2="700.5" y1="73.5938" y2="731.8594"/><rect fill="#A5C8E8" height="30.2969" rx="3.5" ry="3.5" style="stroke:#202020;stroke-width:1.5;" width="96" x="83" y="42.2969"/><text fill="#202020" font-family="Inter" font-size="14" lengthAdjust="spacing" textLength="82" x="90" y="62.292">RP frontend</text><rect fill="#A5C8E8" height="30.2969" rx="3.5" ry="3.5" style="stroke:#202020;stroke-width:1.5;" width="97" x="241.5" y="42.2969"/><text fill="#202020" font-family="Inter" font-size="14" lengthAdjust="spacing" textLength="83" x="248.5" y="62.292">RP backend</text><rect fill="#A5C8E8" height="30.2969" rx="3.5" ry="3.5" style="stroke:#202020;stroke-width:1.5;" width="58" x="514" y="42.2969"/><text fill="#202020" font-family="Inter" font-size="14" lengthAdjust="spacing" textLength="44" x="521" y="62.292">RP API</text><rect fill="#A5C8E8" height="30.2969" rx="3.5" ry="3.5" style="stroke:#202020;stroke-width:1.5;" width="41" x="680.5" y="42.2969"/><text fill="#202020" font-family="Inter" font-size="14" lengthAdjust="spacing" textLength="27" x="687.5" y="62.292">App</text><rect fill="#D2E4F4" height="639.2656" style="stroke:#989898;stroke-width:1.0;" width="10" x="126" y="83.5938"/><rect fill="#D2E4F4" height="639.2656" style="stroke:#989898;stroke-width:1.0;" width="10" x="285" y="83.5938"/><rect fill="#D2E4F4" height="434.3359" style="stroke:#989898;stroke-width:1.0;" width="10" x="538" y="184.125"/><path d="M5,92.0938 L5,125.0938 A3.5,3.5 0 0 0 8.5,128.5938 L253.5,128.5938 A3.5,3.5 0 0 0 257,125.0938 L257,98.5938 L247,88.5938 L8.5,88.5938 A3.5,3.5 0 0 0 5,92.0938 " fill="#DFDFDF" style="stroke:#202020;stroke-width:1.5;"/><path d="M247,88.5938 L247,96.8438 A1.75,1.75 0 0 0 248.75,98.5938 L257,98.5938 L247,88.5938 " fill="#DFDFDF" style="stroke:#202020;stroke-width:1.5;"/><text fill="#202020" font-family="Inter" font-size="13" lengthAdjust="spacing" textLength="231" x="11" y="105.6606">User initiates signing on RP frontend</text><text fill="#202020" font-family="Inter" font-size="13" lengthAdjust="spacing" textLength="154" x="11" y="120.7935">(website or mobile app).</text><polygon fill="#202020" points="273,150.9922,283,154.9922,273,158.9922" style="stroke:#202020;stroke-width:1.0;"/><line style="stroke:#202020;stroke-width:1.0;" x1="136" x2="279" y1="154.9922" y2="154.9922"/><text fill="#000000" font-family="Inter" font-size="13" font-weight="bold" lengthAdjust="spacing" textLength="9" x="154.5" y="149.9263">1</text><text fill="#000000" font-family="Inter" font-size="13" lengthAdjust="spacing" textLength="52" x="167.5" y="149.9263">Request</text><text fill="#000000" font-family="Inter" font-size="13" lengthAdjust="spacing" textLength="4" x="219.5" y="149.9263">&#160;</text><text fill="#000000" font-family="Inter" font-size="13" lengthAdjust="spacing" textLength="13" x="223.5" y="149.9263">to</text><text fill="#000000" font-family="Inter" font-size="13" lengthAdjust="spacing" textLength="4" x="236.5" y="149.9263">&#160;</text><text fill="#000000" font-family="Inter" font-size="13" lengthAdjust="spacing" textLength="26" x="240.5" y="149.9263">sign</text><polygon fill="#202020" points="526,180.125,536,184.125,526,188.125" style="stroke:#202020;stroke-width:1.0;"/><line style="stroke:#202020;stroke-width:1.0;" x1="295" x2="532" y1="184.125" y2="184.125"/><text fill="#000000" font-family="Inter" font-size="13" font-weight="bold" lengthAdjust="spacing" textLength="9" x="304.5" y="179.0591">2</text><text fill="#000000" font-family="Inter" font-size="13" lengthAdjust="spacing" textLength="34" x="317.5" y="179.0591">POST</text><text fill="#000000" font-family="Inter" font-size="13" lengthAdjust="spacing" textLength="4" x="351.5" y="179.0591">&#160;</text><text fill="#000000" font-family="Inter" font-size="13" lengthAdjust="spacing" textLength="173" x="355.5" y="179.0591">/v3/signature/notification/...</text><polygon fill="#202020" points="306,192.125,296,196.125,306,200.125" style="stroke:#202020;stroke-width:1.0;"/><line style="stroke:#202020;stroke-width:1.0;stroke-dasharray:2.0,2.0;" x1="300" x2="537" y1="196.125" y2="196.125"/><text fill="#000000" font-family="Inter" font-size="13" font-weight="bold" lengthAdjust="spacing" textLength="9" x="362" y="209.1919">3</text><text fill="#000000" font-family="monospace" font-size="13" lengthAdjust="spacing" textLength="72" x="375" y="209.1919">sessionId</text><text fill="#000000" font-family="Inter" font-size="13" lengthAdjust="spacing" textLength="4" x="447" y="209.1919">,</text><text fill="#000000" font-family="Inter" font-size="13" lengthAdjust="spacing" textLength="4" x="451" y="209.1919">&#160;</text><text fill="#000000" font-family="monospace" font-size="13" lengthAdjust="spacing" textLength="16" x="455" y="209.1919">vc</text><polygon fill="#202020" points="689,238.3906,699,242.3906,689,246.3906" style="stroke:#202020;stroke-width:1.0;"/><line style="stroke:#202020;stroke-width:1.0;" x1="548" x2="695" y1="242.3906" y2="242.3906"/><text fill="#000000" font-family="Inter" font-size="13" font-weight="bold" lengthAdjust="spacing" textLength="9" x="560" y="237.3247">4</text><text fill="#000000" font-family="Inter" font-size="13" lengthAdjust="spacing" textLength="52" x="573" y="237.3247">Request</text><text fill="#000000" font-family="Inter" font-size="13" lengthAdjust="spacing" textLength="4" x="625" y="237.3247">&#160;</text><text fill="#000000" font-family="Inter" font-size="13" lengthAdjust="spacing" textLength="60" x="629" y="237.3247">signature</text><path d="M515,258.8906 L515,276.8906 A3.5,3.5 0 0 0 518.5,280.3906 L882.5,280.3906 A3.5,3.5 0 0 0 886,276.8906 L886,265.3906 L876,255.3906 L518.5,255.3906 A3.5,3.5 0 0 0 515,258.8906 " fill="#DFDFDF" style="stroke:#202020;stroke-width:1.5;"/><path d="M876,255.3906 L876,263.6406 A1.75,1.75 0 0 0 877.75,265.3906 L886,265.3906 L876,255.3906 " fill="#DFDFDF" style="stroke:#202020;stroke-width:1.5;"/><text fill="#202020" font-family="Inter" font-size="13" lengthAdjust="spacing" textLength="350" x="521" y="272.4575">RP API provides the VC code(s) to be shown in the app.</text><line style="stroke:#202020;stroke-width:1.0;" x1="701" x2="743" y1="306.6563" y2="306.6563"/><line style="stroke:#202020;stroke-width:1.0;" x1="743" x2="743" y1="306.6563" y2="319.6563"/><line style="stroke:#202020;stroke-width:1.0;" x1="702" x2="743" y1="319.6563" y2="319.6563"/><polygon fill="#202020" points="712,315.6563,702,319.6563,712,323.6563" style="stroke:#202020;stroke-width:1.0;"/><text fill="#000000" font-family="Inter" font-size="13" font-weight="bold" lengthAdjust="spacing" textLength="9" x="708" y="301.5903">5</text><text fill="#000000" font-family="Inter" font-size="13" lengthAdjust="spacing" textLength="46" x="721" y="301.5903">Display</text><text fill="#000000" font-family="Inter" font-size="13" lengthAdjust="spacing" textLength="4" x="767" y="301.5903">&#160;</text><text fill="#000000" font-family="Inter" font-size="13" lengthAdjust="spacing" textLength="60" x="771" y="301.5903">signature</text><text fill="#000000" font-family="Inter" font-size="13" lengthAdjust="spacing" textLength="4" x="831" y="301.5903">&#160;</text><text fill="#000000" font-family="Inter" font-size="13" lengthAdjust="spacing" textLength="13" x="835" y="301.5903">UI</text><path d="M508,336.1563 L508,369.1563 A3.5,3.5 0 0 0 511.5,372.6563 L889.5,372.6563 A3.5,3.5 0 0 0 893,369.1563 L893,342.6563 L883,332.6563 L511.5,332.6563 A3.5,3.5 0 0 0 508,336.1563 " fill="#DFDFDF" style="stroke:#202020;stroke-width:1.5;"/><path d="M883,332.6563 L883,340.9063 A1.75,1.75 0 0 0 884.75,342.6563 L893,342.6563 L883,332.6563 " fill="#DFDFDF" style="stroke:#202020;stroke-width:1.5;"/><text fill="#202020" font-family="Inter" font-size="13" lengthAdjust="spacing" textLength="321" x="514" y="349.7231">Based on the interaction type, User might need to</text><text fill="#202020" font-family="Inter" font-size="13" lengthAdjust="spacing" textLength="364" x="514" y="364.856">pick a verification code first before entering the PIN code.</text><path d="M225,384.9219 L298.5,384.9219 L298.5,392.0547 L288.5,402.0547 L221.5,402.0547 L221.5,388.4219 A3.5,3.5 0 0 1 225,384.9219 " fill="#EEEEEE" style="stroke:#989898;stroke-width:1.5;"/><rect fill="none" height="265.6719" rx="3.5" ry="3.5" style="stroke:#989898;stroke-width:1.0;" width="520" x="221.5" y="384.9219"/><text fill="#202020" font-family="Inter" font-size="13" font-weight="bold" lengthAdjust="spacing" textLength="32" x="236.5" y="397.9888">loop</text><text fill="#989898" font-family="Inter" font-size="11" font-weight="bold" lengthAdjust="spacing" textLength="227" x="313.5" y="397.1323">[until signature completed or error]</text><polygon fill="#202020" points="526,419.1875,536,423.1875,526,427.1875" style="stroke:#202020;stroke-width:1.0;"/><line style="stroke:#202020;stroke-width:1.0;" x1="295" x2="532" y1="423.1875" y2="423.1875"/><text fill="#000000" font-family="Inter" font-size="13" font-weight="bold" lengthAdjust="spacing" textLength="9" x="322" y="418.1216">6</text><text fill="#000000" font-family="monospace" font-size="13" lengthAdjust="spacing" textLength="24" x="335" y="418.1216">GET</text><text fill="#000000" font-family="monospace" font-size="13" lengthAdjust="spacing" textLength="8" x="359" y="418.1216">&#160;</text><text fill="#000000" font-family="monospace" font-size="13" lengthAdjust="spacing" textLength="144" x="367" y="418.1216">session/:sessionId</text><line style="stroke:#202020;stroke-width:1.0;" x1="548" x2="590" y1="452.3203" y2="452.3203"/><line style="stroke:#202020;stroke-width:1.0;" x1="590" x2="590" y1="452.3203" y2="465.3203"/><line style="stroke:#202020;stroke-width:1.0;" x1="549" x2="590" y1="465.3203" y2="465.3203"/><polygon fill="#202020" points="559,461.3203,549,465.3203,559,469.3203" style="stroke:#202020;stroke-width:1.0;"/><text fill="#000000" font-family="Inter" font-size="13" font-weight="bold" lengthAdjust="spacing" textLength="9" x="555" y="447.2544">7</text><text fill="#000000" font-family="Inter" font-size="13" lengthAdjust="spacing" textLength="22" x="568" y="447.2544">Poll</text><path d="M235,480.3203 L295.5,480.3203 L295.5,487.4531 L285.5,497.4531 L231.5,497.4531 L231.5,483.8203 A3.5,3.5 0 0 1 235,480.3203 " fill="#EEEEEE" style="stroke:#989898;stroke-width:1.5;"/><rect fill="none" height="163.2734" rx="3.5" ry="3.5" style="stroke:#989898;stroke-width:1.0;" width="500" x="231.5" y="480.3203"/><text fill="#202020" font-family="Inter" font-size="13" font-weight="bold" lengthAdjust="spacing" textLength="19" x="246.5" y="493.3872">alt</text><text fill="#989898" font-family="Inter" font-size="11" font-weight="bold" lengthAdjust="spacing" textLength="127" x="310.5" y="492.5308">[signature pending]</text><polygon fill="#202020" points="306,497.4531,296,501.4531,306,505.4531" style="stroke:#202020;stroke-width:1.0;"/><line style="stroke:#202020;stroke-width:1.0;stroke-dasharray:2.0,2.0;" x1="300" x2="537" y1="501.4531" y2="501.4531"/><text fill="#000000" font-family="Inter" font-size="13" font-weight="bold" lengthAdjust="spacing" textLength="9" x="354" y="514.52">8</text><text fill="#000000" font-family="monospace" font-size="13" lengthAdjust="spacing" textLength="56" x="367" y="514.52">session</text><text fill="#000000" font-family="monospace" font-size="13" lengthAdjust="spacing" textLength="8" x="423" y="514.52">&#160;</text><text fill="#000000" font-family="monospace" font-size="13" lengthAdjust="spacing" textLength="48" x="431" y="514.52">status</text><line style="stroke:#989898;stroke-width:1.0;stroke-dasharray:2.0,2.0;" x1="231.5" x2="731.5" y1="527.5859" y2="527.5859"/><text fill="#989898" font-family="Inter" font-size="11" font-weight="bold" lengthAdjust="spacing" textLength="121" x="236.5" y="537.7964">[error (or timeout)]</text><polygon fill="#202020" points="306,541.3906,296,545.3906,306,549.3906" style="stroke:#202020;stroke-width:1.0;"/><line style="stroke:#202020;stroke-width:1.0;stroke-dasharray:2.0,2.0;" x1="300" x2="537" y1="545.3906" y2="545.3906"/><text fill="#000000" font-family="Inter" font-size="13" font-weight="bold" lengthAdjust="spacing" textLength="9" x="390" y="558.4575">9</text><text fill="#000000" font-family="monospace" font-size="13" lengthAdjust="spacing" textLength="40" x="403" y="558.4575">error</text><line style="stroke:#989898;stroke-width:1.0;stroke-dasharray:2.0,2.0;" x1="231.5" x2="731.5" y1="571.5234" y2="571.5234"/><text fill="#989898" font-family="Inter" font-size="11" font-weight="bold" lengthAdjust="spacing" textLength="142" x="236.5" y="581.7339">[signature completed]</text><polygon fill="#202020" points="559,602.4609,549,606.4609,559,610.4609" style="stroke:#202020;stroke-width:1.0;"/><line style="stroke:#202020;stroke-width:1.0;" x1="553" x2="700" y1="606.4609" y2="606.4609"/><text fill="#000000" font-family="Inter" font-size="13" font-weight="bold" lengthAdjust="spacing" textLength="18" x="582.5" y="601.395">10</text><text fill="#000000" font-family="Inter" font-size="13" lengthAdjust="spacing" textLength="62" x="604.5" y="601.395">Signature</text><polygon fill="#202020" points="306,614.4609,296,618.4609,306,622.4609" style="stroke:#202020;stroke-width:1.0;"/><line style="stroke:#202020;stroke-width:1.0;stroke-dasharray:2.0,2.0;" x1="300" x2="542" y1="618.4609" y2="618.4609"/><text fill="#000000" font-family="Inter" font-size="13" font-weight="bold" lengthAdjust="spacing" textLength="18" x="372" y="631.5278">11</text><text fill="#000000" font-family="monospace" font-size="13" lengthAdjust="spacing" textLength="72" x="394" y="631.5278">signature</text><path d="M45,666.0938 L45,684.0938 A3.5,3.5 0 0 0 48.5,687.5938 L530.5,687.5938 A3.5,3.5 0 0 0 534,684.0938 L534,672.5938 L524,662.5938 L48.5,662.5938 A3.5,3.5 0 0 0 45,666.0938 " fill="#DFDFDF" style="stroke:#202020;stroke-width:1.5;"/><path d="M524,662.5938 L524,670.8438 A1.75,1.75 0 0 0 525.75,672.5938 L534,672.5938 L524,662.5938 " fill="#DFDFDF" style="stroke:#202020;stroke-width:1.5;"/><text fill="#202020" font-family="Inter" font-size="13" lengthAdjust="spacing" textLength="468" x="51" y="679.6606">RP receives the signature and verifies that the provided signature is valid.</text><polygon fill="#202020" points="147,692.7266,137,696.7266,147,700.7266" style="stroke:#202020;stroke-width:1.0;"/><line style="stroke:#202020;stroke-width:1.0;stroke-dasharray:2.0,2.0;" x1="141" x2="284" y1="696.7266" y2="696.7266"/><text fill="#000000" font-family="Inter" font-size="13" font-weight="bold" lengthAdjust="spacing" textLength="18" x="148" y="709.7935">12</text><text fill="#000000" font-family="Inter" font-size="13" lengthAdjust="spacing" textLength="30" x="170" y="709.7935">User</text><text fill="#000000" font-family="Inter" font-size="13" lengthAdjust="spacing" textLength="4" x="200" y="709.7935">&#160;</text><text fill="#000000" font-family="Inter" font-size="13" lengthAdjust="spacing" textLength="23" x="204" y="709.7935">has</text><text fill="#000000" font-family="Inter" font-size="13" lengthAdjust="spacing" textLength="4" x="227" y="709.7935">&#160;</text><text fill="#000000" font-family="Inter" font-size="13" lengthAdjust="spacing" textLength="42" x="231" y="709.7935">signed</text></g></svg>