<?xml version="1.0" encoding="us-ascii" standalone="no"?><svg xmlns="http://www.w3.org/2000/svg" xmlns:xlink="http://www.w3.org/1999/xlink" contentStyleType="text/css" height="633px" preserveAspectRatio="none" style="width:879px;height:633px;" version="1.1" viewBox="0 0 879 633" width="879px" zoomAndPan="magnify"><defs/><g><text fill="#000000" font-family="Inter" font-size="14" font-weight="bold" lengthAdjust="spacing" textLength="248" x="315" y="27.9951">Notification-Based Signing Flow</text><rect fill="#D2E4F4" height="533.8672" style="stroke:#989898;stroke-width:1.0;" width="10" x="150" y="83.5938"/><rect fill="#D2E4F4" height="533.8672" style="stroke:#989898;stroke-width:1.0;" width="10" x="309" y="83.5938"/><rect fill="none" height="265.6719" rx="3.5" ry="3.5" style="stroke:#989898;stroke-width:1.0;" width="520" x="245.5" y="314.6563"/><rect fill="none" height="163.2734" rx="3.5" ry="3.5" style="stroke:#989898;stroke-width:1.0;" width="500" x="255.5" y="410.0547"/><line style="stroke:#989898;stroke-width:0.5;stroke-dasharray:5.0,5.0;" x1="155" x2="155" y1="73.5938" y2="626.4609"/><line style="stroke:#989898;stroke-width:0.5;stroke-dasharray:5.0,5.0;" x1="313.5" x2="313.5" y1="73.5938" y2="626.4609"/><line style="stroke:#989898;stroke-width:0.5;stroke-dasharray:5.0,5.0;" x1="572" x2="572" y1="73.5938" y2="626.4609"/><line style="stroke:#989898;stroke-width:0.5;stroke-dasharray:5.0,5.0;" x1="724.5" x2="724.5" y1="73.5938" y2="626.4609"/><rect fill="#A5C8E8" height="30.2969" rx="3.5" ry="3.5" style="stroke:#202020;stroke-width:1.5;" width="96" x="107" y="42.2969"/><text fill="#202020" font-family="Inter" font-size="14" lengthAdjust="spacing" textLength="82" x="114" y="62.292">RP frontend</text><rect fill="#A5C8E8" height="30.2969" rx="3.5" ry="3.5" style="stroke:#202020;stroke-width:1.5;" width="97" x="265.5" y="42.2969"/><text fill="#202020" font-family="Inter" font-size="14" lengthAdjust="spacing" textLength="83" x="272.5" y="62.292">RP backend</text><rect fill="#A5C8E8" height="30.2969" rx="3.5" ry="3.5" style="stroke:#202020;stroke-width:1.5;" width="58" x="543" y="42.2969"/><text fill="#202020" font-family="Inter" font-size="14" lengthAdjust="spacing" textLength="44" x="550" y="62.292">RP API</text><rect fill="#A5C8E8" height="30.2969" rx="3.5" ry="3.5" style="stroke:#202020;stroke-width:1.5;" width="41" x="704.5" y="42.2969"/><text fill="#202020" font-family="Inter" font-size="14" lengthAdjust="spacing" textLength="27" x="711.5" y="62.292">App</text><rect fill="#D2E4F4" height="533.8672" style="stroke:#989898;stroke-width:1.0;" width="10" x="150" y="83.5938"/><rect fill="#D2E4F4" height="533.8672" style="stroke:#989898;stroke-width:1.0;" width="10" x="309" y="83.5938"/><path d="M5,92.0938 L5,140.0938 A3.5,3.5 0 0 0 8.5,143.5938 L301.5,143.5938 A3.5,3.5 0 0 0 305,140.0938 L305,98.5938 L295,88.5938 L8.5,88.5938 A3.5,3.5 0 0 0 5,92.0938 " fill="#DFDFDF" style="stroke:#202020;stroke-width:1.5;"/><path d="M295,88.5938 L295,96.8438 A1.75,1.75 0 0 0 296.75,98.5938 L305,98.5938 L295,88.5938 " fill="#DFDFDF" style="stroke:#202020;stroke-width:1.5;"/><text fill="#202020" font-family="Inter" font-size="13" lengthAdjust="spacing" textLength="231" x="11" y="105.6606">User initiates signing on RP frontend</text><text fill="#202020" font-family="Inter" font-size="13" lengthAdjust="spacing" textLength="279" x="11" y="120.7935">(website or mobile app). Inserting ID code is</text><text fill="#202020" font-family="Inter" font-size="13" lengthAdjust="spacing" textLength="231" x="11" y="135.9263">optional depending on the RP setup.</text><polygon fill="#202020" points="297,166.125,307,170.125,297,174.125" style="stroke:#202020;stroke-width:1.0;"/><line style="stroke:#202020;stroke-width:1.0;" x1="160" x2="303" y1="170.125" y2="170.125"/><text fill="#000000" font-family="Inter" font-size="13" font-weight="bold" lengthAdjust="spacing" textLength="9" x="178.5" y="165.0591">1</text><text fill="#000000" font-family="Inter" font-size="13" lengthAdjust="spacing" textLength="52" x="191.5" y="165.0591">Request</text><text fill="#000000" font-family="Inter" font-size="13" lengthAdjust="spacing" textLength="4" x="243.5" y="165.0591">&#160;</text><text fill="#000000" font-family="Inter" font-size="13" lengthAdjust="spacing" textLength="13" x="247.5" y="165.0591">to</text><text fill="#000000" font-family="Inter" font-size="13" lengthAdjust="spacing" textLength="4" x="260.5" y="165.0591">&#160;</text><text fill="#000000" font-family="Inter" font-size="13" lengthAdjust="spacing" textLength="26" x="264.5" y="165.0591">sign</text><polygon fill="#202020" points="560,195.2578,570,199.2578,560,203.2578" style="stroke:#202020;stroke-width:1.0;"/><line style="stroke:#202020;stroke-width:1.0;" x1="319" x2="566" y1="199.2578" y2="199.2578"/><text fill="#000000" font-family="Inter" font-size="13" font-weight="bold" lengthAdjust="spacing" textLength="9" x="331" y="194.1919">2</text><text fill="#000000" font-family="Inter" font-size="13" lengthAdjust="spacing" textLength="34" x="344" y="194.1919">POST</text><text fill="#000000" font-family="Inter" font-size="13" lengthAdjust="spacing" textLength="4" x="378" y="194.1919">&#160;</text><text fill="#000000" font-family="Inter" font-size="13" lengthAdjust="spacing" textLength="108" x="382" y="194.1919">signature/[object</text><text fill="#000000" font-family="Inter" font-size="13" lengthAdjust="spacing" textLength="4" x="490" y="194.1919">&#160;</text><text fill="#000000" font-family="Inter" font-size="13" lengthAdjust="spacing" textLength="66" x="494" y="194.1919">reference]</text><polygon fill="#202020" points="330,207.2578,320,211.2578,330,215.2578" style="stroke:#202020;stroke-width:1.0;"/><line style="stroke:#202020;stroke-width:1.0;stroke-dasharray:2.0,2.0;" x1="324" x2="571" y1="211.2578" y2="211.2578"/><text fill="#000000" font-family="Inter" font-size="13" font-weight="bold" lengthAdjust="spacing" textLength="9" x="403" y="224.3247">3</text><text fill="#000000" font-family="monospace" font-size="13" lengthAdjust="spacing" textLength="72" x="416" y="224.3247">sessionId</text><polygon fill="#202020" points="713,253.5234,723,257.5234,713,261.5234" style="stroke:#202020;stroke-width:1.0;"/><line style="stroke:#202020;stroke-width:1.0;" x1="572" x2="719" y1="257.5234" y2="257.5234"/><text fill="#000000" font-family="Inter" font-size="13" font-weight="bold" lengthAdjust="spacing" textLength="9" x="584" y="252.4575">4</text><text fill="#000000" font-family="Inter" font-size="13" lengthAdjust="spacing" textLength="52" x="597" y="252.4575">Request</text><text fill="#000000" font-family="Inter" font-size="13" lengthAdjust="spacing" textLength="4" x="649" y="252.4575">&#160;</text><text fill="#000000" font-family="Inter" font-size="13" lengthAdjust="spacing" textLength="60" x="653" y="252.4575">signature</text><line style="stroke:#202020;stroke-width:1.0;" x1="725" x2="767" y1="286.6563" y2="286.6563"/><line style="stroke:#202020;stroke-width:1.0;" x1="767" x2="767" y1="286.6563" y2="299.6563"/><line style="stroke:#202020;stroke-width:1.0;" x1="726" x2="767" y1="299.6563" y2="299.6563"/><polygon fill="#202020" points="736,295.6563,726,299.6563,736,303.6563" style="stroke:#202020;stroke-width:1.0;"/><text fill="#000000" font-family="Inter" font-size="13" font-weight="bold" lengthAdjust="spacing" textLength="9" x="732" y="281.5903">5</text><text fill="#000000" font-family="Inter" font-size="13" lengthAdjust="spacing" textLength="46" x="745" y="281.5903">Display</text><text fill="#000000" font-family="Inter" font-size="13" lengthAdjust="spacing" textLength="4" x="791" y="281.5903">&#160;</text><text fill="#000000" font-family="Inter" font-size="13" lengthAdjust="spacing" textLength="60" x="795" y="281.5903">signature</text><text fill="#000000" font-family="Inter" font-size="13" lengthAdjust="spacing" textLength="4" x="855" y="281.5903">&#160;</text><text fill="#000000" font-family="Inter" font-size="13" lengthAdjust="spacing" textLength="13" x="859" y="281.5903">UI</text><path d="M249,314.6563 L322.5,314.6563 L322.5,321.7891 L312.5,331.7891 L245.5,331.7891 L245.5,318.1563 A3.5,3.5 0 0 1 249,314.6563 " fill="#EEEEEE" style="stroke:#989898;stroke-width:1.5;"/><rect fill="none" height="265.6719" rx="3.5" ry="3.5" style="stroke:#989898;stroke-width:1.0;" width="520" x="245.5" y="314.6563"/><text fill="#202020" font-family="Inter" font-size="13" font-weight="bold" lengthAdjust="spacing" textLength="32" x="260.5" y="327.7231">loop</text><text fill="#989898" font-family="Inter" font-size="11" font-weight="bold" lengthAdjust="spacing" textLength="227" x="337.5" y="326.8667">[until signature completed or error]</text><polygon fill="#202020" points="560,348.9219,570,352.9219,560,356.9219" style="stroke:#202020;stroke-width:1.0;"/><line style="stroke:#202020;stroke-width:1.0;" x1="319" x2="566" y1="352.9219" y2="352.9219"/><text fill="#000000" font-family="Inter" font-size="13" font-weight="bold" lengthAdjust="spacing" textLength="9" x="351" y="347.856">6</text><text fill="#000000" font-family="monospace" font-size="13" lengthAdjust="spacing" textLength="24" x="364" y="347.856">GET</text><text fill="#000000" font-family="monospace" font-size="13" lengthAdjust="spacing" textLength="8" x="388" y="347.856">&#160;</text><text fill="#000000" font-family="monospace" font-size="13" lengthAdjust="spacing" textLength="144" x="396" y="347.856">session/:sessionId</text><line style="stroke:#202020;stroke-width:1.0;" x1="572" x2="614" y1="382.0547" y2="382.0547"/><line style="stroke:#202020;stroke-width:1.0;" x1="614" x2="614" y1="382.0547" y2="395.0547"/><line style="stroke:#202020;stroke-width:1.0;" x1="573" x2="614" y1="395.0547" y2="395.0547"/><polygon fill="#202020" points="583,391.0547,573,395.0547,583,399.0547" style="stroke:#202020;stroke-width:1.0;"/><text fill="#000000" font-family="Inter" font-size="13" font-weight="bold" lengthAdjust="spacing" textLength="9" x="579" y="376.9888">7</text><text fill="#000000" font-family="Inter" font-size="13" lengthAdjust="spacing" textLength="22" x="592" y="376.9888">Poll</text><path d="M259,410.0547 L319.5,410.0547 L319.5,417.1875 L309.5,427.1875 L255.5,427.1875 L255.5,413.5547 A3.5,3.5 0 0 1 259,410.0547 " fill="#EEEEEE" style="stroke:#989898;stroke-width:1.5;"/><rect fill="none" height="163.2734" rx="3.5" ry="3.5" style="stroke:#989898;stroke-width:1.0;" width="500" x="255.5" y="410.0547"/><text fill="#202020" font-family="Inter" font-size="13" font-weight="bold" lengthAdjust="spacing" textLength="19" x="270.5" y="423.1216">alt</text><text fill="#989898" font-family="Inter" font-size="11" font-weight="bold" lengthAdjust="spacing" textLength="127" x="334.5" y="422.2651">[signature pending]</text><polygon fill="#202020" points="330,427.1875,320,431.1875,330,435.1875" style="stroke:#202020;stroke-width:1.0;"/><line style="stroke:#202020;stroke-width:1.0;stroke-dasharray:2.0,2.0;" x1="324" x2="571" y1="431.1875" y2="431.1875"/><text fill="#000000" font-family="Inter" font-size="13" font-weight="bold" lengthAdjust="spacing" textLength="9" x="383" y="444.2544">8</text><text fill="#000000" font-family="monospace" font-size="13" lengthAdjust="spacing" textLength="56" x="396" y="444.2544">session</text><text fill="#000000" font-family="monospace" font-size="13" lengthAdjust="spacing" textLength="8" x="452" y="444.2544">&#160;</text><text fill="#000000" font-family="monospace" font-size="13" lengthAdjust="spacing" textLength="48" x="460" y="444.2544">status</text><line style="stroke:#989898;stroke-width:1.0;stroke-dasharray:2.0,2.0;" x1="255.5" x2="755.5" y1="457.3203" y2="457.3203"/><text fill="#989898" font-family="Inter" font-size="11" font-weight="bold" lengthAdjust="spacing" textLength="121" x="260.5" y="467.5308">[error (or timeout)]</text><polygon fill="#202020" points="330,471.125,320,475.125,330,479.125" style="stroke:#202020;stroke-width:1.0;"/><line style="stroke:#202020;stroke-width:1.0;stroke-dasharray:2.0,2.0;" x1="324" x2="571" y1="475.125" y2="475.125"/><text fill="#000000" font-family="Inter" font-size="13" font-weight="bold" lengthAdjust="spacing" textLength="9" x="419" y="488.1919">9</text><text fill="#000000" font-family="monospace" font-size="13" lengthAdjust="spacing" textLength="40" x="432" y="488.1919">error</text><line style="stroke:#989898;stroke-width:1.0;stroke-dasharray:2.0,2.0;" x1="255.5" x2="755.5" y1="501.2578" y2="501.2578"/><text fill="#989898" font-family="Inter" font-size="11" font-weight="bold" lengthAdjust="spacing" textLength="142" x="260.5" y="511.4683">[signature completed]</text><polygon fill="#202020" points="583,532.1953,573,536.1953,583,540.1953" style="stroke:#202020;stroke-width:1.0;"/><line style="stroke:#202020;stroke-width:1.0;" x1="577" x2="724" y1="536.1953" y2="536.1953"/><text fill="#000000" font-family="Inter" font-size="13" font-weight="bold" lengthAdjust="spacing" textLength="18" x="606.5" y="531.1294">10</text><text fill="#000000" font-family="Inter" font-size="13" lengthAdjust="spacing" textLength="62" x="628.5" y="531.1294">Signature</text><polygon fill="#202020" points="330,544.1953,320,548.1953,330,552.1953" style="stroke:#202020;stroke-width:1.0;"/><line style="stroke:#202020;stroke-width:1.0;stroke-dasharray:2.0,2.0;" x1="324" x2="571" y1="548.1953" y2="548.1953"/><text fill="#000000" font-family="Inter" font-size="13" font-weight="bold" lengthAdjust="spacing" textLength="18" x="398.5" y="561.2622">11</text><text fill="#000000" font-family="monospace" font-size="13" lengthAdjust="spacing" textLength="72" x="420.5" y="561.2622">signature</text><polygon fill="#202020" points="171,587.3281,161,591.3281,171,595.3281" style="stroke:#202020;stroke-width:1.0;"/><line style="stroke:#202020;stroke-width:1.0;stroke-dasharray:2.0,2.0;" x1="165" x2="308" y1="591.3281" y2="591.3281"/><text fill="#000000" font-family="Inter" font-size="13" font-weight="bold" lengthAdjust="spacing" textLength="18" x="172" y="604.395">12</text><text fill="#000000" font-family="Inter" font-size="13" lengthAdjust="spacing" textLength="30" x="194" y="604.395">User</text><text fill="#000000" font-family="Inter" font-size="13" lengthAdjust="spacing" textLength="4" x="224" y="604.395">&#160;</text><text fill="#000000" font-family="Inter" font-size="13" lengthAdjust="spacing" textLength="23" x="228" y="604.395">has</text><text fill="#000000" font-family="Inter" font-size="13" lengthAdjust="spacing" textLength="4" x="251" y="604.395">&#160;</text><text fill="#000000" font-family="Inter" font-size="13" lengthAdjust="spacing" textLength="42" x="255" y="604.395">signed</text><!--SRC=[lLXjRzj64lxENx7H1N0Cr1ObMH8Lf07uwWXr9KEohmXwXR4YLzRM59TTBkEuHV_xpIxVbfHqlTobCI71ccTUdfdTdI5vTcQSdI7tPKCu4Zko9sY3Cn8XbiYVQ8zvLigtdEtHDXSv9nUOXpigI2ZwQRwFBvH29Xt9pvBJHvhW6Dcvs37-5ltSjVhbpKw8D7lRxpzIiSitbo7RzxjAvzBNckKy94TSw87_AtUwGLzmGlfxd0d2-uL8HRkX8Kao6SvESGZfbuBlq3y9poZKP7XfVdcqJSmsLRIRkUilrlwvh9HHbpuXWeOORJXE8feyef35Z6V6gzS_VPZV-UXxrFj7eFvw87DkRFS79HkQyf8oprxzy72zyZyg-SoIbvJN8Y-GbnJTpAy_t3MwmL1UfQw_K3BJ7GU3cPIv7nr_zT0WpZIOk8DQ-q76zLS3imWx20QssGM7OmMEBT-U15rmN5WEB2SO3RlWTDnXeuEpmj8S3oUcBS6Lxoc9xPe3Sz2Gh-I1F_R6NgdveAhWhoopB6vL7GsRL9ZZEtu7koenVmPNXRNo3JnpQaxRK9bjm_2ZVtEp_AcexCXoJBEXhK70pfjOZVu1-S3o1uTmpJyOkAD3k4eXy1txIeFRMGJkpFGFq3AHXlFj_UhsfjYei5XEu3M9Q91jJgt0R_GxYVYkVrLiyJPS9kBDtDank4p4dTX-otbx-zMiMcYPoCWo1uvT7AxxWklGduwTIPF64K2AEYbuGqZXgWkM2TXZr_AjBbZIdrgsvtars28_78qjo-fWrT6PZfon8x7bobvS5nnzQpBHDvC6mMO9HjD6_s0p-JFl25nl9cze1uTmlPaSrzAjMsaqh5fecSZCkRgIgCmI6jprQdc_K2TNG5VCKin98jJwhUO_sYlPl3erRh1ArjMnfCxQTvSBh_JGhAsEdB9NCUQBOFdWN4jCDb59TxdoAcLWNajqDtM31ZHOBkvqRVdxbExwtdNzzRgCflLDrVIXYCf2Rp5oQjYhnNnntIHOrBiatybR3Y8vXt0SmzmN36R-4r73Nv3F0j7YHa1D9CIsg2GahLwbd8KaWi67NcTv698iU_DwdpsU6mYzsx9455RVLqcyVxTvBt7Z5KcYslOBunT9TyDlCOtXd-FX2vEl4hsiR3VyC-O9pEtZuKkRhn9VhbytE4ssx7XagNqYh65aJpI1KuNtA29RdCSY0Ci5XZkzUG9tAXhkuF3faRCyYLp5GpkVcbQsmn5xbdSlMnndH4DMXIdSvN0qrUGsv-ovSgdEGeD9CYKaZuTEDoE_vIG92Ve3yaLmZxObDpGX3kCHuPMxrW5iwtMpwJGDfNmD2ka7Wi5ZbqaDTu13-xzYf2dTxMZubC01GWD3OHxzH45UvYZ_ZdZhOBgJ2Zd6_a_ZJxsUy0rtdpJ5i76ASATAPFmd7iSY7V2w7BTZHrXW-S1nAl11I_uY2grGC3weUFcB3F__C0aJ9xCfHyVNBoCE1UEdeXP7wtzEQ2DTOVxtLou4aBFu6yI1NXiAU9pBllb-XywLasyKTGSD16qP4nlssS2vO4c-txGQ-nv__X4Cy2DPqzy96erCuwmhf9aSGYdzJEBiE_HCKCIICu4IKesh98VPzO9m5A5_9TN0aiDBRzdY9IRmpMaeuC5OGpZ9KbW8KePqICoUrLn0WkVaIDSl5UsOFYO8dixbg3BWP8F_1HDq2y_HScal7FKQOmrQSYG5uDOmz4xNMztALnfWdqGzX3F4quVgzu7Y1fQgqJk0xTkvWa86axK5sccga2oDgNWYBmyuJGq3ZYlzXA5Fw34reM6eBi8-mG3GLUup4D242WfwuBHCZYL8IyPuyqms6PNs7EtPXa9b8Ehv9Snri1VIOku1rqWkhi5IMIuSmrr0Iegt3-Mx7_2P4P6dbmR8LLyp38qDkdWFvD1Rj98hamcv6oGZgIGnMGn0RvVhEoN7yWr9_sUs-HKE7wpxbd2vdhz8zNSN5vL-hvV12WEbUTI3Xm4b1Mzw0RMOjMEZfN1eu54Gu9V60DtF3IDcB4Kv38PO0qAsJsCYv4imZWZiHLvFqrPclTwr3waLRFjlTTgLViM-gWLq7eNXMAEEohhhKOuL1CuFw6UbUpYEf627ti17q3rXkJW_wKIfwhP74gwDkyKilQphQbUA4QctRMkBdqobyg0LIVEX3f1Y2FjOVbeRJde2X-187OGTBeu0YVuD]--></g></svg>