<?xml version="1.0" encoding="us-ascii" standalone="no"?><svg xmlns="http://www.w3.org/2000/svg" xmlns:xlink="http://www.w3.org/1999/xlink" contentStyleType="text/css" height="1118px" preserveAspectRatio="none" style="width:1343px;height:1118px;" version="1.1" viewBox="0 0 1343 1118" width="1343px" zoomAndPan="magnify"><defs/><g><text fill="#000000" font-family="Inter" font-size="14" font-weight="bold" lengthAdjust="spacing" textLength="318" x="514.5" y="27.9951">Dynamic Link Based Authentication Flow</text><rect fill="#D2E4F4" height="1018.7891" style="stroke:#989898;stroke-width:1.0;" width="10" x="150" y="83.5938"/><rect fill="#D2E4F4" height="1018.7891" style="stroke:#989898;stroke-width:1.0;" width="10" x="394" y="83.5938"/><rect fill="#D2E4F4" height="687.9297" style="stroke:#989898;stroke-width:1.0;" width="10" x="756" y="249.5234"/><rect fill="#D2E4F4" height="417.4688" style="stroke:#989898;stroke-width:1.0;" width="10" x="1107" y="507.9844"/><rect fill="none" height="171.0625" rx="3.5" ry="3.5" style="stroke:#989898;stroke-width:1.0;" width="425.5" x="32" y="293.6563"/><rect fill="none" height="223.5391" rx="3.5" ry="3.5" style="stroke:#989898;stroke-width:1.0;" width="822" x="330.5" y="746.0469"/><rect fill="none" height="163.2734" rx="3.5" ry="3.5" style="stroke:#989898;stroke-width:1.0;" width="802" x="340.5" y="799.3125"/><line style="stroke:#989898;stroke-width:0.5;stroke-dasharray:5.0,5.0;" x1="155" x2="155" y1="73.5938" y2="1111.3828"/><line style="stroke:#989898;stroke-width:0.5;stroke-dasharray:5.0,5.0;" x1="398.5" x2="398.5" y1="73.5938" y2="1111.3828"/><line style="stroke:#989898;stroke-width:0.5;stroke-dasharray:5.0,5.0;" x1="761" x2="761" y1="73.5938" y2="1111.3828"/><line style="stroke:#989898;stroke-width:0.5;stroke-dasharray:5.0,5.0;" x1="1111.5" x2="1111.5" y1="73.5938" y2="1111.3828"/><rect fill="#A5C8E8" height="30.2969" rx="3.5" ry="3.5" style="stroke:#202020;stroke-width:1.5;" width="96" x="107" y="42.2969"/><text fill="#202020" font-family="Inter" font-size="14" lengthAdjust="spacing" textLength="82" x="114" y="62.292">RP frontend</text><rect fill="#A5C8E8" height="30.2969" rx="3.5" ry="3.5" style="stroke:#202020;stroke-width:1.5;" width="97" x="350.5" y="42.2969"/><text fill="#202020" font-family="Inter" font-size="14" lengthAdjust="spacing" textLength="83" x="357.5" y="62.292">RP backend</text><rect fill="#A5C8E8" height="30.2969" rx="3.5" ry="3.5" style="stroke:#202020;stroke-width:1.5;" width="58" x="732" y="42.2969"/><text fill="#202020" font-family="Inter" font-size="14" lengthAdjust="spacing" textLength="44" x="739" y="62.292">RP API</text><rect fill="#A5C8E8" height="30.2969" rx="3.5" ry="3.5" style="stroke:#202020;stroke-width:1.5;" width="41" x="1091.5" y="42.2969"/><text fill="#202020" font-family="Inter" font-size="14" lengthAdjust="spacing" textLength="27" x="1098.5" y="62.292">App</text><rect fill="#D2E4F4" height="1018.7891" style="stroke:#989898;stroke-width:1.0;" width="10" x="150" y="83.5938"/><rect fill="#D2E4F4" height="1018.7891" style="stroke:#989898;stroke-width:1.0;" width="10" x="394" y="83.5938"/><rect fill="#D2E4F4" height="687.9297" style="stroke:#989898;stroke-width:1.0;" width="10" x="756" y="249.5234"/><rect fill="#D2E4F4" height="417.4688" style="stroke:#989898;stroke-width:1.0;" width="10" x="1107" y="507.9844"/><path d="M5,92.0938 L5,140.0938 A3.5,3.5 0 0 0 8.5,143.5938 L301.5,143.5938 A3.5,3.5 0 0 0 305,140.0938 L305,98.5938 L295,88.5938 L8.5,88.5938 A3.5,3.5 0 0 0 5,92.0938 " fill="#DFDFDF" style="stroke:#202020;stroke-width:1.5;"/><path d="M295,88.5938 L295,96.8438 A1.75,1.75 0 0 0 296.75,98.5938 L305,98.5938 L295,88.5938 " fill="#DFDFDF" style="stroke:#202020;stroke-width:1.5;"/><text fill="#202020" font-family="Inter" font-size="13" lengthAdjust="spacing" textLength="253" x="11" y="105.6606">User initiates a login on the RP frontend</text><text fill="#202020" font-family="Inter" font-size="13" lengthAdjust="spacing" textLength="279" x="11" y="120.7935">(website or mobile app). Inserting ID code is</text><text fill="#202020" font-family="Inter" font-size="13" lengthAdjust="spacing" textLength="231" x="11" y="135.9263">optional depending on the RP setup.</text><polygon fill="#202020" points="382,166.125,392,170.125,382,174.125" style="stroke:#202020;stroke-width:1.0;"/><line style="stroke:#202020;stroke-width:1.0;" x1="160" x2="388" y1="170.125" y2="170.125"/><text fill="#000000" font-family="Inter" font-size="13" font-weight="bold" lengthAdjust="spacing" textLength="9" x="213" y="165.0591">1</text><text fill="#000000" font-family="Inter" font-size="13" lengthAdjust="spacing" textLength="52" x="226" y="165.0591">Request</text><text fill="#000000" font-family="Inter" font-size="13" lengthAdjust="spacing" textLength="4" x="278" y="165.0591">&#160;</text><text fill="#000000" font-family="Inter" font-size="13" lengthAdjust="spacing" textLength="25" x="282" y="165.0591">new</text><text fill="#000000" font-family="Inter" font-size="13" lengthAdjust="spacing" textLength="4" x="307" y="165.0591">&#160;</text><text fill="#000000" font-family="Inter" font-size="13" lengthAdjust="spacing" textLength="30" x="311" y="165.0591">login</text><path d="M281,186.625 L281,219.625 A3.5,3.5 0 0 0 284.5,223.125 L512.5,223.125 A3.5,3.5 0 0 0 516,219.625 L516,193.125 L506,183.125 L284.5,183.125 A3.5,3.5 0 0 0 281,186.625 " fill="#DFDFDF" style="stroke:#202020;stroke-width:1.5;"/><path d="M506,183.125 L506,191.375 A1.75,1.75 0 0 0 507.75,193.125 L516,193.125 L506,183.125 " fill="#DFDFDF" style="stroke:#202020;stroke-width:1.5;"/><text fill="#202020" font-family="Inter" font-size="13" lengthAdjust="spacing" textLength="214" x="287" y="200.1919">RP generates a randomChallenge</text><text fill="#202020" font-family="Inter" font-size="13" lengthAdjust="spacing" textLength="175" x="287" y="215.3247">and sends it in the request.</text><polygon fill="#202020" points="744,245.5234,754,249.5234,744,253.5234" style="stroke:#202020;stroke-width:1.0;"/><line style="stroke:#202020;stroke-width:1.0;" x1="404" x2="750" y1="249.5234" y2="249.5234"/><text fill="#000000" font-family="Inter" font-size="13" font-weight="bold" lengthAdjust="spacing" textLength="9" x="413.5" y="244.4575">2</text><text fill="#000000" font-family="monospace" font-size="13" lengthAdjust="spacing" textLength="32" x="426.5" y="244.4575">POST</text><text fill="#000000" font-family="monospace" font-size="13" lengthAdjust="spacing" textLength="8" x="458.5" y="244.4575">&#160;</text><text fill="#000000" font-family="monospace" font-size="13" lengthAdjust="spacing" textLength="280" x="466.5" y="244.4575">/v3/authentication/dynamic-link/...</text><polygon fill="#202020" points="415,257.5234,405,261.5234,415,265.5234" style="stroke:#202020;stroke-width:1.0;"/><line style="stroke:#202020;stroke-width:1.0;stroke-dasharray:2.0,2.0;" x1="409" x2="755" y1="261.5234" y2="261.5234"/><text fill="#000000" font-family="Inter" font-size="13" font-weight="bold" lengthAdjust="spacing" textLength="9" x="429.5" y="274.5903">3</text><text fill="#000000" font-family="monospace" font-size="13" lengthAdjust="spacing" textLength="72" x="442.5" y="274.5903">sessionId</text><text fill="#000000" font-family="Inter" font-size="13" lengthAdjust="spacing" textLength="4" x="514.5" y="274.5903">,</text><text fill="#000000" font-family="Inter" font-size="13" lengthAdjust="spacing" textLength="4" x="518.5" y="274.5903">&#160;</text><text fill="#000000" font-family="monospace" font-size="13" lengthAdjust="spacing" textLength="96" x="522.5" y="274.5903">sessionToken</text><text fill="#000000" font-family="Inter" font-size="13" lengthAdjust="spacing" textLength="4" x="618.5" y="274.5903">,</text><text fill="#000000" font-family="Inter" font-size="13" lengthAdjust="spacing" textLength="4" x="622.5" y="274.5903">&#160;</text><text fill="#000000" font-family="monospace" font-size="13" lengthAdjust="spacing" textLength="104" x="626.5" y="274.5903">sessionSecret</text><path d="M35.5,293.6563 L109,293.6563 L109,300.7891 L99,310.7891 L32,310.7891 L32,297.1563 A3.5,3.5 0 0 1 35.5,293.6563 " fill="#EEEEEE" style="stroke:#989898;stroke-width:1.5;"/><rect fill="none" height="171.0625" rx="3.5" ry="3.5" style="stroke:#989898;stroke-width:1.0;" width="425.5" x="32" y="293.6563"/><text fill="#202020" font-family="Inter" font-size="13" font-weight="bold" lengthAdjust="spacing" textLength="32" x="47" y="306.7231">loop</text><text fill="#989898" font-family="Inter" font-size="11" font-weight="bold" lengthAdjust="spacing" textLength="132" x="124" y="305.8667">[until user interacts]</text><polygon fill="#202020" points="382,327.9219,392,331.9219,382,335.9219" style="stroke:#202020;stroke-width:1.0;"/><line style="stroke:#202020;stroke-width:1.0;" x1="160" x2="388" y1="331.9219" y2="331.9219"/><text fill="#000000" font-family="Inter" font-size="13" font-weight="bold" lengthAdjust="spacing" textLength="9" x="172" y="326.856">4</text><text fill="#000000" font-family="Inter" font-size="13" lengthAdjust="spacing" textLength="52" x="185" y="326.856">Request</text><text fill="#000000" font-family="Inter" font-size="13" lengthAdjust="spacing" textLength="4" x="237" y="326.856">&#160;</text><text fill="#000000" font-family="Inter" font-size="13" lengthAdjust="spacing" textLength="17" x="241" y="326.856">for</text><text fill="#000000" font-family="Inter" font-size="13" lengthAdjust="spacing" textLength="4" x="258" y="326.856">&#160;</text><text fill="#000000" font-family="Inter" font-size="13" lengthAdjust="spacing" textLength="53" x="262" y="326.856">updated</text><text fill="#000000" font-family="Inter" font-size="13" lengthAdjust="spacing" textLength="4" x="315" y="326.856">&#160;</text><text fill="#000000" font-family="Inter" font-size="13" lengthAdjust="spacing" textLength="63" x="319" y="326.856">AuthCode</text><polygon fill="#202020" points="171,339.9219,161,343.9219,171,347.9219" style="stroke:#202020;stroke-width:1.0;"/><line style="stroke:#202020;stroke-width:1.0;stroke-dasharray:2.0,2.0;" x1="165" x2="393" y1="343.9219" y2="343.9219"/><text fill="#000000" font-family="Inter" font-size="13" font-weight="bold" lengthAdjust="spacing" textLength="9" x="185" y="356.9888">5</text><text fill="#000000" font-family="Inter" font-size="13" lengthAdjust="spacing" textLength="47" x="198" y="356.9888">Provide</text><text fill="#000000" font-family="Inter" font-size="13" lengthAdjust="spacing" textLength="4" x="245" y="356.9888">&#160;</text><text fill="#000000" font-family="Inter" font-size="13" lengthAdjust="spacing" textLength="53" x="249" y="356.9888">updated</text><text fill="#000000" font-family="Inter" font-size="13" lengthAdjust="spacing" textLength="4" x="302" y="356.9888">&#160;</text><text fill="#000000" font-family="Inter" font-size="13" lengthAdjust="spacing" textLength="63" x="306" y="356.9888">AuthCode</text><path d="M42,377.5547 L42,455.5547 A3.5,3.5 0 0 0 45.5,459.0547 L263.5,459.0547 A3.5,3.5 0 0 0 267,455.5547 L267,384.0547 L257,374.0547 L45.5,374.0547 A3.5,3.5 0 0 0 42,377.5547 " fill="#DFDFDF" style="stroke:#202020;stroke-width:1.5;"/><path d="M257,374.0547 L257,382.3047 A1.75,1.75 0 0 0 258.75,384.0547 L267,384.0547 L257,374.0547 " fill="#DFDFDF" style="stroke:#202020;stroke-width:1.5;"/><text fill="#202020" font-family="Inter" font-size="13" lengthAdjust="spacing" textLength="200" x="48" y="391.1216">RP frontend shows one or more</text><text fill="#202020" font-family="Inter" font-size="13" lengthAdjust="spacing" textLength="173" x="48" y="406.2544">of the following to the user:</text><ellipse cx="53.5" cy="416.9531" fill="#202020" rx="2.5" ry="2.5" style="stroke:#202020;stroke-width:0.0;"/><text fill="#202020" font-family="Inter" font-size="13" font-weight="bold" lengthAdjust="spacing" textLength="62" x="60" y="421.3872">QR code</text><text fill="#202020" font-family="Inter" font-size="13" lengthAdjust="spacing" textLength="4" x="122" y="421.3872">,</text><ellipse cx="53.5" cy="432.0859" fill="#202020" rx="2.5" ry="2.5" style="stroke:#202020;stroke-width:0.0;"/><text fill="#202020" font-family="Inter" font-size="13" font-weight="bold" lengthAdjust="spacing" textLength="100" x="60" y="436.52">web2app link</text><text fill="#202020" font-family="Inter" font-size="13" lengthAdjust="spacing" textLength="4" x="160" y="436.52">,</text><ellipse cx="53.5" cy="447.2188" fill="#202020" rx="2.5" ry="2.5" style="stroke:#202020;stroke-width:0.0;"/><text fill="#202020" font-family="Inter" font-size="13" font-weight="bold" lengthAdjust="spacing" textLength="98" x="60" y="451.6528">app2app link</text><text fill="#202020" font-family="Inter" font-size="13" lengthAdjust="spacing" textLength="4" x="158" y="451.6528">.</text><polygon fill="#202020" points="1095,503.9844,1105,507.9844,1095,511.9844" style="stroke:#202020;stroke-width:1.0;"/><line style="stroke:#202020;stroke-width:1.0;" x1="160" x2="1101" y1="507.9844" y2="507.9844"/><text fill="#000000" font-family="Inter" font-size="13" font-weight="bold" lengthAdjust="spacing" textLength="9" x="462.5" y="495.3521">6</text><text fill="#000000" font-family="Inter" font-size="13" lengthAdjust="spacing" textLength="30" x="475.5" y="487.7856">User</text><text fill="#000000" font-family="Inter" font-size="13" lengthAdjust="spacing" textLength="4" x="505.5" y="487.7856">&#160;</text><text fill="#000000" font-family="Inter" font-size="13" lengthAdjust="spacing" textLength="34" x="509.5" y="487.7856">clicks</text><text fill="#000000" font-family="Inter" font-size="13" lengthAdjust="spacing" textLength="4" x="543.5" y="487.7856">&#160;</text><text fill="#000000" font-family="Inter" font-size="13" lengthAdjust="spacing" textLength="16" x="547.5" y="487.7856">on</text><text fill="#000000" font-family="Inter" font-size="13" lengthAdjust="spacing" textLength="4" x="563.5" y="487.7856">&#160;</text><text fill="#000000" font-family="Inter" font-size="13" lengthAdjust="spacing" textLength="21" x="567.5" y="487.7856">the</text><text fill="#000000" font-family="Inter" font-size="13" lengthAdjust="spacing" textLength="4" x="588.5" y="487.7856">&#160;</text><text fill="#000000" font-family="Inter" font-size="13" lengthAdjust="spacing" textLength="82" x="592.5" y="487.7856">same-device</text><text fill="#000000" font-family="Inter" font-size="13" lengthAdjust="spacing" textLength="4" x="674.5" y="487.7856">&#160;</text><text fill="#000000" font-family="Inter" font-size="13" lengthAdjust="spacing" textLength="21" x="678.5" y="487.7856">link</text><text fill="#000000" font-family="Inter" font-size="13" lengthAdjust="spacing" textLength="4" x="699.5" y="487.7856">&#160;</text><text fill="#000000" font-family="Inter" font-size="13" lengthAdjust="spacing" textLength="13" x="703.5" y="487.7856">or</text><text fill="#000000" font-family="Inter" font-size="13" lengthAdjust="spacing" textLength="4" x="716.5" y="487.7856">&#160;</text><text fill="#000000" font-family="Inter" font-size="13" lengthAdjust="spacing" textLength="37" x="720.5" y="487.7856">scans</text><text fill="#000000" font-family="Inter" font-size="13" lengthAdjust="spacing" textLength="4" x="757.5" y="487.7856">&#160;</text><text fill="#000000" font-family="Inter" font-size="13" lengthAdjust="spacing" textLength="21" x="761.5" y="487.7856">the</text><text fill="#000000" font-family="Inter" font-size="13" lengthAdjust="spacing" textLength="4" x="782.5" y="487.7856">&#160;</text><text fill="#000000" font-family="Inter" font-size="13" lengthAdjust="spacing" textLength="18" x="786.5" y="487.7856">QR</text><text fill="#000000" font-family="Inter" font-size="13" lengthAdjust="spacing" textLength="31" x="583" y="502.9185">code</text><text fill="#000000" font-family="Inter" font-size="13" lengthAdjust="spacing" textLength="4" x="614" y="502.9185">&#160;</text><text fill="#000000" font-family="Inter" font-size="13" lengthAdjust="spacing" textLength="25" x="618" y="502.9185">with</text><text fill="#000000" font-family="Inter" font-size="13" lengthAdjust="spacing" textLength="4" x="643" y="502.9185">&#160;</text><text fill="#000000" font-family="Inter" font-size="13" lengthAdjust="spacing" textLength="21" x="647" y="502.9185">the</text><text fill="#000000" font-family="Inter" font-size="13" lengthAdjust="spacing" textLength="4" x="668" y="502.9185">&#160;</text><text fill="#000000" font-family="Inter" font-size="13" lengthAdjust="spacing" textLength="25" x="672" y="502.9185">App</text><line style="stroke:#202020;stroke-width:1.0;" x1="1117" x2="1159" y1="567.3828" y2="567.3828"/><line style="stroke:#202020;stroke-width:1.0;" x1="1159" x2="1159" y1="567.3828" y2="580.3828"/><line style="stroke:#202020;stroke-width:1.0;" x1="1118" x2="1159" y1="580.3828" y2="580.3828"/><polygon fill="#202020" points="1128,576.3828,1118,580.3828,1128,584.3828" style="stroke:#202020;stroke-width:1.0;"/><text fill="#000000" font-family="Inter" font-size="13" font-weight="bold" lengthAdjust="spacing" textLength="9" x="1124" y="547.1841">7</text><text fill="#000000" font-family="Inter" font-size="13" lengthAdjust="spacing" textLength="25" x="1149" y="532.0513">App</text><text fill="#000000" font-family="Inter" font-size="13" lengthAdjust="spacing" textLength="4" x="1174" y="532.0513">&#160;</text><text fill="#000000" font-family="Inter" font-size="13" lengthAdjust="spacing" textLength="52" x="1178" y="532.0513">extracts</text><text fill="#000000" font-family="Inter" font-size="13" lengthAdjust="spacing" textLength="4" x="1230" y="532.0513">&#160;</text><text fill="#000000" font-family="Inter" font-size="13" lengthAdjust="spacing" textLength="21" x="1234" y="532.0513">the</text><text fill="#000000" font-family="Inter" font-size="13" lengthAdjust="spacing" textLength="4" x="1255" y="532.0513">&#160;</text><text fill="#000000" font-family="Inter" font-size="13" lengthAdjust="spacing" textLength="65" x="1259" y="532.0513">necessary</text><text fill="#000000" font-family="Inter" font-size="13" lengthAdjust="spacing" textLength="4" x="1137" y="547.1841">&#160;</text><text fill="#000000" font-family="Inter" font-size="13" lengthAdjust="spacing" textLength="75" x="1141" y="547.1841">parameters</text><text fill="#000000" font-family="Inter" font-size="13" lengthAdjust="spacing" textLength="4" x="1216" y="547.1841">&#160;</text><text fill="#000000" font-family="Inter" font-size="13" lengthAdjust="spacing" textLength="30" x="1220" y="547.1841">from</text><text fill="#000000" font-family="Inter" font-size="13" lengthAdjust="spacing" textLength="4" x="1250" y="547.1841">&#160;</text><text fill="#000000" font-family="Inter" font-size="13" lengthAdjust="spacing" textLength="21" x="1254" y="547.1841">the</text><text fill="#000000" font-family="Inter" font-size="13" lengthAdjust="spacing" textLength="4" x="1275" y="547.1841">&#160;</text><text fill="#000000" font-family="Inter" font-size="13" lengthAdjust="spacing" textLength="18" x="1279" y="547.1841">QR</text><text fill="#000000" font-family="Inter" font-size="13" lengthAdjust="spacing" textLength="4" x="1297" y="547.1841">&#160;</text><text fill="#000000" font-family="Inter" font-size="13" lengthAdjust="spacing" textLength="35" x="1301" y="547.1841">code,</text><text fill="#000000" font-family="Inter" font-size="13" lengthAdjust="spacing" textLength="4" x="1142.5" y="562.3169">&#160;</text><text fill="#000000" font-family="Inter" font-size="13" lengthAdjust="spacing" textLength="57" x="1146.5" y="562.3169">web2app</text><text fill="#000000" font-family="Inter" font-size="13" lengthAdjust="spacing" textLength="4" x="1203.5" y="562.3169">&#160;</text><text fill="#000000" font-family="Inter" font-size="13" lengthAdjust="spacing" textLength="21" x="1207.5" y="562.3169">link</text><text fill="#000000" font-family="Inter" font-size="13" lengthAdjust="spacing" textLength="4" x="1228.5" y="562.3169">&#160;</text><text fill="#000000" font-family="Inter" font-size="13" lengthAdjust="spacing" textLength="13" x="1232.5" y="562.3169">or</text><text fill="#000000" font-family="Inter" font-size="13" lengthAdjust="spacing" textLength="4" x="1245.5" y="562.3169">&#160;</text><text fill="#000000" font-family="Inter" font-size="13" lengthAdjust="spacing" textLength="56" x="1249.5" y="562.3169">app2app</text><text fill="#000000" font-family="Inter" font-size="13" lengthAdjust="spacing" textLength="4" x="1305.5" y="562.3169">&#160;</text><text fill="#000000" font-family="Inter" font-size="13" lengthAdjust="spacing" textLength="21" x="1309.5" y="562.3169">link</text><polygon fill="#202020" points="777,605.5156,767,609.5156,777,613.5156" style="stroke:#202020;stroke-width:1.0;"/><line style="stroke:#202020;stroke-width:1.0;" x1="771" x2="1106" y1="609.5156" y2="609.5156"/><text fill="#000000" font-family="Inter" font-size="13" font-weight="bold" lengthAdjust="spacing" textLength="9" x="778" y="604.4497">8</text><text fill="#000000" font-family="monospace" font-size="13" lengthAdjust="spacing" textLength="304" x="791" y="604.4497">createDynamicLinkBasedTransaction(...)</text><polygon fill="#202020" points="1095,617.5156,1105,621.5156,1095,625.5156" style="stroke:#202020;stroke-width:1.0;"/><line style="stroke:#202020;stroke-width:1.0;stroke-dasharray:2.0,2.0;" x1="766" x2="1101" y1="621.5156" y2="621.5156"/><text fill="#000000" font-family="Inter" font-size="13" font-weight="bold" lengthAdjust="spacing" textLength="9" x="866" y="634.5825">9</text><text fill="#000000" font-family="monospace" font-size="13" lengthAdjust="spacing" textLength="128" x="879" y="634.5825">transaction(...)</text><line style="stroke:#202020;stroke-width:1.0;" x1="1117" x2="1159" y1="667.7813" y2="667.7813"/><line style="stroke:#202020;stroke-width:1.0;" x1="1159" x2="1159" y1="667.7813" y2="680.7813"/><line style="stroke:#202020;stroke-width:1.0;" x1="1118" x2="1159" y1="680.7813" y2="680.7813"/><polygon fill="#202020" points="1128,676.7813,1118,680.7813,1128,684.7813" style="stroke:#202020;stroke-width:1.0;"/><text fill="#000000" font-family="Inter" font-size="13" font-weight="bold" lengthAdjust="spacing" textLength="18" x="1124" y="662.7153">10</text><text fill="#000000" font-family="Inter" font-size="13" lengthAdjust="spacing" textLength="46" x="1146" y="662.7153">Display</text><text fill="#000000" font-family="Inter" font-size="13" lengthAdjust="spacing" textLength="4" x="1192" y="662.7153">&#160;</text><text fill="#000000" font-family="Inter" font-size="13" lengthAdjust="spacing" textLength="92" x="1196" y="662.7153">authentication</text><text fill="#000000" font-family="Inter" font-size="13" lengthAdjust="spacing" textLength="4" x="1288" y="662.7153">&#160;</text><text fill="#000000" font-family="Inter" font-size="13" lengthAdjust="spacing" textLength="13" x="1292" y="662.7153">UI</text><path d="M947,697.2813 L947,730.2813 A3.5,3.5 0 0 0 950.5,733.7813 L1273.5,733.7813 A3.5,3.5 0 0 0 1277,730.2813 L1277,703.7813 L1267,693.7813 L950.5,693.7813 A3.5,3.5 0 0 0 947,697.2813 " fill="#DFDFDF" style="stroke:#202020;stroke-width:1.5;"/><path d="M1267,693.7813 L1267,702.0313 A1.75,1.75 0 0 0 1268.75,703.7813 L1277,703.7813 L1267,693.7813 " fill="#DFDFDF" style="stroke:#202020;stroke-width:1.5;"/><text fill="#202020" font-family="Inter" font-size="13" lengthAdjust="spacing" textLength="309" x="953" y="710.8481">User has to enter the PIN code as usual (but the</text><text fill="#202020" font-family="Inter" font-size="13" lengthAdjust="spacing" textLength="196" x="953" y="725.981">verification code is not shown).</text><path d="M334,746.0469 L407.5,746.0469 L407.5,753.1797 L397.5,763.1797 L330.5,763.1797 L330.5,749.5469 A3.5,3.5 0 0 1 334,746.0469 " fill="#EEEEEE" style="stroke:#989898;stroke-width:1.5;"/><rect fill="none" height="223.5391" rx="3.5" ry="3.5" style="stroke:#989898;stroke-width:1.0;" width="822" x="330.5" y="746.0469"/><text fill="#202020" font-family="Inter" font-size="13" font-weight="bold" lengthAdjust="spacing" textLength="32" x="345.5" y="759.1138">loop</text><text fill="#989898" font-family="Inter" font-size="11" font-weight="bold" lengthAdjust="spacing" textLength="227" x="422.5" y="758.2573">[until signature completed or error]</text><polygon fill="#202020" points="744,780.3125,754,784.3125,744,788.3125" style="stroke:#202020;stroke-width:1.0;"/><line style="stroke:#202020;stroke-width:1.0;" x1="404" x2="750" y1="784.3125" y2="784.3125"/><text fill="#000000" font-family="Inter" font-size="13" font-weight="bold" lengthAdjust="spacing" textLength="18" x="481" y="779.2466">11</text><text fill="#000000" font-family="monospace" font-size="13" lengthAdjust="spacing" textLength="24" x="503" y="779.2466">GET</text><text fill="#000000" font-family="monospace" font-size="13" lengthAdjust="spacing" textLength="8" x="527" y="779.2466">&#160;</text><text fill="#000000" font-family="monospace" font-size="13" lengthAdjust="spacing" textLength="144" x="535" y="779.2466">session/:sessionId</text><path d="M344,799.3125 L404.5,799.3125 L404.5,806.4453 L394.5,816.4453 L340.5,816.4453 L340.5,802.8125 A3.5,3.5 0 0 1 344,799.3125 " fill="#EEEEEE" style="stroke:#989898;stroke-width:1.5;"/><rect fill="none" height="163.2734" rx="3.5" ry="3.5" style="stroke:#989898;stroke-width:1.0;" width="802" x="340.5" y="799.3125"/><text fill="#202020" font-family="Inter" font-size="13" font-weight="bold" lengthAdjust="spacing" textLength="19" x="355.5" y="812.3794">alt</text><text fill="#989898" font-family="Inter" font-size="11" font-weight="bold" lengthAdjust="spacing" textLength="127" x="419.5" y="811.5229">[signature pending]</text><polygon fill="#202020" points="415,816.4453,405,820.4453,415,824.4453" style="stroke:#202020;stroke-width:1.0;"/><line style="stroke:#202020;stroke-width:1.0;stroke-dasharray:2.0,2.0;" x1="409" x2="755" y1="820.4453" y2="820.4453"/><text fill="#000000" font-family="Inter" font-size="13" font-weight="bold" lengthAdjust="spacing" textLength="18" x="513" y="833.5122">12</text><text fill="#000000" font-family="monospace" font-size="13" lengthAdjust="spacing" textLength="56" x="535" y="833.5122">session</text><text fill="#000000" font-family="monospace" font-size="13" lengthAdjust="spacing" textLength="8" x="591" y="833.5122">&#160;</text><text fill="#000000" font-family="monospace" font-size="13" lengthAdjust="spacing" textLength="48" x="599" y="833.5122">status</text><line style="stroke:#989898;stroke-width:1.0;stroke-dasharray:2.0,2.0;" x1="340.5" x2="1142.5" y1="846.5781" y2="846.5781"/><text fill="#989898" font-family="Inter" font-size="11" font-weight="bold" lengthAdjust="spacing" textLength="121" x="345.5" y="856.7886">[error (or timeout)]</text><polygon fill="#202020" points="415,860.3828,405,864.3828,415,868.3828" style="stroke:#202020;stroke-width:1.0;"/><line style="stroke:#202020;stroke-width:1.0;stroke-dasharray:2.0,2.0;" x1="409" x2="755" y1="864.3828" y2="864.3828"/><text fill="#000000" font-family="Inter" font-size="13" font-weight="bold" lengthAdjust="spacing" textLength="18" x="549" y="877.4497">13</text><text fill="#000000" font-family="monospace" font-size="13" lengthAdjust="spacing" textLength="40" x="571" y="877.4497">error</text><line style="stroke:#989898;stroke-width:1.0;stroke-dasharray:2.0,2.0;" x1="340.5" x2="1142.5" y1="890.5156" y2="890.5156"/><text fill="#989898" font-family="Inter" font-size="11" font-weight="bold" lengthAdjust="spacing" textLength="142" x="345.5" y="900.7261">[signature completed]</text><polygon fill="#202020" points="777,921.4531,767,925.4531,777,929.4531" style="stroke:#202020;stroke-width:1.0;"/><line style="stroke:#202020;stroke-width:1.0;" x1="771" x2="1111" y1="925.4531" y2="925.4531"/><text fill="#000000" font-family="Inter" font-size="13" font-weight="bold" lengthAdjust="spacing" textLength="18" x="897" y="920.3872">14</text><text fill="#000000" font-family="Inter" font-size="13" lengthAdjust="spacing" textLength="62" x="919" y="920.3872">Signature</text><polygon fill="#202020" points="415,933.4531,405,937.4531,415,941.4531" style="stroke:#202020;stroke-width:1.0;"/><line style="stroke:#202020;stroke-width:1.0;stroke-dasharray:2.0,2.0;" x1="409" x2="760" y1="937.4531" y2="937.4531"/><text fill="#000000" font-family="Inter" font-size="13" font-weight="bold" lengthAdjust="spacing" textLength="18" x="547.5" y="950.52">15</text><text fill="#000000" font-family="monospace" font-size="13" lengthAdjust="spacing" textLength="48" x="569.5" y="950.52">result</text><path d="M223,985.0859 L223,1063.0859 A3.5,3.5 0 0 0 226.5,1066.5859 L571.5,1066.5859 A3.5,3.5 0 0 0 575,1063.0859 L575,991.5859 L565,981.5859 L226.5,981.5859 A3.5,3.5 0 0 0 223,985.0859 " fill="#DFDFDF" style="stroke:#202020;stroke-width:1.5;"/><path d="M565,981.5859 L565,989.8359 A1.75,1.75 0 0 0 566.75,991.5859 L575,991.5859 L565,981.5859 " fill="#DFDFDF" style="stroke:#202020;stroke-width:1.5;"/><text fill="#202020" font-family="Inter" font-size="13" lengthAdjust="spacing" textLength="327" x="229" y="998.6528">The response contains serverRandom and the total</text><text fill="#202020" font-family="Inter" font-size="13" lengthAdjust="spacing" textLength="306" x="229" y="1013.7856">challenge, which was signed by the end user. RP</text><text fill="#202020" font-family="Inter" font-size="13" lengthAdjust="spacing" textLength="316" x="229" y="1028.9185">concatenates the randomChallenge from storage</text><text fill="#202020" font-family="Inter" font-size="13" lengthAdjust="spacing" textLength="321" x="229" y="1044.0513">with the serverRandom from response and verifies</text><text fill="#202020" font-family="Inter" font-size="13" lengthAdjust="spacing" textLength="225" x="229" y="1059.1841">that the provided signature is valid.</text><polygon fill="#202020" points="171,1072.25,161,1076.25,171,1080.25" style="stroke:#202020;stroke-width:1.0;"/><line style="stroke:#202020;stroke-width:1.0;stroke-dasharray:2.0,2.0;" x1="165" x2="393" y1="1076.25" y2="1076.25"/><text fill="#000000" font-family="Inter" font-size="13" font-weight="bold" lengthAdjust="spacing" textLength="18" x="197.5" y="1089.3169">16</text><text fill="#000000" font-family="Inter" font-size="13" lengthAdjust="spacing" textLength="30" x="219.5" y="1089.3169">User</text><text fill="#000000" font-family="Inter" font-size="13" lengthAdjust="spacing" textLength="4" x="249.5" y="1089.3169">&#160;</text><text fill="#000000" font-family="Inter" font-size="13" lengthAdjust="spacing" textLength="10" x="253.5" y="1089.3169">is</text><text fill="#000000" font-family="Inter" font-size="13" lengthAdjust="spacing" textLength="4" x="263.5" y="1089.3169">&#160;</text><text fill="#000000" font-family="Inter" font-size="13" lengthAdjust="spacing" textLength="89" x="267.5" y="1089.3169">authenticated</text><!--SRC=[lLXvRzl85V-VdsAY1l01MwTboKOs0CN34TOhkvBTHT0MneWSMOGf3iiPMd4N-zttlU4rfAHDqwQnOCDwltVFEuOyEZAEZeZrjcG9aMksOMH91VC9Z_0hsT14vFHLmZTabSeqOUSqyTQ1P9xinEacF5SC0XNXxrqIF0SH3OcPoZLFhidVcrB_F5vB6OlhJkSvaEjqsVRufjDaEa5T2vuc7jkZGZVy7wdJ1JeoOQopeKAof9EHbBNRm6EHG7DcJ3q8FoUSaR-nH0IGatwx- -tMbY5V5jPkfvOpMpWdc2cZJ7t4PE1Hianev0VHC_5uo1DXl7l_wwVfWqD-8gs_kEgd1RJ9hMdzh6ZzBdwGPflpdvzkvivdHRyQumVf9SbsyOEas-dDfuUAr-tZ9-TrPehMjOPkxmffrkU9Ct-gaCd8lRHw9VSJsdNclMvcjkVsp6uJx0yLE1mxvgNR18UPP6yySGVz9ZWQDhpHmQjCiZliNtPD1EUEhIYcrUrrUvNp1TrrXlRGpZcVL1QS-RYR9xV8ZePT5jZ4cJWDx2B7d2lu55WjNjVkZhgZEfH7MtdusRczlViro-nWFEbsAxSr2BopBySL_uxpxjZfxSAb_sxF6kp2HGYkCp4lDBWUXMjTTPqTD0-ayld-SNv_cnKg7DR4jQj0DCZiZiQkK_4t0d4ivo8hyJgS1s9VMLVxu3mGwz9qQihhvLTwLKFpG0RZRczYPitrcFdQTqR3oMKLnXu0IOqGx3w4SD44ym3CeJLsnaqmTtyqDctRBi6Qy_t1S3mUDx2YTKQ3oN22sDtSdDraFZhZoqkzc3G8YiKTZ2h-dM9ohkmzS5bCTjzqT-6oc2RMM9UkXL5vLKFpGAuc5nU8OfGmu6xcTuyprRaIfgA8QS8YgSvlFlt5dEFmQkIumWfQasUCF0l7kflPkORgR7NaaBooCPsvTq-J6yHmYAAxTtExO0RFIugkfXpGWBftimUT6xyVubqyMfQpMEJMjBcfXZuaKKde8mQtXZcVJMStLO1PldFd6t7Z8i8zHCCGzhxaiFDVc5h-adsH9CWk0ceZ4RuYkKCezIvEkCTyM7palKWzZmbn_7uZdayCGZwiU2GpgP-A83v-M7v4t7Z78h-K_KRxMT1DyoiQXF3FVlEPo7UndcUsQNvBamZszdxpkSntiO_drpGUH2k-tp9o7p1h6E8bYA2hw8RuR4NJKBeWEQDmqvj6S5FHy0drNfuJdaQ-fVpG-bFZ4clgyotUNbOq54n3vfaet78ICjBePfBmRQ5IzKA5eJCvXEsXkolOlr8MUOpy1l4IkAEjs6qGiGbFV9OKwceDMEThHjCO6ehv1XZYJuo2ngOd9Tm0TkM_vf76zB0El9S86eZq38NPmMi0z3n6_DcZhO7fIWfad_U_6x_h-OI_SFiCOWg5avaxb2BZp_pOPsd7h_QmRjkdak83no73EoFvcroecOBr4SYthqJulvk9k3mOJRuwldyQgITvSiXgrbh_TK1BL4MJ_t_cF00J7lu0Ep1hFGcFS-A7rpjChfJz8Ajh621anRbSyYy6JIMFqisoDjWtzCil842VsIBuDoE3GTSuQX83WKie3hwmK9oHBIC-ZuuaYLYnhg8KTjSReRvF_X4L2mkNbpwovLl8u6yIU18UZ3KaOIA6Ws2voGaB-LRj1IAJbEsP-ZcZ6GRF4O6dSrnL1dGswBVV8he9F9ZqqGja5rzZu2i8R7oFudaJ5xGRXZxmMlDxVBC1QYA_HQWWIVnKVDzXNCA9LNmxi7a_LP37OS7MG3EE5IBYC90lxEs9nh5XGDS6hnJ6XMvJ8ng66YRy5VQ0pl8eW114WGo0Jn1AGluCUSzVsMW16STRjXG1waZ8XYy3I19OFcd3YWST4fVrr0P_VJndWyUO91h2XI1csOk8IgTWCetR1j3LY3CCpIDo_X4S9DTaZeSai3gscLFr40pGyypW6f3xZQyx-CPQu-KdUcO6V0KxaGybLrvzaanbtJ8Qn2o3oLRh_cxnG3glWmwj7NR7pyhXF8HowBJRxLQhIguw8j3puVoyKYIWj41mwhTQPzNN1mvdNgCic9Sm2UgCaFEOf60o96bsA52EO4Iellop3AtWHD8OrbzUf1QSmOuGUgUaxXEEru5T2IMolqeGqMe1xcTyA-10ysA0c1KBN2enpIiOYjdj3PeQ2HZFjU8u9QUdVvshAZazFIj9K5fzA2Q2wTNfGDFeRKKlpmuTQrQEtXGGgwfkBuHX9eho4t0hFVVPQm2NFbIB4GWFdWeLclj6je5SAm9qMtNIjPQhcTer3O841fSwGQKfOlXG0yiF9fiQGmpELsIlGZNJPm3hwK3_z3GOEuRBceDA0Y_poOM3Iysj1tpafMf77KFbda2jrJJKobRkCdyjK3i00eMXNH-FZrEjNMk9KuUoXWa6rQ5chWh_VZhBKWz0Ac0FaEDbAX4oG4EmAlJc0mPBG9LXTAAtizP40eOwnJUf8BA9GuQr3hbai12IyahRQFyRvu7aZTcvrbfOyTDGQahpgQPhsZS0O541lyXLmDvZcGVa67vbi64ybIS7bIXMNNPFKANmWRfO528bey_sL_GXBs2lmYDTxaP3WHf-ULjc7LaRqWzgwcPhMLtAQ02T1WK0-5nDR8A3MgrvBk7G3Q-Ou711W5l8ccnnrq4CS7pBDyM9nuqZfGqpoG2bK1aiKcj03Vdw8iWQJC2T5ZQzKVPrpGN5Khg93cKbnuGXrrGL8OcpiUbhHm1L-4h3mDSASC_4BSOGS6ijmlm_0000]--></g></svg>