<?xml version="1.0" encoding="us-ascii" standalone="no"?><svg xmlns="http://www.w3.org/2000/svg" xmlns:xlink="http://www.w3.org/1999/xlink" contentStyleType="text/css" height="740px" preserveAspectRatio="none" style="width:929px;height:740px;" version="1.1" viewBox="0 0 929 740" width="929px" zoomAndPan="magnify"><defs/><g><text fill="#000000" font-family="Inter" font-size="14" font-weight="bold" lengthAdjust="spacing" textLength="247" x="343" y="27.9951">Notification Based Signing Flow</text><rect fill="#D2E4F4" height="641.3984" style="stroke:#989898;stroke-width:1.0;" width="10" x="126" y="83.5938"/><rect fill="#D2E4F4" height="641.3984" style="stroke:#989898;stroke-width:1.0;" width="10" x="285" y="83.5938"/><rect fill="#D2E4F4" height="436.4688" style="stroke:#989898;stroke-width:1.0;" width="10" x="607" y="184.125"/><rect fill="#D2E4F4" height="337.0703" style="stroke:#989898;stroke-width:1.0;" width="10" x="765" y="271.5234"/><rect fill="none" height="223.5391" rx="3.5" ry="3.5" style="stroke:#989898;stroke-width:1.0;" width="589" x="221.5" y="429.1875"/><rect fill="none" height="163.2734" rx="3.5" ry="3.5" style="stroke:#989898;stroke-width:1.0;" width="569" x="231.5" y="482.4531"/><line style="stroke:#989898;stroke-width:0.5;stroke-dasharray:5.0,5.0;" x1="131" x2="131" y1="73.5938" y2="733.9922"/><line style="stroke:#989898;stroke-width:0.5;stroke-dasharray:5.0,5.0;" x1="289.5" x2="289.5" y1="73.5938" y2="733.9922"/><line style="stroke:#989898;stroke-width:0.5;stroke-dasharray:5.0,5.0;" x1="612" x2="612" y1="73.5938" y2="733.9922"/><line style="stroke:#989898;stroke-width:0.5;stroke-dasharray:5.0,5.0;" x1="769.5" x2="769.5" y1="73.5938" y2="733.9922"/><rect fill="#A5C8E8" height="30.2969" rx="3.5" ry="3.5" style="stroke:#202020;stroke-width:1.5;" width="96" x="83" y="42.2969"/><text fill="#202020" font-family="Inter" font-size="14" lengthAdjust="spacing" textLength="82" x="90" y="62.292">RP frontend</text><rect fill="#A5C8E8" height="30.2969" rx="3.5" ry="3.5" style="stroke:#202020;stroke-width:1.5;" width="97" x="241.5" y="42.2969"/><text fill="#202020" font-family="Inter" font-size="14" lengthAdjust="spacing" textLength="83" x="248.5" y="62.292">RP backend</text><rect fill="#A5C8E8" height="30.2969" rx="3.5" ry="3.5" style="stroke:#202020;stroke-width:1.5;" width="58" x="583" y="42.2969"/><text fill="#202020" font-family="Inter" font-size="14" lengthAdjust="spacing" textLength="44" x="590" y="62.292">RP API</text><rect fill="#A5C8E8" height="30.2969" rx="3.5" ry="3.5" style="stroke:#202020;stroke-width:1.5;" width="41" x="749.5" y="42.2969"/><text fill="#202020" font-family="Inter" font-size="14" lengthAdjust="spacing" textLength="27" x="756.5" y="62.292">App</text><rect fill="#D2E4F4" height="641.3984" style="stroke:#989898;stroke-width:1.0;" width="10" x="126" y="83.5938"/><rect fill="#D2E4F4" height="641.3984" style="stroke:#989898;stroke-width:1.0;" width="10" x="285" y="83.5938"/><rect fill="#D2E4F4" height="436.4688" style="stroke:#989898;stroke-width:1.0;" width="10" x="607" y="184.125"/><rect fill="#D2E4F4" height="337.0703" style="stroke:#989898;stroke-width:1.0;" width="10" x="765" y="271.5234"/><path d="M5,92.0938 L5,125.0938 A3.5,3.5 0 0 0 8.5,128.5938 L253.5,128.5938 A3.5,3.5 0 0 0 257,125.0938 L257,98.5938 L247,88.5938 L8.5,88.5938 A3.5,3.5 0 0 0 5,92.0938 " fill="#DFDFDF" style="stroke:#202020;stroke-width:1.5;"/><path d="M247,88.5938 L247,96.8438 A1.75,1.75 0 0 0 248.75,98.5938 L257,98.5938 L247,88.5938 " fill="#DFDFDF" style="stroke:#202020;stroke-width:1.5;"/><text fill="#202020" font-family="Inter" font-size="13" lengthAdjust="spacing" textLength="231" x="11" y="105.6606">User initiates signing on RP frontend</text><text fill="#202020" font-family="Inter" font-size="13" lengthAdjust="spacing" textLength="154" x="11" y="120.7935">(website or mobile app).</text><polygon fill="#202020" points="273,150.9922,283,154.9922,273,158.9922" style="stroke:#202020;stroke-width:1.0;"/><line style="stroke:#202020;stroke-width:1.0;" x1="136" x2="279" y1="154.9922" y2="154.9922"/><text fill="#000000" font-family="Inter" font-size="13" font-weight="bold" lengthAdjust="spacing" textLength="9" x="154.5" y="149.9263">1</text><text fill="#000000" font-family="Inter" font-size="13" lengthAdjust="spacing" textLength="52" x="167.5" y="149.9263">Request</text><text fill="#000000" font-family="Inter" font-size="13" lengthAdjust="spacing" textLength="4" x="219.5" y="149.9263">&#160;</text><text fill="#000000" font-family="Inter" font-size="13" lengthAdjust="spacing" textLength="13" x="223.5" y="149.9263">to</text><text fill="#000000" font-family="Inter" font-size="13" lengthAdjust="spacing" textLength="4" x="236.5" y="149.9263">&#160;</text><text fill="#000000" font-family="Inter" font-size="13" lengthAdjust="spacing" textLength="26" x="240.5" y="149.9263">sign</text><polygon fill="#202020" points="595,180.125,605,184.125,595,188.125" style="stroke:#202020;stroke-width:1.0;"/><line style="stroke:#202020;stroke-width:1.0;" x1="295" x2="601" y1="184.125" y2="184.125"/><text fill="#000000" font-family="Inter" font-size="13" font-weight="bold" lengthAdjust="spacing" textLength="9" x="304.5" y="179.0591">2</text><text fill="#000000" font-family="monospace" font-size="13" lengthAdjust="spacing" textLength="32" x="317.5" y="179.0591">POST</text><text fill="#000000" font-family="monospace" font-size="13" lengthAdjust="spacing" textLength="8" x="349.5" y="179.0591">&#160;</text><text fill="#000000" font-family="monospace" font-size="13" lengthAdjust="spacing" textLength="240" x="357.5" y="179.0591">/v3/signature/notification/...</text><polygon fill="#202020" points="306,192.125,296,196.125,306,200.125" style="stroke:#202020;stroke-width:1.0;"/><line style="stroke:#202020;stroke-width:1.0;stroke-dasharray:2.0,2.0;" x1="300" x2="606" y1="196.125" y2="196.125"/><text fill="#000000" font-family="Inter" font-size="13" font-weight="bold" lengthAdjust="spacing" textLength="9" x="396.5" y="209.1919">3</text><text fill="#000000" font-family="monospace" font-size="13" lengthAdjust="spacing" textLength="72" x="409.5" y="209.1919">sessionID</text><text fill="#000000" font-family="Inter" font-size="13" lengthAdjust="spacing" textLength="4" x="481.5" y="209.1919">,</text><text fill="#000000" font-family="Inter" font-size="13" lengthAdjust="spacing" textLength="4" x="485.5" y="209.1919">&#160;</text><text fill="#000000" font-family="monospace" font-size="13" lengthAdjust="spacing" textLength="16" x="489.5" y="209.1919">vc</text><polygon fill="#202020" points="147,221.2578,137,225.2578,147,229.2578" style="stroke:#202020;stroke-width:1.0;"/><line style="stroke:#202020;stroke-width:1.0;stroke-dasharray:2.0,2.0;" x1="141" x2="284" y1="225.2578" y2="225.2578"/><text fill="#000000" font-family="Inter" font-size="13" font-weight="bold" lengthAdjust="spacing" textLength="9" x="196" y="238.3247">4</text><text fill="#000000" font-family="monospace" font-size="13" lengthAdjust="spacing" textLength="16" x="209" y="238.3247">vc</text><polygon fill="#202020" points="753,267.5234,763,271.5234,753,275.5234" style="stroke:#202020;stroke-width:1.0;"/><line style="stroke:#202020;stroke-width:1.0;" x1="617" x2="759" y1="271.5234" y2="271.5234"/><text fill="#000000" font-family="Inter" font-size="13" font-weight="bold" lengthAdjust="spacing" textLength="9" x="626.5" y="266.4575">5</text><text fill="#000000" font-family="Inter" font-size="13" lengthAdjust="spacing" textLength="52" x="639.5" y="266.4575">Request</text><text fill="#000000" font-family="Inter" font-size="13" lengthAdjust="spacing" textLength="4" x="691.5" y="266.4575">&#160;</text><text fill="#000000" font-family="Inter" font-size="13" lengthAdjust="spacing" textLength="60" x="695.5" y="266.4575">signature</text><path d="M659,288.0234 L659,321.0234 A3.5,3.5 0 0 0 662.5,324.5234 L877.5,324.5234 A3.5,3.5 0 0 0 881,321.0234 L881,294.5234 L871,284.5234 L662.5,284.5234 A3.5,3.5 0 0 0 659,288.0234 " fill="#DFDFDF" style="stroke:#202020;stroke-width:1.5;"/><path d="M871,284.5234 L871,292.7734 A1.75,1.75 0 0 0 872.75,294.5234 L881,294.5234 L871,284.5234 " fill="#DFDFDF" style="stroke:#202020;stroke-width:1.5;"/><text fill="#202020" font-family="Inter" font-size="13" lengthAdjust="spacing" textLength="197" x="665" y="301.5903">RP API provides the VC code(s)</text><text fill="#202020" font-family="Inter" font-size="13" lengthAdjust="spacing" textLength="149" x="665" y="316.7231">to be shown in the app.</text><line style="stroke:#202020;stroke-width:1.0;" x1="775" x2="817" y1="350.9219" y2="350.9219"/><line style="stroke:#202020;stroke-width:1.0;" x1="817" x2="817" y1="350.9219" y2="363.9219"/><line style="stroke:#202020;stroke-width:1.0;" x1="776" x2="817" y1="363.9219" y2="363.9219"/><polygon fill="#202020" points="786,359.9219,776,363.9219,786,367.9219" style="stroke:#202020;stroke-width:1.0;"/><text fill="#000000" font-family="Inter" font-size="13" font-weight="bold" lengthAdjust="spacing" textLength="9" x="782" y="345.856">6</text><text fill="#000000" font-family="Inter" font-size="13" lengthAdjust="spacing" textLength="46" x="795" y="345.856">Display</text><text fill="#000000" font-family="Inter" font-size="13" lengthAdjust="spacing" textLength="4" x="841" y="345.856">&#160;</text><text fill="#000000" font-family="Inter" font-size="13" lengthAdjust="spacing" textLength="60" x="845" y="345.856">signature</text><text fill="#000000" font-family="Inter" font-size="13" lengthAdjust="spacing" textLength="4" x="905" y="345.856">&#160;</text><text fill="#000000" font-family="Inter" font-size="13" lengthAdjust="spacing" textLength="13" x="909" y="345.856">UI</text><path d="M623,380.4219 L623,413.4219 A3.5,3.5 0 0 0 626.5,416.9219 L913.5,416.9219 A3.5,3.5 0 0 0 917,413.4219 L917,386.9219 L907,376.9219 L626.5,376.9219 A3.5,3.5 0 0 0 623,380.4219 " fill="#DFDFDF" style="stroke:#202020;stroke-width:1.5;"/><path d="M907,376.9219 L907,385.1719 A1.75,1.75 0 0 0 908.75,386.9219 L917,386.9219 L907,376.9219 " fill="#DFDFDF" style="stroke:#202020;stroke-width:1.5;"/><text fill="#202020" font-family="Inter" font-size="13" lengthAdjust="spacing" textLength="269" x="629" y="393.9888">User chooses the correct verification code</text><text fill="#202020" font-family="Inter" font-size="13" lengthAdjust="spacing" textLength="158" x="629" y="409.1216">and enters the PIN code.</text><path d="M225,429.1875 L298.5,429.1875 L298.5,436.3203 L288.5,446.3203 L221.5,446.3203 L221.5,432.6875 A3.5,3.5 0 0 1 225,429.1875 " fill="#EEEEEE" style="stroke:#989898;stroke-width:1.5;"/><rect fill="none" height="223.5391" rx="3.5" ry="3.5" style="stroke:#989898;stroke-width:1.0;" width="589" x="221.5" y="429.1875"/><text fill="#202020" font-family="Inter" font-size="13" font-weight="bold" lengthAdjust="spacing" textLength="32" x="236.5" y="442.2544">loop</text><text fill="#989898" font-family="Inter" font-size="11" font-weight="bold" lengthAdjust="spacing" textLength="227" x="313.5" y="441.3979">[until signature completed or error]</text><polygon fill="#202020" points="595,463.4531,605,467.4531,595,471.4531" style="stroke:#202020;stroke-width:1.0;"/><line style="stroke:#202020;stroke-width:1.0;" x1="295" x2="601" y1="467.4531" y2="467.4531"/><text fill="#000000" font-family="Inter" font-size="13" font-weight="bold" lengthAdjust="spacing" textLength="9" x="336.5" y="462.3872">7</text><text fill="#000000" font-family="monospace" font-size="13" lengthAdjust="spacing" textLength="24" x="349.5" y="462.3872">GET</text><text fill="#000000" font-family="monospace" font-size="13" lengthAdjust="spacing" textLength="8" x="373.5" y="462.3872">&#160;</text><text fill="#000000" font-family="monospace" font-size="13" lengthAdjust="spacing" textLength="184" x="381.5" y="462.3872">/v3/session/{sessionID}</text><path d="M235,482.4531 L295.5,482.4531 L295.5,489.5859 L285.5,499.5859 L231.5,499.5859 L231.5,485.9531 A3.5,3.5 0 0 1 235,482.4531 " fill="#EEEEEE" style="stroke:#989898;stroke-width:1.5;"/><rect fill="none" height="163.2734" rx="3.5" ry="3.5" style="stroke:#989898;stroke-width:1.0;" width="569" x="231.5" y="482.4531"/><text fill="#202020" font-family="Inter" font-size="13" font-weight="bold" lengthAdjust="spacing" textLength="19" x="246.5" y="495.52">alt</text><text fill="#989898" font-family="Inter" font-size="11" font-weight="bold" lengthAdjust="spacing" textLength="127" x="310.5" y="494.6636">[signature pending]</text><polygon fill="#202020" points="306,499.5859,296,503.5859,306,507.5859" style="stroke:#202020;stroke-width:1.0;"/><line style="stroke:#202020;stroke-width:1.0;stroke-dasharray:2.0,2.0;" x1="300" x2="606" y1="503.5859" y2="503.5859"/><text fill="#000000" font-family="Inter" font-size="13" font-weight="bold" lengthAdjust="spacing" textLength="9" x="388.5" y="516.6528">8</text><text fill="#000000" font-family="monospace" font-size="13" lengthAdjust="spacing" textLength="56" x="401.5" y="516.6528">session</text><text fill="#000000" font-family="monospace" font-size="13" lengthAdjust="spacing" textLength="8" x="457.5" y="516.6528">&#160;</text><text fill="#000000" font-family="monospace" font-size="13" lengthAdjust="spacing" textLength="48" x="465.5" y="516.6528">status</text><line style="stroke:#989898;stroke-width:1.0;stroke-dasharray:2.0,2.0;" x1="231.5" x2="800.5" y1="529.7188" y2="529.7188"/><text fill="#989898" font-family="Inter" font-size="11" font-weight="bold" lengthAdjust="spacing" textLength="121" x="236.5" y="539.9292">[error (or timeout)]</text><polygon fill="#202020" points="306,543.5234,296,547.5234,306,551.5234" style="stroke:#202020;stroke-width:1.0;"/><line style="stroke:#202020;stroke-width:1.0;stroke-dasharray:2.0,2.0;" x1="300" x2="606" y1="547.5234" y2="547.5234"/><text fill="#000000" font-family="Inter" font-size="13" font-weight="bold" lengthAdjust="spacing" textLength="9" x="424.5" y="560.5903">9</text><text fill="#000000" font-family="monospace" font-size="13" lengthAdjust="spacing" textLength="40" x="437.5" y="560.5903">error</text><line style="stroke:#989898;stroke-width:1.0;stroke-dasharray:2.0,2.0;" x1="231.5" x2="800.5" y1="573.6563" y2="573.6563"/><text fill="#989898" font-family="Inter" font-size="11" font-weight="bold" lengthAdjust="spacing" textLength="142" x="236.5" y="583.8667">[signature completed]</text><polygon fill="#202020" points="628,604.5938,618,608.5938,628,612.5938" style="stroke:#202020;stroke-width:1.0;"/><line style="stroke:#202020;stroke-width:1.0;" x1="622" x2="769" y1="608.5938" y2="608.5938"/><text fill="#000000" font-family="Inter" font-size="13" font-weight="bold" lengthAdjust="spacing" textLength="18" x="646.5" y="603.5278">10</text><text fill="#000000" font-family="monospace" font-size="13" lengthAdjust="spacing" textLength="72" x="668.5" y="603.5278">signature</text><polygon fill="#202020" points="306,616.5938,296,620.5938,306,624.5938" style="stroke:#202020;stroke-width:1.0;"/><line style="stroke:#202020;stroke-width:1.0;stroke-dasharray:2.0,2.0;" x1="300" x2="611" y1="620.5938" y2="620.5938"/><text fill="#000000" font-family="Inter" font-size="13" font-weight="bold" lengthAdjust="spacing" textLength="18" x="418.5" y="633.6606">11</text><text fill="#000000" font-family="monospace" font-size="13" lengthAdjust="spacing" textLength="48" x="440.5" y="633.6606">result</text><path d="M45,668.2266 L45,686.2266 A3.5,3.5 0 0 0 48.5,689.7266 L530.5,689.7266 A3.5,3.5 0 0 0 534,686.2266 L534,674.7266 L524,664.7266 L48.5,664.7266 A3.5,3.5 0 0 0 45,668.2266 " fill="#DFDFDF" style="stroke:#202020;stroke-width:1.5;"/><path d="M524,664.7266 L524,672.9766 A1.75,1.75 0 0 0 525.75,674.7266 L534,674.7266 L524,664.7266 " fill="#DFDFDF" style="stroke:#202020;stroke-width:1.5;"/><text fill="#202020" font-family="Inter" font-size="13" lengthAdjust="spacing" textLength="468" x="51" y="681.7935">RP receives the signature and verifies that the provided signature is valid.</text><polygon fill="#202020" points="147,694.8594,137,698.8594,147,702.8594" style="stroke:#202020;stroke-width:1.0;"/><line style="stroke:#202020;stroke-width:1.0;stroke-dasharray:2.0,2.0;" x1="141" x2="284" y1="698.8594" y2="698.8594"/><text fill="#000000" font-family="Inter" font-size="13" font-weight="bold" lengthAdjust="spacing" textLength="18" x="148" y="711.9263">12</text><text fill="#000000" font-family="Inter" font-size="13" lengthAdjust="spacing" textLength="30" x="170" y="711.9263">User</text><text fill="#000000" font-family="Inter" font-size="13" lengthAdjust="spacing" textLength="4" x="200" y="711.9263">&#160;</text><text fill="#000000" font-family="Inter" font-size="13" lengthAdjust="spacing" textLength="23" x="204" y="711.9263">has</text><text fill="#000000" font-family="Inter" font-size="13" lengthAdjust="spacing" textLength="4" x="227" y="711.9263">&#160;</text><text fill="#000000" font-family="Inter" font-size="13" lengthAdjust="spacing" textLength="42" x="231" y="711.9263">signed</text></g></svg>