<?xml version="1.0" encoding="us-ascii" standalone="no"?><svg xmlns="http://www.w3.org/2000/svg" xmlns:xlink="http://www.w3.org/1999/xlink" contentStyleType="text/css" height="475px" preserveAspectRatio="none" style="width:1266px;height:475px;background:#FFFFFF;" version="1.1" viewBox="0 0 1266 475" width="1266px" zoomAndPan="magnify"><defs/><g><rect fill="#F1F1F1" height="85.1875" rx="12.5" ry="12.5" style="stroke:#181818;stroke-width:1.5;" width="144" x="10" y="194.0781"/><text fill="#000000" font-family="sans-serif" font-size="14" lengthAdjust="spacing" textLength="59" x="20" y="217.0732">Previous</text><text fill="#000000" font-family="sans-serif" font-size="14" lengthAdjust="spacing" textLength="99" x="20" y="233.3701">authentication</text><text fill="#000000" font-family="sans-serif" font-size="14" lengthAdjust="spacing" textLength="83" x="20" y="249.667">signature or</text><text fill="#000000" font-family="sans-serif" font-size="14" lengthAdjust="spacing" textLength="124" x="20" y="265.9639">certificate choice?</text><text fill="#000000" font-family="sans-serif" font-size="14" font-weight="bold" lengthAdjust="spacing" textLength="28" x="207" y="111.8857">yes</text><rect fill="#F1F1F1" height="52.5938" rx="12.5" ry="12.5" style="stroke:#181818;stroke-width:1.5;" width="142" x="285" y="80.7422"/><text fill="#000000" font-family="sans-serif" font-size="14" lengthAdjust="spacing" textLength="122" x="295" y="103.7373">Signing certificate</text><text fill="#000000" font-family="sans-serif" font-size="14" lengthAdjust="spacing" textLength="80" x="295" y="120.0342">is required?</text><text fill="#000000" font-family="sans-serif" font-size="14" font-weight="bold" lengthAdjust="spacing" textLength="28" x="480" y="59.292">yes</text><rect fill="#F1F1F1" height="68.8906" rx="12.5" ry="12.5" style="stroke:#181818;stroke-width:1.5;" width="456" x="558" y="20"/><text fill="#000000" font-family="sans-serif" font-size="14" lengthAdjust="spacing" textLength="171" x="568" y="42.9951">Use one of the following:</text><ellipse cx="573.5" cy="55.0938" fill="#000000" rx="2.5" ry="2.5" style="stroke:#000000;stroke-width:0.0;"/><text fill="#000000" font-family="monospace" font-size="14" font-weight="bold" lengthAdjust="spacing" textLength="416" x="580" y="59.292">/v3/signature/device-link/document/{document-number}</text><ellipse cx="573.5" cy="71.3906" fill="#000000" rx="2.5" ry="2.5" style="stroke:#000000;stroke-width:0.0;"/><text fill="#000000" font-family="monospace" font-size="14" font-weight="bold" lengthAdjust="spacing" textLength="424" x="580" y="75.5889">/v3/signature/notification/document/{document-number}</text><path d="M508,54.4453 L518,54.4453 C533,54.4453 533,54.4453 548,54.4453 L558,54.4453 " fill="none" style="stroke:#181818;stroke-width:1.0;"/><path d="M427,107.0391 L437,107.0391 C452,107.0391 452,54.4453 467,54.4453 L477,54.4453 " fill="none" style="stroke:#181818;stroke-width:1.0;"/><text fill="#000000" font-family="sans-serif" font-size="14" font-weight="bold" lengthAdjust="spacing" textLength="20" x="480" y="156.3311">no</text><rect fill="#F1F1F1" height="85.1875" rx="12.5" ry="12.5" style="stroke:#181818;stroke-width:1.5;" width="456" x="550" y="108.8906"/><text fill="#000000" font-family="sans-serif" font-size="14" lengthAdjust="spacing" textLength="171" x="560" y="131.8857">Use one of the following:</text><ellipse cx="565.5" cy="143.9844" fill="#000000" rx="2.5" ry="2.5" style="stroke:#000000;stroke-width:0.0;"/><text fill="#000000" font-family="monospace" font-size="14" font-weight="bold" lengthAdjust="spacing" textLength="416" x="572" y="148.1826">/v3/signature/device-link/document/{document-number}</text><ellipse cx="565.5" cy="160.2813" fill="#000000" rx="2.5" ry="2.5" style="stroke:#000000;stroke-width:0.0;"/><text fill="#000000" font-family="monospace" font-size="14" font-weight="bold" lengthAdjust="spacing" textLength="280" x="572" y="164.4795">/v3/signature/device-link/anonymous</text><ellipse cx="565.5" cy="176.5781" fill="#000000" rx="2.5" ry="2.5" style="stroke:#000000;stroke-width:0.0;"/><text fill="#000000" font-family="monospace" font-size="14" font-weight="bold" lengthAdjust="spacing" textLength="424" x="572" y="180.7764">/v3/signature/notification/document/{document-number}</text><path d="M500,151.4844 L510,151.4844 C525,151.4844 525,151.4844 540,151.4844 L550,151.4844 " fill="none" style="stroke:#181818;stroke-width:1.0;"/><path d="M427,107.0391 L437,107.0391 C452,107.0391 452,151.4844 467,151.4844 L477,151.4844 " fill="none" style="stroke:#181818;stroke-width:1.0;"/><path d="M235,107.0391 L245,107.0391 C260,107.0391 260,107.0391 275,107.0391 L285,107.0391 " fill="none" style="stroke:#181818;stroke-width:1.0;"/><path d="M154,236.6719 L164,236.6719 C179,236.6719 179,107.0391 194,107.0391 L204,107.0391 " fill="none" style="stroke:#181818;stroke-width:1.0;"/><text fill="#000000" font-family="sans-serif" font-size="14" font-weight="bold" lengthAdjust="spacing" textLength="20" x="207" y="338.5576">no</text><rect fill="#F1F1F1" height="52.5938" rx="12.5" ry="12.5" style="stroke:#181818;stroke-width:1.5;" width="142" x="277" y="307.4141"/><text fill="#000000" font-family="sans-serif" font-size="14" lengthAdjust="spacing" textLength="122" x="287" y="330.4092">Signing certificate</text><text fill="#000000" font-family="sans-serif" font-size="14" lengthAdjust="spacing" textLength="80" x="287" y="346.7061">is required?</text><text fill="#000000" font-family="sans-serif" font-size="14" font-weight="bold" lengthAdjust="spacing" textLength="28" x="472" y="294.1123">yes</text><rect fill="#F1F1F1" height="150.375" rx="12.5" ry="12.5" style="stroke:#181818;stroke-width:1.5;" width="704" x="550" y="214.0781"/><text fill="#000000" font-family="sans-serif" font-size="14" lengthAdjust="spacing" textLength="171" x="560" y="237.0732">Use one of the following:</text><ellipse cx="565.5" cy="249.1719" fill="#000000" rx="2.5" ry="2.5" style="stroke:#000000;stroke-width:0.0;"/><text fill="#000000" font-family="monospace" font-size="14" font-weight="bold" lengthAdjust="spacing" textLength="432" x="572" y="253.3701">/v3/signature/certificate-choice/device-link/anonymous</text><ellipse cx="565.5" cy="265.4688" fill="#000000" rx="2.5" ry="2.5" style="stroke:#000000;stroke-width:0.0;"/><text fill="#000000" font-family="monospace" font-size="14" font-weight="bold" lengthAdjust="spacing" textLength="664" x="572" y="269.667">/v3/signature/certificate-choice/device-link/etsi/{id-etsi-qcs-SemanticsId-Natural}</text><ellipse cx="565.5" cy="281.7656" fill="#000000" rx="2.5" ry="2.5" style="stroke:#000000;stroke-width:0.0;"/><text fill="#000000" font-family="monospace" font-size="14" font-weight="bold" lengthAdjust="spacing" textLength="672" x="572" y="285.9639">/v3/signature/certificate-choice/notification/etsi/{id-etsi-qcs-SemanticsId-Natural}</text><text fill="#000000" font-family="sans-serif" font-size="14" lengthAdjust="spacing" textLength="66" x="560" y="302.2607">Then use</text><text fill="#000000" font-family="monospace" font-size="14" font-weight="bold" lengthAdjust="spacing" textLength="424" x="560" y="318.5576">/v3/signature/notification/document/{document-number}</text><ellipse cx="565.5" cy="330.6563" fill="#000000" rx="2.5" ry="2.5" style="stroke:#000000;stroke-width:0.0;"/><text fill="#000000" font-family="sans-serif" font-size="14" font-weight="bold" lengthAdjust="spacing" textLength="34" x="572" y="334.8545">with</text><text fill="#000000" font-family="sans-serif" font-size="14" lengthAdjust="spacing" textLength="4" x="606" y="334.8545">&#160;</text><text fill="#000000" font-family="monospace" font-size="14" lengthAdjust="spacing" textLength="120" x="610" y="334.8545">linkedSessionID</text><text fill="#000000" font-family="sans-serif" font-size="14" lengthAdjust="spacing" textLength="7" x="734" y="334.8545">if</text><text fill="#000000" font-family="monospace" font-size="14" lengthAdjust="spacing" textLength="88" x="745" y="334.8545">device-link</text><text fill="#000000" font-family="sans-serif" font-size="14" lengthAdjust="spacing" textLength="154" x="837" y="334.8545">endpoint was used or,</text><ellipse cx="565.5" cy="346.9531" fill="#000000" rx="2.5" ry="2.5" style="stroke:#000000;stroke-width:0.0;"/><text fill="#000000" font-family="sans-serif" font-size="14" font-weight="bold" lengthAdjust="spacing" textLength="60" x="572" y="351.1514">without</text><text fill="#000000" font-family="sans-serif" font-size="14" lengthAdjust="spacing" textLength="4" x="632" y="351.1514">&#160;</text><text fill="#000000" font-family="monospace" font-size="14" lengthAdjust="spacing" textLength="120" x="636" y="351.1514">linkedSessionID</text><text fill="#000000" font-family="sans-serif" font-size="14" lengthAdjust="spacing" textLength="7" x="760" y="351.1514">if</text><text fill="#000000" font-family="monospace" font-size="14" lengthAdjust="spacing" textLength="96" x="771" y="351.1514">notification</text><text fill="#000000" font-family="sans-serif" font-size="14" lengthAdjust="spacing" textLength="136" x="871" y="351.1514">endpoint was used.</text><path d="M500,289.2656 L510,289.2656 C525,289.2656 525,289.2656 540,289.2656 L550,289.2656 " fill="none" style="stroke:#181818;stroke-width:1.0;"/><path d="M419,333.7109 L429,333.7109 C444,333.7109 444,289.2656 459,289.2656 L469,289.2656 " fill="none" style="stroke:#181818;stroke-width:1.0;"/><text fill="#000000" font-family="sans-serif" font-size="14" font-weight="bold" lengthAdjust="spacing" textLength="20" x="472" y="423.7451">no</text><rect fill="#F1F1F1" height="68.8906" rx="12.5" ry="12.5" style="stroke:#181818;stroke-width:1.5;" width="552" x="542" y="384.4531"/><text fill="#000000" font-family="sans-serif" font-size="14" lengthAdjust="spacing" textLength="166" x="552" y="407.4482">Use one of the following</text><ellipse cx="557.5" cy="419.5469" fill="#000000" rx="2.5" ry="2.5" style="stroke:#000000;stroke-width:0.0;"/><text fill="#000000" font-family="monospace" font-size="14" font-weight="bold" lengthAdjust="spacing" textLength="512" x="564" y="423.7451">/v3/signature/device-link/etsi/{id-etsi-qcs-SemanticsId-Natural}</text><ellipse cx="557.5" cy="435.8438" fill="#000000" rx="2.5" ry="2.5" style="stroke:#000000;stroke-width:0.0;"/><text fill="#000000" font-family="monospace" font-size="14" font-weight="bold" lengthAdjust="spacing" textLength="520" x="564" y="440.042">/v3/signature/notification/etsi/{id-etsi-qcs-SemanticsId-Natural}</text><path d="M492,418.8984 L502,418.8984 C517,418.8984 517,418.8984 532,418.8984 L542,418.8984 " fill="none" style="stroke:#181818;stroke-width:1.0;"/><path d="M419,333.7109 L429,333.7109 C444,333.7109 444,418.8984 459,418.8984 L469,418.8984 " fill="none" style="stroke:#181818;stroke-width:1.0;"/><path d="M227,333.7109 L237,333.7109 C252,333.7109 252,333.7109 267,333.7109 L277,333.7109 " fill="none" style="stroke:#181818;stroke-width:1.0;"/><path d="M154,236.6719 L164,236.6719 C179,236.6719 179,333.7109 194,333.7109 L204,333.7109 " fill="none" style="stroke:#181818;stroke-width:1.0;"/></g></svg>