<?xml version="1.0" encoding="us-ascii" standalone="no"?><svg xmlns="http://www.w3.org/2000/svg" xmlns:xlink="http://www.w3.org/1999/xlink" contentStyleType="text/css" height="1439px" preserveAspectRatio="none" style="width:1155px;height:1439px;" version="1.1" viewBox="0 0 1155 1439" width="1155px" zoomAndPan="magnify"><defs/><g><text fill="#000000" font-family="Inter" font-size="14" font-weight="bold" lengthAdjust="spacing" textLength="266" x="446.5" y="27.9951">Device Link Based Signature Flow</text><rect fill="#D2E4F4" height="1339.8984" style="stroke:#989898;stroke-width:1.0;" width="10" x="126" y="83.5938"/><rect fill="#D2E4F4" height="1339.8984" style="stroke:#989898;stroke-width:1.0;" width="10" x="360" y="83.5938"/><rect fill="#D2E4F4" height="979.1719" style="stroke:#989898;stroke-width:1.0;" width="10" x="746" y="332.9219"/><rect fill="#D2E4F4" height="260.0625" style="stroke:#989898;stroke-width:1.0;" width="10" x="962" y="796.4922"/><rect fill="none" height="265.9688" rx="3.5" ry="3.5" style="stroke:#989898;stroke-width:1.0;" width="944.5" x="63" y="220.2578"/><rect fill="none" height="234.8359" rx="3.5" ry="3.5" style="stroke:#989898;stroke-width:1.0;" width="924.5" x="73" y="244.3906"/><rect fill="none" height="179.6016" rx="3.5" ry="3.5" style="stroke:#989898;stroke-width:1.0;" width="370.5" x="63" y="573.625"/><rect fill="none" height="75.3984" rx="3.5" ry="3.5" style="stroke:#989898;stroke-width:1.0;" width="350.5" x="73" y="597.7578"/><rect fill="none" height="117.5313" rx="3.5" ry="3.5" style="stroke:#989898;stroke-width:1.0;" width="924.5" x="73" y="1018.2891"/><rect fill="none" height="194.4063" rx="3.5" ry="3.5" style="stroke:#989898;stroke-width:1.0;" width="503.5" x="296.5" y="1149.8203"/><rect fill="none" height="134.1406" rx="3.5" ry="3.5" style="stroke:#989898;stroke-width:1.0;" width="483.5" x="306.5" y="1203.0859"/><line style="stroke:#989898;stroke-width:0.5;stroke-dasharray:5.0,5.0;" x1="131" x2="131" y1="73.5938" y2="1432.4922"/><line style="stroke:#989898;stroke-width:0.5;stroke-dasharray:5.0,5.0;" x1="364.5" x2="364.5" y1="73.5938" y2="1432.4922"/><line style="stroke:#989898;stroke-width:0.5;stroke-dasharray:5.0,5.0;" x1="751" x2="751" y1="73.5938" y2="1432.4922"/><line style="stroke:#989898;stroke-width:0.5;stroke-dasharray:5.0,5.0;" x1="966.5" x2="966.5" y1="73.5938" y2="1432.4922"/><rect fill="#A5C8E8" height="30.2969" rx="3.5" ry="3.5" style="stroke:#202020;stroke-width:1.5;" width="96" x="83" y="42.2969"/><text fill="#202020" font-family="Inter" font-size="14" lengthAdjust="spacing" textLength="82" x="90" y="62.292">RP frontend</text><rect fill="#A5C8E8" height="30.2969" rx="3.5" ry="3.5" style="stroke:#202020;stroke-width:1.5;" width="97" x="316.5" y="42.2969"/><text fill="#202020" font-family="Inter" font-size="14" lengthAdjust="spacing" textLength="83" x="323.5" y="62.292">RP backend</text><rect fill="#A5C8E8" height="30.2969" rx="3.5" ry="3.5" style="stroke:#202020;stroke-width:1.5;" width="58" x="722" y="42.2969"/><text fill="#202020" font-family="Inter" font-size="14" lengthAdjust="spacing" textLength="44" x="729" y="62.292">RP API</text><rect fill="#A5C8E8" height="30.2969" rx="3.5" ry="3.5" style="stroke:#202020;stroke-width:1.5;" width="41" x="946.5" y="42.2969"/><text fill="#202020" font-family="Inter" font-size="14" lengthAdjust="spacing" textLength="27" x="953.5" y="62.292">App</text><rect fill="#D2E4F4" height="1339.8984" style="stroke:#989898;stroke-width:1.0;" width="10" x="126" y="83.5938"/><rect fill="#D2E4F4" height="1339.8984" style="stroke:#989898;stroke-width:1.0;" width="10" x="360" y="83.5938"/><rect fill="#D2E4F4" height="979.1719" style="stroke:#989898;stroke-width:1.0;" width="10" x="746" y="332.9219"/><rect fill="#D2E4F4" height="260.0625" style="stroke:#989898;stroke-width:1.0;" width="10" x="962" y="796.4922"/><path d="M5,92.0938 L5,125.0938 A3.5,3.5 0 0 0 8.5,128.5938 L253.5,128.5938 A3.5,3.5 0 0 0 257,125.0938 L257,98.5938 L247,88.5938 L8.5,88.5938 A3.5,3.5 0 0 0 5,92.0938 " fill="#DFDFDF" style="stroke:#202020;stroke-width:1.5;"/><path d="M247,88.5938 L247,96.8438 A1.75,1.75 0 0 0 248.75,98.5938 L257,98.5938 L247,88.5938 " fill="#DFDFDF" style="stroke:#202020;stroke-width:1.5;"/><text fill="#202020" font-family="Inter" font-size="13" lengthAdjust="spacing" textLength="231" x="11" y="105.6606">User initiates signing on RP frontend</text><text fill="#202020" font-family="Inter" font-size="13" lengthAdjust="spacing" textLength="154" x="11" y="120.7935">(website or mobile app).</text><polygon fill="#202020" points="348,150.9922,358,154.9922,348,158.9922" style="stroke:#202020;stroke-width:1.0;"/><line style="stroke:#202020;stroke-width:1.0;" x1="136" x2="354" y1="154.9922" y2="154.9922"/><text fill="#000000" font-family="Inter" font-size="13" font-weight="bold" lengthAdjust="spacing" textLength="9" x="192" y="149.9263">1</text><text fill="#000000" font-family="Inter" font-size="13" lengthAdjust="spacing" textLength="52" x="205" y="149.9263">Request</text><text fill="#000000" font-family="Inter" font-size="13" lengthAdjust="spacing" textLength="4" x="257" y="149.9263">&#160;</text><text fill="#000000" font-family="Inter" font-size="13" lengthAdjust="spacing" textLength="13" x="261" y="149.9263">to</text><text fill="#000000" font-family="Inter" font-size="13" lengthAdjust="spacing" textLength="4" x="274" y="149.9263">&#160;</text><text fill="#000000" font-family="Inter" font-size="13" lengthAdjust="spacing" textLength="26" x="278" y="149.9263">sign</text><path d="M212,171.4922 L212,204.4922 A3.5,3.5 0 0 0 215.5,207.9922 L900.5,207.9922 A3.5,3.5 0 0 0 904,204.4922 L904,177.9922 L894,167.9922 L215.5,167.9922 A3.5,3.5 0 0 0 212,171.4922 " fill="#DFDFDF" style="stroke:#202020;stroke-width:1.5;"/><path d="M894,167.9922 L894,176.2422 A1.75,1.75 0 0 0 895.75,177.9922 L904,177.9922 L894,167.9922 " fill="#DFDFDF" style="stroke:#202020;stroke-width:1.5;"/><text fill="#202020" font-family="Inter" font-size="13" lengthAdjust="spacing" textLength="667" x="218" y="185.0591">Note that *AdES-style digital signature schemes require knowledge of the signing certificate beforehand.</text><text fill="#202020" font-family="Inter" font-size="13" lengthAdjust="spacing" textLength="284" x="218" y="200.1919">Retrival of the certificate can be skipped with</text><text fill="#202020" font-family="Inter" font-size="13" font-weight="bold" lengthAdjust="spacing" textLength="82" x="506" y="200.1919">ADVANCED</text><text fill="#202020" font-family="Inter" font-size="13" lengthAdjust="spacing" textLength="100" x="592" y="200.1919">certificate level.</text><path d="M66.5,220.2578 L133,220.2578 L133,227.3906 L123,237.3906 L63,237.3906 L63,223.7578 A3.5,3.5 0 0 1 66.5,220.2578 " fill="#EEEEEE" style="stroke:#989898;stroke-width:1.5;"/><rect fill="none" height="265.9688" rx="3.5" ry="3.5" style="stroke:#989898;stroke-width:1.0;" width="944.5" x="63" y="220.2578"/><text fill="#202020" font-family="Inter" font-size="13" font-weight="bold" lengthAdjust="spacing" textLength="25" x="78" y="233.3247">opt</text><text fill="#989898" font-family="Inter" font-size="11" font-weight="bold" lengthAdjust="spacing" textLength="5" x="148" y="232.4683">[</text><text fill="#989898" font-family="Inter" font-size="11" font-weight="bold" lengthAdjust="spacing" textLength="67" x="153" y="232.4683">QUALIFIED</text><text fill="#989898" font-family="Inter" font-size="11" font-weight="bold" lengthAdjust="spacing" textLength="310" x="224" y="232.4683">certificate level (signing certificate is required)]</text><path d="M76.5,244.3906 L137,244.3906 L137,251.5234 L127,261.5234 L73,261.5234 L73,247.8906 A3.5,3.5 0 0 1 76.5,244.3906 " fill="#EEEEEE" style="stroke:#989898;stroke-width:1.5;"/><rect fill="none" height="234.8359" rx="3.5" ry="3.5" style="stroke:#989898;stroke-width:1.0;" width="924.5" x="73" y="244.3906"/><text fill="#202020" font-family="Inter" font-size="13" font-weight="bold" lengthAdjust="spacing" textLength="19" x="88" y="257.4575">alt</text><text fill="#989898" font-family="Inter" font-size="11" font-weight="bold" lengthAdjust="spacing" textLength="195" x="152" y="256.6011">[user has been authenticated]</text><path d="M267,270.0234 L267,288.0234 A3.5,3.5 0 0 0 270.5,291.5234 L845.5,291.5234 A3.5,3.5 0 0 0 849,288.0234 L849,276.5234 L839,266.5234 L270.5,266.5234 A3.5,3.5 0 0 0 267,270.0234 " fill="#DFDFDF" style="stroke:#202020;stroke-width:1.5;"/><path d="M839,266.5234 L839,274.7734 A1.75,1.75 0 0 0 840.75,276.5234 L849,276.5234 L839,266.5234 " fill="#DFDFDF" style="stroke:#202020;stroke-width:1.5;"/><text fill="#202020" font-family="Inter" font-size="13" lengthAdjust="spacing" textLength="561" x="273" y="283.5903">Request signing certificate using the document number from the authentication session</text><polygon fill="#202020" points="734,328.9219,744,332.9219,734,336.9219" style="stroke:#202020;stroke-width:1.0;"/><line style="stroke:#202020;stroke-width:1.0;" x1="370" x2="740" y1="332.9219" y2="332.9219"/><text fill="#000000" font-family="Inter" font-size="13" font-weight="bold" lengthAdjust="spacing" textLength="9" x="379.5" y="320.2896">2</text><text fill="#000000" font-family="monospace" font-size="13" lengthAdjust="spacing" textLength="32" x="548.5" y="312.7231">POST</text><text fill="#000000" font-family="monospace" font-size="13" lengthAdjust="spacing" textLength="344" x="392.5" y="327.856">/v3/signature/certificate/{document-number}</text><polygon fill="#202020" points="381,340.9219,371,344.9219,381,348.9219" style="stroke:#202020;stroke-width:1.0;"/><line style="stroke:#202020;stroke-width:1.0;stroke-dasharray:2.0,2.0;" x1="375" x2="745" y1="344.9219" y2="344.9219"/><text fill="#000000" font-family="Inter" font-size="13" font-weight="bold" lengthAdjust="spacing" textLength="9" x="490.5" y="357.9888">3</text><text fill="#000000" font-family="Inter" font-size="13" lengthAdjust="spacing" textLength="50" x="503.5" y="357.9888">"signing</text><text fill="#000000" font-family="Inter" font-size="13" lengthAdjust="spacing" textLength="4" x="553.5" y="357.9888">&#160;</text><text fill="#000000" font-family="Inter" font-size="13" lengthAdjust="spacing" textLength="68" x="557.5" y="357.9888">certificate"</text><line style="stroke:#989898;stroke-width:1.0;stroke-dasharray:2.0,2.0;" x1="73" x2="997.5" y1="371.0547" y2="371.0547"/><text fill="#989898" font-family="Inter" font-size="11" font-weight="bold" lengthAdjust="spacing" textLength="190" x="78" y="381.2651">[no prior user authentication]</text><path d="M221,393.3594 L221,426.3594 A3.5,3.5 0 0 0 224.5,429.8594 L891.5,429.8594 A3.5,3.5 0 0 0 895,426.3594 L895,399.8594 L885,389.8594 L224.5,389.8594 A3.5,3.5 0 0 0 221,393.3594 " fill="#DFDFDF" style="stroke:#202020;stroke-width:1.5;"/><path d="M885,389.8594 L885,398.1094 A1.75,1.75 0 0 0 886.75,399.8594 L895,399.8594 L885,389.8594 " fill="#DFDFDF" style="stroke:#202020;stroke-width:1.5;"/><text fill="#202020" font-family="Inter" font-size="13" lengthAdjust="spacing" textLength="636" x="227" y="406.9263">Warning: Although combining certificate choice and device link based signature sessions is possible,</text><text fill="#202020" font-family="Inter" font-size="13" lengthAdjust="spacing" textLength="653" x="227" y="422.0591">it is recommended to instead use notification-based linked signature session for best user experience.</text><rect fill="none" height="39.1016" rx="3.5" ry="3.5" style="stroke:#000000;stroke-width:1.5;" width="910.5" x="80" y="435.125"/><path d="M83,435.125 L146,435.125 L146,442.125 L136,452.125 L80,452.125 L80,438.125 A3,3 0 0 1 83,435.125 " fill="#EEEEEE" style="stroke:#000000;stroke-width:2.0;"/><text fill="#000000" font-family="Inter" font-size="13" font-weight="bold" lengthAdjust="spacing" textLength="21" x="93" y="449.1919">ref</text><text fill="#000000" font-family="Inter" font-size="12" font-weight="bold" lengthAdjust="spacing" textLength="123" x="393.75" y="467.2637">Certificate choice</text><text fill="#000000" font-family="Inter" font-size="12" lengthAdjust="spacing" textLength="156" x="520.75" y="467.2637">sub-process (not shown)</text><polygon fill="#202020" points="734,510.3594,744,514.3594,734,518.3594" style="stroke:#202020;stroke-width:1.0;"/><line style="stroke:#202020;stroke-width:1.0;" x1="370" x2="740" y1="514.3594" y2="514.3594"/><text fill="#000000" font-family="Inter" font-size="13" font-weight="bold" lengthAdjust="spacing" textLength="9" x="415.5" y="509.2935">4</text><text fill="#000000" font-family="monospace" font-size="13" lengthAdjust="spacing" textLength="32" x="428.5" y="509.2935">POST</text><text fill="#000000" font-family="monospace" font-size="13" lengthAdjust="spacing" textLength="8" x="460.5" y="509.2935">&#160;</text><text fill="#000000" font-family="monospace" font-size="13" lengthAdjust="spacing" textLength="232" x="468.5" y="509.2935">/v3/signature/device-link/...</text><polygon fill="#202020" points="381,522.3594,371,526.3594,381,530.3594" style="stroke:#202020;stroke-width:1.0;"/><line style="stroke:#202020;stroke-width:1.0;stroke-dasharray:2.0,2.0;" x1="375" x2="745" y1="526.3594" y2="526.3594"/><text fill="#000000" font-family="Inter" font-size="13" font-weight="bold" lengthAdjust="spacing" textLength="9" x="405.5" y="546.9927">5</text><text fill="#000000" font-family="monospace" font-size="13" lengthAdjust="spacing" textLength="72" x="418.5" y="539.4263">sessionID</text><text fill="#000000" font-family="Inter" font-size="13" lengthAdjust="spacing" textLength="4" x="490.5" y="539.4263">,</text><text fill="#000000" font-family="Inter" font-size="13" lengthAdjust="spacing" textLength="4" x="494.5" y="539.4263">&#160;</text><text fill="#000000" font-family="monospace" font-size="13" lengthAdjust="spacing" textLength="96" x="498.5" y="539.4263">sessionToken</text><text fill="#000000" font-family="Inter" font-size="13" lengthAdjust="spacing" textLength="4" x="594.5" y="539.4263">,</text><text fill="#000000" font-family="Inter" font-size="13" lengthAdjust="spacing" textLength="4" x="598.5" y="539.4263">&#160;</text><text fill="#000000" font-family="monospace" font-size="13" lengthAdjust="spacing" textLength="104" x="602.5" y="539.4263">sessionSecret</text><text fill="#000000" font-family="Inter" font-size="13" lengthAdjust="spacing" textLength="4" x="706.5" y="539.4263">,</text><text fill="#000000" font-family="monospace" font-size="13" lengthAdjust="spacing" textLength="112" x="508.5" y="554.5591">deviceLinkBase</text><path d="M66.5,573.625 L127,573.625 L127,580.7578 L117,590.7578 L63,590.7578 L63,577.125 A3.5,3.5 0 0 1 66.5,573.625 " fill="#EEEEEE" style="stroke:#989898;stroke-width:1.5;"/><rect fill="none" height="179.6016" rx="3.5" ry="3.5" style="stroke:#989898;stroke-width:1.0;" width="370.5" x="63" y="573.625"/><text fill="#202020" font-family="Inter" font-size="13" font-weight="bold" lengthAdjust="spacing" textLength="19" x="78" y="586.6919">alt</text><text fill="#989898" font-family="Inter" font-size="11" font-weight="bold" lengthAdjust="spacing" textLength="222" x="142" y="585.8354">[Cross-device use-case (QR code)]</text><path d="M76.5,597.7578 L150,597.7578 L150,604.8906 L140,614.8906 L73,614.8906 L73,601.2578 A3.5,3.5 0 0 1 76.5,597.7578 " fill="#EEEEEE" style="stroke:#989898;stroke-width:1.5;"/><rect fill="none" height="75.3984" rx="3.5" ry="3.5" style="stroke:#989898;stroke-width:1.0;" width="350.5" x="73" y="597.7578"/><text fill="#202020" font-family="Inter" font-size="13" font-weight="bold" lengthAdjust="spacing" textLength="32" x="88" y="610.8247">loop</text><text fill="#989898" font-family="Inter" font-size="11" font-weight="bold" lengthAdjust="spacing" textLength="132" x="165" y="609.9683">[until user interacts]</text><polygon fill="#202020" points="348,632.0234,358,636.0234,348,640.0234" style="stroke:#202020;stroke-width:1.0;"/><line style="stroke:#202020;stroke-width:1.0;" x1="136" x2="354" y1="636.0234" y2="636.0234"/><text fill="#000000" font-family="Inter" font-size="13" font-weight="bold" lengthAdjust="spacing" textLength="9" x="148" y="630.9575">6</text><text fill="#000000" font-family="Inter" font-size="13" lengthAdjust="spacing" textLength="52" x="161" y="630.9575">Request</text><text fill="#000000" font-family="Inter" font-size="13" lengthAdjust="spacing" textLength="4" x="213" y="630.9575">&#160;</text><text fill="#000000" font-family="Inter" font-size="13" lengthAdjust="spacing" textLength="17" x="217" y="630.9575">for</text><text fill="#000000" font-family="Inter" font-size="13" lengthAdjust="spacing" textLength="4" x="234" y="630.9575">&#160;</text><text fill="#000000" font-family="Inter" font-size="13" lengthAdjust="spacing" textLength="53" x="238" y="630.9575">updated</text><text fill="#000000" font-family="Inter" font-size="13" lengthAdjust="spacing" textLength="4" x="291" y="630.9575">&#160;</text><text fill="#000000" font-family="Inter" font-size="13" lengthAdjust="spacing" textLength="18" x="295" y="630.9575">QR</text><text fill="#000000" font-family="Inter" font-size="13" lengthAdjust="spacing" textLength="4" x="313" y="630.9575">&#160;</text><text fill="#000000" font-family="Inter" font-size="13" lengthAdjust="spacing" textLength="31" x="317" y="630.9575">code</text><polygon fill="#202020" points="147,644.0234,137,648.0234,147,652.0234" style="stroke:#202020;stroke-width:1.0;"/><line style="stroke:#202020;stroke-width:1.0;stroke-dasharray:2.0,2.0;" x1="141" x2="359" y1="648.0234" y2="648.0234"/><text fill="#000000" font-family="Inter" font-size="13" font-weight="bold" lengthAdjust="spacing" textLength="9" x="161" y="661.0903">7</text><text fill="#000000" font-family="Inter" font-size="13" lengthAdjust="spacing" textLength="47" x="174" y="661.0903">Provide</text><text fill="#000000" font-family="Inter" font-size="13" lengthAdjust="spacing" textLength="4" x="221" y="661.0903">&#160;</text><text fill="#000000" font-family="Inter" font-size="13" lengthAdjust="spacing" textLength="53" x="225" y="661.0903">updated</text><text fill="#000000" font-family="Inter" font-size="13" lengthAdjust="spacing" textLength="4" x="278" y="661.0903">&#160;</text><text fill="#000000" font-family="Inter" font-size="13" lengthAdjust="spacing" textLength="18" x="282" y="661.0903">QR</text><text fill="#000000" font-family="Inter" font-size="13" lengthAdjust="spacing" textLength="4" x="300" y="661.0903">&#160;</text><text fill="#000000" font-family="Inter" font-size="13" lengthAdjust="spacing" textLength="31" x="304" y="661.0903">code</text><line style="stroke:#989898;stroke-width:1.0;stroke-dasharray:2.0,2.0;" x1="63" x2="433.5" y1="681.1563" y2="681.1563"/><text fill="#989898" font-family="Inter" font-size="11" font-weight="bold" lengthAdjust="spacing" textLength="306" x="68" y="691.3667">[Same-device use-case (Web2App or App2App)]</text><polygon fill="#202020" points="348,712.0938,358,716.0938,348,720.0938" style="stroke:#202020;stroke-width:1.0;"/><line style="stroke:#202020;stroke-width:1.0;" x1="136" x2="354" y1="716.0938" y2="716.0938"/><text fill="#000000" font-family="Inter" font-size="13" font-weight="bold" lengthAdjust="spacing" textLength="9" x="180.5" y="711.0278">8</text><text fill="#000000" font-family="Inter" font-size="13" lengthAdjust="spacing" textLength="52" x="193.5" y="711.0278">Request</text><text fill="#000000" font-family="Inter" font-size="13" lengthAdjust="spacing" textLength="4" x="245.5" y="711.0278">&#160;</text><text fill="#000000" font-family="Inter" font-size="13" lengthAdjust="spacing" textLength="41" x="249.5" y="711.0278">device</text><text fill="#000000" font-family="Inter" font-size="13" lengthAdjust="spacing" textLength="4" x="290.5" y="711.0278">&#160;</text><text fill="#000000" font-family="Inter" font-size="13" lengthAdjust="spacing" textLength="21" x="294.5" y="711.0278">link</text><polygon fill="#202020" points="147,724.0938,137,728.0938,147,732.0938" style="stroke:#202020;stroke-width:1.0;"/><line style="stroke:#202020;stroke-width:1.0;stroke-dasharray:2.0,2.0;" x1="141" x2="359" y1="728.0938" y2="728.0938"/><text fill="#000000" font-family="Inter" font-size="13" font-weight="bold" lengthAdjust="spacing" textLength="9" x="187" y="741.1606">9</text><text fill="#000000" font-family="Inter" font-size="13" lengthAdjust="spacing" textLength="84" x="200" y="741.1606">Same-device</text><text fill="#000000" font-family="Inter" font-size="13" lengthAdjust="spacing" textLength="4" x="284" y="741.1606">&#160;</text><text fill="#000000" font-family="Inter" font-size="13" lengthAdjust="spacing" textLength="21" x="288" y="741.1606">link</text><polygon fill="#202020" points="950,792.4922,960,796.4922,950,800.4922" style="stroke:#202020;stroke-width:1.0;"/><line style="stroke:#202020;stroke-width:1.0;" x1="136" x2="956" y1="796.4922" y2="796.4922"/><text fill="#000000" font-family="Inter" font-size="13" font-weight="bold" lengthAdjust="spacing" textLength="18" x="377.5" y="783.8599">10</text><text fill="#000000" font-family="Inter" font-size="13" lengthAdjust="spacing" textLength="30" x="399.5" y="776.2935">User</text><text fill="#000000" font-family="Inter" font-size="13" lengthAdjust="spacing" textLength="4" x="429.5" y="776.2935">&#160;</text><text fill="#000000" font-family="Inter" font-size="13" lengthAdjust="spacing" textLength="37" x="433.5" y="776.2935">scans</text><text fill="#000000" font-family="Inter" font-size="13" lengthAdjust="spacing" textLength="4" x="470.5" y="776.2935">&#160;</text><text fill="#000000" font-family="Inter" font-size="13" lengthAdjust="spacing" textLength="21" x="474.5" y="776.2935">the</text><text fill="#000000" font-family="Inter" font-size="13" lengthAdjust="spacing" textLength="4" x="495.5" y="776.2935">&#160;</text><text fill="#000000" font-family="Inter" font-size="13" lengthAdjust="spacing" textLength="18" x="499.5" y="776.2935">QR</text><text fill="#000000" font-family="Inter" font-size="13" lengthAdjust="spacing" textLength="4" x="517.5" y="776.2935">&#160;</text><text fill="#000000" font-family="Inter" font-size="13" lengthAdjust="spacing" textLength="31" x="521.5" y="776.2935">code</text><text fill="#000000" font-family="Inter" font-size="13" lengthAdjust="spacing" textLength="4" x="552.5" y="776.2935">&#160;</text><text fill="#000000" font-family="Inter" font-size="13" lengthAdjust="spacing" textLength="13" x="556.5" y="776.2935">or</text><text fill="#000000" font-family="Inter" font-size="13" lengthAdjust="spacing" textLength="4" x="569.5" y="776.2935">&#160;</text><text fill="#000000" font-family="Inter" font-size="13" lengthAdjust="spacing" textLength="34" x="573.5" y="776.2935">clicks</text><text fill="#000000" font-family="Inter" font-size="13" lengthAdjust="spacing" textLength="4" x="607.5" y="776.2935">&#160;</text><text fill="#000000" font-family="Inter" font-size="13" lengthAdjust="spacing" textLength="16" x="611.5" y="776.2935">on</text><text fill="#000000" font-family="Inter" font-size="13" lengthAdjust="spacing" textLength="4" x="627.5" y="776.2935">&#160;</text><text fill="#000000" font-family="Inter" font-size="13" lengthAdjust="spacing" textLength="8" x="631.5" y="776.2935">a</text><text fill="#000000" font-family="Inter" font-size="13" lengthAdjust="spacing" textLength="4" x="639.5" y="776.2935">&#160;</text><text fill="#000000" font-family="Inter" font-size="13" lengthAdjust="spacing" textLength="60" x="643.5" y="776.2935">Web2App</text><text fill="#000000" font-family="Inter" font-size="13" lengthAdjust="spacing" textLength="4" x="703.5" y="776.2935">&#160;</text><text fill="#000000" font-family="Inter" font-size="13" lengthAdjust="spacing" textLength="13" x="707.5" y="776.2935">or</text><text fill="#000000" font-family="Inter" font-size="13" lengthAdjust="spacing" textLength="58" x="518.5" y="791.4263">App2App</text><text fill="#000000" font-family="Inter" font-size="13" lengthAdjust="spacing" textLength="4" x="576.5" y="791.4263">&#160;</text><text fill="#000000" font-family="Inter" font-size="13" lengthAdjust="spacing" textLength="21" x="580.5" y="791.4263">link</text><line style="stroke:#202020;stroke-width:1.0;" x1="972" x2="1014" y1="825.625" y2="825.625"/><line style="stroke:#202020;stroke-width:1.0;" x1="1014" x2="1014" y1="825.625" y2="838.625"/><line style="stroke:#202020;stroke-width:1.0;" x1="973" x2="1014" y1="838.625" y2="838.625"/><polygon fill="#202020" points="983,834.625,973,838.625,983,842.625" style="stroke:#202020;stroke-width:1.0;"/><text fill="#000000" font-family="Inter" font-size="13" font-weight="bold" lengthAdjust="spacing" textLength="18" x="979" y="820.5591">11</text><text fill="#000000" font-family="Inter" font-size="13" lengthAdjust="spacing" textLength="52" x="1001" y="820.5591">Validate</text><text fill="#000000" font-family="Inter" font-size="13" lengthAdjust="spacing" textLength="4" x="1053" y="820.5591">&#160;</text><text fill="#000000" font-family="Inter" font-size="13" lengthAdjust="spacing" textLength="21" x="1057" y="820.5591">the</text><text fill="#000000" font-family="Inter" font-size="13" lengthAdjust="spacing" textLength="4" x="1078" y="820.5591">&#160;</text><text fill="#000000" font-family="Inter" font-size="13" lengthAdjust="spacing" textLength="41" x="1082" y="820.5591">device</text><text fill="#000000" font-family="Inter" font-size="13" lengthAdjust="spacing" textLength="4" x="1123" y="820.5591">&#160;</text><text fill="#000000" font-family="Inter" font-size="13" lengthAdjust="spacing" textLength="21" x="1127" y="820.5591">link</text><polygon fill="#202020" points="767,863.7578,757,867.7578,767,871.7578" style="stroke:#202020;stroke-width:1.0;"/><line style="stroke:#202020;stroke-width:1.0;" x1="761" x2="961" y1="867.7578" y2="867.7578"/><text fill="#000000" font-family="Inter" font-size="13" font-weight="bold" lengthAdjust="spacing" textLength="18" x="768" y="862.6919">12</text><text fill="#000000" font-family="monospace" font-size="13" lengthAdjust="spacing" textLength="48" x="790" y="862.6919">Create</text><text fill="#000000" font-family="monospace" font-size="13" lengthAdjust="spacing" textLength="8" x="838" y="862.6919">&#160;</text><text fill="#000000" font-family="monospace" font-size="13" lengthAdjust="spacing" textLength="8" x="846" y="862.6919">a</text><text fill="#000000" font-family="monospace" font-size="13" lengthAdjust="spacing" textLength="8" x="854" y="862.6919">&#160;</text><text fill="#000000" font-family="monospace" font-size="13" lengthAdjust="spacing" textLength="88" x="862" y="862.6919">transaction</text><polygon fill="#202020" points="950,875.7578,960,879.7578,950,883.7578" style="stroke:#202020;stroke-width:1.0;"/><line style="stroke:#202020;stroke-width:1.0;stroke-dasharray:2.0,2.0;" x1="756" x2="956" y1="879.7578" y2="879.7578"/><text fill="#000000" font-family="Inter" font-size="13" font-weight="bold" lengthAdjust="spacing" textLength="18" x="804" y="892.8247">13</text><text fill="#000000" font-family="monospace" font-size="13" lengthAdjust="spacing" textLength="88" x="826" y="892.8247">transaction</text><line style="stroke:#202020;stroke-width:1.0;" x1="972" x2="1014" y1="926.0234" y2="926.0234"/><line style="stroke:#202020;stroke-width:1.0;" x1="1014" x2="1014" y1="926.0234" y2="939.0234"/><line style="stroke:#202020;stroke-width:1.0;" x1="973" x2="1014" y1="939.0234" y2="939.0234"/><polygon fill="#202020" points="983,935.0234,973,939.0234,983,943.0234" style="stroke:#202020;stroke-width:1.0;"/><text fill="#000000" font-family="Inter" font-size="13" font-weight="bold" lengthAdjust="spacing" textLength="18" x="979" y="920.9575">14</text><text fill="#000000" font-family="Inter" font-size="13" lengthAdjust="spacing" textLength="46" x="1001" y="920.9575">Display</text><text fill="#000000" font-family="Inter" font-size="13" lengthAdjust="spacing" textLength="4" x="1047" y="920.9575">&#160;</text><text fill="#000000" font-family="Inter" font-size="13" lengthAdjust="spacing" textLength="60" x="1051" y="920.9575">signature</text><text fill="#000000" font-family="Inter" font-size="13" lengthAdjust="spacing" textLength="4" x="1111" y="920.9575">&#160;</text><text fill="#000000" font-family="Inter" font-size="13" lengthAdjust="spacing" textLength="13" x="1115" y="920.9575">UI</text><path d="M868,955.5234 L868,973.5234 A3.5,3.5 0 0 0 871.5,977.0234 L1061.5,977.0234 A3.5,3.5 0 0 0 1065,973.5234 L1065,962.0234 L1055,952.0234 L871.5,952.0234 A3.5,3.5 0 0 0 868,955.5234 " fill="#DFDFDF" style="stroke:#202020;stroke-width:1.5;"/><path d="M1055,952.0234 L1055,960.2734 A1.75,1.75 0 0 0 1056.75,962.0234 L1065,962.0234 L1055,952.0234 " fill="#DFDFDF" style="stroke:#202020;stroke-width:1.5;"/><text fill="#202020" font-family="Inter" font-size="13" lengthAdjust="spacing" textLength="176" x="874" y="969.0903">User enters the PIN 2 code.</text><polygon fill="#202020" points="767,999.2891,757,1003.2891,767,1007.2891" style="stroke:#202020;stroke-width:1.0;"/><line style="stroke:#202020;stroke-width:1.0;" x1="761" x2="961" y1="1003.2891" y2="1003.2891"/><text fill="#000000" font-family="Inter" font-size="13" font-weight="bold" lengthAdjust="spacing" textLength="18" x="812" y="998.2231">15</text><text fill="#000000" font-family="monospace" font-size="13" lengthAdjust="spacing" textLength="72" x="834" y="998.2231">signature</text><path d="M76.5,1018.2891 L143,1018.2891 L143,1025.4219 L133,1035.4219 L73,1035.4219 L73,1021.7891 A3.5,3.5 0 0 1 76.5,1018.2891 " fill="#EEEEEE" style="stroke:#989898;stroke-width:1.5;"/><rect fill="none" height="117.5313" rx="3.5" ry="3.5" style="stroke:#989898;stroke-width:1.0;" width="924.5" x="73" y="1018.2891"/><text fill="#202020" font-family="Inter" font-size="13" font-weight="bold" lengthAdjust="spacing" textLength="25" x="88" y="1031.356">opt</text><text fill="#989898" font-family="Inter" font-size="11" font-weight="bold" lengthAdjust="spacing" textLength="306" x="158" y="1030.4995">[Same-device use-case (Web2App or App2App)]</text><polygon fill="#202020" points="147,1052.5547,137,1056.5547,147,1060.5547" style="stroke:#202020;stroke-width:1.0;"/><line style="stroke:#202020;stroke-width:1.0;" x1="141" x2="966" y1="1056.5547" y2="1056.5547"/><text fill="#000000" font-family="Inter" font-size="13" font-weight="bold" lengthAdjust="spacing" textLength="18" x="448" y="1051.4888">16</text><text fill="#000000" font-family="Inter" font-size="13" lengthAdjust="spacing" textLength="52" x="470" y="1051.4888">Redirect</text><text fill="#000000" font-family="Inter" font-size="13" lengthAdjust="spacing" textLength="4" x="522" y="1051.4888">&#160;</text><text fill="#000000" font-family="Inter" font-size="13" lengthAdjust="spacing" textLength="28" x="526" y="1051.4888">user</text><text fill="#000000" font-family="Inter" font-size="13" lengthAdjust="spacing" textLength="4" x="554" y="1051.4888">&#160;</text><text fill="#000000" font-family="Inter" font-size="13" lengthAdjust="spacing" textLength="13" x="558" y="1051.4888">to</text><text fill="#000000" font-family="Inter" font-size="13" lengthAdjust="spacing" textLength="4" x="571" y="1051.4888">&#160;</text><text fill="#000000" font-family="Inter" font-size="13" lengthAdjust="spacing" textLength="51" x="575" y="1051.4888">callback</text><text fill="#000000" font-family="Inter" font-size="13" lengthAdjust="spacing" textLength="4" x="626" y="1051.4888">&#160;</text><text fill="#000000" font-family="Inter" font-size="13" lengthAdjust="spacing" textLength="25" x="630" y="1051.4888">URL</text><polygon fill="#202020" points="348,1081.6875,358,1085.6875,348,1089.6875" style="stroke:#202020;stroke-width:1.0;"/><line style="stroke:#202020;stroke-width:1.0;" x1="136" x2="354" y1="1085.6875" y2="1085.6875"/><text fill="#000000" font-family="Inter" font-size="13" font-weight="bold" lengthAdjust="spacing" textLength="18" x="151" y="1080.6216">17</text><text fill="#000000" font-family="Inter" font-size="13" lengthAdjust="spacing" textLength="52" x="173" y="1080.6216">Request</text><text fill="#000000" font-family="Inter" font-size="13" lengthAdjust="spacing" textLength="4" x="225" y="1080.6216">&#160;</text><text fill="#000000" font-family="Inter" font-size="13" lengthAdjust="spacing" textLength="51" x="229" y="1080.6216">callback</text><text fill="#000000" font-family="Inter" font-size="13" lengthAdjust="spacing" textLength="4" x="280" y="1080.6216">&#160;</text><text fill="#000000" font-family="Inter" font-size="13" lengthAdjust="spacing" textLength="61" x="284" y="1080.6216">validation</text><line style="stroke:#202020;stroke-width:1.0;" x1="370" x2="412" y1="1114.8203" y2="1114.8203"/><line style="stroke:#202020;stroke-width:1.0;" x1="412" x2="412" y1="1114.8203" y2="1127.8203"/><line style="stroke:#202020;stroke-width:1.0;" x1="371" x2="412" y1="1127.8203" y2="1127.8203"/><polygon fill="#202020" points="381,1123.8203,371,1127.8203,381,1131.8203" style="stroke:#202020;stroke-width:1.0;"/><text fill="#000000" font-family="Inter" font-size="13" font-weight="bold" lengthAdjust="spacing" textLength="18" x="377" y="1109.7544">18</text><text fill="#000000" font-family="Inter" font-size="13" lengthAdjust="spacing" textLength="52" x="399" y="1109.7544">Validate</text><text fill="#000000" font-family="Inter" font-size="13" lengthAdjust="spacing" textLength="4" x="451" y="1109.7544">&#160;</text><text fill="#000000" font-family="Inter" font-size="13" lengthAdjust="spacing" textLength="51" x="455" y="1109.7544">callback</text><path d="M300,1149.8203 L373.5,1149.8203 L373.5,1156.9531 L363.5,1166.9531 L296.5,1166.9531 L296.5,1153.3203 A3.5,3.5 0 0 1 300,1149.8203 " fill="#EEEEEE" style="stroke:#989898;stroke-width:1.5;"/><rect fill="none" height="194.4063" rx="3.5" ry="3.5" style="stroke:#989898;stroke-width:1.0;" width="503.5" x="296.5" y="1149.8203"/><text fill="#202020" font-family="Inter" font-size="13" font-weight="bold" lengthAdjust="spacing" textLength="32" x="311.5" y="1162.8872">loop</text><text fill="#989898" font-family="Inter" font-size="11" font-weight="bold" lengthAdjust="spacing" textLength="227" x="388.5" y="1162.0308">[until signature completed or error]</text><polygon fill="#202020" points="734,1184.0859,744,1188.0859,734,1192.0859" style="stroke:#202020;stroke-width:1.0;"/><line style="stroke:#202020;stroke-width:1.0;" x1="370" x2="740" y1="1188.0859" y2="1188.0859"/><text fill="#000000" font-family="Inter" font-size="13" font-weight="bold" lengthAdjust="spacing" textLength="18" x="439" y="1183.02">19</text><text fill="#000000" font-family="monospace" font-size="13" lengthAdjust="spacing" textLength="24" x="461" y="1183.02">GET</text><text fill="#000000" font-family="monospace" font-size="13" lengthAdjust="spacing" textLength="8" x="485" y="1183.02">&#160;</text><text fill="#000000" font-family="monospace" font-size="13" lengthAdjust="spacing" textLength="184" x="493" y="1183.02">/v3/session/{sessionID}</text><path d="M310,1203.0859 L370.5,1203.0859 L370.5,1210.2188 L360.5,1220.2188 L306.5,1220.2188 L306.5,1206.5859 A3.5,3.5 0 0 1 310,1203.0859 " fill="#EEEEEE" style="stroke:#989898;stroke-width:1.5;"/><rect fill="none" height="134.1406" rx="3.5" ry="3.5" style="stroke:#989898;stroke-width:1.0;" width="483.5" x="306.5" y="1203.0859"/><text fill="#202020" font-family="Inter" font-size="13" font-weight="bold" lengthAdjust="spacing" textLength="19" x="321.5" y="1216.1528">alt</text><text fill="#989898" font-family="Inter" font-size="11" font-weight="bold" lengthAdjust="spacing" textLength="127" x="385.5" y="1215.2964">[signature pending]</text><polygon fill="#202020" points="381,1220.2188,371,1224.2188,381,1228.2188" style="stroke:#202020;stroke-width:1.0;"/><line style="stroke:#202020;stroke-width:1.0;stroke-dasharray:2.0,2.0;" x1="375" x2="745" y1="1224.2188" y2="1224.2188"/><text fill="#000000" font-family="Inter" font-size="13" font-weight="bold" lengthAdjust="spacing" textLength="18" x="491" y="1237.2856">20</text><text fill="#000000" font-family="monospace" font-size="13" lengthAdjust="spacing" textLength="56" x="513" y="1237.2856">session</text><text fill="#000000" font-family="monospace" font-size="13" lengthAdjust="spacing" textLength="8" x="569" y="1237.2856">&#160;</text><text fill="#000000" font-family="monospace" font-size="13" lengthAdjust="spacing" textLength="48" x="577" y="1237.2856">status</text><line style="stroke:#989898;stroke-width:1.0;stroke-dasharray:2.0,2.0;" x1="306.5" x2="790" y1="1250.3516" y2="1250.3516"/><text fill="#989898" font-family="Inter" font-size="11" font-weight="bold" lengthAdjust="spacing" textLength="121" x="311.5" y="1260.562">[error (or timeout)]</text><polygon fill="#202020" points="381,1264.1563,371,1268.1563,381,1272.1563" style="stroke:#202020;stroke-width:1.0;"/><line style="stroke:#202020;stroke-width:1.0;stroke-dasharray:2.0,2.0;" x1="375" x2="745" y1="1268.1563" y2="1268.1563"/><text fill="#000000" font-family="Inter" font-size="13" font-weight="bold" lengthAdjust="spacing" textLength="18" x="527" y="1281.2231">21</text><text fill="#000000" font-family="monospace" font-size="13" lengthAdjust="spacing" textLength="40" x="549" y="1281.2231">error</text><line style="stroke:#989898;stroke-width:1.0;stroke-dasharray:2.0,2.0;" x1="306.5" x2="790" y1="1294.2891" y2="1294.2891"/><text fill="#989898" font-family="Inter" font-size="11" font-weight="bold" lengthAdjust="spacing" textLength="142" x="311.5" y="1304.4995">[signature completed]</text><polygon fill="#202020" points="381,1308.0938,371,1312.0938,381,1316.0938" style="stroke:#202020;stroke-width:1.0;"/><line style="stroke:#202020;stroke-width:1.0;stroke-dasharray:2.0,2.0;" x1="375" x2="750" y1="1312.0938" y2="1312.0938"/><text fill="#000000" font-family="Inter" font-size="13" font-weight="bold" lengthAdjust="spacing" textLength="18" x="525.5" y="1325.1606">22</text><text fill="#000000" font-family="monospace" font-size="13" lengthAdjust="spacing" textLength="48" x="547.5" y="1325.1606">result</text><line style="stroke:#202020;stroke-width:1.0;" x1="370" x2="412" y1="1372.3594" y2="1372.3594"/><line style="stroke:#202020;stroke-width:1.0;" x1="412" x2="412" y1="1372.3594" y2="1385.3594"/><line style="stroke:#202020;stroke-width:1.0;" x1="371" x2="412" y1="1385.3594" y2="1385.3594"/><polygon fill="#202020" points="381,1381.3594,371,1385.3594,381,1389.3594" style="stroke:#202020;stroke-width:1.0;"/><text fill="#000000" font-family="Inter" font-size="13" font-weight="bold" lengthAdjust="spacing" textLength="18" x="377" y="1367.2935">23</text><text fill="#000000" font-family="Inter" font-size="13" lengthAdjust="spacing" textLength="51" x="399" y="1367.2935">Perform</text><text fill="#000000" font-family="Inter" font-size="13" lengthAdjust="spacing" textLength="4" x="450" y="1367.2935">&#160;</text><text fill="#000000" font-family="Inter" font-size="13" lengthAdjust="spacing" textLength="59" x="454" y="1367.2935">response</text><text fill="#000000" font-family="Inter" font-size="13" lengthAdjust="spacing" textLength="4" x="513" y="1367.2935">&#160;</text><text fill="#000000" font-family="Inter" font-size="13" lengthAdjust="spacing" textLength="69" x="517" y="1367.2935">verification</text><polygon fill="#202020" points="147,1393.3594,137,1397.3594,147,1401.3594" style="stroke:#202020;stroke-width:1.0;"/><line style="stroke:#202020;stroke-width:1.0;stroke-dasharray:2.0,2.0;" x1="141" x2="359" y1="1397.3594" y2="1397.3594"/><text fill="#000000" font-family="Inter" font-size="13" font-weight="bold" lengthAdjust="spacing" textLength="18" x="177.5" y="1410.4263">24</text><text fill="#000000" font-family="Inter" font-size="13" lengthAdjust="spacing" textLength="47" x="199.5" y="1410.4263">Signing</text><text fill="#000000" font-family="Inter" font-size="13" lengthAdjust="spacing" textLength="4" x="246.5" y="1410.4263">&#160;</text><text fill="#000000" font-family="Inter" font-size="13" lengthAdjust="spacing" textLength="68" x="250.5" y="1410.4263">completed</text></g></svg>