<?xml version="1.0" encoding="us-ascii" standalone="no"?><svg xmlns="http://www.w3.org/2000/svg" xmlns:xlink="http://www.w3.org/1999/xlink" contentStyleType="text/css" height="738px" preserveAspectRatio="none" style="width:969px;height:738px;" version="1.1" viewBox="0 0 969 738" width="969px" zoomAndPan="magnify"><defs/><g><text fill="#000000" font-family="Inter" font-size="14" font-weight="bold" lengthAdjust="spacing" textLength="247" x="359.5" y="27.9951">Notification Based Signing Flow</text><rect fill="#D2E4F4" height="639.2656" style="stroke:#989898;stroke-width:1.0;" width="10" x="126" y="83.5938"/><rect fill="#D2E4F4" height="639.2656" style="stroke:#989898;stroke-width:1.0;" width="10" x="285" y="83.5938"/><rect fill="#D2E4F4" height="434.3359" style="stroke:#989898;stroke-width:1.0;" width="10" x="607" y="184.125"/><rect fill="none" height="265.6719" rx="3.5" ry="3.5" style="stroke:#989898;stroke-width:1.0;" width="589" x="221.5" y="384.9219"/><rect fill="none" height="163.2734" rx="3.5" ry="3.5" style="stroke:#989898;stroke-width:1.0;" width="569" x="231.5" y="480.3203"/><line style="stroke:#989898;stroke-width:0.5;stroke-dasharray:5.0,5.0;" x1="131" x2="131" y1="73.5938" y2="731.8594"/><line style="stroke:#989898;stroke-width:0.5;stroke-dasharray:5.0,5.0;" x1="289.5" x2="289.5" y1="73.5938" y2="731.8594"/><line style="stroke:#989898;stroke-width:0.5;stroke-dasharray:5.0,5.0;" x1="612" x2="612" y1="73.5938" y2="731.8594"/><line style="stroke:#989898;stroke-width:0.5;stroke-dasharray:5.0,5.0;" x1="769.5" x2="769.5" y1="73.5938" y2="731.8594"/><rect fill="#A5C8E8" height="30.2969" rx="3.5" ry="3.5" style="stroke:#202020;stroke-width:1.5;" width="96" x="83" y="42.2969"/><text fill="#202020" font-family="Inter" font-size="14" lengthAdjust="spacing" textLength="82" x="90" y="62.292">RP frontend</text><rect fill="#A5C8E8" height="30.2969" rx="3.5" ry="3.5" style="stroke:#202020;stroke-width:1.5;" width="97" x="241.5" y="42.2969"/><text fill="#202020" font-family="Inter" font-size="14" lengthAdjust="spacing" textLength="83" x="248.5" y="62.292">RP backend</text><rect fill="#A5C8E8" height="30.2969" rx="3.5" ry="3.5" style="stroke:#202020;stroke-width:1.5;" width="58" x="583" y="42.2969"/><text fill="#202020" font-family="Inter" font-size="14" lengthAdjust="spacing" textLength="44" x="590" y="62.292">RP API</text><rect fill="#A5C8E8" height="30.2969" rx="3.5" ry="3.5" style="stroke:#202020;stroke-width:1.5;" width="41" x="749.5" y="42.2969"/><text fill="#202020" font-family="Inter" font-size="14" lengthAdjust="spacing" textLength="27" x="756.5" y="62.292">App</text><rect fill="#D2E4F4" height="639.2656" style="stroke:#989898;stroke-width:1.0;" width="10" x="126" y="83.5938"/><rect fill="#D2E4F4" height="639.2656" style="stroke:#989898;stroke-width:1.0;" width="10" x="285" y="83.5938"/><rect fill="#D2E4F4" height="434.3359" style="stroke:#989898;stroke-width:1.0;" width="10" x="607" y="184.125"/><path d="M5,92.0938 L5,125.0938 A3.5,3.5 0 0 0 8.5,128.5938 L253.5,128.5938 A3.5,3.5 0 0 0 257,125.0938 L257,98.5938 L247,88.5938 L8.5,88.5938 A3.5,3.5 0 0 0 5,92.0938 " fill="#DFDFDF" style="stroke:#202020;stroke-width:1.5;"/><path d="M247,88.5938 L247,96.8438 A1.75,1.75 0 0 0 248.75,98.5938 L257,98.5938 L247,88.5938 " fill="#DFDFDF" style="stroke:#202020;stroke-width:1.5;"/><text fill="#202020" font-family="Inter" font-size="13" lengthAdjust="spacing" textLength="231" x="11" y="105.6606">User initiates signing on RP frontend</text><text fill="#202020" font-family="Inter" font-size="13" lengthAdjust="spacing" textLength="154" x="11" y="120.7935">(website or mobile app).</text><polygon fill="#202020" points="273,150.9922,283,154.9922,273,158.9922" style="stroke:#202020;stroke-width:1.0;"/><line style="stroke:#202020;stroke-width:1.0;" x1="136" x2="279" y1="154.9922" y2="154.9922"/><text fill="#000000" font-family="Inter" font-size="13" font-weight="bold" lengthAdjust="spacing" textLength="9" x="154.5" y="149.9263">1</text><text fill="#000000" font-family="Inter" font-size="13" lengthAdjust="spacing" textLength="52" x="167.5" y="149.9263">Request</text><text fill="#000000" font-family="Inter" font-size="13" lengthAdjust="spacing" textLength="4" x="219.5" y="149.9263">&#160;</text><text fill="#000000" font-family="Inter" font-size="13" lengthAdjust="spacing" textLength="13" x="223.5" y="149.9263">to</text><text fill="#000000" font-family="Inter" font-size="13" lengthAdjust="spacing" textLength="4" x="236.5" y="149.9263">&#160;</text><text fill="#000000" font-family="Inter" font-size="13" lengthAdjust="spacing" textLength="26" x="240.5" y="149.9263">sign</text><polygon fill="#202020" points="595,180.125,605,184.125,595,188.125" style="stroke:#202020;stroke-width:1.0;"/><line style="stroke:#202020;stroke-width:1.0;" x1="295" x2="601" y1="184.125" y2="184.125"/><text fill="#000000" font-family="Inter" font-size="13" font-weight="bold" lengthAdjust="spacing" textLength="9" x="304.5" y="179.0591">2</text><text fill="#000000" font-family="monospace" font-size="13" lengthAdjust="spacing" textLength="32" x="317.5" y="179.0591">POST</text><text fill="#000000" font-family="monospace" font-size="13" lengthAdjust="spacing" textLength="8" x="349.5" y="179.0591">&#160;</text><text fill="#000000" font-family="monospace" font-size="13" lengthAdjust="spacing" textLength="240" x="357.5" y="179.0591">/v3/signature/notification/...</text><polygon fill="#202020" points="306,192.125,296,196.125,306,200.125" style="stroke:#202020;stroke-width:1.0;"/><line style="stroke:#202020;stroke-width:1.0;stroke-dasharray:2.0,2.0;" x1="300" x2="606" y1="196.125" y2="196.125"/><text fill="#000000" font-family="Inter" font-size="13" font-weight="bold" lengthAdjust="spacing" textLength="9" x="396.5" y="209.1919">3</text><text fill="#000000" font-family="monospace" font-size="13" lengthAdjust="spacing" textLength="72" x="409.5" y="209.1919">sessionID</text><text fill="#000000" font-family="Inter" font-size="13" lengthAdjust="spacing" textLength="4" x="481.5" y="209.1919">,</text><text fill="#000000" font-family="Inter" font-size="13" lengthAdjust="spacing" textLength="4" x="485.5" y="209.1919">&#160;</text><text fill="#000000" font-family="monospace" font-size="13" lengthAdjust="spacing" textLength="16" x="489.5" y="209.1919">vc</text><polygon fill="#202020" points="758,238.3906,768,242.3906,758,246.3906" style="stroke:#202020;stroke-width:1.0;"/><line style="stroke:#202020;stroke-width:1.0;" x1="617" x2="764" y1="242.3906" y2="242.3906"/><text fill="#000000" font-family="Inter" font-size="13" font-weight="bold" lengthAdjust="spacing" textLength="9" x="629" y="237.3247">4</text><text fill="#000000" font-family="Inter" font-size="13" lengthAdjust="spacing" textLength="52" x="642" y="237.3247">Request</text><text fill="#000000" font-family="Inter" font-size="13" lengthAdjust="spacing" textLength="4" x="694" y="237.3247">&#160;</text><text fill="#000000" font-family="Inter" font-size="13" lengthAdjust="spacing" textLength="60" x="698" y="237.3247">signature</text><path d="M584,258.8906 L584,276.8906 A3.5,3.5 0 0 0 587.5,280.3906 L951.5,280.3906 A3.5,3.5 0 0 0 955,276.8906 L955,265.3906 L945,255.3906 L587.5,255.3906 A3.5,3.5 0 0 0 584,258.8906 " fill="#DFDFDF" style="stroke:#202020;stroke-width:1.5;"/><path d="M945,255.3906 L945,263.6406 A1.75,1.75 0 0 0 946.75,265.3906 L955,265.3906 L945,255.3906 " fill="#DFDFDF" style="stroke:#202020;stroke-width:1.5;"/><text fill="#202020" font-family="Inter" font-size="13" lengthAdjust="spacing" textLength="350" x="590" y="272.4575">RP API provides the VC code(s) to be shown in the app.</text><line style="stroke:#202020;stroke-width:1.0;" x1="770" x2="812" y1="306.6563" y2="306.6563"/><line style="stroke:#202020;stroke-width:1.0;" x1="812" x2="812" y1="306.6563" y2="319.6563"/><line style="stroke:#202020;stroke-width:1.0;" x1="771" x2="812" y1="319.6563" y2="319.6563"/><polygon fill="#202020" points="781,315.6563,771,319.6563,781,323.6563" style="stroke:#202020;stroke-width:1.0;"/><text fill="#000000" font-family="Inter" font-size="13" font-weight="bold" lengthAdjust="spacing" textLength="9" x="777" y="301.5903">5</text><text fill="#000000" font-family="Inter" font-size="13" lengthAdjust="spacing" textLength="46" x="790" y="301.5903">Display</text><text fill="#000000" font-family="Inter" font-size="13" lengthAdjust="spacing" textLength="4" x="836" y="301.5903">&#160;</text><text fill="#000000" font-family="Inter" font-size="13" lengthAdjust="spacing" textLength="60" x="840" y="301.5903">signature</text><text fill="#000000" font-family="Inter" font-size="13" lengthAdjust="spacing" textLength="4" x="900" y="301.5903">&#160;</text><text fill="#000000" font-family="Inter" font-size="13" lengthAdjust="spacing" textLength="13" x="904" y="301.5903">UI</text><path d="M577,336.1563 L577,369.1563 A3.5,3.5 0 0 0 580.5,372.6563 L958.5,372.6563 A3.5,3.5 0 0 0 962,369.1563 L962,342.6563 L952,332.6563 L580.5,332.6563 A3.5,3.5 0 0 0 577,336.1563 " fill="#DFDFDF" style="stroke:#202020;stroke-width:1.5;"/><path d="M952,332.6563 L952,340.9063 A1.75,1.75 0 0 0 953.75,342.6563 L962,342.6563 L952,332.6563 " fill="#DFDFDF" style="stroke:#202020;stroke-width:1.5;"/><text fill="#202020" font-family="Inter" font-size="13" lengthAdjust="spacing" textLength="321" x="583" y="349.7231">Based on the interaction type, User might need to</text><text fill="#202020" font-family="Inter" font-size="13" lengthAdjust="spacing" textLength="364" x="583" y="364.856">pick a verification code first before entering the PIN code.</text><path d="M225,384.9219 L298.5,384.9219 L298.5,392.0547 L288.5,402.0547 L221.5,402.0547 L221.5,388.4219 A3.5,3.5 0 0 1 225,384.9219 " fill="#EEEEEE" style="stroke:#989898;stroke-width:1.5;"/><rect fill="none" height="265.6719" rx="3.5" ry="3.5" style="stroke:#989898;stroke-width:1.0;" width="589" x="221.5" y="384.9219"/><text fill="#202020" font-family="Inter" font-size="13" font-weight="bold" lengthAdjust="spacing" textLength="32" x="236.5" y="397.9888">loop</text><text fill="#989898" font-family="Inter" font-size="11" font-weight="bold" lengthAdjust="spacing" textLength="227" x="313.5" y="397.1323">[until signature completed or error]</text><polygon fill="#202020" points="595,419.1875,605,423.1875,595,427.1875" style="stroke:#202020;stroke-width:1.0;"/><line style="stroke:#202020;stroke-width:1.0;" x1="295" x2="601" y1="423.1875" y2="423.1875"/><text fill="#000000" font-family="Inter" font-size="13" font-weight="bold" lengthAdjust="spacing" textLength="9" x="356.5" y="418.1216">6</text><text fill="#000000" font-family="monospace" font-size="13" lengthAdjust="spacing" textLength="24" x="369.5" y="418.1216">GET</text><text fill="#000000" font-family="monospace" font-size="13" lengthAdjust="spacing" textLength="8" x="393.5" y="418.1216">&#160;</text><text fill="#000000" font-family="monospace" font-size="13" lengthAdjust="spacing" textLength="144" x="401.5" y="418.1216">session/:sessionID</text><line style="stroke:#202020;stroke-width:1.0;" x1="617" x2="659" y1="452.3203" y2="452.3203"/><line style="stroke:#202020;stroke-width:1.0;" x1="659" x2="659" y1="452.3203" y2="465.3203"/><line style="stroke:#202020;stroke-width:1.0;" x1="618" x2="659" y1="465.3203" y2="465.3203"/><polygon fill="#202020" points="628,461.3203,618,465.3203,628,469.3203" style="stroke:#202020;stroke-width:1.0;"/><text fill="#000000" font-family="Inter" font-size="13" font-weight="bold" lengthAdjust="spacing" textLength="9" x="624" y="447.2544">7</text><text fill="#000000" font-family="Inter" font-size="13" lengthAdjust="spacing" textLength="22" x="637" y="447.2544">Poll</text><path d="M235,480.3203 L295.5,480.3203 L295.5,487.4531 L285.5,497.4531 L231.5,497.4531 L231.5,483.8203 A3.5,3.5 0 0 1 235,480.3203 " fill="#EEEEEE" style="stroke:#989898;stroke-width:1.5;"/><rect fill="none" height="163.2734" rx="3.5" ry="3.5" style="stroke:#989898;stroke-width:1.0;" width="569" x="231.5" y="480.3203"/><text fill="#202020" font-family="Inter" font-size="13" font-weight="bold" lengthAdjust="spacing" textLength="19" x="246.5" y="493.3872">alt</text><text fill="#989898" font-family="Inter" font-size="11" font-weight="bold" lengthAdjust="spacing" textLength="127" x="310.5" y="492.5308">[signature pending]</text><polygon fill="#202020" points="306,497.4531,296,501.4531,306,505.4531" style="stroke:#202020;stroke-width:1.0;"/><line style="stroke:#202020;stroke-width:1.0;stroke-dasharray:2.0,2.0;" x1="300" x2="606" y1="501.4531" y2="501.4531"/><text fill="#000000" font-family="Inter" font-size="13" font-weight="bold" lengthAdjust="spacing" textLength="9" x="388.5" y="514.52">8</text><text fill="#000000" font-family="monospace" font-size="13" lengthAdjust="spacing" textLength="56" x="401.5" y="514.52">session</text><text fill="#000000" font-family="monospace" font-size="13" lengthAdjust="spacing" textLength="8" x="457.5" y="514.52">&#160;</text><text fill="#000000" font-family="monospace" font-size="13" lengthAdjust="spacing" textLength="48" x="465.5" y="514.52">status</text><line style="stroke:#989898;stroke-width:1.0;stroke-dasharray:2.0,2.0;" x1="231.5" x2="800.5" y1="527.5859" y2="527.5859"/><text fill="#989898" font-family="Inter" font-size="11" font-weight="bold" lengthAdjust="spacing" textLength="121" x="236.5" y="537.7964">[error (or timeout)]</text><polygon fill="#202020" points="306,541.3906,296,545.3906,306,549.3906" style="stroke:#202020;stroke-width:1.0;"/><line style="stroke:#202020;stroke-width:1.0;stroke-dasharray:2.0,2.0;" x1="300" x2="606" y1="545.3906" y2="545.3906"/><text fill="#000000" font-family="Inter" font-size="13" font-weight="bold" lengthAdjust="spacing" textLength="9" x="424.5" y="558.4575">9</text><text fill="#000000" font-family="monospace" font-size="13" lengthAdjust="spacing" textLength="40" x="437.5" y="558.4575">error</text><line style="stroke:#989898;stroke-width:1.0;stroke-dasharray:2.0,2.0;" x1="231.5" x2="800.5" y1="571.5234" y2="571.5234"/><text fill="#989898" font-family="Inter" font-size="11" font-weight="bold" lengthAdjust="spacing" textLength="142" x="236.5" y="581.7339">[signature completed]</text><polygon fill="#202020" points="628,602.4609,618,606.4609,628,610.4609" style="stroke:#202020;stroke-width:1.0;"/><line style="stroke:#202020;stroke-width:1.0;" x1="622" x2="769" y1="606.4609" y2="606.4609"/><text fill="#000000" font-family="Inter" font-size="13" font-weight="bold" lengthAdjust="spacing" textLength="18" x="651.5" y="601.395">10</text><text fill="#000000" font-family="Inter" font-size="13" lengthAdjust="spacing" textLength="62" x="673.5" y="601.395">Signature</text><polygon fill="#202020" points="306,614.4609,296,618.4609,306,622.4609" style="stroke:#202020;stroke-width:1.0;"/><line style="stroke:#202020;stroke-width:1.0;stroke-dasharray:2.0,2.0;" x1="300" x2="611" y1="618.4609" y2="618.4609"/><text fill="#000000" font-family="Inter" font-size="13" font-weight="bold" lengthAdjust="spacing" textLength="18" x="406.5" y="631.5278">11</text><text fill="#000000" font-family="monospace" font-size="13" lengthAdjust="spacing" textLength="72" x="428.5" y="631.5278">signature</text><path d="M45,666.0938 L45,684.0938 A3.5,3.5 0 0 0 48.5,687.5938 L530.5,687.5938 A3.5,3.5 0 0 0 534,684.0938 L534,672.5938 L524,662.5938 L48.5,662.5938 A3.5,3.5 0 0 0 45,666.0938 " fill="#DFDFDF" style="stroke:#202020;stroke-width:1.5;"/><path d="M524,662.5938 L524,670.8438 A1.75,1.75 0 0 0 525.75,672.5938 L534,672.5938 L524,662.5938 " fill="#DFDFDF" style="stroke:#202020;stroke-width:1.5;"/><text fill="#202020" font-family="Inter" font-size="13" lengthAdjust="spacing" textLength="468" x="51" y="679.6606">RP receives the signature and verifies that the provided signature is valid.</text><polygon fill="#202020" points="147,692.7266,137,696.7266,147,700.7266" style="stroke:#202020;stroke-width:1.0;"/><line style="stroke:#202020;stroke-width:1.0;stroke-dasharray:2.0,2.0;" x1="141" x2="284" y1="696.7266" y2="696.7266"/><text fill="#000000" font-family="Inter" font-size="13" font-weight="bold" lengthAdjust="spacing" textLength="18" x="148" y="709.7935">12</text><text fill="#000000" font-family="Inter" font-size="13" lengthAdjust="spacing" textLength="30" x="170" y="709.7935">User</text><text fill="#000000" font-family="Inter" font-size="13" lengthAdjust="spacing" textLength="4" x="200" y="709.7935">&#160;</text><text fill="#000000" font-family="Inter" font-size="13" lengthAdjust="spacing" textLength="23" x="204" y="709.7935">has</text><text fill="#000000" font-family="Inter" font-size="13" lengthAdjust="spacing" textLength="4" x="227" y="709.7935">&#160;</text><text fill="#000000" font-family="Inter" font-size="13" lengthAdjust="spacing" textLength="42" x="231" y="709.7935">signed</text></g></svg>