<?xml version="1.0" encoding="us-ascii" standalone="no"?><svg xmlns="http://www.w3.org/2000/svg" xmlns:xlink="http://www.w3.org/1999/xlink" contentStyleType="text/css" height="810px" preserveAspectRatio="none" style="width:1086px;height:810px;" version="1.1" viewBox="0 0 1086 810" width="1086px" zoomAndPan="magnify"><defs/><g><text fill="#000000" font-family="Inter" font-size="14" font-weight="bold" lengthAdjust="spacing" textLength="304" x="389.5" y="27.9951">Notification Based Authentication Flow</text><rect fill="#D2E4F4" height="710.5313" style="stroke:#989898;stroke-width:1.0;" width="10" x="137" y="83.5938"/><rect fill="#D2E4F4" height="710.5313" style="stroke:#989898;stroke-width:1.0;" width="10" x="330" y="83.5938"/><rect fill="#D2E4F4" height="434.3359" style="stroke:#989898;stroke-width:1.0;" width="10" x="692" y="255.3906"/><rect fill="none" height="265.6719" rx="3.5" ry="3.5" style="stroke:#989898;stroke-width:1.0;" width="661" x="266.5" y="456.1875"/><rect fill="none" height="163.2734" rx="3.5" ry="3.5" style="stroke:#989898;stroke-width:1.0;" width="641" x="276.5" y="551.5859"/><line style="stroke:#989898;stroke-width:0.5;stroke-dasharray:5.0,5.0;" x1="142" x2="142" y1="73.5938" y2="803.125"/><line style="stroke:#989898;stroke-width:0.5;stroke-dasharray:5.0,5.0;" x1="334.5" x2="334.5" y1="73.5938" y2="803.125"/><line style="stroke:#989898;stroke-width:0.5;stroke-dasharray:5.0,5.0;" x1="697" x2="697" y1="73.5938" y2="803.125"/><line style="stroke:#989898;stroke-width:0.5;stroke-dasharray:5.0,5.0;" x1="886.5" x2="886.5" y1="73.5938" y2="803.125"/><rect fill="#A5C8E8" height="30.2969" rx="3.5" ry="3.5" style="stroke:#202020;stroke-width:1.5;" width="96" x="94" y="42.2969"/><text fill="#202020" font-family="Inter" font-size="14" lengthAdjust="spacing" textLength="82" x="101" y="62.292">RP frontend</text><rect fill="#A5C8E8" height="30.2969" rx="3.5" ry="3.5" style="stroke:#202020;stroke-width:1.5;" width="97" x="286.5" y="42.2969"/><text fill="#202020" font-family="Inter" font-size="14" lengthAdjust="spacing" textLength="83" x="293.5" y="62.292">RP backend</text><rect fill="#A5C8E8" height="30.2969" rx="3.5" ry="3.5" style="stroke:#202020;stroke-width:1.5;" width="58" x="668" y="42.2969"/><text fill="#202020" font-family="Inter" font-size="14" lengthAdjust="spacing" textLength="44" x="675" y="62.292">RP API</text><rect fill="#A5C8E8" height="30.2969" rx="3.5" ry="3.5" style="stroke:#202020;stroke-width:1.5;" width="41" x="866.5" y="42.2969"/><text fill="#202020" font-family="Inter" font-size="14" lengthAdjust="spacing" textLength="27" x="873.5" y="62.292">App</text><rect fill="#D2E4F4" height="710.5313" style="stroke:#989898;stroke-width:1.0;" width="10" x="137" y="83.5938"/><rect fill="#D2E4F4" height="710.5313" style="stroke:#989898;stroke-width:1.0;" width="10" x="330" y="83.5938"/><rect fill="#D2E4F4" height="434.3359" style="stroke:#989898;stroke-width:1.0;" width="10" x="692" y="255.3906"/><path d="M5,92.0938 L5,125.0938 A3.5,3.5 0 0 0 8.5,128.5938 L275.5,128.5938 A3.5,3.5 0 0 0 279,125.0938 L279,98.5938 L269,88.5938 L8.5,88.5938 A3.5,3.5 0 0 0 5,92.0938 " fill="#DFDFDF" style="stroke:#202020;stroke-width:1.5;"/><path d="M269,88.5938 L269,96.8438 A1.75,1.75 0 0 0 270.75,98.5938 L279,98.5938 L269,88.5938 " fill="#DFDFDF" style="stroke:#202020;stroke-width:1.5;"/><text fill="#202020" font-family="Inter" font-size="13" lengthAdjust="spacing" textLength="253" x="11" y="105.6606">User initiates a login on the RP frontend</text><text fill="#202020" font-family="Inter" font-size="13" lengthAdjust="spacing" textLength="154" x="11" y="120.7935">(website or mobile app).</text><polygon fill="#202020" points="318,150.9922,328,154.9922,318,158.9922" style="stroke:#202020;stroke-width:1.0;"/><line style="stroke:#202020;stroke-width:1.0;" x1="147" x2="324" y1="154.9922" y2="154.9922"/><text fill="#000000" font-family="Inter" font-size="13" font-weight="bold" lengthAdjust="spacing" textLength="9" x="174.5" y="149.9263">1</text><text fill="#000000" font-family="Inter" font-size="13" lengthAdjust="spacing" textLength="52" x="187.5" y="149.9263">Request</text><text fill="#000000" font-family="Inter" font-size="13" lengthAdjust="spacing" textLength="4" x="239.5" y="149.9263">&#160;</text><text fill="#000000" font-family="Inter" font-size="13" lengthAdjust="spacing" textLength="25" x="243.5" y="149.9263">new</text><text fill="#000000" font-family="Inter" font-size="13" lengthAdjust="spacing" textLength="4" x="268.5" y="149.9263">&#160;</text><text fill="#000000" font-family="Inter" font-size="13" lengthAdjust="spacing" textLength="30" x="272.5" y="149.9263">login</text><line style="stroke:#202020;stroke-width:1.0;" x1="340" x2="382" y1="184.125" y2="184.125"/><line style="stroke:#202020;stroke-width:1.0;" x1="382" x2="382" y1="184.125" y2="197.125"/><line style="stroke:#202020;stroke-width:1.0;" x1="341" x2="382" y1="197.125" y2="197.125"/><polygon fill="#202020" points="351,193.125,341,197.125,351,201.125" style="stroke:#202020;stroke-width:1.0;"/><text fill="#000000" font-family="Inter" font-size="13" font-weight="bold" lengthAdjust="spacing" textLength="9" x="347" y="179.0591">2</text><text fill="#000000" font-family="Inter" font-size="13" lengthAdjust="spacing" textLength="59" x="360" y="179.0591">Calculate</text><text fill="#000000" font-family="Inter" font-size="13" lengthAdjust="spacing" textLength="4" x="419" y="179.0591">&#160;</text><text fill="#000000" font-family="monospace" font-size="13" lengthAdjust="spacing" textLength="16" x="423" y="179.0591">vc</text><polygon fill="#202020" points="158,205.125,148,209.125,158,213.125" style="stroke:#202020;stroke-width:1.0;"/><line style="stroke:#202020;stroke-width:1.0;stroke-dasharray:2.0,2.0;" x1="152" x2="329" y1="209.125" y2="209.125"/><text fill="#000000" font-family="Inter" font-size="13" font-weight="bold" lengthAdjust="spacing" textLength="9" x="224" y="222.1919">3</text><text fill="#000000" font-family="monospace" font-size="13" lengthAdjust="spacing" textLength="16" x="237" y="222.1919">vc</text><polygon fill="#202020" points="680,251.3906,690,255.3906,680,259.3906" style="stroke:#202020;stroke-width:1.0;"/><line style="stroke:#202020;stroke-width:1.0;" x1="340" x2="686" y1="255.3906" y2="255.3906"/><text fill="#000000" font-family="Inter" font-size="13" font-weight="bold" lengthAdjust="spacing" textLength="9" x="349.5" y="250.3247">4</text><text fill="#000000" font-family="monospace" font-size="13" lengthAdjust="spacing" textLength="32" x="362.5" y="250.3247">POST</text><text fill="#000000" font-family="monospace" font-size="13" lengthAdjust="spacing" textLength="8" x="394.5" y="250.3247">&#160;</text><text fill="#000000" font-family="monospace" font-size="13" lengthAdjust="spacing" textLength="280" x="402.5" y="250.3247">/v3/authentication/notification/...</text><polygon fill="#202020" points="351,263.3906,341,267.3906,351,271.3906" style="stroke:#202020;stroke-width:1.0;"/><line style="stroke:#202020;stroke-width:1.0;stroke-dasharray:2.0,2.0;" x1="345" x2="691" y1="267.3906" y2="267.3906"/><text fill="#000000" font-family="Inter" font-size="13" font-weight="bold" lengthAdjust="spacing" textLength="9" x="473.5" y="280.4575">5</text><text fill="#000000" font-family="monospace" font-size="13" lengthAdjust="spacing" textLength="72" x="486.5" y="280.4575">sessionID</text><polygon fill="#202020" points="875,309.6563,885,313.6563,875,317.6563" style="stroke:#202020;stroke-width:1.0;"/><line style="stroke:#202020;stroke-width:1.0;" x1="702" x2="881" y1="313.6563" y2="313.6563"/><text fill="#000000" font-family="Inter" font-size="13" font-weight="bold" lengthAdjust="spacing" textLength="9" x="714" y="308.5903">6</text><text fill="#000000" font-family="Inter" font-size="13" lengthAdjust="spacing" textLength="52" x="727" y="308.5903">Request</text><text fill="#000000" font-family="Inter" font-size="13" lengthAdjust="spacing" textLength="4" x="779" y="308.5903">&#160;</text><text fill="#000000" font-family="Inter" font-size="13" lengthAdjust="spacing" textLength="92" x="783" y="308.5903">authentication</text><path d="M701,330.1563 L701,348.1563 A3.5,3.5 0 0 0 704.5,351.6563 L1068.5,351.6563 A3.5,3.5 0 0 0 1072,348.1563 L1072,336.6563 L1062,326.6563 L704.5,326.6563 A3.5,3.5 0 0 0 701,330.1563 " fill="#DFDFDF" style="stroke:#202020;stroke-width:1.5;"/><path d="M1062,326.6563 L1062,334.9063 A1.75,1.75 0 0 0 1063.75,336.6563 L1072,336.6563 L1062,326.6563 " fill="#DFDFDF" style="stroke:#202020;stroke-width:1.5;"/><text fill="#202020" font-family="Inter" font-size="13" lengthAdjust="spacing" textLength="350" x="707" y="343.7231">RP API provides the VC code(s) to be shown in the app.</text><line style="stroke:#202020;stroke-width:1.0;" x1="887" x2="929" y1="377.9219" y2="377.9219"/><line style="stroke:#202020;stroke-width:1.0;" x1="929" x2="929" y1="377.9219" y2="390.9219"/><line style="stroke:#202020;stroke-width:1.0;" x1="888" x2="929" y1="390.9219" y2="390.9219"/><polygon fill="#202020" points="898,386.9219,888,390.9219,898,394.9219" style="stroke:#202020;stroke-width:1.0;"/><text fill="#000000" font-family="Inter" font-size="13" font-weight="bold" lengthAdjust="spacing" textLength="9" x="894" y="372.856">7</text><text fill="#000000" font-family="Inter" font-size="13" lengthAdjust="spacing" textLength="46" x="907" y="372.856">Display</text><text fill="#000000" font-family="Inter" font-size="13" lengthAdjust="spacing" textLength="4" x="953" y="372.856">&#160;</text><text fill="#000000" font-family="Inter" font-size="13" lengthAdjust="spacing" textLength="92" x="957" y="372.856">authentication</text><text fill="#000000" font-family="Inter" font-size="13" lengthAdjust="spacing" textLength="4" x="1049" y="372.856">&#160;</text><text fill="#000000" font-family="Inter" font-size="13" lengthAdjust="spacing" textLength="13" x="1053" y="372.856">UI</text><path d="M694,407.4219 L694,440.4219 A3.5,3.5 0 0 0 697.5,443.9219 L1075.5,443.9219 A3.5,3.5 0 0 0 1079,440.4219 L1079,413.9219 L1069,403.9219 L697.5,403.9219 A3.5,3.5 0 0 0 694,407.4219 " fill="#DFDFDF" style="stroke:#202020;stroke-width:1.5;"/><path d="M1069,403.9219 L1069,412.1719 A1.75,1.75 0 0 0 1070.75,413.9219 L1079,413.9219 L1069,403.9219 " fill="#DFDFDF" style="stroke:#202020;stroke-width:1.5;"/><text fill="#202020" font-family="Inter" font-size="13" lengthAdjust="spacing" textLength="321" x="700" y="420.9888">Based on the interaction type, User might need to</text><text fill="#202020" font-family="Inter" font-size="13" lengthAdjust="spacing" textLength="364" x="700" y="436.1216">pick a verification code first before entering the PIN code.</text><path d="M270,456.1875 L343.5,456.1875 L343.5,463.3203 L333.5,473.3203 L266.5,473.3203 L266.5,459.6875 A3.5,3.5 0 0 1 270,456.1875 " fill="#EEEEEE" style="stroke:#989898;stroke-width:1.5;"/><rect fill="none" height="265.6719" rx="3.5" ry="3.5" style="stroke:#989898;stroke-width:1.0;" width="661" x="266.5" y="456.1875"/><text fill="#202020" font-family="Inter" font-size="13" font-weight="bold" lengthAdjust="spacing" textLength="32" x="281.5" y="469.2544">loop</text><text fill="#989898" font-family="Inter" font-size="11" font-weight="bold" lengthAdjust="spacing" textLength="227" x="358.5" y="468.3979">[until signature completed or error]</text><polygon fill="#202020" points="680,490.4531,690,494.4531,680,498.4531" style="stroke:#202020;stroke-width:1.0;"/><line style="stroke:#202020;stroke-width:1.0;" x1="340" x2="686" y1="494.4531" y2="494.4531"/><text fill="#000000" font-family="Inter" font-size="13" font-weight="bold" lengthAdjust="spacing" textLength="9" x="421.5" y="489.3872">8</text><text fill="#000000" font-family="monospace" font-size="13" lengthAdjust="spacing" textLength="24" x="434.5" y="489.3872">GET</text><text fill="#000000" font-family="monospace" font-size="13" lengthAdjust="spacing" textLength="8" x="458.5" y="489.3872">&#160;</text><text fill="#000000" font-family="monospace" font-size="13" lengthAdjust="spacing" textLength="144" x="466.5" y="489.3872">session/:sessionID</text><line style="stroke:#202020;stroke-width:1.0;" x1="702" x2="744" y1="523.5859" y2="523.5859"/><line style="stroke:#202020;stroke-width:1.0;" x1="744" x2="744" y1="523.5859" y2="536.5859"/><line style="stroke:#202020;stroke-width:1.0;" x1="703" x2="744" y1="536.5859" y2="536.5859"/><polygon fill="#202020" points="713,532.5859,703,536.5859,713,540.5859" style="stroke:#202020;stroke-width:1.0;"/><text fill="#000000" font-family="Inter" font-size="13" font-weight="bold" lengthAdjust="spacing" textLength="9" x="709" y="518.52">9</text><text fill="#000000" font-family="Inter" font-size="13" lengthAdjust="spacing" textLength="22" x="722" y="518.52">Poll</text><path d="M280,551.5859 L340.5,551.5859 L340.5,558.7188 L330.5,568.7188 L276.5,568.7188 L276.5,555.0859 A3.5,3.5 0 0 1 280,551.5859 " fill="#EEEEEE" style="stroke:#989898;stroke-width:1.5;"/><rect fill="none" height="163.2734" rx="3.5" ry="3.5" style="stroke:#989898;stroke-width:1.0;" width="641" x="276.5" y="551.5859"/><text fill="#202020" font-family="Inter" font-size="13" font-weight="bold" lengthAdjust="spacing" textLength="19" x="291.5" y="564.6528">alt</text><text fill="#989898" font-family="Inter" font-size="11" font-weight="bold" lengthAdjust="spacing" textLength="127" x="355.5" y="563.7964">[signature pending]</text><polygon fill="#202020" points="351,568.7188,341,572.7188,351,576.7188" style="stroke:#202020;stroke-width:1.0;"/><line style="stroke:#202020;stroke-width:1.0;stroke-dasharray:2.0,2.0;" x1="345" x2="691" y1="572.7188" y2="572.7188"/><text fill="#000000" font-family="Inter" font-size="13" font-weight="bold" lengthAdjust="spacing" textLength="18" x="449" y="585.7856">10</text><text fill="#000000" font-family="monospace" font-size="13" lengthAdjust="spacing" textLength="56" x="471" y="585.7856">session</text><text fill="#000000" font-family="monospace" font-size="13" lengthAdjust="spacing" textLength="8" x="527" y="585.7856">&#160;</text><text fill="#000000" font-family="monospace" font-size="13" lengthAdjust="spacing" textLength="48" x="535" y="585.7856">status</text><line style="stroke:#989898;stroke-width:1.0;stroke-dasharray:2.0,2.0;" x1="276.5" x2="917.5" y1="598.8516" y2="598.8516"/><text fill="#989898" font-family="Inter" font-size="11" font-weight="bold" lengthAdjust="spacing" textLength="121" x="281.5" y="609.062">[error (or timeout)]</text><polygon fill="#202020" points="351,612.6563,341,616.6563,351,620.6563" style="stroke:#202020;stroke-width:1.0;"/><line style="stroke:#202020;stroke-width:1.0;stroke-dasharray:2.0,2.0;" x1="345" x2="691" y1="616.6563" y2="616.6563"/><text fill="#000000" font-family="Inter" font-size="13" font-weight="bold" lengthAdjust="spacing" textLength="18" x="485" y="629.7231">11</text><text fill="#000000" font-family="monospace" font-size="13" lengthAdjust="spacing" textLength="40" x="507" y="629.7231">error</text><line style="stroke:#989898;stroke-width:1.0;stroke-dasharray:2.0,2.0;" x1="276.5" x2="917.5" y1="642.7891" y2="642.7891"/><text fill="#989898" font-family="Inter" font-size="11" font-weight="bold" lengthAdjust="spacing" textLength="142" x="281.5" y="652.9995">[signature completed]</text><polygon fill="#202020" points="713,673.7266,703,677.7266,713,681.7266" style="stroke:#202020;stroke-width:1.0;"/><line style="stroke:#202020;stroke-width:1.0;" x1="707" x2="886" y1="677.7266" y2="677.7266"/><text fill="#000000" font-family="Inter" font-size="13" font-weight="bold" lengthAdjust="spacing" textLength="18" x="752.5" y="672.6606">12</text><text fill="#000000" font-family="Inter" font-size="13" lengthAdjust="spacing" textLength="62" x="774.5" y="672.6606">Signature</text><polygon fill="#202020" points="351,685.7266,341,689.7266,351,693.7266" style="stroke:#202020;stroke-width:1.0;"/><line style="stroke:#202020;stroke-width:1.0;stroke-dasharray:2.0,2.0;" x1="345" x2="696" y1="689.7266" y2="689.7266"/><text fill="#000000" font-family="Inter" font-size="13" font-weight="bold" lengthAdjust="spacing" textLength="18" x="483.5" y="702.7935">13</text><text fill="#000000" font-family="monospace" font-size="13" lengthAdjust="spacing" textLength="48" x="505.5" y="702.7935">result</text><path d="M90,737.3594 L90,755.3594 A3.5,3.5 0 0 0 93.5,758.8594 L575.5,758.8594 A3.5,3.5 0 0 0 579,755.3594 L579,743.8594 L569,733.8594 L93.5,733.8594 A3.5,3.5 0 0 0 90,737.3594 " fill="#DFDFDF" style="stroke:#202020;stroke-width:1.5;"/><path d="M569,733.8594 L569,742.1094 A1.75,1.75 0 0 0 570.75,743.8594 L579,743.8594 L569,733.8594 " fill="#DFDFDF" style="stroke:#202020;stroke-width:1.5;"/><text fill="#202020" font-family="Inter" font-size="13" lengthAdjust="spacing" textLength="468" x="96" y="750.9263">RP receives the signature and verifies that the provided signature is valid.</text><polygon fill="#202020" points="158,763.9922,148,767.9922,158,771.9922" style="stroke:#202020;stroke-width:1.0;"/><line style="stroke:#202020;stroke-width:1.0;stroke-dasharray:2.0,2.0;" x1="152" x2="329" y1="767.9922" y2="767.9922"/><text fill="#000000" font-family="Inter" font-size="13" font-weight="bold" lengthAdjust="spacing" textLength="18" x="159" y="781.0591">14</text><text fill="#000000" font-family="Inter" font-size="13" lengthAdjust="spacing" textLength="30" x="181" y="781.0591">User</text><text fill="#000000" font-family="Inter" font-size="13" lengthAdjust="spacing" textLength="4" x="211" y="781.0591">&#160;</text><text fill="#000000" font-family="Inter" font-size="13" lengthAdjust="spacing" textLength="10" x="215" y="781.0591">is</text><text fill="#000000" font-family="Inter" font-size="13" lengthAdjust="spacing" textLength="4" x="225" y="781.0591">&#160;</text><text fill="#000000" font-family="Inter" font-size="13" lengthAdjust="spacing" textLength="89" x="229" y="781.0591">authenticated</text></g></svg>