<?xml version="1.0" encoding="us-ascii" standalone="no"?><svg xmlns="http://www.w3.org/2000/svg" xmlns:xlink="http://www.w3.org/1999/xlink" contentStyleType="text/css" height="410px" preserveAspectRatio="none" style="width:1106px;height:410px;background:#FFFFFF;" version="1.1" viewBox="0 0 1106 410" width="1106px" zoomAndPan="magnify"><defs/><g><rect fill="#F1F1F1" height="85.1875" rx="12.5" ry="12.5" style="stroke:#181818;stroke-width:1.5;" width="144" x="10" y="161.4844"/><text fill="#000000" font-family="sans-serif" font-size="14" lengthAdjust="spacing" textLength="59" x="20" y="184.4795">Previous</text><text fill="#000000" font-family="sans-serif" font-size="14" lengthAdjust="spacing" textLength="103" x="20" y="200.7764">authentication,</text><text fill="#000000" font-family="sans-serif" font-size="14" lengthAdjust="spacing" textLength="87" x="20" y="217.0732">signature, or</text><text fill="#000000" font-family="sans-serif" font-size="14" lengthAdjust="spacing" textLength="124" x="20" y="233.3701">certificate choice?</text><text fill="#000000" font-family="sans-serif" font-size="14" font-weight="bold" lengthAdjust="spacing" textLength="28" x="207" y="111.8857">yes</text><rect fill="#F1F1F1" height="52.5938" rx="12.5" ry="12.5" style="stroke:#181818;stroke-width:1.5;" width="142" x="285" y="80.7422"/><text fill="#000000" font-family="sans-serif" font-size="14" lengthAdjust="spacing" textLength="122" x="295" y="103.7373">Signing certificate</text><text fill="#000000" font-family="sans-serif" font-size="14" lengthAdjust="spacing" textLength="80" x="295" y="120.0342">is required?</text><text fill="#000000" font-family="sans-serif" font-size="14" font-weight="bold" lengthAdjust="spacing" textLength="28" x="480" y="59.292">yes</text><rect fill="#F1F1F1" height="68.8906" rx="12.5" ry="12.5" style="stroke:#181818;stroke-width:1.5;" width="456" x="558" y="20"/><text fill="#000000" font-family="sans-serif" font-size="14" lengthAdjust="spacing" textLength="171" x="568" y="42.9951">Use one of the following:</text><ellipse cx="573.5" cy="55.0938" fill="#000000" rx="2.5" ry="2.5" style="stroke:#000000;stroke-width:0.0;"/><text fill="#000000" font-family="monospace" font-size="14" font-weight="bold" lengthAdjust="spacing" textLength="416" x="580" y="59.292">/v3/signature/device-link/document/{document-number}</text><ellipse cx="573.5" cy="71.3906" fill="#000000" rx="2.5" ry="2.5" style="stroke:#000000;stroke-width:0.0;"/><text fill="#000000" font-family="monospace" font-size="14" font-weight="bold" lengthAdjust="spacing" textLength="424" x="580" y="75.5889">/v3/signature/notification/document/{document-number}</text><path d="M508,54.4453 L518,54.4453 C533,54.4453 533,54.4453 548,54.4453 L558,54.4453 " fill="none" style="stroke:#181818;stroke-width:1.0;"/><path d="M427,107.0391 L437,107.0391 C452,107.0391 452,54.4453 467,54.4453 L477,54.4453 " fill="none" style="stroke:#181818;stroke-width:1.0;"/><text fill="#000000" font-family="sans-serif" font-size="14" font-weight="bold" lengthAdjust="spacing" textLength="20" x="480" y="156.3311">no</text><rect fill="#F1F1F1" height="85.1875" rx="12.5" ry="12.5" style="stroke:#181818;stroke-width:1.5;" width="456" x="550" y="108.8906"/><text fill="#000000" font-family="sans-serif" font-size="14" lengthAdjust="spacing" textLength="171" x="560" y="131.8857">Use one of the following:</text><ellipse cx="565.5" cy="143.9844" fill="#000000" rx="2.5" ry="2.5" style="stroke:#000000;stroke-width:0.0;"/><text fill="#000000" font-family="monospace" font-size="14" font-weight="bold" lengthAdjust="spacing" textLength="416" x="572" y="148.1826">/v3/signature/device-link/document/{document-number}</text><ellipse cx="565.5" cy="160.2813" fill="#000000" rx="2.5" ry="2.5" style="stroke:#000000;stroke-width:0.0;"/><text fill="#000000" font-family="monospace" font-size="14" font-weight="bold" lengthAdjust="spacing" textLength="280" x="572" y="164.4795">/v3/signature/device-link/anonymous</text><ellipse cx="565.5" cy="176.5781" fill="#000000" rx="2.5" ry="2.5" style="stroke:#000000;stroke-width:0.0;"/><text fill="#000000" font-family="monospace" font-size="14" font-weight="bold" lengthAdjust="spacing" textLength="424" x="572" y="180.7764">/v3/signature/notification/document/{document-number}</text><path d="M500,151.4844 L510,151.4844 C525,151.4844 525,151.4844 540,151.4844 L550,151.4844 " fill="none" style="stroke:#181818;stroke-width:1.0;"/><path d="M427,107.0391 L437,107.0391 C452,107.0391 452,151.4844 467,151.4844 L477,151.4844 " fill="none" style="stroke:#181818;stroke-width:1.0;"/><path d="M235,107.0391 L245,107.0391 C260,107.0391 260,107.0391 275,107.0391 L285,107.0391 " fill="none" style="stroke:#181818;stroke-width:1.0;"/><path d="M154,204.0781 L164,204.0781 C179,204.0781 179,107.0391 194,107.0391 L204,107.0391 " fill="none" style="stroke:#181818;stroke-width:1.0;"/><text fill="#000000" font-family="sans-serif" font-size="14" font-weight="bold" lengthAdjust="spacing" textLength="20" x="207" y="305.9639">no</text><rect fill="#F1F1F1" height="52.5938" rx="12.5" ry="12.5" style="stroke:#181818;stroke-width:1.5;" width="142" x="277" y="274.8203"/><text fill="#000000" font-family="sans-serif" font-size="14" lengthAdjust="spacing" textLength="122" x="287" y="297.8154">Signing certificate</text><text fill="#000000" font-family="sans-serif" font-size="14" lengthAdjust="spacing" textLength="80" x="287" y="314.1123">is required?</text><text fill="#000000" font-family="sans-serif" font-size="14" font-weight="bold" lengthAdjust="spacing" textLength="28" x="472" y="261.5186">yes</text><rect fill="#F1F1F1" height="85.1875" rx="12.5" ry="12.5" style="stroke:#181818;stroke-width:1.5;" width="464" x="550" y="214.0781"/><text fill="#000000" font-family="sans-serif" font-size="14" lengthAdjust="spacing" textLength="32" x="560" y="237.0732">Use:</text><ellipse cx="565.5" cy="249.1719" fill="#000000" rx="2.5" ry="2.5" style="stroke:#000000;stroke-width:0.0;"/><text fill="#000000" font-family="monospace" font-size="14" font-weight="bold" lengthAdjust="spacing" textLength="432" x="572" y="253.3701">/v3/signature/certificate-choice/device-link/anonymous</text><text fill="#000000" font-family="sans-serif" font-size="14" lengthAdjust="spacing" textLength="71" x="560" y="269.667">Then use:</text><text fill="#000000" font-family="monospace" font-size="14" font-weight="bold" lengthAdjust="spacing" textLength="408" x="560" y="285.9639">/v3/signature/notification/linked/{document-number}</text><text fill="#000000" font-family="sans-serif" font-size="14" lengthAdjust="spacing" textLength="4" x="968" y="285.9639">&#160;</text><path d="M500,256.6719 L510,256.6719 C525,256.6719 525,256.6719 540,256.6719 L550,256.6719 " fill="none" style="stroke:#181818;stroke-width:1.0;"/><path d="M419,301.1172 L429,301.1172 C444,301.1172 444,256.6719 459,256.6719 L469,256.6719 " fill="none" style="stroke:#181818;stroke-width:1.0;"/><text fill="#000000" font-family="sans-serif" font-size="14" font-weight="bold" lengthAdjust="spacing" textLength="20" x="472" y="358.5576">no</text><rect fill="#F1F1F1" height="68.8906" rx="12.5" ry="12.5" style="stroke:#181818;stroke-width:1.5;" width="552" x="542" y="319.2656"/><text fill="#000000" font-family="sans-serif" font-size="14" lengthAdjust="spacing" textLength="166" x="552" y="342.2607">Use one of the following</text><ellipse cx="557.5" cy="354.3594" fill="#000000" rx="2.5" ry="2.5" style="stroke:#000000;stroke-width:0.0;"/><text fill="#000000" font-family="monospace" font-size="14" font-weight="bold" lengthAdjust="spacing" textLength="512" x="564" y="358.5576">/v3/signature/device-link/etsi/{id-etsi-qcs-SemanticsId-Natural}</text><ellipse cx="557.5" cy="370.6563" fill="#000000" rx="2.5" ry="2.5" style="stroke:#000000;stroke-width:0.0;"/><text fill="#000000" font-family="monospace" font-size="14" font-weight="bold" lengthAdjust="spacing" textLength="520" x="564" y="374.8545">/v3/signature/notification/etsi/{id-etsi-qcs-SemanticsId-Natural}</text><path d="M492,353.7109 L502,353.7109 C517,353.7109 517,353.7109 532,353.7109 L542,353.7109 " fill="none" style="stroke:#181818;stroke-width:1.0;"/><path d="M419,301.1172 L429,301.1172 C444,301.1172 444,353.7109 459,353.7109 L469,353.7109 " fill="none" style="stroke:#181818;stroke-width:1.0;"/><path d="M227,301.1172 L237,301.1172 C252,301.1172 252,301.1172 267,301.1172 L277,301.1172 " fill="none" style="stroke:#181818;stroke-width:1.0;"/><path d="M154,204.0781 L164,204.0781 C179,204.0781 179,301.1172 194,301.1172 L204,301.1172 " fill="none" style="stroke:#181818;stroke-width:1.0;"/></g></svg>