<?xml version="1.0" encoding="us-ascii" standalone="no"?><svg xmlns="http://www.w3.org/2000/svg" xmlns:xlink="http://www.w3.org/1999/xlink" contentStyleType="text/css" height="1163px" preserveAspectRatio="none" style="width:1311px;height:1163px;" version="1.1" viewBox="0 0 1311 1163" width="1311px" zoomAndPan="magnify"><defs/><g><text fill="#000000" font-family="Inter" font-size="14" font-weight="bold" lengthAdjust="spacing" textLength="305" x="505" y="27.9951">Device Link Based Authentication Flow</text><rect fill="#D2E4F4" height="1064.1875" style="stroke:#989898;stroke-width:1.0;" width="10" x="150" y="83.5938"/><rect fill="#D2E4F4" height="1064.1875" style="stroke:#989898;stroke-width:1.0;" width="10" x="394" y="83.5938"/><rect fill="#D2E4F4" height="703.0625" style="stroke:#989898;stroke-width:1.0;" width="10" x="748" y="249.5234"/><rect fill="#D2E4F4" height="417.4688" style="stroke:#989898;stroke-width:1.0;" width="10" x="1075" y="523.1172"/><rect fill="none" height="171.0625" rx="3.5" ry="3.5" style="stroke:#989898;stroke-width:1.0;" width="423.5" x="34" y="308.7891"/><rect fill="none" height="223.5391" rx="3.5" ry="3.5" style="stroke:#989898;stroke-width:1.0;" width="790" x="330.5" y="761.1797"/><rect fill="none" height="163.2734" rx="3.5" ry="3.5" style="stroke:#989898;stroke-width:1.0;" width="770" x="340.5" y="814.4453"/><line style="stroke:#989898;stroke-width:0.5;stroke-dasharray:5.0,5.0;" x1="155" x2="155" y1="73.5938" y2="1156.7813"/><line style="stroke:#989898;stroke-width:0.5;stroke-dasharray:5.0,5.0;" x1="398.5" x2="398.5" y1="73.5938" y2="1156.7813"/><line style="stroke:#989898;stroke-width:0.5;stroke-dasharray:5.0,5.0;" x1="753" x2="753" y1="73.5938" y2="1156.7813"/><line style="stroke:#989898;stroke-width:0.5;stroke-dasharray:5.0,5.0;" x1="1079.5" x2="1079.5" y1="73.5938" y2="1156.7813"/><rect fill="#A5C8E8" height="30.2969" rx="3.5" ry="3.5" style="stroke:#202020;stroke-width:1.5;" width="96" x="107" y="42.2969"/><text fill="#202020" font-family="Inter" font-size="14" lengthAdjust="spacing" textLength="82" x="114" y="62.292">RP frontend</text><rect fill="#A5C8E8" height="30.2969" rx="3.5" ry="3.5" style="stroke:#202020;stroke-width:1.5;" width="97" x="350.5" y="42.2969"/><text fill="#202020" font-family="Inter" font-size="14" lengthAdjust="spacing" textLength="83" x="357.5" y="62.292">RP backend</text><rect fill="#A5C8E8" height="30.2969" rx="3.5" ry="3.5" style="stroke:#202020;stroke-width:1.5;" width="58" x="724" y="42.2969"/><text fill="#202020" font-family="Inter" font-size="14" lengthAdjust="spacing" textLength="44" x="731" y="62.292">RP API</text><rect fill="#A5C8E8" height="30.2969" rx="3.5" ry="3.5" style="stroke:#202020;stroke-width:1.5;" width="41" x="1059.5" y="42.2969"/><text fill="#202020" font-family="Inter" font-size="14" lengthAdjust="spacing" textLength="27" x="1066.5" y="62.292">App</text><rect fill="#D2E4F4" height="1064.1875" style="stroke:#989898;stroke-width:1.0;" width="10" x="150" y="83.5938"/><rect fill="#D2E4F4" height="1064.1875" style="stroke:#989898;stroke-width:1.0;" width="10" x="394" y="83.5938"/><rect fill="#D2E4F4" height="703.0625" style="stroke:#989898;stroke-width:1.0;" width="10" x="748" y="249.5234"/><rect fill="#D2E4F4" height="417.4688" style="stroke:#989898;stroke-width:1.0;" width="10" x="1075" y="523.1172"/><path d="M5,92.0938 L5,140.0938 A3.5,3.5 0 0 0 8.5,143.5938 L301.5,143.5938 A3.5,3.5 0 0 0 305,140.0938 L305,98.5938 L295,88.5938 L8.5,88.5938 A3.5,3.5 0 0 0 5,92.0938 " fill="#DFDFDF" style="stroke:#202020;stroke-width:1.5;"/><path d="M295,88.5938 L295,96.8438 A1.75,1.75 0 0 0 296.75,98.5938 L305,98.5938 L295,88.5938 " fill="#DFDFDF" style="stroke:#202020;stroke-width:1.5;"/><text fill="#202020" font-family="Inter" font-size="13" lengthAdjust="spacing" textLength="253" x="11" y="105.6606">User initiates a login on the RP frontend</text><text fill="#202020" font-family="Inter" font-size="13" lengthAdjust="spacing" textLength="279" x="11" y="120.7935">(website or mobile app). Inserting ID code is</text><text fill="#202020" font-family="Inter" font-size="13" lengthAdjust="spacing" textLength="231" x="11" y="135.9263">optional depending on the RP setup.</text><polygon fill="#202020" points="382,166.125,392,170.125,382,174.125" style="stroke:#202020;stroke-width:1.0;"/><line style="stroke:#202020;stroke-width:1.0;" x1="160" x2="388" y1="170.125" y2="170.125"/><text fill="#000000" font-family="Inter" font-size="13" font-weight="bold" lengthAdjust="spacing" textLength="9" x="213" y="165.0591">1</text><text fill="#000000" font-family="Inter" font-size="13" lengthAdjust="spacing" textLength="52" x="226" y="165.0591">Request</text><text fill="#000000" font-family="Inter" font-size="13" lengthAdjust="spacing" textLength="4" x="278" y="165.0591">&#160;</text><text fill="#000000" font-family="Inter" font-size="13" lengthAdjust="spacing" textLength="25" x="282" y="165.0591">new</text><text fill="#000000" font-family="Inter" font-size="13" lengthAdjust="spacing" textLength="4" x="307" y="165.0591">&#160;</text><text fill="#000000" font-family="Inter" font-size="13" lengthAdjust="spacing" textLength="30" x="311" y="165.0591">login</text><path d="M290,186.625 L290,219.625 A3.5,3.5 0 0 0 293.5,223.125 L504.5,223.125 A3.5,3.5 0 0 0 508,219.625 L508,193.125 L498,183.125 L293.5,183.125 A3.5,3.5 0 0 0 290,186.625 " fill="#DFDFDF" style="stroke:#202020;stroke-width:1.5;"/><path d="M498,183.125 L498,191.375 A1.75,1.75 0 0 0 499.75,193.125 L508,193.125 L498,183.125 " fill="#DFDFDF" style="stroke:#202020;stroke-width:1.5;"/><text fill="#202020" font-family="Inter" font-size="13" lengthAdjust="spacing" textLength="105" x="296" y="200.1919">RP generates an</text><text fill="#202020" font-family="monospace" font-size="13" lengthAdjust="spacing" textLength="88" x="405" y="200.1919">rpChallenge</text><text fill="#202020" font-family="Inter" font-size="13" lengthAdjust="spacing" textLength="175" x="296" y="215.3247">and sends it in the request.</text><polygon fill="#202020" points="736,245.5234,746,249.5234,736,253.5234" style="stroke:#202020;stroke-width:1.0;"/><line style="stroke:#202020;stroke-width:1.0;" x1="404" x2="742" y1="249.5234" y2="249.5234"/><text fill="#000000" font-family="Inter" font-size="13" font-weight="bold" lengthAdjust="spacing" textLength="9" x="413.5" y="244.4575">2</text><text fill="#000000" font-family="monospace" font-size="13" lengthAdjust="spacing" textLength="32" x="426.5" y="244.4575">POST</text><text fill="#000000" font-family="monospace" font-size="13" lengthAdjust="spacing" textLength="8" x="458.5" y="244.4575">&#160;</text><text fill="#000000" font-family="monospace" font-size="13" lengthAdjust="spacing" textLength="272" x="466.5" y="244.4575">/v3/authentication/device-link/...</text><polygon fill="#202020" points="415,257.5234,405,261.5234,415,265.5234" style="stroke:#202020;stroke-width:1.0;"/><line style="stroke:#202020;stroke-width:1.0;stroke-dasharray:2.0,2.0;" x1="409" x2="747" y1="261.5234" y2="261.5234"/><text fill="#000000" font-family="Inter" font-size="13" font-weight="bold" lengthAdjust="spacing" textLength="9" x="423.5" y="282.1567">3</text><text fill="#000000" font-family="monospace" font-size="13" lengthAdjust="spacing" textLength="72" x="436.5" y="274.5903">sessionID</text><text fill="#000000" font-family="Inter" font-size="13" lengthAdjust="spacing" textLength="4" x="508.5" y="274.5903">,</text><text fill="#000000" font-family="Inter" font-size="13" lengthAdjust="spacing" textLength="4" x="512.5" y="274.5903">&#160;</text><text fill="#000000" font-family="monospace" font-size="13" lengthAdjust="spacing" textLength="96" x="516.5" y="274.5903">sessionToken</text><text fill="#000000" font-family="Inter" font-size="13" lengthAdjust="spacing" textLength="4" x="612.5" y="274.5903">,</text><text fill="#000000" font-family="Inter" font-size="13" lengthAdjust="spacing" textLength="4" x="616.5" y="274.5903">&#160;</text><text fill="#000000" font-family="monospace" font-size="13" lengthAdjust="spacing" textLength="104" x="620.5" y="274.5903">sessionSecret</text><text fill="#000000" font-family="Inter" font-size="13" lengthAdjust="spacing" textLength="4" x="724.5" y="274.5903">,</text><text fill="#000000" font-family="monospace" font-size="13" lengthAdjust="spacing" textLength="112" x="526.5" y="289.7231">deviceLinkBase</text><path d="M37.5,308.7891 L111,308.7891 L111,315.9219 L101,325.9219 L34,325.9219 L34,312.2891 A3.5,3.5 0 0 1 37.5,308.7891 " fill="#EEEEEE" style="stroke:#989898;stroke-width:1.5;"/><rect fill="none" height="171.0625" rx="3.5" ry="3.5" style="stroke:#989898;stroke-width:1.0;" width="423.5" x="34" y="308.7891"/><text fill="#202020" font-family="Inter" font-size="13" font-weight="bold" lengthAdjust="spacing" textLength="32" x="49" y="321.856">loop</text><text fill="#989898" font-family="Inter" font-size="11" font-weight="bold" lengthAdjust="spacing" textLength="132" x="126" y="320.9995">[until user interacts]</text><polygon fill="#202020" points="382,343.0547,392,347.0547,382,351.0547" style="stroke:#202020;stroke-width:1.0;"/><line style="stroke:#202020;stroke-width:1.0;" x1="160" x2="388" y1="347.0547" y2="347.0547"/><text fill="#000000" font-family="Inter" font-size="13" font-weight="bold" lengthAdjust="spacing" textLength="9" x="172" y="341.9888">4</text><text fill="#000000" font-family="Inter" font-size="13" lengthAdjust="spacing" textLength="52" x="185" y="341.9888">Request</text><text fill="#000000" font-family="Inter" font-size="13" lengthAdjust="spacing" textLength="4" x="237" y="341.9888">&#160;</text><text fill="#000000" font-family="Inter" font-size="13" lengthAdjust="spacing" textLength="17" x="241" y="341.9888">for</text><text fill="#000000" font-family="Inter" font-size="13" lengthAdjust="spacing" textLength="4" x="258" y="341.9888">&#160;</text><text fill="#000000" font-family="Inter" font-size="13" lengthAdjust="spacing" textLength="53" x="262" y="341.9888">updated</text><text fill="#000000" font-family="Inter" font-size="13" lengthAdjust="spacing" textLength="4" x="315" y="341.9888">&#160;</text><text fill="#000000" font-family="Inter" font-size="13" lengthAdjust="spacing" textLength="63" x="319" y="341.9888">AuthCode</text><polygon fill="#202020" points="171,355.0547,161,359.0547,171,363.0547" style="stroke:#202020;stroke-width:1.0;"/><line style="stroke:#202020;stroke-width:1.0;stroke-dasharray:2.0,2.0;" x1="165" x2="393" y1="359.0547" y2="359.0547"/><text fill="#000000" font-family="Inter" font-size="13" font-weight="bold" lengthAdjust="spacing" textLength="9" x="185" y="372.1216">5</text><text fill="#000000" font-family="Inter" font-size="13" lengthAdjust="spacing" textLength="47" x="198" y="372.1216">Provide</text><text fill="#000000" font-family="Inter" font-size="13" lengthAdjust="spacing" textLength="4" x="245" y="372.1216">&#160;</text><text fill="#000000" font-family="Inter" font-size="13" lengthAdjust="spacing" textLength="53" x="249" y="372.1216">updated</text><text fill="#000000" font-family="Inter" font-size="13" lengthAdjust="spacing" textLength="4" x="302" y="372.1216">&#160;</text><text fill="#000000" font-family="Inter" font-size="13" lengthAdjust="spacing" textLength="63" x="306" y="372.1216">AuthCode</text><path d="M44,392.6875 L44,470.6875 A3.5,3.5 0 0 0 47.5,474.1875 L261.5,474.1875 A3.5,3.5 0 0 0 265,470.6875 L265,399.1875 L255,389.1875 L47.5,389.1875 A3.5,3.5 0 0 0 44,392.6875 " fill="#DFDFDF" style="stroke:#202020;stroke-width:1.5;"/><path d="M255,389.1875 L255,397.4375 A1.75,1.75 0 0 0 256.75,399.1875 L265,399.1875 L255,389.1875 " fill="#DFDFDF" style="stroke:#202020;stroke-width:1.5;"/><text fill="#202020" font-family="Inter" font-size="13" lengthAdjust="spacing" textLength="200" x="50" y="406.2544">RP frontend shows one or more</text><text fill="#202020" font-family="Inter" font-size="13" lengthAdjust="spacing" textLength="173" x="50" y="421.3872">of the following to the user:</text><ellipse cx="55.5" cy="432.0859" fill="#202020" rx="2.5" ry="2.5" style="stroke:#202020;stroke-width:0.0;"/><text fill="#202020" font-family="Inter" font-size="13" font-weight="bold" lengthAdjust="spacing" textLength="62" x="62" y="436.52">QR code</text><text fill="#202020" font-family="Inter" font-size="13" lengthAdjust="spacing" textLength="4" x="124" y="436.52">,</text><ellipse cx="55.5" cy="447.2188" fill="#202020" rx="2.5" ry="2.5" style="stroke:#202020;stroke-width:0.0;"/><text fill="#202020" font-family="Inter" font-size="13" font-weight="bold" lengthAdjust="spacing" textLength="103" x="62" y="451.6528">Web2App link</text><text fill="#202020" font-family="Inter" font-size="13" lengthAdjust="spacing" textLength="4" x="165" y="451.6528">,</text><ellipse cx="55.5" cy="462.3516" fill="#202020" rx="2.5" ry="2.5" style="stroke:#202020;stroke-width:0.0;"/><text fill="#202020" font-family="Inter" font-size="13" font-weight="bold" lengthAdjust="spacing" textLength="100" x="62" y="466.7856">App2App link</text><text fill="#202020" font-family="Inter" font-size="13" lengthAdjust="spacing" textLength="4" x="162" y="466.7856">.</text><polygon fill="#202020" points="1063,519.1172,1073,523.1172,1063,527.1172" style="stroke:#202020;stroke-width:1.0;"/><line style="stroke:#202020;stroke-width:1.0;" x1="160" x2="1069" y1="523.1172" y2="523.1172"/><text fill="#000000" font-family="Inter" font-size="13" font-weight="bold" lengthAdjust="spacing" textLength="9" x="446" y="510.4849">6</text><text fill="#000000" font-family="Inter" font-size="13" lengthAdjust="spacing" textLength="30" x="459" y="502.9185">User</text><text fill="#000000" font-family="Inter" font-size="13" lengthAdjust="spacing" textLength="4" x="489" y="502.9185">&#160;</text><text fill="#000000" font-family="Inter" font-size="13" lengthAdjust="spacing" textLength="34" x="493" y="502.9185">clicks</text><text fill="#000000" font-family="Inter" font-size="13" lengthAdjust="spacing" textLength="4" x="527" y="502.9185">&#160;</text><text fill="#000000" font-family="Inter" font-size="13" lengthAdjust="spacing" textLength="16" x="531" y="502.9185">on</text><text fill="#000000" font-family="Inter" font-size="13" lengthAdjust="spacing" textLength="4" x="547" y="502.9185">&#160;</text><text fill="#000000" font-family="Inter" font-size="13" lengthAdjust="spacing" textLength="21" x="551" y="502.9185">the</text><text fill="#000000" font-family="Inter" font-size="13" lengthAdjust="spacing" textLength="4" x="572" y="502.9185">&#160;</text><text fill="#000000" font-family="Inter" font-size="13" lengthAdjust="spacing" textLength="83" x="576" y="502.9185">single-device</text><text fill="#000000" font-family="Inter" font-size="13" lengthAdjust="spacing" textLength="4" x="659" y="502.9185">&#160;</text><text fill="#000000" font-family="Inter" font-size="13" lengthAdjust="spacing" textLength="21" x="663" y="502.9185">link</text><text fill="#000000" font-family="Inter" font-size="13" lengthAdjust="spacing" textLength="4" x="684" y="502.9185">&#160;</text><text fill="#000000" font-family="Inter" font-size="13" lengthAdjust="spacing" textLength="13" x="688" y="502.9185">or</text><text fill="#000000" font-family="Inter" font-size="13" lengthAdjust="spacing" textLength="4" x="701" y="502.9185">&#160;</text><text fill="#000000" font-family="Inter" font-size="13" lengthAdjust="spacing" textLength="37" x="705" y="502.9185">scans</text><text fill="#000000" font-family="Inter" font-size="13" lengthAdjust="spacing" textLength="4" x="742" y="502.9185">&#160;</text><text fill="#000000" font-family="Inter" font-size="13" lengthAdjust="spacing" textLength="21" x="746" y="502.9185">the</text><text fill="#000000" font-family="Inter" font-size="13" lengthAdjust="spacing" textLength="4" x="767" y="502.9185">&#160;</text><text fill="#000000" font-family="Inter" font-size="13" lengthAdjust="spacing" textLength="18" x="771" y="502.9185">QR</text><text fill="#000000" font-family="Inter" font-size="13" lengthAdjust="spacing" textLength="31" x="567" y="518.0513">code</text><text fill="#000000" font-family="Inter" font-size="13" lengthAdjust="spacing" textLength="4" x="598" y="518.0513">&#160;</text><text fill="#000000" font-family="Inter" font-size="13" lengthAdjust="spacing" textLength="25" x="602" y="518.0513">with</text><text fill="#000000" font-family="Inter" font-size="13" lengthAdjust="spacing" textLength="4" x="627" y="518.0513">&#160;</text><text fill="#000000" font-family="Inter" font-size="13" lengthAdjust="spacing" textLength="21" x="631" y="518.0513">the</text><text fill="#000000" font-family="Inter" font-size="13" lengthAdjust="spacing" textLength="4" x="652" y="518.0513">&#160;</text><text fill="#000000" font-family="Inter" font-size="13" lengthAdjust="spacing" textLength="25" x="656" y="518.0513">App</text><line style="stroke:#202020;stroke-width:1.0;" x1="1085" x2="1127" y1="582.5156" y2="582.5156"/><line style="stroke:#202020;stroke-width:1.0;" x1="1127" x2="1127" y1="582.5156" y2="595.5156"/><line style="stroke:#202020;stroke-width:1.0;" x1="1086" x2="1127" y1="595.5156" y2="595.5156"/><polygon fill="#202020" points="1096,591.5156,1086,595.5156,1096,599.5156" style="stroke:#202020;stroke-width:1.0;"/><text fill="#000000" font-family="Inter" font-size="13" font-weight="bold" lengthAdjust="spacing" textLength="9" x="1092" y="562.3169">7</text><text fill="#000000" font-family="Inter" font-size="13" lengthAdjust="spacing" textLength="25" x="1117" y="547.1841">App</text><text fill="#000000" font-family="Inter" font-size="13" lengthAdjust="spacing" textLength="4" x="1142" y="547.1841">&#160;</text><text fill="#000000" font-family="Inter" font-size="13" lengthAdjust="spacing" textLength="52" x="1146" y="547.1841">extracts</text><text fill="#000000" font-family="Inter" font-size="13" lengthAdjust="spacing" textLength="4" x="1198" y="547.1841">&#160;</text><text fill="#000000" font-family="Inter" font-size="13" lengthAdjust="spacing" textLength="21" x="1202" y="547.1841">the</text><text fill="#000000" font-family="Inter" font-size="13" lengthAdjust="spacing" textLength="4" x="1223" y="547.1841">&#160;</text><text fill="#000000" font-family="Inter" font-size="13" lengthAdjust="spacing" textLength="65" x="1227" y="547.1841">necessary</text><text fill="#000000" font-family="Inter" font-size="13" lengthAdjust="spacing" textLength="4" x="1105" y="562.3169">&#160;</text><text fill="#000000" font-family="Inter" font-size="13" lengthAdjust="spacing" textLength="75" x="1109" y="562.3169">parameters</text><text fill="#000000" font-family="Inter" font-size="13" lengthAdjust="spacing" textLength="4" x="1184" y="562.3169">&#160;</text><text fill="#000000" font-family="Inter" font-size="13" lengthAdjust="spacing" textLength="30" x="1188" y="562.3169">from</text><text fill="#000000" font-family="Inter" font-size="13" lengthAdjust="spacing" textLength="4" x="1218" y="562.3169">&#160;</text><text fill="#000000" font-family="Inter" font-size="13" lengthAdjust="spacing" textLength="21" x="1222" y="562.3169">the</text><text fill="#000000" font-family="Inter" font-size="13" lengthAdjust="spacing" textLength="4" x="1243" y="562.3169">&#160;</text><text fill="#000000" font-family="Inter" font-size="13" lengthAdjust="spacing" textLength="18" x="1247" y="562.3169">QR</text><text fill="#000000" font-family="Inter" font-size="13" lengthAdjust="spacing" textLength="4" x="1265" y="562.3169">&#160;</text><text fill="#000000" font-family="Inter" font-size="13" lengthAdjust="spacing" textLength="35" x="1269" y="562.3169">code,</text><text fill="#000000" font-family="Inter" font-size="13" lengthAdjust="spacing" textLength="4" x="1108" y="577.4497">&#160;</text><text fill="#000000" font-family="Inter" font-size="13" lengthAdjust="spacing" textLength="60" x="1112" y="577.4497">Web2App</text><text fill="#000000" font-family="Inter" font-size="13" lengthAdjust="spacing" textLength="4" x="1172" y="577.4497">&#160;</text><text fill="#000000" font-family="Inter" font-size="13" lengthAdjust="spacing" textLength="21" x="1176" y="577.4497">link</text><text fill="#000000" font-family="Inter" font-size="13" lengthAdjust="spacing" textLength="4" x="1197" y="577.4497">&#160;</text><text fill="#000000" font-family="Inter" font-size="13" lengthAdjust="spacing" textLength="13" x="1201" y="577.4497">or</text><text fill="#000000" font-family="Inter" font-size="13" lengthAdjust="spacing" textLength="4" x="1214" y="577.4497">&#160;</text><text fill="#000000" font-family="Inter" font-size="13" lengthAdjust="spacing" textLength="58" x="1218" y="577.4497">App2App</text><text fill="#000000" font-family="Inter" font-size="13" lengthAdjust="spacing" textLength="4" x="1276" y="577.4497">&#160;</text><text fill="#000000" font-family="Inter" font-size="13" lengthAdjust="spacing" textLength="21" x="1280" y="577.4497">link</text><polygon fill="#202020" points="769,620.6484,759,624.6484,769,628.6484" style="stroke:#202020;stroke-width:1.0;"/><line style="stroke:#202020;stroke-width:1.0;" x1="763" x2="1074" y1="624.6484" y2="624.6484"/><text fill="#000000" font-family="Inter" font-size="13" font-weight="bold" lengthAdjust="spacing" textLength="9" x="770" y="619.5825">8</text><text fill="#000000" font-family="monospace" font-size="13" lengthAdjust="spacing" textLength="280" x="783" y="619.5825">createTransactionForDeviceLink(...)</text><polygon fill="#202020" points="1063,632.6484,1073,636.6484,1063,640.6484" style="stroke:#202020;stroke-width:1.0;"/><line style="stroke:#202020;stroke-width:1.0;stroke-dasharray:2.0,2.0;" x1="758" x2="1069" y1="636.6484" y2="636.6484"/><text fill="#000000" font-family="Inter" font-size="13" font-weight="bold" lengthAdjust="spacing" textLength="9" x="846" y="649.7153">9</text><text fill="#000000" font-family="monospace" font-size="13" lengthAdjust="spacing" textLength="128" x="859" y="649.7153">transaction(...)</text><line style="stroke:#202020;stroke-width:1.0;" x1="1085" x2="1127" y1="682.9141" y2="682.9141"/><line style="stroke:#202020;stroke-width:1.0;" x1="1127" x2="1127" y1="682.9141" y2="695.9141"/><line style="stroke:#202020;stroke-width:1.0;" x1="1086" x2="1127" y1="695.9141" y2="695.9141"/><polygon fill="#202020" points="1096,691.9141,1086,695.9141,1096,699.9141" style="stroke:#202020;stroke-width:1.0;"/><text fill="#000000" font-family="Inter" font-size="13" font-weight="bold" lengthAdjust="spacing" textLength="18" x="1092" y="677.8481">10</text><text fill="#000000" font-family="Inter" font-size="13" lengthAdjust="spacing" textLength="46" x="1114" y="677.8481">Display</text><text fill="#000000" font-family="Inter" font-size="13" lengthAdjust="spacing" textLength="4" x="1160" y="677.8481">&#160;</text><text fill="#000000" font-family="Inter" font-size="13" lengthAdjust="spacing" textLength="92" x="1164" y="677.8481">authentication</text><text fill="#000000" font-family="Inter" font-size="13" lengthAdjust="spacing" textLength="4" x="1256" y="677.8481">&#160;</text><text fill="#000000" font-family="Inter" font-size="13" lengthAdjust="spacing" textLength="13" x="1260" y="677.8481">UI</text><path d="M915,712.4141 L915,745.4141 A3.5,3.5 0 0 0 918.5,748.9141 L1241.5,748.9141 A3.5,3.5 0 0 0 1245,745.4141 L1245,718.9141 L1235,708.9141 L918.5,708.9141 A3.5,3.5 0 0 0 915,712.4141 " fill="#DFDFDF" style="stroke:#202020;stroke-width:1.5;"/><path d="M1235,708.9141 L1235,717.1641 A1.75,1.75 0 0 0 1236.75,718.9141 L1245,718.9141 L1235,708.9141 " fill="#DFDFDF" style="stroke:#202020;stroke-width:1.5;"/><text fill="#202020" font-family="Inter" font-size="13" lengthAdjust="spacing" textLength="309" x="921" y="725.981">User has to enter the PIN code as usual (but the</text><text fill="#202020" font-family="Inter" font-size="13" lengthAdjust="spacing" textLength="196" x="921" y="741.1138">verification code is not shown).</text><path d="M334,761.1797 L407.5,761.1797 L407.5,768.3125 L397.5,778.3125 L330.5,778.3125 L330.5,764.6797 A3.5,3.5 0 0 1 334,761.1797 " fill="#EEEEEE" style="stroke:#989898;stroke-width:1.5;"/><rect fill="none" height="223.5391" rx="3.5" ry="3.5" style="stroke:#989898;stroke-width:1.0;" width="790" x="330.5" y="761.1797"/><text fill="#202020" font-family="Inter" font-size="13" font-weight="bold" lengthAdjust="spacing" textLength="32" x="345.5" y="774.2466">loop</text><text fill="#989898" font-family="Inter" font-size="11" font-weight="bold" lengthAdjust="spacing" textLength="227" x="422.5" y="773.3901">[until signature completed or error]</text><polygon fill="#202020" points="736,795.4453,746,799.4453,736,803.4453" style="stroke:#202020;stroke-width:1.0;"/><line style="stroke:#202020;stroke-width:1.0;" x1="404" x2="742" y1="799.4453" y2="799.4453"/><text fill="#000000" font-family="Inter" font-size="13" font-weight="bold" lengthAdjust="spacing" textLength="18" x="477" y="794.3794">11</text><text fill="#000000" font-family="monospace" font-size="13" lengthAdjust="spacing" textLength="24" x="499" y="794.3794">GET</text><text fill="#000000" font-family="monospace" font-size="13" lengthAdjust="spacing" textLength="8" x="523" y="794.3794">&#160;</text><text fill="#000000" font-family="monospace" font-size="13" lengthAdjust="spacing" textLength="144" x="531" y="794.3794">session/:sessionID</text><path d="M344,814.4453 L404.5,814.4453 L404.5,821.5781 L394.5,831.5781 L340.5,831.5781 L340.5,817.9453 A3.5,3.5 0 0 1 344,814.4453 " fill="#EEEEEE" style="stroke:#989898;stroke-width:1.5;"/><rect fill="none" height="163.2734" rx="3.5" ry="3.5" style="stroke:#989898;stroke-width:1.0;" width="770" x="340.5" y="814.4453"/><text fill="#202020" font-family="Inter" font-size="13" font-weight="bold" lengthAdjust="spacing" textLength="19" x="355.5" y="827.5122">alt</text><text fill="#989898" font-family="Inter" font-size="11" font-weight="bold" lengthAdjust="spacing" textLength="127" x="419.5" y="826.6558">[signature pending]</text><polygon fill="#202020" points="415,831.5781,405,835.5781,415,839.5781" style="stroke:#202020;stroke-width:1.0;"/><line style="stroke:#202020;stroke-width:1.0;stroke-dasharray:2.0,2.0;" x1="409" x2="747" y1="835.5781" y2="835.5781"/><text fill="#000000" font-family="Inter" font-size="13" font-weight="bold" lengthAdjust="spacing" textLength="18" x="509" y="848.645">12</text><text fill="#000000" font-family="monospace" font-size="13" lengthAdjust="spacing" textLength="56" x="531" y="848.645">session</text><text fill="#000000" font-family="monospace" font-size="13" lengthAdjust="spacing" textLength="8" x="587" y="848.645">&#160;</text><text fill="#000000" font-family="monospace" font-size="13" lengthAdjust="spacing" textLength="48" x="595" y="848.645">status</text><line style="stroke:#989898;stroke-width:1.0;stroke-dasharray:2.0,2.0;" x1="340.5" x2="1110.5" y1="861.7109" y2="861.7109"/><text fill="#989898" font-family="Inter" font-size="11" font-weight="bold" lengthAdjust="spacing" textLength="121" x="345.5" y="871.9214">[error (or timeout)]</text><polygon fill="#202020" points="415,875.5156,405,879.5156,415,883.5156" style="stroke:#202020;stroke-width:1.0;"/><line style="stroke:#202020;stroke-width:1.0;stroke-dasharray:2.0,2.0;" x1="409" x2="747" y1="879.5156" y2="879.5156"/><text fill="#000000" font-family="Inter" font-size="13" font-weight="bold" lengthAdjust="spacing" textLength="18" x="545" y="892.5825">13</text><text fill="#000000" font-family="monospace" font-size="13" lengthAdjust="spacing" textLength="40" x="567" y="892.5825">error</text><line style="stroke:#989898;stroke-width:1.0;stroke-dasharray:2.0,2.0;" x1="340.5" x2="1110.5" y1="905.6484" y2="905.6484"/><text fill="#989898" font-family="Inter" font-size="11" font-weight="bold" lengthAdjust="spacing" textLength="142" x="345.5" y="915.8589">[signature completed]</text><polygon fill="#202020" points="769,936.5859,759,940.5859,769,944.5859" style="stroke:#202020;stroke-width:1.0;"/><line style="stroke:#202020;stroke-width:1.0;" x1="763" x2="1079" y1="940.5859" y2="940.5859"/><text fill="#000000" font-family="Inter" font-size="13" font-weight="bold" lengthAdjust="spacing" textLength="18" x="877" y="935.52">14</text><text fill="#000000" font-family="Inter" font-size="13" lengthAdjust="spacing" textLength="62" x="899" y="935.52">Signature</text><polygon fill="#202020" points="415,948.5859,405,952.5859,415,956.5859" style="stroke:#202020;stroke-width:1.0;"/><line style="stroke:#202020;stroke-width:1.0;stroke-dasharray:2.0,2.0;" x1="409" x2="752" y1="952.5859" y2="952.5859"/><text fill="#000000" font-family="Inter" font-size="13" font-weight="bold" lengthAdjust="spacing" textLength="18" x="543.5" y="965.6528">15</text><text fill="#000000" font-family="monospace" font-size="13" lengthAdjust="spacing" textLength="48" x="565.5" y="965.6528">result</text><path d="M208,1000.2188 L208,1108.2188 A3.5,3.5 0 0 0 211.5,1111.7188 L585.5,1111.7188 A3.5,3.5 0 0 0 589,1108.2188 L589,1006.7188 L579,996.7188 L211.5,996.7188 A3.5,3.5 0 0 0 208,1000.2188 " fill="#DFDFDF" style="stroke:#202020;stroke-width:1.5;"/><path d="M579,996.7188 L579,1004.9688 A1.75,1.75 0 0 0 580.75,1006.7188 L589,1006.7188 L579,996.7188 " fill="#DFDFDF" style="stroke:#202020;stroke-width:1.5;"/><text fill="#202020" font-family="Inter" font-size="13" lengthAdjust="spacing" textLength="144" x="214" y="1013.7856">The response contains</text><text fill="#202020" font-family="monospace" font-size="13" lengthAdjust="spacing" textLength="96" x="362" y="1013.7856">serverRandom</text><text fill="#202020" font-family="Inter" font-size="13" lengthAdjust="spacing" textLength="4" x="458" y="1013.7856">,</text><text fill="#202020" font-family="monospace" font-size="13" lengthAdjust="spacing" textLength="104" x="466" y="1013.7856">userChallenge</text><text fill="#202020" font-family="Inter" font-size="13" lengthAdjust="spacing" textLength="4" x="570" y="1013.7856">,</text><text fill="#202020" font-family="monospace" font-size="13" lengthAdjust="spacing" textLength="64" x="214" y="1028.9185">flowType</text><text fill="#202020" font-family="Inter" font-size="13" lengthAdjust="spacing" textLength="270" x="282" y="1028.9185">and the signature which was signed by the</text><text fill="#202020" font-family="Inter" font-size="13" lengthAdjust="spacing" textLength="196" x="214" y="1044.0513">end user. RP concatenates the</text><text fill="#202020" font-family="monospace" font-size="13" lengthAdjust="spacing" textLength="88" x="414" y="1044.0513">rpChallenge</text><text fill="#202020" font-family="Inter" font-size="13" lengthAdjust="spacing" textLength="24" x="506" y="1044.0513">and</text><text fill="#202020" font-family="Inter" font-size="13" lengthAdjust="spacing" textLength="306" x="214" y="1059.1841">other necessary fields from the storage with the</text><text fill="#202020" font-family="monospace" font-size="13" lengthAdjust="spacing" textLength="96" x="214" y="1074.3169">serverRandom</text><text fill="#202020" font-family="Inter" font-size="13" lengthAdjust="spacing" textLength="4" x="310" y="1074.3169">,</text><text fill="#202020" font-family="monospace" font-size="13" lengthAdjust="spacing" textLength="104" x="318" y="1074.3169">userChallenge</text><text fill="#202020" font-family="Inter" font-size="13" lengthAdjust="spacing" textLength="24" x="426" y="1074.3169">and</text><text fill="#202020" font-family="monospace" font-size="13" lengthAdjust="spacing" textLength="64" x="454" y="1074.3169">flowType</text><text fill="#202020" font-family="Inter" font-size="13" lengthAdjust="spacing" textLength="225" x="214" y="1089.4497">from response and verifies that the</text><text fill="#202020" font-family="Inter" font-size="13" lengthAdjust="spacing" textLength="170" x="214" y="1104.5825">provided signature is valid.</text><polygon fill="#202020" points="171,1117.6484,161,1121.6484,171,1125.6484" style="stroke:#202020;stroke-width:1.0;"/><line style="stroke:#202020;stroke-width:1.0;stroke-dasharray:2.0,2.0;" x1="165" x2="393" y1="1121.6484" y2="1121.6484"/><text fill="#000000" font-family="Inter" font-size="13" font-weight="bold" lengthAdjust="spacing" textLength="18" x="197.5" y="1134.7153">16</text><text fill="#000000" font-family="Inter" font-size="13" lengthAdjust="spacing" textLength="30" x="219.5" y="1134.7153">User</text><text fill="#000000" font-family="Inter" font-size="13" lengthAdjust="spacing" textLength="4" x="249.5" y="1134.7153">&#160;</text><text fill="#000000" font-family="Inter" font-size="13" lengthAdjust="spacing" textLength="10" x="253.5" y="1134.7153">is</text><text fill="#000000" font-family="Inter" font-size="13" lengthAdjust="spacing" textLength="4" x="263.5" y="1134.7153">&#160;</text><text fill="#000000" font-family="Inter" font-size="13" lengthAdjust="spacing" textLength="89" x="267.5" y="1134.7153">authenticated</text></g></svg>