<?xml version='1.0' encoding='UTF-8'?>
<svg width="61mm" height="61mm" version="1.1" viewBox="0 0 61 61" xmlns="http://www.w3.org/2000/svg"><path d="M4,4H5V5H4zM5,4H6V5H5zM6,4H7V5H6zM7,4H8V5H7zM8,4H9V5H8zM9,4H10V5H9zM10,4H11V5H10zM14,4H15V5H14zM15,4H16V5H15zM18,4H19V5H18zM19,4H20V5H19zM21,4H22V5H21zM22,4H23V5H22zM24,4H25V5H24zM26,4H27V5H26zM27,4H28V5H27zM28,4H29V5H28zM30,4H31V5H30zM33,4H34V5H33zM34,4H35V5H34zM35,4H36V5H35zM37,4H38V5H37zM38,4H39V5H38zM40,4H41V5H40zM41,4H42V5H41zM42,4H43V5H42zM43,4H44V5H43zM46,4H47V5H46zM50,4H51V5H50zM51,4H52V5H51zM52,4H53V5H52zM53,4H54V5H53zM54,4H55V5H54zM55,4H56V5H55zM56,4H57V5H56zM4,5H5V6H4zM10,5H11V6H10zM12,5H13V6H12zM13,5H14V6H13zM15,5H16V6H15zM17,5H18V6H17zM19,5H20V6H19zM23,5H24V6H23zM28,5H29V6H28zM32,5H33V6H32zM33,5H34V6H33zM34,5H35V6H34zM37,5H38V6H37zM39,5H40V6H39zM42,5H43V6H42zM46,5H47V6H46zM47,5H48V6H47zM50,5H51V6H50zM56,5H57V6H56zM4,6H5V7H4zM6,6H7V7H6zM7,6H8V7H7zM8,6H9V7H8zM10,6H11V7H10zM12,6H13V7H12zM13,6H14V7H13zM18,6H19V7H18zM19,6H20V7H19zM29,6H30V7H29zM31,6H32V7H31zM33,6H34V7H33zM34,6H35V7H34zM35,6H36V7H35zM36,6H37V7H36zM37,6H38V7H37zM38,6H39V7H38zM39,6H40V7H39zM41,6H42V7H41zM42,6H43V7H42zM45,6H46V7H45zM47,6H48V7H47zM50,6H51V7H50zM52,6H53V7H52zM53,6H54V7H53zM54,6H55V7H54zM56,6H57V7H56zM4,7H5V8H4zM6,7H7V8H6zM7,7H8V8H7zM8,7H9V8H8zM10,7H11V8H10zM16,7H17V8H16zM19,7H20V8H19zM20,7H21V8H20zM24,7H25V8H24zM25,7H26V8H25zM27,7H28V8H27zM28,7H29V8H28zM29,7H30V8H29zM31,7H32V8H31zM34,7H35V8H34zM35,7H36V8H35zM37,7H38V8H37zM41,7H42V8H41zM42,7H43V8H42zM46,7H47V8H46zM48,7H49V8H48zM50,7H51V8H50zM52,7H53V8H52zM53,7H54V8H53zM54,7H55V8H54zM56,7H57V8H56zM4,8H5V9H4zM6,8H7V9H6zM7,8H8V9H7zM8,8H9V9H8zM10,8H11V9H10zM12,8H13V9H12zM13,8H14V9H13zM14,8H15V9H14zM15,8H16V9H15zM24,8H25V9H24zM25,8H26V9H25zM26,8H27V9H26zM27,8H28V9H27zM28,8H29V9H28zM29,8H30V9H29zM30,8H31V9H30zM31,8H32V9H31zM32,8H33V9H32zM33,8H34V9H33zM34,8H35V9H34zM35,8H36V9H35zM36,8H37V9H36zM37,8H38V9H37zM39,8H40V9H39zM42,8H43V9H42zM43,8H44V9H43zM45,8H46V9H45zM46,8H47V9H46zM50,8H51V9H50zM52,8H53V9H52zM53,8H54V9H53zM54,8H55V9H54zM56,8H57V9H56zM4,9H5V10H4zM10,9H11V10H10zM12,9H13V10H12zM15,9H16V10H15zM17,9H18V10H17zM18,9H19V10H18zM19,9H20V10H19zM20,9H21V10H20zM21,9H22V10H21zM22,9H23V10H22zM23,9H24V10H23zM24,9H25V10H24zM25,9H26V10H25zM26,9H27V10H26zM28,9H29V10H28zM32,9H33V10H32zM33,9H34V10H33zM34,9H35V10H34zM35,9H36V10H35zM37,9H38V10H37zM38,9H39V10H38zM39,9H40V10H39zM40,9H41V10H40zM41,9H42V10H41zM43,9H44V10H43zM45,9H46V10H45zM46,9H47V10H46zM50,9H51V10H50zM56,9H57V10H56zM4,10H5V11H4zM5,10H6V11H5zM6,10H7V11H6zM7,10H8V11H7zM8,10H9V11H8zM9,10H10V11H9zM10,10H11V11H10zM12,10H13V11H12zM14,10H15V11H14zM16,10H17V11H16zM18,10H19V11H18zM20,10H21V11H20zM22,10H23V11H22zM24,10H25V11H24zM26,10H27V11H26zM28,10H29V11H28zM30,10H31V11H30zM32,10H33V11H32zM34,10H35V11H34zM36,10H37V11H36zM38,10H39V11H38zM40,10H41V11H40zM42,10H43V11H42zM44,10H45V11H44zM46,10H47V11H46zM48,10H49V11H48zM50,10H51V11H50zM51,10H52V11H51zM52,10H53V11H52zM53,10H54V11H53zM54,10H55V11H54zM55,10H56V11H55zM56,10H57V11H56zM12,11H13V12H12zM16,11H17V12H16zM17,11H18V12H17zM19,11H20V12H19zM20,11H21V12H20zM21,11H22V12H21zM22,11H23V12H22zM25,11H26V12H25zM26,11H27V12H26zM28,11H29V12H28zM32,11H33V12H32zM35,11H36V12H35zM38,11H39V12H38zM40,11H41V12H40zM41,11H42V12H41zM46,11H47V12H46zM47,11H48V12H47zM4,12H5V13H4zM5,12H6V13H5zM7,12H8V13H7zM10,12H11V13H10zM11,12H12V13H11zM13,12H14V13H13zM14,12H15V13H14zM15,12H16V13H15zM19,12H20V13H19zM20,12H21V13H20zM25,12H26V13H25zM26,12H27V13H26zM27,12H28V13H27zM28,12H29V13H28zM29,12H30V13H29zM30,12H31V13H30zM31,12H32V13H31zM32,12H33V13H32zM34,12H35V13H34zM35,12H36V13H35zM37,12H38V13H37zM38,12H39V13H38zM40,12H41V13H40zM44,12H45V13H44zM48,12H49V13H48zM50,12H51V13H50zM51,12H52V13H51zM52,12H53V13H52zM54,12H55V13H54zM55,12H56V13H55zM4,13H5V14H4zM6,13H7V14H6zM7,13H8V14H7zM12,13H13V14H12zM14,13H15V14H14zM15,13H16V14H15zM16,13H17V14H16zM19,13H20V14H19zM21,13H22V14H21zM24,13H25V14H24zM25,13H26V14H25zM26,13H27V14H26zM35,13H36V14H35zM37,13H38V14H37zM44,13H45V14H44zM47,13H48V14H47zM51,13H52V14H51zM53,13H54V14H53zM56,13H57V14H56zM4,14H5V15H4zM5,14H6V15H5zM8,14H9V15H8zM9,14H10V15H9zM10,14H11V15H10zM12,14H13V15H12zM13,14H14V15H13zM15,14H16V15H15zM16,14H17V15H16zM17,14H18V15H17zM18,14H19V15H18zM19,14H20V15H19zM21,14H22V15H21zM22,14H23V15H22zM23,14H24V15H23zM25,14H26V15H25zM26,14H27V15H26zM27,14H28V15H27zM28,14H29V15H28zM30,14H31V15H30zM31,14H32V15H31zM36,14H37V15H36zM37,14H38V15H37zM38,14H39V15H38zM41,14H42V15H41zM44,14H45V15H44zM48,14H49V15H48zM50,14H51V15H50zM53,14H54V15H53zM54,14H55V15H54zM55,14H56V15H55zM4,15H5V16H4zM8,15H9V16H8zM9,15H10V16H9zM13,15H14V16H13zM19,15H20V16H19zM27,15H28V16H27zM30,15H31V16H30zM34,15H35V16H34zM36,15H37V16H36zM40,15H41V16H40zM42,15H43V16H42zM43,15H44V16H43zM44,15H45V16H44zM49,15H50V16H49zM50,15H51V16H50zM52,15H53V16H52zM54,15H55V16H54zM55,15H56V16H55zM5,16H6V17H5zM7,16H8V17H7zM10,16H11V17H10zM13,16H14V17H13zM14,16H15V17H14zM15,16H16V17H15zM16,16H17V17H16zM17,16H18V17H17zM18,16H19V17H18zM19,16H20V17H19zM22,16H23V17H22zM23,16H24V17H23zM25,16H26V17H25zM26,16H27V17H26zM27,16H28V17H27zM29,16H30V17H29zM32,16H33V17H32zM34,16H35V17H34zM35,16H36V17H35zM36,16H37V17H36zM37,16H38V17H37zM38,16H39V17H38zM39,16H40V17H39zM40,16H41V17H40zM41,16H42V17H41zM43,16H44V17H43zM44,16H45V17H44zM49,16H50V17H49zM50,16H51V17H50zM51,16H52V17H51zM52,16H53V17H52zM56,16H57V17H56zM4,17H5V18H4zM6,17H7V18H6zM7,17H8V18H7zM8,17H9V18H8zM9,17H10V18H9zM12,17H13V18H12zM18,17H19V18H18zM20,17H21V18H20zM21,17H22V18H21zM22,17H23V18H22zM29,17H30V18H29zM30,17H31V18H30zM35,17H36V18H35zM36,17H37V18H36zM37,17H38V18H37zM38,17H39V18H38zM40,17H41V18H40zM43,17H44V18H43zM44,17H45V18H44zM47,17H48V18H47zM50,17H51V18H50zM51,17H52V18H51zM6,18H7V19H6zM10,18H11V19H10zM12,18H13V19H12zM14,18H15V19H14zM17,18H18V19H17zM18,18H19V19H18zM19,18H20V19H19zM21,18H22V19H21zM22,18H23V19H22zM23,18H24V19H23zM24,18H25V19H24zM27,18H28V19H27zM29,18H30V19H29zM31,18H32V19H31zM32,18H33V19H32zM34,18H35V19H34zM37,18H38V19H37zM39,18H40V19H39zM40,18H41V19H40zM41,18H42V19H41zM42,18H43V19H42zM43,18H44V19H43zM48,18H49V19H48zM52,18H53V19H52zM53,18H54V19H53zM54,18H55V19H54zM55,18H56V19H55zM56,18H57V19H56zM4,19H5V20H4zM5,19H6V20H5zM6,19H7V20H6zM14,19H15V20H14zM16,19H17V20H16zM17,19H18V20H17zM18,19H19V20H18zM19,19H20V20H19zM25,19H26V20H25zM26,19H27V20H26zM31,19H32V20H31zM32,19H33V20H32zM33,19H34V20H33zM35,19H36V20H35zM36,19H37V20H36zM38,19H39V20H38zM40,19H41V20H40zM43,19H44V20H43zM44,19H45V20H44zM49,19H50V20H49zM52,19H53V20H52zM53,19H54V20H53zM5,20H6V21H5zM6,20H7V21H6zM10,20H11V21H10zM11,20H12V21H11zM12,20H13V21H12zM22,20H23V21H22zM23,20H24V21H23zM24,20H25V21H24zM25,20H26V21H25zM27,20H28V21H27zM29,20H30V21H29zM31,20H32V21H31zM33,20H34V21H33zM36,20H37V21H36zM37,20H38V21H37zM39,20H40V21H39zM40,20H41V21H40zM42,20H43V21H42zM43,20H44V21H43zM46,20H47V21H46zM47,20H48V21H47zM49,20H50V21H49zM51,20H52V21H51zM52,20H53V21H52zM56,20H57V21H56zM4,21H5V22H4zM7,21H8V22H7zM9,21H10V22H9zM12,21H13V22H12zM15,21H16V22H15zM16,21H17V22H16zM17,21H18V22H17zM18,21H19V22H18zM20,21H21V22H20zM21,21H22V22H21zM23,21H24V22H23zM24,21H25V22H24zM25,21H26V22H25zM26,21H27V22H26zM28,21H29V22H28zM29,21H30V22H29zM30,21H31V22H30zM31,21H32V22H31zM32,21H33V22H32zM33,21H34V22H33zM36,21H37V22H36zM42,21H43V22H42zM43,21H44V22H43zM44,21H45V22H44zM45,21H46V22H45zM48,21H49V22H48zM51,21H52V22H51zM54,21H55V22H54zM56,21H57V22H56zM4,22H5V23H4zM6,22H7V23H6zM9,22H10V23H9zM10,22H11V23H10zM12,22H13V23H12zM15,22H16V23H15zM16,22H17V23H16zM17,22H18V23H17zM18,22H19V23H18zM21,22H22V23H21zM23,22H24V23H23zM24,22H25V23H24zM25,22H26V23H25zM26,22H27V23H26zM28,22H29V23H28zM29,22H30V23H29zM31,22H32V23H31zM32,22H33V23H32zM35,22H36V23H35zM36,22H37V23H36zM37,22H38V23H37zM38,22H39V23H38zM39,22H40V23H39zM40,22H41V23H40zM41,22H42V23H41zM43,22H44V23H43zM47,22H48V23H47zM51,22H52V23H51zM52,22H53V23H52zM53,22H54V23H53zM54,22H55V23H54zM55,22H56V23H55zM56,22H57V23H56zM4,23H5V24H4zM5,23H6V24H5zM8,23H9V24H8zM12,23H13V24H12zM15,23H16V24H15zM17,23H18V24H17zM24,23H25V24H24zM25,23H26V24H25zM26,23H27V24H26zM29,23H30V24H29zM32,23H33V24H32zM33,23H34V24H33zM34,23H35V24H34zM36,23H37V24H36zM39,23H40V24H39zM41,23H42V24H41zM42,23H43V24H42zM43,23H44V24H43zM45,23H46V24H45zM47,23H48V24H47zM48,23H49V24H48zM49,23H50V24H49zM50,23H51V24H50zM52,23H53V24H52zM55,23H56V24H55zM56,23H57V24H56zM4,24H5V25H4zM7,24H8V25H7zM10,24H11V25H10zM11,24H12V25H11zM13,24H14V25H13zM14,24H15V25H14zM15,24H16V25H15zM16,24H17V25H16zM17,24H18V25H17zM19,24H20V25H19zM20,24H21V25H20zM22,24H23V25H22zM23,24H24V25H23zM24,24H25V25H24zM25,24H26V25H25zM26,24H27V25H26zM27,24H28V25H27zM29,24H30V25H29zM30,24H31V25H30zM31,24H32V25H31zM34,24H35V25H34zM35,24H36V25H35zM37,24H38V25H37zM38,24H39V25H38zM40,24H41V25H40zM41,24H42V25H41zM43,24H44V25H43zM44,24H45V25H44zM47,24H48V25H47zM48,24H49V25H48zM49,24H50V25H49zM52,24H53V25H52zM53,24H54V25H53zM54,24H55V25H54zM55,24H56V25H55zM56,24H57V25H56zM4,25H5V26H4zM5,25H6V26H5zM6,25H7V26H6zM7,25H8V26H7zM8,25H9V26H8zM14,25H15V26H14zM15,25H16V26H15zM16,25H17V26H16zM18,25H19V26H18zM21,25H22V26H21zM22,25H23V26H22zM26,25H27V26H26zM27,25H28V26H27zM28,25H29V26H28zM30,25H31V26H30zM31,25H32V26H31zM32,25H33V26H32zM35,25H36V26H35zM36,25H37V26H36zM39,25H40V26H39zM43,25H44V26H43zM44,25H45V26H44zM51,25H52V26H51zM52,25H53V26H52zM53,25H54V26H53zM54,25H55V26H54zM56,25H57V26H56zM5,26H6V27H5zM6,26H7V27H6zM10,26H11V27H10zM11,26H12V27H11zM12,26H13V27H12zM13,26H14V27H13zM16,26H17V27H16zM17,26H18V27H17zM18,26H19V27H18zM19,26H20V27H19zM21,26H22V27H21zM29,26H30V27H29zM30,26H31V27H30zM33,26H34V27H33zM35,26H36V27H35zM36,26H37V27H36zM37,26H38V27H37zM41,26H42V27H41zM43,26H44V27H43zM47,26H48V27H47zM50,26H51V27H50zM51,26H52V27H51zM53,26H54V27H53zM55,26H56V27H55zM5,27H6V28H5zM11,27H12V28H11zM12,27H13V28H12zM14,27H15V28H14zM15,27H16V28H15zM18,27H19V28H18zM20,27H21V28H20zM22,27H23V28H22zM23,27H24V28H23zM24,27H25V28H24zM25,27H26V28H25zM26,27H27V28H26zM27,27H28V28H27zM30,27H31V28H30zM31,27H32V28H31zM32,27H33V28H32zM33,27H34V28H33zM34,27H35V28H34zM35,27H36V28H35zM37,27H38V28H37zM39,27H40V28H39zM42,27H43V28H42zM43,27H44V28H43zM44,27H45V28H44zM45,27H46V28H45zM48,27H49V28H48zM50,27H51V28H50zM52,27H53V28H52zM53,27H54V28H53zM54,27H55V28H54zM55,27H56V28H55zM5,28H6V29H5zM6,28H7V29H6zM7,28H8V29H7zM8,28H9V29H8zM9,28H10V29H9zM10,28H11V29H10zM11,28H12V29H11zM12,28H13V29H12zM14,28H15V29H14zM18,28H19V29H18zM19,28H20V29H19zM20,28H21V29H20zM21,28H22V29H21zM24,28H25V29H24zM25,28H26V29H25zM26,28H27V29H26zM27,28H28V29H27zM28,28H29V29H28zM29,28H30V29H29zM30,28H31V29H30zM31,28H32V29H31zM32,28H33V29H32zM33,28H34V29H33zM35,28H36V29H35zM36,28H37V29H36zM37,28H38V29H37zM38,28H39V29H38zM39,28H40V29H39zM40,28H41V29H40zM43,28H44V29H43zM44,28H45V29H44zM45,28H46V29H45zM46,28H47V29H46zM48,28H49V29H48zM49,28H50V29H49zM50,28H51V29H50zM51,28H52V29H51zM52,28H53V29H52zM55,28H56V29H55zM56,28H57V29H56zM4,29H5V30H4zM6,29H7V30H6zM8,29H9V30H8zM12,29H13V30H12zM13,29H14V30H13zM14,29H15V30H14zM15,29H16V30H15zM16,29H17V30H16zM17,29H18V30H17zM19,29H20V30H19zM20,29H21V30H20zM21,29H22V30H21zM23,29H24V30H23zM25,29H26V30H25zM28,29H29V30H28zM32,29H33V30H32zM35,29H36V30H35zM36,29H37V30H36zM38,29H39V30H38zM40,29H41V30H40zM41,29H42V30H41zM44,29H45V30H44zM47,29H48V30H47zM48,29H49V30H48zM52,29H53V30H52zM53,29H54V30H53zM54,29H55V30H54zM5,30H6V31H5zM8,30H9V31H8zM10,30H11V31H10zM12,30H13V31H12zM13,30H14V31H13zM14,30H15V31H14zM16,30H17V31H16zM19,30H20V31H19zM20,30H21V31H20zM22,30H23V31H22zM23,30H24V31H23zM25,30H26V31H25zM26,30H27V31H26zM28,30H29V31H28zM30,30H31V31H30zM32,30H33V31H32zM33,30H34V31H33zM37,30H38V31H37zM38,30H39V31H38zM39,30H40V31H39zM42,30H43V31H42zM47,30H48V31H47zM48,30H49V31H48zM50,30H51V31H50zM52,30H53V31H52zM53,30H54V31H53zM55,30H56V31H55zM56,30H57V31H56zM4,31H5V32H4zM5,31H6V32H5zM7,31H8V32H7zM8,31H9V32H8zM12,31H13V32H12zM18,31H19V32H18zM19,31H20V32H19zM23,31H24V32H23zM24,31H25V32H24zM26,31H27V32H26zM28,31H29V32H28zM32,31H33V32H32zM33,31H34V32H33zM34,31H35V32H34zM36,31H37V32H36zM37,31H38V32H37zM39,31H40V32H39zM40,31H41V32H40zM43,31H44V32H43zM44,31H45V32H44zM45,31H46V32H45zM46,31H47V32H46zM47,31H48V32H47zM48,31H49V32H48zM52,31H53V32H52zM55,31H56V32H55zM4,32H5V33H4zM8,32H9V33H8zM9,32H10V33H9zM10,32H11V33H10zM11,32H12V33H11zM12,32H13V33H12zM13,32H14V33H13zM14,32H15V33H14zM18,32H19V33H18zM20,32H21V33H20zM22,32H23V33H22zM23,32H24V33H23zM27,32H28V33H27zM28,32H29V33H28zM29,32H30V33H29zM30,32H31V33H30zM31,32H32V33H31zM32,32H33V33H32zM34,32H35V33H34zM36,32H37V33H36zM37,32H38V33H37zM38,32H39V33H38zM39,32H40V33H39zM40,32H41V33H40zM42,32H43V33H42zM45,32H46V33H45zM46,32H47V33H46zM48,32H49V33H48zM49,32H50V33H49zM50,32H51V33H50zM51,32H52V33H51zM52,32H53V33H52zM53,32H54V33H53zM55,32H56V33H55zM11,33H12V34H11zM14,33H15V34H14zM15,33H16V34H15zM16,33H17V34H16zM19,33H20V34H19zM21,33H22V34H21zM22,33H23V34H22zM24,33H25V34H24zM26,33H27V34H26zM28,33H29V34H28zM30,33H31V34H30zM31,33H32V34H31zM33,33H34V34H33zM35,33H36V34H35zM36,33H37V34H36zM37,33H38V34H37zM42,33H43V34H42zM43,33H44V34H43zM45,33H46V34H45zM48,33H49V34H48zM51,33H52V34H51zM6,34H7V35H6zM8,34H9V35H8zM10,34H11V35H10zM12,34H13V35H12zM13,34H14V35H13zM14,34H15V35H14zM17,34H18V35H17zM22,34H23V35H22zM23,34H24V35H23zM24,34H25V35H24zM25,34H26V35H25zM28,34H29V35H28zM30,34H31V35H30zM32,34H33V35H32zM36,34H37V35H36zM37,34H38V35H37zM39,34H40V35H39zM40,34H41V35H40zM44,34H45V35H44zM48,34H49V35H48zM49,34H50V35H49zM50,34H51V35H50zM53,34H54V35H53zM55,34H56V35H55zM56,34H57V35H56zM4,35H5V36H4zM8,35H9V36H8zM9,35H10V36H9zM11,35H12V36H11zM12,35H13V36H12zM15,35H16V36H15zM16,35H17V36H16zM18,35H19V36H18zM20,35H21V36H20zM26,35H27V36H26zM27,35H28V36H27zM28,35H29V36H28zM29,35H30V36H29zM30,35H31V36H30zM32,35H33V36H32zM34,35H35V36H34zM35,35H36V36H35zM36,35H37V36H36zM37,35H38V36H37zM38,35H39V36H38zM39,35H40V36H39zM40,35H41V36H40zM42,35H43V36H42zM43,35H44V36H43zM47,35H48V36H47zM52,35H53V36H52zM55,35H56V36H55zM7,36H8V37H7zM10,36H11V37H10zM11,36H12V37H11zM13,36H14V37H13zM17,36H18V37H17zM18,36H19V37H18zM20,36H21V37H20zM21,36H22V37H21zM22,36H23V37H22zM23,36H24V37H23zM24,36H25V37H24zM25,36H26V37H25zM26,36H27V37H26zM27,36H28V37H27zM28,36H29V37H28zM29,36H30V37H29zM31,36H32V37H31zM33,36H34V37H33zM35,36H36V37H35zM40,36H41V37H40zM41,36H42V37H41zM43,36H44V37H43zM44,36H45V37H44zM45,36H46V37H45zM50,36H51V37H50zM51,36H52V37H51zM54,36H55V37H54zM55,36H56V37H55zM5,37H6V38H5zM7,37H8V38H7zM8,37H9V38H8zM16,37H17V38H16zM17,37H18V38H17zM20,37H21V38H20zM26,37H27V38H26zM28,37H29V38H28zM29,37H30V38H29zM30,37H31V38H30zM32,37H33V38H32zM35,37H36V38H35zM37,37H38V38H37zM39,37H40V38H39zM40,37H41V38H40zM43,37H44V38H43zM48,37H49V38H48zM53,37H54V38H53zM56,37H57V38H56zM6,38H7V39H6zM9,38H10V39H9zM10,38H11V39H10zM13,38H14V39H13zM15,38H16V39H15zM16,38H17V39H16zM17,38H18V39H17zM18,38H19V39H18zM20,38H21V39H20zM24,38H25V39H24zM28,38H29V39H28zM31,38H32V39H31zM32,38H33V39H32zM35,38H36V39H35zM36,38H37V39H36zM38,38H39V39H38zM39,38H40V39H39zM41,38H42V39H41zM43,38H44V39H43zM44,38H45V39H44zM48,38H49V39H48zM49,38H50V39H49zM51,38H52V39H51zM52,38H53V39H52zM54,38H55V39H54zM55,38H56V39H55zM4,39H5V40H4zM5,39H6V40H5zM9,39H10V40H9zM11,39H12V40H11zM12,39H13V40H12zM13,39H14V40H13zM14,39H15V40H14zM15,39H16V40H15zM20,39H21V40H20zM21,39H22V40H21zM24,39H25V40H24zM28,39H29V40H28zM31,39H32V40H31zM34,39H35V40H34zM36,39H37V40H36zM39,39H40V40H39zM40,39H41V40H40zM44,39H45V40H44zM45,39H46V40H45zM46,39H47V40H46zM50,39H51V40H50zM51,39H52V40H51zM54,39H55V40H54zM55,39H56V40H55zM4,40H5V41H4zM5,40H6V41H5zM6,40H7V41H6zM9,40H10V41H9zM10,40H11V41H10zM11,40H12V41H11zM12,40H13V41H12zM15,40H16V41H15zM17,40H18V41H17zM18,40H19V41H18zM19,40H20V41H19zM20,40H21V41H20zM21,40H22V41H21zM22,40H23V41H22zM24,40H25V41H24zM25,40H26V41H25zM26,40H27V41H26zM29,40H30V41H29zM30,40H31V41H30zM35,40H36V41H35zM36,40H37V41H36zM39,40H40V41H39zM40,40H41V41H40zM44,40H45V41H44zM45,40H46V41H45zM48,40H49V41H48zM50,40H51V41H50zM53,40H54V41H53zM4,41H5V42H4zM7,41H8V42H7zM8,41H9V42H8zM9,41H10V42H9zM12,41H13V42H12zM14,41H15V42H14zM15,41H16V42H15zM18,41H19V42H18zM20,41H21V42H20zM21,41H22V42H21zM23,41H24V42H23zM25,41H26V42H25zM28,41H29V42H28zM31,41H32V42H31zM32,41H33V42H32zM35,41H36V42H35zM36,41H37V42H36zM38,41H39V42H38zM41,41H42V42H41zM43,41H44V42H43zM47,41H48V42H47zM48,41H49V42H48zM49,41H50V42H49zM50,41H51V42H50zM51,41H52V42H51zM53,41H54V42H53zM54,41H55V42H54zM55,41H56V42H55zM7,42H8V43H7zM9,42H10V43H9zM10,42H11V43H10zM12,42H13V43H12zM13,42H14V43H13zM14,42H15V43H14zM20,42H21V43H20zM24,42H25V43H24zM26,42H27V43H26zM27,42H28V43H27zM28,42H29V43H28zM30,42H31V43H30zM33,42H34V43H33zM34,42H35V43H34zM35,42H36V43H35zM38,42H39V43H38zM40,42H41V43H40zM42,42H43V43H42zM43,42H44V43H43zM45,42H46V43H45zM47,42H48V43H47zM49,42H50V43H49zM50,42H51V43H50zM53,42H54V43H53zM54,42H55V43H54zM55,42H56V43H55zM56,42H57V43H56zM5,43H6V44H5zM8,43H9V44H8zM12,43H13V44H12zM13,43H14V44H13zM15,43H16V44H15zM19,43H20V44H19zM20,43H21V44H20zM21,43H22V44H21zM22,43H23V44H22zM24,43H25V44H24zM28,43H29V44H28zM36,43H37V44H36zM39,43H40V44H39zM40,43H41V44H40zM41,43H42V44H41zM43,43H44V44H43zM44,43H45V44H44zM45,43H46V44H45zM46,43H47V44H46zM48,43H49V44H48zM49,43H50V44H49zM50,43H51V44H50zM56,43H57V44H56zM6,44H7V45H6zM7,44H8V45H7zM8,44H9V45H8zM9,44H10V45H9zM10,44H11V45H10zM11,44H12V45H11zM13,44H14V45H13zM15,44H16V45H15zM17,44H18V45H17zM18,44H19V45H18zM19,44H20V45H19zM21,44H22V45H21zM23,44H24V45H23zM24,44H25V45H24zM25,44H26V45H25zM30,44H31V45H30zM34,44H35V45H34zM36,44H37V45H36zM38,44H39V45H38zM39,44H40V45H39zM40,44H41V45H40zM43,44H44V45H43zM45,44H46V45H45zM46,44H47V45H46zM47,44H48V45H47zM49,44H50V45H49zM55,44H56V45H55zM56,44H57V45H56zM4,45H5V46H4zM5,45H6V46H5zM9,45H10V46H9zM11,45H12V46H11zM16,45H17V46H16zM18,45H19V46H18zM19,45H20V46H19zM24,45H25V46H24zM25,45H26V46H25zM26,45H27V46H26zM28,45H29V46H28zM29,45H30V46H29zM33,45H34V46H33zM36,45H37V46H36zM39,45H40V46H39zM42,45H43V46H42zM45,45H46V46H45zM49,45H50V46H49zM51,45H52V46H51zM54,45H55V46H54zM55,45H56V46H55zM56,45H57V46H56zM4,46H5V47H4zM5,46H6V47H5zM7,46H8V47H7zM8,46H9V47H8zM9,46H10V47H9zM10,46H11V47H10zM11,46H12V47H11zM14,46H15V47H14zM15,46H16V47H15zM16,46H17V47H16zM19,46H20V47H19zM20,46H21V47H20zM21,46H22V47H21zM28,46H29V47H28zM29,46H30V47H29zM31,46H32V47H31zM33,46H34V47H33zM36,46H37V47H36zM43,46H44V47H43zM47,46H48V47H47zM48,46H49V47H48zM49,46H50V47H49zM50,46H51V47H50zM52,46H53V47H52zM53,46H54V47H53zM54,46H55V47H54zM55,46H56V47H55zM56,46H57V47H56zM5,47H6V48H5zM6,47H7V48H6zM11,47H12V48H11zM15,47H16V48H15zM19,47H20V48H19zM20,47H21V48H20zM22,47H23V48H22zM25,47H26V48H25zM26,47H27V48H26zM28,47H29V48H28zM30,47H31V48H30zM31,47H32V48H31zM32,47H33V48H32zM33,47H34V48H33zM34,47H35V48H34zM35,47H36V48H35zM36,47H37V48H36zM37,47H38V48H37zM38,47H39V48H38zM40,47H41V48H40zM41,47H42V48H41zM43,47H44V48H43zM46,47H47V48H46zM47,47H48V48H47zM49,47H50V48H49zM51,47H52V48H51zM52,47H53V48H52zM53,47H54V48H53zM55,47H56V48H55zM7,48H8V49H7zM10,48H11V49H10zM12,48H13V49H12zM14,48H15V49H14zM16,48H17V49H16zM17,48H18V49H17zM18,48H19V49H18zM19,48H20V49H19zM20,48H21V49H20zM22,48H23V49H22zM25,48H26V49H25zM26,48H27V49H26zM28,48H29V49H28zM29,48H30V49H29zM30,48H31V49H30zM31,48H32V49H31zM32,48H33V49H32zM34,48H35V49H34zM37,48H38V49H37zM38,48H39V49H38zM40,48H41V49H40zM41,48H42V49H41zM42,48H43V49H42zM44,48H45V49H44zM45,48H46V49H45zM48,48H49V49H48zM49,48H50V49H49zM50,48H51V49H50zM51,48H52V49H51zM52,48H53V49H52zM53,48H54V49H53zM54,48H55V49H54zM56,48H57V49H56zM12,49H13V50H12zM13,49H14V50H13zM14,49H15V50H14zM15,49H16V50H15zM18,49H19V50H18zM21,49H22V50H21zM22,49H23V50H22zM25,49H26V50H25zM28,49H29V50H28zM32,49H33V50H32zM35,49H36V50H35zM41,49H42V50H41zM45,49H46V50H45zM48,49H49V50H48zM52,49H53V50H52zM55,49H56V50H55zM56,49H57V50H56zM4,50H5V51H4zM5,50H6V51H5zM6,50H7V51H6zM7,50H8V51H7zM8,50H9V51H8zM9,50H10V51H9zM10,50H11V51H10zM12,50H13V51H12zM14,50H15V51H14zM15,50H16V51H15zM16,50H17V51H16zM18,50H19V51H18zM22,50H23V51H22zM25,50H26V51H25zM27,50H28V51H27zM28,50H29V51H28zM30,50H31V51H30zM32,50H33V51H32zM36,50H37V51H36zM38,50H39V51H38zM40,50H41V51H40zM41,50H42V51H41zM45,50H46V51H45zM47,50H48V51H47zM48,50H49V51H48zM50,50H51V51H50zM52,50H53V51H52zM55,50H56V51H55zM4,51H5V52H4zM10,51H11V52H10zM14,51H15V52H14zM17,51H18V52H17zM18,51H19V52H18zM20,51H21V52H20zM21,51H22V52H21zM24,51H25V52H24zM26,51H27V52H26zM28,51H29V52H28zM32,51H33V52H32zM35,51H36V52H35zM40,51H41V52H40zM42,51H43V52H42zM43,51H44V52H43zM44,51H45V52H44zM48,51H49V52H48zM52,51H53V52H52zM54,51H55V52H54zM4,52H5V53H4zM6,52H7V53H6zM7,52H8V53H7zM8,52H9V53H8zM10,52H11V53H10zM13,52H14V53H13zM14,52H15V53H14zM17,52H18V53H17zM18,52H19V53H18zM20,52H21V53H20zM22,52H23V53H22zM25,52H26V53H25zM26,52H27V53H26zM28,52H29V53H28zM29,52H30V53H29zM30,52H31V53H30zM31,52H32V53H31zM32,52H33V53H32zM33,52H34V53H33zM35,52H36V53H35zM36,52H37V53H36zM37,52H38V53H37zM38,52H39V53H38zM39,52H40V53H39zM40,52H41V53H40zM41,52H42V53H41zM42,52H43V53H42zM44,52H45V53H44zM45,52H46V53H45zM48,52H49V53H48zM49,52H50V53H49zM50,52H51V53H50zM51,52H52V53H51zM52,52H53V53H52zM53,52H54V53H53zM4,53H5V54H4zM6,53H7V54H6zM7,53H8V54H7zM8,53H9V54H8zM10,53H11V54H10zM12,53H13V54H12zM14,53H15V54H14zM16,53H17V54H16zM18,53H19V54H18zM23,53H24V54H23zM25,53H26V54H25zM29,53H30V54H29zM32,53H33V54H32zM33,53H34V54H33zM38,53H39V54H38zM39,53H40V54H39zM41,53H42V54H41zM44,53H45V54H44zM48,53H49V54H48zM52,53H53V54H52zM53,53H54V54H53zM56,53H57V54H56zM4,54H5V55H4zM6,54H7V55H6zM7,54H8V55H7zM8,54H9V55H8zM10,54H11V55H10zM13,54H14V55H13zM16,54H17V55H16zM18,54H19V55H18zM21,54H22V55H21zM22,54H23V55H22zM23,54H24V55H23zM25,54H26V55H25zM27,54H28V55H27zM29,54H30V55H29zM31,54H32V55H31zM35,54H36V55H35zM36,54H37V55H36zM43,54H44V55H43zM44,54H45V55H44zM45,54H46V55H45zM47,54H48V55H47zM50,54H51V55H50zM52,54H53V55H52zM55,54H56V55H55zM4,55H5V56H4zM10,55H11V56H10zM12,55H13V56H12zM15,55H16V56H15zM20,55H21V56H20zM26,55H27V56H26zM27,55H28V56H27zM28,55H29V56H28zM30,55H31V56H30zM31,55H32V56H31zM33,55H34V56H33zM36,55H37V56H36zM38,55H39V56H38zM39,55H40V56H39zM40,55H41V56H40zM44,55H45V56H44zM46,55H47V56H46zM52,55H53V56H52zM55,55H56V56H55zM4,56H5V57H4zM5,56H6V57H5zM6,56H7V57H6zM7,56H8V57H7zM8,56H9V57H8zM9,56H10V57H9zM10,56H11V57H10zM12,56H13V57H12zM13,56H14V57H13zM14,56H15V57H14zM15,56H16V57H15zM18,56H19V57H18zM20,56H21V57H20zM21,56H22V57H21zM22,56H23V57H22zM24,56H25V57H24zM25,56H26V57H25zM27,56H28V57H27zM28,56H29V57H28zM31,56H32V57H31zM33,56H34V57H33zM35,56H36V57H35zM36,56H37V57H36zM37,56H38V57H37zM38,56H39V57H38zM39,56H40V57H39zM40,56H41V57H40zM41,56H42V57H41zM45,56H46V57H45zM46,56H47V57H46zM47,56H48V57H47zM50,56H51V57H50zM51,56H52V57H51zM52,56H53V57H52zM53,56H54V57H53zM55,56H56V57H55z" id="qr-path" fill="#000000" fill-opacity="1" fill-rule="nonzero" stroke="none"/></svg>