<?xml version='1.0' encoding='UTF-8'?>
<svg width="61mm" height="61mm" version="1.1" viewBox="0 0 61 61" xmlns="http://www.w3.org/2000/svg"><path d="M4,4H5V5H4zM5,4H6V5H5zM6,4H7V5H6zM7,4H8V5H7zM8,4H9V5H8zM9,4H10V5H9zM10,4H11V5H10zM12,4H13V5H12zM13,4H14V5H13zM16,4H17V5H16zM18,4H19V5H18zM22,4H23V5H22zM27,4H28V5H27zM28,4H29V5H28zM29,4H30V5H29zM32,4H33V5H32zM33,4H34V5H33zM34,4H35V5H34zM37,4H38V5H37zM39,4H40V5H39zM40,4H41V5H40zM42,4H43V5H42zM44,4H45V5H44zM46,4H47V5H46zM50,4H51V5H50zM51,4H52V5H51zM52,4H53V5H52zM53,4H54V5H53zM54,4H55V5H54zM55,4H56V5H55zM56,4H57V5H56zM4,5H5V6H4zM10,5H11V6H10zM12,5H13V6H12zM13,5H14V6H13zM16,5H17V6H16zM17,5H18V6H17zM18,5H19V6H18zM19,5H20V6H19zM21,5H22V6H21zM22,5H23V6H22zM23,5H24V6H23zM25,5H26V6H25zM29,5H30V6H29zM31,5H32V6H31zM37,5H38V6H37zM40,5H41V6H40zM41,5H42V6H41zM43,5H44V6H43zM45,5H46V6H45zM46,5H47V6H46zM47,5H48V6H47zM50,5H51V6H50zM56,5H57V6H56zM4,6H5V7H4zM6,6H7V7H6zM7,6H8V7H7zM8,6H9V7H8zM10,6H11V7H10zM12,6H13V7H12zM14,6H15V7H14zM17,6H18V7H17zM18,6H19V7H18zM19,6H20V7H19zM20,6H21V7H20zM23,6H24V7H23zM24,6H25V7H24zM27,6H28V7H27zM29,6H30V7H29zM33,6H34V7H33zM37,6H38V7H37zM38,6H39V7H38zM40,6H41V7H40zM41,6H42V7H41zM43,6H44V7H43zM45,6H46V7H45zM47,6H48V7H47zM50,6H51V7H50zM52,6H53V7H52zM53,6H54V7H53zM54,6H55V7H54zM56,6H57V7H56zM4,7H5V8H4zM6,7H7V8H6zM7,7H8V8H7zM8,7H9V8H8zM10,7H11V8H10zM12,7H13V8H12zM14,7H15V8H14zM15,7H16V8H15zM17,7H18V8H17zM21,7H22V8H21zM24,7H25V8H24zM25,7H26V8H25zM26,7H27V8H26zM28,7H29V8H28zM31,7H32V8H31zM32,7H33V8H32zM33,7H34V8H33zM34,7H35V8H34zM35,7H36V8H35zM38,7H39V8H38zM41,7H42V8H41zM44,7H45V8H44zM46,7H47V8H46zM48,7H49V8H48zM50,7H51V8H50zM52,7H53V8H52zM53,7H54V8H53zM54,7H55V8H54zM56,7H57V8H56zM4,8H5V9H4zM6,8H7V9H6zM7,8H8V9H7zM8,8H9V9H8zM10,8H11V9H10zM15,8H16V9H15zM16,8H17V9H16zM19,8H20V9H19zM21,8H22V9H21zM24,8H25V9H24zM25,8H26V9H25zM26,8H27V9H26zM27,8H28V9H27zM28,8H29V9H28zM29,8H30V9H29zM30,8H31V9H30zM31,8H32V9H31zM32,8H33V9H32zM33,8H34V9H33zM34,8H35V9H34zM36,8H37V9H36zM37,8H38V9H37zM39,8H40V9H39zM40,8H41V9H40zM42,8H43V9H42zM43,8H44V9H43zM45,8H46V9H45zM46,8H47V9H46zM50,8H51V9H50zM52,8H53V9H52zM53,8H54V9H53zM54,8H55V9H54zM56,8H57V9H56zM4,9H5V10H4zM10,9H11V10H10zM12,9H13V10H12zM14,9H15V10H14zM15,9H16V10H15zM16,9H17V10H16zM19,9H20V10H19zM22,9H23V10H22zM24,9H25V10H24zM25,9H26V10H25zM26,9H27V10H26zM28,9H29V10H28zM32,9H33V10H32zM34,9H35V10H34zM35,9H36V10H35zM36,9H37V10H36zM38,9H39V10H38zM39,9H40V10H39zM41,9H42V10H41zM43,9H44V10H43zM44,9H45V10H44zM46,9H47V10H46zM50,9H51V10H50zM56,9H57V10H56zM4,10H5V11H4zM5,10H6V11H5zM6,10H7V11H6zM7,10H8V11H7zM8,10H9V11H8zM9,10H10V11H9zM10,10H11V11H10zM12,10H13V11H12zM14,10H15V11H14zM16,10H17V11H16zM18,10H19V11H18zM20,10H21V11H20zM22,10H23V11H22zM24,10H25V11H24zM26,10H27V11H26zM28,10H29V11H28zM30,10H31V11H30zM32,10H33V11H32zM34,10H35V11H34zM36,10H37V11H36zM38,10H39V11H38zM40,10H41V11H40zM42,10H43V11H42zM44,10H45V11H44zM46,10H47V11H46zM48,10H49V11H48zM50,10H51V11H50zM51,10H52V11H51zM52,10H53V11H52zM53,10H54V11H53zM54,10H55V11H54zM55,10H56V11H55zM56,10H57V11H56zM14,11H15V12H14zM15,11H16V12H15zM16,11H17V12H16zM18,11H19V12H18zM20,11H21V12H20zM23,11H24V12H23zM24,11H25V12H24zM25,11H26V12H25zM27,11H28V12H27zM28,11H29V12H28zM32,11H33V12H32zM34,11H35V12H34zM36,11H37V12H36zM37,11H38V12H37zM38,11H39V12H38zM42,11H43V12H42zM48,11H49V12H48zM4,12H5V13H4zM5,12H6V13H5zM8,12H9V13H8zM9,12H10V13H9zM10,12H11V13H10zM14,12H15V13H14zM15,12H16V13H15zM22,12H23V13H22zM24,12H25V13H24zM25,12H26V13H25zM28,12H29V13H28zM29,12H30V13H29zM30,12H31V13H30zM31,12H32V13H31zM32,12H33V13H32zM36,12H37V13H36zM38,12H39V13H38zM39,12H40V13H39zM40,12H41V13H40zM42,12H43V13H42zM43,12H44V13H43zM51,12H52V13H51zM53,12H54V13H53zM54,12H55V13H54zM55,12H56V13H55zM56,12H57V13H56zM5,13H6V14H5zM7,13H8V14H7zM11,13H12V14H11zM12,13H13V14H12zM13,13H14V14H13zM15,13H16V14H15zM17,13H18V14H17zM18,13H19V14H18zM19,13H20V14H19zM20,13H21V14H20zM21,13H22V14H21zM22,13H23V14H22zM23,13H24V14H23zM24,13H25V14H24zM26,13H27V14H26zM27,13H28V14H27zM28,13H29V14H28zM29,13H30V14H29zM33,13H34V14H33zM34,13H35V14H34zM39,13H40V14H39zM40,13H41V14H40zM42,13H43V14H42zM43,13H44V14H43zM45,13H46V14H45zM46,13H47V14H46zM48,13H49V14H48zM49,13H50V14H49zM51,13H52V14H51zM52,13H53V14H52zM53,13H54V14H53zM54,13H55V14H54zM55,13H56V14H55zM56,13H57V14H56zM4,14H5V15H4zM6,14H7V15H6zM7,14H8V15H7zM8,14H9V15H8zM10,14H11V15H10zM11,14H12V15H11zM12,14H13V15H12zM13,14H14V15H13zM14,14H15V15H14zM15,14H16V15H15zM19,14H20V15H19zM21,14H22V15H21zM22,14H23V15H22zM23,14H24V15H23zM25,14H26V15H25zM26,14H27V15H26zM29,14H30V15H29zM32,14H33V15H32zM33,14H34V15H33zM34,14H35V15H34zM37,14H38V15H37zM40,14H41V15H40zM42,14H43V15H42zM44,14H45V15H44zM45,14H46V15H45zM46,14H47V15H46zM47,14H48V15H47zM49,14H50V15H49zM52,14H53V15H52zM53,14H54V15H53zM56,14H57V15H56zM4,15H5V16H4zM6,15H7V16H6zM7,15H8V16H7zM8,15H9V16H8zM9,15H10V16H9zM12,15H13V16H12zM13,15H14V16H13zM15,15H16V16H15zM16,15H17V16H16zM17,15H18V16H17zM18,15H19V16H18zM26,15H27V16H26zM29,15H30V16H29zM31,15H32V16H31zM32,15H33V16H32zM33,15H34V16H33zM34,15H35V16H34zM37,15H38V16H37zM40,15H41V16H40zM41,15H42V16H41zM42,15H43V16H42zM46,15H47V16H46zM47,15H48V16H47zM50,15H51V16H50zM52,15H53V16H52zM53,15H54V16H53zM55,15H56V16H55zM56,15H57V16H56zM4,16H5V17H4zM6,16H7V17H6zM7,16H8V17H7zM10,16H11V17H10zM13,16H14V17H13zM14,16H15V17H14zM15,16H16V17H15zM16,16H17V17H16zM18,16H19V17H18zM20,16H21V17H20zM21,16H22V17H21zM22,16H23V17H22zM23,16H24V17H23zM25,16H26V17H25zM27,16H28V17H27zM29,16H30V17H29zM32,16H33V17H32zM33,16H34V17H33zM36,16H37V17H36zM37,16H38V17H37zM38,16H39V17H38zM40,16H41V17H40zM41,16H42V17H41zM45,16H46V17H45zM47,16H48V17H47zM51,16H52V17H51zM52,16H53V17H52zM4,17H5V18H4zM5,17H6V18H5zM6,17H7V18H6zM7,17H8V18H7zM9,17H10V18H9zM11,17H12V18H11zM12,17H13V18H12zM14,17H15V18H14zM15,17H16V18H15zM17,17H18V18H17zM19,17H20V18H19zM22,17H23V18H22zM23,17H24V18H23zM24,17H25V18H24zM26,17H27V18H26zM28,17H29V18H28zM30,17H31V18H30zM31,17H32V18H31zM32,17H33V18H32zM33,17H34V18H33zM34,17H35V18H34zM36,17H37V18H36zM37,17H38V18H37zM39,17H40V18H39zM40,17H41V18H40zM42,17H43V18H42zM43,17H44V18H43zM44,17H45V18H44zM45,17H46V18H45zM46,17H47V18H46zM48,17H49V18H48zM49,17H50V18H49zM51,17H52V18H51zM52,17H53V18H52zM53,17H54V18H53zM54,17H55V18H54zM56,17H57V18H56zM4,18H5V19H4zM5,18H6V19H5zM6,18H7V19H6zM8,18H9V19H8zM10,18H11V19H10zM11,18H12V19H11zM13,18H14V19H13zM14,18H15V19H14zM15,18H16V19H15zM22,18H23V19H22zM25,18H26V19H25zM28,18H29V19H28zM29,18H30V19H29zM30,18H31V19H30zM32,18H33V19H32zM33,18H34V19H33zM34,18H35V19H34zM37,18H38V19H37zM38,18H39V19H38zM42,18H43V19H42zM44,18H45V19H44zM45,18H46V19H45zM46,18H47V19H46zM47,18H48V19H47zM48,18H49V19H48zM49,18H50V19H49zM51,18H52V19H51zM53,18H54V19H53zM54,18H55V19H54zM56,18H57V19H56zM4,19H5V20H4zM5,19H6V20H5zM7,19H8V20H7zM8,19H9V20H8zM9,19H10V20H9zM12,19H13V20H12zM14,19H15V20H14zM15,19H16V20H15zM17,19H18V20H17zM19,19H20V20H19zM20,19H21V20H20zM21,19H22V20H21zM22,19H23V20H22zM23,19H24V20H23zM25,19H26V20H25zM26,19H27V20H26zM29,19H30V20H29zM36,19H37V20H36zM38,19H39V20H38zM40,19H41V20H40zM43,19H44V20H43zM45,19H46V20H45zM46,19H47V20H46zM49,19H50V20H49zM51,19H52V20H51zM52,19H53V20H52zM56,19H57V20H56zM4,20H5V21H4zM7,20H8V21H7zM10,20H11V21H10zM11,20H12V21H11zM13,20H14V21H13zM15,20H16V21H15zM17,20H18V21H17zM18,20H19V21H18zM19,20H20V21H19zM21,20H22V21H21zM23,20H24V21H23zM24,20H25V21H24zM25,20H26V21H25zM27,20H28V21H27zM28,20H29V21H28zM29,20H30V21H29zM30,20H31V21H30zM34,20H35V21H34zM36,20H37V21H36zM38,20H39V21H38zM40,20H41V21H40zM43,20H44V21H43zM45,20H46V21H45zM46,20H47V21H46zM47,20H48V21H47zM49,20H50V21H49zM52,20H53V21H52zM55,20H56V21H55zM56,20H57V21H56zM4,21H5V22H4zM5,21H6V22H5zM6,21H7V22H6zM7,21H8V22H7zM9,21H10V22H9zM11,21H12V22H11zM12,21H13V22H12zM18,21H19V22H18zM22,21H23V22H22zM25,21H26V22H25zM26,21H27V22H26zM27,21H28V22H27zM32,21H33V22H32zM33,21H34V22H33zM34,21H35V22H34zM36,21H37V22H36zM37,21H38V22H37zM39,21H40V22H39zM40,21H41V22H40zM42,21H43V22H42zM45,21H46V22H45zM46,21H47V22H46zM48,21H49V22H48zM49,21H50V22H49zM52,21H53V22H52zM54,21H55V22H54zM55,21H56V22H55zM56,21H57V22H56zM4,22H5V23H4zM6,22H7V23H6zM8,22H9V23H8zM10,22H11V23H10zM11,22H12V23H11zM12,22H13V23H12zM13,22H14V23H13zM14,22H15V23H14zM16,22H17V23H16zM18,22H19V23H18zM20,22H21V23H20zM22,22H23V23H22zM24,22H25V23H24zM25,22H26V23H25zM28,22H29V23H28zM29,22H30V23H29zM30,22H31V23H30zM32,22H33V23H32zM34,22H35V23H34zM35,22H36V23H35zM37,22H38V23H37zM42,22H43V23H42zM44,22H45V23H44zM45,22H46V23H45zM46,22H47V23H46zM49,22H50V23H49zM53,22H54V23H53zM56,22H57V23H56zM8,23H9V24H8zM11,23H12V24H11zM12,23H13V24H12zM13,23H14V24H13zM14,23H15V24H14zM17,23H18V24H17zM19,23H20V24H19zM20,23H21V24H20zM22,23H23V24H22zM23,23H24V24H23zM24,23H25V24H24zM25,23H26V24H25zM26,23H27V24H26zM27,23H28V24H27zM29,23H30V24H29zM31,23H32V24H31zM36,23H37V24H36zM37,23H38V24H37zM39,23H40V24H39zM40,23H41V24H40zM41,23H42V24H41zM43,23H44V24H43zM46,23H47V24H46zM47,23H48V24H47zM49,23H50V24H49zM51,23H52V24H51zM52,23H53V24H52zM53,23H54V24H53zM55,23H56V24H55zM56,23H57V24H56zM5,24H6V25H5zM6,24H7V25H6zM7,24H8V25H7zM10,24H11V25H10zM12,24H13V25H12zM14,24H15V25H14zM18,24H19V25H18zM19,24H20V25H19zM20,24H21V25H20zM21,24H22V25H21zM22,24H23V25H22zM23,24H24V25H23zM25,24H26V25H25zM28,24H29V25H28zM29,24H30V25H29zM31,24H32V25H31zM34,24H35V25H34zM36,24H37V25H36zM39,24H40V25H39zM40,24H41V25H40zM43,24H44V25H43zM49,24H50V25H49zM51,24H52V25H51zM52,24H53V25H52zM55,24H56V25H55zM5,25H6V26H5zM7,25H8V26H7zM8,25H9V26H8zM9,25H10V26H9zM11,25H12V26H11zM12,25H13V26H12zM13,25H14V26H13zM16,25H17V26H16zM17,25H18V26H17zM19,25H20V26H19zM24,25H25V26H24zM31,25H32V26H31zM32,25H33V26H32zM33,25H34V26H33zM34,25H35V26H34zM40,25H41V26H40zM41,25H42V26H41zM42,25H43V26H42zM44,25H45V26H44zM46,25H47V26H46zM48,25H49V26H48zM49,25H50V26H49zM51,25H52V26H51zM53,25H54V26H53zM55,25H56V26H55zM56,25H57V26H56zM5,26H6V27H5zM6,26H7V27H6zM7,26H8V27H7zM8,26H9V27H8zM10,26H11V27H10zM12,26H13V27H12zM13,26H14V27H13zM15,26H16V27H15zM17,26H18V27H17zM18,26H19V27H18zM19,26H20V27H19zM21,26H22V27H21zM23,26H24V27H23zM24,26H25V27H24zM26,26H27V27H26zM28,26H29V27H28zM29,26H30V27H29zM30,26H31V27H30zM32,26H33V27H32zM33,26H34V27H33zM42,26H43V27H42zM46,26H47V27H46zM48,26H49V27H48zM49,26H50V27H49zM51,26H52V27H51zM54,26H55V27H54zM55,26H56V27H55zM56,26H57V27H56zM4,27H5V28H4zM5,27H6V28H5zM11,27H12V28H11zM13,27H14V28H13zM16,27H17V28H16zM18,27H19V28H18zM20,27H21V28H20zM23,27H24V28H23zM25,27H26V28H25zM27,27H28V28H27zM29,27H30V28H29zM32,27H33V28H32zM33,27H34V28H33zM36,27H37V28H36zM38,27H39V28H38zM39,27H40V28H39zM40,27H41V28H40zM41,27H42V28H41zM43,27H44V28H43zM45,27H46V28H45zM50,27H51V28H50zM52,27H53V28H52zM56,27H57V28H56zM5,28H6V29H5zM6,28H7V29H6zM7,28H8V29H7zM8,28H9V29H8zM9,28H10V29H9zM10,28H11V29H10zM11,28H12V29H11zM12,28H13V29H12zM15,28H16V29H15zM22,28H23V29H22zM24,28H25V29H24zM28,28H29V29H28zM29,28H30V29H29zM30,28H31V29H30zM31,28H32V29H31zM32,28H33V29H32zM33,28H34V29H33zM36,28H37V29H36zM37,28H38V29H37zM39,28H40V29H39zM40,28H41V29H40zM42,28H43V29H42zM43,28H44V29H43zM45,28H46V29H45zM47,28H48V29H47zM48,28H49V29H48zM49,28H50V29H49zM50,28H51V29H50zM51,28H52V29H51zM52,28H53V29H52zM53,28H54V29H53zM55,28H56V29H55zM4,29H5V30H4zM5,29H6V30H5zM6,29H7V30H6zM7,29H8V30H7zM8,29H9V30H8zM12,29H13V30H12zM15,29H16V30H15zM16,29H17V30H16zM17,29H18V30H17zM18,29H19V30H18zM19,29H20V30H19zM20,29H21V30H20zM21,29H22V30H21zM22,29H23V30H22zM23,29H24V30H23zM24,29H25V30H24zM25,29H26V30H25zM26,29H27V30H26zM27,29H28V30H27zM28,29H29V30H28zM32,29H33V30H32zM34,29H35V30H34zM37,29H38V30H37zM40,29H41V30H40zM42,29H43V30H42zM43,29H44V30H43zM44,29H45V30H44zM45,29H46V30H45zM46,29H47V30H46zM48,29H49V30H48zM52,29H53V30H52zM54,29H55V30H54zM55,29H56V30H55zM56,29H57V30H56zM5,30H6V31H5zM7,30H8V31H7zM8,30H9V31H8zM10,30H11V31H10zM12,30H13V31H12zM13,30H14V31H13zM14,30H15V31H14zM17,30H18V31H17zM18,30H19V31H18zM19,30H20V31H19zM21,30H22V31H21zM23,30H24V31H23zM28,30H29V31H28zM30,30H31V31H30zM32,30H33V31H32zM34,30H35V31H34zM37,30H38V31H37zM39,30H40V31H39zM45,30H46V31H45zM46,30H47V31H46zM47,30H48V31H47zM48,30H49V31H48zM50,30H51V31H50zM52,30H53V31H52zM56,30H57V31H56zM4,31H5V32H4zM5,31H6V32H5zM7,31H8V32H7zM8,31H9V32H8zM12,31H13V32H12zM16,31H17V32H16zM17,31H18V32H17zM18,31H19V32H18zM28,31H29V32H28zM32,31H33V32H32zM33,31H34V32H33zM34,31H35V32H34zM38,31H39V32H38zM39,31H40V32H39zM40,31H41V32H40zM41,31H42V32H41zM43,31H44V32H43zM46,31H47V32H46zM48,31H49V32H48zM52,31H53V32H52zM53,31H54V32H53zM55,31H56V32H55zM56,31H57V32H56zM4,32H5V33H4zM6,32H7V33H6zM7,32H8V33H7zM8,32H9V33H8zM9,32H10V33H9zM10,32H11V33H10zM11,32H12V33H11zM12,32H13V33H12zM13,32H14V33H13zM14,32H15V33H14zM16,32H17V33H16zM18,32H19V33H18zM20,32H21V33H20zM21,32H22V33H21zM22,32H23V33H22zM25,32H26V33H25zM27,32H28V33H27zM28,32H29V33H28zM29,32H30V33H29zM30,32H31V33H30zM31,32H32V33H31zM32,32H33V33H32zM36,32H37V33H36zM39,32H40V33H39zM40,32H41V33H40zM41,32H42V33H41zM43,32H44V33H43zM45,32H46V33H45zM46,32H47V33H46zM48,32H49V33H48zM49,32H50V33H49zM50,32H51V33H50zM51,32H52V33H51zM52,32H53V33H52zM53,32H54V33H53zM55,32H56V33H55zM4,33H5V34H4zM5,33H6V34H5zM7,33H8V34H7zM8,33H9V34H8zM9,33H10V34H9zM11,33H12V34H11zM14,33H15V34H14zM16,33H17V34H16zM17,33H18V34H17zM24,33H25V34H24zM25,33H26V34H25zM27,33H28V34H27zM31,33H32V34H31zM33,33H34V34H33zM34,33H35V34H34zM36,33H37V34H36zM37,33H38V34H37zM39,33H40V34H39zM42,33H43V34H42zM43,33H44V34H43zM46,33H47V34H46zM51,33H52V34H51zM52,33H53V34H52zM56,33H57V34H56zM4,34H5V35H4zM6,34H7V35H6zM7,34H8V35H7zM10,34H11V35H10zM12,34H13V35H12zM14,34H15V35H14zM15,34H16V35H15zM19,34H20V35H19zM22,34H23V35H22zM25,34H26V35H25zM26,34H27V35H26zM27,34H28V35H27zM28,34H29V35H28zM29,34H30V35H29zM30,34H31V35H30zM34,34H35V35H34zM36,34H37V35H36zM37,34H38V35H37zM38,34H39V35H38zM40,34H41V35H40zM42,34H43V35H42zM43,34H44V35H43zM44,34H45V35H44zM46,34H47V35H46zM47,34H48V35H47zM48,34H49V35H48zM49,34H50V35H49zM50,34H51V35H50zM51,34H52V35H51zM52,34H53V35H52zM53,34H54V35H53zM54,34H55V35H54zM56,34H57V35H56zM4,35H5V36H4zM5,35H6V36H5zM8,35H9V36H8zM9,35H10V36H9zM11,35H12V36H11zM12,35H13V36H12zM13,35H14V36H13zM14,35H15V36H14zM15,35H16V36H15zM17,35H18V36H17zM19,35H20V36H19zM20,35H21V36H20zM21,35H22V36H21zM22,35H23V36H22zM25,35H26V36H25zM26,35H27V36H26zM27,35H28V36H27zM28,35H29V36H28zM30,35H31V36H30zM32,35H33V36H32zM34,35H35V36H34zM35,35H36V36H35zM40,35H41V36H40zM41,35H42V36H41zM42,35H43V36H42zM47,35H48V36H47zM48,35H49V36H48zM49,35H50V36H49zM51,35H52V36H51zM55,35H56V36H55zM56,35H57V36H56zM4,36H5V37H4zM6,36H7V37H6zM8,36H9V37H8zM9,36H10V37H9zM10,36H11V37H10zM12,36H13V37H12zM13,36H14V37H13zM15,36H16V37H15zM16,36H17V37H16zM17,36H18V37H17zM18,36H19V37H18zM19,36H20V37H19zM21,36H22V37H21zM23,36H24V37H23zM24,36H25V37H24zM25,36H26V37H25zM27,36H28V37H27zM28,36H29V37H28zM30,36H31V37H30zM31,36H32V37H31zM32,36H33V37H32zM33,36H34V37H33zM34,36H35V37H34zM36,36H37V37H36zM39,36H40V37H39zM40,36H41V37H40zM41,36H42V37H41zM42,36H43V37H42zM45,36H46V37H45zM46,36H47V37H46zM47,36H48V37H47zM49,36H50V37H49zM50,36H51V37H50zM53,36H54V37H53zM4,37H5V38H4zM5,37H6V38H5zM6,37H7V38H6zM7,37H8V38H7zM11,37H12V38H11zM12,37H13V38H12zM13,37H14V38H13zM14,37H15V38H14zM18,37H19V38H18zM22,37H23V38H22zM25,37H26V38H25zM27,37H28V38H27zM30,37H31V38H30zM32,37H33V38H32zM34,37H35V38H34zM35,37H36V38H35zM36,37H37V38H36zM37,37H38V38H37zM39,37H40V38H39zM40,37H41V38H40zM42,37H43V38H42zM43,37H44V38H43zM44,37H45V38H44zM46,37H47V38H46zM47,37H48V38H47zM49,37H50V38H49zM50,37H51V38H50zM51,37H52V38H51zM52,37H53V38H52zM53,37H54V38H53zM55,37H56V38H55zM56,37H57V38H56zM6,38H7V39H6zM7,38H8V39H7zM8,38H9V39H8zM10,38H11V39H10zM11,38H12V39H11zM13,38H14V39H13zM14,38H15V39H14zM16,38H17V39H16zM17,38H18V39H17zM18,38H19V39H18zM20,38H21V39H20zM22,38H23V39H22zM24,38H25V39H24zM26,38H27V39H26zM27,38H28V39H27zM28,38H29V39H28zM29,38H30V39H29zM31,38H32V39H31zM34,38H35V39H34zM35,38H36V39H35zM37,38H38V39H37zM39,38H40V39H39zM40,38H41V39H40zM42,38H43V39H42zM43,38H44V39H43zM45,38H46V39H45zM46,38H47V39H46zM50,38H51V39H50zM56,38H57V39H56zM4,39H5V40H4zM5,39H6V40H5zM7,39H8V40H7zM12,39H13V40H12zM16,39H17V40H16zM18,39H19V40H18zM19,39H20V40H19zM20,39H21V40H20zM21,39H22V40H21zM23,39H24V40H23zM24,39H25V40H24zM27,39H28V40H27zM28,39H29V40H28zM29,39H30V40H29zM30,39H31V40H30zM32,39H33V40H32zM37,39H38V40H37zM38,39H39V40H38zM39,39H40V40H39zM40,39H41V40H40zM43,39H44V40H43zM45,39H46V40H45zM47,39H48V40H47zM49,39H50V40H49zM51,39H52V40H51zM52,39H53V40H52zM53,39H54V40H53zM55,39H56V40H55zM56,39H57V40H56zM5,40H6V41H5zM6,40H7V41H6zM8,40H9V41H8zM10,40H11V41H10zM11,40H12V41H11zM12,40H13V41H12zM13,40H14V41H13zM16,40H17V41H16zM18,40H19V41H18zM19,40H20V41H19zM20,40H21V41H20zM21,40H22V41H21zM22,40H23V41H22zM25,40H26V41H25zM28,40H29V41H28zM29,40H30V41H29zM30,40H31V41H30zM31,40H32V41H31zM32,40H33V41H32zM33,40H34V41H33zM36,40H37V41H36zM37,40H38V41H37zM38,40H39V41H38zM39,40H40V41H39zM40,40H41V41H40zM42,40H43V41H42zM43,40H44V41H43zM45,40H46V41H45zM46,40H47V41H46zM47,40H48V41H47zM49,40H50V41H49zM50,40H51V41H50zM51,40H52V41H51zM53,40H54V41H53zM56,40H57V41H56zM9,41H10V42H9zM12,41H13V42H12zM13,41H14V42H13zM15,41H16V42H15zM16,41H17V42H16zM18,41H19V42H18zM19,41H20V42H19zM21,41H22V42H21zM22,41H23V42H22zM23,41H24V42H23zM24,41H25V42H24zM27,41H28V42H27zM28,41H29V42H28zM33,41H34V42H33zM34,41H35V42H34zM35,41H36V42H35zM37,41H38V42H37zM39,41H40V42H39zM42,41H43V42H42zM46,41H47V42H46zM47,41H48V42H47zM50,41H51V42H50zM51,41H52V42H51zM52,41H53V42H52zM55,41H56V42H55zM56,41H57V42H56zM5,42H6V43H5zM10,42H11V43H10zM11,42H12V43H11zM13,42H14V43H13zM16,42H17V43H16zM17,42H18V43H17zM18,42H19V43H18zM21,42H22V43H21zM23,42H24V43H23zM24,42H25V43H24zM27,42H28V43H27zM28,42H29V43H28zM29,42H30V43H29zM31,42H32V43H31zM32,42H33V43H32zM34,42H35V43H34zM36,42H37V43H36zM37,42H38V43H37zM39,42H40V43H39zM41,42H42V43H41zM42,42H43V43H42zM45,42H46V43H45zM46,42H47V43H46zM47,42H48V43H47zM50,42H51V43H50zM53,42H54V43H53zM54,42H55V43H54zM56,42H57V43H56zM4,43H5V44H4zM5,43H6V44H5zM8,43H9V44H8zM11,43H12V44H11zM12,43H13V44H12zM13,43H14V44H13zM14,43H15V44H14zM15,43H16V44H15zM18,43H19V44H18zM19,43H20V44H19zM20,43H21V44H20zM23,43H24V44H23zM32,43H33V44H32zM33,43H34V44H33zM36,43H37V44H36zM37,43H38V44H37zM38,43H39V44H38zM40,43H41V44H40zM42,43H43V44H42zM43,43H44V44H43zM46,43H47V44H46zM47,43H48V44H47zM48,43H49V44H48zM49,43H50V44H49zM51,43H52V44H51zM53,43H54V44H53zM56,43H57V44H56zM4,44H5V45H4zM5,44H6V45H5zM6,44H7V45H6zM7,44H8V45H7zM10,44H11V45H10zM12,44H13V45H12zM13,44H14V45H13zM22,44H23V45H22zM23,44H24V45H23zM24,44H25V45H24zM25,44H26V45H25zM28,44H29V45H28zM30,44H31V45H30zM36,44H37V45H36zM37,44H38V45H37zM39,44H40V45H39zM40,44H41V45H40zM42,44H43V45H42zM43,44H44V45H43zM45,44H46V45H45zM46,44H47V45H46zM47,44H48V45H47zM48,44H49V45H48zM49,44H50V45H49zM50,44H51V45H50zM56,44H57V45H56zM5,45H6V46H5zM8,45H9V46H8zM9,45H10V46H9zM11,45H12V46H11zM12,45H13V46H12zM15,45H16V46H15zM16,45H17V46H16zM17,45H18V46H17zM18,45H19V46H18zM19,45H20V46H19zM20,45H21V46H20zM21,45H22V46H21zM22,45H23V46H22zM23,45H24V46H23zM24,45H25V46H24zM25,45H26V46H25zM27,45H28V46H27zM29,45H30V46H29zM34,45H35V46H34zM36,45H37V46H36zM37,45H38V46H37zM40,45H41V46H40zM42,45H43V46H42zM44,45H45V46H44zM45,45H46V46H45zM46,45H47V46H46zM50,45H51V46H50zM51,45H52V46H51zM52,45H53V46H52zM54,45H55V46H54zM56,45H57V46H56zM4,46H5V47H4zM5,46H6V47H5zM7,46H8V47H7zM8,46H9V47H8zM9,46H10V47H9zM10,46H11V47H10zM14,46H15V47H14zM18,46H19V47H18zM19,46H20V47H19zM21,46H22V47H21zM22,46H23V47H22zM23,46H24V47H23zM24,46H25V47H24zM27,46H28V47H27zM28,46H29V47H28zM30,46H31V47H30zM34,46H35V47H34zM35,46H36V47H35zM42,46H43V47H42zM45,46H46V47H45zM46,46H47V47H46zM49,46H50V47H49zM50,46H51V47H50zM51,46H52V47H51zM53,46H54V47H53zM56,46H57V47H56zM5,47H6V48H5zM6,47H7V48H6zM11,47H12V48H11zM12,47H13V48H12zM13,47H14V48H13zM15,47H16V48H15zM16,47H17V48H16zM17,47H18V48H17zM18,47H19V48H18zM21,47H22V48H21zM25,47H26V48H25zM29,47H30V48H29zM32,47H33V48H32zM37,47H38V48H37zM38,47H39V48H38zM39,47H40V48H39zM41,47H42V48H41zM43,47H44V48H43zM46,47H47V48H46zM47,47H48V48H47zM48,47H49V48H48zM49,47H50V48H49zM53,47H54V48H53zM7,48H8V49H7zM10,48H11V49H10zM11,48H12V49H11zM18,48H19V49H18zM19,48H20V49H19zM21,48H22V49H21zM22,48H23V49H22zM25,48H26V49H25zM27,48H28V49H27zM28,48H29V49H28zM29,48H30V49H29zM30,48H31V49H30zM31,48H32V49H31zM32,48H33V49H32zM34,48H35V49H34zM36,48H37V49H36zM38,48H39V49H38zM39,48H40V49H39zM40,48H41V49H40zM42,48H43V49H42zM43,48H44V49H43zM47,48H48V49H47zM48,48H49V49H48zM49,48H50V49H49zM50,48H51V49H50zM51,48H52V49H51zM52,48H53V49H52zM53,48H54V49H53zM55,48H56V49H55zM56,48H57V49H56zM12,49H13V50H12zM17,49H18V50H17zM18,49H19V50H18zM19,49H20V50H19zM21,49H22V50H21zM22,49H23V50H22zM24,49H25V50H24zM27,49H28V50H27zM28,49H29V50H28zM32,49H33V50H32zM33,49H34V50H33zM34,49H35V50H34zM37,49H38V50H37zM40,49H41V50H40zM42,49H43V50H42zM44,49H45V50H44zM46,49H47V50H46zM48,49H49V50H48zM52,49H53V50H52zM53,49H54V50H53zM54,49H55V50H54zM55,49H56V50H55zM56,49H57V50H56zM4,50H5V51H4zM5,50H6V51H5zM6,50H7V51H6zM7,50H8V51H7zM8,50H9V51H8zM9,50H10V51H9zM10,50H11V51H10zM16,50H17V51H16zM20,50H21V51H20zM22,50H23V51H22zM23,50H24V51H23zM24,50H25V51H24zM26,50H27V51H26zM28,50H29V51H28zM30,50H31V51H30zM32,50H33V51H32zM33,50H34V51H33zM34,50H35V51H34zM36,50H37V51H36zM37,50H38V51H37zM38,50H39V51H38zM39,50H40V51H39zM40,50H41V51H40zM41,50H42V51H41zM42,50H43V51H42zM44,50H45V51H44zM46,50H47V51H46zM47,50H48V51H47zM48,50H49V51H48zM50,50H51V51H50zM52,50H53V51H52zM53,50H54V51H53zM54,50H55V51H54zM56,50H57V51H56zM4,51H5V52H4zM10,51H11V52H10zM12,51H13V52H12zM14,51H15V52H14zM15,51H16V52H15zM16,51H17V52H16zM17,51H18V52H17zM18,51H19V52H18zM21,51H22V52H21zM22,51H23V52H22zM27,51H28V52H27zM28,51H29V52H28zM32,51H33V52H32zM33,51H34V52H33zM36,51H37V52H36zM37,51H38V52H37zM38,51H39V52H38zM41,51H42V52H41zM42,51H43V52H42zM43,51H44V52H43zM46,51H47V52H46zM47,51H48V52H47zM48,51H49V52H48zM52,51H53V52H52zM53,51H54V52H53zM55,51H56V52H55zM56,51H57V52H56zM4,52H5V53H4zM6,52H7V53H6zM7,52H8V53H7zM8,52H9V53H8zM10,52H11V53H10zM12,52H13V53H12zM13,52H14V53H13zM16,52H17V53H16zM17,52H18V53H17zM18,52H19V53H18zM19,52H20V53H19zM21,52H22V53H21zM25,52H26V53H25zM28,52H29V53H28zM29,52H30V53H29zM30,52H31V53H30zM31,52H32V53H31zM32,52H33V53H32zM36,52H37V53H36zM39,52H40V53H39zM40,52H41V53H40zM41,52H42V53H41zM43,52H44V53H43zM46,52H47V53H46zM48,52H49V53H48zM49,52H50V53H49zM50,52H51V53H50zM51,52H52V53H51zM52,52H53V53H52zM53,52H54V53H53zM55,52H56V53H55zM4,53H5V54H4zM6,53H7V54H6zM7,53H8V54H7zM8,53H9V54H8zM10,53H11V54H10zM13,53H14V54H13zM14,53H15V54H14zM16,53H17V54H16zM18,53H19V54H18zM22,53H23V54H22zM24,53H25V54H24zM27,53H28V54H27zM28,53H29V54H28zM29,53H30V54H29zM30,53H31V54H30zM32,53H33V54H32zM34,53H35V54H34zM37,53H38V54H37zM39,53H40V54H39zM42,53H43V54H42zM43,53H44V54H43zM45,53H46V54H45zM46,53H47V54H46zM4,54H5V55H4zM6,54H7V55H6zM7,54H8V55H7zM8,54H9V55H8zM10,54H11V55H10zM13,54H14V55H13zM14,54H15V55H14zM15,54H16V55H15zM16,54H17V55H16zM17,54H18V55H17zM20,54H21V55H20zM25,54H26V55H25zM26,54H27V55H26zM27,54H28V55H27zM28,54H29V55H28zM29,54H30V55H29zM30,54H31V55H30zM32,54H33V55H32zM33,54H34V55H33zM34,54H35V55H34zM39,54H40V55H39zM40,54H41V55H40zM42,54H43V55H42zM43,54H44V55H43zM45,54H46V55H45zM46,54H47V55H46zM47,54H48V55H47zM54,54H55V55H54zM4,55H5V56H4zM10,55H11V56H10zM12,55H13V56H12zM13,55H14V56H13zM15,55H16V56H15zM16,55H17V56H16zM17,55H18V56H17zM18,55H19V56H18zM19,55H20V56H19zM20,55H21V56H20zM21,55H22V56H21zM22,55H23V56H22zM23,55H24V56H23zM24,55H25V56H24zM26,55H27V56H26zM27,55H28V56H27zM28,55H29V56H28zM29,55H30V56H29zM30,55H31V56H30zM32,55H33V56H32zM37,55H38V56H37zM39,55H40V56H39zM40,55H41V56H40zM41,55H42V56H41zM43,55H44V56H43zM45,55H46V56H45zM48,55H49V56H48zM50,55H51V56H50zM53,55H54V56H53zM55,55H56V56H55zM56,55H57V56H56zM4,56H5V57H4zM5,56H6V57H5zM6,56H7V57H6zM7,56H8V57H7zM8,56H9V57H8zM9,56H10V57H9zM10,56H11V57H10zM12,56H13V57H12zM15,56H16V57H15zM18,56H19V57H18zM20,56H21V57H20zM22,56H23V57H22zM23,56H24V57H23zM25,56H26V57H25zM27,56H28V57H27zM28,56H29V57H28zM31,56H32V57H31zM33,56H34V57H33zM36,56H37V57H36zM37,56H38V57H37zM38,56H39V57H38zM39,56H40V57H39zM40,56H41V57H40zM41,56H42V57H41zM42,56H43V57H42zM46,56H47V57H46zM48,56H49V57H48zM50,56H51V57H50zM51,56H52V57H51zM55,56H56V57H55z" id="qr-path" fill="#000000" fill-opacity="1" fill-rule="nonzero" stroke="none"/></svg>