<?xml version='1.0' encoding='UTF-8'?>
<svg width="61mm" height="61mm" version="1.1" viewBox="0 0 61 61" xmlns="http://www.w3.org/2000/svg"><path d="M4,4H5V5H4zM5,4H6V5H5zM6,4H7V5H6zM7,4H8V5H7zM8,4H9V5H8zM9,4H10V5H9zM10,4H11V5H10zM13,4H14V5H13zM15,4H16V5H15zM16,4H17V5H16zM17,4H18V5H17zM19,4H20V5H19zM22,4H23V5H22zM23,4H24V5H23zM24,4H25V5H24zM28,4H29V5H28zM29,4H30V5H29zM30,4H31V5H30zM31,4H32V5H31zM32,4H33V5H32zM33,4H34V5H33zM34,4H35V5H34zM35,4H36V5H35zM36,4H37V5H36zM39,4H40V5H39zM40,4H41V5H40zM41,4H42V5H41zM43,4H44V5H43zM44,4H45V5H44zM45,4H46V5H45zM46,4H47V5H46zM50,4H51V5H50zM51,4H52V5H51zM52,4H53V5H52zM53,4H54V5H53zM54,4H55V5H54zM55,4H56V5H55zM56,4H57V5H56zM4,5H5V6H4zM10,5H11V6H10zM12,5H13V6H12zM14,5H15V6H14zM16,5H17V6H16zM21,5H22V6H21zM22,5H23V6H22zM24,5H25V6H24zM27,5H28V6H27zM28,5H29V6H28zM29,5H30V6H29zM35,5H36V6H35zM36,5H37V6H36zM40,5H41V6H40zM42,5H43V6H42zM46,5H47V6H46zM47,5H48V6H47zM50,5H51V6H50zM56,5H57V6H56zM4,6H5V7H4zM6,6H7V7H6zM7,6H8V7H7zM8,6H9V7H8zM10,6H11V7H10zM13,6H14V7H13zM14,6H15V7H14zM16,6H17V7H16zM17,6H18V7H17zM18,6H19V7H18zM19,6H20V7H19zM21,6H22V7H21zM22,6H23V7H22zM23,6H24V7H23zM24,6H25V7H24zM26,6H27V7H26zM28,6H29V7H28zM29,6H30V7H29zM32,6H33V7H32zM33,6H34V7H33zM36,6H37V7H36zM38,6H39V7H38zM41,6H42V7H41zM43,6H44V7H43zM44,6H45V7H44zM47,6H48V7H47zM50,6H51V7H50zM52,6H53V7H52zM53,6H54V7H53zM54,6H55V7H54zM56,6H57V7H56zM4,7H5V8H4zM6,7H7V8H6zM7,7H8V8H7zM8,7H9V8H8zM10,7H11V8H10zM12,7H13V8H12zM13,7H14V8H13zM14,7H15V8H14zM16,7H17V8H16zM17,7H18V8H17zM20,7H21V8H20zM22,7H23V8H22zM24,7H25V8H24zM25,7H26V8H25zM27,7H28V8H27zM29,7H30V8H29zM30,7H31V8H30zM31,7H32V8H31zM35,7H36V8H35zM39,7H40V8H39zM40,7H41V8H40zM45,7H46V8H45zM46,7H47V8H46zM48,7H49V8H48zM50,7H51V8H50zM52,7H53V8H52zM53,7H54V8H53zM54,7H55V8H54zM56,7H57V8H56zM4,8H5V9H4zM6,8H7V9H6zM7,8H8V9H7zM8,8H9V9H8zM10,8H11V9H10zM15,8H16V9H15zM17,8H18V9H17zM18,8H19V9H18zM21,8H22V9H21zM23,8H24V9H23zM26,8H27V9H26zM27,8H28V9H27zM28,8H29V9H28zM29,8H30V9H29zM30,8H31V9H30zM31,8H32V9H31zM32,8H33V9H32zM34,8H35V9H34zM41,8H42V9H41zM44,8H45V9H44zM45,8H46V9H45zM46,8H47V9H46zM50,8H51V9H50zM52,8H53V9H52zM53,8H54V9H53zM54,8H55V9H54zM56,8H57V9H56zM4,9H5V10H4zM10,9H11V10H10zM12,9H13V10H12zM17,9H18V10H17zM18,9H19V10H18zM22,9H23V10H22zM23,9H24V10H23zM26,9H27V10H26zM28,9H29V10H28zM32,9H33V10H32zM33,9H34V10H33zM37,9H38V10H37zM38,9H39V10H38zM39,9H40V10H39zM40,9H41V10H40zM42,9H43V10H42zM44,9H45V10H44zM46,9H47V10H46zM50,9H51V10H50zM56,9H57V10H56zM4,10H5V11H4zM5,10H6V11H5zM6,10H7V11H6zM7,10H8V11H7zM8,10H9V11H8zM9,10H10V11H9zM10,10H11V11H10zM12,10H13V11H12zM14,10H15V11H14zM16,10H17V11H16zM18,10H19V11H18zM20,10H21V11H20zM22,10H23V11H22zM24,10H25V11H24zM26,10H27V11H26zM28,10H29V11H28zM30,10H31V11H30zM32,10H33V11H32zM34,10H35V11H34zM36,10H37V11H36zM38,10H39V11H38zM40,10H41V11H40zM42,10H43V11H42zM44,10H45V11H44zM46,10H47V11H46zM48,10H49V11H48zM50,10H51V11H50zM51,10H52V11H51zM52,10H53V11H52zM53,10H54V11H53zM54,10H55V11H54zM55,10H56V11H55zM56,10H57V11H56zM16,11H17V12H16zM18,11H19V12H18zM21,11H22V12H21zM22,11H23V12H22zM23,11H24V12H23zM24,11H25V12H24zM25,11H26V12H25zM26,11H27V12H26zM28,11H29V12H28zM32,11H33V12H32zM33,11H34V12H33zM36,11H37V12H36zM37,11H38V12H37zM39,11H40V12H39zM40,11H41V12H40zM42,11H43V12H42zM44,11H45V12H44zM45,11H46V12H45zM46,11H47V12H46zM47,11H48V12H47zM48,11H49V12H48zM4,12H5V13H4zM5,12H6V13H5zM6,12H7V13H6zM7,12H8V13H7zM8,12H9V13H8zM10,12H11V13H10zM11,12H12V13H11zM12,12H13V13H12zM13,12H14V13H13zM14,12H15V13H14zM17,12H18V13H17zM18,12H19V13H18zM19,12H20V13H19zM22,12H23V13H22zM23,12H24V13H23zM26,12H27V13H26zM28,12H29V13H28zM29,12H30V13H29zM30,12H31V13H30zM31,12H32V13H31zM32,12H33V13H32zM35,12H36V13H35zM37,12H38V13H37zM38,12H39V13H38zM39,12H40V13H39zM40,12H41V13H40zM41,12H42V13H41zM47,12H48V13H47zM48,12H49V13H48zM49,12H50V13H49zM51,12H52V13H51zM53,12H54V13H53zM55,12H56V13H55zM5,13H6V14H5zM6,13H7V14H6zM8,13H9V14H8zM9,13H10V14H9zM12,13H13V14H12zM13,13H14V14H13zM14,13H15V14H14zM20,13H21V14H20zM21,13H22V14H21zM22,13H23V14H22zM25,13H26V14H25zM27,13H28V14H27zM28,13H29V14H28zM30,13H31V14H30zM31,13H32V14H31zM33,13H34V14H33zM34,13H35V14H34zM35,13H36V14H35zM36,13H37V14H36zM37,13H38V14H37zM39,13H40V14H39zM40,13H41V14H40zM41,13H42V14H41zM45,13H46V14H45zM46,13H47V14H46zM47,13H48V14H47zM51,13H52V14H51zM52,13H53V14H52zM56,13H57V14H56zM4,14H5V15H4zM5,14H6V15H5zM6,14H7V15H6zM10,14H11V15H10zM11,14H12V15H11zM14,14H15V15H14zM15,14H16V15H15zM19,14H20V15H19zM20,14H21V15H20zM23,14H24V15H23zM25,14H26V15H25zM28,14H29V15H28zM29,14H30V15H29zM37,14H38V15H37zM38,14H39V15H38zM39,14H40V15H39zM42,14H43V15H42zM47,14H48V15H47zM49,14H50V15H49zM50,14H51V15H50zM51,14H52V15H51zM53,14H54V15H53zM4,15H5V16H4zM6,15H7V16H6zM7,15H8V16H7zM8,15H9V16H8zM9,15H10V16H9zM11,15H12V16H11zM12,15H13V16H12zM13,15H14V16H13zM17,15H18V16H17zM18,15H19V16H18zM20,15H21V16H20zM21,15H22V16H21zM22,15H23V16H22zM27,15H28V16H27zM29,15H30V16H29zM35,15H36V16H35zM37,15H38V16H37zM40,15H41V16H40zM41,15H42V16H41zM43,15H44V16H43zM44,15H45V16H44zM45,15H46V16H45zM46,15H47V16H46zM47,15H48V16H47zM50,15H51V16H50zM53,15H54V16H53zM55,15H56V16H55zM5,16H6V17H5zM7,16H8V17H7zM9,16H10V17H9zM10,16H11V17H10zM12,16H13V17H12zM15,16H16V17H15zM16,16H17V17H16zM17,16H18V17H17zM19,16H20V17H19zM20,16H21V17H20zM21,16H22V17H21zM22,16H23V17H22zM24,16H25V17H24zM30,16H31V17H30zM33,16H34V17H33zM34,16H35V17H34zM35,16H36V17H35zM37,16H38V17H37zM38,16H39V17H38zM39,16H40V17H39zM40,16H41V17H40zM41,16H42V17H41zM45,16H46V17H45zM48,16H49V17H48zM50,16H51V17H50zM51,16H52V17H51zM52,16H53V17H52zM53,16H54V17H53zM54,16H55V17H54zM55,16H56V17H55zM8,17H9V18H8zM9,17H10V18H9zM12,17H13V18H12zM13,17H14V18H13zM14,17H15V18H14zM16,17H17V18H16zM18,17H19V18H18zM22,17H23V18H22zM25,17H26V18H25zM26,17H27V18H26zM27,17H28V18H27zM32,17H33V18H32zM33,17H34V18H33zM34,17H35V18H34zM36,17H37V18H36zM39,17H40V18H39zM40,17H41V18H40zM44,17H45V18H44zM46,17H47V18H46zM47,17H48V18H47zM51,17H52V18H51zM52,17H53V18H52zM55,17H56V18H55zM56,17H57V18H56zM5,18H6V19H5zM8,18H9V19H8zM10,18H11V19H10zM14,18H15V19H14zM15,18H16V19H15zM20,18H21V19H20zM21,18H22V19H21zM25,18H26V19H25zM27,18H28V19H27zM30,18H31V19H30zM34,18H35V19H34zM36,18H37V19H36zM41,18H42V19H41zM42,18H43V19H42zM43,18H44V19H43zM45,18H46V19H45zM47,18H48V19H47zM49,18H50V19H49zM50,18H51V19H50zM53,18H54V19H53zM54,18H55V19H54zM5,19H6V20H5zM9,19H10V20H9zM12,19H13V20H12zM13,19H14V20H13zM15,19H16V20H15zM16,19H17V20H16zM17,19H18V20H17zM19,19H20V20H19zM23,19H24V20H23zM27,19H28V20H27zM28,19H29V20H28zM29,19H30V20H29zM32,19H33V20H32zM33,19H34V20H33zM34,19H35V20H34zM36,19H37V20H36zM39,19H40V20H39zM43,19H44V20H43zM44,19H45V20H44zM49,19H50V20H49zM50,19H51V20H50zM5,20H6V21H5zM6,20H7V21H6zM7,20H8V21H7zM8,20H9V21H8zM10,20H11V21H10zM11,20H12V21H11zM14,20H15V21H14zM15,20H16V21H15zM21,20H22V21H21zM25,20H26V21H25zM27,20H28V21H27zM28,20H29V21H28zM29,20H30V21H29zM31,20H32V21H31zM34,20H35V21H34zM35,20H36V21H35zM37,20H38V21H37zM38,20H39V21H38zM40,20H41V21H40zM41,20H42V21H41zM42,20H43V21H42zM45,20H46V21H45zM46,20H47V21H46zM48,20H49V21H48zM52,20H53V21H52zM53,20H54V21H53zM54,20H55V21H54zM56,20H57V21H56zM6,21H7V22H6zM7,21H8V22H7zM8,21H9V22H8zM9,21H10V22H9zM12,21H13V22H12zM13,21H14V22H13zM14,21H15V22H14zM16,21H17V22H16zM17,21H18V22H17zM19,21H20V22H19zM22,21H23V22H22zM23,21H24V22H23zM24,21H25V22H24zM27,21H28V22H27zM29,21H30V22H29zM30,21H31V22H30zM32,21H33V22H32zM33,21H34V22H33zM34,21H35V22H34zM35,21H36V22H35zM39,21H40V22H39zM40,21H41V22H40zM41,21H42V22H41zM43,21H44V22H43zM45,21H46V22H45zM46,21H47V22H46zM47,21H48V22H47zM52,21H53V22H52zM53,21H54V22H53zM56,21H57V22H56zM5,22H6V23H5zM10,22H11V23H10zM11,22H12V23H11zM13,22H14V23H13zM18,22H19V23H18zM21,22H22V23H21zM24,22H25V23H24zM25,22H26V23H25zM26,22H27V23H26zM28,22H29V23H28zM29,22H30V23H29zM30,22H31V23H30zM33,22H34V23H33zM35,22H36V23H35zM37,22H38V23H37zM38,22H39V23H38zM39,22H40V23H39zM40,22H41V23H40zM42,22H43V23H42zM49,22H50V23H49zM50,22H51V23H50zM51,22H52V23H51zM52,22H53V23H52zM53,22H54V23H53zM8,23H9V24H8zM9,23H10V24H9zM11,23H12V24H11zM15,23H16V24H15zM17,23H18V24H17zM19,23H20V24H19zM21,23H22V24H21zM23,23H24V24H23zM24,23H25V24H24zM25,23H26V24H25zM28,23H29V24H28zM29,23H30V24H29zM31,23H32V24H31zM32,23H33V24H32zM36,23H37V24H36zM37,23H38V24H37zM39,23H40V24H39zM40,23H41V24H40zM41,23H42V24H41zM42,23H43V24H42zM43,23H44V24H43zM45,23H46V24H45zM47,23H48V24H47zM50,23H51V24H50zM53,23H54V24H53zM55,23H56V24H55zM4,24H5V25H4zM5,24H6V25H5zM6,24H7V25H6zM8,24H9V25H8zM9,24H10V25H9zM10,24H11V25H10zM13,24H14V25H13zM15,24H16V25H15zM17,24H18V25H17zM20,24H21V25H20zM21,24H22V25H21zM22,24H23V25H22zM24,24H25V25H24zM27,24H28V25H27zM30,24H31V25H30zM31,24H32V25H31zM35,24H36V25H35zM38,24H39V25H38zM39,24H40V25H39zM40,24H41V25H40zM41,24H42V25H41zM45,24H46V25H45zM46,24H47V25H46zM48,24H49V25H48zM49,24H50V25H49zM50,24H51V25H50zM51,24H52V25H51zM52,24H53V25H52zM53,24H54V25H53zM54,24H55V25H54zM5,25H6V26H5zM15,25H16V26H15zM18,25H19V26H18zM23,25H24V26H23zM25,25H26V26H25zM32,25H33V26H32zM33,25H34V26H33zM34,25H35V26H34zM35,25H36V26H35zM39,25H40V26H39zM40,25H41V26H40zM41,25H42V26H41zM43,25H44V26H43zM45,25H46V26H45zM46,25H47V26H46zM47,25H48V26H47zM49,25H50V26H49zM51,25H52V26H51zM54,25H55V26H54zM56,25H57V26H56zM9,26H10V27H9zM10,26H11V27H10zM11,26H12V27H11zM15,26H16V27H15zM17,26H18V27H17zM18,26H19V27H18zM19,26H20V27H19zM20,26H21V27H20zM22,26H23V27H22zM23,26H24V27H23zM24,26H25V27H24zM26,26H27V27H26zM27,26H28V27H27zM29,26H30V27H29zM30,26H31V27H30zM36,26H37V27H36zM38,26H39V27H38zM39,26H40V27H39zM42,26H43V27H42zM43,26H44V27H43zM44,26H45V27H44zM50,26H51V27H50zM52,26H53V27H52zM54,26H55V27H54zM55,26H56V27H55zM5,27H6V28H5zM6,27H7V28H6zM9,27H10V28H9zM12,27H13V28H12zM14,27H15V28H14zM16,27H17V28H16zM18,27H19V28H18zM21,27H22V28H21zM22,27H23V28H22zM23,27H24V28H23zM25,27H26V28H25zM26,27H27V28H26zM28,27H29V28H28zM29,27H30V28H29zM34,27H35V28H34zM36,27H37V28H36zM41,27H42V28H41zM43,27H44V28H43zM44,27H45V28H44zM46,27H47V28H46zM47,27H48V28H47zM48,27H49V28H48zM51,27H52V28H51zM4,28H5V29H4zM6,28H7V29H6zM8,28H9V29H8zM9,28H10V29H9zM10,28H11V29H10zM11,28H12V29H11zM12,28H13V29H12zM14,28H15V29H14zM15,28H16V29H15zM16,28H17V29H16zM17,28H18V29H17zM18,28H19V29H18zM19,28H20V29H19zM22,28H23V29H22zM23,28H24V29H23zM26,28H27V29H26zM28,28H29V29H28zM29,28H30V29H29zM30,28H31V29H30zM31,28H32V29H31zM32,28H33V29H32zM33,28H34V29H33zM35,28H36V29H35zM39,28H40V29H39zM40,28H41V29H40zM41,28H42V29H41zM45,28H46V29H45zM48,28H49V29H48zM49,28H50V29H49zM50,28H51V29H50zM51,28H52V29H51zM52,28H53V29H52zM54,28H55V29H54zM4,29H5V30H4zM8,29H9V30H8zM12,29H13V30H12zM13,29H14V30H13zM14,29H15V30H14zM20,29H21V30H20zM21,29H22V30H21zM22,29H23V30H22zM25,29H26V30H25zM27,29H28V30H27zM28,29H29V30H28zM32,29H33V30H32zM34,29H35V30H34zM35,29H36V30H35zM36,29H37V30H36zM40,29H41V30H40zM41,29H42V30H41zM44,29H45V30H44zM45,29H46V30H45zM46,29H47V30H46zM47,29H48V30H47zM48,29H49V30H48zM52,29H53V30H52zM53,29H54V30H53zM56,29H57V30H56zM7,30H8V31H7zM8,30H9V31H8zM10,30H11V31H10zM12,30H13V31H12zM13,30H14V31H13zM17,30H18V31H17zM18,30H19V31H18zM19,30H20V31H19zM20,30H21V31H20zM22,30H23V31H22zM23,30H24V31H23zM26,30H27V31H26zM27,30H28V31H27zM28,30H29V31H28zM30,30H31V31H30zM32,30H33V31H32zM33,30H34V31H33zM37,30H38V31H37zM38,30H39V31H38zM40,30H41V31H40zM44,30H45V31H44zM47,30H48V31H47zM48,30H49V31H48zM50,30H51V31H50zM52,30H53V31H52zM4,31H5V32H4zM5,31H6V32H5zM8,31H9V32H8zM12,31H13V32H12zM15,31H16V32H15zM17,31H18V32H17zM18,31H19V32H18zM20,31H21V32H20zM21,31H22V32H21zM22,31H23V32H22zM26,31H27V32H26zM27,31H28V32H27zM28,31H29V32H28zM32,31H33V32H32zM33,31H34V32H33zM34,31H35V32H34zM35,31H36V32H35zM36,31H37V32H36zM37,31H38V32H37zM40,31H41V32H40zM41,31H42V32H41zM42,31H43V32H42zM43,31H44V32H43zM44,31H45V32H44zM45,31H46V32H45zM46,31H47V32H46zM48,31H49V32H48zM52,31H53V32H52zM53,31H54V32H53zM55,31H56V32H55zM7,32H8V33H7zM8,32H9V33H8zM9,32H10V33H9zM10,32H11V33H10zM11,32H12V33H11zM12,32H13V33H12zM13,32H14V33H13zM14,32H15V33H14zM15,32H16V33H15zM16,32H17V33H16zM17,32H18V33H17zM19,32H20V33H19zM20,32H21V33H20zM21,32H22V33H21zM22,32H23V33H22zM23,32H24V33H23zM24,32H25V33H24zM28,32H29V33H28zM29,32H30V33H29zM30,32H31V33H30zM31,32H32V33H31zM32,32H33V33H32zM33,32H34V33H33zM35,32H36V33H35zM38,32H39V33H38zM39,32H40V33H39zM40,32H41V33H40zM45,32H46V33H45zM46,32H47V33H46zM47,32H48V33H47zM48,32H49V33H48zM49,32H50V33H49zM50,32H51V33H50zM51,32H52V33H51zM52,32H53V33H52zM54,32H55V33H54zM5,33H6V34H5zM6,33H7V34H6zM12,33H13V34H12zM13,33H14V34H13zM14,33H15V34H14zM18,33H19V34H18zM19,33H20V34H19zM23,33H24V34H23zM27,33H28V34H27zM29,33H30V34H29zM33,33H34V34H33zM34,33H35V34H34zM36,33H37V34H36zM40,33H41V34H40zM41,33H42V34H41zM43,33H44V34H43zM45,33H46V34H45zM46,33H47V34H46zM47,33H48V34H47zM48,33H49V34H48zM49,33H50V34H49zM51,33H52V34H51zM52,33H53V34H52zM53,33H54V34H53zM54,33H55V34H54zM55,33H56V34H55zM56,33H57V34H56zM4,34H5V35H4zM7,34H8V35H7zM8,34H9V35H8zM10,34H11V35H10zM13,34H14V35H13zM14,34H15V35H14zM15,34H16V35H15zM16,34H17V35H16zM19,34H20V35H19zM20,34H21V35H20zM21,34H22V35H21zM25,34H26V35H25zM28,34H29V35H28zM29,34H30V35H29zM30,34H31V35H30zM33,34H34V35H33zM34,34H35V35H34zM37,34H38V35H37zM47,34H48V35H47zM49,34H50V35H49zM53,34H54V35H53zM54,34H55V35H54zM5,35H6V36H5zM7,35H8V36H7zM8,35H9V36H8zM14,35H15V36H14zM17,35H18V36H17zM19,35H20V36H19zM28,35H29V36H28zM30,35H31V36H30zM33,35H34V36H33zM35,35H36V36H35zM38,35H39V36H38zM39,35H40V36H39zM41,35H42V36H41zM42,35H43V36H42zM44,35H45V36H44zM45,35H46V36H45zM46,35H47V36H46zM47,35H48V36H47zM48,35H49V36H48zM49,35H50V36H49zM50,35H51V36H50zM52,35H53V36H52zM55,35H56V36H55zM4,36H5V37H4zM5,36H6V37H5zM8,36H9V37H8zM9,36H10V37H9zM10,36H11V37H10zM21,36H22V37H21zM25,36H26V37H25zM27,36H28V37H27zM28,36H29V37H28zM29,36H30V37H29zM33,36H34V37H33zM34,36H35V37H34zM35,36H36V37H35zM37,36H38V37H37zM39,36H40V37H39zM40,36H41V37H40zM43,36H44V37H43zM45,36H46V37H45zM46,36H47V37H46zM50,36H51V37H50zM51,36H52V37H51zM54,36H55V37H54zM55,36H56V37H55zM4,37H5V38H4zM5,37H6V38H5zM6,37H7V38H6zM7,37H8V38H7zM8,37H9V38H8zM9,37H10V38H9zM11,37H12V38H11zM12,37H13V38H12zM17,37H18V38H17zM19,37H20V38H19zM22,37H23V38H22zM23,37H24V38H23zM24,37H25V38H24zM27,37H28V38H27zM29,37H30V38H29zM34,37H35V38H34zM39,37H40V38H39zM40,37H41V38H40zM41,37H42V38H41zM44,37H45V38H44zM46,37H47V38H46zM47,37H48V38H47zM48,37H49V38H48zM51,37H52V38H51zM52,37H53V38H52zM54,37H55V38H54zM56,37H57V38H56zM5,38H6V39H5zM10,38H11V39H10zM11,38H12V39H11zM13,38H14V39H13zM15,38H16V39H15zM16,38H17V39H16zM17,38H18V39H17zM18,38H19V39H18zM21,38H22V39H21zM24,38H25V39H24zM31,38H32V39H31zM32,38H33V39H32zM33,38H34V39H33zM35,38H36V39H35zM37,38H38V39H37zM38,38H39V39H38zM42,38H43V39H42zM43,38H44V39H43zM44,38H45V39H44zM49,38H50V39H49zM4,39H5V40H4zM6,39H7V40H6zM8,39H9V40H8zM12,39H13V40H12zM13,39H14V40H13zM14,39H15V40H14zM15,39H16V40H15zM18,39H19V40H18zM19,39H20V40H19zM22,39H23V40H22zM23,39H24V40H23zM24,39H25V40H24zM26,39H27V40H26zM29,39H30V40H29zM33,39H34V40H33zM34,39H35V40H34zM36,39H37V40H36zM37,39H38V40H37zM38,39H39V40H38zM39,39H40V40H39zM41,39H42V40H41zM44,39H45V40H44zM45,39H46V40H45zM47,39H48V40H47zM50,39H51V40H50zM52,39H53V40H52zM55,39H56V40H55zM8,40H9V41H8zM10,40H11V41H10zM11,40H12V41H11zM14,40H15V41H14zM15,40H16V41H15zM16,40H17V41H16zM17,40H18V41H17zM20,40H21V41H20zM21,40H22V41H21zM22,40H23V41H22zM23,40H24V41H23zM24,40H25V41H24zM29,40H30V41H29zM32,40H33V41H32zM34,40H35V41H34zM35,40H36V41H35zM39,40H40V41H39zM40,40H41V41H40zM41,40H42V41H41zM42,40H43V41H42zM48,40H49V41H48zM50,40H51V41H50zM51,40H52V41H51zM54,40H55V41H54zM55,40H56V41H55zM56,40H57V41H56zM4,41H5V42H4zM7,41H8V42H7zM9,41H10V42H9zM11,41H12V42H11zM12,41H13V42H12zM13,41H14V42H13zM15,41H16V42H15zM17,41H18V42H17zM21,41H22V42H21zM22,41H23V42H22zM25,41H26V42H25zM29,41H30V42H29zM31,41H32V42H31zM34,41H35V42H34zM35,41H36V42H35zM36,41H37V42H36zM39,41H40V42H39zM40,41H41V42H40zM41,41H42V42H41zM45,41H46V42H45zM46,41H47V42H46zM48,41H49V42H48zM49,41H50V42H49zM50,41H51V42H50zM51,41H52V42H51zM52,41H53V42H52zM53,41H54V42H53zM54,41H55V42H54zM56,41H57V42H56zM6,42H7V43H6zM7,42H8V43H7zM9,42H10V43H9zM10,42H11V43H10zM13,42H14V43H13zM14,42H15V43H14zM17,42H18V43H17zM18,42H19V43H18zM20,42H21V43H20zM22,42H23V43H22zM23,42H24V43H23zM24,42H25V43H24zM26,42H27V43H26zM28,42H29V43H28zM29,42H30V43H29zM31,42H32V43H31zM32,42H33V43H32zM33,42H34V43H33zM36,42H37V43H36zM38,42H39V43H38zM42,42H43V43H42zM47,42H48V43H47zM51,42H52V43H51zM52,42H53V43H52zM53,42H54V43H53zM54,42H55V43H54zM5,43H6V44H5zM6,43H7V44H6zM7,43H8V44H7zM8,43H9V44H8zM11,43H12V44H11zM13,43H14V44H13zM15,43H16V44H15zM16,43H17V44H16zM18,43H19V44H18zM19,43H20V44H19zM21,43H22V44H21zM22,43H23V44H22zM23,43H24V44H23zM25,43H26V44H25zM26,43H27V44H26zM27,43H28V44H27zM28,43H29V44H28zM34,43H35V44H34zM36,43H37V44H36zM37,43H38V44H37zM39,43H40V44H39zM42,43H43V44H42zM43,43H44V44H43zM44,43H45V44H44zM45,43H46V44H45zM47,43H48V44H47zM49,43H50V44H49zM50,43H51V44H50zM52,43H53V44H52zM53,43H54V44H53zM9,44H10V45H9zM10,44H11V45H10zM13,44H14V45H13zM17,44H18V45H17zM18,44H19V45H18zM19,44H20V45H19zM22,44H23V45H22zM23,44H24V45H23zM26,44H27V45H26zM28,44H29V45H28zM29,44H30V45H29zM35,44H36V45H35zM39,44H40V45H39zM40,44H41V45H40zM41,44H42V45H41zM45,44H46V45H45zM46,44H47V45H46zM49,44H50V45H49zM51,44H52V45H51zM53,44H54V45H53zM54,44H55V45H54zM55,44H56V45H55zM56,44H57V45H56zM4,45H5V46H4zM7,45H8V46H7zM9,45H10V46H9zM12,45H13V46H12zM13,45H14V46H13zM15,45H16V46H15zM16,45H17V46H16zM20,45H21V46H20zM21,45H22V46H21zM22,45H23V46H22zM25,45H26V46H25zM27,45H28V46H27zM30,45H31V46H30zM31,45H32V46H31zM32,45H33V46H32zM34,45H35V46H34zM35,45H36V46H35zM40,45H41V46H40zM41,45H42V46H41zM43,45H44V46H43zM44,45H45V46H44zM45,45H46V46H45zM46,45H47V46H46zM51,45H52V46H51zM52,45H53V46H52zM53,45H54V46H53zM55,45H56V46H55zM56,45H57V46H56zM4,46H5V47H4zM5,46H6V47H5zM7,46H8V47H7zM8,46H9V47H8zM9,46H10V47H9zM10,46H11V47H10zM15,46H16V47H15zM16,46H17V47H16zM18,46H19V47H18zM19,46H20V47H19zM20,46H21V47H20zM23,46H24V47H23zM26,46H27V47H26zM32,46H33V47H32zM33,46H34V47H33zM35,46H36V47H35zM38,46H39V47H38zM39,46H40V47H39zM40,46H41V47H40zM42,46H43V47H42zM44,46H45V47H44zM49,46H50V47H49zM51,46H52V47H51zM52,46H53V47H52zM54,46H55V47H54zM5,47H6V48H5zM6,47H7V48H6zM11,47H12V48H11zM12,47H13V48H12zM13,47H14V48H13zM15,47H16V48H15zM18,47H19V48H18zM20,47H21V48H20zM22,47H23V48H22zM25,47H26V48H25zM26,47H27V48H26zM27,47H28V48H27zM28,47H29V48H28zM29,47H30V48H29zM30,47H31V48H30zM34,47H35V48H34zM39,47H40V48H39zM41,47H42V48H41zM44,47H45V48H44zM45,47H46V48H45zM46,47H47V48H46zM47,47H48V48H47zM48,47H49V48H48zM49,47H50V48H49zM50,47H51V48H50zM51,47H52V48H51zM52,47H53V48H52zM53,47H54V48H53zM7,48H8V49H7zM10,48H11V49H10zM11,48H12V49H11zM12,48H13V49H12zM13,48H14V49H13zM15,48H16V49H15zM16,48H17V49H16zM18,48H19V49H18zM21,48H22V49H21zM22,48H23V49H22zM23,48H24V49H23zM24,48H25V49H24zM27,48H28V49H27zM28,48H29V49H28zM29,48H30V49H29zM30,48H31V49H30zM31,48H32V49H31zM32,48H33V49H32zM35,48H36V49H35zM37,48H38V49H37zM40,48H41V49H40zM42,48H43V49H42zM45,48H46V49H45zM48,48H49V49H48zM49,48H50V49H49zM50,48H51V49H50zM51,48H52V49H51zM52,48H53V49H52zM53,48H54V49H53zM54,48H55V49H54zM12,49H13V50H12zM14,49H15V50H14zM15,49H16V50H15zM16,49H17V50H16zM21,49H22V50H21zM22,49H23V50H22zM23,49H24V50H23zM25,49H26V50H25zM28,49H29V50H28zM32,49H33V50H32zM33,49H34V50H33zM34,49H35V50H34zM35,49H36V50H35zM40,49H41V50H40zM41,49H42V50H41zM46,49H47V50H46zM47,49H48V50H47zM48,49H49V50H48zM52,49H53V50H52zM56,49H57V50H56zM4,50H5V51H4zM5,50H6V51H5zM6,50H7V51H6zM7,50H8V51H7zM8,50H9V51H8zM9,50H10V51H9zM10,50H11V51H10zM12,50H13V51H12zM17,50H18V51H17zM18,50H19V51H18zM21,50H22V51H21zM23,50H24V51H23zM24,50H25V51H24zM25,50H26V51H25zM28,50H29V51H28zM30,50H31V51H30zM32,50H33V51H32zM35,50H36V51H35zM37,50H38V51H37zM38,50H39V51H38zM43,50H44V51H43zM47,50H48V51H47zM48,50H49V51H48zM50,50H51V51H50zM52,50H53V51H52zM53,50H54V51H53zM54,50H55V51H54zM4,51H5V52H4zM10,51H11V52H10zM17,51H18V52H17zM20,51H21V52H20zM27,51H28V52H27zM28,51H29V52H28zM32,51H33V52H32zM34,51H35V52H34zM36,51H37V52H36zM37,51H38V52H37zM39,51H40V52H39zM40,51H41V52H40zM41,51H42V52H41zM42,51H43V52H42zM43,51H44V52H43zM44,51H45V52H44zM45,51H46V52H45zM47,51H48V52H47zM48,51H49V52H48zM52,51H53V52H52zM53,51H54V52H53zM55,51H56V52H55zM4,52H5V53H4zM6,52H7V53H6zM7,52H8V53H7zM8,52H9V53H8zM10,52H11V53H10zM12,52H13V53H12zM13,52H14V53H13zM15,52H16V53H15zM21,52H22V53H21zM25,52H26V53H25zM28,52H29V53H28zM29,52H30V53H29zM30,52H31V53H30zM31,52H32V53H31zM32,52H33V53H32zM35,52H36V53H35zM37,52H38V53H37zM39,52H40V53H39zM40,52H41V53H40zM42,52H43V53H42zM46,52H47V53H46zM47,52H48V53H47zM48,52H49V53H48zM49,52H50V53H49zM50,52H51V53H50zM51,52H52V53H51zM52,52H53V53H52zM54,52H55V53H54zM4,53H5V54H4zM6,53H7V54H6zM7,53H8V54H7zM8,53H9V54H8zM10,53H11V54H10zM12,53H13V54H12zM13,53H14V54H13zM14,53H15V54H14zM15,53H16V54H15zM18,53H19V54H18zM19,53H20V54H19zM22,53H23V54H22zM23,53H24V54H23zM24,53H25V54H24zM27,53H28V54H27zM31,53H32V54H31zM32,53H33V54H32zM34,53H35V54H34zM35,53H36V54H35zM36,53H37V54H36zM39,53H40V54H39zM41,53H42V54H41zM45,53H46V54H45zM46,53H47V54H46zM47,53H48V54H47zM48,53H49V54H48zM49,53H50V54H49zM53,53H54V54H53zM55,53H56V54H55zM4,54H5V55H4zM6,54H7V55H6zM7,54H8V55H7zM8,54H9V55H8zM10,54H11V55H10zM12,54H13V55H12zM13,54H14V55H13zM16,54H17V55H16zM21,54H22V55H21zM22,54H23V55H22zM24,54H25V55H24zM25,54H26V55H25zM28,54H29V55H28zM29,54H30V55H29zM30,54H31V55H30zM38,54H39V55H38zM42,54H43V55H42zM43,54H44V55H43zM44,54H45V55H44zM50,54H51V55H50zM51,54H52V55H51zM52,54H53V55H52zM54,54H55V55H54zM56,54H57V55H56zM4,55H5V56H4zM10,55H11V56H10zM12,55H13V56H12zM13,55H14V56H13zM15,55H16V56H15zM16,55H17V56H16zM18,55H19V56H18zM19,55H20V56H19zM23,55H24V56H23zM24,55H25V56H24zM29,55H30V56H29zM30,55H31V56H30zM31,55H32V56H31zM32,55H33V56H32zM33,55H34V56H33zM34,55H35V56H34zM35,55H36V56H35zM36,55H37V56H36zM37,55H38V56H37zM38,55H39V56H38zM39,55H40V56H39zM41,55H42V56H41zM43,55H44V56H43zM44,55H45V56H44zM45,55H46V56H45zM46,55H47V56H46zM48,55H49V56H48zM51,55H52V56H51zM52,55H53V56H52zM53,55H54V56H53zM55,55H56V56H55zM4,56H5V57H4zM5,56H6V57H5zM6,56H7V57H6zM7,56H8V57H7zM8,56H9V57H8zM9,56H10V57H9zM10,56H11V57H10zM12,56H13V57H12zM13,56H14V57H13zM15,56H16V57H15zM18,56H19V57H18zM19,56H20V57H19zM20,56H21V57H20zM22,56H23V57H22zM24,56H25V57H24zM27,56H28V57H27zM28,56H29V57H28zM29,56H30V57H29zM30,56H31V57H30zM34,56H35V57H34zM37,56H38V57H37zM38,56H39V57H38zM40,56H41V57H40zM47,56H48V57H47zM48,56H49V57H48zM49,56H50V57H49zM50,56H51V57H50zM51,56H52V57H51zM54,56H55V57H54z" id="qr-path" fill="#000000" fill-opacity="1" fill-rule="nonzero" stroke="none" /></svg>