<?xml version="1.0" encoding="us-ascii" standalone="no"?><svg xmlns="http://www.w3.org/2000/svg" xmlns:xlink="http://www.w3.org/1999/xlink" contentStyleType="text/css" height="753px" preserveAspectRatio="none" style="width:1086px;height:753px;" version="1.1" viewBox="0 0 1086 753" width="1086px" zoomAndPan="magnify"><defs/><g><text fill="#000000" font-family="Inter" font-size="14" font-weight="bold" lengthAdjust="spacing" textLength="304" x="389.5" y="27.9951">Notification Based Authentication Flow</text><rect fill="#D2E4F4" height="654.3984" style="stroke:#989898;stroke-width:1.0;" width="10" x="137" y="83.5938"/><rect fill="#D2E4F4" height="654.3984" style="stroke:#989898;stroke-width:1.0;" width="10" x="330" y="83.5938"/><rect fill="#D2E4F4" height="434.3359" style="stroke:#989898;stroke-width:1.0;" width="10" x="692" y="184.125"/><rect fill="none" height="265.6719" rx="3.5" ry="3.5" style="stroke:#989898;stroke-width:1.0;" width="661" x="266.5" y="384.9219"/><rect fill="none" height="163.2734" rx="3.5" ry="3.5" style="stroke:#989898;stroke-width:1.0;" width="641" x="276.5" y="480.3203"/><line style="stroke:#989898;stroke-width:0.5;stroke-dasharray:5.0,5.0;" x1="142" x2="142" y1="73.5938" y2="746.9922"/><line style="stroke:#989898;stroke-width:0.5;stroke-dasharray:5.0,5.0;" x1="334.5" x2="334.5" y1="73.5938" y2="746.9922"/><line style="stroke:#989898;stroke-width:0.5;stroke-dasharray:5.0,5.0;" x1="697" x2="697" y1="73.5938" y2="746.9922"/><line style="stroke:#989898;stroke-width:0.5;stroke-dasharray:5.0,5.0;" x1="886.5" x2="886.5" y1="73.5938" y2="746.9922"/><rect fill="#A5C8E8" height="30.2969" rx="3.5" ry="3.5" style="stroke:#202020;stroke-width:1.5;" width="96" x="94" y="42.2969"/><text fill="#202020" font-family="Inter" font-size="14" lengthAdjust="spacing" textLength="82" x="101" y="62.292">RP frontend</text><rect fill="#A5C8E8" height="30.2969" rx="3.5" ry="3.5" style="stroke:#202020;stroke-width:1.5;" width="97" x="286.5" y="42.2969"/><text fill="#202020" font-family="Inter" font-size="14" lengthAdjust="spacing" textLength="83" x="293.5" y="62.292">RP backend</text><rect fill="#A5C8E8" height="30.2969" rx="3.5" ry="3.5" style="stroke:#202020;stroke-width:1.5;" width="58" x="668" y="42.2969"/><text fill="#202020" font-family="Inter" font-size="14" lengthAdjust="spacing" textLength="44" x="675" y="62.292">RP API</text><rect fill="#A5C8E8" height="30.2969" rx="3.5" ry="3.5" style="stroke:#202020;stroke-width:1.5;" width="41" x="866.5" y="42.2969"/><text fill="#202020" font-family="Inter" font-size="14" lengthAdjust="spacing" textLength="27" x="873.5" y="62.292">App</text><rect fill="#D2E4F4" height="654.3984" style="stroke:#989898;stroke-width:1.0;" width="10" x="137" y="83.5938"/><rect fill="#D2E4F4" height="654.3984" style="stroke:#989898;stroke-width:1.0;" width="10" x="330" y="83.5938"/><rect fill="#D2E4F4" height="434.3359" style="stroke:#989898;stroke-width:1.0;" width="10" x="692" y="184.125"/><path d="M5,92.0938 L5,125.0938 A3.5,3.5 0 0 0 8.5,128.5938 L275.5,128.5938 A3.5,3.5 0 0 0 279,125.0938 L279,98.5938 L269,88.5938 L8.5,88.5938 A3.5,3.5 0 0 0 5,92.0938 " fill="#DFDFDF" style="stroke:#202020;stroke-width:1.5;"/><path d="M269,88.5938 L269,96.8438 A1.75,1.75 0 0 0 270.75,98.5938 L279,98.5938 L269,88.5938 " fill="#DFDFDF" style="stroke:#202020;stroke-width:1.5;"/><text fill="#202020" font-family="Inter" font-size="13" lengthAdjust="spacing" textLength="253" x="11" y="105.6606">User initiates a login on the RP frontend</text><text fill="#202020" font-family="Inter" font-size="13" lengthAdjust="spacing" textLength="154" x="11" y="120.7935">(website or mobile app).</text><polygon fill="#202020" points="318,150.9922,328,154.9922,318,158.9922" style="stroke:#202020;stroke-width:1.0;"/><line style="stroke:#202020;stroke-width:1.0;" x1="147" x2="324" y1="154.9922" y2="154.9922"/><text fill="#000000" font-family="Inter" font-size="13" font-weight="bold" lengthAdjust="spacing" textLength="9" x="174.5" y="149.9263">1</text><text fill="#000000" font-family="Inter" font-size="13" lengthAdjust="spacing" textLength="52" x="187.5" y="149.9263">Request</text><text fill="#000000" font-family="Inter" font-size="13" lengthAdjust="spacing" textLength="4" x="239.5" y="149.9263">&#160;</text><text fill="#000000" font-family="Inter" font-size="13" lengthAdjust="spacing" textLength="25" x="243.5" y="149.9263">new</text><text fill="#000000" font-family="Inter" font-size="13" lengthAdjust="spacing" textLength="4" x="268.5" y="149.9263">&#160;</text><text fill="#000000" font-family="Inter" font-size="13" lengthAdjust="spacing" textLength="30" x="272.5" y="149.9263">login</text><polygon fill="#202020" points="680,180.125,690,184.125,680,188.125" style="stroke:#202020;stroke-width:1.0;"/><line style="stroke:#202020;stroke-width:1.0;" x1="340" x2="686" y1="184.125" y2="184.125"/><text fill="#000000" font-family="Inter" font-size="13" font-weight="bold" lengthAdjust="spacing" textLength="9" x="349.5" y="179.0591">2</text><text fill="#000000" font-family="monospace" font-size="13" lengthAdjust="spacing" textLength="32" x="362.5" y="179.0591">POST</text><text fill="#000000" font-family="monospace" font-size="13" lengthAdjust="spacing" textLength="8" x="394.5" y="179.0591">&#160;</text><text fill="#000000" font-family="monospace" font-size="13" lengthAdjust="spacing" textLength="280" x="402.5" y="179.0591">/v3/authentication/notification/...</text><polygon fill="#202020" points="351,192.125,341,196.125,351,200.125" style="stroke:#202020;stroke-width:1.0;"/><line style="stroke:#202020;stroke-width:1.0;stroke-dasharray:2.0,2.0;" x1="345" x2="691" y1="196.125" y2="196.125"/><text fill="#000000" font-family="Inter" font-size="13" font-weight="bold" lengthAdjust="spacing" textLength="9" x="461.5" y="209.1919">3</text><text fill="#000000" font-family="monospace" font-size="13" lengthAdjust="spacing" textLength="72" x="474.5" y="209.1919">sessionId</text><text fill="#000000" font-family="Inter" font-size="13" lengthAdjust="spacing" textLength="4" x="546.5" y="209.1919">,</text><text fill="#000000" font-family="Inter" font-size="13" lengthAdjust="spacing" textLength="4" x="550.5" y="209.1919">&#160;</text><text fill="#000000" font-family="monospace" font-size="13" lengthAdjust="spacing" textLength="16" x="554.5" y="209.1919">vc</text><polygon fill="#202020" points="875,238.3906,885,242.3906,875,246.3906" style="stroke:#202020;stroke-width:1.0;"/><line style="stroke:#202020;stroke-width:1.0;" x1="702" x2="881" y1="242.3906" y2="242.3906"/><text fill="#000000" font-family="Inter" font-size="13" font-weight="bold" lengthAdjust="spacing" textLength="9" x="714" y="237.3247">4</text><text fill="#000000" font-family="Inter" font-size="13" lengthAdjust="spacing" textLength="52" x="727" y="237.3247">Request</text><text fill="#000000" font-family="Inter" font-size="13" lengthAdjust="spacing" textLength="4" x="779" y="237.3247">&#160;</text><text fill="#000000" font-family="Inter" font-size="13" lengthAdjust="spacing" textLength="92" x="783" y="237.3247">authentication</text><path d="M701,258.8906 L701,276.8906 A3.5,3.5 0 0 0 704.5,280.3906 L1068.5,280.3906 A3.5,3.5 0 0 0 1072,276.8906 L1072,265.3906 L1062,255.3906 L704.5,255.3906 A3.5,3.5 0 0 0 701,258.8906 " fill="#DFDFDF" style="stroke:#202020;stroke-width:1.5;"/><path d="M1062,255.3906 L1062,263.6406 A1.75,1.75 0 0 0 1063.75,265.3906 L1072,265.3906 L1062,255.3906 " fill="#DFDFDF" style="stroke:#202020;stroke-width:1.5;"/><text fill="#202020" font-family="Inter" font-size="13" lengthAdjust="spacing" textLength="350" x="707" y="272.4575">RP API provides the VC code(s) to be shown in the app.</text><line style="stroke:#202020;stroke-width:1.0;" x1="887" x2="929" y1="306.6563" y2="306.6563"/><line style="stroke:#202020;stroke-width:1.0;" x1="929" x2="929" y1="306.6563" y2="319.6563"/><line style="stroke:#202020;stroke-width:1.0;" x1="888" x2="929" y1="319.6563" y2="319.6563"/><polygon fill="#202020" points="898,315.6563,888,319.6563,898,323.6563" style="stroke:#202020;stroke-width:1.0;"/><text fill="#000000" font-family="Inter" font-size="13" font-weight="bold" lengthAdjust="spacing" textLength="9" x="894" y="301.5903">5</text><text fill="#000000" font-family="Inter" font-size="13" lengthAdjust="spacing" textLength="46" x="907" y="301.5903">Display</text><text fill="#000000" font-family="Inter" font-size="13" lengthAdjust="spacing" textLength="4" x="953" y="301.5903">&#160;</text><text fill="#000000" font-family="Inter" font-size="13" lengthAdjust="spacing" textLength="92" x="957" y="301.5903">authentication</text><text fill="#000000" font-family="Inter" font-size="13" lengthAdjust="spacing" textLength="4" x="1049" y="301.5903">&#160;</text><text fill="#000000" font-family="Inter" font-size="13" lengthAdjust="spacing" textLength="13" x="1053" y="301.5903">UI</text><path d="M694,336.1563 L694,369.1563 A3.5,3.5 0 0 0 697.5,372.6563 L1075.5,372.6563 A3.5,3.5 0 0 0 1079,369.1563 L1079,342.6563 L1069,332.6563 L697.5,332.6563 A3.5,3.5 0 0 0 694,336.1563 " fill="#DFDFDF" style="stroke:#202020;stroke-width:1.5;"/><path d="M1069,332.6563 L1069,340.9063 A1.75,1.75 0 0 0 1070.75,342.6563 L1079,342.6563 L1069,332.6563 " fill="#DFDFDF" style="stroke:#202020;stroke-width:1.5;"/><text fill="#202020" font-family="Inter" font-size="13" lengthAdjust="spacing" textLength="321" x="700" y="349.7231">Based on the interaction type, User might need to</text><text fill="#202020" font-family="Inter" font-size="13" lengthAdjust="spacing" textLength="364" x="700" y="364.856">pick a verification code first before entering the PIN code.</text><path d="M270,384.9219 L343.5,384.9219 L343.5,392.0547 L333.5,402.0547 L266.5,402.0547 L266.5,388.4219 A3.5,3.5 0 0 1 270,384.9219 " fill="#EEEEEE" style="stroke:#989898;stroke-width:1.5;"/><rect fill="none" height="265.6719" rx="3.5" ry="3.5" style="stroke:#989898;stroke-width:1.0;" width="661" x="266.5" y="384.9219"/><text fill="#202020" font-family="Inter" font-size="13" font-weight="bold" lengthAdjust="spacing" textLength="32" x="281.5" y="397.9888">loop</text><text fill="#989898" font-family="Inter" font-size="11" font-weight="bold" lengthAdjust="spacing" textLength="227" x="358.5" y="397.1323">[until signature completed or error]</text><polygon fill="#202020" points="680,419.1875,690,423.1875,680,427.1875" style="stroke:#202020;stroke-width:1.0;"/><line style="stroke:#202020;stroke-width:1.0;" x1="340" x2="686" y1="423.1875" y2="423.1875"/><text fill="#000000" font-family="Inter" font-size="13" font-weight="bold" lengthAdjust="spacing" textLength="9" x="421.5" y="418.1216">6</text><text fill="#000000" font-family="monospace" font-size="13" lengthAdjust="spacing" textLength="24" x="434.5" y="418.1216">GET</text><text fill="#000000" font-family="monospace" font-size="13" lengthAdjust="spacing" textLength="8" x="458.5" y="418.1216">&#160;</text><text fill="#000000" font-family="monospace" font-size="13" lengthAdjust="spacing" textLength="144" x="466.5" y="418.1216">session/:sessionId</text><line style="stroke:#202020;stroke-width:1.0;" x1="702" x2="744" y1="452.3203" y2="452.3203"/><line style="stroke:#202020;stroke-width:1.0;" x1="744" x2="744" y1="452.3203" y2="465.3203"/><line style="stroke:#202020;stroke-width:1.0;" x1="703" x2="744" y1="465.3203" y2="465.3203"/><polygon fill="#202020" points="713,461.3203,703,465.3203,713,469.3203" style="stroke:#202020;stroke-width:1.0;"/><text fill="#000000" font-family="Inter" font-size="13" font-weight="bold" lengthAdjust="spacing" textLength="9" x="709" y="447.2544">7</text><text fill="#000000" font-family="Inter" font-size="13" lengthAdjust="spacing" textLength="22" x="722" y="447.2544">Poll</text><path d="M280,480.3203 L340.5,480.3203 L340.5,487.4531 L330.5,497.4531 L276.5,497.4531 L276.5,483.8203 A3.5,3.5 0 0 1 280,480.3203 " fill="#EEEEEE" style="stroke:#989898;stroke-width:1.5;"/><rect fill="none" height="163.2734" rx="3.5" ry="3.5" style="stroke:#989898;stroke-width:1.0;" width="641" x="276.5" y="480.3203"/><text fill="#202020" font-family="Inter" font-size="13" font-weight="bold" lengthAdjust="spacing" textLength="19" x="291.5" y="493.3872">alt</text><text fill="#989898" font-family="Inter" font-size="11" font-weight="bold" lengthAdjust="spacing" textLength="127" x="355.5" y="492.5308">[signature pending]</text><polygon fill="#202020" points="351,497.4531,341,501.4531,351,505.4531" style="stroke:#202020;stroke-width:1.0;"/><line style="stroke:#202020;stroke-width:1.0;stroke-dasharray:2.0,2.0;" x1="345" x2="691" y1="501.4531" y2="501.4531"/><text fill="#000000" font-family="Inter" font-size="13" font-weight="bold" lengthAdjust="spacing" textLength="9" x="453.5" y="514.52">8</text><text fill="#000000" font-family="monospace" font-size="13" lengthAdjust="spacing" textLength="56" x="466.5" y="514.52">session</text><text fill="#000000" font-family="monospace" font-size="13" lengthAdjust="spacing" textLength="8" x="522.5" y="514.52">&#160;</text><text fill="#000000" font-family="monospace" font-size="13" lengthAdjust="spacing" textLength="48" x="530.5" y="514.52">status</text><line style="stroke:#989898;stroke-width:1.0;stroke-dasharray:2.0,2.0;" x1="276.5" x2="917.5" y1="527.5859" y2="527.5859"/><text fill="#989898" font-family="Inter" font-size="11" font-weight="bold" lengthAdjust="spacing" textLength="121" x="281.5" y="537.7964">[error (or timeout)]</text><polygon fill="#202020" points="351,541.3906,341,545.3906,351,549.3906" style="stroke:#202020;stroke-width:1.0;"/><line style="stroke:#202020;stroke-width:1.0;stroke-dasharray:2.0,2.0;" x1="345" x2="691" y1="545.3906" y2="545.3906"/><text fill="#000000" font-family="Inter" font-size="13" font-weight="bold" lengthAdjust="spacing" textLength="9" x="489.5" y="558.4575">9</text><text fill="#000000" font-family="monospace" font-size="13" lengthAdjust="spacing" textLength="40" x="502.5" y="558.4575">error</text><line style="stroke:#989898;stroke-width:1.0;stroke-dasharray:2.0,2.0;" x1="276.5" x2="917.5" y1="571.5234" y2="571.5234"/><text fill="#989898" font-family="Inter" font-size="11" font-weight="bold" lengthAdjust="spacing" textLength="142" x="281.5" y="581.7339">[signature completed]</text><polygon fill="#202020" points="713,602.4609,703,606.4609,713,610.4609" style="stroke:#202020;stroke-width:1.0;"/><line style="stroke:#202020;stroke-width:1.0;" x1="707" x2="886" y1="606.4609" y2="606.4609"/><text fill="#000000" font-family="Inter" font-size="13" font-weight="bold" lengthAdjust="spacing" textLength="18" x="752.5" y="601.395">10</text><text fill="#000000" font-family="Inter" font-size="13" lengthAdjust="spacing" textLength="62" x="774.5" y="601.395">Signature</text><polygon fill="#202020" points="351,614.4609,341,618.4609,351,622.4609" style="stroke:#202020;stroke-width:1.0;"/><line style="stroke:#202020;stroke-width:1.0;stroke-dasharray:2.0,2.0;" x1="345" x2="696" y1="618.4609" y2="618.4609"/><text fill="#000000" font-family="Inter" font-size="13" font-weight="bold" lengthAdjust="spacing" textLength="18" x="483.5" y="631.5278">11</text><text fill="#000000" font-family="monospace" font-size="13" lengthAdjust="spacing" textLength="48" x="505.5" y="631.5278">result</text><path d="M87,666.0938 L87,699.0938 A3.5,3.5 0 0 0 90.5,702.5938 L579.5,702.5938 A3.5,3.5 0 0 0 583,699.0938 L583,672.5938 L573,662.5938 L90.5,662.5938 A3.5,3.5 0 0 0 87,666.0938 " fill="#DFDFDF" style="stroke:#202020;stroke-width:1.5;"/><path d="M573,662.5938 L573,670.8438 A1.75,1.75 0 0 0 574.75,672.5938 L583,672.5938 L573,662.5938 " fill="#DFDFDF" style="stroke:#202020;stroke-width:1.5;"/><text fill="#202020" font-family="Inter" font-size="13" lengthAdjust="spacing" textLength="475" x="93" y="679.6606">RP receives the signature. Its structure depends on the signature protocol.</text><text fill="#202020" font-family="Inter" font-size="13" lengthAdjust="spacing" textLength="294" x="93" y="694.7935">RP verifies that the provided signature is valid.</text><polygon fill="#202020" points="158,707.8594,148,711.8594,158,715.8594" style="stroke:#202020;stroke-width:1.0;"/><line style="stroke:#202020;stroke-width:1.0;stroke-dasharray:2.0,2.0;" x1="152" x2="329" y1="711.8594" y2="711.8594"/><text fill="#000000" font-family="Inter" font-size="13" font-weight="bold" lengthAdjust="spacing" textLength="18" x="159" y="724.9263">12</text><text fill="#000000" font-family="Inter" font-size="13" lengthAdjust="spacing" textLength="30" x="181" y="724.9263">User</text><text fill="#000000" font-family="Inter" font-size="13" lengthAdjust="spacing" textLength="4" x="211" y="724.9263">&#160;</text><text fill="#000000" font-family="Inter" font-size="13" lengthAdjust="spacing" textLength="10" x="215" y="724.9263">is</text><text fill="#000000" font-family="Inter" font-size="13" lengthAdjust="spacing" textLength="4" x="225" y="724.9263">&#160;</text><text fill="#000000" font-family="Inter" font-size="13" lengthAdjust="spacing" textLength="89" x="229" y="724.9263">authenticated</text><!--SRC=[lLZhRk965FxlfvYbAoMHDc0WW5bjL_8rYvf214chLLj5Wpt0ACRZskDaqwhltZFZszX0ssst6mGAvpltEPV1PsVQsHcoNzOaGNn7zWIjSKe2n2Bn5UrnaXRqJSBsQ9FnB26NEF5tb1EVz-9i7rvAXbGe4kz5GhSqmY4oCxvZoLlqKrlgb_CTvt7wjjVRKhxBrbsVxNjjfWkXQyMon2T7LAY6_v4wLQ374q9wUvnoalHoahHsGtqIfSAS6MCVmYy8Rz0F94afv6JGrJ_VsZfawzBQpSnsvoltGcHAgr8V4KvzZDO9ZW8QRP7FGfQasglNFtwOtRdeMzJvnfD_7Q1PDwRzdQGDTF4IDCTSVlTmlNG_IlhK42z1hqYE9rw2T3Ex_d1Nyte3yIfutRcawVR8wqy5pVvekSk76h4ctjZkLzmFmgwxxEkvsRxND_KsE1X9S6IuvjXhWwDSiczOtd3G1YUZbZSgECqbzT5Wh9i2NBgEf9YstjVxjVCbtND7piWfE1za5jobeHV9BREZOECIirpBRM5N1UPEuLLYZNWzHv_eaoPKH5jx-D6zkLdyc6TsQ5YwNhkjGE2TCpPg_WFdFSFj7yAL_rxV7Xx2PGYUQvbN2joCmhEdkdk05e7KFj_UBszlyaA5mx8yfmv4WKnzOdXkpTyAnBNTgxp4ct0HY3ErfyVW8X1xRBeDvStogxnge4KWGqFlMsRUNFUvhmDtChB6THX7045gXU0C88IhDbW4O8vimpNQOE7-n30Tnwd0XlE3uSWmZ1PMjivaQ8qiWIsMvlmwzz4rncErc1G8YiKRJch-Ws9ofyuHk2ecPs1wXt1LJ9PjgDADC6gl6cWHoDIwkXAeY186tFLoSJ-NdSjXAgOnJaZ4vVajPz-RIp6yMZckiPBMvZ44pygr5tEdq52VhOgSafSsPdDlyM1T2qmCKU7kOkcKpE1vHL7LL0CQK6ynlrEvnVTJlAjxstPNgyAQCZVbq8SaIWbrn8YjOIxdi_br7M2UxyBvLjnY4OazXCCGzZvdiFCVYLp-d7pYYEON0RcH4DkWmY4XzIfEc4y2M7peTPhvFadJyzVxT7kX8VHkmoAUItrR1l7-tVgzmBLN90egsS-qdmVTDh_1D8H_ZflFHRw8zIApRVFFE8bWRnytNyXy4VlY_Dh6QRHXnoqBxXDcDIrzf15q5TwZW6nm5d8F9ESORdgp26ug2cvX_t6Ri2mAREc7qfyALxh30NiMjvSD3bEY8CjS56uv2PeeT3D9s7EfKlP2ZGbd2aYqX-fkIdxDIEGJz3l4Y-2EjY4tD28MImAIbEeQ3TZaQqVJ6XgI-HeOuWy4WyQs9nNS0Wxb_yuZXUbkH_t721e8zJM9EVI90hs8KVmTqTR2L2KbSipxFxG_r7p29zm-QOoXS79pfrAa_PKVnomT-DKTDMq7c6FnW-EKuOEH_5akD4p1-g3yvMyY_Ezc8iPFHbEiZY-VHknpbfoochVMlmveBLJXvF_Fd0zWmiAlO0TchS_XvrpwrUiT9bT6lfBL7GmGj66Chzad3MUSHTb-tHZiU_pfUn30MxAYln4q7EhQMPj8Kx64Olg9XEaRz4nGmA8pZY9IhgieWztrWd0Ge9-ZSc69vQMERFuI4lXCgC_XXx6292IDuI18OT8Y8NkMUm7n92D7fdx1Q8Pq6o7uTIvMbGQT3VhdZDCD_8uMHmlP5Oynn2C8qVW5qGFjcgOElCxoLZpP03LHq44uHKdyK7u_O5p3YTLy1x1vEvEGps31Da0pZYMInY7bZ-Jb0SUnfa7NqYSCuqArgH0rJGuJzWHxG6MvJu508yefyAK8ev1j8U_58nib8EtycQnJAdGaQC_M5984bY-wI0DKZYfDKpIZo_TW2Br5Iv7iL9poSwvSi0bKX0PuftExMDsXtjEmXniPxaNA6VIwtMwdKqSaym9wtbrUrefIE4_WdGMTpXlu-kI3X2PHCAVcIt6hQLDDKoF1-P4WkFI8NIgVOw4VR30TaFFqGbJl6efonvwhiWMfhfAQXlb3TnmA1FpISWVTpquvPAcFrgWeNIpd4E8lCNc3vBdkwNPNjvSMGrF32OEgkhH506X34yZ4ccn4gcGRYAkNK7mxcqiMDPAGiHXbu6E8KcWSB9vM0TC-3WaNBYM8GDCbrRMXTThNxXqg3ghtLZcnYhyyi4BY5aQin7385OCnaO-tL2l7QW461V2dXNgOEoJt3ft3czCzOHc_EAb4iggoHmAkXDidN6XPbI8LOq2gCcuSwIalOAx1bLh9aA90ze5q3rfKl1jzBies8JwXJqN9LlvtqOodOefclWmd82AXQLbGIfuJnXcikQxGbPUEr8MvP2mQ8b0aOCe_uP06wcHG1uE83KA4qFBXawf5Ju8_0G00]--></g></svg>