<svg width="132" xmlns="http://www.w3.org/2000/svg" height="32" viewBox="0 0 132 32" fill="none"><defs><clipPath id="a" class="frame-clip frame-clip-def"><rect rx="0" ry="0" width="132" height="32"/></clipPath></defs><g clip-path="url(#a)"><g class="fills"><rect rx="0" ry="0" width="132" height="32" class="frame-background"/></g><g class="frame-children"><path d="M22.905 3.249c-.71-.474-1.12-1.227-1.332-1.747H5.245c-.215.52-.624 1.273-1.334 1.747a4.94 4.94 0 01-2.313.824c-.048 1.843-.166 6.65-.129 8.333.111 4.94 1.19 7.744 3.064 10.791 1.631 2.654 7.366 6.263 8.876 7.185 1.508-.922 7.245-4.531 8.876-7.185 1.872-3.049 2.953-5.851 3.062-10.791.037-1.683-.079-6.49-.127-8.333a4.906 4.906 0 01-2.315-.824zm1.857 9.14c-.106 4.801-1.152 7.526-2.972 10.486-1.5 2.44-6.561 5.689-8.381 6.808-1.822-1.119-6.883-4.368-8.381-6.808-1.82-2.958-2.866-5.685-2.972-10.486-.035-1.537.06-5.699.114-7.792a5.514 5.514 0 002.062-.849c.663-.443 1.104-1.098 1.379-1.649h15.596c.277.551.716 1.206 1.379 1.649a5.582 5.582 0 002.064.849c.052 2.093.147 6.253.112 7.792zm1.639-9.643a.722.722 0 00-.578-.167s-1.036.138-2.118-.588c-.705-.47-.9-1.409-.9-1.409A.737.737 0 0022.091 0H4.727a.735.735 0 00-.714.582s-.197.939-.9 1.409c-1.084.726-2.12.588-2.12.588a.717.717 0 00-.576.167.76.76 0 00-.262.553c0 .002-.194 7.022-.148 9.138.116 5.292 1.281 8.295 3.289 11.559 1.994 3.249 9.745 7.904 9.745 7.904a.725.725 0 00.734 0s7.748-4.655 9.745-7.904c2.008-3.264 3.172-6.265 3.289-11.559.048-2.118-.148-9.138-.148-9.138a.759.759 0 00-.26-.553zm-.322 9.674c-.115 5.117-1.236 8.021-3.177 11.174-1.938 3.158-9.493 7.653-9.493 7.653s-7.553-4.497-9.496-7.653C1.975 20.439.852 17.537.739 12.42c-.048-2.109.148-9.1.148-9.1s1.287.195 2.625-.703C4.45 1.989 4.727.747 4.727.747h17.364s.275 1.242 1.213 1.87c1.342.898 2.627.703 2.627.703s.194 6.991.148 9.1zm-12.67-8.786c-4.832 0-8.753 3.931-8.753 8.774 0 4.842 3.921 8.773 8.753 8.773 4.832 0 8.753-3.931 8.753-8.773 0-4.843-3.923-8.774-8.753-8.774zm5.512 2.86a.272.272 0 01.387 0 .275.275 0 010 .387.275.275 0 01-.387 0 .272.272 0 010-.387zm-5.24 4.57V5.009a7.334 7.334 0 014.751 1.976l-4.27 4.281a1.411 1.411 0 00-.481-.202zm.412 1.344a.686.686 0 01-.676.686h-.008a.683.683 0 01-.684-.686c0-.381.305-.687.684-.687h.008c.375.004.676.31.676.687zm-.684-8.364c.15 0 .272.122.272.274a.272.272 0 01-.272.273.276.276 0 01-.275-.273c0-.15.123-.274.275-.274zm-.275.965v6.055a1.334 1.334 0 00-.48.2L8.381 6.983a7.34 7.34 0 014.753-1.974zM7.51 6.494a.272.272 0 01.387 0 .275.275 0 010 .387.275.275 0 01-.387 0 .272.272 0 010-.387zm.487.878l4.272 4.281a1.344 1.344 0 00-.2.48h-6.04a7.383 7.383 0 011.968-4.761zM5.34 12.684a.274.274 0 110-.55.274.274 0 010 .55zm2.557 5.637a.275.275 0 01-.387 0 .272.272 0 010-.387.275.275 0 01.387 0 .275.275 0 010 .387zm-1.87-5.637h6.04c.036.173.104.337.2.481l-4.272 4.281a7.376 7.376 0 01-1.968-4.762zm6.627.868c.143.095.306.164.48.199v6.056a7.348 7.348 0 01-4.751-1.977l4.271-4.278zm.755 7.222a.275.275 0 01-.275-.275c0-.152.123-.272.275-.272.152 0 .272.122.272.272 0 .15-.122.275-.272.275zm.272-.965v-6.055c.175-.036.337-.104.483-.2l4.27 4.281a7.332 7.332 0 01-4.753 1.974zm5.627-1.488a.275.275 0 01-.387 0 .272.272 0 010-.387.275.275 0 01.387 0 .275.275 0 010 .387zm-.489-.875l-4.27-4.281c.093-.144.162-.308.2-.481h6.04a7.39 7.39 0 01-1.97 4.762zm2.659-5.313a.275.275 0 11-.001.55.275.275 0 01.001-.55zm-6.729 0a1.44 1.44 0 00-.2-.48l4.27-4.281a7.375 7.375 0 011.97 4.761h-6.04z" fill="#059565"/><path d="M58.588 8.119c-1.285-.737-2.741-1.103-4.37-1.103h-5.699v18.571h5.737c1.62-.008 3.074-.383 4.366-1.123 1.289-.741 2.286-1.783 2.995-3.124.709-1.344 1.063-2.879 1.063-4.606v-.855c0-1.724-.36-3.267-1.082-4.624-.722-1.356-1.724-2.402-3.01-3.136zm.223 8.73c-.017 1.82-.42 3.22-1.209 4.197-.79.978-1.93 1.467-3.423 1.467h-1.843V10.115h1.882c1.5 0 2.642.487 3.422 1.461.782.973 1.171 2.404 1.171 4.293v.98zm71.734 2.854c-.602 0-1.125.414-1.263 1h-2.773v-1.236a.295.295 0 00-.297-.295h-1.878a4.794 4.794 0 00-1.282-2.105c-.05-.048-.1-.096-.152-.141h2.904c.129.453.547.788 1.042.788.597 0 1.082-.487 1.082-1.086 0-.599-.485-1.086-1.082-1.086-.484.001-.91.323-1.042.789h-3.667c-.959-.651-2.236-1.217-3.834-1.698-1.179-.355-2.069-.74-2.677-1.148-.607-.408-.911-.915-.911-1.516 0-.647.26-1.167.778-1.562.518-.396 1.242-.595 2.174-.595.932 0 1.718.235 2.253.709.534.47.8 1.134.8 1.984h3.82c0-.285-.019-.561-.057-.834h.462a.913.913 0 00.861.618.914.914 0 000-1.828.91.91 0 00-.861.615h-.58a5.144 5.144 0 00-.687-1.558 5.036 5.036 0 00-.376-.507H126a.297.297 0 00.297-.298v-.961h2.066a1.296 1.296 0 002.556-.295c0-.715-.58-1.298-1.296-1.298-.611 0-1.125.427-1.26 1.001H126a.296.296 0 00-.298.297v.959h-2.985a6.077 6.077 0 00-1.452-.93c-1.033-.478-2.211-.722-3.536-.722-1.325 0-2.5.221-3.557.666-1.056.441-1.865 1.057-2.429 1.843a4.494 4.494 0 00-.847 2.683c0 1.933 1.053 3.466 3.156 4.606.771.416 1.818.84 3.143 1.268 1.323.431 2.238.839 2.748 1.226.509.387.763.942.763 1.664 0 .663-.254 1.179-.763 1.549-.51.369-1.219.554-2.124.554-2.444 0-3.665-1.026-3.665-3.075h-3.832c0 1.198.308 2.253.924 3.164.615.909 1.506 1.625 2.679 2.149 1.171.522 2.467.786 3.894.786 2.051 0 3.686-.458 4.896-1.373.079-.058.154-.116.227-.179h3.923a1.295 1.295 0 002.556-.297 1.294 1.294 0 00-2.556-.295h-3.332c.67-.814 1.004-1.816 1.004-3.01 0-.319-.025-.629-.072-.924h1.449v1.236c0 .164.134.297.296.297h3.07a1.3 1.3 0 001.263 1.001c.713 0 1.296-.581 1.296-1.298 0-.718-.583-1.298-1.294-1.302zm-3.699-3.566a.488.488 0 11.001.977.488.488 0 01-.001-.977zm-1.04-5.086a.32.32 0 01.319.319.317.317 0 01-.319.316.317.317 0 01-.316-.316c0-.175.142-.319.316-.319zm3.819-4.303c.389 0 .703.314.703.705a.7.7 0 11-1.404 0c0-.389.314-.705.701-.705zm-1.493 16.543a.703.703 0 010 1.408.705.705 0 010-1.408zm2.413-1.589a.702.702 0 010-1.407.702.702 0 010 1.407zm-55.347-1.219L70.441 7.016h-4.988v18.571h3.819v-5.075l-.383-8.749 4.988 13.826h2.619l5-13.839-.38 8.762v5.075h3.829V7.016h-5.013l-4.734 13.467zm22.827 0L93.268 7.016h-4.986v18.571h3.817v-5.075l-.383-8.749 4.988 13.826h2.621l4.998-13.839-.38 8.762v5.075h3.829V7.016h-5.013l-4.734 13.467zM36.889 10.402c.518-.395 1.244-.594 2.174-.594.929 0 1.718.235 2.252.709.535.47.803 1.134.803 1.984h3.817c0-1.115-.287-2.109-.859-2.987-.574-.875-1.377-1.551-2.411-2.034-1.036-.478-2.213-.722-3.538-.722-1.325 0-2.5.221-3.557.666-1.056.441-1.864 1.056-2.429 1.843a4.492 4.492 0 00-.847 2.683c0 1.932 1.053 3.465 3.156 4.605.773.416 1.818.841 3.143 1.269 1.325.431 2.238.839 2.747 1.225.51.387.764.943.764 1.664 0 .664-.254 1.18-.764 1.55-.509.368-1.217.553-2.123.553-2.442 0-3.666-1.025-3.666-3.074h-3.829c0 1.198.308 2.253.922 3.164.615.909 1.508 1.624 2.679 2.149 1.171.522 2.467.786 3.894.786 2.051 0 3.685-.458 4.898-1.373 1.213-.913 1.818-2.174 1.818-3.782 0-1.443-.497-2.652-1.489-3.621-.994-.969-2.575-1.783-4.745-2.436-1.181-.355-2.072-.74-2.679-1.148-.607-.408-.911-.915-.911-1.516 0-.647.26-1.167.78-1.563z" fill="#161616"/></g></g></svg>