<svg width="250" height="60" viewBox="0 0 250 60" fill="none" xmlns="http://www.w3.org/2000/svg"><path d="M30.001 0A30.002 30.002 0 00.576 35.853a30 30 0 0054.37 10.814A30 30 0 0030.001 0zm0 56.56a26.571 26.571 0 01-18.798-45.358 26.572 26.572 0 1128.963 43.336A26.561 26.561 0 0130 56.56zm-5.89-29a5.89 5.89 0 014.68 5.93 8.525 8.525 0 01-.17 1.63c-.84 3.68-4.1 5.32-7.44 5.32a13.502 13.502 0 01-1.5-.09c-2.32-.3-6.76-2.49-6.76-5.48a2.75 2.75 0 01.27-1.17 1.87 1.87 0 011.71-1.1c1.21 0 1.93 1.13 2.6 2 .276.325.617.59 1 .78a4.65 4.65 0 002 .69h.91c1.41 0 3.14-.72 3.14-2.48a1.6 1.6 0 00-.72-1.47 2.821 2.821 0 00-.92-.38l-.79-.22-2.69-.65-.75-.19c-3.1-.89-5.09-2.73-5.09-5.69a6.92 6.92 0 01.3-2 5.91 5.91 0 012.48-3.32 8 8 0 014.48-1.25h.55c.336.01.67.047 1 .11a7.151 7.151 0 012.21.62 8.24 8.24 0 011.79 1c1.14.92 2.34 2.13 1.39 3.77a2 2 0 01-1.37 1 2.08 2.08 0 01-1.52-.32l-.72-.6-.43-.32a4.39 4.39 0 00-3-1c-1 0-2.4.3-2.75 1.45-.06.18-.094.37-.1.56 0 .48.29 1.15 2.05 1.68l.55.16.38.1.84.21 1.17.3.5.07.81.22M46.681 37c.254.383.393.83.4 1.29a2.17 2.17 0 01-1.46 2.1 3.51 3.51 0 01-.65.09 2.35 2.35 0 01-1.72-.8l-6.71-7.15v5.31c0 1.22-.45 2.7-2 2.7a2.179 2.179 0 01-2.13-2.36v-17c0-1.27.49-2.73 2.09-2.73a1.94 1.94 0 012.09 1.83V26l6.13-6.48c.38-.43.877-.74 1.43-.89a2.07 2.07 0 012.32 1.62 2.571 2.571 0 01-.84 2.45l-6.36 6.51 7 7.22.41.57zm25.492 2.71c0 .45-.12.64-.57.64h-1.95c-.41 0-.57-.19-.57-.64V19.34c0-.44.16-.63.57-.63h1.95c.45 0 .57.19.57.63v20.37zm5.74.64c-.38 0-.51-.22-.51-.64V19.34c0-.44.16-.63.58-.63h6.66c5.46 0 7.27 2.29 7.27 4.91v11.86c0 2.61-1.81 4.91-7.27 4.91l-6.73-.04zm2.59-19v16.39h4.14c2.87 0 4.15-1.05 4.15-2.77V24.13c0-1.73-1.28-2.78-4.15-2.78h-4.14zm34.922 1.79c0-1.91-1-3.25-4.751-3.25-3.75 0-4.76 1.34-4.76 3.25v1.18a2.842 2.842 0 002 2.71l6.131 2.33c1.59.6 3.19 1.81 3.19 4v2.81c0 2.49-1.53 4.5-6.611 4.5-5.08 0-6.63-2-6.63-4.5v-1.68c0-.29.13-.41.38-.41h.93c.25 0 .38.12.38.41V36c0 1.91 1.18 3.25 4.91 3.25 3.731 0 5.001-1.34 5.001-3.25v-2.31c0-1.72-1.41-2.48-2.65-3l-5.941-2.26a4.07 4.07 0 01-2.74-3.76V23c0-2.49 1.4-4.5 6.41-4.5 5.011 0 6.411 2 6.411 4.5v1.56c0 .25-.1.38-.39.38h-.92c-.26 0-.35-.13-.35-.38v-1.42zm6.82-.19c0-2.49 1.53-4.5 6.64-4.5 5.11 0 6.69 2 6.69 4.5v13.2c0 2.49-1.56 4.5-6.69 4.5-5.13 0-6.64-2-6.64-4.5v-13.2zm11.61.25c0-1.94-1.24-3.28-5-3.28s-4.95 1.34-4.95 3.28v12.69c0 2 1.25 3.29 4.95 3.29s5-1.34 5-3.29V23.2zm9.151 15.72h9.44c.26 0 .39.1.39.39V40c0 .29-.13.38-.39.38h-10.81c-.19 0-.32-.13-.32-.38V19.09a.335.335 0 01.231-.378.34.34 0 01.159-.012h1c.26 0 .35.13.35.39l-.05 19.83zm15.57-3c0 2 1.24 3.29 5.001 3.29 3.76 0 5-1.34 5-3.29V19.09a.326.326 0 01.092-.288.33.33 0 01.288-.092h1c.25 0 .35.12.35.38v17.06c0 2.49-1.53 4.5-6.67 4.5-5.141 0-6.661-2-6.661-4.5V19.09a.332.332 0 01.38-.38h1c.25 0 .35.12.35.38l-.13 16.83zm28.801-17.18c.251 0 .381.09.381.38v.7c0 .29-.13.38-.381.38h-5.81V40c0 .25-.09.38-.35.38h-1c-.28 0-.38-.13-.38-.38V20.17h-5.73c-.29 0-.38-.09-.38-.38v-.7c0-.29.09-.38.38-.38l13.27.03zM193.148 40c0 .25-.1.38-.35.38h-1a.34.34 0 01-.38-.38V19.09a.326.326 0 01.092-.288.328.328 0 01.288-.092h1c.25 0 .35.12.35.38V40zm5.77-17c0-2.49 1.53-4.5 6.63-4.5s6.7 2 6.7 4.5v13.2c0 2.49-1.56 4.5-6.7 4.5-5.14 0-6.63-2-6.63-4.5V23zm11.61.25c0-1.94-1.25-3.28-5-3.28s-4.94 1.34-4.94 3.28v12.64c0 2 1.24 3.29 4.94 3.29s5-1.34 5-3.29V23.25zM231.289 40c0 .25-.1.38-.35.38h-.86a.33.33 0 01-.35-.19L220.609 24a17.377 17.377 0 01-1-1.92V40c0 .25-.1.38-.35.38h-.87a.34.34 0 01-.38-.38V19.09a.326.326 0 01.092-.288.33.33 0 01.288-.092h.87a.354.354 0 01.31.15l9.22 16.36c.29.52.93 1.82.93 1.82V19.09a.332.332 0 01.38-.38h.86c.25 0 .35.12.35.38l-.02 20.91zm16.901-16.87c0-1.91-1.05-3.25-4.75-3.25s-4.75 1.34-4.75 3.25v1.18a2.84 2.84 0 002 2.71l6.12 2.33c1.6.6 3.19 1.81 3.19 4v2.81c0 2.49-1.53 4.5-6.6 4.5-5.07 0-6.631-2-6.631-4.5v-1.67c0-.29.12-.41.38-.41h.921c.26 0 .39.12.39.41V36c0 1.91 1.18 3.25 4.91 3.25 3.73 0 5-1.34 5-3.25v-2.31c0-1.72-1.4-2.48-2.64-3l-5.94-2.3a4.094 4.094 0 01-2.781-3.72V23c0-2.49 1.401-4.5 6.411-4.5s6.41 2 6.41 4.5v1.56c0 .25-.09.38-.38.38h-.93c-.25 0-.35-.13-.35-.38l.02-1.43z" fill="#fff"/></svg>