<?xml version="1.0" encoding="us-ascii" standalone="no"?><svg xmlns="http://www.w3.org/2000/svg" xmlns:xlink="http://www.w3.org/1999/xlink" contentStyleType="text/css" height="418px" preserveAspectRatio="none" style="width:881px;height:418px;" version="1.1" viewBox="0 0 881 418" width="881px" zoomAndPan="magnify"><defs/><g><text fill="#000000" font-family="Inter" font-size="14" font-weight="bold" lengthAdjust="spacing" textLength="305" x="286.5" y="27.9951">Notification based Signing Flow (Mock)</text><rect fill="#D2E4F4" height="319.3281" style="stroke:#989898;stroke-width:1.0;" width="10" x="95.5" y="83.5938"/><rect fill="#D2E4F4" height="319.3281" style="stroke:#989898;stroke-width:1.0;" width="10" x="433.5" y="83.5938"/><rect fill="#D2E4F4" height="93.3984" style="stroke:#989898;stroke-width:1.0;" width="10" x="746.5" y="168.9922"/><rect fill="none" height="75.3984" rx="3.5" ry="3.5" style="stroke:#989898;stroke-width:1.0;" width="467.5" x="10" y="277.3906"/><line style="stroke:#989898;stroke-width:0.5;stroke-dasharray:5.0,5.0;" x1="100" x2="100" y1="73.5938" y2="411.9219"/><line style="stroke:#989898;stroke-width:0.5;stroke-dasharray:5.0,5.0;" x1="438.5" x2="438.5" y1="73.5938" y2="411.9219"/><line style="stroke:#989898;stroke-width:0.5;stroke-dasharray:5.0,5.0;" x1="751" x2="751" y1="73.5938" y2="411.9219"/><rect fill="#A5C8E8" height="30.2969" rx="3.5" ry="3.5" style="stroke:#202020;stroke-width:1.5;" width="161" x="20" y="42.2969"/><text fill="#202020" font-family="Inter" font-size="14" lengthAdjust="spacing" textLength="147" x="27" y="62.292">RP backend/frontend</text><rect fill="#A5C8E8" height="30.2969" rx="3.5" ry="3.5" style="stroke:#202020;stroke-width:1.5;" width="58" x="409.5" y="42.2969"/><text fill="#202020" font-family="Inter" font-size="14" lengthAdjust="spacing" textLength="44" x="416.5" y="62.292">RP API</text><rect fill="#FF8F37" height="30.2969" rx="3.5" ry="3.5" style="stroke:#202020;stroke-width:1.5;" width="105" x="699" y="42.2969"/><text fill="#202020" font-family="Inter" font-size="14" lengthAdjust="spacing" textLength="91" x="706" y="62.292">Mock Service</text><rect fill="#D2E4F4" height="319.3281" style="stroke:#989898;stroke-width:1.0;" width="10" x="95.5" y="83.5938"/><rect fill="#D2E4F4" height="319.3281" style="stroke:#989898;stroke-width:1.0;" width="10" x="433.5" y="83.5938"/><rect fill="#D2E4F4" height="93.3984" style="stroke:#989898;stroke-width:1.0;" width="10" x="746.5" y="168.9922"/><polygon fill="#202020" points="421.5,100.7266,431.5,104.7266,421.5,108.7266" style="stroke:#202020;stroke-width:1.0;"/><line style="stroke:#202020;stroke-width:1.0;" x1="105.5" x2="427.5" y1="104.7266" y2="104.7266"/><text fill="#000000" font-family="Inter" font-size="13" font-weight="bold" lengthAdjust="spacing" textLength="9" x="117.5" y="99.6606">1</text><text fill="#000000" font-family="Inter" font-size="13" lengthAdjust="spacing" textLength="43" x="130.5" y="99.6606">Create</text><text fill="#000000" font-family="Inter" font-size="13" lengthAdjust="spacing" textLength="4" x="173.5" y="99.6606">&#160;</text><text fill="#000000" font-family="Inter" font-size="13" lengthAdjust="spacing" textLength="45" x="177.5" y="99.6606">signing</text><text fill="#000000" font-family="Inter" font-size="13" lengthAdjust="spacing" textLength="4" x="222.5" y="99.6606">&#160;</text><text fill="#000000" font-family="Inter" font-size="13" lengthAdjust="spacing" textLength="49" x="226.5" y="99.6606">request</text><text fill="#000000" font-family="Inter" font-size="13" lengthAdjust="spacing" textLength="4" x="275.5" y="99.6606">&#160;</text><text fill="#000000" font-family="Inter" font-size="13" lengthAdjust="spacing" textLength="5" x="279.5" y="99.6606">(</text><text fill="#000000" font-family="monospace" font-size="13" lengthAdjust="spacing" textLength="112" x="284.5" y="99.6606">documentNumber</text><text fill="#000000" font-family="Inter" font-size="13" lengthAdjust="spacing" textLength="4" x="396.5" y="99.6606">,</text><text fill="#000000" font-family="Inter" font-size="13" lengthAdjust="spacing" textLength="4" x="400.5" y="99.6606">&#160;</text><text fill="#000000" font-family="Inter" font-size="13" lengthAdjust="spacing" textLength="17" x="404.5" y="99.6606">...)</text><path d="M203,121.2266 L203,139.2266 A3.5,3.5 0 0 0 206.5,142.7266 L670.5,142.7266 A3.5,3.5 0 0 0 674,139.2266 L674,127.7266 L664,117.7266 L206.5,117.7266 A3.5,3.5 0 0 0 203,121.2266 " fill="#DFDFDF" style="stroke:#202020;stroke-width:1.5;"/><path d="M664,117.7266 L664,125.9766 A1.75,1.75 0 0 0 665.75,127.7266 L674,127.7266 L664,117.7266 " fill="#DFDFDF" style="stroke:#202020;stroke-width:1.5;"/><text fill="#202020" font-family="Inter" font-size="13" lengthAdjust="spacing" textLength="450" x="209" y="134.7935">Session is created using one of the preconfigured document numbers.</text><polygon fill="#202020" points="116.5,164.9922,106.5,168.9922,116.5,172.9922" style="stroke:#202020;stroke-width:1.0;"/><line style="stroke:#202020;stroke-width:1.0;stroke-dasharray:2.0,2.0;" x1="110.5" x2="432.5" y1="168.9922" y2="168.9922"/><text fill="#000000" font-family="Inter" font-size="13" font-weight="bold" lengthAdjust="spacing" textLength="9" x="215" y="163.9263">2</text><text fill="#000000" font-family="monospace" font-size="13" lengthAdjust="spacing" textLength="72" x="228" y="163.9263">sessionID</text><text fill="#000000" font-family="Inter" font-size="13" lengthAdjust="spacing" textLength="4" x="300" y="163.9263">,</text><text fill="#000000" font-family="Inter" font-size="13" lengthAdjust="spacing" textLength="4" x="304" y="163.9263">&#160;</text><text fill="#000000" font-family="monospace" font-size="13" lengthAdjust="spacing" textLength="16" x="308" y="163.9263">vc</text><path d="M628,185.4922 L628,203.4922 A3.5,3.5 0 0 0 631.5,206.9922 L870.5,206.9922 A3.5,3.5 0 0 0 874,203.4922 L874,191.9922 L864,181.9922 L631.5,181.9922 A3.5,3.5 0 0 0 628,185.4922 " fill="#DFDFDF" style="stroke:#202020;stroke-width:1.5;"/><path d="M864,181.9922 L864,190.2422 A1.75,1.75 0 0 0 865.75,191.9922 L874,191.9922 L864,181.9922 " fill="#DFDFDF" style="stroke:#202020;stroke-width:1.5;"/><text fill="#202020" font-family="Inter" font-size="13" lengthAdjust="spacing" textLength="225" x="634" y="199.0591">Mock Service behaves like the App.</text><polygon fill="#202020" points="734.5,229.2578,744.5,233.2578,734.5,237.2578" style="stroke:#202020;stroke-width:1.0;"/><line style="stroke:#202020;stroke-width:1.0;" x1="443.5" x2="740.5" y1="233.2578" y2="233.2578"/><text fill="#000000" font-family="Inter" font-size="13" font-weight="bold" lengthAdjust="spacing" textLength="9" x="552.5" y="228.1919">3</text><text fill="#000000" font-family="Inter" font-size="13" lengthAdjust="spacing" textLength="72" x="565.5" y="228.1919">Notification</text><polygon fill="#202020" points="454.5,258.3906,444.5,262.3906,454.5,266.3906" style="stroke:#202020;stroke-width:1.0;"/><line style="stroke:#202020;stroke-width:1.0;" x1="448.5" x2="750.5" y1="262.3906" y2="262.3906"/><text fill="#000000" font-family="Inter" font-size="13" font-weight="bold" lengthAdjust="spacing" textLength="9" x="458" y="257.3247">4</text><text fill="#000000" font-family="Inter" font-size="13" lengthAdjust="spacing" textLength="47" x="471" y="257.3247">Finalize</text><text fill="#000000" font-family="Inter" font-size="13" lengthAdjust="spacing" textLength="4" x="518" y="257.3247">&#160;</text><text fill="#000000" font-family="Inter" font-size="13" lengthAdjust="spacing" textLength="72" x="522" y="257.3247">transaction</text><text fill="#000000" font-family="Inter" font-size="13" lengthAdjust="spacing" textLength="4" x="594" y="257.3247">&#160;</text><text fill="#000000" font-family="Inter" font-size="13" lengthAdjust="spacing" textLength="21" x="598" y="257.3247">per</text><text fill="#000000" font-family="Inter" font-size="13" lengthAdjust="spacing" textLength="4" x="619" y="257.3247">&#160;</text><text fill="#000000" font-family="Inter" font-size="13" lengthAdjust="spacing" textLength="53" x="623" y="257.3247">mapped</text><text fill="#000000" font-family="Inter" font-size="13" lengthAdjust="spacing" textLength="4" x="676" y="257.3247">&#160;</text><text fill="#000000" font-family="Inter" font-size="13" lengthAdjust="spacing" textLength="57" x="680" y="257.3247">outcome</text><path d="M13.5,277.3906 L87,277.3906 L87,284.5234 L77,294.5234 L10,294.5234 L10,280.8906 A3.5,3.5 0 0 1 13.5,277.3906 " fill="#EEEEEE" style="stroke:#989898;stroke-width:1.5;"/><rect fill="none" height="75.3984" rx="3.5" ry="3.5" style="stroke:#989898;stroke-width:1.0;" width="467.5" x="10" y="277.3906"/><text fill="#202020" font-family="Inter" font-size="13" font-weight="bold" lengthAdjust="spacing" textLength="32" x="25" y="290.4575">loop</text><text fill="#989898" font-family="Inter" font-size="11" font-weight="bold" lengthAdjust="spacing" textLength="227" x="102" y="289.6011">[until signature completed or error]</text><polygon fill="#202020" points="421.5,311.6563,431.5,315.6563,421.5,319.6563" style="stroke:#202020;stroke-width:1.0;"/><line style="stroke:#202020;stroke-width:1.0;" x1="105.5" x2="427.5" y1="315.6563" y2="315.6563"/><text fill="#000000" font-family="Inter" font-size="13" font-weight="bold" lengthAdjust="spacing" textLength="9" x="203.5" y="310.5903">5</text><text fill="#000000" font-family="Inter" font-size="13" lengthAdjust="spacing" textLength="23" x="216.5" y="310.5903">Get</text><text fill="#000000" font-family="Inter" font-size="13" lengthAdjust="spacing" textLength="4" x="239.5" y="310.5903">&#160;</text><text fill="#000000" font-family="Inter" font-size="13" lengthAdjust="spacing" textLength="48" x="243.5" y="310.5903">session</text><text fill="#000000" font-family="Inter" font-size="13" lengthAdjust="spacing" textLength="4" x="291.5" y="310.5903">&#160;</text><text fill="#000000" font-family="Inter" font-size="13" lengthAdjust="spacing" textLength="40" x="295.5" y="310.5903">status</text><polygon fill="#202020" points="116.5,340.7891,106.5,344.7891,116.5,348.7891" style="stroke:#202020;stroke-width:1.0;"/><line style="stroke:#202020;stroke-width:1.0;stroke-dasharray:2.0,2.0;" x1="110.5" x2="432.5" y1="344.7891" y2="344.7891"/><text fill="#000000" font-family="Inter" font-size="13" font-weight="bold" lengthAdjust="spacing" textLength="9" x="171" y="339.7231">6</text><text fill="#000000" font-family="monospace" font-size="13" lengthAdjust="spacing" textLength="56" x="184" y="339.7231">Pending</text><text fill="#000000" font-family="Inter" font-size="13" lengthAdjust="spacing" textLength="4" x="240" y="339.7231">&#160;</text><text fill="#000000" font-family="Inter" font-size="13" lengthAdjust="spacing" textLength="4" x="244" y="339.7231">/</text><text fill="#000000" font-family="Inter" font-size="13" lengthAdjust="spacing" textLength="4" x="248" y="339.7231">&#160;</text><text fill="#000000" font-family="monospace" font-size="13" lengthAdjust="spacing" textLength="64" x="252" y="339.7231">Complete</text><text fill="#000000" font-family="Inter" font-size="13" lengthAdjust="spacing" textLength="4" x="316" y="339.7231">&#160;</text><text fill="#000000" font-family="Inter" font-size="13" lengthAdjust="spacing" textLength="4" x="320" y="339.7231">/</text><text fill="#000000" font-family="Inter" font-size="13" lengthAdjust="spacing" textLength="4" x="324" y="339.7231">&#160;</text><text fill="#000000" font-family="monospace" font-size="13" lengthAdjust="spacing" textLength="40" x="328" y="339.7231">Error</text><line style="stroke:#202020;stroke-width:1.0;" x1="105.5" x2="147.5" y1="380.9219" y2="380.9219"/><line style="stroke:#202020;stroke-width:1.0;" x1="147.5" x2="147.5" y1="380.9219" y2="393.9219"/><line style="stroke:#202020;stroke-width:1.0;" x1="106.5" x2="147.5" y1="393.9219" y2="393.9219"/><polygon fill="#202020" points="116.5,389.9219,106.5,393.9219,116.5,397.9219" style="stroke:#202020;stroke-width:1.0;"/><text fill="#000000" font-family="Inter" font-size="13" font-weight="bold" lengthAdjust="spacing" textLength="9" x="112.5" y="375.856">7</text><text fill="#000000" font-family="Inter" font-size="13" lengthAdjust="spacing" textLength="52" x="125.5" y="375.856">Validate</text><text fill="#000000" font-family="Inter" font-size="13" lengthAdjust="spacing" textLength="4" x="177.5" y="375.856">&#160;</text><text fill="#000000" font-family="Inter" font-size="13" lengthAdjust="spacing" textLength="55" x="181.5" y="375.856">returned</text><text fill="#000000" font-family="Inter" font-size="13" lengthAdjust="spacing" textLength="4" x="236.5" y="375.856">&#160;</text><text fill="#000000" font-family="monospace" font-size="13" lengthAdjust="spacing" textLength="72" x="240.5" y="375.856">signature</text></g></svg>