<?xml version="1.0" encoding="us-ascii" standalone="no"?><svg xmlns="http://www.w3.org/2000/svg" xmlns:xlink="http://www.w3.org/1999/xlink" contentStyleType="text/css" height="994px" preserveAspectRatio="none" style="width:1245px;height:994px;" version="1.1" viewBox="0 0 1245 994" width="1245px" zoomAndPan="magnify"><defs/><g><text fill="#000000" font-family="Inter" font-size="14" font-weight="bold" lengthAdjust="spacing" textLength="331" x="455.5" y="27.9951">Device Link based Certificate Choice Flow</text><rect fill="#D2E4F4" height="894.5313" style="stroke:#989898;stroke-width:1.0;" width="10" x="165" y="83.5938"/><rect fill="#D2E4F4" height="894.5313" style="stroke:#989898;stroke-width:1.0;" width="10" x="399" y="83.5938"/><rect fill="#D2E4F4" height="673.3359" style="stroke:#989898;stroke-width:1.0;" width="10" x="873" y="184.125"/><rect fill="#D2E4F4" height="379.2031" style="stroke:#989898;stroke-width:1.0;" width="10" x="1089" y="466.2578"/><rect fill="none" height="179.6016" rx="3.5" ry="3.5" style="stroke:#989898;stroke-width:1.0;" width="370.5" x="102" y="243.3906"/><rect fill="none" height="75.3984" rx="3.5" ry="3.5" style="stroke:#989898;stroke-width:1.0;" width="350.5" x="112" y="267.5234"/><rect fill="none" height="223.5391" rx="3.5" ry="3.5" style="stroke:#989898;stroke-width:1.0;" width="799" x="335.5" y="666.0547"/><rect fill="none" height="163.2734" rx="3.5" ry="3.5" style="stroke:#989898;stroke-width:1.0;" width="779" x="345.5" y="719.3203"/><line style="stroke:#989898;stroke-width:0.5;stroke-dasharray:5.0,5.0;" x1="170" x2="170" y1="73.5938" y2="987.125"/><line style="stroke:#989898;stroke-width:0.5;stroke-dasharray:5.0,5.0;" x1="403.5" x2="403.5" y1="73.5938" y2="987.125"/><line style="stroke:#989898;stroke-width:0.5;stroke-dasharray:5.0,5.0;" x1="878" x2="878" y1="73.5938" y2="987.125"/><line style="stroke:#989898;stroke-width:0.5;stroke-dasharray:5.0,5.0;" x1="1093.5" x2="1093.5" y1="73.5938" y2="987.125"/><rect fill="#A5C8E8" height="30.2969" rx="3.5" ry="3.5" style="stroke:#202020;stroke-width:1.5;" width="96" x="122" y="42.2969"/><text fill="#202020" font-family="Inter" font-size="14" lengthAdjust="spacing" textLength="82" x="129" y="62.292">RP frontend</text><rect fill="#A5C8E8" height="30.2969" rx="3.5" ry="3.5" style="stroke:#202020;stroke-width:1.5;" width="97" x="355.5" y="42.2969"/><text fill="#202020" font-family="Inter" font-size="14" lengthAdjust="spacing" textLength="83" x="362.5" y="62.292">RP backend</text><rect fill="#A5C8E8" height="30.2969" rx="3.5" ry="3.5" style="stroke:#202020;stroke-width:1.5;" width="58" x="849" y="42.2969"/><text fill="#202020" font-family="Inter" font-size="14" lengthAdjust="spacing" textLength="44" x="856" y="62.292">RP API</text><rect fill="#A5C8E8" height="30.2969" rx="3.5" ry="3.5" style="stroke:#202020;stroke-width:1.5;" width="41" x="1073.5" y="42.2969"/><text fill="#202020" font-family="Inter" font-size="14" lengthAdjust="spacing" textLength="27" x="1080.5" y="62.292">App</text><rect fill="#D2E4F4" height="894.5313" style="stroke:#989898;stroke-width:1.0;" width="10" x="165" y="83.5938"/><rect fill="#D2E4F4" height="894.5313" style="stroke:#989898;stroke-width:1.0;" width="10" x="399" y="83.5938"/><rect fill="#D2E4F4" height="673.3359" style="stroke:#989898;stroke-width:1.0;" width="10" x="873" y="184.125"/><rect fill="#D2E4F4" height="379.2031" style="stroke:#989898;stroke-width:1.0;" width="10" x="1089" y="466.2578"/><path d="M5,92.0938 L5,110.0938 A3.5,3.5 0 0 0 8.5,113.5938 L332.5,113.5938 A3.5,3.5 0 0 0 336,110.0938 L336,98.5938 L326,88.5938 L8.5,88.5938 A3.5,3.5 0 0 0 5,92.0938 " fill="#DFDFDF" style="stroke:#202020;stroke-width:1.5;"/><path d="M326,88.5938 L326,96.8438 A1.75,1.75 0 0 0 327.75,98.5938 L336,98.5938 L326,88.5938 " fill="#DFDFDF" style="stroke:#202020;stroke-width:1.5;"/><text fill="#202020" font-family="Inter" font-size="13" lengthAdjust="spacing" textLength="310" x="11" y="105.6606">User initiates a login on a website or mobile app.</text><polygon fill="#202020" points="387,135.8594,397,139.8594,387,143.8594" style="stroke:#202020;stroke-width:1.0;"/><line style="stroke:#202020;stroke-width:1.0;" x1="175" x2="393" y1="139.8594" y2="139.8594"/><text fill="#000000" font-family="Inter" font-size="13" font-weight="bold" lengthAdjust="spacing" textLength="9" x="198.5" y="134.7935">1</text><text fill="#000000" font-family="Inter" font-size="13" lengthAdjust="spacing" textLength="52" x="211.5" y="134.7935">Request</text><text fill="#000000" font-family="Inter" font-size="13" lengthAdjust="spacing" textLength="4" x="263.5" y="134.7935">&#160;</text><text fill="#000000" font-family="Inter" font-size="13" lengthAdjust="spacing" textLength="63" x="267.5" y="134.7935">certificate</text><text fill="#000000" font-family="Inter" font-size="13" lengthAdjust="spacing" textLength="4" x="330.5" y="134.7935">&#160;</text><text fill="#000000" font-family="Inter" font-size="13" lengthAdjust="spacing" textLength="41" x="334.5" y="134.7935">choice</text><polygon fill="#202020" points="861,180.125,871,184.125,861,188.125" style="stroke:#202020;stroke-width:1.0;"/><line style="stroke:#202020;stroke-width:1.0;" x1="409" x2="867" y1="184.125" y2="184.125"/><text fill="#000000" font-family="Inter" font-size="13" font-weight="bold" lengthAdjust="spacing" textLength="9" x="418.5" y="171.4927">2</text><text fill="#000000" font-family="monospace" font-size="13" lengthAdjust="spacing" textLength="32" x="631.5" y="163.9263">POST</text><text fill="#000000" font-family="monospace" font-size="13" lengthAdjust="spacing" textLength="432" x="431.5" y="179.0591">/v3/signature/certificate-choice/device-link/anonymous</text><polygon fill="#202020" points="420,192.125,410,196.125,420,200.125" style="stroke:#202020;stroke-width:1.0;"/><line style="stroke:#202020;stroke-width:1.0;stroke-dasharray:2.0,2.0;" x1="414" x2="872" y1="196.125" y2="196.125"/><text fill="#000000" font-family="Inter" font-size="13" font-weight="bold" lengthAdjust="spacing" textLength="9" x="488.5" y="216.7583">3</text><text fill="#000000" font-family="monospace" font-size="13" lengthAdjust="spacing" textLength="72" x="501.5" y="209.1919">sessionID</text><text fill="#000000" font-family="Inter" font-size="13" lengthAdjust="spacing" textLength="4" x="573.5" y="209.1919">,</text><text fill="#000000" font-family="Inter" font-size="13" lengthAdjust="spacing" textLength="4" x="577.5" y="209.1919">&#160;</text><text fill="#000000" font-family="monospace" font-size="13" lengthAdjust="spacing" textLength="96" x="581.5" y="209.1919">sessionToken</text><text fill="#000000" font-family="Inter" font-size="13" lengthAdjust="spacing" textLength="4" x="677.5" y="209.1919">,</text><text fill="#000000" font-family="Inter" font-size="13" lengthAdjust="spacing" textLength="4" x="681.5" y="209.1919">&#160;</text><text fill="#000000" font-family="monospace" font-size="13" lengthAdjust="spacing" textLength="104" x="685.5" y="209.1919">sessionSecret</text><text fill="#000000" font-family="Inter" font-size="13" lengthAdjust="spacing" textLength="4" x="789.5" y="209.1919">,</text><text fill="#000000" font-family="monospace" font-size="13" lengthAdjust="spacing" textLength="112" x="591.5" y="224.3247">deviceLinkBase</text><path d="M105.5,243.3906 L166,243.3906 L166,250.5234 L156,260.5234 L102,260.5234 L102,246.8906 A3.5,3.5 0 0 1 105.5,243.3906 " fill="#EEEEEE" style="stroke:#989898;stroke-width:1.5;"/><rect fill="none" height="179.6016" rx="3.5" ry="3.5" style="stroke:#989898;stroke-width:1.0;" width="370.5" x="102" y="243.3906"/><text fill="#202020" font-family="Inter" font-size="13" font-weight="bold" lengthAdjust="spacing" textLength="19" x="117" y="256.4575">alt</text><text fill="#989898" font-family="Inter" font-size="11" font-weight="bold" lengthAdjust="spacing" textLength="222" x="181" y="255.6011">[Cross-device use-case (QR code)]</text><path d="M115.5,267.5234 L189,267.5234 L189,274.6563 L179,284.6563 L112,284.6563 L112,271.0234 A3.5,3.5 0 0 1 115.5,267.5234 " fill="#EEEEEE" style="stroke:#989898;stroke-width:1.5;"/><rect fill="none" height="75.3984" rx="3.5" ry="3.5" style="stroke:#989898;stroke-width:1.0;" width="350.5" x="112" y="267.5234"/><text fill="#202020" font-family="Inter" font-size="13" font-weight="bold" lengthAdjust="spacing" textLength="32" x="127" y="280.5903">loop</text><text fill="#989898" font-family="Inter" font-size="11" font-weight="bold" lengthAdjust="spacing" textLength="132" x="204" y="279.7339">[until user interacts]</text><polygon fill="#202020" points="387,301.7891,397,305.7891,387,309.7891" style="stroke:#202020;stroke-width:1.0;"/><line style="stroke:#202020;stroke-width:1.0;" x1="175" x2="393" y1="305.7891" y2="305.7891"/><text fill="#000000" font-family="Inter" font-size="13" font-weight="bold" lengthAdjust="spacing" textLength="9" x="187" y="300.7231">4</text><text fill="#000000" font-family="Inter" font-size="13" lengthAdjust="spacing" textLength="52" x="200" y="300.7231">Request</text><text fill="#000000" font-family="Inter" font-size="13" lengthAdjust="spacing" textLength="4" x="252" y="300.7231">&#160;</text><text fill="#000000" font-family="Inter" font-size="13" lengthAdjust="spacing" textLength="17" x="256" y="300.7231">for</text><text fill="#000000" font-family="Inter" font-size="13" lengthAdjust="spacing" textLength="4" x="273" y="300.7231">&#160;</text><text fill="#000000" font-family="Inter" font-size="13" lengthAdjust="spacing" textLength="53" x="277" y="300.7231">updated</text><text fill="#000000" font-family="Inter" font-size="13" lengthAdjust="spacing" textLength="4" x="330" y="300.7231">&#160;</text><text fill="#000000" font-family="Inter" font-size="13" lengthAdjust="spacing" textLength="18" x="334" y="300.7231">QR</text><text fill="#000000" font-family="Inter" font-size="13" lengthAdjust="spacing" textLength="4" x="352" y="300.7231">&#160;</text><text fill="#000000" font-family="Inter" font-size="13" lengthAdjust="spacing" textLength="31" x="356" y="300.7231">code</text><polygon fill="#202020" points="186,313.7891,176,317.7891,186,321.7891" style="stroke:#202020;stroke-width:1.0;"/><line style="stroke:#202020;stroke-width:1.0;stroke-dasharray:2.0,2.0;" x1="180" x2="398" y1="317.7891" y2="317.7891"/><text fill="#000000" font-family="Inter" font-size="13" font-weight="bold" lengthAdjust="spacing" textLength="9" x="200" y="330.856">5</text><text fill="#000000" font-family="Inter" font-size="13" lengthAdjust="spacing" textLength="47" x="213" y="330.856">Provide</text><text fill="#000000" font-family="Inter" font-size="13" lengthAdjust="spacing" textLength="4" x="260" y="330.856">&#160;</text><text fill="#000000" font-family="Inter" font-size="13" lengthAdjust="spacing" textLength="53" x="264" y="330.856">updated</text><text fill="#000000" font-family="Inter" font-size="13" lengthAdjust="spacing" textLength="4" x="317" y="330.856">&#160;</text><text fill="#000000" font-family="Inter" font-size="13" lengthAdjust="spacing" textLength="18" x="321" y="330.856">QR</text><text fill="#000000" font-family="Inter" font-size="13" lengthAdjust="spacing" textLength="4" x="339" y="330.856">&#160;</text><text fill="#000000" font-family="Inter" font-size="13" lengthAdjust="spacing" textLength="31" x="343" y="330.856">code</text><line style="stroke:#989898;stroke-width:1.0;stroke-dasharray:2.0,2.0;" x1="102" x2="472.5" y1="350.9219" y2="350.9219"/><text fill="#989898" font-family="Inter" font-size="11" font-weight="bold" lengthAdjust="spacing" textLength="306" x="107" y="361.1323">[Same-device use-case (Web2App or App2App)]</text><polygon fill="#202020" points="387,381.8594,397,385.8594,387,389.8594" style="stroke:#202020;stroke-width:1.0;"/><line style="stroke:#202020;stroke-width:1.0;" x1="175" x2="393" y1="385.8594" y2="385.8594"/><text fill="#000000" font-family="Inter" font-size="13" font-weight="bold" lengthAdjust="spacing" textLength="9" x="219.5" y="380.7935">6</text><text fill="#000000" font-family="Inter" font-size="13" lengthAdjust="spacing" textLength="52" x="232.5" y="380.7935">Request</text><text fill="#000000" font-family="Inter" font-size="13" lengthAdjust="spacing" textLength="4" x="284.5" y="380.7935">&#160;</text><text fill="#000000" font-family="Inter" font-size="13" lengthAdjust="spacing" textLength="41" x="288.5" y="380.7935">device</text><text fill="#000000" font-family="Inter" font-size="13" lengthAdjust="spacing" textLength="4" x="329.5" y="380.7935">&#160;</text><text fill="#000000" font-family="Inter" font-size="13" lengthAdjust="spacing" textLength="21" x="333.5" y="380.7935">link</text><polygon fill="#202020" points="186,393.8594,176,397.8594,186,401.8594" style="stroke:#202020;stroke-width:1.0;"/><line style="stroke:#202020;stroke-width:1.0;stroke-dasharray:2.0,2.0;" x1="180" x2="398" y1="397.8594" y2="397.8594"/><text fill="#000000" font-family="Inter" font-size="13" font-weight="bold" lengthAdjust="spacing" textLength="9" x="226" y="410.9263">7</text><text fill="#000000" font-family="Inter" font-size="13" lengthAdjust="spacing" textLength="84" x="239" y="410.9263">Same-device</text><text fill="#000000" font-family="Inter" font-size="13" lengthAdjust="spacing" textLength="4" x="323" y="410.9263">&#160;</text><text fill="#000000" font-family="Inter" font-size="13" lengthAdjust="spacing" textLength="21" x="327" y="410.9263">link</text><polygon fill="#202020" points="1077,462.2578,1087,466.2578,1077,470.2578" style="stroke:#202020;stroke-width:1.0;"/><line style="stroke:#202020;stroke-width:1.0;" x1="175" x2="1083" y1="466.2578" y2="466.2578"/><text fill="#000000" font-family="Inter" font-size="13" font-weight="bold" lengthAdjust="spacing" textLength="9" x="465" y="453.6255">8</text><text fill="#000000" font-family="Inter" font-size="13" lengthAdjust="spacing" textLength="30" x="478" y="446.0591">User</text><text fill="#000000" font-family="Inter" font-size="13" lengthAdjust="spacing" textLength="4" x="508" y="446.0591">&#160;</text><text fill="#000000" font-family="Inter" font-size="13" lengthAdjust="spacing" textLength="37" x="512" y="446.0591">scans</text><text fill="#000000" font-family="Inter" font-size="13" lengthAdjust="spacing" textLength="4" x="549" y="446.0591">&#160;</text><text fill="#000000" font-family="Inter" font-size="13" lengthAdjust="spacing" textLength="21" x="553" y="446.0591">the</text><text fill="#000000" font-family="Inter" font-size="13" lengthAdjust="spacing" textLength="4" x="574" y="446.0591">&#160;</text><text fill="#000000" font-family="Inter" font-size="13" lengthAdjust="spacing" textLength="18" x="578" y="446.0591">QR</text><text fill="#000000" font-family="Inter" font-size="13" lengthAdjust="spacing" textLength="4" x="596" y="446.0591">&#160;</text><text fill="#000000" font-family="Inter" font-size="13" lengthAdjust="spacing" textLength="31" x="600" y="446.0591">code</text><text fill="#000000" font-family="Inter" font-size="13" lengthAdjust="spacing" textLength="4" x="631" y="446.0591">&#160;</text><text fill="#000000" font-family="Inter" font-size="13" lengthAdjust="spacing" textLength="13" x="635" y="446.0591">or</text><text fill="#000000" font-family="Inter" font-size="13" lengthAdjust="spacing" textLength="4" x="648" y="446.0591">&#160;</text><text fill="#000000" font-family="Inter" font-size="13" lengthAdjust="spacing" textLength="34" x="652" y="446.0591">clicks</text><text fill="#000000" font-family="Inter" font-size="13" lengthAdjust="spacing" textLength="4" x="686" y="446.0591">&#160;</text><text fill="#000000" font-family="Inter" font-size="13" lengthAdjust="spacing" textLength="16" x="690" y="446.0591">on</text><text fill="#000000" font-family="Inter" font-size="13" lengthAdjust="spacing" textLength="4" x="706" y="446.0591">&#160;</text><text fill="#000000" font-family="Inter" font-size="13" lengthAdjust="spacing" textLength="8" x="710" y="446.0591">a</text><text fill="#000000" font-family="Inter" font-size="13" lengthAdjust="spacing" textLength="4" x="718" y="446.0591">&#160;</text><text fill="#000000" font-family="Inter" font-size="13" lengthAdjust="spacing" textLength="60" x="722" y="446.0591">Web2App</text><text fill="#000000" font-family="Inter" font-size="13" lengthAdjust="spacing" textLength="4" x="782" y="446.0591">&#160;</text><text fill="#000000" font-family="Inter" font-size="13" lengthAdjust="spacing" textLength="13" x="786" y="446.0591">or</text><text fill="#000000" font-family="Inter" font-size="13" lengthAdjust="spacing" textLength="58" x="597" y="461.1919">App2App</text><text fill="#000000" font-family="Inter" font-size="13" lengthAdjust="spacing" textLength="4" x="655" y="461.1919">&#160;</text><text fill="#000000" font-family="Inter" font-size="13" lengthAdjust="spacing" textLength="21" x="659" y="461.1919">link</text><line style="stroke:#202020;stroke-width:1.0;" x1="1099" x2="1141" y1="510.5234" y2="510.5234"/><line style="stroke:#202020;stroke-width:1.0;" x1="1141" x2="1141" y1="510.5234" y2="523.5234"/><line style="stroke:#202020;stroke-width:1.0;" x1="1100" x2="1141" y1="523.5234" y2="523.5234"/><polygon fill="#202020" points="1110,519.5234,1100,523.5234,1110,527.5234" style="stroke:#202020;stroke-width:1.0;"/><text fill="#000000" font-family="Inter" font-size="13" font-weight="bold" lengthAdjust="spacing" textLength="9" x="1106" y="497.8911">9</text><text fill="#000000" font-family="Inter" font-size="13" lengthAdjust="spacing" textLength="52" x="1119" y="490.3247">Validate</text><text fill="#000000" font-family="Inter" font-size="13" lengthAdjust="spacing" textLength="4" x="1171" y="490.3247">&#160;</text><text fill="#000000" font-family="Inter" font-size="13" lengthAdjust="spacing" textLength="21" x="1175" y="490.3247">the</text><text fill="#000000" font-family="Inter" font-size="13" lengthAdjust="spacing" textLength="4" x="1122.5" y="505.4575">&#160;</text><text fill="#000000" font-family="Inter" font-size="13" lengthAdjust="spacing" textLength="41" x="1126.5" y="505.4575">device</text><text fill="#000000" font-family="Inter" font-size="13" lengthAdjust="spacing" textLength="4" x="1167.5" y="505.4575">&#160;</text><text fill="#000000" font-family="Inter" font-size="13" lengthAdjust="spacing" textLength="21" x="1171.5" y="505.4575">link</text><path d="M678,540.0234 L678,558.0234 A3.5,3.5 0 0 0 681.5,561.5234 L1073.5,561.5234 A3.5,3.5 0 0 0 1077,558.0234 L1077,546.5234 L1067,536.5234 L681.5,536.5234 A3.5,3.5 0 0 0 678,540.0234 " fill="#DFDFDF" style="stroke:#202020;stroke-width:1.5;"/><path d="M1067,536.5234 L1067,544.7734 A1.75,1.75 0 0 0 1068.75,546.5234 L1077,546.5234 L1067,536.5234 " fill="#DFDFDF" style="stroke:#202020;stroke-width:1.5;"/><text fill="#202020" font-family="Inter" font-size="13" lengthAdjust="spacing" textLength="378" x="684" y="553.5903">In non-anonymous flows, the personal code is verified here.</text><line style="stroke:#202020;stroke-width:1.0;" x1="1099" x2="1141" y1="602.9219" y2="602.9219"/><line style="stroke:#202020;stroke-width:1.0;" x1="1141" x2="1141" y1="602.9219" y2="615.9219"/><line style="stroke:#202020;stroke-width:1.0;" x1="1100" x2="1141" y1="615.9219" y2="615.9219"/><polygon fill="#202020" points="1110,611.9219,1100,615.9219,1110,619.9219" style="stroke:#202020;stroke-width:1.0;"/><text fill="#000000" font-family="Inter" font-size="13" font-weight="bold" lengthAdjust="spacing" textLength="18" x="1106" y="590.2896">10</text><text fill="#000000" font-family="Inter" font-size="13" lengthAdjust="spacing" textLength="46" x="1128" y="582.7231">Display</text><text fill="#000000" font-family="Inter" font-size="13" lengthAdjust="spacing" textLength="4" x="1174" y="582.7231">&#160;</text><text fill="#000000" font-family="Inter" font-size="13" lengthAdjust="spacing" textLength="51" x="1178" y="582.7231">account</text><text fill="#000000" font-family="Inter" font-size="13" lengthAdjust="spacing" textLength="4" x="1128" y="597.856">&#160;</text><text fill="#000000" font-family="Inter" font-size="13" lengthAdjust="spacing" textLength="80" x="1132" y="597.856">confirmation</text><text fill="#000000" font-family="Inter" font-size="13" lengthAdjust="spacing" textLength="4" x="1212" y="597.856">&#160;</text><text fill="#000000" font-family="Inter" font-size="13" lengthAdjust="spacing" textLength="13" x="1216" y="597.856">UI</text><path d="M950,632.4219 L950,650.4219 A3.5,3.5 0 0 0 953.5,653.9219 L1234.5,653.9219 A3.5,3.5 0 0 0 1238,650.4219 L1238,638.9219 L1228,628.9219 L953.5,628.9219 A3.5,3.5 0 0 0 950,632.4219 " fill="#DFDFDF" style="stroke:#202020;stroke-width:1.5;"/><path d="M1228,628.9219 L1228,637.1719 A1.75,1.75 0 0 0 1229.75,638.9219 L1238,638.9219 L1228,628.9219 " fill="#DFDFDF" style="stroke:#202020;stroke-width:1.5;"/><text fill="#202020" font-family="Inter" font-size="13" lengthAdjust="spacing" textLength="267" x="956" y="645.9888">User confirms the device and the account</text><path d="M339,666.0547 L412.5,666.0547 L412.5,673.1875 L402.5,683.1875 L335.5,683.1875 L335.5,669.5547 A3.5,3.5 0 0 1 339,666.0547 " fill="#EEEEEE" style="stroke:#989898;stroke-width:1.5;"/><rect fill="none" height="223.5391" rx="3.5" ry="3.5" style="stroke:#989898;stroke-width:1.0;" width="799" x="335.5" y="666.0547"/><text fill="#202020" font-family="Inter" font-size="13" font-weight="bold" lengthAdjust="spacing" textLength="32" x="350.5" y="679.1216">loop</text><text fill="#989898" font-family="Inter" font-size="11" font-weight="bold" lengthAdjust="spacing" textLength="162" x="427.5" y="678.2651">[until completed or error]</text><polygon fill="#202020" points="861,700.3203,871,704.3203,861,708.3203" style="stroke:#202020;stroke-width:1.0;"/><line style="stroke:#202020;stroke-width:1.0;" x1="409" x2="867" y1="704.3203" y2="704.3203"/><text fill="#000000" font-family="Inter" font-size="13" font-weight="bold" lengthAdjust="spacing" textLength="18" x="522" y="699.2544">11</text><text fill="#000000" font-family="monospace" font-size="13" lengthAdjust="spacing" textLength="24" x="544" y="699.2544">GET</text><text fill="#000000" font-family="monospace" font-size="13" lengthAdjust="spacing" textLength="8" x="568" y="699.2544">&#160;</text><text fill="#000000" font-family="monospace" font-size="13" lengthAdjust="spacing" textLength="184" x="576" y="699.2544">/v3/session/{sessionID}</text><path d="M349,719.3203 L409.5,719.3203 L409.5,726.4531 L399.5,736.4531 L345.5,736.4531 L345.5,722.8203 A3.5,3.5 0 0 1 349,719.3203 " fill="#EEEEEE" style="stroke:#989898;stroke-width:1.5;"/><rect fill="none" height="163.2734" rx="3.5" ry="3.5" style="stroke:#989898;stroke-width:1.0;" width="779" x="345.5" y="719.3203"/><text fill="#202020" font-family="Inter" font-size="13" font-weight="bold" lengthAdjust="spacing" textLength="19" x="360.5" y="732.3872">alt</text><text fill="#989898" font-family="Inter" font-size="11" font-weight="bold" lengthAdjust="spacing" textLength="62" x="424.5" y="731.5308">[pending]</text><polygon fill="#202020" points="420,736.4531,410,740.4531,420,744.4531" style="stroke:#202020;stroke-width:1.0;"/><line style="stroke:#202020;stroke-width:1.0;stroke-dasharray:2.0,2.0;" x1="414" x2="872" y1="740.4531" y2="740.4531"/><text fill="#000000" font-family="Inter" font-size="13" font-weight="bold" lengthAdjust="spacing" textLength="18" x="574" y="753.52">12</text><text fill="#000000" font-family="monospace" font-size="13" lengthAdjust="spacing" textLength="56" x="596" y="753.52">session</text><text fill="#000000" font-family="monospace" font-size="13" lengthAdjust="spacing" textLength="8" x="652" y="753.52">&#160;</text><text fill="#000000" font-family="monospace" font-size="13" lengthAdjust="spacing" textLength="48" x="660" y="753.52">status</text><line style="stroke:#989898;stroke-width:1.0;stroke-dasharray:2.0,2.0;" x1="345.5" x2="1124.5" y1="766.5859" y2="766.5859"/><text fill="#989898" font-family="Inter" font-size="11" font-weight="bold" lengthAdjust="spacing" textLength="121" x="350.5" y="776.7964">[error (or timeout)]</text><polygon fill="#202020" points="420,780.3906,410,784.3906,420,788.3906" style="stroke:#202020;stroke-width:1.0;"/><line style="stroke:#202020;stroke-width:1.0;stroke-dasharray:2.0,2.0;" x1="414" x2="872" y1="784.3906" y2="784.3906"/><text fill="#000000" font-family="Inter" font-size="13" font-weight="bold" lengthAdjust="spacing" textLength="18" x="610" y="797.4575">13</text><text fill="#000000" font-family="monospace" font-size="13" lengthAdjust="spacing" textLength="40" x="632" y="797.4575">error</text><line style="stroke:#989898;stroke-width:1.0;stroke-dasharray:2.0,2.0;" x1="345.5" x2="1124.5" y1="810.5234" y2="810.5234"/><text fill="#989898" font-family="Inter" font-size="11" font-weight="bold" lengthAdjust="spacing" textLength="77" x="350.5" y="820.7339">[completed]</text><polygon fill="#202020" points="894,841.4609,884,845.4609,894,849.4609" style="stroke:#202020;stroke-width:1.0;"/><line style="stroke:#202020;stroke-width:1.0;" x1="888" x2="1093" y1="845.4609" y2="845.4609"/><text fill="#000000" font-family="Inter" font-size="13" font-weight="bold" lengthAdjust="spacing" textLength="18" x="897.5" y="840.395">14</text><text fill="#000000" font-family="monospace" font-size="13" lengthAdjust="spacing" textLength="56" x="919.5" y="840.395">Confirm</text><text fill="#000000" font-family="monospace" font-size="13" lengthAdjust="spacing" textLength="8" x="975.5" y="840.395">&#160;</text><text fill="#000000" font-family="monospace" font-size="13" lengthAdjust="spacing" textLength="32" x="983.5" y="840.395">user</text><text fill="#000000" font-family="monospace" font-size="13" lengthAdjust="spacing" textLength="8" x="1015.5" y="840.395">&#160;</text><text fill="#000000" font-family="monospace" font-size="13" lengthAdjust="spacing" textLength="56" x="1023.5" y="840.395">account</text><polygon fill="#202020" points="420,853.4609,410,857.4609,420,861.4609" style="stroke:#202020;stroke-width:1.0;"/><line style="stroke:#202020;stroke-width:1.0;stroke-dasharray:2.0,2.0;" x1="414" x2="877" y1="857.4609" y2="857.4609"/><text fill="#000000" font-family="Inter" font-size="13" font-weight="bold" lengthAdjust="spacing" textLength="18" x="545.5" y="870.5278">15</text><text fill="#000000" font-family="monospace" font-size="13" lengthAdjust="spacing" textLength="48" x="567.5" y="870.5278">result</text><text fill="#000000" font-family="Inter" font-size="13" lengthAdjust="spacing" textLength="4" x="615.5" y="870.5278">&#160;</text><text fill="#000000" font-family="Inter" font-size="13" lengthAdjust="spacing" textLength="50" x="619.5" y="870.5278">(signing</text><text fill="#000000" font-family="Inter" font-size="13" lengthAdjust="spacing" textLength="4" x="669.5" y="870.5278">&#160;</text><text fill="#000000" font-family="Inter" font-size="13" lengthAdjust="spacing" textLength="68" x="673.5" y="870.5278">certificate)</text><path d="M204,905.0938 L204,968.0938 A3.5,3.5 0 0 0 207.5,971.5938 L1074.5,971.5938 A3.5,3.5 0 0 0 1078,968.0938 L1078,911.5938 L1068,901.5938 L207.5,901.5938 A3.5,3.5 0 0 0 204,905.0938 " fill="#DFDFDF" style="stroke:#202020;stroke-width:1.5;"/><path d="M1068,901.5938 L1068,909.8438 A1.75,1.75 0 0 0 1069.75,911.5938 L1078,911.5938 L1068,901.5938 " fill="#DFDFDF" style="stroke:#202020;stroke-width:1.5;"/><text fill="#202020" font-family="Inter" font-size="13" lengthAdjust="spacing" textLength="750" x="210" y="918.6606">This device link based certificate choice flow MUST be followed by a linked signature session, as the user is sent to the</text><text fill="#202020" font-family="Inter" font-size="13" lengthAdjust="spacing" textLength="284" x="210" y="933.7935">callback URL only after signing. The endpoint</text><text fill="#202020" font-family="monospace" font-size="13" lengthAdjust="spacing" textLength="408" x="498" y="933.7935">/v3/signature/notification/linked/{document-number}</text><text fill="#202020" font-family="Inter" font-size="13" lengthAdjust="spacing" textLength="149" x="910" y="933.7935">MUST be used, and the</text><text fill="#202020" font-family="Inter" font-size="13" lengthAdjust="spacing" textLength="46" x="210" y="948.9263">current</text><text fill="#202020" font-family="monospace" font-size="13" lengthAdjust="spacing" textLength="72" x="260" y="948.9263">sessionID</text><text fill="#202020" font-family="Inter" font-size="13" lengthAdjust="spacing" textLength="621" x="336" y="948.9263">must be provided as input in order to link this session to the notification-based signature session.</text><text fill="#202020" font-family="Inter" font-size="13" lengthAdjust="spacing" textLength="4" x="210" y="964.0591">&#160;</text></g></svg>