<svg width="64" height="64" viewBox="0 0 64 64" fill="none" xmlns="http://www.w3.org/2000/svg">
<path d="M20.9015 22.8083C24.584 19.1258 30.719 19.1258 34.4615 22.8083C38.024 26.3152 38.159 31.9261 34.9265 35.6692L34.529 36.1195C34.094 36.6142 33.3365 36.6659 32.834 36.2377C32.339 35.8168 32.279 35.0712 32.714 34.5765L33.119 34.1188C35.5865 31.3133 35.4365 27.1051 32.7665 24.4842C29.9615 21.7157 25.409 21.7157 22.604 24.4842L13.259 33.6758C10.4472 36.4444 10.4472 40.9331 13.259 43.7017C16.0715 46.4702 20.6315 46.4702 23.444 43.7017L25.139 42.0332C25.604 41.5681 26.369 41.5681 26.834 42.0332C27.3065 42.4909 27.3065 43.2366 26.834 43.7017L25.139 45.3702C21.389 49.0616 15.311 49.0616 11.5617 45.3702C7.81276 41.6788 7.81276 35.6323 11.5617 32.0073L20.9015 22.8083ZM42.884 41.2063C39.2015 44.8903 33.134 44.8903 29.3915 41.2063C25.829 37.6995 25.6265 32.0885 28.859 28.3454L29.324 27.8951C29.759 27.4004 30.5165 27.3488 31.019 27.777C31.514 28.1978 31.574 28.9434 31.139 29.4381L30.734 29.8958C28.2665 32.7013 28.4165 36.9095 31.0865 39.5304C33.8915 42.299 38.444 42.299 41.249 39.5304L50.594 30.3388C53.4065 27.5702 53.4065 23.0815 50.594 20.3137C47.7815 17.5459 43.2215 17.5459 40.409 20.3137L38.714 21.9814C38.249 22.4466 37.484 22.4466 37.019 21.9814C36.5465 21.4573 36.5465 20.778 37.019 20.3137L38.714 18.6429C42.464 14.9523 48.539 14.9523 52.289 18.6429C56.039 22.2694 56.039 28.3159 52.289 31.9409L42.884 41.2063Z" fill="#00B5AC"/>
</svg>
