<?xml version="1.0" encoding="us-ascii" standalone="no"?><svg xmlns="http://www.w3.org/2000/svg" xmlns:xlink="http://www.w3.org/1999/xlink" contentStyleType="text/css" height="783px" preserveAspectRatio="none" style="width:1078px;height:783px;" version="1.1" viewBox="0 0 1078 783" width="1078px" zoomAndPan="magnify"><defs/><g><text fill="#000000" font-family="Inter" font-size="14" font-weight="bold" lengthAdjust="spacing" textLength="304" x="389" y="27.9951">Notification Based Authentication Flow</text><rect fill="#D2E4F4" height="683.5313" style="stroke:#989898;stroke-width:1.0;" width="10" x="137" y="83.5938"/><rect fill="#D2E4F4" height="683.5313" style="stroke:#989898;stroke-width:1.0;" width="10" x="330" y="83.5938"/><rect fill="#D2E4F4" height="407.3359" style="stroke:#989898;stroke-width:1.0;" width="10" x="692" y="255.3906"/><rect fill="#D2E4F4" height="337.0703" style="stroke:#989898;stroke-width:1.0;" width="10" x="882" y="313.6563"/><rect fill="none" height="223.5391" rx="3.5" ry="3.5" style="stroke:#989898;stroke-width:1.0;" width="661" x="266.5" y="471.3203"/><rect fill="none" height="163.2734" rx="3.5" ry="3.5" style="stroke:#989898;stroke-width:1.0;" width="641" x="276.5" y="524.5859"/><line style="stroke:#989898;stroke-width:0.5;stroke-dasharray:5.0,5.0;" x1="142" x2="142" y1="73.5938" y2="776.125"/><line style="stroke:#989898;stroke-width:0.5;stroke-dasharray:5.0,5.0;" x1="334.5" x2="334.5" y1="73.5938" y2="776.125"/><line style="stroke:#989898;stroke-width:0.5;stroke-dasharray:5.0,5.0;" x1="697" x2="697" y1="73.5938" y2="776.125"/><line style="stroke:#989898;stroke-width:0.5;stroke-dasharray:5.0,5.0;" x1="886.5" x2="886.5" y1="73.5938" y2="776.125"/><rect fill="#A5C8E8" height="30.2969" rx="3.5" ry="3.5" style="stroke:#202020;stroke-width:1.5;" width="96" x="94" y="42.2969"/><text fill="#202020" font-family="Inter" font-size="14" lengthAdjust="spacing" textLength="82" x="101" y="62.292">RP frontend</text><rect fill="#A5C8E8" height="30.2969" rx="3.5" ry="3.5" style="stroke:#202020;stroke-width:1.5;" width="97" x="286.5" y="42.2969"/><text fill="#202020" font-family="Inter" font-size="14" lengthAdjust="spacing" textLength="83" x="293.5" y="62.292">RP backend</text><rect fill="#A5C8E8" height="30.2969" rx="3.5" ry="3.5" style="stroke:#202020;stroke-width:1.5;" width="58" x="668" y="42.2969"/><text fill="#202020" font-family="Inter" font-size="14" lengthAdjust="spacing" textLength="44" x="675" y="62.292">RP API</text><rect fill="#A5C8E8" height="30.2969" rx="3.5" ry="3.5" style="stroke:#202020;stroke-width:1.5;" width="41" x="866.5" y="42.2969"/><text fill="#202020" font-family="Inter" font-size="14" lengthAdjust="spacing" textLength="27" x="873.5" y="62.292">App</text><rect fill="#D2E4F4" height="683.5313" style="stroke:#989898;stroke-width:1.0;" width="10" x="137" y="83.5938"/><rect fill="#D2E4F4" height="683.5313" style="stroke:#989898;stroke-width:1.0;" width="10" x="330" y="83.5938"/><rect fill="#D2E4F4" height="407.3359" style="stroke:#989898;stroke-width:1.0;" width="10" x="692" y="255.3906"/><rect fill="#D2E4F4" height="337.0703" style="stroke:#989898;stroke-width:1.0;" width="10" x="882" y="313.6563"/><path d="M5,92.0938 L5,125.0938 A3.5,3.5 0 0 0 8.5,128.5938 L275.5,128.5938 A3.5,3.5 0 0 0 279,125.0938 L279,98.5938 L269,88.5938 L8.5,88.5938 A3.5,3.5 0 0 0 5,92.0938 " fill="#DFDFDF" style="stroke:#202020;stroke-width:1.5;"/><path d="M269,88.5938 L269,96.8438 A1.75,1.75 0 0 0 270.75,98.5938 L279,98.5938 L269,88.5938 " fill="#DFDFDF" style="stroke:#202020;stroke-width:1.5;"/><text fill="#202020" font-family="Inter" font-size="13" lengthAdjust="spacing" textLength="253" x="11" y="105.6606">User initiates a login on the RP frontend</text><text fill="#202020" font-family="Inter" font-size="13" lengthAdjust="spacing" textLength="154" x="11" y="120.7935">(website or mobile app).</text><polygon fill="#202020" points="318,150.9922,328,154.9922,318,158.9922" style="stroke:#202020;stroke-width:1.0;"/><line style="stroke:#202020;stroke-width:1.0;" x1="147" x2="324" y1="154.9922" y2="154.9922"/><text fill="#000000" font-family="Inter" font-size="13" font-weight="bold" lengthAdjust="spacing" textLength="9" x="174.5" y="149.9263">1</text><text fill="#000000" font-family="Inter" font-size="13" lengthAdjust="spacing" textLength="52" x="187.5" y="149.9263">Request</text><text fill="#000000" font-family="Inter" font-size="13" lengthAdjust="spacing" textLength="4" x="239.5" y="149.9263">&#160;</text><text fill="#000000" font-family="Inter" font-size="13" lengthAdjust="spacing" textLength="25" x="243.5" y="149.9263">new</text><text fill="#000000" font-family="Inter" font-size="13" lengthAdjust="spacing" textLength="4" x="268.5" y="149.9263">&#160;</text><text fill="#000000" font-family="Inter" font-size="13" lengthAdjust="spacing" textLength="30" x="272.5" y="149.9263">login</text><line style="stroke:#202020;stroke-width:1.0;" x1="340" x2="382" y1="184.125" y2="184.125"/><line style="stroke:#202020;stroke-width:1.0;" x1="382" x2="382" y1="184.125" y2="197.125"/><line style="stroke:#202020;stroke-width:1.0;" x1="341" x2="382" y1="197.125" y2="197.125"/><polygon fill="#202020" points="351,193.125,341,197.125,351,201.125" style="stroke:#202020;stroke-width:1.0;"/><text fill="#000000" font-family="Inter" font-size="13" font-weight="bold" lengthAdjust="spacing" textLength="9" x="347" y="179.0591">2</text><text fill="#000000" font-family="Inter" font-size="13" lengthAdjust="spacing" textLength="59" x="360" y="179.0591">Calculate</text><text fill="#000000" font-family="Inter" font-size="13" lengthAdjust="spacing" textLength="4" x="419" y="179.0591">&#160;</text><text fill="#000000" font-family="monospace" font-size="13" lengthAdjust="spacing" textLength="16" x="423" y="179.0591">vc</text><polygon fill="#202020" points="158,205.125,148,209.125,158,213.125" style="stroke:#202020;stroke-width:1.0;"/><line style="stroke:#202020;stroke-width:1.0;stroke-dasharray:2.0,2.0;" x1="152" x2="329" y1="209.125" y2="209.125"/><text fill="#000000" font-family="Inter" font-size="13" font-weight="bold" lengthAdjust="spacing" textLength="9" x="224" y="222.1919">3</text><text fill="#000000" font-family="monospace" font-size="13" lengthAdjust="spacing" textLength="16" x="237" y="222.1919">vc</text><polygon fill="#202020" points="680,251.3906,690,255.3906,680,259.3906" style="stroke:#202020;stroke-width:1.0;"/><line style="stroke:#202020;stroke-width:1.0;" x1="340" x2="686" y1="255.3906" y2="255.3906"/><text fill="#000000" font-family="Inter" font-size="13" font-weight="bold" lengthAdjust="spacing" textLength="9" x="349.5" y="250.3247">4</text><text fill="#000000" font-family="monospace" font-size="13" lengthAdjust="spacing" textLength="32" x="362.5" y="250.3247">POST</text><text fill="#000000" font-family="monospace" font-size="13" lengthAdjust="spacing" textLength="8" x="394.5" y="250.3247">&#160;</text><text fill="#000000" font-family="monospace" font-size="13" lengthAdjust="spacing" textLength="280" x="402.5" y="250.3247">/v3/authentication/notification/...</text><polygon fill="#202020" points="351,263.3906,341,267.3906,351,271.3906" style="stroke:#202020;stroke-width:1.0;"/><line style="stroke:#202020;stroke-width:1.0;stroke-dasharray:2.0,2.0;" x1="345" x2="691" y1="267.3906" y2="267.3906"/><text fill="#000000" font-family="Inter" font-size="13" font-weight="bold" lengthAdjust="spacing" textLength="9" x="473.5" y="280.4575">5</text><text fill="#000000" font-family="monospace" font-size="13" lengthAdjust="spacing" textLength="72" x="486.5" y="280.4575">sessionID</text><polygon fill="#202020" points="870,309.6563,880,313.6563,870,317.6563" style="stroke:#202020;stroke-width:1.0;"/><line style="stroke:#202020;stroke-width:1.0;" x1="702" x2="876" y1="313.6563" y2="313.6563"/><text fill="#000000" font-family="Inter" font-size="13" font-weight="bold" lengthAdjust="spacing" textLength="9" x="711.5" y="308.5903">6</text><text fill="#000000" font-family="Inter" font-size="13" lengthAdjust="spacing" textLength="52" x="724.5" y="308.5903">Request</text><text fill="#000000" font-family="Inter" font-size="13" lengthAdjust="spacing" textLength="4" x="776.5" y="308.5903">&#160;</text><text fill="#000000" font-family="Inter" font-size="13" lengthAdjust="spacing" textLength="92" x="780.5" y="308.5903">authentication</text><path d="M739,330.1563 L739,363.1563 A3.5,3.5 0 0 0 742.5,366.6563 L1031.5,366.6563 A3.5,3.5 0 0 0 1035,363.1563 L1035,336.6563 L1025,326.6563 L742.5,326.6563 A3.5,3.5 0 0 0 739,330.1563 " fill="#DFDFDF" style="stroke:#202020;stroke-width:1.5;"/><path d="M1025,326.6563 L1025,334.9063 A1.75,1.75 0 0 0 1026.75,336.6563 L1035,336.6563 L1025,326.6563 " fill="#DFDFDF" style="stroke:#202020;stroke-width:1.5;"/><text fill="#202020" font-family="Inter" font-size="13" lengthAdjust="spacing" textLength="275" x="745" y="343.7231">App calculates the correct verification code</text><text fill="#202020" font-family="Inter" font-size="13" lengthAdjust="spacing" textLength="248" x="745" y="358.856">and incorrect verification code choices.</text><line style="stroke:#202020;stroke-width:1.0;" x1="892" x2="934" y1="393.0547" y2="393.0547"/><line style="stroke:#202020;stroke-width:1.0;" x1="934" x2="934" y1="393.0547" y2="406.0547"/><line style="stroke:#202020;stroke-width:1.0;" x1="893" x2="934" y1="406.0547" y2="406.0547"/><polygon fill="#202020" points="903,402.0547,893,406.0547,903,410.0547" style="stroke:#202020;stroke-width:1.0;"/><text fill="#000000" font-family="Inter" font-size="13" font-weight="bold" lengthAdjust="spacing" textLength="9" x="899" y="387.9888">7</text><text fill="#000000" font-family="Inter" font-size="13" lengthAdjust="spacing" textLength="46" x="912" y="387.9888">Display</text><text fill="#000000" font-family="Inter" font-size="13" lengthAdjust="spacing" textLength="4" x="958" y="387.9888">&#160;</text><text fill="#000000" font-family="Inter" font-size="13" lengthAdjust="spacing" textLength="92" x="962" y="387.9888">authentication</text><text fill="#000000" font-family="Inter" font-size="13" lengthAdjust="spacing" textLength="4" x="1054" y="387.9888">&#160;</text><text fill="#000000" font-family="Inter" font-size="13" lengthAdjust="spacing" textLength="13" x="1058" y="387.9888">UI</text><path d="M742,422.5547 L742,455.5547 A3.5,3.5 0 0 0 745.5,459.0547 L1028.5,459.0547 A3.5,3.5 0 0 0 1032,455.5547 L1032,429.0547 L1022,419.0547 L745.5,419.0547 A3.5,3.5 0 0 0 742,422.5547 " fill="#DFDFDF" style="stroke:#202020;stroke-width:1.5;"/><path d="M1022,419.0547 L1022,427.3047 A1.75,1.75 0 0 0 1023.75,429.0547 L1032,429.0547 L1022,419.0547 " fill="#DFDFDF" style="stroke:#202020;stroke-width:1.5;"/><text fill="#202020" font-family="Inter" font-size="13" lengthAdjust="spacing" textLength="269" x="748" y="436.1216">User chooses the correct verification code</text><text fill="#202020" font-family="Inter" font-size="13" lengthAdjust="spacing" textLength="158" x="748" y="451.2544">and enters the PIN code.</text><path d="M270,471.3203 L343.5,471.3203 L343.5,478.4531 L333.5,488.4531 L266.5,488.4531 L266.5,474.8203 A3.5,3.5 0 0 1 270,471.3203 " fill="#EEEEEE" style="stroke:#989898;stroke-width:1.5;"/><rect fill="none" height="223.5391" rx="3.5" ry="3.5" style="stroke:#989898;stroke-width:1.0;" width="661" x="266.5" y="471.3203"/><text fill="#202020" font-family="Inter" font-size="13" font-weight="bold" lengthAdjust="spacing" textLength="32" x="281.5" y="484.3872">loop</text><text fill="#989898" font-family="Inter" font-size="11" font-weight="bold" lengthAdjust="spacing" textLength="227" x="358.5" y="483.5308">[until signature completed or error]</text><polygon fill="#202020" points="680,505.5859,690,509.5859,680,513.5859" style="stroke:#202020;stroke-width:1.0;"/><line style="stroke:#202020;stroke-width:1.0;" x1="340" x2="686" y1="509.5859" y2="509.5859"/><text fill="#000000" font-family="Inter" font-size="13" font-weight="bold" lengthAdjust="spacing" textLength="9" x="401.5" y="504.52">8</text><text fill="#000000" font-family="monospace" font-size="13" lengthAdjust="spacing" textLength="24" x="414.5" y="504.52">GET</text><text fill="#000000" font-family="monospace" font-size="13" lengthAdjust="spacing" textLength="8" x="438.5" y="504.52">&#160;</text><text fill="#000000" font-family="monospace" font-size="13" lengthAdjust="spacing" textLength="184" x="446.5" y="504.52">/v3/session/{sessionID}</text><path d="M280,524.5859 L340.5,524.5859 L340.5,531.7188 L330.5,541.7188 L276.5,541.7188 L276.5,528.0859 A3.5,3.5 0 0 1 280,524.5859 " fill="#EEEEEE" style="stroke:#989898;stroke-width:1.5;"/><rect fill="none" height="163.2734" rx="3.5" ry="3.5" style="stroke:#989898;stroke-width:1.0;" width="641" x="276.5" y="524.5859"/><text fill="#202020" font-family="Inter" font-size="13" font-weight="bold" lengthAdjust="spacing" textLength="19" x="291.5" y="537.6528">alt</text><text fill="#989898" font-family="Inter" font-size="11" font-weight="bold" lengthAdjust="spacing" textLength="127" x="355.5" y="536.7964">[signature pending]</text><polygon fill="#202020" points="351,541.7188,341,545.7188,351,549.7188" style="stroke:#202020;stroke-width:1.0;"/><line style="stroke:#202020;stroke-width:1.0;stroke-dasharray:2.0,2.0;" x1="345" x2="691" y1="545.7188" y2="545.7188"/><text fill="#000000" font-family="Inter" font-size="13" font-weight="bold" lengthAdjust="spacing" textLength="9" x="453.5" y="558.7856">9</text><text fill="#000000" font-family="monospace" font-size="13" lengthAdjust="spacing" textLength="56" x="466.5" y="558.7856">session</text><text fill="#000000" font-family="monospace" font-size="13" lengthAdjust="spacing" textLength="8" x="522.5" y="558.7856">&#160;</text><text fill="#000000" font-family="monospace" font-size="13" lengthAdjust="spacing" textLength="48" x="530.5" y="558.7856">status</text><line style="stroke:#989898;stroke-width:1.0;stroke-dasharray:2.0,2.0;" x1="276.5" x2="917.5" y1="571.8516" y2="571.8516"/><text fill="#989898" font-family="Inter" font-size="11" font-weight="bold" lengthAdjust="spacing" textLength="121" x="281.5" y="582.062">[error (or timeout)]</text><polygon fill="#202020" points="351,585.6563,341,589.6563,351,593.6563" style="stroke:#202020;stroke-width:1.0;"/><line style="stroke:#202020;stroke-width:1.0;stroke-dasharray:2.0,2.0;" x1="345" x2="691" y1="589.6563" y2="589.6563"/><text fill="#000000" font-family="Inter" font-size="13" font-weight="bold" lengthAdjust="spacing" textLength="18" x="485" y="602.7231">10</text><text fill="#000000" font-family="monospace" font-size="13" lengthAdjust="spacing" textLength="40" x="507" y="602.7231">error</text><line style="stroke:#989898;stroke-width:1.0;stroke-dasharray:2.0,2.0;" x1="276.5" x2="917.5" y1="615.7891" y2="615.7891"/><text fill="#989898" font-family="Inter" font-size="11" font-weight="bold" lengthAdjust="spacing" textLength="142" x="281.5" y="625.9995">[signature completed]</text><polygon fill="#202020" points="713,646.7266,703,650.7266,713,654.7266" style="stroke:#202020;stroke-width:1.0;"/><line style="stroke:#202020;stroke-width:1.0;" x1="707" x2="886" y1="650.7266" y2="650.7266"/><text fill="#000000" font-family="Inter" font-size="13" font-weight="bold" lengthAdjust="spacing" textLength="18" x="747.5" y="645.6606">11</text><text fill="#000000" font-family="monospace" font-size="13" lengthAdjust="spacing" textLength="72" x="769.5" y="645.6606">signature</text><polygon fill="#202020" points="351,658.7266,341,662.7266,351,666.7266" style="stroke:#202020;stroke-width:1.0;"/><line style="stroke:#202020;stroke-width:1.0;stroke-dasharray:2.0,2.0;" x1="345" x2="696" y1="662.7266" y2="662.7266"/><text fill="#000000" font-family="Inter" font-size="13" font-weight="bold" lengthAdjust="spacing" textLength="18" x="483.5" y="675.7935">12</text><text fill="#000000" font-family="monospace" font-size="13" lengthAdjust="spacing" textLength="48" x="505.5" y="675.7935">result</text><path d="M90,710.3594 L90,728.3594 A3.5,3.5 0 0 0 93.5,731.8594 L575.5,731.8594 A3.5,3.5 0 0 0 579,728.3594 L579,716.8594 L569,706.8594 L93.5,706.8594 A3.5,3.5 0 0 0 90,710.3594 " fill="#DFDFDF" style="stroke:#202020;stroke-width:1.5;"/><path d="M569,706.8594 L569,715.1094 A1.75,1.75 0 0 0 570.75,716.8594 L579,716.8594 L569,706.8594 " fill="#DFDFDF" style="stroke:#202020;stroke-width:1.5;"/><text fill="#202020" font-family="Inter" font-size="13" lengthAdjust="spacing" textLength="468" x="96" y="723.9263">RP receives the signature and verifies that the provided signature is valid.</text><polygon fill="#202020" points="158,736.9922,148,740.9922,158,744.9922" style="stroke:#202020;stroke-width:1.0;"/><line style="stroke:#202020;stroke-width:1.0;stroke-dasharray:2.0,2.0;" x1="152" x2="329" y1="740.9922" y2="740.9922"/><text fill="#000000" font-family="Inter" font-size="13" font-weight="bold" lengthAdjust="spacing" textLength="18" x="159" y="754.0591">13</text><text fill="#000000" font-family="Inter" font-size="13" lengthAdjust="spacing" textLength="30" x="181" y="754.0591">User</text><text fill="#000000" font-family="Inter" font-size="13" lengthAdjust="spacing" textLength="4" x="211" y="754.0591">&#160;</text><text fill="#000000" font-family="Inter" font-size="13" lengthAdjust="spacing" textLength="10" x="215" y="754.0591">is</text><text fill="#000000" font-family="Inter" font-size="13" lengthAdjust="spacing" textLength="4" x="225" y="754.0591">&#160;</text><text fill="#000000" font-family="Inter" font-size="13" lengthAdjust="spacing" textLength="89" x="229" y="754.0591">authenticated</text></g></svg>