<?xml version="1.0" encoding="us-ascii" standalone="no"?><svg xmlns="http://www.w3.org/2000/svg" xmlns:xlink="http://www.w3.org/1999/xlink" contentStyleType="text/css" height="426px" preserveAspectRatio="none" style="width:1106px;height:426px;background:#FFFFFF;" version="1.1" viewBox="0 0 1106 426" width="1106px" zoomAndPan="magnify"><defs/><g><rect fill="#F1F1F1" height="85.1875" rx="12.5" ry="12.5" style="stroke:#181818;stroke-width:1.5;" width="144" x="10" y="169.6328"/><text fill="#000000" font-family="sans-serif" font-size="14" lengthAdjust="spacing" textLength="59" x="20" y="192.6279">Previous</text><text fill="#000000" font-family="sans-serif" font-size="14" lengthAdjust="spacing" textLength="103" x="20" y="208.9248">authentication,</text><text fill="#000000" font-family="sans-serif" font-size="14" lengthAdjust="spacing" textLength="87" x="20" y="225.2217">signature, or</text><text fill="#000000" font-family="sans-serif" font-size="14" lengthAdjust="spacing" textLength="124" x="20" y="241.5186">certificate choice?</text><text fill="#000000" font-family="sans-serif" font-size="14" font-weight="bold" lengthAdjust="spacing" textLength="28" x="207" y="120.0342">yes</text><rect fill="#F1F1F1" height="52.5938" rx="12.5" ry="12.5" style="stroke:#181818;stroke-width:1.5;" width="142" x="285" y="88.8906"/><text fill="#000000" font-family="sans-serif" font-size="14" lengthAdjust="spacing" textLength="122" x="295" y="111.8857">Signing certificate</text><text fill="#000000" font-family="sans-serif" font-size="14" lengthAdjust="spacing" textLength="80" x="295" y="128.1826">is required?</text><text fill="#000000" font-family="sans-serif" font-size="14" font-weight="bold" lengthAdjust="spacing" textLength="28" x="480" y="75.5889">yes</text><rect fill="#F1F1F1" height="101.4844" rx="12.5" ry="12.5" style="stroke:#181818;stroke-width:1.5;" width="456" x="558" y="20"/><text fill="#000000" font-family="sans-serif" font-size="14" lengthAdjust="spacing" textLength="32" x="568" y="42.9951">Use:</text><ellipse cx="573.5" cy="55.0938" fill="#000000" rx="2.5" ry="2.5" style="stroke:#000000;stroke-width:0.0;"/><text fill="#000000" font-family="monospace" font-size="14" font-weight="bold" lengthAdjust="spacing" textLength="344" x="580" y="59.292">/v3/signature/certificate/{document-number}</text><text fill="#000000" font-family="sans-serif" font-size="14" lengthAdjust="spacing" textLength="210" x="568" y="75.5889">Then use one of the following:</text><ellipse cx="573.5" cy="87.6875" fill="#000000" rx="2.5" ry="2.5" style="stroke:#000000;stroke-width:0.0;"/><text fill="#000000" font-family="monospace" font-size="14" font-weight="bold" lengthAdjust="spacing" textLength="416" x="580" y="91.8857">/v3/signature/device-link/document/{document-number}</text><ellipse cx="573.5" cy="103.9844" fill="#000000" rx="2.5" ry="2.5" style="stroke:#000000;stroke-width:0.0;"/><text fill="#000000" font-family="monospace" font-size="14" font-weight="bold" lengthAdjust="spacing" textLength="424" x="580" y="108.1826">/v3/signature/notification/document/{document-number}</text><path d="M508,70.7422 L518,70.7422 C533,70.7422 533,70.7422 548,70.7422 L558,70.7422 " fill="none" style="stroke:#181818;stroke-width:1.0;"/><path d="M427,115.1875 L437,115.1875 C452,115.1875 452,70.7422 467,70.7422 L477,70.7422 " fill="none" style="stroke:#181818;stroke-width:1.0;"/><text fill="#000000" font-family="sans-serif" font-size="14" font-weight="bold" lengthAdjust="spacing" textLength="20" x="480" y="180.7764">no</text><rect fill="#F1F1F1" height="68.8906" rx="12.5" ry="12.5" style="stroke:#181818;stroke-width:1.5;" width="456" x="550" y="141.4844"/><text fill="#000000" font-family="sans-serif" font-size="14" lengthAdjust="spacing" textLength="171" x="560" y="164.4795">Use one of the following:</text><ellipse cx="565.5" cy="176.5781" fill="#000000" rx="2.5" ry="2.5" style="stroke:#000000;stroke-width:0.0;"/><text fill="#000000" font-family="monospace" font-size="14" font-weight="bold" lengthAdjust="spacing" textLength="416" x="572" y="180.7764">/v3/signature/device-link/document/{document-number}</text><ellipse cx="565.5" cy="192.875" fill="#000000" rx="2.5" ry="2.5" style="stroke:#000000;stroke-width:0.0;"/><text fill="#000000" font-family="monospace" font-size="14" font-weight="bold" lengthAdjust="spacing" textLength="424" x="572" y="197.0732">/v3/signature/notification/document/{document-number}</text><path d="M500,175.9297 L510,175.9297 C525,175.9297 525,175.9297 540,175.9297 L550,175.9297 " fill="none" style="stroke:#181818;stroke-width:1.0;"/><path d="M427,115.1875 L437,115.1875 C452,115.1875 452,175.9297 467,175.9297 L477,175.9297 " fill="none" style="stroke:#181818;stroke-width:1.0;"/><path d="M235,115.1875 L245,115.1875 C260,115.1875 260,115.1875 275,115.1875 L285,115.1875 " fill="none" style="stroke:#181818;stroke-width:1.0;"/><path d="M154,212.2266 L164,212.2266 C179,212.2266 179,115.1875 194,115.1875 L204,115.1875 " fill="none" style="stroke:#181818;stroke-width:1.0;"/><text fill="#000000" font-family="sans-serif" font-size="14" font-weight="bold" lengthAdjust="spacing" textLength="20" x="207" y="322.2607">no</text><rect fill="#F1F1F1" height="52.5938" rx="12.5" ry="12.5" style="stroke:#181818;stroke-width:1.5;" width="142" x="277" y="291.1172"/><text fill="#000000" font-family="sans-serif" font-size="14" lengthAdjust="spacing" textLength="122" x="287" y="314.1123">Signing certificate</text><text fill="#000000" font-family="sans-serif" font-size="14" lengthAdjust="spacing" textLength="80" x="287" y="330.4092">is required?</text><text fill="#000000" font-family="sans-serif" font-size="14" font-weight="bold" lengthAdjust="spacing" textLength="28" x="472" y="277.8154">yes</text><rect fill="#F1F1F1" height="85.1875" rx="12.5" ry="12.5" style="stroke:#181818;stroke-width:1.5;" width="464" x="550" y="230.375"/><text fill="#000000" font-family="sans-serif" font-size="14" lengthAdjust="spacing" textLength="32" x="560" y="253.3701">Use:</text><ellipse cx="565.5" cy="265.4688" fill="#000000" rx="2.5" ry="2.5" style="stroke:#000000;stroke-width:0.0;"/><text fill="#000000" font-family="monospace" font-size="14" font-weight="bold" lengthAdjust="spacing" textLength="432" x="572" y="269.667">/v3/signature/certificate-choice/device-link/anonymous</text><text fill="#000000" font-family="sans-serif" font-size="14" lengthAdjust="spacing" textLength="71" x="560" y="285.9639">Then use:</text><ellipse cx="565.5" cy="298.0625" fill="#000000" rx="2.5" ry="2.5" style="stroke:#000000;stroke-width:0.0;"/><text fill="#000000" font-family="monospace" font-size="14" font-weight="bold" lengthAdjust="spacing" textLength="408" x="572" y="302.2607">/v3/signature/notification/linked/{document-number}</text><path d="M500,272.9688 L510,272.9688 C525,272.9688 525,272.9688 540,272.9688 L550,272.9688 " fill="none" style="stroke:#181818;stroke-width:1.0;"/><path d="M419,317.4141 L429,317.4141 C444,317.4141 444,272.9688 459,272.9688 L469,272.9688 " fill="none" style="stroke:#181818;stroke-width:1.0;"/><text fill="#000000" font-family="sans-serif" font-size="14" font-weight="bold" lengthAdjust="spacing" textLength="20" x="472" y="374.8545">no</text><rect fill="#F1F1F1" height="68.8906" rx="12.5" ry="12.5" style="stroke:#181818;stroke-width:1.5;" width="552" x="542" y="335.5625"/><text fill="#000000" font-family="sans-serif" font-size="14" lengthAdjust="spacing" textLength="166" x="552" y="358.5576">Use one of the following</text><ellipse cx="557.5" cy="370.6563" fill="#000000" rx="2.5" ry="2.5" style="stroke:#000000;stroke-width:0.0;"/><text fill="#000000" font-family="monospace" font-size="14" font-weight="bold" lengthAdjust="spacing" textLength="512" x="564" y="374.8545">/v3/signature/device-link/etsi/{id-etsi-qcs-SemanticsId-Natural}</text><ellipse cx="557.5" cy="386.9531" fill="#000000" rx="2.5" ry="2.5" style="stroke:#000000;stroke-width:0.0;"/><text fill="#000000" font-family="monospace" font-size="14" font-weight="bold" lengthAdjust="spacing" textLength="520" x="564" y="391.1514">/v3/signature/notification/etsi/{id-etsi-qcs-SemanticsId-Natural}</text><path d="M492,370.0078 L502,370.0078 C517,370.0078 517,370.0078 532,370.0078 L542,370.0078 " fill="none" style="stroke:#181818;stroke-width:1.0;"/><path d="M419,317.4141 L429,317.4141 C444,317.4141 444,370.0078 459,370.0078 L469,370.0078 " fill="none" style="stroke:#181818;stroke-width:1.0;"/><path d="M227,317.4141 L237,317.4141 C252,317.4141 252,317.4141 267,317.4141 L277,317.4141 " fill="none" style="stroke:#181818;stroke-width:1.0;"/><path d="M154,212.2266 L164,212.2266 C179,212.2266 179,317.4141 194,317.4141 L204,317.4141 " fill="none" style="stroke:#181818;stroke-width:1.0;"/></g></svg>