<svg width="32" height="32" viewBox="0 0 32 32" fill="none" xmlns="http://www.w3.org/2000/svg">
<g clip-path="url(#clip0_35_54)">
<path fill-rule="evenodd" clip-rule="evenodd" d="M16.0006 0C12.836 0 9.74246 0.938384 7.11117 2.69649C4.47988 4.45459 2.42903 6.95345 1.21798 9.87707C0.00693285 12.8007 -0.309933 16.0178 0.307455 19.1215C0.924843 22.2252 2.44876 25.0761 4.68649 27.3137C6.92422 29.5514 9.77526 31.0752 12.8791 31.6926C15.9829 32.31 19.2001 31.9931 22.1238 30.7821C25.0476 29.5711 27.5465 27.5203 29.3047 24.8891C31.0629 22.258 32.0013 19.1645 32.0013 16C32.0013 11.7565 30.3155 7.68688 27.3148 4.68629C24.3141 1.68571 20.2443 0 16.0006 0ZM8.12553 27.7794C10.4568 29.3361 13.1974 30.1664 16.0006 30.1654C17.8609 30.1654 19.703 29.799 21.4217 29.0871C23.1404 28.3752 24.702 27.3318 26.0175 26.0164C27.3329 24.701 28.3763 23.1395 29.0882 21.4209C29.8001 19.7022 30.1665 17.8602 30.1665 16C30.1676 13.1969 29.3372 10.4564 27.7805 8.1252C26.2237 5.79403 24.0105 3.97691 21.4209 2.9037C18.8312 1.8305 15.9814 1.54942 13.232 2.09603C10.4825 2.64264 7.95694 3.99237 5.97474 5.9745C3.99254 7.95662 2.64275 10.4821 2.09612 13.2314C1.54949 15.9808 1.83057 18.8305 2.90382 21.42C3.97707 24.0096 5.79426 26.2227 8.12553 27.7794Z" fill="#DC2626"/>
<path d="M24.897 19.7333C25.032 19.9378 25.106 20.1764 25.1103 20.4213C25.1159 20.6664 25.0435 20.907 24.9035 21.1083C24.7636 21.3095 24.5633 21.4612 24.3316 21.5413C24.2178 21.5681 24.1018 21.5842 23.985 21.5893C23.8108 21.5859 23.6393 21.5461 23.4813 21.4727C23.3234 21.3992 23.1825 21.2936 23.0676 21.1627L19.4888 17.3493V20.1813C19.4888 20.832 19.2488 21.6213 18.4221 21.6213C18.2632 21.6182 18.1067 21.5826 17.9621 21.5167C17.8176 21.4507 17.6881 21.3558 17.5816 21.2379C17.4752 21.12 17.394 20.9814 17.3432 20.8309C17.2923 20.6804 17.2729 20.521 17.286 20.3627V11.296C17.286 10.6187 17.5474 9.84001 18.4007 9.84001C18.5384 9.82913 18.6768 9.84592 18.8079 9.88937C18.9389 9.93283 19.06 10.0021 19.1639 10.093C19.2677 10.184 19.3524 10.2948 19.4127 10.419C19.4731 10.5431 19.5081 10.6781 19.5155 10.816V13.8667L22.7849 10.4107C22.9872 10.1812 23.2524 10.0162 23.5476 9.93601C23.825 9.89608 24.1072 9.96314 24.337 10.1236C24.5668 10.284 24.7269 10.5258 24.785 10.8C24.8327 11.038 24.8163 11.2843 24.7376 11.5139C24.6589 11.7435 24.5207 11.948 24.337 12.1067L20.9448 15.5787L24.6783 19.4293L24.897 19.7333Z" fill="#DC2626"/>
<path d="M12.8592 14.6987C13.58 14.8497 14.2248 15.2491 14.6811 15.8272C15.1373 16.4052 15.3759 17.1252 15.3553 17.8613C15.3531 18.1534 15.3227 18.4445 15.2646 18.7307C14.8166 20.6933 13.0779 21.568 11.2965 21.568C11.0291 21.5669 10.762 21.5508 10.4964 21.52C9.25904 21.36 6.89095 20.192 6.89095 18.5973C6.8924 18.3813 6.94157 18.1682 7.03496 17.9733C7.11418 17.798 7.24244 17.6493 7.40427 17.5452C7.56609 17.4411 7.75458 17.3861 7.94699 17.3867C8.52903 17.3867 8.8985 17.8769 9.22754 18.3135C9.26334 18.361 9.29865 18.4078 9.33371 18.4533C9.48135 18.6268 9.66284 18.7684 9.86707 18.8693C10.1896 19.0723 10.5547 19.1983 10.9338 19.2373H11.2325H11.4191C12.1712 19.2373 13.0939 18.8533 13.0939 17.9147C13.1064 17.7615 13.0773 17.6078 13.0097 17.4699C12.9421 17.3319 12.8385 17.2147 12.7098 17.1307C12.5596 17.0346 12.3934 16.9659 12.2192 16.928L11.7978 16.8107L10.3631 16.464L9.96307 16.3627C8.30967 15.888 7.2483 14.9067 7.2483 13.328C7.24911 12.9665 7.30302 12.6071 7.4083 12.2613C7.62104 11.5308 8.09085 10.9019 8.73102 10.4907C9.4439 10.0367 10.2755 9.80469 11.1205 9.82401H11.4138C11.5928 9.82963 11.7712 9.84924 11.9472 9.88267C12.3553 9.9287 12.7533 10.0404 13.1259 10.2133C13.4651 10.3507 13.7858 10.5298 14.0806 10.7467C14.6886 11.2373 15.3286 11.8827 14.8219 12.7573C14.7467 12.8943 14.6422 13.0131 14.5159 13.1053C14.3897 13.1975 14.2447 13.2607 14.0912 13.2907C13.8091 13.3406 13.5186 13.2794 13.2805 13.12L12.8965 12.8L12.6672 12.6293C12.2186 12.259 11.6482 12.0689 11.0671 12.096C10.5338 12.096 9.78707 12.256 9.60039 12.8693C9.56847 12.9658 9.55051 13.0664 9.54706 13.168C9.54706 13.424 9.70173 13.7813 10.6404 14.064L10.9338 14.1493L11.1365 14.2027L11.5845 14.3147L12.2085 14.4747L12.4752 14.512L12.9072 14.6293L12.8592 14.6987Z" fill="#DC2626"/>
</g>
<defs>
<clipPath id="clip0_35_54">
<rect width="32" height="32" fill="white"/>
</clipPath>
</defs>
</svg>
