<?xml version="1.0" encoding="us-ascii" standalone="no"?><svg xmlns="http://www.w3.org/2000/svg" xmlns:xlink="http://www.w3.org/1999/xlink" contentStyleType="text/css" height="1358px" preserveAspectRatio="none" style="width:1155px;height:1358px;" version="1.1" viewBox="0 0 1155 1358" width="1155px" zoomAndPan="magnify"><defs/><g><text fill="#000000" font-family="Inter" font-size="14" font-weight="bold" lengthAdjust="spacing" textLength="266" x="446.5" y="27.9951">Device Link Based Signature Flow</text><rect fill="#D2E4F4" height="1258.5" style="stroke:#989898;stroke-width:1.0;" width="10" x="126" y="83.5938"/><rect fill="#D2E4F4" height="1258.5" style="stroke:#989898;stroke-width:1.0;" width="10" x="360" y="83.5938"/><rect fill="#D2E4F4" height="972.1719" style="stroke:#989898;stroke-width:1.0;" width="10" x="746" y="258.5234"/><rect fill="#D2E4F4" height="260.0625" style="stroke:#989898;stroke-width:1.0;" width="10" x="962" y="715.0938"/><rect fill="none" height="234.8359" rx="3.5" ry="3.5" style="stroke:#989898;stroke-width:1.0;" width="924.5" x="73" y="169.9922"/><rect fill="none" height="179.6016" rx="3.5" ry="3.5" style="stroke:#989898;stroke-width:1.0;" width="370.5" x="63" y="492.2266"/><rect fill="none" height="75.3984" rx="3.5" ry="3.5" style="stroke:#989898;stroke-width:1.0;" width="350.5" x="73" y="516.3594"/><rect fill="none" height="117.5313" rx="3.5" ry="3.5" style="stroke:#989898;stroke-width:1.0;" width="924.5" x="73" y="936.8906"/><rect fill="none" height="194.4063" rx="3.5" ry="3.5" style="stroke:#989898;stroke-width:1.0;" width="503.5" x="296.5" y="1068.4219"/><rect fill="none" height="134.1406" rx="3.5" ry="3.5" style="stroke:#989898;stroke-width:1.0;" width="483.5" x="306.5" y="1121.6875"/><line style="stroke:#989898;stroke-width:0.5;stroke-dasharray:5.0,5.0;" x1="131" x2="131" y1="73.5938" y2="1351.0938"/><line style="stroke:#989898;stroke-width:0.5;stroke-dasharray:5.0,5.0;" x1="364.5" x2="364.5" y1="73.5938" y2="1351.0938"/><line style="stroke:#989898;stroke-width:0.5;stroke-dasharray:5.0,5.0;" x1="751" x2="751" y1="73.5938" y2="1351.0938"/><line style="stroke:#989898;stroke-width:0.5;stroke-dasharray:5.0,5.0;" x1="966.5" x2="966.5" y1="73.5938" y2="1351.0938"/><rect fill="#A5C8E8" height="30.2969" rx="3.5" ry="3.5" style="stroke:#202020;stroke-width:1.5;" width="96" x="83" y="42.2969"/><text fill="#202020" font-family="Inter" font-size="14" lengthAdjust="spacing" textLength="82" x="90" y="62.292">RP frontend</text><rect fill="#A5C8E8" height="30.2969" rx="3.5" ry="3.5" style="stroke:#202020;stroke-width:1.5;" width="97" x="316.5" y="42.2969"/><text fill="#202020" font-family="Inter" font-size="14" lengthAdjust="spacing" textLength="83" x="323.5" y="62.292">RP backend</text><rect fill="#A5C8E8" height="30.2969" rx="3.5" ry="3.5" style="stroke:#202020;stroke-width:1.5;" width="58" x="722" y="42.2969"/><text fill="#202020" font-family="Inter" font-size="14" lengthAdjust="spacing" textLength="44" x="729" y="62.292">RP API</text><rect fill="#A5C8E8" height="30.2969" rx="3.5" ry="3.5" style="stroke:#202020;stroke-width:1.5;" width="41" x="946.5" y="42.2969"/><text fill="#202020" font-family="Inter" font-size="14" lengthAdjust="spacing" textLength="27" x="953.5" y="62.292">App</text><rect fill="#D2E4F4" height="1258.5" style="stroke:#989898;stroke-width:1.0;" width="10" x="126" y="83.5938"/><rect fill="#D2E4F4" height="1258.5" style="stroke:#989898;stroke-width:1.0;" width="10" x="360" y="83.5938"/><rect fill="#D2E4F4" height="972.1719" style="stroke:#989898;stroke-width:1.0;" width="10" x="746" y="258.5234"/><rect fill="#D2E4F4" height="260.0625" style="stroke:#989898;stroke-width:1.0;" width="10" x="962" y="715.0938"/><path d="M5,92.0938 L5,125.0938 A3.5,3.5 0 0 0 8.5,128.5938 L253.5,128.5938 A3.5,3.5 0 0 0 257,125.0938 L257,98.5938 L247,88.5938 L8.5,88.5938 A3.5,3.5 0 0 0 5,92.0938 " fill="#DFDFDF" style="stroke:#202020;stroke-width:1.5;"/><path d="M247,88.5938 L247,96.8438 A1.75,1.75 0 0 0 248.75,98.5938 L257,98.5938 L247,88.5938 " fill="#DFDFDF" style="stroke:#202020;stroke-width:1.5;"/><text fill="#202020" font-family="Inter" font-size="13" lengthAdjust="spacing" textLength="231" x="11" y="105.6606">User initiates signing on RP frontend</text><text fill="#202020" font-family="Inter" font-size="13" lengthAdjust="spacing" textLength="154" x="11" y="120.7935">(website or mobile app).</text><polygon fill="#202020" points="348,150.9922,358,154.9922,348,158.9922" style="stroke:#202020;stroke-width:1.0;"/><line style="stroke:#202020;stroke-width:1.0;" x1="136" x2="354" y1="154.9922" y2="154.9922"/><text fill="#000000" font-family="Inter" font-size="13" font-weight="bold" lengthAdjust="spacing" textLength="9" x="192" y="149.9263">1</text><text fill="#000000" font-family="Inter" font-size="13" lengthAdjust="spacing" textLength="52" x="205" y="149.9263">Request</text><text fill="#000000" font-family="Inter" font-size="13" lengthAdjust="spacing" textLength="4" x="257" y="149.9263">&#160;</text><text fill="#000000" font-family="Inter" font-size="13" lengthAdjust="spacing" textLength="13" x="261" y="149.9263">to</text><text fill="#000000" font-family="Inter" font-size="13" lengthAdjust="spacing" textLength="4" x="274" y="149.9263">&#160;</text><text fill="#000000" font-family="Inter" font-size="13" lengthAdjust="spacing" textLength="26" x="278" y="149.9263">sign</text><path d="M76.5,169.9922 L137,169.9922 L137,177.125 L127,187.125 L73,187.125 L73,173.4922 A3.5,3.5 0 0 1 76.5,169.9922 " fill="#EEEEEE" style="stroke:#989898;stroke-width:1.5;"/><rect fill="none" height="234.8359" rx="3.5" ry="3.5" style="stroke:#989898;stroke-width:1.0;" width="924.5" x="73" y="169.9922"/><text fill="#202020" font-family="Inter" font-size="13" font-weight="bold" lengthAdjust="spacing" textLength="19" x="88" y="183.0591">alt</text><text fill="#989898" font-family="Inter" font-size="11" font-weight="bold" lengthAdjust="spacing" textLength="195" x="152" y="182.2026">[user has been authenticated]</text><path d="M267,195.625 L267,213.625 A3.5,3.5 0 0 0 270.5,217.125 L845.5,217.125 A3.5,3.5 0 0 0 849,213.625 L849,202.125 L839,192.125 L270.5,192.125 A3.5,3.5 0 0 0 267,195.625 " fill="#DFDFDF" style="stroke:#202020;stroke-width:1.5;"/><path d="M839,192.125 L839,200.375 A1.75,1.75 0 0 0 840.75,202.125 L849,202.125 L839,192.125 " fill="#DFDFDF" style="stroke:#202020;stroke-width:1.5;"/><text fill="#202020" font-family="Inter" font-size="13" lengthAdjust="spacing" textLength="561" x="273" y="209.1919">Request signing certificate using the document number from the authentication session</text><polygon fill="#202020" points="734,254.5234,744,258.5234,734,262.5234" style="stroke:#202020;stroke-width:1.0;"/><line style="stroke:#202020;stroke-width:1.0;" x1="370" x2="740" y1="258.5234" y2="258.5234"/><text fill="#000000" font-family="Inter" font-size="13" font-weight="bold" lengthAdjust="spacing" textLength="9" x="379.5" y="245.8911">2</text><text fill="#000000" font-family="monospace" font-size="13" lengthAdjust="spacing" textLength="32" x="548.5" y="238.3247">POST</text><text fill="#000000" font-family="monospace" font-size="13" lengthAdjust="spacing" textLength="344" x="392.5" y="253.4575">/v3/signature/certificate/{document-number}</text><polygon fill="#202020" points="381,266.5234,371,270.5234,381,274.5234" style="stroke:#202020;stroke-width:1.0;"/><line style="stroke:#202020;stroke-width:1.0;stroke-dasharray:2.0,2.0;" x1="375" x2="745" y1="270.5234" y2="270.5234"/><text fill="#000000" font-family="Inter" font-size="13" font-weight="bold" lengthAdjust="spacing" textLength="9" x="490.5" y="283.5903">3</text><text fill="#000000" font-family="Inter" font-size="13" lengthAdjust="spacing" textLength="50" x="503.5" y="283.5903">"signing</text><text fill="#000000" font-family="Inter" font-size="13" lengthAdjust="spacing" textLength="4" x="553.5" y="283.5903">&#160;</text><text fill="#000000" font-family="Inter" font-size="13" lengthAdjust="spacing" textLength="68" x="557.5" y="283.5903">certificate"</text><line style="stroke:#989898;stroke-width:1.0;stroke-dasharray:2.0,2.0;" x1="73" x2="997.5" y1="296.6563" y2="296.6563"/><text fill="#989898" font-family="Inter" font-size="11" font-weight="bold" lengthAdjust="spacing" textLength="190" x="78" y="306.8667">[no prior user authentication]</text><path d="M221,318.9609 L221,351.9609 A3.5,3.5 0 0 0 224.5,355.4609 L891.5,355.4609 A3.5,3.5 0 0 0 895,351.9609 L895,325.4609 L885,315.4609 L224.5,315.4609 A3.5,3.5 0 0 0 221,318.9609 " fill="#DFDFDF" style="stroke:#202020;stroke-width:1.5;"/><path d="M885,315.4609 L885,323.7109 A1.75,1.75 0 0 0 886.75,325.4609 L895,325.4609 L885,315.4609 " fill="#DFDFDF" style="stroke:#202020;stroke-width:1.5;"/><text fill="#202020" font-family="Inter" font-size="13" lengthAdjust="spacing" textLength="636" x="227" y="332.5278">Warning: Although combining certificate choice and device link based signature sessions is possible,</text><text fill="#202020" font-family="Inter" font-size="13" lengthAdjust="spacing" textLength="653" x="227" y="347.6606">it is recommended to instead use notification-based linked signature session for best user experience.</text><rect fill="none" height="39.1016" rx="3.5" ry="3.5" style="stroke:#000000;stroke-width:1.5;" width="910.5" x="80" y="360.7266"/><path d="M83,360.7266 L146,360.7266 L146,367.7266 L136,377.7266 L80,377.7266 L80,363.7266 A3,3 0 0 1 83,360.7266 " fill="#EEEEEE" style="stroke:#000000;stroke-width:2.0;"/><text fill="#000000" font-family="Inter" font-size="13" font-weight="bold" lengthAdjust="spacing" textLength="21" x="93" y="374.7935">ref</text><text fill="#000000" font-family="Inter" font-size="12" font-weight="bold" lengthAdjust="spacing" textLength="123" x="393.75" y="392.8652">Certificate choice</text><text fill="#000000" font-family="Inter" font-size="12" lengthAdjust="spacing" textLength="156" x="520.75" y="392.8652">sub-process (not shown)</text><polygon fill="#202020" points="734,428.9609,744,432.9609,734,436.9609" style="stroke:#202020;stroke-width:1.0;"/><line style="stroke:#202020;stroke-width:1.0;" x1="370" x2="740" y1="432.9609" y2="432.9609"/><text fill="#000000" font-family="Inter" font-size="13" font-weight="bold" lengthAdjust="spacing" textLength="9" x="415.5" y="427.895">4</text><text fill="#000000" font-family="monospace" font-size="13" lengthAdjust="spacing" textLength="32" x="428.5" y="427.895">POST</text><text fill="#000000" font-family="monospace" font-size="13" lengthAdjust="spacing" textLength="8" x="460.5" y="427.895">&#160;</text><text fill="#000000" font-family="monospace" font-size="13" lengthAdjust="spacing" textLength="232" x="468.5" y="427.895">/v3/signature/device-link/...</text><polygon fill="#202020" points="381,440.9609,371,444.9609,381,448.9609" style="stroke:#202020;stroke-width:1.0;"/><line style="stroke:#202020;stroke-width:1.0;stroke-dasharray:2.0,2.0;" x1="375" x2="745" y1="444.9609" y2="444.9609"/><text fill="#000000" font-family="Inter" font-size="13" font-weight="bold" lengthAdjust="spacing" textLength="9" x="405.5" y="465.5942">5</text><text fill="#000000" font-family="monospace" font-size="13" lengthAdjust="spacing" textLength="72" x="418.5" y="458.0278">sessionID</text><text fill="#000000" font-family="Inter" font-size="13" lengthAdjust="spacing" textLength="4" x="490.5" y="458.0278">,</text><text fill="#000000" font-family="Inter" font-size="13" lengthAdjust="spacing" textLength="4" x="494.5" y="458.0278">&#160;</text><text fill="#000000" font-family="monospace" font-size="13" lengthAdjust="spacing" textLength="96" x="498.5" y="458.0278">sessionToken</text><text fill="#000000" font-family="Inter" font-size="13" lengthAdjust="spacing" textLength="4" x="594.5" y="458.0278">,</text><text fill="#000000" font-family="Inter" font-size="13" lengthAdjust="spacing" textLength="4" x="598.5" y="458.0278">&#160;</text><text fill="#000000" font-family="monospace" font-size="13" lengthAdjust="spacing" textLength="104" x="602.5" y="458.0278">sessionSecret</text><text fill="#000000" font-family="Inter" font-size="13" lengthAdjust="spacing" textLength="4" x="706.5" y="458.0278">,</text><text fill="#000000" font-family="monospace" font-size="13" lengthAdjust="spacing" textLength="112" x="508.5" y="473.1606">deviceLinkBase</text><path d="M66.5,492.2266 L127,492.2266 L127,499.3594 L117,509.3594 L63,509.3594 L63,495.7266 A3.5,3.5 0 0 1 66.5,492.2266 " fill="#EEEEEE" style="stroke:#989898;stroke-width:1.5;"/><rect fill="none" height="179.6016" rx="3.5" ry="3.5" style="stroke:#989898;stroke-width:1.0;" width="370.5" x="63" y="492.2266"/><text fill="#202020" font-family="Inter" font-size="13" font-weight="bold" lengthAdjust="spacing" textLength="19" x="78" y="505.2935">alt</text><text fill="#989898" font-family="Inter" font-size="11" font-weight="bold" lengthAdjust="spacing" textLength="222" x="142" y="504.437">[Cross-device use-case (QR code)]</text><path d="M76.5,516.3594 L150,516.3594 L150,523.4922 L140,533.4922 L73,533.4922 L73,519.8594 A3.5,3.5 0 0 1 76.5,516.3594 " fill="#EEEEEE" style="stroke:#989898;stroke-width:1.5;"/><rect fill="none" height="75.3984" rx="3.5" ry="3.5" style="stroke:#989898;stroke-width:1.0;" width="350.5" x="73" y="516.3594"/><text fill="#202020" font-family="Inter" font-size="13" font-weight="bold" lengthAdjust="spacing" textLength="32" x="88" y="529.4263">loop</text><text fill="#989898" font-family="Inter" font-size="11" font-weight="bold" lengthAdjust="spacing" textLength="132" x="165" y="528.5698">[until user interacts]</text><polygon fill="#202020" points="348,550.625,358,554.625,348,558.625" style="stroke:#202020;stroke-width:1.0;"/><line style="stroke:#202020;stroke-width:1.0;" x1="136" x2="354" y1="554.625" y2="554.625"/><text fill="#000000" font-family="Inter" font-size="13" font-weight="bold" lengthAdjust="spacing" textLength="9" x="148" y="549.5591">6</text><text fill="#000000" font-family="Inter" font-size="13" lengthAdjust="spacing" textLength="52" x="161" y="549.5591">Request</text><text fill="#000000" font-family="Inter" font-size="13" lengthAdjust="spacing" textLength="4" x="213" y="549.5591">&#160;</text><text fill="#000000" font-family="Inter" font-size="13" lengthAdjust="spacing" textLength="17" x="217" y="549.5591">for</text><text fill="#000000" font-family="Inter" font-size="13" lengthAdjust="spacing" textLength="4" x="234" y="549.5591">&#160;</text><text fill="#000000" font-family="Inter" font-size="13" lengthAdjust="spacing" textLength="53" x="238" y="549.5591">updated</text><text fill="#000000" font-family="Inter" font-size="13" lengthAdjust="spacing" textLength="4" x="291" y="549.5591">&#160;</text><text fill="#000000" font-family="Inter" font-size="13" lengthAdjust="spacing" textLength="18" x="295" y="549.5591">QR</text><text fill="#000000" font-family="Inter" font-size="13" lengthAdjust="spacing" textLength="4" x="313" y="549.5591">&#160;</text><text fill="#000000" font-family="Inter" font-size="13" lengthAdjust="spacing" textLength="31" x="317" y="549.5591">code</text><polygon fill="#202020" points="147,562.625,137,566.625,147,570.625" style="stroke:#202020;stroke-width:1.0;"/><line style="stroke:#202020;stroke-width:1.0;stroke-dasharray:2.0,2.0;" x1="141" x2="359" y1="566.625" y2="566.625"/><text fill="#000000" font-family="Inter" font-size="13" font-weight="bold" lengthAdjust="spacing" textLength="9" x="161" y="579.6919">7</text><text fill="#000000" font-family="Inter" font-size="13" lengthAdjust="spacing" textLength="47" x="174" y="579.6919">Provide</text><text fill="#000000" font-family="Inter" font-size="13" lengthAdjust="spacing" textLength="4" x="221" y="579.6919">&#160;</text><text fill="#000000" font-family="Inter" font-size="13" lengthAdjust="spacing" textLength="53" x="225" y="579.6919">updated</text><text fill="#000000" font-family="Inter" font-size="13" lengthAdjust="spacing" textLength="4" x="278" y="579.6919">&#160;</text><text fill="#000000" font-family="Inter" font-size="13" lengthAdjust="spacing" textLength="18" x="282" y="579.6919">QR</text><text fill="#000000" font-family="Inter" font-size="13" lengthAdjust="spacing" textLength="4" x="300" y="579.6919">&#160;</text><text fill="#000000" font-family="Inter" font-size="13" lengthAdjust="spacing" textLength="31" x="304" y="579.6919">code</text><line style="stroke:#989898;stroke-width:1.0;stroke-dasharray:2.0,2.0;" x1="63" x2="433.5" y1="599.7578" y2="599.7578"/><text fill="#989898" font-family="Inter" font-size="11" font-weight="bold" lengthAdjust="spacing" textLength="306" x="68" y="609.9683">[Same-device use-case (Web2App or App2App)]</text><polygon fill="#202020" points="348,630.6953,358,634.6953,348,638.6953" style="stroke:#202020;stroke-width:1.0;"/><line style="stroke:#202020;stroke-width:1.0;" x1="136" x2="354" y1="634.6953" y2="634.6953"/><text fill="#000000" font-family="Inter" font-size="13" font-weight="bold" lengthAdjust="spacing" textLength="9" x="180.5" y="629.6294">8</text><text fill="#000000" font-family="Inter" font-size="13" lengthAdjust="spacing" textLength="52" x="193.5" y="629.6294">Request</text><text fill="#000000" font-family="Inter" font-size="13" lengthAdjust="spacing" textLength="4" x="245.5" y="629.6294">&#160;</text><text fill="#000000" font-family="Inter" font-size="13" lengthAdjust="spacing" textLength="41" x="249.5" y="629.6294">device</text><text fill="#000000" font-family="Inter" font-size="13" lengthAdjust="spacing" textLength="4" x="290.5" y="629.6294">&#160;</text><text fill="#000000" font-family="Inter" font-size="13" lengthAdjust="spacing" textLength="21" x="294.5" y="629.6294">link</text><polygon fill="#202020" points="147,642.6953,137,646.6953,147,650.6953" style="stroke:#202020;stroke-width:1.0;"/><line style="stroke:#202020;stroke-width:1.0;stroke-dasharray:2.0,2.0;" x1="141" x2="359" y1="646.6953" y2="646.6953"/><text fill="#000000" font-family="Inter" font-size="13" font-weight="bold" lengthAdjust="spacing" textLength="9" x="187" y="659.7622">9</text><text fill="#000000" font-family="Inter" font-size="13" lengthAdjust="spacing" textLength="84" x="200" y="659.7622">Same-device</text><text fill="#000000" font-family="Inter" font-size="13" lengthAdjust="spacing" textLength="4" x="284" y="659.7622">&#160;</text><text fill="#000000" font-family="Inter" font-size="13" lengthAdjust="spacing" textLength="21" x="288" y="659.7622">link</text><polygon fill="#202020" points="950,711.0938,960,715.0938,950,719.0938" style="stroke:#202020;stroke-width:1.0;"/><line style="stroke:#202020;stroke-width:1.0;" x1="136" x2="956" y1="715.0938" y2="715.0938"/><text fill="#000000" font-family="Inter" font-size="13" font-weight="bold" lengthAdjust="spacing" textLength="18" x="377.5" y="702.4614">10</text><text fill="#000000" font-family="Inter" font-size="13" lengthAdjust="spacing" textLength="30" x="399.5" y="694.895">User</text><text fill="#000000" font-family="Inter" font-size="13" lengthAdjust="spacing" textLength="4" x="429.5" y="694.895">&#160;</text><text fill="#000000" font-family="Inter" font-size="13" lengthAdjust="spacing" textLength="37" x="433.5" y="694.895">scans</text><text fill="#000000" font-family="Inter" font-size="13" lengthAdjust="spacing" textLength="4" x="470.5" y="694.895">&#160;</text><text fill="#000000" font-family="Inter" font-size="13" lengthAdjust="spacing" textLength="21" x="474.5" y="694.895">the</text><text fill="#000000" font-family="Inter" font-size="13" lengthAdjust="spacing" textLength="4" x="495.5" y="694.895">&#160;</text><text fill="#000000" font-family="Inter" font-size="13" lengthAdjust="spacing" textLength="18" x="499.5" y="694.895">QR</text><text fill="#000000" font-family="Inter" font-size="13" lengthAdjust="spacing" textLength="4" x="517.5" y="694.895">&#160;</text><text fill="#000000" font-family="Inter" font-size="13" lengthAdjust="spacing" textLength="31" x="521.5" y="694.895">code</text><text fill="#000000" font-family="Inter" font-size="13" lengthAdjust="spacing" textLength="4" x="552.5" y="694.895">&#160;</text><text fill="#000000" font-family="Inter" font-size="13" lengthAdjust="spacing" textLength="13" x="556.5" y="694.895">or</text><text fill="#000000" font-family="Inter" font-size="13" lengthAdjust="spacing" textLength="4" x="569.5" y="694.895">&#160;</text><text fill="#000000" font-family="Inter" font-size="13" lengthAdjust="spacing" textLength="34" x="573.5" y="694.895">clicks</text><text fill="#000000" font-family="Inter" font-size="13" lengthAdjust="spacing" textLength="4" x="607.5" y="694.895">&#160;</text><text fill="#000000" font-family="Inter" font-size="13" lengthAdjust="spacing" textLength="16" x="611.5" y="694.895">on</text><text fill="#000000" font-family="Inter" font-size="13" lengthAdjust="spacing" textLength="4" x="627.5" y="694.895">&#160;</text><text fill="#000000" font-family="Inter" font-size="13" lengthAdjust="spacing" textLength="8" x="631.5" y="694.895">a</text><text fill="#000000" font-family="Inter" font-size="13" lengthAdjust="spacing" textLength="4" x="639.5" y="694.895">&#160;</text><text fill="#000000" font-family="Inter" font-size="13" lengthAdjust="spacing" textLength="60" x="643.5" y="694.895">Web2App</text><text fill="#000000" font-family="Inter" font-size="13" lengthAdjust="spacing" textLength="4" x="703.5" y="694.895">&#160;</text><text fill="#000000" font-family="Inter" font-size="13" lengthAdjust="spacing" textLength="13" x="707.5" y="694.895">or</text><text fill="#000000" font-family="Inter" font-size="13" lengthAdjust="spacing" textLength="58" x="518.5" y="710.0278">App2App</text><text fill="#000000" font-family="Inter" font-size="13" lengthAdjust="spacing" textLength="4" x="576.5" y="710.0278">&#160;</text><text fill="#000000" font-family="Inter" font-size="13" lengthAdjust="spacing" textLength="21" x="580.5" y="710.0278">link</text><line style="stroke:#202020;stroke-width:1.0;" x1="972" x2="1014" y1="744.2266" y2="744.2266"/><line style="stroke:#202020;stroke-width:1.0;" x1="1014" x2="1014" y1="744.2266" y2="757.2266"/><line style="stroke:#202020;stroke-width:1.0;" x1="973" x2="1014" y1="757.2266" y2="757.2266"/><polygon fill="#202020" points="983,753.2266,973,757.2266,983,761.2266" style="stroke:#202020;stroke-width:1.0;"/><text fill="#000000" font-family="Inter" font-size="13" font-weight="bold" lengthAdjust="spacing" textLength="18" x="979" y="739.1606">11</text><text fill="#000000" font-family="Inter" font-size="13" lengthAdjust="spacing" textLength="52" x="1001" y="739.1606">Validate</text><text fill="#000000" font-family="Inter" font-size="13" lengthAdjust="spacing" textLength="4" x="1053" y="739.1606">&#160;</text><text fill="#000000" font-family="Inter" font-size="13" lengthAdjust="spacing" textLength="21" x="1057" y="739.1606">the</text><text fill="#000000" font-family="Inter" font-size="13" lengthAdjust="spacing" textLength="4" x="1078" y="739.1606">&#160;</text><text fill="#000000" font-family="Inter" font-size="13" lengthAdjust="spacing" textLength="41" x="1082" y="739.1606">device</text><text fill="#000000" font-family="Inter" font-size="13" lengthAdjust="spacing" textLength="4" x="1123" y="739.1606">&#160;</text><text fill="#000000" font-family="Inter" font-size="13" lengthAdjust="spacing" textLength="21" x="1127" y="739.1606">link</text><polygon fill="#202020" points="767,782.3594,757,786.3594,767,790.3594" style="stroke:#202020;stroke-width:1.0;"/><line style="stroke:#202020;stroke-width:1.0;" x1="761" x2="961" y1="786.3594" y2="786.3594"/><text fill="#000000" font-family="Inter" font-size="13" font-weight="bold" lengthAdjust="spacing" textLength="18" x="768" y="781.2935">12</text><text fill="#000000" font-family="monospace" font-size="13" lengthAdjust="spacing" textLength="48" x="790" y="781.2935">Create</text><text fill="#000000" font-family="monospace" font-size="13" lengthAdjust="spacing" textLength="8" x="838" y="781.2935">&#160;</text><text fill="#000000" font-family="monospace" font-size="13" lengthAdjust="spacing" textLength="8" x="846" y="781.2935">a</text><text fill="#000000" font-family="monospace" font-size="13" lengthAdjust="spacing" textLength="8" x="854" y="781.2935">&#160;</text><text fill="#000000" font-family="monospace" font-size="13" lengthAdjust="spacing" textLength="88" x="862" y="781.2935">transaction</text><polygon fill="#202020" points="950,794.3594,960,798.3594,950,802.3594" style="stroke:#202020;stroke-width:1.0;"/><line style="stroke:#202020;stroke-width:1.0;stroke-dasharray:2.0,2.0;" x1="756" x2="956" y1="798.3594" y2="798.3594"/><text fill="#000000" font-family="Inter" font-size="13" font-weight="bold" lengthAdjust="spacing" textLength="18" x="804" y="811.4263">13</text><text fill="#000000" font-family="monospace" font-size="13" lengthAdjust="spacing" textLength="88" x="826" y="811.4263">transaction</text><line style="stroke:#202020;stroke-width:1.0;" x1="972" x2="1014" y1="844.625" y2="844.625"/><line style="stroke:#202020;stroke-width:1.0;" x1="1014" x2="1014" y1="844.625" y2="857.625"/><line style="stroke:#202020;stroke-width:1.0;" x1="973" x2="1014" y1="857.625" y2="857.625"/><polygon fill="#202020" points="983,853.625,973,857.625,983,861.625" style="stroke:#202020;stroke-width:1.0;"/><text fill="#000000" font-family="Inter" font-size="13" font-weight="bold" lengthAdjust="spacing" textLength="18" x="979" y="839.5591">14</text><text fill="#000000" font-family="Inter" font-size="13" lengthAdjust="spacing" textLength="46" x="1001" y="839.5591">Display</text><text fill="#000000" font-family="Inter" font-size="13" lengthAdjust="spacing" textLength="4" x="1047" y="839.5591">&#160;</text><text fill="#000000" font-family="Inter" font-size="13" lengthAdjust="spacing" textLength="60" x="1051" y="839.5591">signature</text><text fill="#000000" font-family="Inter" font-size="13" lengthAdjust="spacing" textLength="4" x="1111" y="839.5591">&#160;</text><text fill="#000000" font-family="Inter" font-size="13" lengthAdjust="spacing" textLength="13" x="1115" y="839.5591">UI</text><path d="M868,874.125 L868,892.125 A3.5,3.5 0 0 0 871.5,895.625 L1061.5,895.625 A3.5,3.5 0 0 0 1065,892.125 L1065,880.625 L1055,870.625 L871.5,870.625 A3.5,3.5 0 0 0 868,874.125 " fill="#DFDFDF" style="stroke:#202020;stroke-width:1.5;"/><path d="M1055,870.625 L1055,878.875 A1.75,1.75 0 0 0 1056.75,880.625 L1065,880.625 L1055,870.625 " fill="#DFDFDF" style="stroke:#202020;stroke-width:1.5;"/><text fill="#202020" font-family="Inter" font-size="13" lengthAdjust="spacing" textLength="176" x="874" y="887.6919">User enters the PIN 2 code.</text><polygon fill="#202020" points="767,917.8906,757,921.8906,767,925.8906" style="stroke:#202020;stroke-width:1.0;"/><line style="stroke:#202020;stroke-width:1.0;" x1="761" x2="961" y1="921.8906" y2="921.8906"/><text fill="#000000" font-family="Inter" font-size="13" font-weight="bold" lengthAdjust="spacing" textLength="18" x="812" y="916.8247">15</text><text fill="#000000" font-family="monospace" font-size="13" lengthAdjust="spacing" textLength="72" x="834" y="916.8247">signature</text><path d="M76.5,936.8906 L143,936.8906 L143,944.0234 L133,954.0234 L73,954.0234 L73,940.3906 A3.5,3.5 0 0 1 76.5,936.8906 " fill="#EEEEEE" style="stroke:#989898;stroke-width:1.5;"/><rect fill="none" height="117.5313" rx="3.5" ry="3.5" style="stroke:#989898;stroke-width:1.0;" width="924.5" x="73" y="936.8906"/><text fill="#202020" font-family="Inter" font-size="13" font-weight="bold" lengthAdjust="spacing" textLength="25" x="88" y="949.9575">opt</text><text fill="#989898" font-family="Inter" font-size="11" font-weight="bold" lengthAdjust="spacing" textLength="306" x="158" y="949.1011">[Same-device use-case (Web2App or App2App)]</text><polygon fill="#202020" points="147,971.1563,137,975.1563,147,979.1563" style="stroke:#202020;stroke-width:1.0;"/><line style="stroke:#202020;stroke-width:1.0;" x1="141" x2="966" y1="975.1563" y2="975.1563"/><text fill="#000000" font-family="Inter" font-size="13" font-weight="bold" lengthAdjust="spacing" textLength="18" x="448" y="970.0903">16</text><text fill="#000000" font-family="Inter" font-size="13" lengthAdjust="spacing" textLength="52" x="470" y="970.0903">Redirect</text><text fill="#000000" font-family="Inter" font-size="13" lengthAdjust="spacing" textLength="4" x="522" y="970.0903">&#160;</text><text fill="#000000" font-family="Inter" font-size="13" lengthAdjust="spacing" textLength="28" x="526" y="970.0903">user</text><text fill="#000000" font-family="Inter" font-size="13" lengthAdjust="spacing" textLength="4" x="554" y="970.0903">&#160;</text><text fill="#000000" font-family="Inter" font-size="13" lengthAdjust="spacing" textLength="13" x="558" y="970.0903">to</text><text fill="#000000" font-family="Inter" font-size="13" lengthAdjust="spacing" textLength="4" x="571" y="970.0903">&#160;</text><text fill="#000000" font-family="Inter" font-size="13" lengthAdjust="spacing" textLength="51" x="575" y="970.0903">callback</text><text fill="#000000" font-family="Inter" font-size="13" lengthAdjust="spacing" textLength="4" x="626" y="970.0903">&#160;</text><text fill="#000000" font-family="Inter" font-size="13" lengthAdjust="spacing" textLength="25" x="630" y="970.0903">URL</text><polygon fill="#202020" points="348,1000.2891,358,1004.2891,348,1008.2891" style="stroke:#202020;stroke-width:1.0;"/><line style="stroke:#202020;stroke-width:1.0;" x1="136" x2="354" y1="1004.2891" y2="1004.2891"/><text fill="#000000" font-family="Inter" font-size="13" font-weight="bold" lengthAdjust="spacing" textLength="18" x="151" y="999.2231">17</text><text fill="#000000" font-family="Inter" font-size="13" lengthAdjust="spacing" textLength="52" x="173" y="999.2231">Request</text><text fill="#000000" font-family="Inter" font-size="13" lengthAdjust="spacing" textLength="4" x="225" y="999.2231">&#160;</text><text fill="#000000" font-family="Inter" font-size="13" lengthAdjust="spacing" textLength="51" x="229" y="999.2231">callback</text><text fill="#000000" font-family="Inter" font-size="13" lengthAdjust="spacing" textLength="4" x="280" y="999.2231">&#160;</text><text fill="#000000" font-family="Inter" font-size="13" lengthAdjust="spacing" textLength="61" x="284" y="999.2231">validation</text><line style="stroke:#202020;stroke-width:1.0;" x1="370" x2="412" y1="1033.4219" y2="1033.4219"/><line style="stroke:#202020;stroke-width:1.0;" x1="412" x2="412" y1="1033.4219" y2="1046.4219"/><line style="stroke:#202020;stroke-width:1.0;" x1="371" x2="412" y1="1046.4219" y2="1046.4219"/><polygon fill="#202020" points="381,1042.4219,371,1046.4219,381,1050.4219" style="stroke:#202020;stroke-width:1.0;"/><text fill="#000000" font-family="Inter" font-size="13" font-weight="bold" lengthAdjust="spacing" textLength="18" x="377" y="1028.356">18</text><text fill="#000000" font-family="Inter" font-size="13" lengthAdjust="spacing" textLength="52" x="399" y="1028.356">Validate</text><text fill="#000000" font-family="Inter" font-size="13" lengthAdjust="spacing" textLength="4" x="451" y="1028.356">&#160;</text><text fill="#000000" font-family="Inter" font-size="13" lengthAdjust="spacing" textLength="51" x="455" y="1028.356">callback</text><path d="M300,1068.4219 L373.5,1068.4219 L373.5,1075.5547 L363.5,1085.5547 L296.5,1085.5547 L296.5,1071.9219 A3.5,3.5 0 0 1 300,1068.4219 " fill="#EEEEEE" style="stroke:#989898;stroke-width:1.5;"/><rect fill="none" height="194.4063" rx="3.5" ry="3.5" style="stroke:#989898;stroke-width:1.0;" width="503.5" x="296.5" y="1068.4219"/><text fill="#202020" font-family="Inter" font-size="13" font-weight="bold" lengthAdjust="spacing" textLength="32" x="311.5" y="1081.4888">loop</text><text fill="#989898" font-family="Inter" font-size="11" font-weight="bold" lengthAdjust="spacing" textLength="227" x="388.5" y="1080.6323">[until signature completed or error]</text><polygon fill="#202020" points="734,1102.6875,744,1106.6875,734,1110.6875" style="stroke:#202020;stroke-width:1.0;"/><line style="stroke:#202020;stroke-width:1.0;" x1="370" x2="740" y1="1106.6875" y2="1106.6875"/><text fill="#000000" font-family="Inter" font-size="13" font-weight="bold" lengthAdjust="spacing" textLength="18" x="439" y="1101.6216">19</text><text fill="#000000" font-family="monospace" font-size="13" lengthAdjust="spacing" textLength="24" x="461" y="1101.6216">GET</text><text fill="#000000" font-family="monospace" font-size="13" lengthAdjust="spacing" textLength="8" x="485" y="1101.6216">&#160;</text><text fill="#000000" font-family="monospace" font-size="13" lengthAdjust="spacing" textLength="184" x="493" y="1101.6216">/v3/session/{sessionID}</text><path d="M310,1121.6875 L370.5,1121.6875 L370.5,1128.8203 L360.5,1138.8203 L306.5,1138.8203 L306.5,1125.1875 A3.5,3.5 0 0 1 310,1121.6875 " fill="#EEEEEE" style="stroke:#989898;stroke-width:1.5;"/><rect fill="none" height="134.1406" rx="3.5" ry="3.5" style="stroke:#989898;stroke-width:1.0;" width="483.5" x="306.5" y="1121.6875"/><text fill="#202020" font-family="Inter" font-size="13" font-weight="bold" lengthAdjust="spacing" textLength="19" x="321.5" y="1134.7544">alt</text><text fill="#989898" font-family="Inter" font-size="11" font-weight="bold" lengthAdjust="spacing" textLength="127" x="385.5" y="1133.8979">[signature pending]</text><polygon fill="#202020" points="381,1138.8203,371,1142.8203,381,1146.8203" style="stroke:#202020;stroke-width:1.0;"/><line style="stroke:#202020;stroke-width:1.0;stroke-dasharray:2.0,2.0;" x1="375" x2="745" y1="1142.8203" y2="1142.8203"/><text fill="#000000" font-family="Inter" font-size="13" font-weight="bold" lengthAdjust="spacing" textLength="18" x="491" y="1155.8872">20</text><text fill="#000000" font-family="monospace" font-size="13" lengthAdjust="spacing" textLength="56" x="513" y="1155.8872">session</text><text fill="#000000" font-family="monospace" font-size="13" lengthAdjust="spacing" textLength="8" x="569" y="1155.8872">&#160;</text><text fill="#000000" font-family="monospace" font-size="13" lengthAdjust="spacing" textLength="48" x="577" y="1155.8872">status</text><line style="stroke:#989898;stroke-width:1.0;stroke-dasharray:2.0,2.0;" x1="306.5" x2="790" y1="1168.9531" y2="1168.9531"/><text fill="#989898" font-family="Inter" font-size="11" font-weight="bold" lengthAdjust="spacing" textLength="121" x="311.5" y="1179.1636">[error (or timeout)]</text><polygon fill="#202020" points="381,1182.7578,371,1186.7578,381,1190.7578" style="stroke:#202020;stroke-width:1.0;"/><line style="stroke:#202020;stroke-width:1.0;stroke-dasharray:2.0,2.0;" x1="375" x2="745" y1="1186.7578" y2="1186.7578"/><text fill="#000000" font-family="Inter" font-size="13" font-weight="bold" lengthAdjust="spacing" textLength="18" x="527" y="1199.8247">21</text><text fill="#000000" font-family="monospace" font-size="13" lengthAdjust="spacing" textLength="40" x="549" y="1199.8247">error</text><line style="stroke:#989898;stroke-width:1.0;stroke-dasharray:2.0,2.0;" x1="306.5" x2="790" y1="1212.8906" y2="1212.8906"/><text fill="#989898" font-family="Inter" font-size="11" font-weight="bold" lengthAdjust="spacing" textLength="142" x="311.5" y="1223.1011">[signature completed]</text><polygon fill="#202020" points="381,1226.6953,371,1230.6953,381,1234.6953" style="stroke:#202020;stroke-width:1.0;"/><line style="stroke:#202020;stroke-width:1.0;stroke-dasharray:2.0,2.0;" x1="375" x2="750" y1="1230.6953" y2="1230.6953"/><text fill="#000000" font-family="Inter" font-size="13" font-weight="bold" lengthAdjust="spacing" textLength="18" x="525.5" y="1243.7622">22</text><text fill="#000000" font-family="monospace" font-size="13" lengthAdjust="spacing" textLength="48" x="547.5" y="1243.7622">result</text><line style="stroke:#202020;stroke-width:1.0;" x1="370" x2="412" y1="1290.9609" y2="1290.9609"/><line style="stroke:#202020;stroke-width:1.0;" x1="412" x2="412" y1="1290.9609" y2="1303.9609"/><line style="stroke:#202020;stroke-width:1.0;" x1="371" x2="412" y1="1303.9609" y2="1303.9609"/><polygon fill="#202020" points="381,1299.9609,371,1303.9609,381,1307.9609" style="stroke:#202020;stroke-width:1.0;"/><text fill="#000000" font-family="Inter" font-size="13" font-weight="bold" lengthAdjust="spacing" textLength="18" x="377" y="1285.895">23</text><text fill="#000000" font-family="Inter" font-size="13" lengthAdjust="spacing" textLength="51" x="399" y="1285.895">Perform</text><text fill="#000000" font-family="Inter" font-size="13" lengthAdjust="spacing" textLength="4" x="450" y="1285.895">&#160;</text><text fill="#000000" font-family="Inter" font-size="13" lengthAdjust="spacing" textLength="59" x="454" y="1285.895">response</text><text fill="#000000" font-family="Inter" font-size="13" lengthAdjust="spacing" textLength="4" x="513" y="1285.895">&#160;</text><text fill="#000000" font-family="Inter" font-size="13" lengthAdjust="spacing" textLength="69" x="517" y="1285.895">verification</text><polygon fill="#202020" points="147,1311.9609,137,1315.9609,147,1319.9609" style="stroke:#202020;stroke-width:1.0;"/><line style="stroke:#202020;stroke-width:1.0;stroke-dasharray:2.0,2.0;" x1="141" x2="359" y1="1315.9609" y2="1315.9609"/><text fill="#000000" font-family="Inter" font-size="13" font-weight="bold" lengthAdjust="spacing" textLength="18" x="177.5" y="1329.0278">24</text><text fill="#000000" font-family="Inter" font-size="13" lengthAdjust="spacing" textLength="47" x="199.5" y="1329.0278">Signing</text><text fill="#000000" font-family="Inter" font-size="13" lengthAdjust="spacing" textLength="4" x="246.5" y="1329.0278">&#160;</text><text fill="#000000" font-family="Inter" font-size="13" lengthAdjust="spacing" textLength="68" x="250.5" y="1329.0278">completed</text></g></svg>