<?xml version='1.0' encoding='UTF-8'?>
<svg width="61mm" height="61mm" version="1.1" viewBox="0 0 61 61" xmlns="http://www.w3.org/2000/svg"><path d="M4,4H5V5H4zM5,4H6V5H5zM6,4H7V5H6zM7,4H8V5H7zM8,4H9V5H8zM9,4H10V5H9zM10,4H11V5H10zM12,4H13V5H12zM20,4H21V5H20zM21,4H22V5H21zM22,4H23V5H22zM25,4H26V5H25zM27,4H28V5H27zM28,4H29V5H28zM31,4H32V5H31zM32,4H33V5H32zM33,4H34V5H33zM34,4H35V5H34zM35,4H36V5H35zM36,4H37V5H36zM40,4H41V5H40zM41,4H42V5H41zM44,4H45V5H44zM45,4H46V5H45zM46,4H47V5H46zM50,4H51V5H50zM51,4H52V5H51zM52,4H53V5H52zM53,4H54V5H53zM54,4H55V5H54zM55,4H56V5H55zM56,4H57V5H56zM4,5H5V6H4zM10,5H11V6H10zM13,5H14V6H13zM14,5H15V6H14zM17,5H18V6H17zM18,5H19V6H18zM20,5H21V6H20zM23,5H24V6H23zM24,5H25V6H24zM25,5H26V6H25zM26,5H27V6H26zM28,5H29V6H28zM31,5H32V6H31zM33,5H34V6H33zM34,5H35V6H34zM36,5H37V6H36zM38,5H39V6H38zM39,5H40V6H39zM43,5H44V6H43zM44,5H45V6H44zM45,5H46V6H45zM46,5H47V6H46zM47,5H48V6H47zM50,5H51V6H50zM56,5H57V6H56zM4,6H5V7H4zM6,6H7V7H6zM7,6H8V7H7zM8,6H9V7H8zM10,6H11V7H10zM12,6H13V7H12zM13,6H14V7H13zM14,6H15V7H14zM16,6H17V7H16zM17,6H18V7H17zM18,6H19V7H18zM19,6H20V7H19zM21,6H22V7H21zM22,6H23V7H22zM23,6H24V7H23zM27,6H28V7H27zM31,6H32V7H31zM33,6H34V7H33zM35,6H36V7H35zM39,6H40V7H39zM40,6H41V7H40zM41,6H42V7H41zM42,6H43V7H42zM47,6H48V7H47zM50,6H51V7H50zM52,6H53V7H52zM53,6H54V7H53zM54,6H55V7H54zM56,6H57V7H56zM4,7H5V8H4zM6,7H7V8H6zM7,7H8V8H7zM8,7H9V8H8zM10,7H11V8H10zM12,7H13V8H12zM14,7H15V8H14zM17,7H18V8H17zM19,7H20V8H19zM20,7H21V8H20zM21,7H22V8H21zM22,7H23V8H22zM23,7H24V8H23zM24,7H25V8H24zM25,7H26V8H25zM31,7H32V8H31zM33,7H34V8H33zM34,7H35V8H34zM35,7H36V8H35zM37,7H38V8H37zM40,7H41V8H40zM45,7H46V8H45zM46,7H47V8H46zM48,7H49V8H48zM50,7H51V8H50zM52,7H53V8H52zM53,7H54V8H53zM54,7H55V8H54zM56,7H57V8H56zM4,8H5V9H4zM6,8H7V9H6zM7,8H8V9H7zM8,8H9V9H8zM10,8H11V9H10zM12,8H13V9H12zM15,8H16V9H15zM17,8H18V9H17zM21,8H22V9H21zM22,8H23V9H22zM23,8H24V9H23zM24,8H25V9H24zM25,8H26V9H25zM26,8H27V9H26zM28,8H29V9H28zM29,8H30V9H29zM30,8H31V9H30zM31,8H32V9H31zM32,8H33V9H32zM35,8H36V9H35zM37,8H38V9H37zM39,8H40V9H39zM41,8H42V9H41zM42,8H43V9H42zM46,8H47V9H46zM50,8H51V9H50zM52,8H53V9H52zM53,8H54V9H53zM54,8H55V9H54zM56,8H57V9H56zM4,9H5V10H4zM10,9H11V10H10zM15,9H16V10H15zM17,9H18V10H17zM21,9H22V10H21zM22,9H23V10H22zM23,9H24V10H23zM28,9H29V10H28zM32,9H33V10H32zM33,9H34V10H33zM38,9H39V10H38zM39,9H40V10H39zM41,9H42V10H41zM43,9H44V10H43zM44,9H45V10H44zM46,9H47V10H46zM50,9H51V10H50zM56,9H57V10H56zM4,10H5V11H4zM5,10H6V11H5zM6,10H7V11H6zM7,10H8V11H7zM8,10H9V11H8zM9,10H10V11H9zM10,10H11V11H10zM12,10H13V11H12zM14,10H15V11H14zM16,10H17V11H16zM18,10H19V11H18zM20,10H21V11H20zM22,10H23V11H22zM24,10H25V11H24zM26,10H27V11H26zM28,10H29V11H28zM30,10H31V11H30zM32,10H33V11H32zM34,10H35V11H34zM36,10H37V11H36zM38,10H39V11H38zM40,10H41V11H40zM42,10H43V11H42zM44,10H45V11H44zM46,10H47V11H46zM48,10H49V11H48zM50,10H51V11H50zM51,10H52V11H51zM52,10H53V11H52zM53,10H54V11H53zM54,10H55V11H54zM55,10H56V11H55zM56,10H57V11H56zM17,11H18V12H17zM18,11H19V12H18zM21,11H22V12H21zM22,11H23V12H22zM24,11H25V12H24zM25,11H26V12H25zM28,11H29V12H28zM32,11H33V12H32zM35,11H36V12H35zM36,11H37V12H36zM37,11H38V12H37zM40,11H41V12H40zM41,11H42V12H41zM42,11H43V12H42zM43,11H44V12H43zM44,11H45V12H44zM46,11H47V12H46zM47,11H48V12H47zM48,11H49V12H48zM4,12H5V13H4zM5,12H6V13H5zM6,12H7V13H6zM7,12H8V13H7zM10,12H11V13H10zM12,12H13V13H12zM13,12H14V13H13zM14,12H15V13H14zM15,12H16V13H15zM16,12H17V13H16zM17,12H18V13H17zM19,12H20V13H19zM20,12H21V13H20zM21,12H22V13H21zM22,12H23V13H22zM23,12H24V13H23zM26,12H27V13H26zM28,12H29V13H28zM29,12H30V13H29zM30,12H31V13H30zM31,12H32V13H31zM32,12H33V13H32zM33,12H34V13H33zM37,12H38V13H37zM38,12H39V13H38zM39,12H40V13H39zM41,12H42V13H41zM44,12H45V13H44zM45,12H46V13H45zM46,12H47V13H46zM47,12H48V13H47zM48,12H49V13H48zM49,12H50V13H49zM52,12H53V13H52zM53,12H54V13H53zM54,12H55V13H54zM56,12H57V13H56zM4,13H5V14H4zM5,13H6V14H5zM6,13H7V14H6zM8,13H9V14H8zM9,13H10V14H9zM11,13H12V14H11zM15,13H16V14H15zM17,13H18V14H17zM19,13H20V14H19zM22,13H23V14H22zM23,13H24V14H23zM24,13H25V14H24zM25,13H26V14H25zM27,13H28V14H27zM28,13H29V14H28zM29,13H30V14H29zM32,13H33V14H32zM33,13H34V14H33zM34,13H35V14H34zM37,13H38V14H37zM39,13H40V14H39zM40,13H41V14H40zM41,13H42V14H41zM44,13H45V14H44zM45,13H46V14H45zM46,13H47V14H46zM52,13H53V14H52zM56,13H57V14H56zM5,14H6V15H5zM6,14H7V15H6zM7,14H8V15H7zM10,14H11V15H10zM12,14H13V15H12zM14,14H15V15H14zM15,14H16V15H15zM16,14H17V15H16zM18,14H19V15H18zM19,14H20V15H19zM25,14H26V15H25zM26,14H27V15H26zM28,14H29V15H28zM29,14H30V15H29zM30,14H31V15H30zM31,14H32V15H31zM33,14H34V15H33zM34,14H35V15H34zM35,14H36V15H35zM36,14H37V15H36zM37,14H38V15H37zM38,14H39V15H38zM39,14H40V15H39zM40,14H41V15H40zM44,14H45V15H44zM45,14H46V15H45zM46,14H47V15H46zM47,14H48V15H47zM48,14H49V15H48zM50,14H51V15H50zM51,14H52V15H51zM52,14H53V15H52zM54,14H55V15H54zM55,14H56V15H55zM4,15H5V16H4zM6,15H7V16H6zM7,15H8V16H7zM9,15H10V16H9zM12,15H13V16H12zM14,15H15V16H14zM15,15H16V16H15zM18,15H19V16H18zM20,15H21V16H20zM24,15H25V16H24zM25,15H26V16H25zM26,15H27V16H26zM36,15H37V16H36zM38,15H39V16H38zM39,15H40V16H39zM41,15H42V16H41zM43,15H44V16H43zM45,15H46V16H45zM46,15H47V16H46zM48,15H49V16H48zM50,15H51V16H50zM51,15H52V16H51zM52,15H53V16H52zM56,15H57V16H56zM5,16H6V17H5zM6,16H7V17H6zM7,16H8V17H7zM10,16H11V17H10zM12,16H13V17H12zM13,16H14V17H13zM14,16H15V17H14zM17,16H18V17H17zM20,16H21V17H20zM22,16H23V17H22zM23,16H24V17H23zM24,16H25V17H24zM28,16H29V17H28zM29,16H30V17H29zM30,16H31V17H30zM34,16H35V17H34zM38,16H39V17H38zM39,16H40V17H39zM40,16H41V17H40zM41,16H42V17H41zM42,16H43V17H42zM46,16H47V17H46zM48,16H49V17H48zM49,16H50V17H49zM50,16H51V17H50zM51,16H52V17H51zM52,16H53V17H52zM54,16H55V17H54zM55,16H56V17H55zM5,17H6V18H5zM8,17H9V18H8zM9,17H10V18H9zM12,17H13V18H12zM13,17H14V18H13zM14,17H15V18H14zM15,17H16V18H15zM16,17H17V18H16zM19,17H20V18H19zM21,17H22V18H21zM22,17H23V18H22zM24,17H25V18H24zM25,17H26V18H25zM26,17H27V18H26zM27,17H28V18H27zM28,17H29V18H28zM29,17H30V18H29zM30,17H31V18H30zM31,17H32V18H31zM32,17H33V18H32zM35,17H36V18H35zM36,17H37V18H36zM37,17H38V18H37zM40,17H41V18H40zM41,17H42V18H41zM42,17H43V18H42zM43,17H44V18H43zM48,17H49V18H48zM49,17H50V18H49zM54,17H55V18H54zM55,17H56V18H55zM56,17H57V18H56zM6,18H7V19H6zM7,18H8V19H7zM9,18H10V19H9zM10,18H11V19H10zM11,18H12V19H11zM12,18H13V19H12zM14,18H15V19H14zM15,18H16V19H15zM18,18H19V19H18zM19,18H20V19H19zM24,18H25V19H24zM25,18H26V19H25zM28,18H29V19H28zM31,18H32V19H31zM32,18H33V19H32zM34,18H35V19H34zM35,18H36V19H35zM37,18H38V19H37zM39,18H40V19H39zM40,18H41V19H40zM41,18H42V19H41zM42,18H43V19H42zM43,18H44V19H43zM44,18H45V19H44zM46,18H47V19H46zM47,18H48V19H47zM49,18H50V19H49zM51,18H52V19H51zM54,18H55V19H54zM55,18H56V19H55zM56,18H57V19H56zM4,19H5V20H4zM5,19H6V20H5zM7,19H8V20H7zM8,19H9V20H8zM11,19H12V20H11zM14,19H15V20H14zM18,19H19V20H18zM19,19H20V20H19zM21,19H22V20H21zM22,19H23V20H22zM23,19H24V20H23zM25,19H26V20H25zM26,19H27V20H26zM27,19H28V20H27zM28,19H29V20H28zM29,19H30V20H29zM31,19H32V20H31zM32,19H33V20H32zM34,19H35V20H34zM36,19H37V20H36zM38,19H39V20H38zM39,19H40V20H39zM41,19H42V20H41zM43,19H44V20H43zM44,19H45V20H44zM45,19H46V20H45zM46,19H47V20H46zM49,19H50V20H49zM51,19H52V20H51zM7,20H8V21H7zM8,20H9V21H8zM10,20H11V21H10zM11,20H12V21H11zM12,20H13V21H12zM17,20H18V21H17zM21,20H22V21H21zM23,20H24V21H23zM24,20H25V21H24zM25,20H26V21H25zM26,20H27V21H26zM28,20H29V21H28zM29,20H30V21H29zM31,20H32V21H31zM34,20H35V21H34zM35,20H36V21H35zM36,20H37V21H36zM37,20H38V21H37zM41,20H42V21H41zM42,20H43V21H42zM43,20H44V21H43zM45,20H46V21H45zM49,20H50V21H49zM53,20H54V21H53zM56,20H57V21H56zM4,21H5V22H4zM5,21H6V22H5zM8,21H9V22H8zM12,21H13V22H12zM14,21H15V22H14zM17,21H18V22H17zM19,21H20V22H19zM21,21H22V22H21zM23,21H24V22H23zM26,21H27V22H26zM28,21H29V22H28zM29,21H30V22H29zM31,21H32V22H31zM32,21H33V22H32zM33,21H34V22H33zM37,21H38V22H37zM38,21H39V22H38zM45,21H46V22H45zM49,21H50V22H49zM50,21H51V22H50zM51,21H52V22H51zM55,21H56V22H55zM4,22H5V23H4zM6,22H7V23H6zM8,22H9V23H8zM9,22H10V23H9zM10,22H11V23H10zM12,22H13V23H12zM15,22H16V23H15zM17,22H18V23H17zM19,22H20V23H19zM20,22H21V23H20zM21,22H22V23H21zM23,22H24V23H23zM27,22H28V23H27zM29,22H30V23H29zM30,22H31V23H30zM35,22H36V23H35zM39,22H40V23H39zM40,22H41V23H40zM41,22H42V23H41zM42,22H43V23H42zM44,22H45V23H44zM47,22H48V23H47zM48,22H49V23H48zM49,22H50V23H49zM50,22H51V23H50zM51,22H52V23H51zM52,22H53V23H52zM53,22H54V23H53zM9,23H10V24H9zM11,23H12V24H11zM13,23H14V24H13zM14,23H15V24H14zM17,23H18V24H17zM18,23H19V24H18zM19,23H20V24H19zM20,23H21V24H20zM24,23H25V24H24zM27,23H28V24H27zM29,23H30V24H29zM30,23H31V24H30zM31,23H32V24H31zM34,23H35V24H34zM35,23H36V24H35zM38,23H39V24H38zM39,23H40V24H39zM41,23H42V24H41zM43,23H44V24H43zM44,23H45V24H44zM45,23H46V24H45zM47,23H48V24H47zM51,23H52V24H51zM52,23H53V24H52zM54,23H55V24H54zM4,24H5V25H4zM5,24H6V25H5zM6,24H7V25H6zM8,24H9V25H8zM10,24H11V25H10zM12,24H13V25H12zM15,24H16V25H15zM16,24H17V25H16zM19,24H20V25H19zM20,24H21V25H20zM21,24H22V25H21zM24,24H25V25H24zM25,24H26V25H25zM26,24H27V25H26zM30,24H31V25H30zM32,24H33V25H32zM33,24H34V25H33zM38,24H39V25H38zM39,24H40V25H39zM42,24H43V25H42zM43,24H44V25H43zM44,24H45V25H44zM45,24H46V25H45zM48,24H49V25H48zM49,24H50V25H49zM51,24H52V25H51zM54,24H55V25H54zM55,24H56V25H55zM56,24H57V25H56zM4,25H5V26H4zM6,25H7V26H6zM7,25H8V26H7zM8,25H9V26H8zM11,25H12V26H11zM12,25H13V26H12zM15,25H16V26H15zM17,25H18V26H17zM18,25H19V26H18zM23,25H24V26H23zM26,25H27V26H26zM29,25H30V26H29zM31,25H32V26H31zM32,25H33V26H32zM33,25H34V26H33zM34,25H35V26H34zM35,25H36V26H35zM40,25H41V26H40zM41,25H42V26H41zM45,25H46V26H45zM46,25H47V26H46zM54,25H55V26H54zM56,25H57V26H56zM4,26H5V27H4zM5,26H6V27H5zM6,26H7V27H6zM7,26H8V27H7zM10,26H11V27H10zM11,26H12V27H11zM12,26H13V27H12zM14,26H15V27H14zM15,26H16V27H15zM16,26H17V27H16zM18,26H19V27H18zM19,26H20V27H19zM22,26H23V27H22zM23,26H24V27H23zM27,26H28V27H27zM28,26H29V27H28zM29,26H30V27H29zM33,26H34V27H33zM36,26H37V27H36zM39,26H40V27H39zM40,26H41V27H40zM45,26H46V27H45zM46,26H47V27H46zM50,26H51V27H50zM55,26H56V27H55zM4,27H5V28H4zM5,27H6V28H5zM6,27H7V28H6zM7,27H8V28H7zM8,27H9V28H8zM11,27H12V28H11zM12,27H13V28H12zM15,27H16V28H15zM16,27H17V28H16zM19,27H20V28H19zM22,27H23V28H22zM23,27H24V28H23zM25,27H26V28H25zM26,27H27V28H26zM27,27H28V28H27zM33,27H34V28H33zM34,27H35V28H34zM35,27H36V28H35zM36,27H37V28H36zM38,27H39V28H38zM39,27H40V28H39zM45,27H46V28H45zM48,27H49V28H48zM49,27H50V28H49zM52,27H53V28H52zM53,27H54V28H53zM56,27H57V28H56zM4,28H5V29H4zM7,28H8V29H7zM8,28H9V29H8zM9,28H10V29H9zM10,28H11V29H10zM11,28H12V29H11zM12,28H13V29H12zM13,28H14V29H13zM14,28H15V29H14zM15,28H16V29H15zM21,28H22V29H21zM25,28H26V29H25zM27,28H28V29H27zM28,28H29V29H28zM29,28H30V29H29zM30,28H31V29H30zM31,28H32V29H31zM32,28H33V29H32zM33,28H34V29H33zM35,28H36V29H35zM39,28H40V29H39zM40,28H41V29H40zM42,28H43V29H42zM45,28H46V29H45zM46,28H47V29H46zM48,28H49V29H48zM49,28H50V29H49zM50,28H51V29H50zM51,28H52V29H51zM52,28H53V29H52zM54,28H55V29H54zM4,29H5V30H4zM8,29H9V30H8zM12,29H13V30H12zM15,29H16V30H15zM17,29H18V30H17zM18,29H19V30H18zM21,29H22V30H21zM23,29H24V30H23zM25,29H26V30H25zM28,29H29V30H28zM32,29H33V30H32zM35,29H36V30H35zM37,29H38V30H37zM40,29H41V30H40zM41,29H42V30H41zM42,29H43V30H42zM43,29H44V30H43zM47,29H48V30H47zM48,29H49V30H48zM52,29H53V30H52zM53,29H54V30H53zM55,29H56V30H55zM56,29H57V30H56zM4,30H5V31H4zM5,30H6V31H5zM6,30H7V31H6zM7,30H8V31H7zM8,30H9V31H8zM10,30H11V31H10zM12,30H13V31H12zM17,30H18V31H17zM19,30H20V31H19zM20,30H21V31H20zM21,30H22V31H21zM23,30H24V31H23zM24,30H25V31H24zM25,30H26V31H25zM26,30H27V31H26zM27,30H28V31H27zM28,30H29V31H28zM30,30H31V31H30zM32,30H33V31H32zM34,30H35V31H34zM35,30H36V31H35zM37,30H38V31H37zM38,30H39V31H38zM40,30H41V31H40zM41,30H42V31H41zM42,30H43V31H42zM45,30H46V31H45zM46,30H47V31H46zM48,30H49V31H48zM50,30H51V31H50zM52,30H53V31H52zM55,30H56V31H55zM56,30H57V31H56zM5,31H6V32H5zM8,31H9V32H8zM12,31H13V32H12zM13,31H14V32H13zM14,31H15V32H14zM15,31H16V32H15zM17,31H18V32H17zM18,31H19V32H18zM19,31H20V32H19zM21,31H22V32H21zM22,31H23V32H22zM23,31H24V32H23zM24,31H25V32H24zM26,31H27V32H26zM27,31H28V32H27zM28,31H29V32H28zM32,31H33V32H32zM34,31H35V32H34zM35,31H36V32H35zM36,31H37V32H36zM39,31H40V32H39zM41,31H42V32H41zM43,31H44V32H43zM44,31H45V32H44zM45,31H46V32H45zM48,31H49V32H48zM52,31H53V32H52zM53,31H54V32H53zM55,31H56V32H55zM4,32H5V33H4zM5,32H6V33H5zM6,32H7V33H6zM8,32H9V33H8zM9,32H10V33H9zM10,32H11V33H10zM11,32H12V33H11zM12,32H13V33H12zM13,32H14V33H13zM14,32H15V33H14zM15,32H16V33H15zM17,32H18V33H17zM18,32H19V33H18zM20,32H21V33H20zM21,32H22V33H21zM28,32H29V33H28zM29,32H30V33H29zM30,32H31V33H30zM31,32H32V33H31zM32,32H33V33H32zM34,32H35V33H34zM36,32H37V33H36zM37,32H38V33H37zM38,32H39V33H38zM39,32H40V33H39zM42,32H43V33H42zM43,32H44V33H43zM45,32H46V33H45zM46,32H47V33H46zM47,32H48V33H47zM48,32H49V33H48zM49,32H50V33H49zM50,32H51V33H50zM51,32H52V33H51zM52,32H53V33H52zM55,32H56V33H55zM4,33H5V34H4zM5,33H6V34H5zM7,33H8V34H7zM13,33H14V34H13zM18,33H19V34H18zM20,33H21V34H20zM21,33H22V34H21zM22,33H23V34H22zM25,33H26V34H25zM28,33H29V34H28zM29,33H30V34H29zM32,33H33V34H32zM33,33H34V34H33zM37,33H38V34H37zM38,33H39V34H38zM39,33H40V34H39zM40,33H41V34H40zM45,33H46V34H45zM49,33H50V34H49zM50,33H51V34H50zM51,33H52V34H51zM54,33H55V34H54zM55,33H56V34H55zM56,33H57V34H56zM5,34H6V35H5zM6,34H7V35H6zM10,34H11V35H10zM12,34H13V35H12zM14,34H15V35H14zM16,34H17V35H16zM17,34H18V35H17zM18,34H19V35H18zM19,34H20V35H19zM20,34H21V35H20zM22,34H23V35H22zM23,34H24V35H23zM26,34H27V35H26zM31,34H32V35H31zM35,34H36V35H35zM36,34H37V35H36zM39,34H40V35H39zM40,34H41V35H40zM42,34H43V35H42zM53,34H54V35H53zM54,34H55V35H54zM4,35H5V36H4zM6,35H7V36H6zM8,35H9V36H8zM11,35H12V36H11zM12,35H13V36H12zM13,35H14V36H13zM15,35H16V36H15zM19,35H20V36H19zM24,35H25V36H24zM26,35H27V36H26zM27,35H28V36H27zM29,35H30V36H29zM31,35H32V36H31zM34,35H35V36H34zM35,35H36V36H35zM39,35H40V36H39zM40,35H41V36H40zM44,35H45V36H44zM47,35H48V36H47zM48,35H49V36H48zM49,35H50V36H49zM50,35H51V36H50zM52,35H53V36H52zM54,35H55V36H54zM56,35H57V36H56zM4,36H5V37H4zM7,36H8V37H7zM10,36H11V37H10zM12,36H13V37H12zM14,36H15V37H14zM18,36H19V37H18zM20,36H21V37H20zM25,36H26V37H25zM32,36H33V37H32zM34,36H35V37H34zM39,36H40V37H39zM43,36H44V37H43zM44,36H45V37H44zM46,36H47V37H46zM47,36H48V37H47zM48,36H49V37H48zM51,36H52V37H51zM52,36H53V37H52zM53,36H54V37H53zM54,36H55V37H54zM55,36H56V37H55zM4,37H5V38H4zM5,37H6V38H5zM8,37H9V38H8zM9,37H10V38H9zM11,37H12V38H11zM12,37H13V38H12zM13,37H14V38H13zM20,37H21V38H20zM21,37H22V38H21zM22,37H23V38H22zM25,37H26V38H25zM27,37H28V38H27zM30,37H31V38H30zM31,37H32V38H31zM33,37H34V38H33zM34,37H35V38H34zM37,37H38V38H37zM41,37H42V38H41zM43,37H44V38H43zM45,37H46V38H45zM46,37H47V38H46zM51,37H52V38H51zM52,37H53V38H52zM56,37H57V38H56zM4,38H5V39H4zM10,38H11V39H10zM11,38H12V39H11zM13,38H14V39H13zM14,38H15V39H14zM15,38H16V39H15zM16,38H17V39H16zM18,38H19V39H18zM20,38H21V39H20zM21,38H22V39H21zM22,38H23V39H22zM23,38H24V39H23zM24,38H25V39H24zM27,38H28V39H27zM29,38H30V39H29zM31,38H32V39H31zM32,38H33V39H32zM33,38H34V39H33zM34,38H35V39H34zM36,38H37V39H36zM38,38H39V39H38zM40,38H41V39H40zM43,38H44V39H43zM44,38H45V39H44zM45,38H46V39H45zM46,38H47V39H46zM48,38H49V39H48zM49,38H50V39H49zM51,38H52V39H51zM52,38H53V39H52zM53,38H54V39H53zM54,38H55V39H54zM55,38H56V39H55zM4,39H5V40H4zM6,39H7V40H6zM9,39H10V40H9zM12,39H13V40H12zM15,39H16V40H15zM16,39H17V40H16zM18,39H19V40H18zM19,39H20V40H19zM21,39H22V40H21zM23,39H24V40H23zM25,39H26V40H25zM26,39H27V40H26zM28,39H29V40H28zM32,39H33V40H32zM35,39H36V40H35zM37,39H38V40H37zM38,39H39V40H38zM39,39H40V40H39zM40,39H41V40H40zM45,39H46V40H45zM48,39H49V40H48zM51,39H52V40H51zM56,39H57V40H56zM9,40H10V41H9zM10,40H11V41H10zM16,40H17V41H16zM17,40H18V41H17zM21,40H22V41H21zM22,40H23V41H22zM29,40H30V41H29zM31,40H32V41H31zM32,40H33V41H32zM33,40H34V41H33zM34,40H35V41H34zM35,40H36V41H35zM40,40H41V41H40zM41,40H42V41H41zM43,40H44V41H43zM45,40H46V41H45zM49,40H50V41H49zM53,40H54V41H53zM54,40H55V41H54zM55,40H56V41H55zM56,40H57V41H56zM6,41H7V42H6zM7,41H8V42H7zM8,41H9V42H8zM12,41H13V42H12zM15,41H16V42H15zM16,41H17V42H16zM19,41H20V42H19zM21,41H22V42H21zM23,41H24V42H23zM24,41H25V42H24zM26,41H27V42H26zM29,41H30V42H29zM35,41H36V42H35zM37,41H38V42H37zM42,41H43V42H42zM43,41H44V42H43zM44,41H45V42H44zM45,41H46V42H45zM47,41H48V42H47zM51,41H52V42H51zM53,41H54V42H53zM56,41H57V42H56zM4,42H5V43H4zM8,42H9V43H8zM10,42H11V43H10zM11,42H12V43H11zM12,42H13V43H12zM13,42H14V43H13zM14,42H15V43H14zM15,42H16V43H15zM17,42H18V43H17zM20,42H21V43H20zM21,42H22V43H21zM22,42H23V43H22zM23,42H24V43H23zM24,42H25V43H24zM26,42H27V43H26zM28,42H29V43H28zM29,42H30V43H29zM30,42H31V43H30zM31,42H32V43H31zM34,42H35V43H34zM35,42H36V43H35zM38,42H39V43H38zM39,42H40V43H39zM42,42H43V43H42zM43,42H44V43H43zM44,42H45V43H44zM45,42H46V43H45zM46,42H47V43H46zM48,42H49V43H48zM49,42H50V43H49zM50,42H51V43H50zM51,42H52V43H51zM52,42H53V43H52zM54,42H55V43H54zM55,42H56V43H55zM56,42H57V43H56zM5,43H6V44H5zM8,43H9V44H8zM9,43H10V44H9zM14,43H15V44H14zM15,43H16V44H15zM16,43H17V44H16zM17,43H18V44H17zM19,43H20V44H19zM20,43H21V44H20zM23,43H24V44H23zM24,43H25V44H24zM28,43H29V44H28zM29,43H30V44H29zM31,43H32V44H31zM33,43H34V44H33zM34,43H35V44H34zM35,43H36V44H35zM36,43H37V44H36zM43,43H44V44H43zM44,43H45V44H44zM47,43H48V44H47zM49,43H50V44H49zM50,43H51V44H50zM51,43H52V44H51zM52,43H53V44H52zM53,43H54V44H53zM56,43H57V44H56zM4,44H5V45H4zM6,44H7V45H6zM7,44H8V45H7zM9,44H10V45H9zM10,44H11V45H10zM11,44H12V45H11zM12,44H13V45H12zM14,44H15V45H14zM16,44H17V45H16zM18,44H19V45H18zM19,44H20V45H19zM22,44H23V45H22zM24,44H25V45H24zM27,44H28V45H27zM28,44H29V45H28zM29,44H30V45H29zM30,44H31V45H30zM33,44H34V45H33zM35,44H36V45H35zM36,44H37V45H36zM38,44H39V45H38zM41,44H42V45H41zM43,44H44V45H43zM49,44H50V45H49zM50,44H51V45H50zM51,44H52V45H51zM52,44H53V45H52zM53,44H54V45H53zM55,44H56V45H55zM56,44H57V45H56zM4,45H5V46H4zM5,45H6V46H5zM6,45H7V46H6zM7,45H8V46H7zM8,45H9V46H8zM12,45H13V46H12zM15,45H16V46H15zM20,45H21V46H20zM24,45H25V46H24zM25,45H26V46H25zM26,45H27V46H26zM28,45H29V46H28zM29,45H30V46H29zM30,45H31V46H30zM33,45H34V46H33zM37,45H38V46H37zM38,45H39V46H38zM39,45H40V46H39zM43,45H44V46H43zM44,45H45V46H44zM45,45H46V46H45zM47,45H48V46H47zM48,45H49V46H48zM49,45H50V46H49zM4,46H5V47H4zM5,46H6V47H5zM7,46H8V47H7zM8,46H9V47H8zM9,46H10V47H9zM10,46H11V47H10zM11,46H12V47H11zM12,46H13V47H12zM14,46H15V47H14zM16,46H17V47H16zM17,46H18V47H17zM18,46H19V47H18zM21,46H22V47H21zM24,46H25V47H24zM25,46H26V47H25zM26,46H27V47H26zM28,46H29V47H28zM32,46H33V47H32zM33,46H34V47H33zM37,46H38V47H37zM38,46H39V47H38zM42,46H43V47H42zM44,46H45V47H44zM47,46H48V47H47zM52,46H53V47H52zM53,46H54V47H53zM5,47H6V48H5zM6,47H7V48H6zM11,47H12V48H11zM13,47H14V48H13zM14,47H15V48H14zM22,47H23V48H22zM23,47H24V48H23zM28,47H29V48H28zM29,47H30V48H29zM35,47H36V48H35zM37,47H38V48H37zM41,47H42V48H41zM44,47H45V48H44zM46,47H47V48H46zM47,47H48V48H47zM48,47H49V48H48zM50,47H51V48H50zM51,47H52V48H51zM52,47H53V48H52zM53,47H54V48H53zM54,47H55V48H54zM7,48H8V49H7zM10,48H11V49H10zM14,48H15V49H14zM17,48H18V49H17zM19,48H20V49H19zM20,48H21V49H20zM21,48H22V49H21zM23,48H24V49H23zM25,48H26V49H25zM26,48H27V49H26zM27,48H28V49H27zM28,48H29V49H28zM29,48H30V49H29zM30,48H31V49H30zM31,48H32V49H31zM32,48H33V49H32zM34,48H35V49H34zM35,48H36V49H35zM38,48H39V49H38zM39,48H40V49H39zM43,48H44V49H43zM44,48H45V49H44zM45,48H46V49H45zM47,48H48V49H47zM48,48H49V49H48zM49,48H50V49H49zM50,48H51V49H50zM51,48H52V49H51zM52,48H53V49H52zM54,48H55V49H54zM12,49H13V50H12zM13,49H14V50H13zM14,49H15V50H14zM16,49H17V50H16zM17,49H18V50H17zM18,49H19V50H18zM23,49H24V50H23zM25,49H26V50H25zM27,49H28V50H27zM28,49H29V50H28zM32,49H33V50H32zM33,49H34V50H33zM34,49H35V50H34zM35,49H36V50H35zM39,49H40V50H39zM40,49H41V50H40zM41,49H42V50H41zM43,49H44V50H43zM44,49H45V50H44zM45,49H46V50H45zM46,49H47V50H46zM47,49H48V50H47zM48,49H49V50H48zM52,49H53V50H52zM53,49H54V50H53zM55,49H56V50H55zM56,49H57V50H56zM4,50H5V51H4zM5,50H6V51H5zM6,50H7V51H6zM7,50H8V51H7zM8,50H9V51H8zM9,50H10V51H9zM10,50H11V51H10zM13,50H14V51H13zM14,50H15V51H14zM15,50H16V51H15zM16,50H17V51H16zM18,50H19V51H18zM21,50H22V51H21zM23,50H24V51H23zM25,50H26V51H25zM26,50H27V51H26zM28,50H29V51H28zM30,50H31V51H30zM32,50H33V51H32zM39,50H40V51H39zM42,50H43V51H42zM43,50H44V51H43zM44,50H45V51H44zM45,50H46V51H45zM46,50H47V51H46zM48,50H49V51H48zM50,50H51V51H50zM52,50H53V51H52zM53,50H54V51H53zM55,50H56V51H55zM4,51H5V52H4zM10,51H11V52H10zM14,51H15V52H14zM15,51H16V52H15zM16,51H17V52H16zM19,51H20V52H19zM21,51H22V52H21zM27,51H28V52H27zM28,51H29V52H28zM32,51H33V52H32zM35,51H36V52H35zM36,51H37V52H36zM37,51H38V52H37zM38,51H39V52H38zM40,51H41V52H40zM48,51H49V52H48zM52,51H53V52H52zM55,51H56V52H55zM56,51H57V52H56zM4,52H5V53H4zM6,52H7V53H6zM7,52H8V53H7zM8,52H9V53H8zM10,52H11V53H10zM13,52H14V53H13zM19,52H20V53H19zM22,52H23V53H22zM23,52H24V53H23zM26,52H27V53H26zM28,52H29V53H28zM29,52H30V53H29zM30,52H31V53H30zM31,52H32V53H31zM32,52H33V53H32zM33,52H34V53H33zM35,52H36V53H35zM39,52H40V53H39zM40,52H41V53H40zM41,52H42V53H41zM43,52H44V53H43zM45,52H46V53H45zM48,52H49V53H48zM49,52H50V53H49zM50,52H51V53H50zM51,52H52V53H51zM52,52H53V53H52zM53,52H54V53H53zM54,52H55V53H54zM55,52H56V53H55zM56,52H57V53H56zM4,53H5V54H4zM6,53H7V54H6zM7,53H8V54H7zM8,53H9V54H8zM10,53H11V54H10zM12,53H13V54H12zM14,53H15V54H14zM15,53H16V54H15zM16,53H17V54H16zM18,53H19V54H18zM19,53H20V54H19zM20,53H21V54H20zM24,53H25V54H24zM28,53H29V54H28zM29,53H30V54H29zM30,53H31V54H30zM31,53H32V54H31zM33,53H34V54H33zM36,53H37V54H36zM37,53H38V54H37zM39,53H40V54H39zM41,53H42V54H41zM42,53H43V54H42zM43,53H44V54H43zM47,53H48V54H47zM49,53H50V54H49zM50,53H51V54H50zM52,53H53V54H52zM53,53H54V54H53zM54,53H55V54H54zM4,54H5V55H4zM6,54H7V55H6zM7,54H8V55H7zM8,54H9V55H8zM10,54H11V55H10zM12,54H13V55H12zM13,54H14V55H13zM17,54H18V55H17zM25,54H26V55H25zM31,54H32V55H31zM33,54H34V55H33zM34,54H35V55H34zM36,54H37V55H36zM39,54H40V55H39zM40,54H41V55H40zM41,54H42V55H41zM43,54H44V55H43zM44,54H45V55H44zM46,54H47V55H46zM47,54H48V55H47zM50,54H51V55H50zM51,54H52V55H51zM53,54H54V55H53zM55,54H56V55H55zM4,55H5V56H4zM10,55H11V56H10zM12,55H13V56H12zM14,55H15V56H14zM15,55H16V56H15zM16,55H17V56H16zM20,55H21V56H20zM21,55H22V56H21zM22,55H23V56H22zM26,55H27V56H26zM29,55H30V56H29zM30,55H31V56H30zM32,55H33V56H32zM33,55H34V56H33zM34,55H35V56H34zM35,55H36V56H35zM36,55H37V56H36zM38,55H39V56H38zM39,55H40V56H39zM40,55H41V56H40zM41,55H42V56H41zM42,55H43V56H42zM43,55H44V56H43zM44,55H45V56H44zM45,55H46V56H45zM46,55H47V56H46zM48,55H49V56H48zM51,55H52V56H51zM53,55H54V56H53zM55,55H56V56H55zM4,56H5V57H4zM5,56H6V57H5zM6,56H7V57H6zM7,56H8V57H7zM8,56H9V57H8zM9,56H10V57H9zM10,56H11V57H10zM12,56H13V57H12zM14,56H15V57H14zM16,56H17V57H16zM18,56H19V57H18zM20,56H21V57H20zM23,56H24V57H23zM24,56H25V57H24zM25,56H26V57H25zM29,56H30V57H29zM31,56H32V57H31zM33,56H34V57H33zM36,56H37V57H36zM37,56H38V57H37zM38,56H39V57H38zM41,56H42V57H41zM42,56H43V57H42zM43,56H44V57H43zM47,56H48V57H47zM50,56H51V57H50zM55,56H56V57H55z" id="qr-path" fill="#000000" fill-opacity="1" fill-rule="nonzero" stroke="none" /></svg>