<?xml version="1.0" encoding="us-ascii" standalone="no"?><svg xmlns="http://www.w3.org/2000/svg" xmlns:xlink="http://www.w3.org/1999/xlink" contentStyleType="text/css" height="248px" preserveAspectRatio="none" style="width:949px;height:248px;background:#FFFFFF;" version="1.1" viewBox="0 0 949 248" width="949px" zoomAndPan="magnify"><defs/><g><rect fill="#F1F1F1" height="36.2969" rx="12.5" ry="12.5" style="stroke:#181818;stroke-width:1.5;" width="212" x="10" y="105.1875"/><text fill="#000000" font-family="sans-serif" font-size="14" lengthAdjust="spacing" textLength="192" x="20" y="128.1826">Anonymous authentication?</text><text fill="#000000" font-family="sans-serif" font-size="14" font-weight="bold" lengthAdjust="spacing" textLength="28" x="275" y="51.1436">yes</text><rect fill="#F1F1F1" height="52.5938" rx="12.5" ry="12.5" style="stroke:#181818;stroke-width:1.5;" width="340" x="353" y="20"/><text fill="#000000" font-family="sans-serif" font-size="14" lengthAdjust="spacing" textLength="27" x="363" y="42.9951">Use</text><text fill="#000000" font-family="monospace" font-size="14" font-weight="bold" lengthAdjust="spacing" textLength="320" x="363" y="59.292">/v3/authentication/device-link/anonymous</text><path d="M303,46.2969 L313,46.2969 C328,46.2969 328,46.2969 343,46.2969 L353,46.2969 " fill="none" style="stroke:#181818;stroke-width:1.0;"/><path d="M222,123.3359 L232,123.3359 C247,123.3359 247,46.2969 262,46.2969 L272,46.2969 " fill="none" style="stroke:#181818;stroke-width:1.0;"/><text fill="#000000" font-family="sans-serif" font-size="14" font-weight="bold" lengthAdjust="spacing" textLength="20" x="275" y="164.4795">no</text><rect fill="#F1F1F1" height="134.0781" rx="12.5" ry="12.5" style="stroke:#181818;stroke-width:1.5;" width="592" x="345" y="92.5938"/><text fill="#000000" font-family="sans-serif" font-size="14" lengthAdjust="spacing" textLength="318" x="355" y="115.5889">For re-authentication use one of the following:</text><ellipse cx="360.5" cy="127.6875" fill="#000000" rx="2.5" ry="2.5" style="stroke:#000000;stroke-width:0.0;"/><text fill="#000000" font-family="monospace" font-size="14" font-weight="bold" lengthAdjust="spacing" textLength="456" x="367" y="131.8857">/v3/authentication/device-link/document/{document-number}</text><ellipse cx="360.5" cy="143.9844" fill="#000000" rx="2.5" ry="2.5" style="stroke:#000000;stroke-width:0.0;"/><text fill="#000000" font-family="monospace" font-size="14" font-weight="bold" lengthAdjust="spacing" textLength="464" x="367" y="148.1826">/v3/authentication/notification/document/{document-number}</text><text fill="#000000" font-family="sans-serif" font-size="14" lengthAdjust="spacing" textLength="4" x="355" y="164.4795">&#160;</text><text fill="#000000" font-family="sans-serif" font-size="14" lengthAdjust="spacing" textLength="244" x="355" y="180.7764">Otherwise use one of the following:</text><ellipse cx="360.5" cy="192.875" fill="#000000" rx="2.5" ry="2.5" style="stroke:#000000;stroke-width:0.0;"/><text fill="#000000" font-family="monospace" font-size="14" font-weight="bold" lengthAdjust="spacing" textLength="552" x="367" y="197.0732">/v3/authentication/device-link/etsi/{id-etsi-qcs-SemanticsId-Natural}</text><ellipse cx="360.5" cy="209.1719" fill="#000000" rx="2.5" ry="2.5" style="stroke:#000000;stroke-width:0.0;"/><text fill="#000000" font-family="monospace" font-size="14" font-weight="bold" lengthAdjust="spacing" textLength="560" x="367" y="213.3701">/v3/authentication/notification/etsi/{id-etsi-qcs-SemanticsId-Natural}</text><path d="M295,159.6328 L305,159.6328 C320,159.6328 320,159.6328 335,159.6328 L345,159.6328 " fill="none" style="stroke:#181818;stroke-width:1.0;"/><path d="M222,123.3359 L232,123.3359 C247,123.3359 247,159.6328 262,159.6328 L272,159.6328 " fill="none" style="stroke:#181818;stroke-width:1.0;"/></g></svg>