<?xml version="1.0" encoding="us-ascii" standalone="no"?><svg xmlns="http://www.w3.org/2000/svg" xmlns:xlink="http://www.w3.org/1999/xlink" contentStyleType="text/css" height="755px" preserveAspectRatio="none" style="width:926px;height:755px;" version="1.1" viewBox="0 0 926 755" width="926px" zoomAndPan="magnify"><defs/><g><text fill="#000000" font-family="Inter" font-size="14" font-weight="bold" lengthAdjust="spacing" textLength="304" x="313" y="27.9951">Notification based Linked Signing Flow</text><rect fill="#D2E4F4" height="366.9375" style="stroke:#989898;stroke-width:1.0;" width="10" x="63" y="372.9219"/><rect fill="#D2E4F4" height="656.2656" style="stroke:#989898;stroke-width:1.0;" width="10" x="282" y="83.5938"/><rect fill="#D2E4F4" height="473.4688" style="stroke:#989898;stroke-width:1.0;" width="10" x="604" y="154.9922"/><rect fill="#D2E4F4" height="159.6641" style="stroke:#989898;stroke-width:1.0;" width="10" x="762" y="213.2578"/><rect fill="none" height="117.5313" rx="3.5" ry="3.5" style="stroke:#989898;stroke-width:1.0;" width="787.5" x="10" y="334.6563"/><rect fill="none" height="194.4063" rx="3.5" ry="3.5" style="stroke:#989898;stroke-width:1.0;" width="439.5" x="218.5" y="466.1875"/><rect fill="none" height="134.1406" rx="3.5" ry="3.5" style="stroke:#989898;stroke-width:1.0;" width="419.5" x="228.5" y="519.4531"/><line style="stroke:#989898;stroke-width:0.5;stroke-dasharray:5.0,5.0;" x1="68" x2="68" y1="73.5938" y2="748.8594"/><line style="stroke:#989898;stroke-width:0.5;stroke-dasharray:5.0,5.0;" x1="286.5" x2="286.5" y1="73.5938" y2="748.8594"/><line style="stroke:#989898;stroke-width:0.5;stroke-dasharray:5.0,5.0;" x1="609" x2="609" y1="73.5938" y2="748.8594"/><line style="stroke:#989898;stroke-width:0.5;stroke-dasharray:5.0,5.0;" x1="766.5" x2="766.5" y1="73.5938" y2="748.8594"/><rect fill="#A5C8E8" height="30.2969" rx="3.5" ry="3.5" style="stroke:#202020;stroke-width:1.5;" width="96" x="20" y="42.2969"/><text fill="#202020" font-family="Inter" font-size="14" lengthAdjust="spacing" textLength="82" x="27" y="62.292">RP frontend</text><rect fill="#A5C8E8" height="30.2969" rx="3.5" ry="3.5" style="stroke:#202020;stroke-width:1.5;" width="97" x="238.5" y="42.2969"/><text fill="#202020" font-family="Inter" font-size="14" lengthAdjust="spacing" textLength="83" x="245.5" y="62.292">RP backend</text><rect fill="#A5C8E8" height="30.2969" rx="3.5" ry="3.5" style="stroke:#202020;stroke-width:1.5;" width="58" x="580" y="42.2969"/><text fill="#202020" font-family="Inter" font-size="14" lengthAdjust="spacing" textLength="44" x="587" y="62.292">RP API</text><rect fill="#A5C8E8" height="30.2969" rx="3.5" ry="3.5" style="stroke:#202020;stroke-width:1.5;" width="41" x="746.5" y="42.2969"/><text fill="#202020" font-family="Inter" font-size="14" lengthAdjust="spacing" textLength="27" x="753.5" y="62.292">App</text><rect fill="#D2E4F4" height="366.9375" style="stroke:#989898;stroke-width:1.0;" width="10" x="63" y="372.9219"/><rect fill="#D2E4F4" height="656.2656" style="stroke:#989898;stroke-width:1.0;" width="10" x="282" y="83.5938"/><rect fill="#D2E4F4" height="473.4688" style="stroke:#989898;stroke-width:1.0;" width="10" x="604" y="154.9922"/><rect fill="#D2E4F4" height="159.6641" style="stroke:#989898;stroke-width:1.0;" width="10" x="762" y="213.2578"/><path d="M58,92.0938 L58,125.0938 A3.5,3.5 0 0 0 61.5,128.5938 L511.5,128.5938 A3.5,3.5 0 0 0 515,125.0938 L515,98.5938 L505,88.5938 L61.5,88.5938 A3.5,3.5 0 0 0 58,92.0938 " fill="#DFDFDF" style="stroke:#202020;stroke-width:1.5;"/><path d="M505,88.5938 L505,96.8438 A1.75,1.75 0 0 0 506.75,98.5938 L515,98.5938 L505,88.5938 " fill="#DFDFDF" style="stroke:#202020;stroke-width:1.5;"/><text fill="#202020" font-family="Inter" font-size="13" lengthAdjust="spacing" textLength="305" x="64" y="105.6606">RP has the sessionID from the device link based</text><text fill="#202020" font-family="Inter" font-size="13" font-weight="bold" lengthAdjust="spacing" textLength="127" x="373" y="105.6606">certificate-choice</text><text fill="#202020" font-family="Inter" font-size="13" lengthAdjust="spacing" textLength="254" x="64" y="120.7935">and uses it to link the notification based</text><text fill="#202020" font-family="Inter" font-size="13" font-weight="bold" lengthAdjust="spacing" textLength="70" x="322" y="120.7935">signature</text><text fill="#202020" font-family="Inter" font-size="13" lengthAdjust="spacing" textLength="52" x="396" y="120.7935">session.</text><polygon fill="#202020" points="592,150.9922,602,154.9922,592,158.9922" style="stroke:#202020;stroke-width:1.0;"/><line style="stroke:#202020;stroke-width:1.0;" x1="292" x2="598" y1="154.9922" y2="154.9922"/><text fill="#000000" font-family="Inter" font-size="13" font-weight="bold" lengthAdjust="spacing" textLength="9" x="301.5" y="149.9263">1</text><text fill="#000000" font-family="monospace" font-size="13" lengthAdjust="spacing" textLength="32" x="314.5" y="149.9263">POST</text><text fill="#000000" font-family="monospace" font-size="13" lengthAdjust="spacing" textLength="8" x="346.5" y="149.9263">&#160;</text><text fill="#000000" font-family="monospace" font-size="13" lengthAdjust="spacing" textLength="240" x="354.5" y="149.9263">/v3/signature/notification/...</text><polygon fill="#202020" points="303,162.9922,293,166.9922,303,170.9922" style="stroke:#202020;stroke-width:1.0;"/><line style="stroke:#202020;stroke-width:1.0;stroke-dasharray:2.0,2.0;" x1="297" x2="603" y1="166.9922" y2="166.9922"/><text fill="#000000" font-family="Inter" font-size="13" font-weight="bold" lengthAdjust="spacing" textLength="9" x="405.5" y="180.0591">2</text><text fill="#000000" font-family="monospace" font-size="13" lengthAdjust="spacing" textLength="72" x="418.5" y="180.0591">sessionID</text><polygon fill="#202020" points="750,209.2578,760,213.2578,750,217.2578" style="stroke:#202020;stroke-width:1.0;"/><line style="stroke:#202020;stroke-width:1.0;" x1="614" x2="756" y1="213.2578" y2="213.2578"/><text fill="#000000" font-family="Inter" font-size="13" font-weight="bold" lengthAdjust="spacing" textLength="9" x="623.5" y="208.1919">3</text><text fill="#000000" font-family="Inter" font-size="13" lengthAdjust="spacing" textLength="52" x="636.5" y="208.1919">Request</text><text fill="#000000" font-family="Inter" font-size="13" lengthAdjust="spacing" textLength="4" x="688.5" y="208.1919">&#160;</text><text fill="#000000" font-family="Inter" font-size="13" lengthAdjust="spacing" textLength="60" x="692.5" y="208.1919">signature</text><line style="stroke:#202020;stroke-width:1.0;" x1="772" x2="814" y1="242.3906" y2="242.3906"/><line style="stroke:#202020;stroke-width:1.0;" x1="814" x2="814" y1="242.3906" y2="255.3906"/><line style="stroke:#202020;stroke-width:1.0;" x1="773" x2="814" y1="255.3906" y2="255.3906"/><polygon fill="#202020" points="783,251.3906,773,255.3906,783,259.3906" style="stroke:#202020;stroke-width:1.0;"/><text fill="#000000" font-family="Inter" font-size="13" font-weight="bold" lengthAdjust="spacing" textLength="9" x="779" y="237.3247">4</text><text fill="#000000" font-family="Inter" font-size="13" lengthAdjust="spacing" textLength="46" x="792" y="237.3247">Display</text><text fill="#000000" font-family="Inter" font-size="13" lengthAdjust="spacing" textLength="4" x="838" y="237.3247">&#160;</text><text fill="#000000" font-family="Inter" font-size="13" lengthAdjust="spacing" textLength="60" x="842" y="237.3247">signature</text><text fill="#000000" font-family="Inter" font-size="13" lengthAdjust="spacing" textLength="4" x="902" y="237.3247">&#160;</text><text fill="#000000" font-family="Inter" font-size="13" lengthAdjust="spacing" textLength="13" x="906" y="237.3247">UI</text><path d="M674,271.8906 L674,289.8906 A3.5,3.5 0 0 0 677.5,293.3906 L855.5,293.3906 A3.5,3.5 0 0 0 859,289.8906 L859,278.3906 L849,268.3906 L677.5,268.3906 A3.5,3.5 0 0 0 674,271.8906 " fill="#DFDFDF" style="stroke:#202020;stroke-width:1.5;"/><path d="M849,268.3906 L849,276.6406 A1.75,1.75 0 0 0 850.75,278.3906 L859,278.3906 L849,268.3906 " fill="#DFDFDF" style="stroke:#202020;stroke-width:1.5;"/><text fill="#202020" font-family="Inter" font-size="13" lengthAdjust="spacing" textLength="164" x="680" y="285.4575">User enters the PIN code.</text><polygon fill="#202020" points="625,315.6563,615,319.6563,625,323.6563" style="stroke:#202020;stroke-width:1.0;"/><line style="stroke:#202020;stroke-width:1.0;" x1="619" x2="761" y1="319.6563" y2="319.6563"/><text fill="#000000" font-family="Inter" font-size="13" font-weight="bold" lengthAdjust="spacing" textLength="9" x="645.5" y="314.5903">5</text><text fill="#000000" font-family="monospace" font-size="13" lengthAdjust="spacing" textLength="72" x="658.5" y="314.5903">signature</text><path d="M13.5,334.6563 L80,334.6563 L80,341.7891 L70,351.7891 L10,351.7891 L10,338.1563 A3.5,3.5 0 0 1 13.5,334.6563 " fill="#EEEEEE" style="stroke:#989898;stroke-width:1.5;"/><rect fill="none" height="117.5313" rx="3.5" ry="3.5" style="stroke:#989898;stroke-width:1.0;" width="787.5" x="10" y="334.6563"/><text fill="#202020" font-family="Inter" font-size="13" font-weight="bold" lengthAdjust="spacing" textLength="25" x="25" y="347.7231">opt</text><text fill="#989898" font-family="Inter" font-size="11" font-weight="bold" lengthAdjust="spacing" textLength="306" x="95" y="346.8667">[Same-device use-case (Web2App or App2App)]</text><polygon fill="#202020" points="84,368.9219,74,372.9219,84,376.9219" style="stroke:#202020;stroke-width:1.0;"/><line style="stroke:#202020;stroke-width:1.0;" x1="78" x2="766" y1="372.9219" y2="372.9219"/><text fill="#000000" font-family="Inter" font-size="13" font-weight="bold" lengthAdjust="spacing" textLength="9" x="321" y="367.856">6</text><text fill="#000000" font-family="Inter" font-size="13" lengthAdjust="spacing" textLength="52" x="334" y="367.856">Redirect</text><text fill="#000000" font-family="Inter" font-size="13" lengthAdjust="spacing" textLength="4" x="386" y="367.856">&#160;</text><text fill="#000000" font-family="Inter" font-size="13" lengthAdjust="spacing" textLength="28" x="390" y="367.856">user</text><text fill="#000000" font-family="Inter" font-size="13" lengthAdjust="spacing" textLength="4" x="418" y="367.856">&#160;</text><text fill="#000000" font-family="Inter" font-size="13" lengthAdjust="spacing" textLength="13" x="422" y="367.856">to</text><text fill="#000000" font-family="Inter" font-size="13" lengthAdjust="spacing" textLength="4" x="435" y="367.856">&#160;</text><text fill="#000000" font-family="Inter" font-size="13" lengthAdjust="spacing" textLength="51" x="439" y="367.856">callback</text><text fill="#000000" font-family="Inter" font-size="13" lengthAdjust="spacing" textLength="4" x="490" y="367.856">&#160;</text><text fill="#000000" font-family="Inter" font-size="13" lengthAdjust="spacing" textLength="25" x="494" y="367.856">URL</text><polygon fill="#202020" points="270,398.0547,280,402.0547,270,406.0547" style="stroke:#202020;stroke-width:1.0;"/><line style="stroke:#202020;stroke-width:1.0;" x1="73" x2="276" y1="402.0547" y2="402.0547"/><text fill="#000000" font-family="Inter" font-size="13" font-weight="bold" lengthAdjust="spacing" textLength="9" x="85" y="396.9888">7</text><text fill="#000000" font-family="Inter" font-size="13" lengthAdjust="spacing" textLength="52" x="98" y="396.9888">Request</text><text fill="#000000" font-family="Inter" font-size="13" lengthAdjust="spacing" textLength="4" x="150" y="396.9888">&#160;</text><text fill="#000000" font-family="Inter" font-size="13" lengthAdjust="spacing" textLength="51" x="154" y="396.9888">callback</text><text fill="#000000" font-family="Inter" font-size="13" lengthAdjust="spacing" textLength="4" x="205" y="396.9888">&#160;</text><text fill="#000000" font-family="Inter" font-size="13" lengthAdjust="spacing" textLength="61" x="209" y="396.9888">validation</text><line style="stroke:#202020;stroke-width:1.0;" x1="292" x2="334" y1="431.1875" y2="431.1875"/><line style="stroke:#202020;stroke-width:1.0;" x1="334" x2="334" y1="431.1875" y2="444.1875"/><line style="stroke:#202020;stroke-width:1.0;" x1="293" x2="334" y1="444.1875" y2="444.1875"/><polygon fill="#202020" points="303,440.1875,293,444.1875,303,448.1875" style="stroke:#202020;stroke-width:1.0;"/><text fill="#000000" font-family="Inter" font-size="13" font-weight="bold" lengthAdjust="spacing" textLength="9" x="299" y="426.1216">8</text><text fill="#000000" font-family="Inter" font-size="13" lengthAdjust="spacing" textLength="52" x="312" y="426.1216">Validate</text><text fill="#000000" font-family="Inter" font-size="13" lengthAdjust="spacing" textLength="4" x="364" y="426.1216">&#160;</text><text fill="#000000" font-family="Inter" font-size="13" lengthAdjust="spacing" textLength="51" x="368" y="426.1216">callback</text><path d="M222,466.1875 L295.5,466.1875 L295.5,473.3203 L285.5,483.3203 L218.5,483.3203 L218.5,469.6875 A3.5,3.5 0 0 1 222,466.1875 " fill="#EEEEEE" style="stroke:#989898;stroke-width:1.5;"/><rect fill="none" height="194.4063" rx="3.5" ry="3.5" style="stroke:#989898;stroke-width:1.0;" width="439.5" x="218.5" y="466.1875"/><text fill="#202020" font-family="Inter" font-size="13" font-weight="bold" lengthAdjust="spacing" textLength="32" x="233.5" y="479.2544">loop</text><text fill="#989898" font-family="Inter" font-size="11" font-weight="bold" lengthAdjust="spacing" textLength="227" x="310.5" y="478.3979">[until signature completed or error]</text><polygon fill="#202020" points="592,500.4531,602,504.4531,592,508.4531" style="stroke:#202020;stroke-width:1.0;"/><line style="stroke:#202020;stroke-width:1.0;" x1="292" x2="598" y1="504.4531" y2="504.4531"/><text fill="#000000" font-family="Inter" font-size="13" font-weight="bold" lengthAdjust="spacing" textLength="9" x="333.5" y="499.3872">9</text><text fill="#000000" font-family="monospace" font-size="13" lengthAdjust="spacing" textLength="24" x="346.5" y="499.3872">GET</text><text fill="#000000" font-family="monospace" font-size="13" lengthAdjust="spacing" textLength="8" x="370.5" y="499.3872">&#160;</text><text fill="#000000" font-family="monospace" font-size="13" lengthAdjust="spacing" textLength="184" x="378.5" y="499.3872">/v3/session/{sessionID}</text><path d="M232,519.4531 L292.5,519.4531 L292.5,526.5859 L282.5,536.5859 L228.5,536.5859 L228.5,522.9531 A3.5,3.5 0 0 1 232,519.4531 " fill="#EEEEEE" style="stroke:#989898;stroke-width:1.5;"/><rect fill="none" height="134.1406" rx="3.5" ry="3.5" style="stroke:#989898;stroke-width:1.0;" width="419.5" x="228.5" y="519.4531"/><text fill="#202020" font-family="Inter" font-size="13" font-weight="bold" lengthAdjust="spacing" textLength="19" x="243.5" y="532.52">alt</text><text fill="#989898" font-family="Inter" font-size="11" font-weight="bold" lengthAdjust="spacing" textLength="127" x="307.5" y="531.6636">[signature pending]</text><polygon fill="#202020" points="303,536.5859,293,540.5859,303,544.5859" style="stroke:#202020;stroke-width:1.0;"/><line style="stroke:#202020;stroke-width:1.0;stroke-dasharray:2.0,2.0;" x1="297" x2="603" y1="540.5859" y2="540.5859"/><text fill="#000000" font-family="Inter" font-size="13" font-weight="bold" lengthAdjust="spacing" textLength="18" x="381" y="553.6528">10</text><text fill="#000000" font-family="monospace" font-size="13" lengthAdjust="spacing" textLength="56" x="403" y="553.6528">session</text><text fill="#000000" font-family="monospace" font-size="13" lengthAdjust="spacing" textLength="8" x="459" y="553.6528">&#160;</text><text fill="#000000" font-family="monospace" font-size="13" lengthAdjust="spacing" textLength="48" x="467" y="553.6528">status</text><line style="stroke:#989898;stroke-width:1.0;stroke-dasharray:2.0,2.0;" x1="228.5" x2="648" y1="566.7188" y2="566.7188"/><text fill="#989898" font-family="Inter" font-size="11" font-weight="bold" lengthAdjust="spacing" textLength="121" x="233.5" y="576.9292">[error (or timeout)]</text><polygon fill="#202020" points="303,580.5234,293,584.5234,303,588.5234" style="stroke:#202020;stroke-width:1.0;"/><line style="stroke:#202020;stroke-width:1.0;stroke-dasharray:2.0,2.0;" x1="297" x2="603" y1="584.5234" y2="584.5234"/><text fill="#000000" font-family="Inter" font-size="13" font-weight="bold" lengthAdjust="spacing" textLength="18" x="417" y="597.5903">11</text><text fill="#000000" font-family="monospace" font-size="13" lengthAdjust="spacing" textLength="40" x="439" y="597.5903">error</text><line style="stroke:#989898;stroke-width:1.0;stroke-dasharray:2.0,2.0;" x1="228.5" x2="648" y1="610.6563" y2="610.6563"/><text fill="#989898" font-family="Inter" font-size="11" font-weight="bold" lengthAdjust="spacing" textLength="142" x="233.5" y="620.8667">[signature completed]</text><polygon fill="#202020" points="303,624.4609,293,628.4609,303,632.4609" style="stroke:#202020;stroke-width:1.0;"/><line style="stroke:#202020;stroke-width:1.0;stroke-dasharray:2.0,2.0;" x1="297" x2="608" y1="628.4609" y2="628.4609"/><text fill="#000000" font-family="Inter" font-size="13" font-weight="bold" lengthAdjust="spacing" textLength="18" x="415.5" y="641.5278">12</text><text fill="#000000" font-family="monospace" font-size="13" lengthAdjust="spacing" textLength="48" x="437.5" y="641.5278">result</text><line style="stroke:#202020;stroke-width:1.0;" x1="292" x2="334" y1="688.7266" y2="688.7266"/><line style="stroke:#202020;stroke-width:1.0;" x1="334" x2="334" y1="688.7266" y2="701.7266"/><line style="stroke:#202020;stroke-width:1.0;" x1="293" x2="334" y1="701.7266" y2="701.7266"/><polygon fill="#202020" points="303,697.7266,293,701.7266,303,705.7266" style="stroke:#202020;stroke-width:1.0;"/><text fill="#000000" font-family="Inter" font-size="13" font-weight="bold" lengthAdjust="spacing" textLength="18" x="299" y="683.6606">13</text><text fill="#000000" font-family="Inter" font-size="13" lengthAdjust="spacing" textLength="51" x="321" y="683.6606">Perform</text><text fill="#000000" font-family="Inter" font-size="13" lengthAdjust="spacing" textLength="4" x="372" y="683.6606">&#160;</text><text fill="#000000" font-family="Inter" font-size="13" lengthAdjust="spacing" textLength="59" x="376" y="683.6606">response</text><text fill="#000000" font-family="Inter" font-size="13" lengthAdjust="spacing" textLength="4" x="435" y="683.6606">&#160;</text><text fill="#000000" font-family="Inter" font-size="13" lengthAdjust="spacing" textLength="69" x="439" y="683.6606">verification</text><polygon fill="#202020" points="84,709.7266,74,713.7266,84,717.7266" style="stroke:#202020;stroke-width:1.0;"/><line style="stroke:#202020;stroke-width:1.0;stroke-dasharray:2.0,2.0;" x1="78" x2="281" y1="713.7266" y2="713.7266"/><text fill="#000000" font-family="Inter" font-size="13" font-weight="bold" lengthAdjust="spacing" textLength="18" x="115" y="726.7935">14</text><text fill="#000000" font-family="Inter" font-size="13" lengthAdjust="spacing" textLength="30" x="137" y="726.7935">User</text><text fill="#000000" font-family="Inter" font-size="13" lengthAdjust="spacing" textLength="4" x="167" y="726.7935">&#160;</text><text fill="#000000" font-family="Inter" font-size="13" lengthAdjust="spacing" textLength="23" x="171" y="726.7935">has</text><text fill="#000000" font-family="Inter" font-size="13" lengthAdjust="spacing" textLength="4" x="194" y="726.7935">&#160;</text><text fill="#000000" font-family="Inter" font-size="13" lengthAdjust="spacing" textLength="42" x="198" y="726.7935">signed</text></g></svg>