<?xml version="1.0" encoding="us-ascii" standalone="no"?><svg xmlns="http://www.w3.org/2000/svg" xmlns:xlink="http://www.w3.org/1999/xlink" contentStyleType="text/css" height="596px" preserveAspectRatio="none" style="width:968px;height:596px;" version="1.1" viewBox="0 0 968 596" width="968px" zoomAndPan="magnify"><defs/><g><text fill="#000000" font-family="Inter" font-size="14" font-weight="bold" lengthAdjust="spacing" textLength="321" x="322" y="27.9951">Device Link based Authentication (Mock)</text><rect fill="#D2E4F4" height="497.3906" style="stroke:#989898;stroke-width:1.0;" width="10" x="95.5" y="83.5938"/><rect fill="#D2E4F4" height="497.3906" style="stroke:#989898;stroke-width:1.0;" width="10" x="439.5" y="83.5938"/><rect fill="#D2E4F4" height="366.5938" style="stroke:#989898;stroke-width:1.0;" width="10" x="752.5" y="214.3906"/><rect fill="none" height="88.3984" rx="3.5" ry="3.5" style="stroke:#989898;stroke-width:1.0;" width="810" x="10" y="353.0547"/><rect fill="none" height="75.3984" rx="3.5" ry="3.5" style="stroke:#989898;stroke-width:1.0;" width="473.5" x="10" y="455.4531"/><line style="stroke:#989898;stroke-width:0.5;stroke-dasharray:5.0,5.0;" x1="100" x2="100" y1="73.5938" y2="589.9844"/><line style="stroke:#989898;stroke-width:0.5;stroke-dasharray:5.0,5.0;" x1="444.5" x2="444.5" y1="73.5938" y2="589.9844"/><line style="stroke:#989898;stroke-width:0.5;stroke-dasharray:5.0,5.0;" x1="757" x2="757" y1="73.5938" y2="589.9844"/><rect fill="#A5C8E8" height="30.2969" rx="3.5" ry="3.5" style="stroke:#202020;stroke-width:1.5;" width="161" x="20" y="42.2969"/><text fill="#202020" font-family="Inter" font-size="14" lengthAdjust="spacing" textLength="147" x="27" y="62.292">RP backend/frontend</text><rect fill="#A5C8E8" height="30.2969" rx="3.5" ry="3.5" style="stroke:#202020;stroke-width:1.5;" width="58" x="415.5" y="42.2969"/><text fill="#202020" font-family="Inter" font-size="14" lengthAdjust="spacing" textLength="44" x="422.5" y="62.292">RP API</text><rect fill="#FF8F37" height="30.2969" rx="3.5" ry="3.5" style="stroke:#202020;stroke-width:1.5;" width="105" x="705" y="42.2969"/><text fill="#202020" font-family="Inter" font-size="14" lengthAdjust="spacing" textLength="91" x="712" y="62.292">Mock Service</text><rect fill="#D2E4F4" height="497.3906" style="stroke:#989898;stroke-width:1.0;" width="10" x="95.5" y="83.5938"/><rect fill="#D2E4F4" height="497.3906" style="stroke:#989898;stroke-width:1.0;" width="10" x="439.5" y="83.5938"/><rect fill="#D2E4F4" height="366.5938" style="stroke:#989898;stroke-width:1.0;" width="10" x="752.5" y="214.3906"/><polygon fill="#202020" points="427.5,115.8594,437.5,119.8594,427.5,123.8594" style="stroke:#202020;stroke-width:1.0;"/><line style="stroke:#202020;stroke-width:1.0;" x1="105.5" x2="433.5" y1="119.8594" y2="119.8594"/><text fill="#000000" font-family="Inter" font-size="13" font-weight="bold" lengthAdjust="spacing" textLength="9" x="112.5" y="107.2271">1</text><text fill="#000000" font-family="Inter" font-size="13" lengthAdjust="spacing" textLength="43" x="125.5" y="99.6606">Create</text><text fill="#000000" font-family="Inter" font-size="13" lengthAdjust="spacing" textLength="4" x="168.5" y="99.6606">&#160;</text><text fill="#000000" font-family="Inter" font-size="13" lengthAdjust="spacing" textLength="67" x="172.5" y="99.6606">device-link</text><text fill="#000000" font-family="Inter" font-size="13" lengthAdjust="spacing" textLength="4" x="239.5" y="99.6606">&#160;</text><text fill="#000000" font-family="Inter" font-size="13" lengthAdjust="spacing" textLength="49" x="243.5" y="99.6606">request</text><text fill="#000000" font-family="Inter" font-size="13" lengthAdjust="spacing" textLength="4" x="292.5" y="99.6606">&#160;</text><text fill="#000000" font-family="Inter" font-size="13" lengthAdjust="spacing" textLength="126" x="296.5" y="99.6606">(documentNumber,</text><text fill="#000000" font-family="Inter" font-size="13" lengthAdjust="spacing" textLength="80" x="125.5" y="114.7935">parameters)</text><path d="M335,136.3594 L335,169.3594 A3.5,3.5 0 0 0 338.5,172.8594 L549.5,172.8594 A3.5,3.5 0 0 0 553,169.3594 L553,142.8594 L543,132.8594 L338.5,132.8594 A3.5,3.5 0 0 0 335,136.3594 " fill="#DFDFDF" style="stroke:#202020;stroke-width:1.5;"/><path d="M543,132.8594 L543,141.1094 A1.75,1.75 0 0 0 544.75,142.8594 L553,142.8594 L543,132.8594 " fill="#DFDFDF" style="stroke:#202020;stroke-width:1.5;"/><text fill="#202020" font-family="Inter" font-size="13" lengthAdjust="spacing" textLength="166" x="341" y="149.9263">Session is created in Core</text><text fill="#202020" font-family="Inter" font-size="13" lengthAdjust="spacing" textLength="197" x="341" y="165.0591">exactly as in Live environment.</text><polygon fill="#202020" points="116.5,210.3906,106.5,214.3906,116.5,218.3906" style="stroke:#202020;stroke-width:1.0;"/><line style="stroke:#202020;stroke-width:1.0;stroke-dasharray:2.0,2.0;" x1="110.5" x2="438.5" y1="214.3906" y2="214.3906"/><text fill="#000000" font-family="Inter" font-size="13" font-weight="bold" lengthAdjust="spacing" textLength="9" x="122.5" y="201.7583">2</text><text fill="#000000" font-family="monospace" font-size="13" lengthAdjust="spacing" textLength="72" x="135.5" y="194.1919">sessionId</text><text fill="#000000" font-family="Inter" font-size="13" lengthAdjust="spacing" textLength="4" x="207.5" y="194.1919">,</text><text fill="#000000" font-family="Inter" font-size="13" lengthAdjust="spacing" textLength="4" x="211.5" y="194.1919">&#160;</text><text fill="#000000" font-family="monospace" font-size="13" lengthAdjust="spacing" textLength="96" x="215.5" y="194.1919">sessionToken</text><text fill="#000000" font-family="Inter" font-size="13" lengthAdjust="spacing" textLength="4" x="311.5" y="194.1919">,</text><text fill="#000000" font-family="Inter" font-size="13" lengthAdjust="spacing" textLength="4" x="315.5" y="194.1919">&#160;</text><text fill="#000000" font-family="monospace" font-size="13" lengthAdjust="spacing" textLength="104" x="319.5" y="194.1919">sessionSecret</text><text fill="#000000" font-family="Inter" font-size="13" lengthAdjust="spacing" textLength="4" x="423.5" y="194.1919">,</text><text fill="#000000" font-family="monospace" font-size="13" lengthAdjust="spacing" textLength="112" x="135.5" y="209.3247">deviceLinkBase</text><polygon fill="#202020" points="740.5,254.6563,750.5,258.6563,740.5,262.6563" style="stroke:#202020;stroke-width:1.0;"/><line style="stroke:#202020;stroke-width:1.0;" x1="105.5" x2="746.5" y1="258.6563" y2="258.6563"/><text fill="#000000" font-family="Inter" font-size="13" font-weight="bold" lengthAdjust="spacing" textLength="9" x="112.5" y="246.0239">3</text><text fill="#000000" font-family="monospace" font-size="13" lengthAdjust="spacing" textLength="32" x="125.5" y="238.4575">POST</text><text fill="#000000" font-family="monospace" font-size="13" lengthAdjust="spacing" textLength="8" x="157.5" y="238.4575">&#160;</text><text fill="#000000" font-family="monospace" font-size="13" lengthAdjust="spacing" textLength="96" x="165.5" y="238.4575">/device-link</text><text fill="#000000" font-family="monospace" font-size="13" lengthAdjust="spacing" textLength="8" x="261.5" y="238.4575">&#160;</text><text fill="#000000" font-family="monospace" font-size="13" lengthAdjust="spacing" textLength="128" x="269.5" y="238.4575">(documentNumber,</text><text fill="#000000" font-family="monospace" font-size="13" lengthAdjust="spacing" textLength="184" x="125.5" y="253.5903">initialCallbackURL,...)</text><path d="M554,275.1563 L554,308.1563 A3.5,3.5 0 0 0 557.5,311.6563 L957.5,311.6563 A3.5,3.5 0 0 0 961,308.1563 L961,281.6563 L951,271.6563 L557.5,271.6563 A3.5,3.5 0 0 0 554,275.1563 " fill="#DFDFDF" style="stroke:#202020;stroke-width:1.5;"/><path d="M951,271.6563 L951,279.9063 A1.75,1.75 0 0 0 952.75,281.6563 L961,281.6563 L951,271.6563 " fill="#DFDFDF" style="stroke:#202020;stroke-width:1.5;"/><text fill="#202020" font-family="Inter" font-size="13" lengthAdjust="spacing" textLength="178" x="560" y="288.7231">Acts as the "mobile device".</text><text fill="#202020" font-family="Inter" font-size="13" lengthAdjust="spacing" textLength="386" x="560" y="303.856">documentNumber maps outcome: success / error / timeout.</text><polygon fill="#202020" points="460.5,334.0547,450.5,338.0547,460.5,342.0547" style="stroke:#202020;stroke-width:1.0;"/><line style="stroke:#202020;stroke-width:1.0;" x1="454.5" x2="751.5" y1="338.0547" y2="338.0547"/><text fill="#000000" font-family="Inter" font-size="13" font-weight="bold" lengthAdjust="spacing" textLength="9" x="466.5" y="332.9888">4</text><text fill="#000000" font-family="Inter" font-size="13" lengthAdjust="spacing" textLength="47" x="479.5" y="332.9888">Finalize</text><text fill="#000000" font-family="Inter" font-size="13" lengthAdjust="spacing" textLength="4" x="526.5" y="332.9888">&#160;</text><text fill="#000000" font-family="Inter" font-size="13" lengthAdjust="spacing" textLength="72" x="530.5" y="332.9888">transaction</text><text fill="#000000" font-family="Inter" font-size="13" lengthAdjust="spacing" textLength="4" x="602.5" y="332.9888">&#160;</text><text fill="#000000" font-family="Inter" font-size="13" lengthAdjust="spacing" textLength="21" x="606.5" y="332.9888">per</text><text fill="#000000" font-family="Inter" font-size="13" lengthAdjust="spacing" textLength="4" x="627.5" y="332.9888">&#160;</text><text fill="#000000" font-family="Inter" font-size="13" lengthAdjust="spacing" textLength="53" x="631.5" y="332.9888">mapped</text><text fill="#000000" font-family="Inter" font-size="13" lengthAdjust="spacing" textLength="4" x="684.5" y="332.9888">&#160;</text><text fill="#000000" font-family="Inter" font-size="13" lengthAdjust="spacing" textLength="57" x="688.5" y="332.9888">outcome</text><path d="M13.5,353.0547 L80,353.0547 L80,360.1875 L70,370.1875 L10,370.1875 L10,356.5547 A3.5,3.5 0 0 1 13.5,353.0547 " fill="#EEEEEE" style="stroke:#989898;stroke-width:1.5;"/><rect fill="none" height="88.3984" rx="3.5" ry="3.5" style="stroke:#989898;stroke-width:1.0;" width="810" x="10" y="353.0547"/><text fill="#202020" font-family="Inter" font-size="13" font-weight="bold" lengthAdjust="spacing" textLength="25" x="25" y="366.1216">opt</text><text fill="#989898" font-family="Inter" font-size="11" font-weight="bold" lengthAdjust="spacing" textLength="306" x="95" y="365.2651">[Same-device use-case (Web2App or App2App)]</text><polygon fill="#202020" points="116.5,387.3203,106.5,391.3203,116.5,395.3203" style="stroke:#202020;stroke-width:1.0;"/><line style="stroke:#202020;stroke-width:1.0;" x1="110.5" x2="751.5" y1="391.3203" y2="391.3203"/><text fill="#000000" font-family="Inter" font-size="13" font-weight="bold" lengthAdjust="spacing" textLength="9" x="122.5" y="386.2544">5</text><text fill="#000000" font-family="Inter" font-size="13" lengthAdjust="spacing" textLength="33" x="135.5" y="386.2544">Mock</text><text fill="#000000" font-family="Inter" font-size="13" lengthAdjust="spacing" textLength="4" x="168.5" y="386.2544">&#160;</text><text fill="#000000" font-family="Inter" font-size="13" lengthAdjust="spacing" textLength="45" x="172.5" y="386.2544">service</text><text fill="#000000" font-family="Inter" font-size="13" lengthAdjust="spacing" textLength="4" x="217.5" y="386.2544">&#160;</text><text fill="#000000" font-family="Inter" font-size="13" lengthAdjust="spacing" textLength="28" x="221.5" y="386.2544">calls</text><text fill="#000000" font-family="Inter" font-size="13" lengthAdjust="spacing" textLength="4" x="249.5" y="386.2544">&#160;</text><text fill="#000000" font-family="monospace" font-size="13" lengthAdjust="spacing" textLength="64" x="253.5" y="386.2544">callback</text><text fill="#000000" font-family="monospace" font-size="13" lengthAdjust="spacing" textLength="8" x="317.5" y="386.2544">&#160;</text><text fill="#000000" font-family="monospace" font-size="13" lengthAdjust="spacing" textLength="24" x="325.5" y="386.2544">URL</text><text fill="#000000" font-family="Inter" font-size="13" lengthAdjust="spacing" textLength="4" x="349.5" y="386.2544">&#160;</text><text fill="#000000" font-family="Inter" font-size="13" lengthAdjust="spacing" textLength="30" x="353.5" y="386.2544">(with</text><text fill="#000000" font-family="Inter" font-size="13" lengthAdjust="spacing" textLength="4" x="383.5" y="386.2544">&#160;</text><text fill="#000000" font-family="Inter" font-size="13" lengthAdjust="spacing" textLength="53" x="387.5" y="386.2544">cookies)</text><line style="stroke:#202020;stroke-width:1.0;" x1="105.5" x2="147.5" y1="420.4531" y2="420.4531"/><line style="stroke:#202020;stroke-width:1.0;" x1="147.5" x2="147.5" y1="420.4531" y2="433.4531"/><line style="stroke:#202020;stroke-width:1.0;" x1="106.5" x2="147.5" y1="433.4531" y2="433.4531"/><polygon fill="#202020" points="116.5,429.4531,106.5,433.4531,116.5,437.4531" style="stroke:#202020;stroke-width:1.0;"/><text fill="#000000" font-family="Inter" font-size="13" font-weight="bold" lengthAdjust="spacing" textLength="9" x="112.5" y="415.3872">6</text><text fill="#000000" font-family="Inter" font-size="13" lengthAdjust="spacing" textLength="52" x="125.5" y="415.3872">Validate</text><text fill="#000000" font-family="Inter" font-size="13" lengthAdjust="spacing" textLength="4" x="177.5" y="415.3872">&#160;</text><text fill="#000000" font-family="Inter" font-size="13" lengthAdjust="spacing" textLength="51" x="181.5" y="415.3872">callback</text><text fill="#000000" font-family="Inter" font-size="13" lengthAdjust="spacing" textLength="4" x="232.5" y="415.3872">&#160;</text><text fill="#000000" font-family="Inter" font-size="13" lengthAdjust="spacing" textLength="24" x="236.5" y="415.3872">and</text><text fill="#000000" font-family="Inter" font-size="13" lengthAdjust="spacing" textLength="4" x="260.5" y="415.3872">&#160;</text><text fill="#000000" font-family="Inter" font-size="13" lengthAdjust="spacing" textLength="45" x="264.5" y="415.3872">extract</text><text fill="#000000" font-family="Inter" font-size="13" lengthAdjust="spacing" textLength="4" x="309.5" y="415.3872">&#160;</text><text fill="#000000" font-family="Inter" font-size="13" lengthAdjust="spacing" textLength="75" x="313.5" y="415.3872">parameters</text><path d="M13.5,455.4531 L87,455.4531 L87,462.5859 L77,472.5859 L10,472.5859 L10,458.9531 A3.5,3.5 0 0 1 13.5,455.4531 " fill="#EEEEEE" style="stroke:#989898;stroke-width:1.5;"/><rect fill="none" height="75.3984" rx="3.5" ry="3.5" style="stroke:#989898;stroke-width:1.0;" width="473.5" x="10" y="455.4531"/><text fill="#202020" font-family="Inter" font-size="13" font-weight="bold" lengthAdjust="spacing" textLength="32" x="25" y="468.52">loop</text><text fill="#989898" font-family="Inter" font-size="11" font-weight="bold" lengthAdjust="spacing" textLength="227" x="102" y="467.6636">[until signature completed or error]</text><polygon fill="#202020" points="427.5,489.7188,437.5,493.7188,427.5,497.7188" style="stroke:#202020;stroke-width:1.0;"/><line style="stroke:#202020;stroke-width:1.0;" x1="105.5" x2="433.5" y1="493.7188" y2="493.7188"/><text fill="#000000" font-family="Inter" font-size="13" font-weight="bold" lengthAdjust="spacing" textLength="9" x="112.5" y="488.6528">7</text><text fill="#000000" font-family="Inter" font-size="13" lengthAdjust="spacing" textLength="23" x="125.5" y="488.6528">Get</text><text fill="#000000" font-family="Inter" font-size="13" lengthAdjust="spacing" textLength="4" x="148.5" y="488.6528">&#160;</text><text fill="#000000" font-family="Inter" font-size="13" lengthAdjust="spacing" textLength="48" x="152.5" y="488.6528">session</text><text fill="#000000" font-family="Inter" font-size="13" lengthAdjust="spacing" textLength="4" x="200.5" y="488.6528">&#160;</text><text fill="#000000" font-family="Inter" font-size="13" lengthAdjust="spacing" textLength="40" x="204.5" y="488.6528">status</text><polygon fill="#202020" points="116.5,518.8516,106.5,522.8516,116.5,526.8516" style="stroke:#202020;stroke-width:1.0;"/><line style="stroke:#202020;stroke-width:1.0;stroke-dasharray:2.0,2.0;" x1="110.5" x2="438.5" y1="522.8516" y2="522.8516"/><text fill="#000000" font-family="Inter" font-size="13" font-weight="bold" lengthAdjust="spacing" textLength="9" x="122.5" y="517.7856">8</text><text fill="#000000" font-family="monospace" font-size="13" lengthAdjust="spacing" textLength="56" x="135.5" y="517.7856">Pending</text><text fill="#000000" font-family="Inter" font-size="13" lengthAdjust="spacing" textLength="4" x="191.5" y="517.7856">&#160;</text><text fill="#000000" font-family="Inter" font-size="13" lengthAdjust="spacing" textLength="4" x="195.5" y="517.7856">/</text><text fill="#000000" font-family="Inter" font-size="13" lengthAdjust="spacing" textLength="4" x="199.5" y="517.7856">&#160;</text><text fill="#000000" font-family="monospace" font-size="13" lengthAdjust="spacing" textLength="64" x="203.5" y="517.7856">Complete</text><text fill="#000000" font-family="Inter" font-size="13" lengthAdjust="spacing" textLength="4" x="267.5" y="517.7856">&#160;</text><text fill="#000000" font-family="Inter" font-size="13" lengthAdjust="spacing" textLength="4" x="271.5" y="517.7856">/</text><text fill="#000000" font-family="Inter" font-size="13" lengthAdjust="spacing" textLength="4" x="275.5" y="517.7856">&#160;</text><text fill="#000000" font-family="monospace" font-size="13" lengthAdjust="spacing" textLength="40" x="279.5" y="517.7856">Error</text><line style="stroke:#202020;stroke-width:1.0;" x1="105.5" x2="147.5" y1="558.9844" y2="558.9844"/><line style="stroke:#202020;stroke-width:1.0;" x1="147.5" x2="147.5" y1="558.9844" y2="571.9844"/><line style="stroke:#202020;stroke-width:1.0;" x1="106.5" x2="147.5" y1="571.9844" y2="571.9844"/><polygon fill="#202020" points="116.5,567.9844,106.5,571.9844,116.5,575.9844" style="stroke:#202020;stroke-width:1.0;"/><text fill="#000000" font-family="Inter" font-size="13" font-weight="bold" lengthAdjust="spacing" textLength="9" x="112.5" y="553.9185">9</text><text fill="#000000" font-family="Inter" font-size="13" lengthAdjust="spacing" textLength="52" x="125.5" y="553.9185">Validate</text><text fill="#000000" font-family="Inter" font-size="13" lengthAdjust="spacing" textLength="4" x="177.5" y="553.9185">&#160;</text><text fill="#000000" font-family="Inter" font-size="13" lengthAdjust="spacing" textLength="55" x="181.5" y="553.9185">returned</text><text fill="#000000" font-family="Inter" font-size="13" lengthAdjust="spacing" textLength="4" x="236.5" y="553.9185">&#160;</text><text fill="#000000" font-family="monospace" font-size="13" lengthAdjust="spacing" textLength="72" x="240.5" y="553.9185">signature</text></g></svg>