<?xml version="1.0" encoding="us-ascii" standalone="no"?><svg xmlns="http://www.w3.org/2000/svg" xmlns:xlink="http://www.w3.org/1999/xlink" contentStyleType="text/css" height="1307px" preserveAspectRatio="none" style="width:1155px;height:1307px;" version="1.1" viewBox="0 0 1155 1307" width="1155px" zoomAndPan="magnify"><defs/><g><text fill="#000000" font-family="Inter" font-size="14" font-weight="bold" lengthAdjust="spacing" textLength="266" x="446.5" y="27.9951">Device Link based Signature Flow</text><rect fill="#D2E4F4" height="1208.2344" style="stroke:#989898;stroke-width:1.0;" width="10" x="126" y="83.5938"/><rect fill="#D2E4F4" height="1208.2344" style="stroke:#989898;stroke-width:1.0;" width="10" x="360" y="83.5938"/><rect fill="#D2E4F4" height="921.9063" style="stroke:#989898;stroke-width:1.0;" width="10" x="746" y="258.5234"/><rect fill="#D2E4F4" height="260.0625" style="stroke:#989898;stroke-width:1.0;" width="10" x="962" y="664.8281"/><rect fill="none" height="184.5703" rx="3.5" ry="3.5" style="stroke:#989898;stroke-width:1.0;" width="924.5" x="73" y="169.9922"/><rect fill="none" height="179.6016" rx="3.5" ry="3.5" style="stroke:#989898;stroke-width:1.0;" width="370.5" x="63" y="441.9609"/><rect fill="none" height="75.3984" rx="3.5" ry="3.5" style="stroke:#989898;stroke-width:1.0;" width="350.5" x="73" y="466.0938"/><rect fill="none" height="117.5313" rx="3.5" ry="3.5" style="stroke:#989898;stroke-width:1.0;" width="924.5" x="73" y="886.625"/><rect fill="none" height="194.4063" rx="3.5" ry="3.5" style="stroke:#989898;stroke-width:1.0;" width="503.5" x="296.5" y="1018.1563"/><rect fill="none" height="134.1406" rx="3.5" ry="3.5" style="stroke:#989898;stroke-width:1.0;" width="483.5" x="306.5" y="1071.4219"/><line style="stroke:#989898;stroke-width:0.5;stroke-dasharray:5.0,5.0;" x1="131" x2="131" y1="73.5938" y2="1300.8281"/><line style="stroke:#989898;stroke-width:0.5;stroke-dasharray:5.0,5.0;" x1="364.5" x2="364.5" y1="73.5938" y2="1300.8281"/><line style="stroke:#989898;stroke-width:0.5;stroke-dasharray:5.0,5.0;" x1="751" x2="751" y1="73.5938" y2="1300.8281"/><line style="stroke:#989898;stroke-width:0.5;stroke-dasharray:5.0,5.0;" x1="966.5" x2="966.5" y1="73.5938" y2="1300.8281"/><rect fill="#A5C8E8" height="30.2969" rx="3.5" ry="3.5" style="stroke:#202020;stroke-width:1.5;" width="96" x="83" y="42.2969"/><text fill="#202020" font-family="Inter" font-size="14" lengthAdjust="spacing" textLength="82" x="90" y="62.292">RP frontend</text><rect fill="#A5C8E8" height="30.2969" rx="3.5" ry="3.5" style="stroke:#202020;stroke-width:1.5;" width="97" x="316.5" y="42.2969"/><text fill="#202020" font-family="Inter" font-size="14" lengthAdjust="spacing" textLength="83" x="323.5" y="62.292">RP backend</text><rect fill="#A5C8E8" height="30.2969" rx="3.5" ry="3.5" style="stroke:#202020;stroke-width:1.5;" width="58" x="722" y="42.2969"/><text fill="#202020" font-family="Inter" font-size="14" lengthAdjust="spacing" textLength="44" x="729" y="62.292">RP API</text><rect fill="#A5C8E8" height="30.2969" rx="3.5" ry="3.5" style="stroke:#202020;stroke-width:1.5;" width="41" x="946.5" y="42.2969"/><text fill="#202020" font-family="Inter" font-size="14" lengthAdjust="spacing" textLength="27" x="953.5" y="62.292">App</text><rect fill="#D2E4F4" height="1208.2344" style="stroke:#989898;stroke-width:1.0;" width="10" x="126" y="83.5938"/><rect fill="#D2E4F4" height="1208.2344" style="stroke:#989898;stroke-width:1.0;" width="10" x="360" y="83.5938"/><rect fill="#D2E4F4" height="921.9063" style="stroke:#989898;stroke-width:1.0;" width="10" x="746" y="258.5234"/><rect fill="#D2E4F4" height="260.0625" style="stroke:#989898;stroke-width:1.0;" width="10" x="962" y="664.8281"/><path d="M5,92.0938 L5,125.0938 A3.5,3.5 0 0 0 8.5,128.5938 L253.5,128.5938 A3.5,3.5 0 0 0 257,125.0938 L257,98.5938 L247,88.5938 L8.5,88.5938 A3.5,3.5 0 0 0 5,92.0938 " fill="#DFDFDF" style="stroke:#202020;stroke-width:1.5;"/><path d="M247,88.5938 L247,96.8438 A1.75,1.75 0 0 0 248.75,98.5938 L257,98.5938 L247,88.5938 " fill="#DFDFDF" style="stroke:#202020;stroke-width:1.5;"/><text fill="#202020" font-family="Inter" font-size="13" lengthAdjust="spacing" textLength="231" x="11" y="105.6606">User initiates signing on RP frontend</text><text fill="#202020" font-family="Inter" font-size="13" lengthAdjust="spacing" textLength="154" x="11" y="120.7935">(website or mobile app).</text><polygon fill="#202020" points="348,150.9922,358,154.9922,348,158.9922" style="stroke:#202020;stroke-width:1.0;"/><line style="stroke:#202020;stroke-width:1.0;" x1="136" x2="354" y1="154.9922" y2="154.9922"/><text fill="#000000" font-family="Inter" font-size="13" font-weight="bold" lengthAdjust="spacing" textLength="9" x="192" y="149.9263">1</text><text fill="#000000" font-family="Inter" font-size="13" lengthAdjust="spacing" textLength="52" x="205" y="149.9263">Request</text><text fill="#000000" font-family="Inter" font-size="13" lengthAdjust="spacing" textLength="4" x="257" y="149.9263">&#160;</text><text fill="#000000" font-family="Inter" font-size="13" lengthAdjust="spacing" textLength="13" x="261" y="149.9263">to</text><text fill="#000000" font-family="Inter" font-size="13" lengthAdjust="spacing" textLength="4" x="274" y="149.9263">&#160;</text><text fill="#000000" font-family="Inter" font-size="13" lengthAdjust="spacing" textLength="26" x="278" y="149.9263">sign</text><path d="M76.5,169.9922 L137,169.9922 L137,177.125 L127,187.125 L73,187.125 L73,173.4922 A3.5,3.5 0 0 1 76.5,169.9922 " fill="#EEEEEE" style="stroke:#989898;stroke-width:1.5;"/><rect fill="none" height="184.5703" rx="3.5" ry="3.5" style="stroke:#989898;stroke-width:1.0;" width="924.5" x="73" y="169.9922"/><text fill="#202020" font-family="Inter" font-size="13" font-weight="bold" lengthAdjust="spacing" textLength="19" x="88" y="183.0591">alt</text><text fill="#989898" font-family="Inter" font-size="11" font-weight="bold" lengthAdjust="spacing" textLength="229" x="152" y="182.2026">[user's document-number is known]</text><path d="M267,195.625 L267,213.625 A3.5,3.5 0 0 0 270.5,217.125 L845.5,217.125 A3.5,3.5 0 0 0 849,213.625 L849,202.125 L839,192.125 L270.5,192.125 A3.5,3.5 0 0 0 267,195.625 " fill="#DFDFDF" style="stroke:#202020;stroke-width:1.5;"/><path d="M839,192.125 L839,200.375 A1.75,1.75 0 0 0 840.75,202.125 L849,202.125 L839,192.125 " fill="#DFDFDF" style="stroke:#202020;stroke-width:1.5;"/><text fill="#202020" font-family="Inter" font-size="13" lengthAdjust="spacing" textLength="561" x="273" y="209.1919">Request signing certificate using the document number from the authentication session</text><polygon fill="#202020" points="734,254.5234,744,258.5234,734,262.5234" style="stroke:#202020;stroke-width:1.0;"/><line style="stroke:#202020;stroke-width:1.0;" x1="370" x2="740" y1="258.5234" y2="258.5234"/><text fill="#000000" font-family="Inter" font-size="13" font-weight="bold" lengthAdjust="spacing" textLength="9" x="379.5" y="245.8911">2</text><text fill="#000000" font-family="monospace" font-size="13" lengthAdjust="spacing" textLength="32" x="548.5" y="238.3247">POST</text><text fill="#000000" font-family="monospace" font-size="13" lengthAdjust="spacing" textLength="344" x="392.5" y="253.4575">/v3/signature/certificate/{document-number}</text><polygon fill="#202020" points="381,266.5234,371,270.5234,381,274.5234" style="stroke:#202020;stroke-width:1.0;"/><line style="stroke:#202020;stroke-width:1.0;stroke-dasharray:2.0,2.0;" x1="375" x2="745" y1="270.5234" y2="270.5234"/><text fill="#000000" font-family="Inter" font-size="13" font-weight="bold" lengthAdjust="spacing" textLength="9" x="490.5" y="283.5903">3</text><text fill="#000000" font-family="Inter" font-size="13" lengthAdjust="spacing" textLength="50" x="503.5" y="283.5903">"signing</text><text fill="#000000" font-family="Inter" font-size="13" lengthAdjust="spacing" textLength="4" x="553.5" y="283.5903">&#160;</text><text fill="#000000" font-family="Inter" font-size="13" lengthAdjust="spacing" textLength="68" x="557.5" y="283.5903">certificate"</text><line style="stroke:#989898;stroke-width:1.0;stroke-dasharray:2.0,2.0;" x1="73" x2="997.5" y1="296.6563" y2="296.6563"/><text fill="#989898" font-family="Inter" font-size="11" font-weight="bold" lengthAdjust="spacing" textLength="254" x="78" y="306.8667">[user's document-number is not known]</text><rect fill="none" height="39.1016" rx="3.5" ry="3.5" style="stroke:#000000;stroke-width:1.5;" width="910.5" x="80" y="310.4609"/><path d="M83,310.4609 L146,310.4609 L146,317.4609 L136,327.4609 L80,327.4609 L80,313.4609 A3,3 0 0 1 83,310.4609 " fill="#EEEEEE" style="stroke:#000000;stroke-width:2.0;"/><text fill="#000000" font-family="Inter" font-size="13" font-weight="bold" lengthAdjust="spacing" textLength="21" x="93" y="324.5278">ref</text><text fill="#000000" font-family="Inter" font-size="12" font-weight="bold" lengthAdjust="spacing" textLength="123" x="284.25" y="342.5996">Certificate choice</text><text fill="#000000" font-family="Inter" font-size="12" lengthAdjust="spacing" textLength="375" x="411.25" y="342.5996">sub-process (see Device Link Based Certificate Choice Flow)</text><polygon fill="#202020" points="734,378.6953,744,382.6953,734,386.6953" style="stroke:#202020;stroke-width:1.0;"/><line style="stroke:#202020;stroke-width:1.0;" x1="370" x2="740" y1="382.6953" y2="382.6953"/><text fill="#000000" font-family="Inter" font-size="13" font-weight="bold" lengthAdjust="spacing" textLength="9" x="415.5" y="377.6294">4</text><text fill="#000000" font-family="monospace" font-size="13" lengthAdjust="spacing" textLength="32" x="428.5" y="377.6294">POST</text><text fill="#000000" font-family="monospace" font-size="13" lengthAdjust="spacing" textLength="8" x="460.5" y="377.6294">&#160;</text><text fill="#000000" font-family="monospace" font-size="13" lengthAdjust="spacing" textLength="232" x="468.5" y="377.6294">/v3/signature/device-link/...</text><polygon fill="#202020" points="381,390.6953,371,394.6953,381,398.6953" style="stroke:#202020;stroke-width:1.0;"/><line style="stroke:#202020;stroke-width:1.0;stroke-dasharray:2.0,2.0;" x1="375" x2="745" y1="394.6953" y2="394.6953"/><text fill="#000000" font-family="Inter" font-size="13" font-weight="bold" lengthAdjust="spacing" textLength="9" x="405.5" y="415.3286">5</text><text fill="#000000" font-family="monospace" font-size="13" lengthAdjust="spacing" textLength="72" x="418.5" y="407.7622">sessionID</text><text fill="#000000" font-family="Inter" font-size="13" lengthAdjust="spacing" textLength="4" x="490.5" y="407.7622">,</text><text fill="#000000" font-family="Inter" font-size="13" lengthAdjust="spacing" textLength="4" x="494.5" y="407.7622">&#160;</text><text fill="#000000" font-family="monospace" font-size="13" lengthAdjust="spacing" textLength="96" x="498.5" y="407.7622">sessionToken</text><text fill="#000000" font-family="Inter" font-size="13" lengthAdjust="spacing" textLength="4" x="594.5" y="407.7622">,</text><text fill="#000000" font-family="Inter" font-size="13" lengthAdjust="spacing" textLength="4" x="598.5" y="407.7622">&#160;</text><text fill="#000000" font-family="monospace" font-size="13" lengthAdjust="spacing" textLength="104" x="602.5" y="407.7622">sessionSecret</text><text fill="#000000" font-family="Inter" font-size="13" lengthAdjust="spacing" textLength="4" x="706.5" y="407.7622">,</text><text fill="#000000" font-family="monospace" font-size="13" lengthAdjust="spacing" textLength="112" x="508.5" y="422.895">deviceLinkBase</text><path d="M66.5,441.9609 L127,441.9609 L127,449.0938 L117,459.0938 L63,459.0938 L63,445.4609 A3.5,3.5 0 0 1 66.5,441.9609 " fill="#EEEEEE" style="stroke:#989898;stroke-width:1.5;"/><rect fill="none" height="179.6016" rx="3.5" ry="3.5" style="stroke:#989898;stroke-width:1.0;" width="370.5" x="63" y="441.9609"/><text fill="#202020" font-family="Inter" font-size="13" font-weight="bold" lengthAdjust="spacing" textLength="19" x="78" y="455.0278">alt</text><text fill="#989898" font-family="Inter" font-size="11" font-weight="bold" lengthAdjust="spacing" textLength="222" x="142" y="454.1714">[Cross-device use-case (QR code)]</text><path d="M76.5,466.0938 L150,466.0938 L150,473.2266 L140,483.2266 L73,483.2266 L73,469.5938 A3.5,3.5 0 0 1 76.5,466.0938 " fill="#EEEEEE" style="stroke:#989898;stroke-width:1.5;"/><rect fill="none" height="75.3984" rx="3.5" ry="3.5" style="stroke:#989898;stroke-width:1.0;" width="350.5" x="73" y="466.0938"/><text fill="#202020" font-family="Inter" font-size="13" font-weight="bold" lengthAdjust="spacing" textLength="32" x="88" y="479.1606">loop</text><text fill="#989898" font-family="Inter" font-size="11" font-weight="bold" lengthAdjust="spacing" textLength="132" x="165" y="478.3042">[until user interacts]</text><polygon fill="#202020" points="348,500.3594,358,504.3594,348,508.3594" style="stroke:#202020;stroke-width:1.0;"/><line style="stroke:#202020;stroke-width:1.0;" x1="136" x2="354" y1="504.3594" y2="504.3594"/><text fill="#000000" font-family="Inter" font-size="13" font-weight="bold" lengthAdjust="spacing" textLength="9" x="148" y="499.2935">6</text><text fill="#000000" font-family="Inter" font-size="13" lengthAdjust="spacing" textLength="52" x="161" y="499.2935">Request</text><text fill="#000000" font-family="Inter" font-size="13" lengthAdjust="spacing" textLength="4" x="213" y="499.2935">&#160;</text><text fill="#000000" font-family="Inter" font-size="13" lengthAdjust="spacing" textLength="17" x="217" y="499.2935">for</text><text fill="#000000" font-family="Inter" font-size="13" lengthAdjust="spacing" textLength="4" x="234" y="499.2935">&#160;</text><text fill="#000000" font-family="Inter" font-size="13" lengthAdjust="spacing" textLength="53" x="238" y="499.2935">updated</text><text fill="#000000" font-family="Inter" font-size="13" lengthAdjust="spacing" textLength="4" x="291" y="499.2935">&#160;</text><text fill="#000000" font-family="Inter" font-size="13" lengthAdjust="spacing" textLength="18" x="295" y="499.2935">QR</text><text fill="#000000" font-family="Inter" font-size="13" lengthAdjust="spacing" textLength="4" x="313" y="499.2935">&#160;</text><text fill="#000000" font-family="Inter" font-size="13" lengthAdjust="spacing" textLength="31" x="317" y="499.2935">code</text><polygon fill="#202020" points="147,512.3594,137,516.3594,147,520.3594" style="stroke:#202020;stroke-width:1.0;"/><line style="stroke:#202020;stroke-width:1.0;stroke-dasharray:2.0,2.0;" x1="141" x2="359" y1="516.3594" y2="516.3594"/><text fill="#000000" font-family="Inter" font-size="13" font-weight="bold" lengthAdjust="spacing" textLength="9" x="161" y="529.4263">7</text><text fill="#000000" font-family="Inter" font-size="13" lengthAdjust="spacing" textLength="47" x="174" y="529.4263">Provide</text><text fill="#000000" font-family="Inter" font-size="13" lengthAdjust="spacing" textLength="4" x="221" y="529.4263">&#160;</text><text fill="#000000" font-family="Inter" font-size="13" lengthAdjust="spacing" textLength="53" x="225" y="529.4263">updated</text><text fill="#000000" font-family="Inter" font-size="13" lengthAdjust="spacing" textLength="4" x="278" y="529.4263">&#160;</text><text fill="#000000" font-family="Inter" font-size="13" lengthAdjust="spacing" textLength="18" x="282" y="529.4263">QR</text><text fill="#000000" font-family="Inter" font-size="13" lengthAdjust="spacing" textLength="4" x="300" y="529.4263">&#160;</text><text fill="#000000" font-family="Inter" font-size="13" lengthAdjust="spacing" textLength="31" x="304" y="529.4263">code</text><line style="stroke:#989898;stroke-width:1.0;stroke-dasharray:2.0,2.0;" x1="63" x2="433.5" y1="549.4922" y2="549.4922"/><text fill="#989898" font-family="Inter" font-size="11" font-weight="bold" lengthAdjust="spacing" textLength="306" x="68" y="559.7026">[Same-device use-case (Web2App or App2App)]</text><polygon fill="#202020" points="348,580.4297,358,584.4297,348,588.4297" style="stroke:#202020;stroke-width:1.0;"/><line style="stroke:#202020;stroke-width:1.0;" x1="136" x2="354" y1="584.4297" y2="584.4297"/><text fill="#000000" font-family="Inter" font-size="13" font-weight="bold" lengthAdjust="spacing" textLength="9" x="180.5" y="579.3638">8</text><text fill="#000000" font-family="Inter" font-size="13" lengthAdjust="spacing" textLength="52" x="193.5" y="579.3638">Request</text><text fill="#000000" font-family="Inter" font-size="13" lengthAdjust="spacing" textLength="4" x="245.5" y="579.3638">&#160;</text><text fill="#000000" font-family="Inter" font-size="13" lengthAdjust="spacing" textLength="41" x="249.5" y="579.3638">device</text><text fill="#000000" font-family="Inter" font-size="13" lengthAdjust="spacing" textLength="4" x="290.5" y="579.3638">&#160;</text><text fill="#000000" font-family="Inter" font-size="13" lengthAdjust="spacing" textLength="21" x="294.5" y="579.3638">link</text><polygon fill="#202020" points="147,592.4297,137,596.4297,147,600.4297" style="stroke:#202020;stroke-width:1.0;"/><line style="stroke:#202020;stroke-width:1.0;stroke-dasharray:2.0,2.0;" x1="141" x2="359" y1="596.4297" y2="596.4297"/><text fill="#000000" font-family="Inter" font-size="13" font-weight="bold" lengthAdjust="spacing" textLength="9" x="187" y="609.4966">9</text><text fill="#000000" font-family="Inter" font-size="13" lengthAdjust="spacing" textLength="84" x="200" y="609.4966">Same-device</text><text fill="#000000" font-family="Inter" font-size="13" lengthAdjust="spacing" textLength="4" x="284" y="609.4966">&#160;</text><text fill="#000000" font-family="Inter" font-size="13" lengthAdjust="spacing" textLength="21" x="288" y="609.4966">link</text><polygon fill="#202020" points="950,660.8281,960,664.8281,950,668.8281" style="stroke:#202020;stroke-width:1.0;"/><line style="stroke:#202020;stroke-width:1.0;" x1="136" x2="956" y1="664.8281" y2="664.8281"/><text fill="#000000" font-family="Inter" font-size="13" font-weight="bold" lengthAdjust="spacing" textLength="18" x="377.5" y="652.1958">10</text><text fill="#000000" font-family="Inter" font-size="13" lengthAdjust="spacing" textLength="30" x="399.5" y="644.6294">User</text><text fill="#000000" font-family="Inter" font-size="13" lengthAdjust="spacing" textLength="4" x="429.5" y="644.6294">&#160;</text><text fill="#000000" font-family="Inter" font-size="13" lengthAdjust="spacing" textLength="37" x="433.5" y="644.6294">scans</text><text fill="#000000" font-family="Inter" font-size="13" lengthAdjust="spacing" textLength="4" x="470.5" y="644.6294">&#160;</text><text fill="#000000" font-family="Inter" font-size="13" lengthAdjust="spacing" textLength="21" x="474.5" y="644.6294">the</text><text fill="#000000" font-family="Inter" font-size="13" lengthAdjust="spacing" textLength="4" x="495.5" y="644.6294">&#160;</text><text fill="#000000" font-family="Inter" font-size="13" lengthAdjust="spacing" textLength="18" x="499.5" y="644.6294">QR</text><text fill="#000000" font-family="Inter" font-size="13" lengthAdjust="spacing" textLength="4" x="517.5" y="644.6294">&#160;</text><text fill="#000000" font-family="Inter" font-size="13" lengthAdjust="spacing" textLength="31" x="521.5" y="644.6294">code</text><text fill="#000000" font-family="Inter" font-size="13" lengthAdjust="spacing" textLength="4" x="552.5" y="644.6294">&#160;</text><text fill="#000000" font-family="Inter" font-size="13" lengthAdjust="spacing" textLength="13" x="556.5" y="644.6294">or</text><text fill="#000000" font-family="Inter" font-size="13" lengthAdjust="spacing" textLength="4" x="569.5" y="644.6294">&#160;</text><text fill="#000000" font-family="Inter" font-size="13" lengthAdjust="spacing" textLength="34" x="573.5" y="644.6294">clicks</text><text fill="#000000" font-family="Inter" font-size="13" lengthAdjust="spacing" textLength="4" x="607.5" y="644.6294">&#160;</text><text fill="#000000" font-family="Inter" font-size="13" lengthAdjust="spacing" textLength="16" x="611.5" y="644.6294">on</text><text fill="#000000" font-family="Inter" font-size="13" lengthAdjust="spacing" textLength="4" x="627.5" y="644.6294">&#160;</text><text fill="#000000" font-family="Inter" font-size="13" lengthAdjust="spacing" textLength="8" x="631.5" y="644.6294">a</text><text fill="#000000" font-family="Inter" font-size="13" lengthAdjust="spacing" textLength="4" x="639.5" y="644.6294">&#160;</text><text fill="#000000" font-family="Inter" font-size="13" lengthAdjust="spacing" textLength="60" x="643.5" y="644.6294">Web2App</text><text fill="#000000" font-family="Inter" font-size="13" lengthAdjust="spacing" textLength="4" x="703.5" y="644.6294">&#160;</text><text fill="#000000" font-family="Inter" font-size="13" lengthAdjust="spacing" textLength="13" x="707.5" y="644.6294">or</text><text fill="#000000" font-family="Inter" font-size="13" lengthAdjust="spacing" textLength="58" x="518.5" y="659.7622">App2App</text><text fill="#000000" font-family="Inter" font-size="13" lengthAdjust="spacing" textLength="4" x="576.5" y="659.7622">&#160;</text><text fill="#000000" font-family="Inter" font-size="13" lengthAdjust="spacing" textLength="21" x="580.5" y="659.7622">link</text><line style="stroke:#202020;stroke-width:1.0;" x1="972" x2="1014" y1="693.9609" y2="693.9609"/><line style="stroke:#202020;stroke-width:1.0;" x1="1014" x2="1014" y1="693.9609" y2="706.9609"/><line style="stroke:#202020;stroke-width:1.0;" x1="973" x2="1014" y1="706.9609" y2="706.9609"/><polygon fill="#202020" points="983,702.9609,973,706.9609,983,710.9609" style="stroke:#202020;stroke-width:1.0;"/><text fill="#000000" font-family="Inter" font-size="13" font-weight="bold" lengthAdjust="spacing" textLength="18" x="979" y="688.895">11</text><text fill="#000000" font-family="Inter" font-size="13" lengthAdjust="spacing" textLength="52" x="1001" y="688.895">Validate</text><text fill="#000000" font-family="Inter" font-size="13" lengthAdjust="spacing" textLength="4" x="1053" y="688.895">&#160;</text><text fill="#000000" font-family="Inter" font-size="13" lengthAdjust="spacing" textLength="21" x="1057" y="688.895">the</text><text fill="#000000" font-family="Inter" font-size="13" lengthAdjust="spacing" textLength="4" x="1078" y="688.895">&#160;</text><text fill="#000000" font-family="Inter" font-size="13" lengthAdjust="spacing" textLength="41" x="1082" y="688.895">device</text><text fill="#000000" font-family="Inter" font-size="13" lengthAdjust="spacing" textLength="4" x="1123" y="688.895">&#160;</text><text fill="#000000" font-family="Inter" font-size="13" lengthAdjust="spacing" textLength="21" x="1127" y="688.895">link</text><polygon fill="#202020" points="767,732.0938,757,736.0938,767,740.0938" style="stroke:#202020;stroke-width:1.0;"/><line style="stroke:#202020;stroke-width:1.0;" x1="761" x2="961" y1="736.0938" y2="736.0938"/><text fill="#000000" font-family="Inter" font-size="13" font-weight="bold" lengthAdjust="spacing" textLength="18" x="768" y="731.0278">12</text><text fill="#000000" font-family="monospace" font-size="13" lengthAdjust="spacing" textLength="48" x="790" y="731.0278">Create</text><text fill="#000000" font-family="monospace" font-size="13" lengthAdjust="spacing" textLength="8" x="838" y="731.0278">&#160;</text><text fill="#000000" font-family="monospace" font-size="13" lengthAdjust="spacing" textLength="8" x="846" y="731.0278">a</text><text fill="#000000" font-family="monospace" font-size="13" lengthAdjust="spacing" textLength="8" x="854" y="731.0278">&#160;</text><text fill="#000000" font-family="monospace" font-size="13" lengthAdjust="spacing" textLength="88" x="862" y="731.0278">transaction</text><polygon fill="#202020" points="950,744.0938,960,748.0938,950,752.0938" style="stroke:#202020;stroke-width:1.0;"/><line style="stroke:#202020;stroke-width:1.0;stroke-dasharray:2.0,2.0;" x1="756" x2="956" y1="748.0938" y2="748.0938"/><text fill="#000000" font-family="Inter" font-size="13" font-weight="bold" lengthAdjust="spacing" textLength="18" x="804" y="761.1606">13</text><text fill="#000000" font-family="monospace" font-size="13" lengthAdjust="spacing" textLength="88" x="826" y="761.1606">transaction</text><line style="stroke:#202020;stroke-width:1.0;" x1="972" x2="1014" y1="794.3594" y2="794.3594"/><line style="stroke:#202020;stroke-width:1.0;" x1="1014" x2="1014" y1="794.3594" y2="807.3594"/><line style="stroke:#202020;stroke-width:1.0;" x1="973" x2="1014" y1="807.3594" y2="807.3594"/><polygon fill="#202020" points="983,803.3594,973,807.3594,983,811.3594" style="stroke:#202020;stroke-width:1.0;"/><text fill="#000000" font-family="Inter" font-size="13" font-weight="bold" lengthAdjust="spacing" textLength="18" x="979" y="789.2935">14</text><text fill="#000000" font-family="Inter" font-size="13" lengthAdjust="spacing" textLength="46" x="1001" y="789.2935">Display</text><text fill="#000000" font-family="Inter" font-size="13" lengthAdjust="spacing" textLength="4" x="1047" y="789.2935">&#160;</text><text fill="#000000" font-family="Inter" font-size="13" lengthAdjust="spacing" textLength="60" x="1051" y="789.2935">signature</text><text fill="#000000" font-family="Inter" font-size="13" lengthAdjust="spacing" textLength="4" x="1111" y="789.2935">&#160;</text><text fill="#000000" font-family="Inter" font-size="13" lengthAdjust="spacing" textLength="13" x="1115" y="789.2935">UI</text><path d="M868,823.8594 L868,841.8594 A3.5,3.5 0 0 0 871.5,845.3594 L1061.5,845.3594 A3.5,3.5 0 0 0 1065,841.8594 L1065,830.3594 L1055,820.3594 L871.5,820.3594 A3.5,3.5 0 0 0 868,823.8594 " fill="#DFDFDF" style="stroke:#202020;stroke-width:1.5;"/><path d="M1055,820.3594 L1055,828.6094 A1.75,1.75 0 0 0 1056.75,830.3594 L1065,830.3594 L1055,820.3594 " fill="#DFDFDF" style="stroke:#202020;stroke-width:1.5;"/><text fill="#202020" font-family="Inter" font-size="13" lengthAdjust="spacing" textLength="176" x="874" y="837.4263">User enters the PIN 2 code.</text><polygon fill="#202020" points="767,867.625,757,871.625,767,875.625" style="stroke:#202020;stroke-width:1.0;"/><line style="stroke:#202020;stroke-width:1.0;" x1="761" x2="961" y1="871.625" y2="871.625"/><text fill="#000000" font-family="Inter" font-size="13" font-weight="bold" lengthAdjust="spacing" textLength="18" x="812" y="866.5591">15</text><text fill="#000000" font-family="monospace" font-size="13" lengthAdjust="spacing" textLength="72" x="834" y="866.5591">signature</text><path d="M76.5,886.625 L143,886.625 L143,893.7578 L133,903.7578 L73,903.7578 L73,890.125 A3.5,3.5 0 0 1 76.5,886.625 " fill="#EEEEEE" style="stroke:#989898;stroke-width:1.5;"/><rect fill="none" height="117.5313" rx="3.5" ry="3.5" style="stroke:#989898;stroke-width:1.0;" width="924.5" x="73" y="886.625"/><text fill="#202020" font-family="Inter" font-size="13" font-weight="bold" lengthAdjust="spacing" textLength="25" x="88" y="899.6919">opt</text><text fill="#989898" font-family="Inter" font-size="11" font-weight="bold" lengthAdjust="spacing" textLength="306" x="158" y="898.8354">[Same-device use-case (Web2App or App2App)]</text><polygon fill="#202020" points="147,920.8906,137,924.8906,147,928.8906" style="stroke:#202020;stroke-width:1.0;"/><line style="stroke:#202020;stroke-width:1.0;" x1="141" x2="966" y1="924.8906" y2="924.8906"/><text fill="#000000" font-family="Inter" font-size="13" font-weight="bold" lengthAdjust="spacing" textLength="18" x="448" y="919.8247">16</text><text fill="#000000" font-family="Inter" font-size="13" lengthAdjust="spacing" textLength="52" x="470" y="919.8247">Redirect</text><text fill="#000000" font-family="Inter" font-size="13" lengthAdjust="spacing" textLength="4" x="522" y="919.8247">&#160;</text><text fill="#000000" font-family="Inter" font-size="13" lengthAdjust="spacing" textLength="28" x="526" y="919.8247">user</text><text fill="#000000" font-family="Inter" font-size="13" lengthAdjust="spacing" textLength="4" x="554" y="919.8247">&#160;</text><text fill="#000000" font-family="Inter" font-size="13" lengthAdjust="spacing" textLength="13" x="558" y="919.8247">to</text><text fill="#000000" font-family="Inter" font-size="13" lengthAdjust="spacing" textLength="4" x="571" y="919.8247">&#160;</text><text fill="#000000" font-family="Inter" font-size="13" lengthAdjust="spacing" textLength="51" x="575" y="919.8247">callback</text><text fill="#000000" font-family="Inter" font-size="13" lengthAdjust="spacing" textLength="4" x="626" y="919.8247">&#160;</text><text fill="#000000" font-family="Inter" font-size="13" lengthAdjust="spacing" textLength="25" x="630" y="919.8247">URL</text><polygon fill="#202020" points="348,950.0234,358,954.0234,348,958.0234" style="stroke:#202020;stroke-width:1.0;"/><line style="stroke:#202020;stroke-width:1.0;" x1="136" x2="354" y1="954.0234" y2="954.0234"/><text fill="#000000" font-family="Inter" font-size="13" font-weight="bold" lengthAdjust="spacing" textLength="18" x="151" y="948.9575">17</text><text fill="#000000" font-family="Inter" font-size="13" lengthAdjust="spacing" textLength="52" x="173" y="948.9575">Request</text><text fill="#000000" font-family="Inter" font-size="13" lengthAdjust="spacing" textLength="4" x="225" y="948.9575">&#160;</text><text fill="#000000" font-family="Inter" font-size="13" lengthAdjust="spacing" textLength="51" x="229" y="948.9575">callback</text><text fill="#000000" font-family="Inter" font-size="13" lengthAdjust="spacing" textLength="4" x="280" y="948.9575">&#160;</text><text fill="#000000" font-family="Inter" font-size="13" lengthAdjust="spacing" textLength="61" x="284" y="948.9575">validation</text><line style="stroke:#202020;stroke-width:1.0;" x1="370" x2="412" y1="983.1563" y2="983.1563"/><line style="stroke:#202020;stroke-width:1.0;" x1="412" x2="412" y1="983.1563" y2="996.1563"/><line style="stroke:#202020;stroke-width:1.0;" x1="371" x2="412" y1="996.1563" y2="996.1563"/><polygon fill="#202020" points="381,992.1563,371,996.1563,381,1000.1563" style="stroke:#202020;stroke-width:1.0;"/><text fill="#000000" font-family="Inter" font-size="13" font-weight="bold" lengthAdjust="spacing" textLength="18" x="377" y="978.0903">18</text><text fill="#000000" font-family="Inter" font-size="13" lengthAdjust="spacing" textLength="52" x="399" y="978.0903">Validate</text><text fill="#000000" font-family="Inter" font-size="13" lengthAdjust="spacing" textLength="4" x="451" y="978.0903">&#160;</text><text fill="#000000" font-family="Inter" font-size="13" lengthAdjust="spacing" textLength="51" x="455" y="978.0903">callback</text><path d="M300,1018.1563 L373.5,1018.1563 L373.5,1025.2891 L363.5,1035.2891 L296.5,1035.2891 L296.5,1021.6563 A3.5,3.5 0 0 1 300,1018.1563 " fill="#EEEEEE" style="stroke:#989898;stroke-width:1.5;"/><rect fill="none" height="194.4063" rx="3.5" ry="3.5" style="stroke:#989898;stroke-width:1.0;" width="503.5" x="296.5" y="1018.1563"/><text fill="#202020" font-family="Inter" font-size="13" font-weight="bold" lengthAdjust="spacing" textLength="32" x="311.5" y="1031.2231">loop</text><text fill="#989898" font-family="Inter" font-size="11" font-weight="bold" lengthAdjust="spacing" textLength="227" x="388.5" y="1030.3667">[until signature completed or error]</text><polygon fill="#202020" points="734,1052.4219,744,1056.4219,734,1060.4219" style="stroke:#202020;stroke-width:1.0;"/><line style="stroke:#202020;stroke-width:1.0;" x1="370" x2="740" y1="1056.4219" y2="1056.4219"/><text fill="#000000" font-family="Inter" font-size="13" font-weight="bold" lengthAdjust="spacing" textLength="18" x="439" y="1051.356">19</text><text fill="#000000" font-family="monospace" font-size="13" lengthAdjust="spacing" textLength="24" x="461" y="1051.356">GET</text><text fill="#000000" font-family="monospace" font-size="13" lengthAdjust="spacing" textLength="8" x="485" y="1051.356">&#160;</text><text fill="#000000" font-family="monospace" font-size="13" lengthAdjust="spacing" textLength="184" x="493" y="1051.356">/v3/session/{sessionID}</text><path d="M310,1071.4219 L370.5,1071.4219 L370.5,1078.5547 L360.5,1088.5547 L306.5,1088.5547 L306.5,1074.9219 A3.5,3.5 0 0 1 310,1071.4219 " fill="#EEEEEE" style="stroke:#989898;stroke-width:1.5;"/><rect fill="none" height="134.1406" rx="3.5" ry="3.5" style="stroke:#989898;stroke-width:1.0;" width="483.5" x="306.5" y="1071.4219"/><text fill="#202020" font-family="Inter" font-size="13" font-weight="bold" lengthAdjust="spacing" textLength="19" x="321.5" y="1084.4888">alt</text><text fill="#989898" font-family="Inter" font-size="11" font-weight="bold" lengthAdjust="spacing" textLength="127" x="385.5" y="1083.6323">[signature pending]</text><polygon fill="#202020" points="381,1088.5547,371,1092.5547,381,1096.5547" style="stroke:#202020;stroke-width:1.0;"/><line style="stroke:#202020;stroke-width:1.0;stroke-dasharray:2.0,2.0;" x1="375" x2="745" y1="1092.5547" y2="1092.5547"/><text fill="#000000" font-family="Inter" font-size="13" font-weight="bold" lengthAdjust="spacing" textLength="18" x="491" y="1105.6216">20</text><text fill="#000000" font-family="monospace" font-size="13" lengthAdjust="spacing" textLength="56" x="513" y="1105.6216">session</text><text fill="#000000" font-family="monospace" font-size="13" lengthAdjust="spacing" textLength="8" x="569" y="1105.6216">&#160;</text><text fill="#000000" font-family="monospace" font-size="13" lengthAdjust="spacing" textLength="48" x="577" y="1105.6216">status</text><line style="stroke:#989898;stroke-width:1.0;stroke-dasharray:2.0,2.0;" x1="306.5" x2="790" y1="1118.6875" y2="1118.6875"/><text fill="#989898" font-family="Inter" font-size="11" font-weight="bold" lengthAdjust="spacing" textLength="121" x="311.5" y="1128.8979">[error (or timeout)]</text><polygon fill="#202020" points="381,1132.4922,371,1136.4922,381,1140.4922" style="stroke:#202020;stroke-width:1.0;"/><line style="stroke:#202020;stroke-width:1.0;stroke-dasharray:2.0,2.0;" x1="375" x2="745" y1="1136.4922" y2="1136.4922"/><text fill="#000000" font-family="Inter" font-size="13" font-weight="bold" lengthAdjust="spacing" textLength="18" x="527" y="1149.5591">21</text><text fill="#000000" font-family="monospace" font-size="13" lengthAdjust="spacing" textLength="40" x="549" y="1149.5591">error</text><line style="stroke:#989898;stroke-width:1.0;stroke-dasharray:2.0,2.0;" x1="306.5" x2="790" y1="1162.625" y2="1162.625"/><text fill="#989898" font-family="Inter" font-size="11" font-weight="bold" lengthAdjust="spacing" textLength="142" x="311.5" y="1172.8354">[signature completed]</text><polygon fill="#202020" points="381,1176.4297,371,1180.4297,381,1184.4297" style="stroke:#202020;stroke-width:1.0;"/><line style="stroke:#202020;stroke-width:1.0;stroke-dasharray:2.0,2.0;" x1="375" x2="750" y1="1180.4297" y2="1180.4297"/><text fill="#000000" font-family="Inter" font-size="13" font-weight="bold" lengthAdjust="spacing" textLength="18" x="525.5" y="1193.4966">22</text><text fill="#000000" font-family="monospace" font-size="13" lengthAdjust="spacing" textLength="48" x="547.5" y="1193.4966">result</text><line style="stroke:#202020;stroke-width:1.0;" x1="370" x2="412" y1="1240.6953" y2="1240.6953"/><line style="stroke:#202020;stroke-width:1.0;" x1="412" x2="412" y1="1240.6953" y2="1253.6953"/><line style="stroke:#202020;stroke-width:1.0;" x1="371" x2="412" y1="1253.6953" y2="1253.6953"/><polygon fill="#202020" points="381,1249.6953,371,1253.6953,381,1257.6953" style="stroke:#202020;stroke-width:1.0;"/><text fill="#000000" font-family="Inter" font-size="13" font-weight="bold" lengthAdjust="spacing" textLength="18" x="377" y="1235.6294">23</text><text fill="#000000" font-family="Inter" font-size="13" lengthAdjust="spacing" textLength="51" x="399" y="1235.6294">Perform</text><text fill="#000000" font-family="Inter" font-size="13" lengthAdjust="spacing" textLength="4" x="450" y="1235.6294">&#160;</text><text fill="#000000" font-family="Inter" font-size="13" lengthAdjust="spacing" textLength="59" x="454" y="1235.6294">response</text><text fill="#000000" font-family="Inter" font-size="13" lengthAdjust="spacing" textLength="4" x="513" y="1235.6294">&#160;</text><text fill="#000000" font-family="Inter" font-size="13" lengthAdjust="spacing" textLength="69" x="517" y="1235.6294">verification</text><polygon fill="#202020" points="147,1261.6953,137,1265.6953,147,1269.6953" style="stroke:#202020;stroke-width:1.0;"/><line style="stroke:#202020;stroke-width:1.0;stroke-dasharray:2.0,2.0;" x1="141" x2="359" y1="1265.6953" y2="1265.6953"/><text fill="#000000" font-family="Inter" font-size="13" font-weight="bold" lengthAdjust="spacing" textLength="18" x="177.5" y="1278.7622">24</text><text fill="#000000" font-family="Inter" font-size="13" lengthAdjust="spacing" textLength="47" x="199.5" y="1278.7622">Signing</text><text fill="#000000" font-family="Inter" font-size="13" lengthAdjust="spacing" textLength="4" x="246.5" y="1278.7622">&#160;</text><text fill="#000000" font-family="Inter" font-size="13" lengthAdjust="spacing" textLength="68" x="250.5" y="1278.7622">completed</text></g></svg>