<svg width="64" height="64" viewBox="0 0 64 64" fill="none" xmlns="http://www.w3.org/2000/svg">
<path d="M34.3325 50.75V46.5334H38.5491V50.75H34.3325ZM30.1159 46.5334V36.2166H34.3325V46.5334H30.1159ZM46.5334 38.639V32H50.75V38.639H46.5334ZM42.3168 32V27.7834H46.5334V32H42.3168ZM17.4666 36.2166V32H21.6832V36.2166H17.4666ZM13.25 32V27.7834H17.4666V32H13.25ZM32 17.4666V13.25H36.2166V17.4666H32ZM15.3137 23.8362H23.8362V15.3137H15.3137V23.8362ZM13.25 25.8993V13.25H25.8993V25.8993H13.25ZM15.3137 48.6863H24.1948V40.1638H15.3137V48.6863ZM13.25 50.75V38.1007H26.2585V50.75H13.25ZM40.1638 23.8362H48.6863V15.3137H40.1638V23.8362ZM38.1007 25.8993V13.25H50.75V25.8993H38.1007ZM42.3168 50.75V42.855H38.1007V38.639H46.5334V46.5334H50.75V50.75H42.3168ZM34.3325 36.2166V32H42.3168V36.2166H34.3325ZM25.8993 36.2166V32H21.6832V27.7834H34.3325V32H30.1159V36.2166H25.8993ZM27.7834 25.8993V17.4666H32V21.6832H36.2166V25.8993H27.7834ZM18.0947 21.0552V18.0947H21.0552V21.0552H18.0947ZM18.4084 45.5916V42.6311H21.3689V45.5916H18.4084ZM42.9448 21.0552V18.0947H45.9053V21.0552H42.9448Z" fill="#00B5AC"/>
</svg>
