<svg width="114" height="64" viewBox="0 0 114 64" fill="none" xmlns="http://www.w3.org/2000/svg">
<rect x="8" y="17" width="30" height="30" rx="8" fill="#22C55E"/>
<path d="M17.375 29.7184H15.125C14.5038 29.7184 14 30.2221 14 30.8117V38.6551C14 39.2763 14.5038 39.7484 15.125 39.7484H17.375C17.9962 39.7484 18.5 39.2446 18.5 38.6551V30.8434C18.5 30.2527 17.9973 29.7184 17.375 29.7184ZM32 30.9805C32 29.6836 30.9436 28.6278 29.6456 28.6278H26.1349C26.4699 27.7496 26.6562 26.9902 26.6562 26.5437C26.6562 25.3555 25.7352 24.1257 24.1932 24.1257C22.5546 24.1257 22.1063 25.2662 21.746 26.1823C20.6329 29.0124 19.625 28.5164 19.625 29.4684C19.625 29.9198 19.9892 30.3118 20.4695 30.3118C20.6542 30.3118 20.8404 30.2513 20.9957 30.1269C23.6943 27.9693 23.0338 25.8132 24.1932 25.8132C24.7585 25.8132 24.9688 26.2614 24.9688 26.5441C24.9688 26.8044 24.7018 27.9345 24.0705 29.0609C23.9986 29.1891 23.9627 29.3311 23.9627 29.473C23.9627 29.9623 24.3646 30.2851 24.8065 30.2851H29.644C30.0137 30.316 30.3125 30.6148 30.3125 30.9805C30.3125 31.3253 30.0395 31.6143 29.6913 31.6382C29.2462 31.6685 28.9052 32.039 28.9052 32.4799C28.9052 33.0237 29.3056 33.0406 29.3056 33.4962C29.3056 34.3882 28.0741 33.9301 28.0741 34.9781C28.0741 35.3725 28.2988 35.4362 28.2988 35.7603C28.2988 36.557 27.2522 36.2441 27.2522 37.1891C27.2522 37.3478 27.2912 37.3986 27.2912 37.5215C27.2912 37.8889 26.9919 38.1877 26.6243 38.1877H24.7776C23.8769 38.1877 22.9839 37.8901 22.2639 37.3506L20.9751 36.3835C20.8234 36.2694 20.6457 36.2144 20.4695 36.2144C19.9826 36.2144 19.6247 36.6144 19.6247 37.0595C19.6247 37.3157 19.7412 37.5665 19.9621 37.7321L21.2513 38.6996C22.2617 39.4566 23.5133 39.875 24.7789 39.875H26.6257C27.8677 39.875 28.8883 38.9086 28.9741 37.6883C29.5988 37.2583 29.9877 36.5454 29.9877 35.7607C29.9877 35.6536 29.98 35.546 29.9651 35.44C30.5923 35.0128 30.9945 34.2946 30.9945 33.4965C30.9945 33.3098 30.972 33.126 30.9286 32.9467C31.5746 32.4957 32 31.7961 32 30.9805Z" fill="white"/>
<rect x="42" y="17" width="30" height="30" rx="8" fill="#22C55E"/>
<path d="M51.375 29.7184H49.125C48.5038 29.7184 48 30.2221 48 30.8117V38.6551C48 39.2763 48.5038 39.7484 49.125 39.7484H51.375C51.9962 39.7484 52.5 39.2446 52.5 38.6551V30.8434C52.5 30.2527 51.9973 29.7184 51.375 29.7184ZM66 30.9805C66 29.6836 64.9436 28.6278 63.6456 28.6278H60.1349C60.4699 27.7496 60.6562 26.9902 60.6562 26.5437C60.6562 25.3555 59.7352 24.1257 58.1932 24.1257C56.5546 24.1257 56.1063 25.2662 55.746 26.1823C54.6329 29.0124 53.625 28.5164 53.625 29.4684C53.625 29.9198 53.9892 30.3118 54.4695 30.3118C54.6542 30.3118 54.8404 30.2513 54.9957 30.1269C57.6943 27.9693 57.0338 25.8132 58.1932 25.8132C58.7585 25.8132 58.9688 26.2614 58.9688 26.5441C58.9688 26.8044 58.7018 27.9345 58.0705 29.0609C57.9986 29.1891 57.9627 29.3311 57.9627 29.473C57.9627 29.9623 58.3646 30.2851 58.8065 30.2851H63.644C64.0137 30.316 64.3125 30.6148 64.3125 30.9805C64.3125 31.3253 64.0395 31.6143 63.6913 31.6382C63.2462 31.6685 62.9052 32.039 62.9052 32.4799C62.9052 33.0237 63.3056 33.0406 63.3056 33.4962C63.3056 34.3882 62.0741 33.9301 62.0741 34.9781C62.0741 35.3725 62.2988 35.4362 62.2988 35.7603C62.2988 36.557 61.2522 36.2441 61.2522 37.1891C61.2522 37.3478 61.2912 37.3986 61.2912 37.5215C61.2912 37.8889 60.9919 38.1877 60.6243 38.1877H58.7776C57.8769 38.1877 56.9839 37.8901 56.2639 37.3506L54.9751 36.3835C54.8234 36.2694 54.6457 36.2144 54.4695 36.2144C53.9826 36.2144 53.6247 36.6144 53.6247 37.0595C53.6247 37.3157 53.7412 37.5665 53.9621 37.7321L55.2513 38.6996C56.2617 39.4566 57.5133 39.875 58.7789 39.875H60.6257C61.8677 39.875 62.8883 38.9086 62.9741 37.6883C63.5988 37.2583 63.9877 36.5454 63.9877 35.7607C63.9877 35.6536 63.98 35.546 63.9651 35.44C64.5923 35.0128 64.9945 34.2946 64.9945 33.4965C64.9945 33.3098 64.972 33.126 64.9286 32.9467C65.5746 32.4957 66 31.7961 66 30.9805Z" fill="white"/>
<rect x="76" y="17" width="30" height="30" rx="8" fill="#22C55E"/>
<path d="M85.375 29.7184H83.125C82.5038 29.7184 82 30.2221 82 30.8117V38.6551C82 39.2763 82.5038 39.7484 83.125 39.7484H85.375C85.9962 39.7484 86.5 39.2446 86.5 38.6551V30.8434C86.5 30.2527 85.9973 29.7184 85.375 29.7184ZM100 30.9805C100 29.6836 98.9436 28.6278 97.6456 28.6278H94.1349C94.4699 27.7496 94.6562 26.9902 94.6562 26.5437C94.6562 25.3555 93.7352 24.1257 92.1932 24.1257C90.5546 24.1257 90.1063 25.2662 89.746 26.1823C88.6329 29.0124 87.625 28.5164 87.625 29.4684C87.625 29.9198 87.9892 30.3118 88.4695 30.3118C88.6542 30.3118 88.8404 30.2513 88.9957 30.1269C91.6943 27.9693 91.0338 25.8132 92.1932 25.8132C92.7585 25.8132 92.9688 26.2614 92.9688 26.5441C92.9688 26.8044 92.7018 27.9345 92.0705 29.0609C91.9986 29.1891 91.9627 29.3311 91.9627 29.473C91.9627 29.9623 92.3646 30.2851 92.8065 30.2851H97.644C98.0137 30.316 98.3125 30.6148 98.3125 30.9805C98.3125 31.3253 98.0395 31.6143 97.6913 31.6382C97.2462 31.6685 96.9052 32.039 96.9052 32.4799C96.9052 33.0237 97.3056 33.0406 97.3056 33.4962C97.3056 34.3882 96.0741 33.9301 96.0741 34.9781C96.0741 35.3725 96.2988 35.4362 96.2988 35.7603C96.2988 36.557 95.2522 36.2441 95.2522 37.1891C95.2522 37.3478 95.2912 37.3986 95.2912 37.5215C95.2912 37.8889 94.9919 38.1877 94.6243 38.1877H92.7776C91.8769 38.1877 90.9839 37.8901 90.2639 37.3506L88.9751 36.3835C88.8234 36.2694 88.6457 36.2144 88.4695 36.2144C87.9826 36.2144 87.6247 36.6144 87.6247 37.0595C87.6247 37.3157 87.7412 37.5665 87.9621 37.7321L89.2513 38.6996C90.2617 39.4566 91.5133 39.875 92.7789 39.875H94.6257C95.8677 39.875 96.8883 38.9086 96.9741 37.6883C97.5988 37.2583 97.9877 36.5454 97.9877 35.7607C97.9877 35.6536 97.98 35.546 97.9651 35.44C98.5923 35.0128 98.9945 34.2946 98.9945 33.4965C98.9945 33.3098 98.972 33.126 98.9286 32.9467C99.5746 32.4957 100 31.7961 100 30.9805Z" fill="white"/>
</svg>
