<svg width="114" height="64" viewBox="0 0 114 64" fill="none" xmlns="http://www.w3.org/2000/svg">
<rect x="8" y="17" width="30" height="30" rx="8" fill="#22C55E"/>
<path d="M18.0002 40.3333C17.5418 40.3333 17.1495 40.1701 16.8231 39.8438C16.4967 39.5174 16.3335 39.125 16.3335 38.6667V30.3333C16.3335 29.875 16.4967 29.4826 16.8231 29.1563C17.1495 28.8299 17.5418 28.6667 18.0002 28.6667H18.8335V27C18.8335 25.8472 19.2397 24.8646 20.0522 24.0521C20.8647 23.2396 21.8474 22.8333 23.0002 22.8333C24.1529 22.8333 25.1356 23.2396 25.9481 24.0521C26.7606 24.8646 27.1668 25.8472 27.1668 27V28.6667H28.0002C28.4585 28.6667 28.8509 28.8299 29.1772 29.1563C29.5036 29.4826 29.6668 29.875 29.6668 30.3333V38.6667C29.6668 39.125 29.5036 39.5174 29.1772 39.8438C28.8509 40.1701 28.4585 40.3333 28.0002 40.3333H18.0002ZM18.0002 38.6667H28.0002V30.3333H18.0002V38.6667ZM23.0002 36.1667C23.4585 36.1667 23.8509 36.0035 24.1772 35.6771C24.5036 35.3507 24.6668 34.9583 24.6668 34.5C24.6668 34.0417 24.5036 33.6493 24.1772 33.3229C23.8509 32.9965 23.4585 32.8333 23.0002 32.8333C22.5418 32.8333 22.1495 32.9965 21.8231 33.3229C21.4967 33.6493 21.3335 34.0417 21.3335 34.5C21.3335 34.9583 21.4967 35.3507 21.8231 35.6771C22.1495 36.0035 22.5418 36.1667 23.0002 36.1667ZM20.5002 28.6667H25.5002V27C25.5002 26.3056 25.2571 25.7153 24.771 25.2292C24.2849 24.7431 23.6946 24.5 23.0002 24.5C22.3057 24.5 21.7154 24.7431 21.2293 25.2292C20.7432 25.7153 20.5002 26.3056 20.5002 27V28.6667Z" fill="white"/>
<rect x="42" y="17" width="30" height="30" rx="8" fill="#22C55E"/>
<path d="M52.0002 40.3333C51.5418 40.3333 51.1495 40.1701 50.8231 39.8438C50.4967 39.5174 50.3335 39.125 50.3335 38.6667V30.3333C50.3335 29.875 50.4967 29.4826 50.8231 29.1563C51.1495 28.8299 51.5418 28.6667 52.0002 28.6667H52.8335V27C52.8335 25.8472 53.2397 24.8646 54.0522 24.0521C54.8647 23.2396 55.8474 22.8333 57.0002 22.8333C58.1529 22.8333 59.1356 23.2396 59.9481 24.0521C60.7606 24.8646 61.1668 25.8472 61.1668 27V28.6667H62.0002C62.4585 28.6667 62.8509 28.8299 63.1772 29.1563C63.5036 29.4826 63.6668 29.875 63.6668 30.3333V38.6667C63.6668 39.125 63.5036 39.5174 63.1772 39.8438C62.8509 40.1701 62.4585 40.3333 62.0002 40.3333H52.0002ZM52.0002 38.6667H62.0002V30.3333H52.0002V38.6667ZM57.0002 36.1667C57.4585 36.1667 57.8509 36.0035 58.1772 35.6771C58.5036 35.3507 58.6668 34.9583 58.6668 34.5C58.6668 34.0417 58.5036 33.6493 58.1772 33.3229C57.8509 32.9965 57.4585 32.8333 57.0002 32.8333C56.5418 32.8333 56.1495 32.9965 55.8231 33.3229C55.4967 33.6493 55.3335 34.0417 55.3335 34.5C55.3335 34.9583 55.4967 35.3507 55.8231 35.6771C56.1495 36.0035 56.5418 36.1667 57.0002 36.1667ZM54.5002 28.6667H59.5002V27C59.5002 26.3056 59.2571 25.7153 58.771 25.2292C58.2849 24.7431 57.6946 24.5 57.0002 24.5C56.3057 24.5 55.7154 24.7431 55.2293 25.2292C54.7432 25.7153 54.5002 26.3056 54.5002 27V28.6667Z" fill="white"/>
<rect x="76" y="17" width="30" height="30" rx="8" fill="#F3F4F6"/>
<path d="M86.0002 40.3333C85.5418 40.3333 85.1495 40.1701 84.8231 39.8438C84.4967 39.5174 84.3335 39.125 84.3335 38.6667V30.3333C84.3335 29.875 84.4967 29.4826 84.8231 29.1563C85.1495 28.8299 85.5418 28.6667 86.0002 28.6667H86.8335V27C86.8335 25.8472 87.2397 24.8646 88.0522 24.0521C88.8647 23.2396 89.8474 22.8333 91.0002 22.8333C92.1529 22.8333 93.1356 23.2396 93.9481 24.0521C94.7606 24.8646 95.1668 25.8472 95.1668 27V28.6667H96.0002C96.4585 28.6667 96.8509 28.8299 97.1772 29.1563C97.5036 29.4826 97.6668 29.875 97.6668 30.3333V38.6667C97.6668 39.125 97.5036 39.5174 97.1772 39.8438C96.8509 40.1701 96.4585 40.3333 96.0002 40.3333H86.0002ZM86.0002 38.6667H96.0002V30.3333H86.0002V38.6667ZM91.0002 36.1667C91.4585 36.1667 91.8509 36.0035 92.1772 35.6771C92.5036 35.3507 92.6668 34.9583 92.6668 34.5C92.6668 34.0417 92.5036 33.6493 92.1772 33.3229C91.8509 32.9965 91.4585 32.8333 91.0002 32.8333C90.5418 32.8333 90.1495 32.9965 89.8231 33.3229C89.4967 33.6493 89.3335 34.0417 89.3335 34.5C89.3335 34.9583 89.4967 35.3507 89.8231 35.6771C90.1495 36.0035 90.5418 36.1667 91.0002 36.1667ZM88.5002 28.6667H93.5002V27C93.5002 26.3056 93.2571 25.7153 92.771 25.2292C92.2849 24.7431 91.6946 24.5 91.0002 24.5C90.3057 24.5 89.7154 24.7431 89.2293 25.2292C88.7432 25.7153 88.5002 26.3056 88.5002 27V28.6667Z" fill="white"/>
</svg>
