<?xml version="1.0" encoding="us-ascii" standalone="no"?><svg xmlns="http://www.w3.org/2000/svg" xmlns:xlink="http://www.w3.org/1999/xlink" contentStyleType="text/css" height="1086px" preserveAspectRatio="none" style="width:1109px;height:1086px;" version="1.1" viewBox="0 0 1109 1086" width="1109px" zoomAndPan="magnify"><defs/><g><text fill="#000000" font-family="Inter" font-size="14" font-weight="bold" lengthAdjust="spacing" textLength="305" x="404" y="27.9951">Device Link based Authentication Flow</text><rect fill="#D2E4F4" height="986.5313" style="stroke:#989898;stroke-width:1.0;" width="10" x="188" y="83.5938"/><rect fill="#D2E4F4" height="986.5313" style="stroke:#989898;stroke-width:1.0;" width="10" x="422" y="83.5938"/><rect fill="#D2E4F4" height="774.6016" style="stroke:#989898;stroke-width:1.0;" width="10" x="776" y="184.125"/><rect fill="#D2E4F4" height="236.9297" style="stroke:#989898;stroke-width:1.0;" width="10" x="904" y="466.2578"/><rect fill="none" height="179.6016" rx="3.5" ry="3.5" style="stroke:#989898;stroke-width:1.0;" width="370.5" x="125" y="243.3906"/><rect fill="none" height="75.3984" rx="3.5" ry="3.5" style="stroke:#989898;stroke-width:1.0;" width="350.5" x="135" y="267.5234"/><rect fill="none" height="117.5313" rx="3.5" ry="3.5" style="stroke:#989898;stroke-width:1.0;" width="804.5" x="135" y="664.9219"/><rect fill="none" height="194.4063" rx="3.5" ry="3.5" style="stroke:#989898;stroke-width:1.0;" width="471.5" x="358.5" y="796.4531"/><rect fill="none" height="134.1406" rx="3.5" ry="3.5" style="stroke:#989898;stroke-width:1.0;" width="451.5" x="368.5" y="849.7188"/><line style="stroke:#989898;stroke-width:0.5;stroke-dasharray:5.0,5.0;" x1="193" x2="193" y1="73.5938" y2="1079.125"/><line style="stroke:#989898;stroke-width:0.5;stroke-dasharray:5.0,5.0;" x1="426.5" x2="426.5" y1="73.5938" y2="1079.125"/><line style="stroke:#989898;stroke-width:0.5;stroke-dasharray:5.0,5.0;" x1="781" x2="781" y1="73.5938" y2="1079.125"/><line style="stroke:#989898;stroke-width:0.5;stroke-dasharray:5.0,5.0;" x1="908.5" x2="908.5" y1="73.5938" y2="1079.125"/><rect fill="#A5C8E8" height="30.2969" rx="3.5" ry="3.5" style="stroke:#202020;stroke-width:1.5;" width="96" x="145" y="42.2969"/><text fill="#202020" font-family="Inter" font-size="14" lengthAdjust="spacing" textLength="82" x="152" y="62.292">RP frontend</text><rect fill="#A5C8E8" height="30.2969" rx="3.5" ry="3.5" style="stroke:#202020;stroke-width:1.5;" width="97" x="378.5" y="42.2969"/><text fill="#202020" font-family="Inter" font-size="14" lengthAdjust="spacing" textLength="83" x="385.5" y="62.292">RP backend</text><rect fill="#A5C8E8" height="30.2969" rx="3.5" ry="3.5" style="stroke:#202020;stroke-width:1.5;" width="58" x="752" y="42.2969"/><text fill="#202020" font-family="Inter" font-size="14" lengthAdjust="spacing" textLength="44" x="759" y="62.292">RP API</text><rect fill="#A5C8E8" height="30.2969" rx="3.5" ry="3.5" style="stroke:#202020;stroke-width:1.5;" width="41" x="888.5" y="42.2969"/><text fill="#202020" font-family="Inter" font-size="14" lengthAdjust="spacing" textLength="27" x="895.5" y="62.292">App</text><rect fill="#D2E4F4" height="986.5313" style="stroke:#989898;stroke-width:1.0;" width="10" x="188" y="83.5938"/><rect fill="#D2E4F4" height="986.5313" style="stroke:#989898;stroke-width:1.0;" width="10" x="422" y="83.5938"/><rect fill="#D2E4F4" height="774.6016" style="stroke:#989898;stroke-width:1.0;" width="10" x="776" y="184.125"/><rect fill="#D2E4F4" height="236.9297" style="stroke:#989898;stroke-width:1.0;" width="10" x="904" y="466.2578"/><path d="M5,92.0938 L5,125.0938 A3.5,3.5 0 0 0 8.5,128.5938 L378.5,128.5938 A3.5,3.5 0 0 0 382,125.0938 L382,98.5938 L372,88.5938 L8.5,88.5938 A3.5,3.5 0 0 0 5,92.0938 " fill="#DFDFDF" style="stroke:#202020;stroke-width:1.5;"/><path d="M372,88.5938 L372,96.8438 A1.75,1.75 0 0 0 373.75,98.5938 L382,98.5938 L372,88.5938 " fill="#DFDFDF" style="stroke:#202020;stroke-width:1.5;"/><text fill="#202020" font-family="Inter" font-size="13" lengthAdjust="spacing" textLength="310" x="11" y="105.6606">User initiates a login on a website or mobile app.</text><text fill="#202020" font-family="Inter" font-size="13" lengthAdjust="spacing" textLength="356" x="11" y="120.7935">Inserting ID code is optional depending on the RP setup.</text><polygon fill="#202020" points="410,150.9922,420,154.9922,410,158.9922" style="stroke:#202020;stroke-width:1.0;"/><line style="stroke:#202020;stroke-width:1.0;" x1="198" x2="416" y1="154.9922" y2="154.9922"/><text fill="#000000" font-family="Inter" font-size="13" font-weight="bold" lengthAdjust="spacing" textLength="9" x="246" y="149.9263">1</text><text fill="#000000" font-family="Inter" font-size="13" lengthAdjust="spacing" textLength="52" x="259" y="149.9263">Request</text><text fill="#000000" font-family="Inter" font-size="13" lengthAdjust="spacing" textLength="4" x="311" y="149.9263">&#160;</text><text fill="#000000" font-family="Inter" font-size="13" lengthAdjust="spacing" textLength="25" x="315" y="149.9263">new</text><text fill="#000000" font-family="Inter" font-size="13" lengthAdjust="spacing" textLength="4" x="340" y="149.9263">&#160;</text><text fill="#000000" font-family="Inter" font-size="13" lengthAdjust="spacing" textLength="30" x="344" y="149.9263">login</text><polygon fill="#202020" points="764,180.125,774,184.125,764,188.125" style="stroke:#202020;stroke-width:1.0;"/><line style="stroke:#202020;stroke-width:1.0;" x1="432" x2="770" y1="184.125" y2="184.125"/><text fill="#000000" font-family="Inter" font-size="13" font-weight="bold" lengthAdjust="spacing" textLength="9" x="441.5" y="179.0591">2</text><text fill="#000000" font-family="monospace" font-size="13" lengthAdjust="spacing" textLength="32" x="454.5" y="179.0591">POST</text><text fill="#000000" font-family="monospace" font-size="13" lengthAdjust="spacing" textLength="8" x="486.5" y="179.0591">&#160;</text><text fill="#000000" font-family="monospace" font-size="13" lengthAdjust="spacing" textLength="272" x="494.5" y="179.0591">/v3/authentication/device-link/...</text><polygon fill="#202020" points="443,192.125,433,196.125,443,200.125" style="stroke:#202020;stroke-width:1.0;"/><line style="stroke:#202020;stroke-width:1.0;stroke-dasharray:2.0,2.0;" x1="437" x2="775" y1="196.125" y2="196.125"/><text fill="#000000" font-family="Inter" font-size="13" font-weight="bold" lengthAdjust="spacing" textLength="9" x="451.5" y="216.7583">3</text><text fill="#000000" font-family="monospace" font-size="13" lengthAdjust="spacing" textLength="72" x="464.5" y="209.1919">sessionID</text><text fill="#000000" font-family="Inter" font-size="13" lengthAdjust="spacing" textLength="4" x="536.5" y="209.1919">,</text><text fill="#000000" font-family="Inter" font-size="13" lengthAdjust="spacing" textLength="4" x="540.5" y="209.1919">&#160;</text><text fill="#000000" font-family="monospace" font-size="13" lengthAdjust="spacing" textLength="96" x="544.5" y="209.1919">sessionToken</text><text fill="#000000" font-family="Inter" font-size="13" lengthAdjust="spacing" textLength="4" x="640.5" y="209.1919">,</text><text fill="#000000" font-family="Inter" font-size="13" lengthAdjust="spacing" textLength="4" x="644.5" y="209.1919">&#160;</text><text fill="#000000" font-family="monospace" font-size="13" lengthAdjust="spacing" textLength="104" x="648.5" y="209.1919">sessionSecret</text><text fill="#000000" font-family="Inter" font-size="13" lengthAdjust="spacing" textLength="4" x="752.5" y="209.1919">,</text><text fill="#000000" font-family="monospace" font-size="13" lengthAdjust="spacing" textLength="112" x="554.5" y="224.3247">deviceLinkBase</text><path d="M128.5,243.3906 L189,243.3906 L189,250.5234 L179,260.5234 L125,260.5234 L125,246.8906 A3.5,3.5 0 0 1 128.5,243.3906 " fill="#EEEEEE" style="stroke:#989898;stroke-width:1.5;"/><rect fill="none" height="179.6016" rx="3.5" ry="3.5" style="stroke:#989898;stroke-width:1.0;" width="370.5" x="125" y="243.3906"/><text fill="#202020" font-family="Inter" font-size="13" font-weight="bold" lengthAdjust="spacing" textLength="19" x="140" y="256.4575">alt</text><text fill="#989898" font-family="Inter" font-size="11" font-weight="bold" lengthAdjust="spacing" textLength="222" x="204" y="255.6011">[Cross-device use-case (QR code)]</text><path d="M138.5,267.5234 L212,267.5234 L212,274.6563 L202,284.6563 L135,284.6563 L135,271.0234 A3.5,3.5 0 0 1 138.5,267.5234 " fill="#EEEEEE" style="stroke:#989898;stroke-width:1.5;"/><rect fill="none" height="75.3984" rx="3.5" ry="3.5" style="stroke:#989898;stroke-width:1.0;" width="350.5" x="135" y="267.5234"/><text fill="#202020" font-family="Inter" font-size="13" font-weight="bold" lengthAdjust="spacing" textLength="32" x="150" y="280.5903">loop</text><text fill="#989898" font-family="Inter" font-size="11" font-weight="bold" lengthAdjust="spacing" textLength="202" x="227" y="279.7339">[until user interacts or timeout]</text><polygon fill="#202020" points="410,301.7891,420,305.7891,410,309.7891" style="stroke:#202020;stroke-width:1.0;"/><line style="stroke:#202020;stroke-width:1.0;" x1="198" x2="416" y1="305.7891" y2="305.7891"/><text fill="#000000" font-family="Inter" font-size="13" font-weight="bold" lengthAdjust="spacing" textLength="9" x="210" y="300.7231">4</text><text fill="#000000" font-family="Inter" font-size="13" lengthAdjust="spacing" textLength="52" x="223" y="300.7231">Request</text><text fill="#000000" font-family="Inter" font-size="13" lengthAdjust="spacing" textLength="4" x="275" y="300.7231">&#160;</text><text fill="#000000" font-family="Inter" font-size="13" lengthAdjust="spacing" textLength="17" x="279" y="300.7231">for</text><text fill="#000000" font-family="Inter" font-size="13" lengthAdjust="spacing" textLength="4" x="296" y="300.7231">&#160;</text><text fill="#000000" font-family="Inter" font-size="13" lengthAdjust="spacing" textLength="53" x="300" y="300.7231">updated</text><text fill="#000000" font-family="Inter" font-size="13" lengthAdjust="spacing" textLength="4" x="353" y="300.7231">&#160;</text><text fill="#000000" font-family="Inter" font-size="13" lengthAdjust="spacing" textLength="18" x="357" y="300.7231">QR</text><text fill="#000000" font-family="Inter" font-size="13" lengthAdjust="spacing" textLength="4" x="375" y="300.7231">&#160;</text><text fill="#000000" font-family="Inter" font-size="13" lengthAdjust="spacing" textLength="31" x="379" y="300.7231">code</text><polygon fill="#202020" points="209,313.7891,199,317.7891,209,321.7891" style="stroke:#202020;stroke-width:1.0;"/><line style="stroke:#202020;stroke-width:1.0;stroke-dasharray:2.0,2.0;" x1="203" x2="421" y1="317.7891" y2="317.7891"/><text fill="#000000" font-family="Inter" font-size="13" font-weight="bold" lengthAdjust="spacing" textLength="9" x="223" y="330.856">5</text><text fill="#000000" font-family="Inter" font-size="13" lengthAdjust="spacing" textLength="47" x="236" y="330.856">Provide</text><text fill="#000000" font-family="Inter" font-size="13" lengthAdjust="spacing" textLength="4" x="283" y="330.856">&#160;</text><text fill="#000000" font-family="Inter" font-size="13" lengthAdjust="spacing" textLength="53" x="287" y="330.856">updated</text><text fill="#000000" font-family="Inter" font-size="13" lengthAdjust="spacing" textLength="4" x="340" y="330.856">&#160;</text><text fill="#000000" font-family="Inter" font-size="13" lengthAdjust="spacing" textLength="18" x="344" y="330.856">QR</text><text fill="#000000" font-family="Inter" font-size="13" lengthAdjust="spacing" textLength="4" x="362" y="330.856">&#160;</text><text fill="#000000" font-family="Inter" font-size="13" lengthAdjust="spacing" textLength="31" x="366" y="330.856">code</text><line style="stroke:#989898;stroke-width:1.0;stroke-dasharray:2.0,2.0;" x1="125" x2="495.5" y1="350.9219" y2="350.9219"/><text fill="#989898" font-family="Inter" font-size="11" font-weight="bold" lengthAdjust="spacing" textLength="306" x="130" y="361.1323">[Same-device use-case (Web2App or App2App)]</text><polygon fill="#202020" points="410,381.8594,420,385.8594,410,389.8594" style="stroke:#202020;stroke-width:1.0;"/><line style="stroke:#202020;stroke-width:1.0;" x1="198" x2="416" y1="385.8594" y2="385.8594"/><text fill="#000000" font-family="Inter" font-size="13" font-weight="bold" lengthAdjust="spacing" textLength="9" x="242.5" y="380.7935">6</text><text fill="#000000" font-family="Inter" font-size="13" lengthAdjust="spacing" textLength="52" x="255.5" y="380.7935">Request</text><text fill="#000000" font-family="Inter" font-size="13" lengthAdjust="spacing" textLength="4" x="307.5" y="380.7935">&#160;</text><text fill="#000000" font-family="Inter" font-size="13" lengthAdjust="spacing" textLength="41" x="311.5" y="380.7935">device</text><text fill="#000000" font-family="Inter" font-size="13" lengthAdjust="spacing" textLength="4" x="352.5" y="380.7935">&#160;</text><text fill="#000000" font-family="Inter" font-size="13" lengthAdjust="spacing" textLength="21" x="356.5" y="380.7935">link</text><polygon fill="#202020" points="209,393.8594,199,397.8594,209,401.8594" style="stroke:#202020;stroke-width:1.0;"/><line style="stroke:#202020;stroke-width:1.0;stroke-dasharray:2.0,2.0;" x1="203" x2="421" y1="397.8594" y2="397.8594"/><text fill="#000000" font-family="Inter" font-size="13" font-weight="bold" lengthAdjust="spacing" textLength="9" x="249" y="410.9263">7</text><text fill="#000000" font-family="Inter" font-size="13" lengthAdjust="spacing" textLength="84" x="262" y="410.9263">Same-device</text><text fill="#000000" font-family="Inter" font-size="13" lengthAdjust="spacing" textLength="4" x="346" y="410.9263">&#160;</text><text fill="#000000" font-family="Inter" font-size="13" lengthAdjust="spacing" textLength="21" x="350" y="410.9263">link</text><polygon fill="#202020" points="892,462.2578,902,466.2578,892,470.2578" style="stroke:#202020;stroke-width:1.0;"/><line style="stroke:#202020;stroke-width:1.0;" x1="198" x2="898" y1="466.2578" y2="466.2578"/><text fill="#000000" font-family="Inter" font-size="13" font-weight="bold" lengthAdjust="spacing" textLength="9" x="384" y="453.6255">8</text><text fill="#000000" font-family="Inter" font-size="13" lengthAdjust="spacing" textLength="30" x="397" y="446.0591">User</text><text fill="#000000" font-family="Inter" font-size="13" lengthAdjust="spacing" textLength="4" x="427" y="446.0591">&#160;</text><text fill="#000000" font-family="Inter" font-size="13" lengthAdjust="spacing" textLength="37" x="431" y="446.0591">scans</text><text fill="#000000" font-family="Inter" font-size="13" lengthAdjust="spacing" textLength="4" x="468" y="446.0591">&#160;</text><text fill="#000000" font-family="Inter" font-size="13" lengthAdjust="spacing" textLength="21" x="472" y="446.0591">the</text><text fill="#000000" font-family="Inter" font-size="13" lengthAdjust="spacing" textLength="4" x="493" y="446.0591">&#160;</text><text fill="#000000" font-family="Inter" font-size="13" lengthAdjust="spacing" textLength="18" x="497" y="446.0591">QR</text><text fill="#000000" font-family="Inter" font-size="13" lengthAdjust="spacing" textLength="4" x="515" y="446.0591">&#160;</text><text fill="#000000" font-family="Inter" font-size="13" lengthAdjust="spacing" textLength="31" x="519" y="446.0591">code</text><text fill="#000000" font-family="Inter" font-size="13" lengthAdjust="spacing" textLength="4" x="550" y="446.0591">&#160;</text><text fill="#000000" font-family="Inter" font-size="13" lengthAdjust="spacing" textLength="13" x="554" y="446.0591">or</text><text fill="#000000" font-family="Inter" font-size="13" lengthAdjust="spacing" textLength="4" x="567" y="446.0591">&#160;</text><text fill="#000000" font-family="Inter" font-size="13" lengthAdjust="spacing" textLength="34" x="571" y="446.0591">clicks</text><text fill="#000000" font-family="Inter" font-size="13" lengthAdjust="spacing" textLength="4" x="605" y="446.0591">&#160;</text><text fill="#000000" font-family="Inter" font-size="13" lengthAdjust="spacing" textLength="16" x="609" y="446.0591">on</text><text fill="#000000" font-family="Inter" font-size="13" lengthAdjust="spacing" textLength="4" x="625" y="446.0591">&#160;</text><text fill="#000000" font-family="Inter" font-size="13" lengthAdjust="spacing" textLength="8" x="629" y="446.0591">a</text><text fill="#000000" font-family="Inter" font-size="13" lengthAdjust="spacing" textLength="4" x="637" y="446.0591">&#160;</text><text fill="#000000" font-family="Inter" font-size="13" lengthAdjust="spacing" textLength="60" x="641" y="446.0591">Web2App</text><text fill="#000000" font-family="Inter" font-size="13" lengthAdjust="spacing" textLength="4" x="701" y="446.0591">&#160;</text><text fill="#000000" font-family="Inter" font-size="13" lengthAdjust="spacing" textLength="13" x="705" y="446.0591">or</text><text fill="#000000" font-family="Inter" font-size="13" lengthAdjust="spacing" textLength="58" x="516" y="461.1919">App2App</text><text fill="#000000" font-family="Inter" font-size="13" lengthAdjust="spacing" textLength="4" x="574" y="461.1919">&#160;</text><text fill="#000000" font-family="Inter" font-size="13" lengthAdjust="spacing" textLength="21" x="578" y="461.1919">link</text><line style="stroke:#202020;stroke-width:1.0;" x1="914" x2="956" y1="495.3906" y2="495.3906"/><line style="stroke:#202020;stroke-width:1.0;" x1="956" x2="956" y1="495.3906" y2="508.3906"/><line style="stroke:#202020;stroke-width:1.0;" x1="915" x2="956" y1="508.3906" y2="508.3906"/><polygon fill="#202020" points="925,504.3906,915,508.3906,925,512.3906" style="stroke:#202020;stroke-width:1.0;"/><text fill="#000000" font-family="Inter" font-size="13" font-weight="bold" lengthAdjust="spacing" textLength="9" x="921" y="490.3247">9</text><text fill="#000000" font-family="Inter" font-size="13" lengthAdjust="spacing" textLength="52" x="934" y="490.3247">Validate</text><text fill="#000000" font-family="Inter" font-size="13" lengthAdjust="spacing" textLength="4" x="986" y="490.3247">&#160;</text><text fill="#000000" font-family="Inter" font-size="13" lengthAdjust="spacing" textLength="21" x="990" y="490.3247">the</text><text fill="#000000" font-family="Inter" font-size="13" lengthAdjust="spacing" textLength="4" x="1011" y="490.3247">&#160;</text><text fill="#000000" font-family="Inter" font-size="13" lengthAdjust="spacing" textLength="41" x="1015" y="490.3247">device</text><text fill="#000000" font-family="Inter" font-size="13" lengthAdjust="spacing" textLength="4" x="1056" y="490.3247">&#160;</text><text fill="#000000" font-family="Inter" font-size="13" lengthAdjust="spacing" textLength="21" x="1060" y="490.3247">link</text><path d="M581,524.8906 L581,542.8906 A3.5,3.5 0 0 0 584.5,546.3906 L976.5,546.3906 A3.5,3.5 0 0 0 980,542.8906 L980,531.3906 L970,521.3906 L584.5,521.3906 A3.5,3.5 0 0 0 581,524.8906 " fill="#DFDFDF" style="stroke:#202020;stroke-width:1.5;"/><path d="M970,521.3906 L970,529.6406 A1.75,1.75 0 0 0 971.75,531.3906 L980,531.3906 L970,521.3906 " fill="#DFDFDF" style="stroke:#202020;stroke-width:1.5;"/><text fill="#202020" font-family="Inter" font-size="13" lengthAdjust="spacing" textLength="378" x="587" y="538.4575">In non-anonymous flows, the personal code is verified here.</text><line style="stroke:#202020;stroke-width:1.0;" x1="914" x2="956" y1="572.6563" y2="572.6563"/><line style="stroke:#202020;stroke-width:1.0;" x1="956" x2="956" y1="572.6563" y2="585.6563"/><line style="stroke:#202020;stroke-width:1.0;" x1="915" x2="956" y1="585.6563" y2="585.6563"/><polygon fill="#202020" points="925,581.6563,915,585.6563,925,589.6563" style="stroke:#202020;stroke-width:1.0;"/><text fill="#000000" font-family="Inter" font-size="13" font-weight="bold" lengthAdjust="spacing" textLength="18" x="921" y="567.5903">10</text><text fill="#000000" font-family="Inter" font-size="13" lengthAdjust="spacing" textLength="46" x="943" y="567.5903">Display</text><text fill="#000000" font-family="Inter" font-size="13" lengthAdjust="spacing" textLength="4" x="989" y="567.5903">&#160;</text><text fill="#000000" font-family="Inter" font-size="13" lengthAdjust="spacing" textLength="92" x="993" y="567.5903">authentication</text><text fill="#000000" font-family="Inter" font-size="13" lengthAdjust="spacing" textLength="4" x="1085" y="567.5903">&#160;</text><text fill="#000000" font-family="Inter" font-size="13" lengthAdjust="spacing" textLength="13" x="1089" y="567.5903">UI</text><path d="M810,602.1563 L810,620.1563 A3.5,3.5 0 0 0 813.5,623.6563 L1003.5,623.6563 A3.5,3.5 0 0 0 1007,620.1563 L1007,608.6563 L997,598.6563 L813.5,598.6563 A3.5,3.5 0 0 0 810,602.1563 " fill="#DFDFDF" style="stroke:#202020;stroke-width:1.5;"/><path d="M997,598.6563 L997,606.9063 A1.75,1.75 0 0 0 998.75,608.6563 L1007,608.6563 L997,598.6563 " fill="#DFDFDF" style="stroke:#202020;stroke-width:1.5;"/><text fill="#202020" font-family="Inter" font-size="13" lengthAdjust="spacing" textLength="176" x="816" y="615.7231">User enters the PIN 1 code.</text><polygon fill="#202020" points="797,645.9219,787,649.9219,797,653.9219" style="stroke:#202020;stroke-width:1.0;"/><line style="stroke:#202020;stroke-width:1.0;" x1="791" x2="903" y1="649.9219" y2="649.9219"/><text fill="#000000" font-family="Inter" font-size="13" font-weight="bold" lengthAdjust="spacing" textLength="18" x="798" y="644.856">11</text><text fill="#000000" font-family="monospace" font-size="13" lengthAdjust="spacing" textLength="72" x="820" y="644.856">signature</text><path d="M138.5,664.9219 L205,664.9219 L205,672.0547 L195,682.0547 L135,682.0547 L135,668.4219 A3.5,3.5 0 0 1 138.5,664.9219 " fill="#EEEEEE" style="stroke:#989898;stroke-width:1.5;"/><rect fill="none" height="117.5313" rx="3.5" ry="3.5" style="stroke:#989898;stroke-width:1.0;" width="804.5" x="135" y="664.9219"/><text fill="#202020" font-family="Inter" font-size="13" font-weight="bold" lengthAdjust="spacing" textLength="25" x="150" y="677.9888">opt</text><text fill="#989898" font-family="Inter" font-size="11" font-weight="bold" lengthAdjust="spacing" textLength="306" x="220" y="677.1323">[Same-device use-case (Web2App or App2App)]</text><polygon fill="#202020" points="209,699.1875,199,703.1875,209,707.1875" style="stroke:#202020;stroke-width:1.0;"/><line style="stroke:#202020;stroke-width:1.0;" x1="203" x2="908" y1="703.1875" y2="703.1875"/><text fill="#000000" font-family="Inter" font-size="13" font-weight="bold" lengthAdjust="spacing" textLength="18" x="450" y="698.1216">12</text><text fill="#000000" font-family="Inter" font-size="13" lengthAdjust="spacing" textLength="52" x="472" y="698.1216">Redirect</text><text fill="#000000" font-family="Inter" font-size="13" lengthAdjust="spacing" textLength="4" x="524" y="698.1216">&#160;</text><text fill="#000000" font-family="Inter" font-size="13" lengthAdjust="spacing" textLength="28" x="528" y="698.1216">user</text><text fill="#000000" font-family="Inter" font-size="13" lengthAdjust="spacing" textLength="4" x="556" y="698.1216">&#160;</text><text fill="#000000" font-family="Inter" font-size="13" lengthAdjust="spacing" textLength="13" x="560" y="698.1216">to</text><text fill="#000000" font-family="Inter" font-size="13" lengthAdjust="spacing" textLength="4" x="573" y="698.1216">&#160;</text><text fill="#000000" font-family="Inter" font-size="13" lengthAdjust="spacing" textLength="51" x="577" y="698.1216">callback</text><text fill="#000000" font-family="Inter" font-size="13" lengthAdjust="spacing" textLength="4" x="628" y="698.1216">&#160;</text><text fill="#000000" font-family="Inter" font-size="13" lengthAdjust="spacing" textLength="25" x="632" y="698.1216">URL</text><polygon fill="#202020" points="410,728.3203,420,732.3203,410,736.3203" style="stroke:#202020;stroke-width:1.0;"/><line style="stroke:#202020;stroke-width:1.0;" x1="198" x2="416" y1="732.3203" y2="732.3203"/><text fill="#000000" font-family="Inter" font-size="13" font-weight="bold" lengthAdjust="spacing" textLength="18" x="213" y="727.2544">13</text><text fill="#000000" font-family="Inter" font-size="13" lengthAdjust="spacing" textLength="52" x="235" y="727.2544">Request</text><text fill="#000000" font-family="Inter" font-size="13" lengthAdjust="spacing" textLength="4" x="287" y="727.2544">&#160;</text><text fill="#000000" font-family="Inter" font-size="13" lengthAdjust="spacing" textLength="51" x="291" y="727.2544">callback</text><text fill="#000000" font-family="Inter" font-size="13" lengthAdjust="spacing" textLength="4" x="342" y="727.2544">&#160;</text><text fill="#000000" font-family="Inter" font-size="13" lengthAdjust="spacing" textLength="61" x="346" y="727.2544">validation</text><line style="stroke:#202020;stroke-width:1.0;" x1="432" x2="474" y1="761.4531" y2="761.4531"/><line style="stroke:#202020;stroke-width:1.0;" x1="474" x2="474" y1="761.4531" y2="774.4531"/><line style="stroke:#202020;stroke-width:1.0;" x1="433" x2="474" y1="774.4531" y2="774.4531"/><polygon fill="#202020" points="443,770.4531,433,774.4531,443,778.4531" style="stroke:#202020;stroke-width:1.0;"/><text fill="#000000" font-family="Inter" font-size="13" font-weight="bold" lengthAdjust="spacing" textLength="18" x="439" y="756.3872">14</text><text fill="#000000" font-family="Inter" font-size="13" lengthAdjust="spacing" textLength="52" x="461" y="756.3872">Validate</text><text fill="#000000" font-family="Inter" font-size="13" lengthAdjust="spacing" textLength="4" x="513" y="756.3872">&#160;</text><text fill="#000000" font-family="Inter" font-size="13" lengthAdjust="spacing" textLength="51" x="517" y="756.3872">callback</text><path d="M362,796.4531 L435.5,796.4531 L435.5,803.5859 L425.5,813.5859 L358.5,813.5859 L358.5,799.9531 A3.5,3.5 0 0 1 362,796.4531 " fill="#EEEEEE" style="stroke:#989898;stroke-width:1.5;"/><rect fill="none" height="194.4063" rx="3.5" ry="3.5" style="stroke:#989898;stroke-width:1.0;" width="471.5" x="358.5" y="796.4531"/><text fill="#202020" font-family="Inter" font-size="13" font-weight="bold" lengthAdjust="spacing" textLength="32" x="373.5" y="809.52">loop</text><text fill="#989898" font-family="Inter" font-size="11" font-weight="bold" lengthAdjust="spacing" textLength="227" x="450.5" y="808.6636">[until signature completed or error]</text><polygon fill="#202020" points="764,830.7188,774,834.7188,764,838.7188" style="stroke:#202020;stroke-width:1.0;"/><line style="stroke:#202020;stroke-width:1.0;" x1="432" x2="770" y1="834.7188" y2="834.7188"/><text fill="#000000" font-family="Inter" font-size="13" font-weight="bold" lengthAdjust="spacing" textLength="18" x="485" y="829.6528">15</text><text fill="#000000" font-family="monospace" font-size="13" lengthAdjust="spacing" textLength="24" x="507" y="829.6528">GET</text><text fill="#000000" font-family="monospace" font-size="13" lengthAdjust="spacing" textLength="8" x="531" y="829.6528">&#160;</text><text fill="#000000" font-family="monospace" font-size="13" lengthAdjust="spacing" textLength="184" x="539" y="829.6528">/v3/session/{sessionID}</text><path d="M372,849.7188 L432.5,849.7188 L432.5,856.8516 L422.5,866.8516 L368.5,866.8516 L368.5,853.2188 A3.5,3.5 0 0 1 372,849.7188 " fill="#EEEEEE" style="stroke:#989898;stroke-width:1.5;"/><rect fill="none" height="134.1406" rx="3.5" ry="3.5" style="stroke:#989898;stroke-width:1.0;" width="451.5" x="368.5" y="849.7188"/><text fill="#202020" font-family="Inter" font-size="13" font-weight="bold" lengthAdjust="spacing" textLength="19" x="383.5" y="862.7856">alt</text><text fill="#989898" font-family="Inter" font-size="11" font-weight="bold" lengthAdjust="spacing" textLength="127" x="447.5" y="861.9292">[signature pending]</text><polygon fill="#202020" points="443,866.8516,433,870.8516,443,874.8516" style="stroke:#202020;stroke-width:1.0;"/><line style="stroke:#202020;stroke-width:1.0;stroke-dasharray:2.0,2.0;" x1="437" x2="775" y1="870.8516" y2="870.8516"/><text fill="#000000" font-family="Inter" font-size="13" font-weight="bold" lengthAdjust="spacing" textLength="18" x="537" y="883.9185">16</text><text fill="#000000" font-family="monospace" font-size="13" lengthAdjust="spacing" textLength="56" x="559" y="883.9185">session</text><text fill="#000000" font-family="monospace" font-size="13" lengthAdjust="spacing" textLength="8" x="615" y="883.9185">&#160;</text><text fill="#000000" font-family="monospace" font-size="13" lengthAdjust="spacing" textLength="48" x="623" y="883.9185">status</text><line style="stroke:#989898;stroke-width:1.0;stroke-dasharray:2.0,2.0;" x1="368.5" x2="820" y1="896.9844" y2="896.9844"/><text fill="#989898" font-family="Inter" font-size="11" font-weight="bold" lengthAdjust="spacing" textLength="121" x="373.5" y="907.1948">[error (or timeout)]</text><polygon fill="#202020" points="443,910.7891,433,914.7891,443,918.7891" style="stroke:#202020;stroke-width:1.0;"/><line style="stroke:#202020;stroke-width:1.0;stroke-dasharray:2.0,2.0;" x1="437" x2="775" y1="914.7891" y2="914.7891"/><text fill="#000000" font-family="Inter" font-size="13" font-weight="bold" lengthAdjust="spacing" textLength="18" x="573" y="927.856">17</text><text fill="#000000" font-family="monospace" font-size="13" lengthAdjust="spacing" textLength="40" x="595" y="927.856">error</text><line style="stroke:#989898;stroke-width:1.0;stroke-dasharray:2.0,2.0;" x1="368.5" x2="820" y1="940.9219" y2="940.9219"/><text fill="#989898" font-family="Inter" font-size="11" font-weight="bold" lengthAdjust="spacing" textLength="142" x="373.5" y="951.1323">[signature completed]</text><polygon fill="#202020" points="443,954.7266,433,958.7266,443,962.7266" style="stroke:#202020;stroke-width:1.0;"/><line style="stroke:#202020;stroke-width:1.0;stroke-dasharray:2.0,2.0;" x1="437" x2="780" y1="958.7266" y2="958.7266"/><text fill="#000000" font-family="Inter" font-size="13" font-weight="bold" lengthAdjust="spacing" textLength="18" x="571.5" y="971.7935">18</text><text fill="#000000" font-family="monospace" font-size="13" lengthAdjust="spacing" textLength="48" x="593.5" y="971.7935">result</text><line style="stroke:#202020;stroke-width:1.0;" x1="432" x2="474" y1="1018.9922" y2="1018.9922"/><line style="stroke:#202020;stroke-width:1.0;" x1="474" x2="474" y1="1018.9922" y2="1031.9922"/><line style="stroke:#202020;stroke-width:1.0;" x1="433" x2="474" y1="1031.9922" y2="1031.9922"/><polygon fill="#202020" points="443,1027.9922,433,1031.9922,443,1035.9922" style="stroke:#202020;stroke-width:1.0;"/><text fill="#000000" font-family="Inter" font-size="13" font-weight="bold" lengthAdjust="spacing" textLength="18" x="439" y="1013.9263">19</text><text fill="#000000" font-family="Inter" font-size="13" lengthAdjust="spacing" textLength="51" x="461" y="1013.9263">Perform</text><text fill="#000000" font-family="Inter" font-size="13" lengthAdjust="spacing" textLength="4" x="512" y="1013.9263">&#160;</text><text fill="#000000" font-family="Inter" font-size="13" lengthAdjust="spacing" textLength="59" x="516" y="1013.9263">response</text><text fill="#000000" font-family="Inter" font-size="13" lengthAdjust="spacing" textLength="4" x="575" y="1013.9263">&#160;</text><text fill="#000000" font-family="Inter" font-size="13" lengthAdjust="spacing" textLength="69" x="579" y="1013.9263">verification</text><polygon fill="#202020" points="209,1039.9922,199,1043.9922,209,1047.9922" style="stroke:#202020;stroke-width:1.0;"/><line style="stroke:#202020;stroke-width:1.0;stroke-dasharray:2.0,2.0;" x1="203" x2="421" y1="1043.9922" y2="1043.9922"/><text fill="#000000" font-family="Inter" font-size="13" font-weight="bold" lengthAdjust="spacing" textLength="18" x="230.5" y="1057.0591">20</text><text fill="#000000" font-family="Inter" font-size="13" lengthAdjust="spacing" textLength="30" x="252.5" y="1057.0591">User</text><text fill="#000000" font-family="Inter" font-size="13" lengthAdjust="spacing" textLength="4" x="282.5" y="1057.0591">&#160;</text><text fill="#000000" font-family="Inter" font-size="13" lengthAdjust="spacing" textLength="10" x="286.5" y="1057.0591">is</text><text fill="#000000" font-family="Inter" font-size="13" lengthAdjust="spacing" textLength="4" x="296.5" y="1057.0591">&#160;</text><text fill="#000000" font-family="Inter" font-size="13" lengthAdjust="spacing" textLength="89" x="300.5" y="1057.0591">authenticated</text></g></svg>