<?xml version="1.0" encoding="us-ascii" standalone="no"?><svg xmlns="http://www.w3.org/2000/svg" xmlns:xlink="http://www.w3.org/1999/xlink" contentStyleType="text/css" height="432px" preserveAspectRatio="none" style="width:728px;height:432px;" version="1.1" viewBox="0 0 728 432" width="728px" zoomAndPan="magnify"><defs/><g><text fill="#000000" font-family="Inter" font-size="14" font-weight="bold" lengthAdjust="spacing" textLength="400" x="166.25" y="27.9951">Notification based Signing Flow (Live Environment)</text><rect fill="#D2E4F4" height="333.3281" style="stroke:#989898;stroke-width:1.0;" width="10" x="95.5" y="83.5938"/><rect fill="#D2E4F4" height="333.3281" style="stroke:#989898;stroke-width:1.0;" width="10" x="319.5" y="83.5938"/><rect fill="#D2E4F4" height="105.3984" style="stroke:#989898;stroke-width:1.0;" width="10" x="564.5" y="170.9922"/><rect fill="none" height="75.3984" rx="3.5" ry="3.5" style="stroke:#989898;stroke-width:1.0;" width="353.5" x="10" y="291.3906"/><line style="stroke:#989898;stroke-width:0.5;stroke-dasharray:5.0,5.0;" x1="100" x2="100" y1="73.5938" y2="425.9219"/><line style="stroke:#989898;stroke-width:0.5;stroke-dasharray:5.0,5.0;" x1="324.5" x2="324.5" y1="73.5938" y2="425.9219"/><line style="stroke:#989898;stroke-width:0.5;stroke-dasharray:5.0,5.0;" x1="569" x2="569" y1="73.5938" y2="425.9219"/><rect fill="#A5C8E8" height="30.2969" rx="3.5" ry="3.5" style="stroke:#202020;stroke-width:1.5;" width="161" x="20" y="42.2969"/><text fill="#202020" font-family="Inter" font-size="14" lengthAdjust="spacing" textLength="147" x="27" y="62.292">RP frontend/backend</text><rect fill="#A5C8E8" height="30.2969" rx="3.5" ry="3.5" style="stroke:#202020;stroke-width:1.5;" width="58" x="295.5" y="42.2969"/><text fill="#202020" font-family="Inter" font-size="14" lengthAdjust="spacing" textLength="44" x="302.5" y="62.292">RP API</text><rect fill="#A5C8E8" height="30.2969" rx="3.5" ry="3.5" style="stroke:#202020;stroke-width:1.5;" width="41" x="549" y="42.2969"/><text fill="#202020" font-family="Inter" font-size="14" lengthAdjust="spacing" textLength="27" x="556" y="62.292">App</text><rect fill="#D2E4F4" height="333.3281" style="stroke:#989898;stroke-width:1.0;" width="10" x="95.5" y="83.5938"/><rect fill="#D2E4F4" height="333.3281" style="stroke:#989898;stroke-width:1.0;" width="10" x="319.5" y="83.5938"/><rect fill="#D2E4F4" height="105.3984" style="stroke:#989898;stroke-width:1.0;" width="10" x="564.5" y="170.9922"/><polygon fill="#202020" points="307.5,100.7266,317.5,104.7266,307.5,108.7266" style="stroke:#202020;stroke-width:1.0;"/><line style="stroke:#202020;stroke-width:1.0;" x1="105.5" x2="313.5" y1="104.7266" y2="104.7266"/><text fill="#000000" font-family="Inter" font-size="13" font-weight="bold" lengthAdjust="spacing" textLength="9" x="133.5" y="99.6606">1</text><text fill="#000000" font-family="Inter" font-size="13" lengthAdjust="spacing" textLength="43" x="146.5" y="99.6606">Create</text><text fill="#000000" font-family="Inter" font-size="13" lengthAdjust="spacing" textLength="4" x="189.5" y="99.6606">&#160;</text><text fill="#000000" font-family="Inter" font-size="13" lengthAdjust="spacing" textLength="45" x="193.5" y="99.6606">signing</text><text fill="#000000" font-family="Inter" font-size="13" lengthAdjust="spacing" textLength="4" x="238.5" y="99.6606">&#160;</text><text fill="#000000" font-family="Inter" font-size="13" lengthAdjust="spacing" textLength="49" x="242.5" y="99.6606">request</text><polygon fill="#202020" points="116.5,129.8594,106.5,133.8594,116.5,137.8594" style="stroke:#202020;stroke-width:1.0;"/><line style="stroke:#202020;stroke-width:1.0;stroke-dasharray:2.0,2.0;" x1="110.5" x2="318.5" y1="133.8594" y2="133.8594"/><text fill="#000000" font-family="Inter" font-size="13" font-weight="bold" lengthAdjust="spacing" textLength="9" x="158" y="128.7935">2</text><text fill="#000000" font-family="monospace" font-size="13" lengthAdjust="spacing" textLength="72" x="171" y="128.7935">sessionId</text><text fill="#000000" font-family="Inter" font-size="13" lengthAdjust="spacing" textLength="4" x="243" y="128.7935">,</text><text fill="#000000" font-family="Inter" font-size="13" lengthAdjust="spacing" textLength="4" x="247" y="128.7935">&#160;</text><text fill="#000000" font-family="monospace" font-size="13" lengthAdjust="spacing" textLength="16" x="251" y="128.7935">vc</text><line style="stroke:#202020;stroke-width:1.0;" x1="105.5" x2="152.5" y1="157.9922" y2="157.9922"/><line style="stroke:#202020;stroke-width:1.0;" x1="152.5" x2="152.5" y1="157.9922" y2="170.9922"/><line style="stroke:#202020;stroke-width:1.0;" x1="111.5" x2="152.5" y1="170.9922" y2="170.9922"/><polygon fill="#202020" points="121.5,166.9922,111.5,170.9922,121.5,174.9922" style="stroke:#202020;stroke-width:1.0;"/><text fill="#000000" font-family="Inter" font-size="13" font-weight="bold" lengthAdjust="spacing" textLength="9" x="117.5" y="152.9263">3</text><text fill="#000000" font-family="monospace" font-size="13" lengthAdjust="spacing" textLength="32" x="130.5" y="152.9263">Show</text><text fill="#000000" font-family="monospace" font-size="13" lengthAdjust="spacing" textLength="8" x="162.5" y="152.9263">&#160;</text><text fill="#000000" font-family="monospace" font-size="13" lengthAdjust="spacing" textLength="16" x="170.5" y="152.9263">vc</text><polygon fill="#202020" points="552.5,201.125,562.5,205.125,552.5,209.125" style="stroke:#202020;stroke-width:1.0;"/><line style="stroke:#202020;stroke-width:1.0;" x1="329.5" x2="558.5" y1="205.125" y2="205.125"/><text fill="#000000" font-family="Inter" font-size="13" font-weight="bold" lengthAdjust="spacing" textLength="9" x="388" y="200.0591">4</text><text fill="#000000" font-family="Inter" font-size="13" lengthAdjust="spacing" textLength="31" x="401" y="200.0591">Push</text><text fill="#000000" font-family="Inter" font-size="13" lengthAdjust="spacing" textLength="4" x="432" y="200.0591">&#160;</text><text fill="#000000" font-family="Inter" font-size="13" lengthAdjust="spacing" textLength="70" x="436" y="200.0591">notification</text><line style="stroke:#202020;stroke-width:1.0;" x1="574.5" x2="616.5" y1="234.2578" y2="234.2578"/><line style="stroke:#202020;stroke-width:1.0;" x1="616.5" x2="616.5" y1="234.2578" y2="247.2578"/><line style="stroke:#202020;stroke-width:1.0;" x1="575.5" x2="616.5" y1="247.2578" y2="247.2578"/><polygon fill="#202020" points="585.5,243.2578,575.5,247.2578,585.5,251.2578" style="stroke:#202020;stroke-width:1.0;"/><text fill="#000000" font-family="Inter" font-size="13" font-weight="bold" lengthAdjust="spacing" textLength="9" x="581.5" y="229.1919">5</text><text fill="#000000" font-family="Inter" font-size="13" lengthAdjust="spacing" textLength="46" x="594.5" y="229.1919">Display</text><text fill="#000000" font-family="Inter" font-size="13" lengthAdjust="spacing" textLength="4" x="640.5" y="229.1919">&#160;</text><text fill="#000000" font-family="Inter" font-size="13" lengthAdjust="spacing" textLength="60" x="644.5" y="229.1919">signature</text><text fill="#000000" font-family="Inter" font-size="13" lengthAdjust="spacing" textLength="4" x="704.5" y="229.1919">&#160;</text><text fill="#000000" font-family="Inter" font-size="13" lengthAdjust="spacing" textLength="13" x="708.5" y="229.1919">UI</text><polygon fill="#202020" points="340.5,272.3906,330.5,276.3906,340.5,280.3906" style="stroke:#202020;stroke-width:1.0;"/><line style="stroke:#202020;stroke-width:1.0;" x1="334.5" x2="568.5" y1="276.3906" y2="276.3906"/><text fill="#000000" font-family="Inter" font-size="13" font-weight="bold" lengthAdjust="spacing" textLength="9" x="344" y="271.3247">6</text><text fill="#000000" font-family="monospace" font-size="13" lengthAdjust="spacing" textLength="72" x="357" y="271.3247">signature</text><text fill="#000000" font-family="Inter" font-size="13" lengthAdjust="spacing" textLength="4" x="429" y="271.3247">&#160;</text><text fill="#000000" font-family="Inter" font-size="13" lengthAdjust="spacing" textLength="18" x="433" y="271.3247">(or</text><text fill="#000000" font-family="Inter" font-size="13" lengthAdjust="spacing" textLength="4" x="451" y="271.3247">&#160;</text><text fill="#000000" font-family="Inter" font-size="13" lengthAdjust="spacing" textLength="34" x="455" y="271.3247">other</text><text fill="#000000" font-family="Inter" font-size="13" lengthAdjust="spacing" textLength="4" x="489" y="271.3247">&#160;</text><text fill="#000000" font-family="Inter" font-size="13" lengthAdjust="spacing" textLength="62" x="493" y="271.3247">outcome)</text><path d="M13.5,291.3906 L87,291.3906 L87,298.5234 L77,308.5234 L10,308.5234 L10,294.8906 A3.5,3.5 0 0 1 13.5,291.3906 " fill="#EEEEEE" style="stroke:#989898;stroke-width:1.5;"/><rect fill="none" height="75.3984" rx="3.5" ry="3.5" style="stroke:#989898;stroke-width:1.0;" width="353.5" x="10" y="291.3906"/><text fill="#202020" font-family="Inter" font-size="13" font-weight="bold" lengthAdjust="spacing" textLength="32" x="25" y="304.4575">loop</text><text fill="#989898" font-family="Inter" font-size="11" font-weight="bold" lengthAdjust="spacing" textLength="227" x="102" y="303.6011">[until signature completed or error]</text><polygon fill="#202020" points="307.5,325.6563,317.5,329.6563,307.5,333.6563" style="stroke:#202020;stroke-width:1.0;"/><line style="stroke:#202020;stroke-width:1.0;" x1="105.5" x2="313.5" y1="329.6563" y2="329.6563"/><text fill="#000000" font-family="Inter" font-size="13" font-weight="bold" lengthAdjust="spacing" textLength="9" x="146.5" y="324.5903">7</text><text fill="#000000" font-family="Inter" font-size="13" lengthAdjust="spacing" textLength="23" x="159.5" y="324.5903">Get</text><text fill="#000000" font-family="Inter" font-size="13" lengthAdjust="spacing" textLength="4" x="182.5" y="324.5903">&#160;</text><text fill="#000000" font-family="Inter" font-size="13" lengthAdjust="spacing" textLength="48" x="186.5" y="324.5903">session</text><text fill="#000000" font-family="Inter" font-size="13" lengthAdjust="spacing" textLength="4" x="234.5" y="324.5903">&#160;</text><text fill="#000000" font-family="Inter" font-size="13" lengthAdjust="spacing" textLength="40" x="238.5" y="324.5903">status</text><polygon fill="#202020" points="116.5,354.7891,106.5,358.7891,116.5,362.7891" style="stroke:#202020;stroke-width:1.0;"/><line style="stroke:#202020;stroke-width:1.0;stroke-dasharray:2.0,2.0;" x1="110.5" x2="318.5" y1="358.7891" y2="358.7891"/><text fill="#000000" font-family="Inter" font-size="13" font-weight="bold" lengthAdjust="spacing" textLength="9" x="122" y="353.7231">8</text><text fill="#000000" font-family="monospace" font-size="13" lengthAdjust="spacing" textLength="56" x="135" y="353.7231">Pending</text><text fill="#000000" font-family="Inter" font-size="13" lengthAdjust="spacing" textLength="4" x="191" y="353.7231">/</text><text fill="#000000" font-family="monospace" font-size="13" lengthAdjust="spacing" textLength="64" x="195" y="353.7231">Complete</text><text fill="#000000" font-family="Inter" font-size="13" lengthAdjust="spacing" textLength="4" x="259" y="353.7231">/</text><text fill="#000000" font-family="monospace" font-size="13" lengthAdjust="spacing" textLength="40" x="263" y="353.7231">Error</text><line style="stroke:#202020;stroke-width:1.0;" x1="105.5" x2="147.5" y1="394.9219" y2="394.9219"/><line style="stroke:#202020;stroke-width:1.0;" x1="147.5" x2="147.5" y1="394.9219" y2="407.9219"/><line style="stroke:#202020;stroke-width:1.0;" x1="106.5" x2="147.5" y1="407.9219" y2="407.9219"/><polygon fill="#202020" points="116.5,403.9219,106.5,407.9219,116.5,411.9219" style="stroke:#202020;stroke-width:1.0;"/><text fill="#000000" font-family="Inter" font-size="13" font-weight="bold" lengthAdjust="spacing" textLength="9" x="112.5" y="389.856">9</text><text fill="#000000" font-family="Inter" font-size="13" lengthAdjust="spacing" textLength="52" x="125.5" y="389.856">Validate</text><text fill="#000000" font-family="Inter" font-size="13" lengthAdjust="spacing" textLength="4" x="177.5" y="389.856">&#160;</text><text fill="#000000" font-family="Inter" font-size="13" lengthAdjust="spacing" textLength="55" x="181.5" y="389.856">returned</text><text fill="#000000" font-family="Inter" font-size="13" lengthAdjust="spacing" textLength="4" x="236.5" y="389.856">&#160;</text><text fill="#000000" font-family="monospace" font-size="13" lengthAdjust="spacing" textLength="72" x="240.5" y="389.856">signature</text></g></svg>