<?xml version='1.0' encoding='UTF-8'?>
<svg width="42.7mm" height="42.7mm" version="1.1" viewBox="0 0 42.7 42.7" fill_color="black" back_color="white" xmlns="http://www.w3.org/2000/svg"><rect fill="white" x="0" y="0" width="100%" height="100%" /><path d="M2.8,2.8H3.5V3.5H2.8zM3.5,2.8H4.2V3.5H3.5zM4.2,2.8H4.9V3.5H4.2zM4.9,2.8H5.6V3.5H4.9zM5.6,2.8H6.3V3.5H5.6zM6.3,2.8H7V3.5H6.3zM7,2.8H7.7V3.5H7zM11.2,2.8H11.9V3.5H11.2zM11.9,2.8H12.6V3.5H11.9zM13.3,2.8H14V3.5H13.3zM15.4,2.8H16.1V3.5H15.4zM16.1,2.8H16.8V3.5H16.1zM16.8,2.8H17.5V3.5H16.8zM19.6,2.8H20.3V3.5H19.6zM21,2.8H21.7V3.5H21zM21.7,2.8H22.4V3.5H21.7zM22.4,2.8H23.1V3.5H22.4zM23.1,2.8H23.8V3.5H23.1zM23.8,2.8H24.5V3.5H23.8zM24.5,2.8H25.2V3.5H24.5zM25.2,2.8H25.9V3.5H25.2zM27.3,2.8H28V3.5H27.3zM28,2.8H28.7V3.5H28zM28.7,2.8H29.4V3.5H28.7zM30.1,2.8H30.8V3.5H30.1zM30.8,2.8H31.5V3.5H30.8zM31.5,2.8H32.2V3.5H31.5zM32.2,2.8H32.9V3.5H32.2zM35,2.8H35.7V3.5H35zM35.7,2.8H36.4V3.5H35.7zM36.4,2.8H37.1V3.5H36.4zM37.1,2.8H37.8V3.5H37.1zM37.8,2.8H38.5V3.5H37.8zM38.5,2.8H39.2V3.5H38.5zM39.2,2.8H39.9V3.5H39.2zM2.8,3.5H3.5V4.2H2.8zM7,3.5H7.7V4.2H7zM8.4,3.5H9.1V4.2H8.4zM9.8,3.5H10.5V4.2H9.8zM11.2,3.5H11.9V4.2H11.2zM14.7,3.5H15.4V4.2H14.7zM15.4,3.5H16.1V4.2H15.4zM16.8,3.5H17.5V4.2H16.8zM18.9,3.5H19.6V4.2H18.9zM19.6,3.5H20.3V4.2H19.6zM20.3,3.5H21V4.2H20.3zM21,3.5H21.7V4.2H21zM24.5,3.5H25.2V4.2H24.5zM25.2,3.5H25.9V4.2H25.2zM28,3.5H28.7V4.2H28zM29.4,3.5H30.1V4.2H29.4zM32.2,3.5H32.9V4.2H32.2zM32.9,3.5H33.6V4.2H32.9zM35,3.5H35.7V4.2H35zM39.2,3.5H39.9V4.2H39.2zM2.8,4.2H3.5V4.9H2.8zM4.2,4.2H4.9V4.9H4.2zM4.9,4.2H5.6V4.9H4.9zM5.6,4.2H6.3V4.9H5.6zM7,4.2H7.7V4.9H7zM9.1,4.2H9.8V4.9H9.1zM10.5,4.2H11.2V4.9H10.5zM11.2,4.2H11.9V4.9H11.2zM11.9,4.2H12.6V4.9H11.9zM12.6,4.2H13.3V4.9H12.6zM13.3,4.2H14V4.9H13.3zM15.4,4.2H16.1V4.9H15.4zM16.1,4.2H16.8V4.9H16.1zM16.8,4.2H17.5V4.9H16.8zM18.2,4.2H18.9V4.9H18.2zM19.6,4.2H20.3V4.9H19.6zM20.3,4.2H21V4.9H20.3zM22.4,4.2H23.1V4.9H22.4zM23.8,4.2H24.5V4.9H23.8zM24.5,4.2H25.2V4.9H24.5zM25.2,4.2H25.9V4.9H25.2zM28.7,4.2H29.4V4.9H28.7zM30.1,4.2H30.8V4.9H30.1zM30.8,4.2H31.5V4.9H30.8zM32.9,4.2H33.6V4.9H32.9zM35,4.2H35.7V4.9H35zM36.4,4.2H37.1V4.9H36.4zM37.1,4.2H37.8V4.9H37.1zM37.8,4.2H38.5V4.9H37.8zM39.2,4.2H39.9V4.9H39.2zM2.8,4.9H3.5V5.6H2.8zM4.2,4.9H4.9V5.6H4.2zM4.9,4.9H5.6V5.6H4.9zM5.6,4.9H6.3V5.6H5.6zM7,4.9H7.7V5.6H7zM8.4,4.9H9.1V5.6H8.4zM9.1,4.9H9.8V5.6H9.1zM11.9,4.9H12.6V5.6H11.9zM14,4.9H14.7V5.6H14zM14.7,4.9H15.4V5.6H14.7zM15.4,4.9H16.1V5.6H15.4zM16.1,4.9H16.8V5.6H16.1zM19.6,4.9H20.3V5.6H19.6zM21.7,4.9H22.4V5.6H21.7zM23.8,4.9H24.5V5.6H23.8zM27.3,4.9H28V5.6H27.3zM28,4.9H28.7V5.6H28zM31.5,4.9H32.2V5.6H31.5zM32.2,4.9H32.9V5.6H32.2zM33.6,4.9H34.3V5.6H33.6zM35,4.9H35.7V5.6H35zM36.4,4.9H37.1V5.6H36.4zM37.1,4.9H37.8V5.6H37.1zM37.8,4.9H38.5V5.6H37.8zM39.2,4.9H39.9V5.6H39.2zM2.8,5.6H3.5V6.3H2.8zM4.2,5.6H4.9V6.3H4.2zM4.9,5.6H5.6V6.3H4.9zM5.6,5.6H6.3V6.3H5.6zM7,5.6H7.7V6.3H7zM9.1,5.6H9.8V6.3H9.1zM10.5,5.6H11.2V6.3H10.5zM11.2,5.6H11.9V6.3H11.2zM11.9,5.6H12.6V6.3H11.9zM12.6,5.6H13.3V6.3H12.6zM14.7,5.6H15.4V6.3H14.7zM15.4,5.6H16.1V6.3H15.4zM16.1,5.6H16.8V6.3H16.1zM17.5,5.6H18.2V6.3H17.5zM18.9,5.6H19.6V6.3H18.9zM19.6,5.6H20.3V6.3H19.6zM20.3,5.6H21V6.3H20.3zM21,5.6H21.7V6.3H21zM21.7,5.6H22.4V6.3H21.7zM22.4,5.6H23.1V6.3H22.4zM23.1,5.6H23.8V6.3H23.1zM23.8,5.6H24.5V6.3H23.8zM24.5,5.6H25.2V6.3H24.5zM27.3,5.6H28V6.3H27.3zM28,5.6H28.7V6.3H28zM28.7,5.6H29.4V6.3H28.7zM30.8,5.6H31.5V6.3H30.8zM31.5,5.6H32.2V6.3H31.5zM32.2,5.6H32.9V6.3H32.2zM35,5.6H35.7V6.3H35zM36.4,5.6H37.1V6.3H36.4zM37.1,5.6H37.8V6.3H37.1zM37.8,5.6H38.5V6.3H37.8zM39.2,5.6H39.9V6.3H39.2zM2.8,6.3H3.5V7H2.8zM7,6.3H7.7V7H7zM8.4,6.3H9.1V7H8.4zM9.1,6.3H9.8V7H9.1zM9.8,6.3H10.5V7H9.8zM10.5,6.3H11.2V7H10.5zM11.2,6.3H11.9V7H11.2zM11.9,6.3H12.6V7H11.9zM12.6,6.3H13.3V7H12.6zM15.4,6.3H16.1V7H15.4zM16.1,6.3H16.8V7H16.1zM18.2,6.3H18.9V7H18.2zM19.6,6.3H20.3V7H19.6zM22.4,6.3H23.1V7H22.4zM23.1,6.3H23.8V7H23.1zM25.9,6.3H26.6V7H25.9zM26.6,6.3H27.3V7H26.6zM29.4,6.3H30.1V7H29.4zM30.8,6.3H31.5V7H30.8zM32.2,6.3H32.9V7H32.2zM35,6.3H35.7V7H35zM39.2,6.3H39.9V7H39.2zM2.8,7H3.5V7.7H2.8zM3.5,7H4.2V7.7H3.5zM4.2,7H4.9V7.7H4.2zM4.9,7H5.6V7.7H4.9zM5.6,7H6.3V7.7H5.6zM6.3,7H7V7.7H6.3zM7,7H7.7V7.7H7zM8.4,7H9.1V7.7H8.4zM9.8,7H10.5V7.7H9.8zM11.2,7H11.9V7.7H11.2zM12.6,7H13.3V7.7H12.6zM14,7H14.7V7.7H14zM15.4,7H16.1V7.7H15.4zM16.8,7H17.5V7.7H16.8zM18.2,7H18.9V7.7H18.2zM19.6,7H20.3V7.7H19.6zM21,7H21.7V7.7H21zM22.4,7H23.1V7.7H22.4zM23.8,7H24.5V7.7H23.8zM25.2,7H25.9V7.7H25.2zM26.6,7H27.3V7.7H26.6zM28,7H28.7V7.7H28zM29.4,7H30.1V7.7H29.4zM30.8,7H31.5V7.7H30.8zM32.2,7H32.9V7.7H32.2zM33.6,7H34.3V7.7H33.6zM35,7H35.7V7.7H35zM35.7,7H36.4V7.7H35.7zM36.4,7H37.1V7.7H36.4zM37.1,7H37.8V7.7H37.1zM37.8,7H38.5V7.7H37.8zM38.5,7H39.2V7.7H38.5zM39.2,7H39.9V7.7H39.2zM9.1,7.7H9.8V8.4H9.1zM12.6,7.7H13.3V8.4H12.6zM14.7,7.7H15.4V8.4H14.7zM15.4,7.7H16.1V8.4H15.4zM17.5,7.7H18.2V8.4H17.5zM18.2,7.7H18.9V8.4H18.2zM18.9,7.7H19.6V8.4H18.9zM19.6,7.7H20.3V8.4H19.6zM22.4,7.7H23.1V8.4H22.4zM23.1,7.7H23.8V8.4H23.1zM25.2,7.7H25.9V8.4H25.2zM25.9,7.7H26.6V8.4H25.9zM27.3,7.7H28V8.4H27.3zM28,7.7H28.7V8.4H28zM29.4,7.7H30.1V8.4H29.4zM30.8,7.7H31.5V8.4H30.8zM31.5,7.7H32.2V8.4H31.5zM32.2,7.7H32.9V8.4H32.2zM32.9,7.7H33.6V8.4H32.9zM33.6,7.7H34.3V8.4H33.6zM2.8,8.4H3.5V9.1H2.8zM3.5,8.4H4.2V9.1H3.5zM4.2,8.4H4.9V9.1H4.2zM4.9,8.4H5.6V9.1H4.9zM5.6,8.4H6.3V9.1H5.6zM7,8.4H7.7V9.1H7zM7.7,8.4H8.4V9.1H7.7zM8.4,8.4H9.1V9.1H8.4zM9.1,8.4H9.8V9.1H9.1zM9.8,8.4H10.5V9.1H9.8zM10.5,8.4H11.2V9.1H10.5zM11.9,8.4H12.6V9.1H11.9zM12.6,8.4H13.3V9.1H12.6zM13.3,8.4H14V9.1H13.3zM15.4,8.4H16.1V9.1H15.4zM16.1,8.4H16.8V9.1H16.1zM18.2,8.4H18.9V9.1H18.2zM18.9,8.4H19.6V9.1H18.9zM19.6,8.4H20.3V9.1H19.6zM20.3,8.4H21V9.1H20.3zM21,8.4H21.7V9.1H21zM21.7,8.4H22.4V9.1H21.7zM22.4,8.4H23.1V9.1H22.4zM24.5,8.4H25.2V9.1H24.5zM25.9,8.4H26.6V9.1H25.9zM26.6,8.4H27.3V9.1H26.6zM27.3,8.4H28V9.1H27.3zM28,8.4H28.7V9.1H28zM28.7,8.4H29.4V9.1H28.7zM32.9,8.4H33.6V9.1H32.9zM33.6,8.4H34.3V9.1H33.6zM34.3,8.4H35V9.1H34.3zM35.7,8.4H36.4V9.1H35.7zM37.1,8.4H37.8V9.1H37.1zM38.5,8.4H39.2V9.1H38.5zM4.2,9.1H4.9V9.8H4.2zM4.9,9.1H5.6V9.8H4.9zM5.6,9.1H6.3V9.8H5.6zM6.3,9.1H7V9.8H6.3zM7.7,9.1H8.4V9.8H7.7zM8.4,9.1H9.1V9.8H8.4zM14,9.1H14.7V9.8H14zM14.7,9.1H15.4V9.8H14.7zM15.4,9.1H16.1V9.8H15.4zM17.5,9.1H18.2V9.8H17.5zM18.9,9.1H19.6V9.8H18.9zM19.6,9.1H20.3V9.8H19.6zM21,9.1H21.7V9.8H21zM21.7,9.1H22.4V9.8H21.7zM22.4,9.1H23.1V9.8H22.4zM23.1,9.1H23.8V9.8H23.1zM23.8,9.1H24.5V9.8H23.8zM24.5,9.1H25.2V9.8H24.5zM25.2,9.1H25.9V9.8H25.2zM25.9,9.1H26.6V9.8H25.9zM27.3,9.1H28V9.8H27.3zM28,9.1H28.7V9.8H28zM28.7,9.1H29.4V9.8H28.7zM31.5,9.1H32.2V9.8H31.5zM32.2,9.1H32.9V9.8H32.2zM32.9,9.1H33.6V9.8H32.9zM35.7,9.1H36.4V9.8H35.7zM36.4,9.1H37.1V9.8H36.4zM39.2,9.1H39.9V9.8H39.2zM7,9.8H7.7V10.5H7zM7.7,9.8H8.4V10.5H7.7zM9.8,9.8H10.5V10.5H9.8zM11.2,9.8H11.9V10.5H11.2zM13.3,9.8H14V10.5H13.3zM14,9.8H14.7V10.5H14zM16.1,9.8H16.8V10.5H16.1zM17.5,9.8H18.2V10.5H17.5zM18.2,9.8H18.9V10.5H18.2zM19.6,9.8H20.3V10.5H19.6zM20.3,9.8H21V10.5H20.3zM25.9,9.8H26.6V10.5H25.9zM26.6,9.8H27.3V10.5H26.6zM27.3,9.8H28V10.5H27.3zM29.4,9.8H30.1V10.5H29.4zM32.9,9.8H33.6V10.5H32.9zM34.3,9.8H35V10.5H34.3zM35,9.8H35.7V10.5H35zM35.7,9.8H36.4V10.5H35.7zM37.1,9.8H37.8V10.5H37.1zM4.9,10.5H5.6V11.2H4.9zM7.7,10.5H8.4V11.2H7.7zM8.4,10.5H9.1V11.2H8.4zM9.1,10.5H9.8V11.2H9.1zM11.2,10.5H11.9V11.2H11.2zM11.9,10.5H12.6V11.2H11.9zM12.6,10.5H13.3V11.2H12.6zM14,10.5H14.7V11.2H14zM18.9,10.5H19.6V11.2H18.9zM20.3,10.5H21V11.2H20.3zM21.7,10.5H22.4V11.2H21.7zM23.1,10.5H23.8V11.2H23.1zM23.8,10.5H24.5V11.2H23.8zM25.2,10.5H25.9V11.2H25.2zM27.3,10.5H28V11.2H27.3zM28,10.5H28.7V11.2H28zM28.7,10.5H29.4V11.2H28.7zM30.1,10.5H30.8V11.2H30.1zM30.8,10.5H31.5V11.2H30.8zM31.5,10.5H32.2V11.2H31.5zM32.2,10.5H32.9V11.2H32.2zM32.9,10.5H33.6V11.2H32.9zM35,10.5H35.7V11.2H35zM37.1,10.5H37.8V11.2H37.1zM38.5,10.5H39.2V11.2H38.5zM2.8,11.2H3.5V11.9H2.8zM3.5,11.2H4.2V11.9H3.5zM4.2,11.2H4.9V11.9H4.2zM7,11.2H7.7V11.9H7zM7.7,11.2H8.4V11.9H7.7zM9.1,11.2H9.8V11.9H9.1zM9.8,11.2H10.5V11.9H9.8zM11.9,11.2H12.6V11.9H11.9zM13.3,11.2H14V11.9H13.3zM14,11.2H14.7V11.9H14zM14.7,11.2H15.4V11.9H14.7zM15.4,11.2H16.1V11.9H15.4zM21,11.2H21.7V11.9H21zM21.7,11.2H22.4V11.9H21.7zM23.1,11.2H23.8V11.9H23.1zM24.5,11.2H25.2V11.9H24.5zM25.9,11.2H26.6V11.9H25.9zM27.3,11.2H28V11.9H27.3zM28,11.2H28.7V11.9H28zM28.7,11.2H29.4V11.9H28.7zM31.5,11.2H32.2V11.9H31.5zM33.6,11.2H34.3V11.9H33.6zM35,11.2H35.7V11.9H35zM35.7,11.2H36.4V11.9H35.7zM36.4,11.2H37.1V11.9H36.4zM37.1,11.2H37.8V11.9H37.1zM37.8,11.2H38.5V11.9H37.8zM38.5,11.2H39.2V11.9H38.5zM3.5,11.9H4.2V12.6H3.5zM4.9,11.9H5.6V12.6H4.9zM5.6,11.9H6.3V12.6H5.6zM8.4,11.9H9.1V12.6H8.4zM9.8,11.9H10.5V12.6H9.8zM12.6,11.9H13.3V12.6H12.6zM15.4,11.9H16.1V12.6H15.4zM16.1,11.9H16.8V12.6H16.1zM18.2,11.9H18.9V12.6H18.2zM18.9,11.9H19.6V12.6H18.9zM22.4,11.9H23.1V12.6H22.4zM23.8,11.9H24.5V12.6H23.8zM27.3,11.9H28V12.6H27.3zM28,11.9H28.7V12.6H28zM30.8,11.9H31.5V12.6H30.8zM32.2,11.9H32.9V12.6H32.2zM32.9,11.9H33.6V12.6H32.9zM35.7,11.9H36.4V12.6H35.7zM36.4,11.9H37.1V12.6H36.4zM38.5,11.9H39.2V12.6H38.5zM39.2,11.9H39.9V12.6H39.2zM2.8,12.6H3.5V13.3H2.8zM4.2,12.6H4.9V13.3H4.2zM5.6,12.6H6.3V13.3H5.6zM7,12.6H7.7V13.3H7zM9.8,12.6H10.5V13.3H9.8zM10.5,12.6H11.2V13.3H10.5zM14,12.6H14.7V13.3H14zM14.7,12.6H15.4V13.3H14.7zM17.5,12.6H18.2V13.3H17.5zM18.9,12.6H19.6V13.3H18.9zM20.3,12.6H21V13.3H20.3zM21,12.6H21.7V13.3H21zM23.1,12.6H23.8V13.3H23.1zM26.6,12.6H27.3V13.3H26.6zM27.3,12.6H28V13.3H27.3zM28,12.6H28.7V13.3H28zM28.7,12.6H29.4V13.3H28.7zM29.4,12.6H30.1V13.3H29.4zM30.1,12.6H30.8V13.3H30.1zM31.5,12.6H32.2V13.3H31.5zM32.9,12.6H33.6V13.3H32.9zM34.3,12.6H35V13.3H34.3zM35,12.6H35.7V13.3H35zM37.1,12.6H37.8V13.3H37.1zM37.8,12.6H38.5V13.3H37.8zM3.5,13.3H4.2V14H3.5zM5.6,13.3H6.3V14H5.6zM9.8,13.3H10.5V14H9.8zM10.5,13.3H11.2V14H10.5zM11.9,13.3H12.6V14H11.9zM13.3,13.3H14V14H13.3zM16.1,13.3H16.8V14H16.1zM18.9,13.3H19.6V14H18.9zM19.6,13.3H20.3V14H19.6zM20.3,13.3H21V14H20.3zM22.4,13.3H23.1V14H22.4zM23.1,13.3H23.8V14H23.1zM23.8,13.3H24.5V14H23.8zM25.2,13.3H25.9V14H25.2zM27.3,13.3H28V14H27.3zM30.1,13.3H30.8V14H30.1zM30.8,13.3H31.5V14H30.8zM34.3,13.3H35V14H34.3zM35,13.3H35.7V14H35zM3.5,14H4.2V14.7H3.5zM4.9,14H5.6V14.7H4.9zM6.3,14H7V14.7H6.3zM7,14H7.7V14.7H7zM7.7,14H8.4V14.7H7.7zM8.4,14H9.1V14.7H8.4zM9.8,14H10.5V14.7H9.8zM10.5,14H11.2V14.7H10.5zM14.7,14H15.4V14.7H14.7zM17.5,14H18.2V14.7H17.5zM18.9,14H19.6V14.7H18.9zM19.6,14H20.3V14.7H19.6zM21.7,14H22.4V14.7H21.7zM23.8,14H24.5V14.7H23.8zM24.5,14H25.2V14.7H24.5zM25.9,14H26.6V14.7H25.9zM26.6,14H27.3V14.7H26.6zM28,14H28.7V14.7H28zM28.7,14H29.4V14.7H28.7zM29.4,14H30.1V14.7H29.4zM31.5,14H32.2V14.7H31.5zM32.2,14H32.9V14.7H32.2zM33.6,14H34.3V14.7H33.6zM36.4,14H37.1V14.7H36.4zM37.1,14H37.8V14.7H37.1zM37.8,14H38.5V14.7H37.8zM39.2,14H39.9V14.7H39.2zM3.5,14.7H4.2V15.4H3.5zM4.9,14.7H5.6V15.4H4.9zM6.3,14.7H7V15.4H6.3zM9.8,14.7H10.5V15.4H9.8zM10.5,14.7H11.2V15.4H10.5zM11.9,14.7H12.6V15.4H11.9zM13.3,14.7H14V15.4H13.3zM15.4,14.7H16.1V15.4H15.4zM16.1,14.7H16.8V15.4H16.1zM16.8,14.7H17.5V15.4H16.8zM18.9,14.7H19.6V15.4H18.9zM20.3,14.7H21V15.4H20.3zM21,14.7H21.7V15.4H21zM23.1,14.7H23.8V15.4H23.1zM23.8,14.7H24.5V15.4H23.8zM24.5,14.7H25.2V15.4H24.5zM27.3,14.7H28V15.4H27.3zM28,14.7H28.7V15.4H28zM28.7,14.7H29.4V15.4H28.7zM30.1,14.7H30.8V15.4H30.1zM31.5,14.7H32.2V15.4H31.5zM32.2,14.7H32.9V15.4H32.2zM32.9,14.7H33.6V15.4H32.9zM36.4,14.7H37.1V15.4H36.4zM37.1,14.7H37.8V15.4H37.1zM39.2,14.7H39.9V15.4H39.2zM2.8,15.4H3.5V16.1H2.8zM4.2,15.4H4.9V16.1H4.2zM6.3,15.4H7V16.1H6.3zM7,15.4H7.7V16.1H7zM8.4,15.4H9.1V16.1H8.4zM9.1,15.4H9.8V16.1H9.1zM10.5,15.4H11.2V16.1H10.5zM11.2,15.4H11.9V16.1H11.2zM12.6,15.4H13.3V16.1H12.6zM16.8,15.4H17.5V16.1H16.8zM17.5,15.4H18.2V16.1H17.5zM19.6,15.4H20.3V16.1H19.6zM20.3,15.4H21V16.1H20.3zM21,15.4H21.7V16.1H21zM23.1,15.4H23.8V16.1H23.1zM24.5,15.4H25.2V16.1H24.5zM25.9,15.4H26.6V16.1H25.9zM26.6,15.4H27.3V16.1H26.6zM27.3,15.4H28V16.1H27.3zM28,15.4H28.7V16.1H28zM29.4,15.4H30.1V16.1H29.4zM34.3,15.4H35V16.1H34.3zM35,15.4H35.7V16.1H35zM35.7,15.4H36.4V16.1H35.7zM36.4,15.4H37.1V16.1H36.4zM37.1,15.4H37.8V16.1H37.1zM4.2,16.1H4.9V16.8H4.2zM8.4,16.1H9.1V16.8H8.4zM9.8,16.1H10.5V16.8H9.8zM10.5,16.1H11.2V16.8H10.5zM11.9,16.1H12.6V16.8H11.9zM13.3,16.1H14V16.8H13.3zM14.7,16.1H15.4V16.8H14.7zM16.1,16.1H16.8V16.8H16.1zM16.8,16.1H17.5V16.8H16.8zM17.5,16.1H18.2V16.8H17.5zM18.2,16.1H18.9V16.8H18.2zM19.6,16.1H20.3V16.8H19.6zM20.3,16.1H21V16.8H20.3zM21.7,16.1H22.4V16.8H21.7zM23.1,16.1H23.8V16.8H23.1zM23.8,16.1H24.5V16.8H23.8zM24.5,16.1H25.2V16.8H24.5zM25.2,16.1H25.9V16.8H25.2zM25.9,16.1H26.6V16.8H25.9zM27.3,16.1H28V16.8H27.3zM28,16.1H28.7V16.8H28zM28.7,16.1H29.4V16.8H28.7zM29.4,16.1H30.1V16.8H29.4zM30.1,16.1H30.8V16.8H30.1zM31.5,16.1H32.2V16.8H31.5zM32.9,16.1H33.6V16.8H32.9zM35,16.1H35.7V16.8H35zM37.1,16.1H37.8V16.8H37.1zM38.5,16.1H39.2V16.8H38.5zM2.8,16.8H3.5V17.5H2.8zM6.3,16.8H7V17.5H6.3zM7,16.8H7.7V17.5H7zM7.7,16.8H8.4V17.5H7.7zM10.5,16.8H11.2V17.5H10.5zM11.2,16.8H11.9V17.5H11.2zM11.9,16.8H12.6V17.5H11.9zM14,16.8H14.7V17.5H14zM14.7,16.8H15.4V17.5H14.7zM15.4,16.8H16.1V17.5H15.4zM19.6,16.8H20.3V17.5H19.6zM21,16.8H21.7V17.5H21zM22.4,16.8H23.1V17.5H22.4zM23.1,16.8H23.8V17.5H23.1zM24.5,16.8H25.2V17.5H24.5zM25.9,16.8H26.6V17.5H25.9zM26.6,16.8H27.3V17.5H26.6zM27.3,16.8H28V17.5H27.3zM28,16.8H28.7V17.5H28zM28.7,16.8H29.4V17.5H28.7zM31.5,16.8H32.2V17.5H31.5zM32.2,16.8H32.9V17.5H32.2zM33.6,16.8H34.3V17.5H33.6zM34.3,16.8H35V17.5H34.3zM35,16.8H35.7V17.5H35zM35.7,16.8H36.4V17.5H35.7zM36.4,16.8H37.1V17.5H36.4zM37.1,16.8H37.8V17.5H37.1zM37.8,16.8H38.5V17.5H37.8zM4.9,17.5H5.6V18.2H4.9zM6.3,17.5H7V18.2H6.3zM9.1,17.5H9.8V18.2H9.1zM10.5,17.5H11.2V18.2H10.5zM12.6,17.5H13.3V18.2H12.6zM16.1,17.5H16.8V18.2H16.1zM18.2,17.5H18.9V18.2H18.2zM19.6,17.5H20.3V18.2H19.6zM20.3,17.5H21V18.2H20.3zM22.4,17.5H23.1V18.2H22.4zM23.1,17.5H23.8V18.2H23.1zM23.8,17.5H24.5V18.2H23.8zM24.5,17.5H25.2V18.2H24.5zM25.2,17.5H25.9V18.2H25.2zM28,17.5H28.7V18.2H28zM28.7,17.5H29.4V18.2H28.7zM30.1,17.5H30.8V18.2H30.1zM31.5,17.5H32.2V18.2H31.5zM32.2,17.5H32.9V18.2H32.2zM32.9,17.5H33.6V18.2H32.9zM34.3,17.5H35V18.2H34.3zM35.7,17.5H36.4V18.2H35.7zM37.8,17.5H38.5V18.2H37.8zM39.2,17.5H39.9V18.2H39.2zM4.2,18.2H4.9V18.9H4.2zM4.9,18.2H5.6V18.9H4.9zM5.6,18.2H6.3V18.9H5.6zM6.3,18.2H7V18.9H6.3zM7,18.2H7.7V18.9H7zM7.7,18.2H8.4V18.9H7.7zM8.4,18.2H9.1V18.9H8.4zM9.1,18.2H9.8V18.9H9.1zM9.8,18.2H10.5V18.9H9.8zM11.2,18.2H11.9V18.9H11.2zM11.9,18.2H12.6V18.9H11.9zM12.6,18.2H13.3V18.9H12.6zM13.3,18.2H14V18.9H13.3zM14,18.2H14.7V18.9H14zM15.4,18.2H16.1V18.9H15.4zM16.1,18.2H16.8V18.9H16.1zM16.8,18.2H17.5V18.9H16.8zM18.2,18.2H18.9V18.9H18.2zM18.9,18.2H19.6V18.9H18.9zM23.1,18.2H23.8V18.9H23.1zM25.2,18.2H25.9V18.9H25.2zM25.9,18.2H26.6V18.9H25.9zM27.3,18.2H28V18.9H27.3zM28,18.2H28.7V18.9H28zM30.1,18.2H30.8V18.9H30.1zM30.8,18.2H31.5V18.9H30.8zM35,18.2H35.7V18.9H35zM36.4,18.2H37.1V18.9H36.4zM37.8,18.2H38.5V18.9H37.8zM38.5,18.2H39.2V18.9H38.5zM3.5,18.9H4.2V19.6H3.5zM4.2,18.9H4.9V19.6H4.2zM4.9,18.9H5.6V19.6H4.9zM6.3,18.9H7V19.6H6.3zM8.4,18.9H9.1V19.6H8.4zM9.1,18.9H9.8V19.6H9.1zM9.8,18.9H10.5V19.6H9.8zM10.5,18.9H11.2V19.6H10.5zM12.6,18.9H13.3V19.6H12.6zM14.7,18.9H15.4V19.6H14.7zM15.4,18.9H16.1V19.6H15.4zM16.1,18.9H16.8V19.6H16.1zM17.5,18.9H18.2V19.6H17.5zM18.2,18.9H18.9V19.6H18.2zM19.6,18.9H20.3V19.6H19.6zM20.3,18.9H21V19.6H20.3zM23.8,18.9H24.5V19.6H23.8zM25.2,18.9H25.9V19.6H25.2zM28.7,18.9H29.4V19.6H28.7zM30.1,18.9H30.8V19.6H30.1zM30.8,18.9H31.5V19.6H30.8zM32.2,18.9H32.9V19.6H32.2zM32.9,18.9H33.6V19.6H32.9zM33.6,18.9H34.3V19.6H33.6zM35.7,18.9H36.4V19.6H35.7zM2.8,19.6H3.5V20.3H2.8zM3.5,19.6H4.2V20.3H3.5zM4.2,19.6H4.9V20.3H4.2zM4.9,19.6H5.6V20.3H4.9zM5.6,19.6H6.3V20.3H5.6zM6.3,19.6H7V20.3H6.3zM7,19.6H7.7V20.3H7zM7.7,19.6H8.4V20.3H7.7zM8.4,19.6H9.1V20.3H8.4zM9.1,19.6H9.8V20.3H9.1zM9.8,19.6H10.5V20.3H9.8zM10.5,19.6H11.2V20.3H10.5zM11.9,19.6H12.6V20.3H11.9zM12.6,19.6H13.3V20.3H12.6zM13.3,19.6H14V20.3H13.3zM15.4,19.6H16.1V20.3H15.4zM16.1,19.6H16.8V20.3H16.1zM18.2,19.6H18.9V20.3H18.2zM19.6,19.6H20.3V20.3H19.6zM20.3,19.6H21V20.3H20.3zM21,19.6H21.7V20.3H21zM21.7,19.6H22.4V20.3H21.7zM22.4,19.6H23.1V20.3H22.4zM23.1,19.6H23.8V20.3H23.1zM24.5,19.6H25.2V20.3H24.5zM27.3,19.6H28V20.3H27.3zM28,19.6H28.7V20.3H28zM28.7,19.6H29.4V20.3H28.7zM31.5,19.6H32.2V20.3H31.5zM33.6,19.6H34.3V20.3H33.6zM34.3,19.6H35V20.3H34.3zM35,19.6H35.7V20.3H35zM35.7,19.6H36.4V20.3H35.7zM36.4,19.6H37.1V20.3H36.4zM37.8,19.6H38.5V20.3H37.8zM2.8,20.3H3.5V21H2.8zM3.5,20.3H4.2V21H3.5zM4.2,20.3H4.9V21H4.2zM5.6,20.3H6.3V21H5.6zM8.4,20.3H9.1V21H8.4zM9.1,20.3H9.8V21H9.1zM9.8,20.3H10.5V21H9.8zM10.5,20.3H11.2V21H10.5zM14,20.3H14.7V21H14zM14.7,20.3H15.4V21H14.7zM15.4,20.3H16.1V21H15.4zM17.5,20.3H18.2V21H17.5zM18.9,20.3H19.6V21H18.9zM19.6,20.3H20.3V21H19.6zM22.4,20.3H23.1V21H22.4zM23.8,20.3H24.5V21H23.8zM24.5,20.3H25.2V21H24.5zM25.2,20.3H25.9V21H25.2zM28,20.3H28.7V21H28zM28.7,20.3H29.4V21H28.7zM30.8,20.3H31.5V21H30.8zM31.5,20.3H32.2V21H31.5zM32.2,20.3H32.9V21H32.2zM32.9,20.3H33.6V21H32.9zM33.6,20.3H34.3V21H33.6zM36.4,20.3H37.1V21H36.4zM37.1,20.3H37.8V21H37.1zM39.2,20.3H39.9V21H39.2zM2.8,21H3.5V21.7H2.8zM4.2,21H4.9V21.7H4.2zM4.9,21H5.6V21.7H4.9zM5.6,21H6.3V21.7H5.6zM7,21H7.7V21.7H7zM8.4,21H9.1V21.7H8.4zM9.1,21H9.8V21.7H9.1zM11.2,21H11.9V21.7H11.2zM11.9,21H12.6V21.7H11.9zM12.6,21H13.3V21.7H12.6zM13.3,21H14V21.7H13.3zM14,21H14.7V21.7H14zM14.7,21H15.4V21.7H14.7zM16.1,21H16.8V21.7H16.1zM17.5,21H18.2V21.7H17.5zM18.9,21H19.6V21.7H18.9zM19.6,21H20.3V21.7H19.6zM21,21H21.7V21.7H21zM22.4,21H23.1V21.7H22.4zM23.1,21H23.8V21.7H23.1zM25.9,21H26.6V21.7H25.9zM26.6,21H27.3V21.7H26.6zM28,21H28.7V21.7H28zM30.8,21H31.5V21.7H30.8zM32.9,21H33.6V21.7H32.9zM33.6,21H34.3V21.7H33.6zM35,21H35.7V21.7H35zM36.4,21H37.1V21.7H36.4zM3.5,21.7H4.2V22.4H3.5zM4.2,21.7H4.9V22.4H4.2zM5.6,21.7H6.3V22.4H5.6zM8.4,21.7H9.1V22.4H8.4zM9.8,21.7H10.5V22.4H9.8zM11.9,21.7H12.6V22.4H11.9zM12.6,21.7H13.3V22.4H12.6zM14,21.7H14.7V22.4H14zM14.7,21.7H15.4V22.4H14.7zM15.4,21.7H16.1V22.4H15.4zM18.9,21.7H19.6V22.4H18.9zM19.6,21.7H20.3V22.4H19.6zM22.4,21.7H23.1V22.4H22.4zM23.1,21.7H23.8V22.4H23.1zM23.8,21.7H24.5V22.4H23.8zM25.2,21.7H25.9V22.4H25.2zM25.9,21.7H26.6V22.4H25.9zM27.3,21.7H28V22.4H27.3zM28.7,21.7H29.4V22.4H28.7zM29.4,21.7H30.1V22.4H29.4zM30.1,21.7H30.8V22.4H30.1zM30.8,21.7H31.5V22.4H30.8zM31.5,21.7H32.2V22.4H31.5zM32.2,21.7H32.9V22.4H32.2zM33.6,21.7H34.3V22.4H33.6zM36.4,21.7H37.1V22.4H36.4zM37.1,21.7H37.8V22.4H37.1zM38.5,21.7H39.2V22.4H38.5zM2.8,22.4H3.5V23.1H2.8zM4.2,22.4H4.9V23.1H4.2zM4.9,22.4H5.6V23.1H4.9zM5.6,22.4H6.3V23.1H5.6zM6.3,22.4H7V23.1H6.3zM7,22.4H7.7V23.1H7zM7.7,22.4H8.4V23.1H7.7zM8.4,22.4H9.1V23.1H8.4zM9.1,22.4H9.8V23.1H9.1zM9.8,22.4H10.5V23.1H9.8zM11.9,22.4H12.6V23.1H11.9zM13.3,22.4H14V23.1H13.3zM14,22.4H14.7V23.1H14zM14.7,22.4H15.4V23.1H14.7zM15.4,22.4H16.1V23.1H15.4zM18.9,22.4H19.6V23.1H18.9zM19.6,22.4H20.3V23.1H19.6zM20.3,22.4H21V23.1H20.3zM21,22.4H21.7V23.1H21zM21.7,22.4H22.4V23.1H21.7zM22.4,22.4H23.1V23.1H22.4zM23.8,22.4H24.5V23.1H23.8zM24.5,22.4H25.2V23.1H24.5zM25.9,22.4H26.6V23.1H25.9zM26.6,22.4H27.3V23.1H26.6zM28,22.4H28.7V23.1H28zM28.7,22.4H29.4V23.1H28.7zM29.4,22.4H30.1V23.1H29.4zM31.5,22.4H32.2V23.1H31.5zM32.2,22.4H32.9V23.1H32.2zM32.9,22.4H33.6V23.1H32.9zM33.6,22.4H34.3V23.1H33.6zM34.3,22.4H35V23.1H34.3zM35,22.4H35.7V23.1H35zM35.7,22.4H36.4V23.1H35.7zM36.4,22.4H37.1V23.1H36.4zM37.8,22.4H38.5V23.1H37.8zM2.8,23.1H3.5V23.8H2.8zM7.7,23.1H8.4V23.8H7.7zM8.4,23.1H9.1V23.8H8.4zM9.8,23.1H10.5V23.8H9.8zM11.2,23.1H11.9V23.8H11.2zM12.6,23.1H13.3V23.8H12.6zM13.3,23.1H14V23.8H13.3zM14.7,23.1H15.4V23.8H14.7zM15.4,23.1H16.1V23.8H15.4zM16.1,23.1H16.8V23.8H16.1zM18.2,23.1H18.9V23.8H18.2zM18.9,23.1H19.6V23.8H18.9zM19.6,23.1H20.3V23.8H19.6zM20.3,23.1H21V23.8H20.3zM23.1,23.1H23.8V23.8H23.1zM23.8,23.1H24.5V23.8H23.8zM24.5,23.1H25.2V23.8H24.5zM25.2,23.1H25.9V23.8H25.2zM28,23.1H28.7V23.8H28zM28.7,23.1H29.4V23.8H28.7zM30.1,23.1H30.8V23.8H30.1zM31.5,23.1H32.2V23.8H31.5zM32.2,23.1H32.9V23.8H32.2zM32.9,23.1H33.6V23.8H32.9zM33.6,23.1H34.3V23.8H33.6zM34.3,23.1H35V23.8H34.3zM35.7,23.1H36.4V23.8H35.7zM36.4,23.1H37.1V23.8H36.4zM37.1,23.1H37.8V23.8H37.1zM37.8,23.1H38.5V23.8H37.8zM38.5,23.1H39.2V23.8H38.5zM39.2,23.1H39.9V23.8H39.2zM4.2,23.8H4.9V24.5H4.2zM4.9,23.8H5.6V24.5H4.9zM6.3,23.8H7V24.5H6.3zM7,23.8H7.7V24.5H7zM8.4,23.8H9.1V24.5H8.4zM10.5,23.8H11.2V24.5H10.5zM11.2,23.8H11.9V24.5H11.2zM13.3,23.8H14V24.5H13.3zM14,23.8H14.7V24.5H14zM14.7,23.8H15.4V24.5H14.7zM16.1,23.8H16.8V24.5H16.1zM17.5,23.8H18.2V24.5H17.5zM20.3,23.8H21V24.5H20.3zM21,23.8H21.7V24.5H21zM21.7,23.8H22.4V24.5H21.7zM22.4,23.8H23.1V24.5H22.4zM23.1,23.8H23.8V24.5H23.1zM26.6,23.8H27.3V24.5H26.6zM27.3,23.8H28V24.5H27.3zM28,23.8H28.7V24.5H28zM28.7,23.8H29.4V24.5H28.7zM32.9,23.8H33.6V24.5H32.9zM34.3,23.8H35V24.5H34.3zM37.1,23.8H37.8V24.5H37.1zM37.8,23.8H38.5V24.5H37.8zM3.5,24.5H4.2V25.2H3.5zM6.3,24.5H7V25.2H6.3zM7.7,24.5H8.4V25.2H7.7zM8.4,24.5H9.1V25.2H8.4zM11.9,24.5H12.6V25.2H11.9zM13.3,24.5H14V25.2H13.3zM14,24.5H14.7V25.2H14zM16.1,24.5H16.8V25.2H16.1zM21,24.5H21.7V25.2H21zM23.1,24.5H23.8V25.2H23.1zM24.5,24.5H25.2V25.2H24.5zM26.6,24.5H27.3V25.2H26.6zM27.3,24.5H28V25.2H27.3zM28.7,24.5H29.4V25.2H28.7zM29.4,24.5H30.1V25.2H29.4zM30.8,24.5H31.5V25.2H30.8zM31.5,24.5H32.2V25.2H31.5zM32.2,24.5H32.9V25.2H32.2zM32.9,24.5H33.6V25.2H32.9zM33.6,24.5H34.3V25.2H33.6zM34.3,24.5H35V25.2H34.3zM35,24.5H35.7V25.2H35zM36.4,24.5H37.1V25.2H36.4zM38.5,24.5H39.2V25.2H38.5zM2.8,25.2H3.5V25.9H2.8zM4.9,25.2H5.6V25.9H4.9zM5.6,25.2H6.3V25.9H5.6zM7,25.2H7.7V25.9H7zM7.7,25.2H8.4V25.9H7.7zM8.4,25.2H9.1V25.9H8.4zM9.8,25.2H10.5V25.9H9.8zM11.2,25.2H11.9V25.9H11.2zM14.7,25.2H15.4V25.9H14.7zM17.5,25.2H18.2V25.9H17.5zM19.6,25.2H20.3V25.9H19.6zM20.3,25.2H21V25.9H20.3zM21.7,25.2H22.4V25.9H21.7zM23.1,25.2H23.8V25.9H23.1zM23.8,25.2H24.5V25.9H23.8zM24.5,25.2H25.2V25.9H24.5zM25.9,25.2H26.6V25.9H25.9zM27.3,25.2H28V25.9H27.3zM28,25.2H28.7V25.9H28zM30.1,25.2H30.8V25.9H30.1zM31.5,25.2H32.2V25.9H31.5zM32.2,25.2H32.9V25.9H32.2zM35,25.2H35.7V25.9H35zM35.7,25.2H36.4V25.9H35.7zM37.8,25.2H38.5V25.9H37.8zM38.5,25.2H39.2V25.9H38.5zM4.9,25.9H5.6V26.6H4.9zM5.6,25.9H6.3V26.6H5.6zM6.3,25.9H7V26.6H6.3zM7.7,25.9H8.4V26.6H7.7zM9.1,25.9H9.8V26.6H9.1zM9.8,25.9H10.5V26.6H9.8zM10.5,25.9H11.2V26.6H10.5zM11.9,25.9H12.6V26.6H11.9zM13.3,25.9H14V26.6H13.3zM15.4,25.9H16.1V26.6H15.4zM16.1,25.9H16.8V26.6H16.1zM16.8,25.9H17.5V26.6H16.8zM18.9,25.9H19.6V26.6H18.9zM20.3,25.9H21V26.6H20.3zM22.4,25.9H23.1V26.6H22.4zM23.8,25.9H24.5V26.6H23.8zM27.3,25.9H28V26.6H27.3zM28,25.9H28.7V26.6H28zM28.7,25.9H29.4V26.6H28.7zM30.8,25.9H31.5V26.6H30.8zM32.2,25.9H32.9V26.6H32.2zM32.9,25.9H33.6V26.6H32.9zM33.6,25.9H34.3V26.6H33.6zM35.7,25.9H36.4V26.6H35.7zM36.4,25.9H37.1V26.6H36.4zM37.8,25.9H38.5V26.6H37.8zM39.2,25.9H39.9V26.6H39.2zM2.8,26.6H3.5V27.3H2.8zM3.5,26.6H4.2V27.3H3.5zM4.2,26.6H4.9V27.3H4.2zM7,26.6H7.7V27.3H7zM7.7,26.6H8.4V27.3H7.7zM8.4,26.6H9.1V27.3H8.4zM9.1,26.6H9.8V27.3H9.1zM9.8,26.6H10.5V27.3H9.8zM10.5,26.6H11.2V27.3H10.5zM11.2,26.6H11.9V27.3H11.2zM11.9,26.6H12.6V27.3H11.9zM12.6,26.6H13.3V27.3H12.6zM15.4,26.6H16.1V27.3H15.4zM16.8,26.6H17.5V27.3H16.8zM20.3,26.6H21V27.3H20.3zM21,26.6H21.7V27.3H21zM21.7,26.6H22.4V27.3H21.7zM22.4,26.6H23.1V27.3H22.4zM23.1,26.6H23.8V27.3H23.1zM24.5,26.6H25.2V27.3H24.5zM25.9,26.6H26.6V27.3H25.9zM26.6,26.6H27.3V27.3H26.6zM29.4,26.6H30.1V27.3H29.4zM30.1,26.6H30.8V27.3H30.1zM30.8,26.6H31.5V27.3H30.8zM34.3,26.6H35V27.3H34.3zM3.5,27.3H4.2V28H3.5zM4.9,27.3H5.6V28H4.9zM6.3,27.3H7V28H6.3zM8.4,27.3H9.1V28H8.4zM9.8,27.3H10.5V28H9.8zM10.5,27.3H11.2V28H10.5zM11.2,27.3H11.9V28H11.2zM12.6,27.3H13.3V28H12.6zM13.3,27.3H14V28H13.3zM16.1,27.3H16.8V28H16.1zM16.8,27.3H17.5V28H16.8zM17.5,27.3H18.2V28H17.5zM18.2,27.3H18.9V28H18.2zM20.3,27.3H21V28H20.3zM21,27.3H21.7V28H21zM23.1,27.3H23.8V28H23.1zM23.8,27.3H24.5V28H23.8zM24.5,27.3H25.2V28H24.5zM28,27.3H28.7V28H28zM29.4,27.3H30.1V28H29.4zM30.8,27.3H31.5V28H30.8zM31.5,27.3H32.2V28H31.5zM32.9,27.3H33.6V28H32.9zM35,27.3H35.7V28H35zM36.4,27.3H37.1V28H36.4zM38.5,27.3H39.2V28H38.5zM2.8,28H3.5V28.7H2.8zM3.5,28H4.2V28.7H3.5zM4.9,28H5.6V28.7H4.9zM6.3,28H7V28.7H6.3zM7,28H7.7V28.7H7zM7.7,28H8.4V28.7H7.7zM8.4,28H9.1V28.7H8.4zM9.1,28H9.8V28.7H9.1zM10.5,28H11.2V28.7H10.5zM11.2,28H11.9V28.7H11.2zM11.9,28H12.6V28.7H11.9zM15.4,28H16.1V28.7H15.4zM16.1,28H16.8V28.7H16.1zM16.8,28H17.5V28.7H16.8zM19.6,28H20.3V28.7H19.6zM22.4,28H23.1V28.7H22.4zM23.8,28H24.5V28.7H23.8zM24.5,28H25.2V28.7H24.5zM26.6,28H27.3V28.7H26.6zM27.3,28H28V28.7H27.3zM28,28H28.7V28.7H28zM28.7,28H29.4V28.7H28.7zM33.6,28H34.3V28.7H33.6zM35,28H35.7V28.7H35zM35.7,28H36.4V28.7H35.7zM37.8,28H38.5V28.7H37.8zM38.5,28H39.2V28.7H38.5zM39.2,28H39.9V28.7H39.2zM3.5,28.7H4.2V29.4H3.5zM4.2,28.7H4.9V29.4H4.2zM4.9,28.7H5.6V29.4H4.9zM9.1,28.7H9.8V29.4H9.1zM9.8,28.7H10.5V29.4H9.8zM11.2,28.7H11.9V29.4H11.2zM11.9,28.7H12.6V29.4H11.9zM14.7,28.7H15.4V29.4H14.7zM16.1,28.7H16.8V29.4H16.1zM17.5,28.7H18.2V29.4H17.5zM18.2,28.7H18.9V29.4H18.2zM20.3,28.7H21V29.4H20.3zM21,28.7H21.7V29.4H21zM21.7,28.7H22.4V29.4H21.7zM23.1,28.7H23.8V29.4H23.1zM23.8,28.7H24.5V29.4H23.8zM25.2,28.7H25.9V29.4H25.2zM27.3,28.7H28V29.4H27.3zM28,28.7H28.7V29.4H28zM31.5,28.7H32.2V29.4H31.5zM32.2,28.7H32.9V29.4H32.2zM33.6,28.7H34.3V29.4H33.6zM34.3,28.7H35V29.4H34.3zM35,28.7H35.7V29.4H35zM35.7,28.7H36.4V29.4H35.7zM36.4,28.7H37.1V29.4H36.4zM37.1,28.7H37.8V29.4H37.1zM37.8,28.7H38.5V29.4H37.8zM39.2,28.7H39.9V29.4H39.2zM2.8,29.4H3.5V30.1H2.8zM3.5,29.4H4.2V30.1H3.5zM4.2,29.4H4.9V30.1H4.2zM4.9,29.4H5.6V30.1H4.9zM7,29.4H7.7V30.1H7zM8.4,29.4H9.1V30.1H8.4zM9.8,29.4H10.5V30.1H9.8zM10.5,29.4H11.2V30.1H10.5zM11.2,29.4H11.9V30.1H11.2zM11.9,29.4H12.6V30.1H11.9zM12.6,29.4H13.3V30.1H12.6zM15.4,29.4H16.1V30.1H15.4zM16.1,29.4H16.8V30.1H16.1zM18.2,29.4H18.9V30.1H18.2zM19.6,29.4H20.3V30.1H19.6zM20.3,29.4H21V30.1H20.3zM21.7,29.4H22.4V30.1H21.7zM22.4,29.4H23.1V30.1H22.4zM26.6,29.4H27.3V30.1H26.6zM28,29.4H28.7V30.1H28zM28.7,29.4H29.4V30.1H28.7zM29.4,29.4H30.1V30.1H29.4zM32.9,29.4H33.6V30.1H32.9zM35.7,29.4H36.4V30.1H35.7zM36.4,29.4H37.1V30.1H36.4zM37.1,29.4H37.8V30.1H37.1zM37.8,29.4H38.5V30.1H37.8zM3.5,30.1H4.2V30.8H3.5zM4.9,30.1H5.6V30.8H4.9zM6.3,30.1H7V30.8H6.3zM7.7,30.1H8.4V30.8H7.7zM8.4,30.1H9.1V30.8H8.4zM9.1,30.1H9.8V30.8H9.1zM11.2,30.1H11.9V30.8H11.2zM12.6,30.1H13.3V30.8H12.6zM13.3,30.1H14V30.8H13.3zM14.7,30.1H15.4V30.8H14.7zM15.4,30.1H16.1V30.8H15.4zM17.5,30.1H18.2V30.8H17.5zM18.2,30.1H18.9V30.8H18.2zM23.8,30.1H24.5V30.8H23.8zM25.2,30.1H25.9V30.8H25.2zM25.9,30.1H26.6V30.8H25.9zM27.3,30.1H28V30.8H27.3zM29.4,30.1H30.1V30.8H29.4zM30.1,30.1H30.8V30.8H30.1zM30.8,30.1H31.5V30.8H30.8zM31.5,30.1H32.2V30.8H31.5zM32.9,30.1H33.6V30.8H32.9zM34.3,30.1H35V30.8H34.3zM35,30.1H35.7V30.8H35zM36.4,30.1H37.1V30.8H36.4zM37.1,30.1H37.8V30.8H37.1zM4.2,30.8H4.9V31.5H4.2zM6.3,30.8H7V31.5H6.3zM7,30.8H7.7V31.5H7zM8.4,30.8H9.1V31.5H8.4zM9.1,30.8H9.8V31.5H9.1zM10.5,30.8H11.2V31.5H10.5zM11.9,30.8H12.6V31.5H11.9zM12.6,30.8H13.3V31.5H12.6zM13.3,30.8H14V31.5H13.3zM15.4,30.8H16.1V31.5H15.4zM16.1,30.8H16.8V31.5H16.1zM18.2,30.8H18.9V31.5H18.2zM18.9,30.8H19.6V31.5H18.9zM19.6,30.8H20.3V31.5H19.6zM20.3,30.8H21V31.5H20.3zM21.7,30.8H22.4V31.5H21.7zM22.4,30.8H23.1V31.5H22.4zM24.5,30.8H25.2V31.5H24.5zM27.3,30.8H28V31.5H27.3zM28,30.8H28.7V31.5H28zM28.7,30.8H29.4V31.5H28.7zM31.5,30.8H32.2V31.5H31.5zM32.2,30.8H32.9V31.5H32.2zM34.3,30.8H35V31.5H34.3zM35.7,30.8H36.4V31.5H35.7zM37.1,30.8H37.8V31.5H37.1zM37.8,30.8H38.5V31.5H37.8zM38.5,30.8H39.2V31.5H38.5zM39.2,30.8H39.9V31.5H39.2zM2.8,31.5H3.5V32.2H2.8zM4.9,31.5H5.6V32.2H4.9zM5.6,31.5H6.3V32.2H5.6zM10.5,31.5H11.2V32.2H10.5zM11.2,31.5H11.9V32.2H11.2zM14,31.5H14.7V32.2H14zM14.7,31.5H15.4V32.2H14.7zM15.4,31.5H16.1V32.2H15.4zM17.5,31.5H18.2V32.2H17.5zM18.9,31.5H19.6V32.2H18.9zM21,31.5H21.7V32.2H21zM23.8,31.5H24.5V32.2H23.8zM24.5,31.5H25.2V32.2H24.5zM28,31.5H28.7V32.2H28zM28.7,31.5H29.4V32.2H28.7zM30.1,31.5H30.8V32.2H30.1zM30.8,31.5H31.5V32.2H30.8zM31.5,31.5H32.2V32.2H31.5zM32.2,31.5H32.9V32.2H32.2zM35.7,31.5H36.4V32.2H35.7zM36.4,31.5H37.1V32.2H36.4zM37.1,31.5H37.8V32.2H37.1zM38.5,31.5H39.2V32.2H38.5zM39.2,31.5H39.9V32.2H39.2zM2.8,32.2H3.5V32.9H2.8zM3.5,32.2H4.2V32.9H3.5zM4.9,32.2H5.6V32.9H4.9zM5.6,32.2H6.3V32.9H5.6zM6.3,32.2H7V32.9H6.3zM7,32.2H7.7V32.9H7zM8.4,32.2H9.1V32.9H8.4zM9.1,32.2H9.8V32.9H9.1zM9.8,32.2H10.5V32.9H9.8zM11.2,32.2H11.9V32.9H11.2zM11.9,32.2H12.6V32.9H11.9zM13.3,32.2H14V32.9H13.3zM14,32.2H14.7V32.9H14zM15.4,32.2H16.1V32.9H15.4zM16.1,32.2H16.8V32.9H16.1zM22.4,32.2H23.1V32.9H22.4zM23.1,32.2H23.8V32.9H23.1zM24.5,32.2H25.2V32.9H24.5zM26.6,32.2H27.3V32.9H26.6zM27.3,32.2H28V32.9H27.3zM28,32.2H28.7V32.9H28zM29.4,32.2H30.1V32.9H29.4zM30.8,32.2H31.5V32.9H30.8zM34.3,32.2H35V32.9H34.3zM35.7,32.2H36.4V32.9H35.7zM36.4,32.2H37.1V32.9H36.4zM37.8,32.2H38.5V32.9H37.8zM3.5,32.9H4.2V33.6H3.5zM4.2,32.9H4.9V33.6H4.2zM7.7,32.9H8.4V33.6H7.7zM8.4,32.9H9.1V33.6H8.4zM14,32.9H14.7V33.6H14zM14.7,32.9H15.4V33.6H14.7zM15.4,32.9H16.1V33.6H15.4zM18.9,32.9H19.6V33.6H18.9zM19.6,32.9H20.3V33.6H19.6zM20.3,32.9H21V33.6H20.3zM21,32.9H21.7V33.6H21zM23.1,32.9H23.8V33.6H23.1zM25.2,32.9H25.9V33.6H25.2zM30.8,32.9H31.5V33.6H30.8zM31.5,32.9H32.2V33.6H31.5zM32.2,32.9H32.9V33.6H32.2zM32.9,32.9H33.6V33.6H32.9zM33.6,32.9H34.3V33.6H33.6zM34.3,32.9H35V33.6H34.3zM35,32.9H35.7V33.6H35zM35.7,32.9H36.4V33.6H35.7zM36.4,32.9H37.1V33.6H36.4zM37.1,32.9H37.8V33.6H37.1zM4.9,33.6H5.6V34.3H4.9zM7,33.6H7.7V34.3H7zM7.7,33.6H8.4V34.3H7.7zM10.5,33.6H11.2V34.3H10.5zM11.2,33.6H11.9V34.3H11.2zM12.6,33.6H13.3V34.3H12.6zM13.3,33.6H14V34.3H13.3zM14.7,33.6H15.4V34.3H14.7zM15.4,33.6H16.1V34.3H15.4zM18.9,33.6H19.6V34.3H18.9zM19.6,33.6H20.3V34.3H19.6zM20.3,33.6H21V34.3H20.3zM21,33.6H21.7V34.3H21zM21.7,33.6H22.4V34.3H21.7zM22.4,33.6H23.1V34.3H22.4zM23.1,33.6H23.8V34.3H23.1zM23.8,33.6H24.5V34.3H23.8zM24.5,33.6H25.2V34.3H24.5zM25.9,33.6H26.6V34.3H25.9zM27.3,33.6H28V34.3H27.3zM28,33.6H28.7V34.3H28zM28.7,33.6H29.4V34.3H28.7zM31.5,33.6H32.2V34.3H31.5zM33.6,33.6H34.3V34.3H33.6zM34.3,33.6H35V34.3H34.3zM35,33.6H35.7V34.3H35zM35.7,33.6H36.4V34.3H35.7zM36.4,33.6H37.1V34.3H36.4zM37.1,33.6H37.8V34.3H37.1zM37.8,33.6H38.5V34.3H37.8zM8.4,34.3H9.1V35H8.4zM9.1,34.3H9.8V35H9.1zM9.8,34.3H10.5V35H9.8zM11.9,34.3H12.6V35H11.9zM16.1,34.3H16.8V35H16.1zM17.5,34.3H18.2V35H17.5zM19.6,34.3H20.3V35H19.6zM22.4,34.3H23.1V35H22.4zM23.8,34.3H24.5V35H23.8zM24.5,34.3H25.2V35H24.5zM28,34.3H28.7V35H28zM28.7,34.3H29.4V35H28.7zM32.2,34.3H32.9V35H32.2zM32.9,34.3H33.6V35H32.9zM33.6,34.3H34.3V35H33.6zM36.4,34.3H37.1V35H36.4zM39.2,34.3H39.9V35H39.2zM2.8,35H3.5V35.7H2.8zM3.5,35H4.2V35.7H3.5zM4.2,35H4.9V35.7H4.2zM4.9,35H5.6V35.7H4.9zM5.6,35H6.3V35.7H5.6zM6.3,35H7V35.7H6.3zM7,35H7.7V35.7H7zM8.4,35H9.1V35.7H8.4zM9.1,35H9.8V35.7H9.1zM11.2,35H11.9V35.7H11.2zM11.9,35H12.6V35.7H11.9zM12.6,35H13.3V35.7H12.6zM13.3,35H14V35.7H13.3zM14.7,35H15.4V35.7H14.7zM16.8,35H17.5V35.7H16.8zM17.5,35H18.2V35.7H17.5zM18.9,35H19.6V35.7H18.9zM19.6,35H20.3V35.7H19.6zM21,35H21.7V35.7H21zM22.4,35H23.1V35.7H22.4zM23.1,35H23.8V35.7H23.1zM24.5,35H25.2V35.7H24.5zM26.6,35H27.3V35.7H26.6zM29.4,35H30.1V35.7H29.4zM30.1,35H30.8V35.7H30.1zM32.9,35H33.6V35.7H32.9zM33.6,35H34.3V35.7H33.6zM35,35H35.7V35.7H35zM36.4,35H37.1V35.7H36.4zM37.1,35H37.8V35.7H37.1zM37.8,35H38.5V35.7H37.8zM2.8,35.7H3.5V36.4H2.8zM7,35.7H7.7V36.4H7zM9.8,35.7H10.5V36.4H9.8zM10.5,35.7H11.2V36.4H10.5zM11.2,35.7H11.9V36.4H11.2zM11.9,35.7H12.6V36.4H11.9zM16.1,35.7H16.8V36.4H16.1zM18.9,35.7H19.6V36.4H18.9zM19.6,35.7H20.3V36.4H19.6zM22.4,35.7H23.1V36.4H22.4zM23.8,35.7H24.5V36.4H23.8zM25.2,35.7H25.9V36.4H25.2zM25.9,35.7H26.6V36.4H25.9zM27.3,35.7H28V36.4H27.3zM28,35.7H28.7V36.4H28zM28.7,35.7H29.4V36.4H28.7zM29.4,35.7H30.1V36.4H29.4zM30.1,35.7H30.8V36.4H30.1zM30.8,35.7H31.5V36.4H30.8zM31.5,35.7H32.2V36.4H31.5zM32.9,35.7H33.6V36.4H32.9zM33.6,35.7H34.3V36.4H33.6zM36.4,35.7H37.1V36.4H36.4zM37.1,35.7H37.8V36.4H37.1zM38.5,35.7H39.2V36.4H38.5zM2.8,36.4H3.5V37.1H2.8zM4.2,36.4H4.9V37.1H4.2zM4.9,36.4H5.6V37.1H4.9zM5.6,36.4H6.3V37.1H5.6zM7,36.4H7.7V37.1H7zM8.4,36.4H9.1V37.1H8.4zM9.1,36.4H9.8V37.1H9.1zM12.6,36.4H13.3V37.1H12.6zM14.7,36.4H15.4V37.1H14.7zM17.5,36.4H18.2V37.1H17.5zM19.6,36.4H20.3V37.1H19.6zM20.3,36.4H21V37.1H20.3zM21,36.4H21.7V37.1H21zM21.7,36.4H22.4V37.1H21.7zM22.4,36.4H23.1V37.1H22.4zM24.5,36.4H25.2V37.1H24.5zM25.9,36.4H26.6V37.1H25.9zM27.3,36.4H28V37.1H27.3zM28,36.4H28.7V37.1H28zM29.4,36.4H30.1V37.1H29.4zM32.2,36.4H32.9V37.1H32.2zM32.9,36.4H33.6V37.1H32.9zM33.6,36.4H34.3V37.1H33.6zM34.3,36.4H35V37.1H34.3zM35,36.4H35.7V37.1H35zM35.7,36.4H36.4V37.1H35.7zM36.4,36.4H37.1V37.1H36.4zM37.8,36.4H38.5V37.1H37.8zM2.8,37.1H3.5V37.8H2.8zM4.2,37.1H4.9V37.8H4.2zM4.9,37.1H5.6V37.8H4.9zM5.6,37.1H6.3V37.8H5.6zM7,37.1H7.7V37.8H7zM8.4,37.1H9.1V37.8H8.4zM9.1,37.1H9.8V37.8H9.1zM9.8,37.1H10.5V37.8H9.8zM11.2,37.1H11.9V37.8H11.2zM11.9,37.1H12.6V37.8H11.9zM13.3,37.1H14V37.8H13.3zM15.4,37.1H16.1V37.8H15.4zM16.1,37.1H16.8V37.8H16.1zM16.8,37.1H17.5V37.8H16.8zM18.9,37.1H19.6V37.8H18.9zM20.3,37.1H21V37.8H20.3zM21.7,37.1H22.4V37.8H21.7zM22.4,37.1H23.1V37.8H22.4zM23.8,37.1H24.5V37.8H23.8zM24.5,37.1H25.2V37.8H24.5zM25.2,37.1H25.9V37.8H25.2zM27.3,37.1H28V37.8H27.3zM28.7,37.1H29.4V37.8H28.7zM31.5,37.1H32.2V37.8H31.5zM32.2,37.1H32.9V37.8H32.2zM32.9,37.1H33.6V37.8H32.9zM33.6,37.1H34.3V37.8H33.6zM34.3,37.1H35V37.8H34.3zM37.1,37.1H37.8V37.8H37.1zM38.5,37.1H39.2V37.8H38.5zM2.8,37.8H3.5V38.5H2.8zM4.2,37.8H4.9V38.5H4.2zM4.9,37.8H5.6V38.5H4.9zM5.6,37.8H6.3V38.5H5.6zM7,37.8H7.7V38.5H7zM8.4,37.8H9.1V38.5H8.4zM9.1,37.8H9.8V38.5H9.1zM10.5,37.8H11.2V38.5H10.5zM11.2,37.8H11.9V38.5H11.2zM11.9,37.8H12.6V38.5H11.9zM12.6,37.8H13.3V38.5H12.6zM14.7,37.8H15.4V38.5H14.7zM16.8,37.8H17.5V38.5H16.8zM18.9,37.8H19.6V38.5H18.9zM19.6,37.8H20.3V38.5H19.6zM20.3,37.8H21V38.5H20.3zM21,37.8H21.7V38.5H21zM26.6,37.8H27.3V38.5H26.6zM29.4,37.8H30.1V38.5H29.4zM30.1,37.8H30.8V38.5H30.1zM30.8,37.8H31.5V38.5H30.8zM35,37.8H35.7V38.5H35zM35.7,37.8H36.4V38.5H35.7zM36.4,37.8H37.1V38.5H36.4zM37.8,37.8H38.5V38.5H37.8zM39.2,37.8H39.9V38.5H39.2zM2.8,38.5H3.5V39.2H2.8zM7,38.5H7.7V39.2H7zM8.4,38.5H9.1V39.2H8.4zM9.1,38.5H9.8V39.2H9.1zM9.8,38.5H10.5V39.2H9.8zM11.2,38.5H11.9V39.2H11.2zM11.9,38.5H12.6V39.2H11.9zM13.3,38.5H14V39.2H13.3zM14.7,38.5H15.4V39.2H14.7zM15.4,38.5H16.1V39.2H15.4zM16.1,38.5H16.8V39.2H16.1zM16.8,38.5H17.5V39.2H16.8zM20.3,38.5H21V39.2H20.3zM21,38.5H21.7V39.2H21zM21.7,38.5H22.4V39.2H21.7zM23.1,38.5H23.8V39.2H23.1zM23.8,38.5H24.5V39.2H23.8zM24.5,38.5H25.2V39.2H24.5zM25.9,38.5H26.6V39.2H25.9zM28,38.5H28.7V39.2H28zM28.7,38.5H29.4V39.2H28.7zM30.1,38.5H30.8V39.2H30.1zM30.8,38.5H31.5V39.2H30.8zM31.5,38.5H32.2V39.2H31.5zM32.2,38.5H32.9V39.2H32.2zM33.6,38.5H34.3V39.2H33.6zM35.7,38.5H36.4V39.2H35.7zM36.4,38.5H37.1V39.2H36.4zM37.1,38.5H37.8V39.2H37.1zM38.5,38.5H39.2V39.2H38.5zM2.8,39.2H3.5V39.9H2.8zM3.5,39.2H4.2V39.9H3.5zM4.2,39.2H4.9V39.9H4.2zM4.9,39.2H5.6V39.9H4.9zM5.6,39.2H6.3V39.9H5.6zM6.3,39.2H7V39.9H6.3zM7,39.2H7.7V39.9H7zM8.4,39.2H9.1V39.9H8.4zM11.9,39.2H12.6V39.9H11.9zM12.6,39.2H13.3V39.9H12.6zM14,39.2H14.7V39.9H14zM14.7,39.2H15.4V39.9H14.7zM15.4,39.2H16.1V39.9H15.4zM16.1,39.2H16.8V39.9H16.1zM16.8,39.2H17.5V39.9H16.8zM17.5,39.2H18.2V39.9H17.5zM18.9,39.2H19.6V39.9H18.9zM19.6,39.2H20.3V39.9H19.6zM20.3,39.2H21V39.9H20.3zM21,39.2H21.7V39.9H21zM23.8,39.2H24.5V39.9H23.8zM24.5,39.2H25.2V39.9H24.5zM27.3,39.2H28V39.9H27.3zM28,39.2H28.7V39.9H28zM28.7,39.2H29.4V39.9H28.7zM32.9,39.2H33.6V39.9H32.9zM33.6,39.2H34.3V39.9H33.6zM34.3,39.2H35V39.9H34.3zM35,39.2H35.7V39.9H35zM35.7,39.2H36.4V39.9H35.7zM37.8,39.2H38.5V39.9H37.8z" id="qr-path" fill="#000000" fill-opacity="1" fill-rule="nonzero" stroke="none" /></svg>