<svg width="64" height="64" viewBox="0 0 64 64" fill="none" xmlns="http://www.w3.org/2000/svg">
<path d="M16 11.7031H48C52.0041 11.7031 55.25 14.9491 55.25 18.9531V37.6523C55.25 41.6564 52.0041 44.9023 48 44.9023H18.3164C17.301 44.9024 16.312 45.2279 15.4951 45.8311L9.14844 50.5166C8.9834 50.6384 8.75 50.5206 8.75 50.3154V18.9531C8.75 14.9491 11.9959 11.7031 16 11.7031Z" stroke="#00B5AC" stroke-width="1.5" stroke-linejoin="round"/>
<g clip-path="url(#clip0_72_240)">
<path d="M33.125 20.2739V20.9443C35.6738 21.3758 37.625 23.7306 37.625 26.5724V27.8246C37.625 29.5267 38.1699 31.18 39.1648 32.5109L39.6887 33.2083C39.8926 33.4782 39.9312 33.8494 39.7906 34.1605C39.65 34.4717 39.3547 34.6704 39.0312 34.6704H24.9687C24.6453 34.6704 24.35 34.4717 24.2083 34.1605C24.0677 33.8494 24.1074 33.4782 24.3113 33.2083L24.8352 32.5109C25.8301 31.18 26.375 29.5267 26.375 27.8246V26.5724C26.375 23.7306 28.3262 21.3758 30.875 20.9443V20.2739C30.875 19.6115 31.3777 19.0742 32 19.0742C32.6223 19.0742 33.125 19.6115 33.125 20.2739ZM31.7187 22.6733C29.7008 22.6733 28.0625 24.4204 28.0625 26.5724V27.8246C28.0625 29.6204 27.5738 31.3712 26.6668 32.8708H37.3332C36.4262 31.3712 35.9375 29.6204 35.9375 27.8246V26.5724C35.9375 24.4204 34.2992 22.6733 32.2812 22.6733H31.7187ZM34.25 35.8701C34.25 36.4737 34.0145 37.1186 33.5926 37.5685C33.1707 38.0183 32.566 38.2695 32 38.2695C31.4023 38.2695 30.8293 38.0183 30.4074 37.5685C29.9855 37.1186 29.75 36.4737 29.75 35.8701H34.25ZM20.75 26.5724C20.75 26.0738 21.1279 25.6726 21.5937 25.6726H24.4062C24.8738 25.6726 25.25 26.0738 25.25 26.5724C25.25 27.071 24.8738 27.4722 24.4062 27.4722H21.5937C21.1279 27.4722 20.75 27.071 20.75 26.5724ZM42.4062 25.6726C42.8738 25.6726 43.25 26.0738 43.25 26.5724C43.25 27.071 42.8738 27.4722 42.4062 27.4722H39.5937C39.1262 27.4722 38.75 27.071 38.75 26.5724C38.75 26.0738 39.1262 25.6726 39.5937 25.6726H42.4062ZM41.7559 19.8716C41.9633 20.3159 41.7945 20.8565 41.3762 21.0789L39.1262 22.2786C38.7113 22.5005 38.2051 22.3206 37.9941 21.8759C37.7867 21.4316 37.9555 20.891 38.3738 20.6687L40.6238 19.469C41.0387 19.2469 41.5449 19.4271 41.7559 19.8716ZM22.6228 21.0789C22.2058 20.8565 22.0371 20.3159 22.2452 19.8716C22.4537 19.4271 22.9606 19.2469 23.3772 19.469L25.6262 20.6687C26.0445 20.891 26.2133 21.4316 26.0059 21.8759C25.7949 22.3206 25.2887 22.5005 24.8738 22.2786L22.6228 21.0789Z" fill="#00B5AC"/>
</g>
<defs>
<clipPath id="clip0_72_240">
<rect width="22.5" height="19.1953" fill="white" transform="translate(20.75 19.0742)"/>
</clipPath>
</defs>
</svg>
