<svg xmlns="http://www.w3.org/2000/svg" xmlns:xlink="http://www.w3.org/1999/xlink" contentStyleType="text/css" data-diagram-type="SEQUENCE" height="1112px" preserveAspectRatio="none" style="width:1347px;height:1112px;" version="1.1" viewBox="0 0 1347 1112" width="1347px" zoomAndPan="magnify"><?plantuml 1.2026.6?><defs/><g><g class="title" data-source-line="187"><text fill="#000000" font-family="Inter" font-size="14" font-weight="700" lengthAdjust="spacing" textLength="322.458" x="509.0039" y="27.9951">Dynamic Link Based Authentication Flow</text></g><g><title>RP frontend</title><rect fill="#D2E4F4" height="1018.7891" style="stroke:#181818;stroke-width:1;" width="10" x="154.3027" y="83.5938"/></g><g><title>RP backend</title><rect fill="#D2E4F4" height="1018.7891" style="stroke:#181818;stroke-width:1;" width="10" x="402.8164" y="83.5938"/></g><g><title>RP API</title><rect fill="#D2E4F4" height="687.9297" style="stroke:#181818;stroke-width:1;" width="10" x="757.9282" y="249.5234"/></g><g><title>App</title><rect fill="#D2E4F4" height="417.4688" style="stroke:#181818;stroke-width:1;" width="10" x="1086.7334" y="507.9844"/></g><rect fill="none" height="171.0625" rx="3.5" ry="3.5" style="stroke:#989898;stroke-width:1;" width="431.9482" x="34" y="293.6563"/><rect fill="none" height="223.5391" rx="3.5" ry="3.5" style="stroke:#989898;stroke-width:1;" width="792.7241" x="339.6846" y="746.0469"/><rect fill="none" height="163.2734" rx="3.5" ry="3.5" style="stroke:#989898;stroke-width:1;" width="772.7241" x="349.6846" y="799.3125"/><g class="participant-lifeline" data-entity-uid="part1" data-qualified-name="rp_frontend" data-source-line="189" id="part1-lifeline"><g><title>RP frontend</title><rect fill="#000000" fill-opacity="0.00000" height="1037.7891" width="8" x="155.3027" y="73.5938"/><line style="stroke:#989898;stroke-width:0.5;stroke-dasharray:5,5;" x1="159" x2="159" y1="73.5938" y2="1111.3828"/></g></g><g class="participant-lifeline" data-entity-uid="part2" data-qualified-name="rp" data-source-line="190" id="part2-lifeline"><g><title>RP backend</title><rect fill="#000000" fill-opacity="0.00000" height="1037.7891" width="8" x="403.8164" y="73.5938"/><line style="stroke:#989898;stroke-width:0.5;stroke-dasharray:5,5;" x1="407.6846" x2="407.6846" y1="73.5938" y2="1111.3828"/></g></g><g class="participant-lifeline" data-entity-uid="part3" data-qualified-name="core" data-source-line="191" id="part3-lifeline"><g><title>RP API</title><rect fill="#000000" fill-opacity="0.00000" height="1037.7891" width="8" x="758.9282" y="73.5938"/><line style="stroke:#989898;stroke-width:0.5;stroke-dasharray:5,5;" x1="762.5439" x2="762.5439" y1="73.5938" y2="1111.3828"/></g></g><g class="participant-lifeline" data-entity-uid="part4" data-qualified-name="splitkey_app" data-source-line="192" id="part4-lifeline"><g><title>App</title><rect fill="#000000" fill-opacity="0.00000" height="1037.7891" width="8" x="1087.7334" y="73.5938"/><line style="stroke:#989898;stroke-width:0.5;stroke-dasharray:5,5;" x1="1091.0581" x2="1091.0581" y1="73.5938" y2="1111.3828"/></g></g><g class="participant participant-head" data-entity-uid="part1" data-qualified-name="rp_frontend" data-source-line="189" id="part1-head"><rect fill="#A5C8E8" height="30.2969" rx="3.5" ry="3.5" style="stroke:#202020;stroke-width:1.5;" width="96.6055" x="111" y="42.2969"/><text fill="#202020" font-family="Inter" font-size="14" lengthAdjust="spacing" textLength="82.6055" x="118" y="62.292">RP frontend</text></g><g class="participant participant-head" data-entity-uid="part2" data-qualified-name="rp" data-source-line="190" id="part2-head"><rect fill="#A5C8E8" height="30.2969" rx="3.5" ry="3.5" style="stroke:#202020;stroke-width:1.5;" width="96.2637" x="359.6846" y="42.2969"/><text fill="#202020" font-family="Inter" font-size="14" lengthAdjust="spacing" textLength="82.2637" x="366.6846" y="62.292">RP backend</text></g><g class="participant participant-head" data-entity-uid="part3" data-qualified-name="core" data-source-line="191" id="part3-head"><rect fill="#A5C8E8" height="30.2969" rx="3.5" ry="3.5" style="stroke:#202020;stroke-width:1.5;" width="58.7686" x="733.5439" y="42.2969"/><text fill="#202020" font-family="Inter" font-size="14" lengthAdjust="spacing" textLength="44.7686" x="740.5439" y="62.292">RP API</text></g><g class="participant participant-head" data-entity-uid="part4" data-qualified-name="splitkey_app" data-source-line="192" id="part4-head"><rect fill="#A5C8E8" height="30.2969" rx="3.5" ry="3.5" style="stroke:#202020;stroke-width:1.5;" width="41.3506" x="1071.0581" y="42.2969"/><text fill="#202020" font-family="Inter" font-size="14" lengthAdjust="spacing" textLength="27.3506" x="1078.0581" y="62.292">App</text></g><g><title>RP frontend</title><rect fill="#D2E4F4" height="1018.7891" style="stroke:#181818;stroke-width:1;" width="10" x="154.3027" y="83.5938"/></g><g><title>RP backend</title><rect fill="#D2E4F4" height="1018.7891" style="stroke:#181818;stroke-width:1;" width="10" x="402.8164" y="83.5938"/></g><g><title>RP API</title><rect fill="#D2E4F4" height="687.9297" style="stroke:#181818;stroke-width:1;" width="10" x="757.9282" y="249.5234"/></g><g><title>App</title><rect fill="#D2E4F4" height="417.4688" style="stroke:#181818;stroke-width:1;" width="10" x="1086.7334" y="507.9844"/></g><path d="M5,92.0938 L5,140.0938 A3.5,3.5 0 0 0 8.5,143.5938 L310.5,143.5938 A3.5,3.5 0 0 0 314,140.0938 L314,98.5938 L304,88.5938 L8.5,88.5938 A3.5,3.5 0 0 0 5,92.0938" fill="#DFDFDF" style="stroke:#202020;stroke-width:1.5;"/><path d="M304,88.5938 L304,96.8438 A1.75,1.75 0 0 0 305.75,98.5938 L314,98.5938 L304,88.5938" fill="#DFDFDF" style="stroke:#202020;stroke-width:1.5;"/><text fill="#202020" font-family="Inter" font-size="13" lengthAdjust="spacing" textLength="260.2983" x="11" y="105.6606">User initiates a login on the RP frontend</text><text fill="#202020" font-family="Inter" font-size="13" lengthAdjust="spacing" textLength="288.3931" x="11" y="120.7935">(website or mobile app). Inserting ID code is</text><text fill="#202020" font-family="Inter" font-size="13" lengthAdjust="spacing" textLength="237.3325" x="11" y="135.9263">optional depending on the RP setup.</text><g class="message" data-entity-1="part1" data-entity-2="part2" data-source-line="203" id="msg1"><polygon fill="#202020" points="390.8164,166.125,400.8164,170.125,390.8164,174.125" style="stroke:#202020;stroke-width:1;stroke-linejoin:miter;stroke-miterlimit:10;"/><line style="stroke:#202020;stroke-width:1;" x1="164.3027" x2="396.8164" y1="170.125" y2="170.125"/><text fill="#000000" font-family="Inter" font-size="13" font-weight="700" lengthAdjust="spacing" textLength="9.0454" x="216.9404" y="165.0591">1</text><text fill="#000000" font-family="Inter" font-size="13" lengthAdjust="spacing" textLength="53.3901" x="229.9858" y="165.0591">Request</text><text fill="#000000" font-family="Inter" font-size="13" lengthAdjust="spacing" textLength="4.1323" x="283.376" y="165.0591">&#160;</text><text fill="#000000" font-family="Inter" font-size="13" lengthAdjust="spacing" textLength="26.8696" x="287.5083" y="165.0591">new</text><text fill="#000000" font-family="Inter" font-size="13" lengthAdjust="spacing" textLength="4.1323" x="314.3779" y="165.0591">&#160;</text><text fill="#000000" font-family="Inter" font-size="13" lengthAdjust="spacing" textLength="31.6685" x="318.5103" y="165.0591">login</text></g><path d="M288,186.625 L288,219.625 A3.5,3.5 0 0 0 291.5,223.125 L523.5,223.125 A3.5,3.5 0 0 0 527,219.625 L527,193.125 L517,183.125 L291.5,183.125 A3.5,3.5 0 0 0 288,186.625" fill="#DFDFDF" style="stroke:#202020;stroke-width:1.5;"/><path d="M517,183.125 L517,191.375 A1.75,1.75 0 0 0 518.75,193.125 L527,193.125 L517,183.125" fill="#DFDFDF" style="stroke:#202020;stroke-width:1.5;"/><text fill="#202020" font-family="Inter" font-size="13" lengthAdjust="spacing" textLength="218.3149" x="294" y="200.1919">RP generates a randomChallenge</text><text fill="#202020" font-family="Inter" font-size="13" lengthAdjust="spacing" textLength="178.8833" x="294" y="215.3247">and sends it in the request.</text><g class="message" data-entity-1="part2" data-entity-2="part3" data-source-line="210" id="msg2"><polygon fill="#202020" points="745.9282,245.5234,755.9282,249.5234,745.9282,253.5234" style="stroke:#202020;stroke-width:1;stroke-linejoin:miter;stroke-miterlimit:10;"/><line style="stroke:#202020;stroke-width:1;" x1="412.8164" x2="751.9282" y1="249.5234" y2="249.5234"/><text fill="#000000" font-family="Inter" font-size="13" font-weight="700" lengthAdjust="spacing" textLength="9.0454" x="422.3164" y="244.4575">2</text><text fill="#000000" font-family="monospace" font-size="13" lengthAdjust="spacing" textLength="31.3066" x="435.3618" y="244.4575">POST</text><text fill="#000000" font-family="monospace" font-size="13" lengthAdjust="spacing" textLength="7.8267" x="466.6685" y="244.4575">&#160;</text><text fill="#000000" font-family="monospace" font-size="13" lengthAdjust="spacing" textLength="273.9331" x="474.4951" y="244.4575">/v3/authentication/dynamic-link/...</text></g><g class="message" data-entity-1="part3" data-entity-2="part2" data-source-line="212" id="msg3"><polygon fill="#202020" points="423.8164,257.5234,413.8164,261.5234,423.8164,265.5234" style="stroke:#202020;stroke-width:1;stroke-linejoin:miter;stroke-miterlimit:10;"/><line style="stroke:#202020;stroke-width:1;stroke-dasharray:2,2;" x1="417.8164" x2="756.9282" y1="261.5234" y2="261.5234"/><text fill="#000000" font-family="Inter" font-size="13" font-weight="700" lengthAdjust="spacing" textLength="9.0454" x="437.5317" y="274.5903">3</text><text fill="#000000" font-family="monospace" font-size="13" lengthAdjust="spacing" textLength="70.4399" x="450.5771" y="274.5903">sessionId</text><text fill="#000000" font-family="Inter" font-size="13" lengthAdjust="spacing" textLength="4.1323" x="521.0171" y="274.5903">,</text><text fill="#000000" font-family="Inter" font-size="13" lengthAdjust="spacing" textLength="4.1323" x="525.1494" y="274.5903">&#160;</text><text fill="#000000" font-family="monospace" font-size="13" lengthAdjust="spacing" textLength="93.9199" x="529.2817" y="274.5903">sessionToken</text><text fill="#000000" font-family="Inter" font-size="13" lengthAdjust="spacing" textLength="4.1323" x="623.2017" y="274.5903">,</text><text fill="#000000" font-family="Inter" font-size="13" lengthAdjust="spacing" textLength="4.1323" x="627.334" y="274.5903">&#160;</text><text fill="#000000" font-family="monospace" font-size="13" lengthAdjust="spacing" textLength="101.7466" x="631.4663" y="274.5903">sessionSecret</text></g><path d="M37.5,293.6563 L110.624,293.6563 L110.624,300.7891 L100.624,310.7891 L34,310.7891 L34,297.1563 A3.5,3.5 0 0 1 37.5,293.6563" fill="#EEEEEE" style="stroke:#989898;stroke-width:1.5;"/><rect fill="none" height="171.0625" rx="3.5" ry="3.5" style="stroke:#989898;stroke-width:1;" width="431.9482" x="34" y="293.6563"/><text fill="#202020" font-family="Inter" font-size="13" font-weight="700" lengthAdjust="spacing" textLength="31.624" x="49" y="306.7231">loop</text><text fill="#989898" font-family="Inter" font-size="11" font-weight="700" lengthAdjust="spacing" textLength="128.9331" x="125.624" y="305.8667">[until user interacts]</text><g class="message" data-entity-1="part1" data-entity-2="part2" data-source-line="215" id="msg4"><polygon fill="#202020" points="390.8164,327.9219,400.8164,331.9219,390.8164,335.9219" style="stroke:#202020;stroke-width:1;stroke-linejoin:miter;stroke-miterlimit:10;"/><line style="stroke:#202020;stroke-width:1;" x1="164.3027" x2="396.8164" y1="331.9219" y2="331.9219"/><text fill="#000000" font-family="Inter" font-size="13" font-weight="700" lengthAdjust="spacing" textLength="9.0454" x="176.3027" y="326.856">4</text><text fill="#000000" font-family="Inter" font-size="13" lengthAdjust="spacing" textLength="53.3901" x="189.3481" y="326.856">Request</text><text fill="#000000" font-family="Inter" font-size="13" lengthAdjust="spacing" textLength="4.1323" x="242.7383" y="326.856">&#160;</text><text fill="#000000" font-family="Inter" font-size="13" lengthAdjust="spacing" textLength="17.875" x="246.8706" y="326.856">for</text><text fill="#000000" font-family="Inter" font-size="13" lengthAdjust="spacing" textLength="4.1323" x="264.7456" y="326.856">&#160;</text><text fill="#000000" font-family="Inter" font-size="13" lengthAdjust="spacing" textLength="54.0566" x="268.8779" y="326.856">updated</text><text fill="#000000" font-family="Inter" font-size="13" lengthAdjust="spacing" textLength="4.1323" x="322.9346" y="326.856">&#160;</text><text fill="#000000" font-family="Inter" font-size="13" lengthAdjust="spacing" textLength="63.7495" x="327.0669" y="326.856">AuthCode</text></g><g class="message" data-entity-1="part2" data-entity-2="part1" data-source-line="216" id="msg5"><polygon fill="#202020" points="175.3027,339.9219,165.3027,343.9219,175.3027,347.9219" style="stroke:#202020;stroke-width:1;stroke-linejoin:miter;stroke-miterlimit:10;"/><line style="stroke:#202020;stroke-width:1;stroke-dasharray:2,2;" x1="169.3027" x2="401.8164" y1="343.9219" y2="343.9219"/><text fill="#000000" font-family="Inter" font-size="13" font-weight="700" lengthAdjust="spacing" textLength="9.0454" x="189.655" y="356.9888">5</text><text fill="#000000" font-family="Inter" font-size="13" lengthAdjust="spacing" textLength="48.6929" x="202.7004" y="356.9888">Provide</text><text fill="#000000" font-family="Inter" font-size="13" lengthAdjust="spacing" textLength="4.1323" x="251.3933" y="356.9888">&#160;</text><text fill="#000000" font-family="Inter" font-size="13" lengthAdjust="spacing" textLength="54.0566" x="255.5256" y="356.9888">updated</text><text fill="#000000" font-family="Inter" font-size="13" lengthAdjust="spacing" textLength="4.1323" x="309.5823" y="356.9888">&#160;</text><text fill="#000000" font-family="Inter" font-size="13" lengthAdjust="spacing" textLength="63.7495" x="313.7146" y="356.9888">AuthCode</text></g><path d="M44,377.5547 L44,455.5547 A3.5,3.5 0 0 0 47.5,459.0547 L270.5,459.0547 A3.5,3.5 0 0 0 274,455.5547 L274,384.0547 L264,374.0547 L47.5,374.0547 A3.5,3.5 0 0 0 44,377.5547" fill="#DFDFDF" style="stroke:#202020;stroke-width:1.5;"/><path d="M264,374.0547 L264,382.3047 A1.75,1.75 0 0 0 265.75,384.0547 L274,384.0547 L264,374.0547" fill="#DFDFDF" style="stroke:#202020;stroke-width:1.5;"/><text fill="#202020" font-family="Inter" font-size="13" lengthAdjust="spacing" textLength="205.0547" x="50" y="391.1216">RP frontend shows one or more</text><text fill="#202020" font-family="Inter" font-size="13" lengthAdjust="spacing" textLength="180.0894" x="50" y="406.2544">of the following to the user:</text><ellipse cx="55.5" cy="416.9531" fill="#202020" rx="2.5" ry="2.5"/><text fill="#202020" font-family="Inter" font-size="13" font-weight="700" lengthAdjust="spacing" textLength="60.3472" x="62" y="421.3872">QR code</text><text fill="#202020" font-family="Inter" font-size="13" lengthAdjust="spacing" textLength="4.1323" x="122.3472" y="421.3872">,</text><ellipse cx="55.5" cy="432.0859" fill="#202020" rx="2.5" ry="2.5"/><text fill="#202020" font-family="Inter" font-size="13" font-weight="700" lengthAdjust="spacing" textLength="101.5181" x="62" y="436.52">Web2App link</text><text fill="#202020" font-family="Inter" font-size="13" lengthAdjust="spacing" textLength="4.1323" x="163.5181" y="436.52">,</text><ellipse cx="55.5" cy="447.2188" fill="#202020" rx="2.5" ry="2.5"/><text fill="#202020" font-family="Inter" font-size="13" font-weight="700" lengthAdjust="spacing" textLength="97.7285" x="62" y="451.6528">App2App link</text><text fill="#202020" font-family="Inter" font-size="13" lengthAdjust="spacing" textLength="4.1323" x="159.7285" y="451.6528">.</text><g class="message" data-entity-1="part1" data-entity-2="part4" data-source-line="227" id="msg6"><polygon fill="#202020" points="1074.7334,503.9844,1084.7334,507.9844,1074.7334,511.9844" style="stroke:#202020;stroke-width:1;stroke-linejoin:miter;stroke-miterlimit:10;"/><line style="stroke:#202020;stroke-width:1;" x1="164.3027" x2="1080.7334" y1="507.9844" y2="507.9844"/><text fill="#000000" font-family="Inter" font-size="13" font-weight="700" lengthAdjust="spacing" textLength="9.0454" x="462.3193" y="495.3521">6</text><text fill="#000000" font-family="Inter" font-size="13" lengthAdjust="spacing" textLength="29.6309" x="475.3647" y="487.7856">User</text><text fill="#000000" font-family="Inter" font-size="13" lengthAdjust="spacing" textLength="4.1323" x="504.9956" y="487.7856">&#160;</text><text fill="#000000" font-family="Inter" font-size="13" lengthAdjust="spacing" textLength="35.8198" x="509.1279" y="487.7856">clicks</text><text fill="#000000" font-family="Inter" font-size="13" lengthAdjust="spacing" textLength="4.1323" x="544.9478" y="487.7856">&#160;</text><text fill="#000000" font-family="Inter" font-size="13" lengthAdjust="spacing" textLength="16.1929" x="549.0801" y="487.7856">on</text><text fill="#000000" font-family="Inter" font-size="13" lengthAdjust="spacing" textLength="4.1323" x="565.2729" y="487.7856">&#160;</text><text fill="#000000" font-family="Inter" font-size="13" lengthAdjust="spacing" textLength="21.3345" x="569.4053" y="487.7856">the</text><text fill="#000000" font-family="Inter" font-size="13" lengthAdjust="spacing" textLength="4.1323" x="590.7397" y="487.7856">&#160;</text><text fill="#000000" font-family="Inter" font-size="13" lengthAdjust="spacing" textLength="82.7925" x="594.8721" y="487.7856">same-device</text><text fill="#000000" font-family="Inter" font-size="13" lengthAdjust="spacing" textLength="4.1323" x="677.6646" y="487.7856">&#160;</text><text fill="#000000" font-family="Inter" font-size="13" lengthAdjust="spacing" textLength="22.9912" x="681.7969" y="487.7856">link</text><text fill="#000000" font-family="Inter" font-size="13" lengthAdjust="spacing" textLength="4.1323" x="704.7881" y="487.7856">&#160;</text><text fill="#000000" font-family="Inter" font-size="13" lengthAdjust="spacing" textLength="13.2983" x="708.9204" y="487.7856">or</text><text fill="#000000" font-family="Inter" font-size="13" lengthAdjust="spacing" textLength="4.1323" x="722.2188" y="487.7856">&#160;</text><text fill="#000000" font-family="Inter" font-size="13" lengthAdjust="spacing" textLength="36.8989" x="726.3511" y="487.7856">scans</text><text fill="#000000" font-family="Inter" font-size="13" lengthAdjust="spacing" textLength="4.1323" x="763.25" y="487.7856">&#160;</text><text fill="#000000" font-family="Inter" font-size="13" lengthAdjust="spacing" textLength="21.3345" x="767.3823" y="487.7856">the</text><text fill="#000000" font-family="Inter" font-size="13" lengthAdjust="spacing" textLength="19.2651" x="561.312" y="502.9185">QR</text><text fill="#000000" font-family="Inter" font-size="13" lengthAdjust="spacing" textLength="4.1323" x="580.5771" y="502.9185">&#160;</text><text fill="#000000" font-family="Inter" font-size="13" lengthAdjust="spacing" textLength="31.3511" x="584.7095" y="502.9185">code</text><text fill="#000000" font-family="Inter" font-size="13" lengthAdjust="spacing" textLength="4.1323" x="616.0605" y="502.9185">&#160;</text><text fill="#000000" font-family="Inter" font-size="13" lengthAdjust="spacing" textLength="27.5806" x="620.1929" y="502.9185">with</text><text fill="#000000" font-family="Inter" font-size="13" lengthAdjust="spacing" textLength="4.1323" x="647.7734" y="502.9185">&#160;</text><text fill="#000000" font-family="Inter" font-size="13" lengthAdjust="spacing" textLength="21.3345" x="651.9058" y="502.9185">the</text><text fill="#000000" font-family="Inter" font-size="13" lengthAdjust="spacing" textLength="4.1323" x="673.2402" y="502.9185">&#160;</text><text fill="#000000" font-family="Inter" font-size="13" lengthAdjust="spacing" textLength="25.397" x="677.3726" y="502.9185">App</text></g><g class="message" data-entity-1="part4" data-entity-2="part4" data-source-line="229" id="msg7"><line style="stroke:#202020;stroke-width:1;" x1="1096.7334" x2="1138.7334" y1="567.3828" y2="567.3828"/><line style="stroke:#202020;stroke-width:1;" x1="1138.7334" x2="1138.7334" y1="567.3828" y2="580.3828"/><line style="stroke:#202020;stroke-width:1;" x1="1097.7334" x2="1138.7334" y1="580.3828" y2="580.3828"/><polygon fill="#202020" points="1107.7334,576.3828,1097.7334,580.3828,1107.7334,584.3828" style="stroke:#202020;stroke-width:1;stroke-linejoin:miter;stroke-miterlimit:10;"/><text fill="#000000" font-family="Inter" font-size="13" font-weight="700" lengthAdjust="spacing" textLength="9.0454" x="1103.7334" y="547.1841">7</text><text fill="#000000" font-family="Inter" font-size="13" lengthAdjust="spacing" textLength="25.397" x="1129.033" y="532.0513">App</text><text fill="#000000" font-family="Inter" font-size="13" lengthAdjust="spacing" textLength="4.1323" x="1154.4299" y="532.0513">&#160;</text><text fill="#000000" font-family="Inter" font-size="13" lengthAdjust="spacing" textLength="53.1172" x="1158.5623" y="532.0513">extracts</text><text fill="#000000" font-family="Inter" font-size="13" lengthAdjust="spacing" textLength="4.1323" x="1211.6794" y="532.0513">&#160;</text><text fill="#000000" font-family="Inter" font-size="13" lengthAdjust="spacing" textLength="21.3345" x="1215.8118" y="532.0513">the</text><text fill="#000000" font-family="Inter" font-size="13" lengthAdjust="spacing" textLength="4.1323" x="1237.1462" y="532.0513">&#160;</text><text fill="#000000" font-family="Inter" font-size="13" lengthAdjust="spacing" textLength="65.9331" x="1241.2786" y="532.0513">necessary</text><text fill="#000000" font-family="Inter" font-size="13" lengthAdjust="spacing" textLength="4.1323" x="1116.7788" y="547.1841">&#160;</text><text fill="#000000" font-family="Inter" font-size="13" lengthAdjust="spacing" textLength="75.4038" x="1120.9111" y="547.1841">parameters</text><text fill="#000000" font-family="Inter" font-size="13" lengthAdjust="spacing" textLength="4.1323" x="1196.3149" y="547.1841">&#160;</text><text fill="#000000" font-family="Inter" font-size="13" lengthAdjust="spacing" textLength="30.5386" x="1200.4473" y="547.1841">from</text><text fill="#000000" font-family="Inter" font-size="13" lengthAdjust="spacing" textLength="4.1323" x="1230.9858" y="547.1841">&#160;</text><text fill="#000000" font-family="Inter" font-size="13" lengthAdjust="spacing" textLength="21.3345" x="1235.1182" y="547.1841">the</text><text fill="#000000" font-family="Inter" font-size="13" lengthAdjust="spacing" textLength="4.1323" x="1256.4526" y="547.1841">&#160;</text><text fill="#000000" font-family="Inter" font-size="13" lengthAdjust="spacing" textLength="19.2651" x="1260.585" y="547.1841">QR</text><text fill="#000000" font-family="Inter" font-size="13" lengthAdjust="spacing" textLength="4.1323" x="1279.8501" y="547.1841">&#160;</text><text fill="#000000" font-family="Inter" font-size="13" lengthAdjust="spacing" textLength="35.4834" x="1283.9824" y="547.1841">code,</text><text fill="#000000" font-family="Inter" font-size="13" lengthAdjust="spacing" textLength="4.1323" x="1117.2327" y="562.3169">&#160;</text><text fill="#000000" font-family="Inter" font-size="13" lengthAdjust="spacing" textLength="62.772" x="1121.365" y="562.3169">Web2App</text><text fill="#000000" font-family="Inter" font-size="13" lengthAdjust="spacing" textLength="4.1323" x="1184.137" y="562.3169">&#160;</text><text fill="#000000" font-family="Inter" font-size="13" lengthAdjust="spacing" textLength="22.9912" x="1188.2693" y="562.3169">link</text><text fill="#000000" font-family="Inter" font-size="13" lengthAdjust="spacing" textLength="4.1323" x="1211.2605" y="562.3169">&#160;</text><text fill="#000000" font-family="Inter" font-size="13" lengthAdjust="spacing" textLength="13.2983" x="1215.3928" y="562.3169">or</text><text fill="#000000" font-family="Inter" font-size="13" lengthAdjust="spacing" textLength="4.1323" x="1228.6912" y="562.3169">&#160;</text><text fill="#000000" font-family="Inter" font-size="13" lengthAdjust="spacing" textLength="59.0649" x="1232.8235" y="562.3169">App2App</text><text fill="#000000" font-family="Inter" font-size="13" lengthAdjust="spacing" textLength="4.1323" x="1291.8884" y="562.3169">&#160;</text><text fill="#000000" font-family="Inter" font-size="13" lengthAdjust="spacing" textLength="22.9912" x="1296.0208" y="562.3169">link</text></g><g class="message" data-entity-1="part4" data-entity-2="part3" data-source-line="231" id="msg8"><polygon fill="#202020" points="778.9282,605.5156,768.9282,609.5156,778.9282,613.5156" style="stroke:#202020;stroke-width:1;stroke-linejoin:miter;stroke-miterlimit:10;"/><line style="stroke:#202020;stroke-width:1;" x1="772.9282" x2="1085.7334" y1="609.5156" y2="609.5156"/><text fill="#000000" font-family="Inter" font-size="13" font-weight="700" lengthAdjust="spacing" textLength="9.0454" x="779.9282" y="604.4497">8</text><text fill="#000000" font-family="monospace" font-size="13" lengthAdjust="spacing" textLength="281.7598" x="792.9736" y="604.4497">createTransactionForDynamicLink(...)</text></g><g class="message" data-entity-1="part3" data-entity-2="part4" data-source-line="232" id="msg9"><polygon fill="#202020" points="1074.7334,617.5156,1084.7334,621.5156,1074.7334,625.5156" style="stroke:#202020;stroke-width:1;stroke-linejoin:miter;stroke-miterlimit:10;"/><line style="stroke:#202020;stroke-width:1;stroke-dasharray:2,2;" x1="767.9282" x2="1080.7334" y1="621.5156" y2="621.5156"/><text fill="#000000" font-family="Inter" font-size="13" font-weight="700" lengthAdjust="spacing" textLength="9.0454" x="858.1948" y="634.5825">9</text><text fill="#000000" font-family="monospace" font-size="13" lengthAdjust="spacing" textLength="125.2266" x="871.2402" y="634.5825">transaction(...)</text></g><g class="message" data-entity-1="part4" data-entity-2="part4" data-source-line="234" id="msg10"><line style="stroke:#202020;stroke-width:1;" x1="1096.7334" x2="1138.7334" y1="667.7813" y2="667.7813"/><line style="stroke:#202020;stroke-width:1;" x1="1138.7334" x2="1138.7334" y1="667.7813" y2="680.7813"/><line style="stroke:#202020;stroke-width:1;" x1="1097.7334" x2="1138.7334" y1="680.7813" y2="680.7813"/><polygon fill="#202020" points="1107.7334,676.7813,1097.7334,680.7813,1107.7334,684.7813" style="stroke:#202020;stroke-width:1;stroke-linejoin:miter;stroke-miterlimit:10;"/><text fill="#000000" font-family="Inter" font-size="13" font-weight="700" lengthAdjust="spacing" textLength="18.0908" x="1103.7334" y="662.7153">10</text><text fill="#000000" font-family="Inter" font-size="13" lengthAdjust="spacing" textLength="47.9185" x="1125.8242" y="662.7153">Display</text><text fill="#000000" font-family="Inter" font-size="13" lengthAdjust="spacing" textLength="4.1323" x="1173.7427" y="662.7153">&#160;</text><text fill="#000000" font-family="Inter" font-size="13" lengthAdjust="spacing" textLength="94.5039" x="1177.875" y="662.7153">authentication</text><text fill="#000000" font-family="Inter" font-size="13" lengthAdjust="spacing" textLength="4.1323" x="1272.3789" y="662.7153">&#160;</text><text fill="#000000" font-family="Inter" font-size="13" lengthAdjust="spacing" textLength="13.3491" x="1276.5112" y="662.7153">UI</text></g><path d="M924,697.2813 L924,730.2813 A3.5,3.5 0 0 0 927.5,733.7813 L1254.5,733.7813 A3.5,3.5 0 0 0 1258,730.2813 L1258,703.7813 L1248,693.7813 L927.5,693.7813 A3.5,3.5 0 0 0 924,697.2813" fill="#DFDFDF" style="stroke:#202020;stroke-width:1.5;"/><path d="M1248,693.7813 L1248,702.0313 A1.75,1.75 0 0 0 1249.75,703.7813 L1258,703.7813 L1248,693.7813" fill="#DFDFDF" style="stroke:#202020;stroke-width:1.5;"/><text fill="#202020" font-family="Inter" font-size="13" lengthAdjust="spacing" textLength="313.3076" x="930" y="710.8481">User has to enter the PIN code as usual (but the</text><text fill="#202020" font-family="Inter" font-size="13" lengthAdjust="spacing" textLength="203.4487" x="930" y="725.981">verification code is not shown).</text><path d="M343.1846,746.0469 L416.3086,746.0469 L416.3086,753.1797 L406.3086,763.1797 L339.6846,763.1797 L339.6846,749.5469 A3.5,3.5 0 0 1 343.1846,746.0469" fill="#EEEEEE" style="stroke:#989898;stroke-width:1.5;"/><rect fill="none" height="223.5391" rx="3.5" ry="3.5" style="stroke:#989898;stroke-width:1;" width="792.7241" x="339.6846" y="746.0469"/><text fill="#202020" font-family="Inter" font-size="13" font-weight="700" lengthAdjust="spacing" textLength="31.624" x="354.6846" y="759.1138">loop</text><text fill="#989898" font-family="Inter" font-size="11" font-weight="700" lengthAdjust="spacing" textLength="222.7661" x="431.3086" y="758.2573">[until signature completed or error]</text><g class="message" data-entity-1="part2" data-entity-2="part3" data-source-line="241" id="msg11"><polygon fill="#202020" points="745.9282,780.3125,755.9282,784.3125,745.9282,788.3125" style="stroke:#202020;stroke-width:1;stroke-linejoin:miter;stroke-miterlimit:10;"/><line style="stroke:#202020;stroke-width:1;" x1="412.8164" x2="751.9282" y1="784.3125" y2="784.3125"/><text fill="#000000" font-family="Inter" font-size="13" font-weight="700" lengthAdjust="spacing" textLength="18.0908" x="488.2336" y="779.2466">11</text><text fill="#000000" font-family="monospace" font-size="13" lengthAdjust="spacing" textLength="23.48" x="510.3245" y="779.2466">GET</text><text fill="#000000" font-family="monospace" font-size="13" lengthAdjust="spacing" textLength="7.8267" x="533.8044" y="779.2466">&#160;</text><text fill="#000000" font-family="monospace" font-size="13" lengthAdjust="spacing" textLength="140.8799" x="541.6311" y="779.2466">session/:sessionId</text></g><path d="M353.1846,799.3125 L414.1274,799.3125 L414.1274,806.4453 L404.1274,816.4453 L349.6846,816.4453 L349.6846,802.8125 A3.5,3.5 0 0 1 353.1846,799.3125" fill="#EEEEEE" style="stroke:#989898;stroke-width:1.5;"/><rect fill="none" height="163.2734" rx="3.5" ry="3.5" style="stroke:#989898;stroke-width:1;" width="772.7241" x="349.6846" y="799.3125"/><text fill="#202020" font-family="Inter" font-size="13" font-weight="700" lengthAdjust="spacing" textLength="19.4429" x="364.6846" y="812.3794">alt</text><text fill="#989898" font-family="Inter" font-size="11" font-weight="700" lengthAdjust="spacing" textLength="123.8198" x="429.1274" y="811.5229">[signature pending]</text><g class="message" data-entity-1="part3" data-entity-2="part2" data-source-line="243" id="msg12"><polygon fill="#202020" points="423.8164,816.4453,413.8164,820.4453,423.8164,824.4453" style="stroke:#202020;stroke-width:1;stroke-linejoin:miter;stroke-miterlimit:10;"/><line style="stroke:#202020;stroke-width:1;stroke-dasharray:2,2;" x1="417.8164" x2="756.9282" y1="820.4453" y2="820.4453"/><text fill="#000000" font-family="Inter" font-size="13" font-weight="700" lengthAdjust="spacing" textLength="18.0908" x="519.5403" y="833.5122">12</text><text fill="#000000" font-family="monospace" font-size="13" lengthAdjust="spacing" textLength="54.7866" x="541.6311" y="833.5122">session</text><text fill="#000000" font-family="monospace" font-size="13" lengthAdjust="spacing" textLength="7.8267" x="596.4177" y="833.5122">&#160;</text><text fill="#000000" font-family="monospace" font-size="13" lengthAdjust="spacing" textLength="46.96" x="604.2444" y="833.5122">status</text></g><line style="stroke:#989898;stroke-width:1;stroke-dasharray:2,2;" x1="349.6846" x2="1122.4087" y1="846.5781" y2="846.5781"/><text fill="#989898" font-family="Inter" font-size="11" font-weight="700" lengthAdjust="spacing" textLength="120.6401" x="354.6846" y="856.7886">[error (or timeout)]</text><g class="message" data-entity-1="part3" data-entity-2="part2" data-source-line="245" id="msg13"><polygon fill="#202020" points="423.8164,860.3828,413.8164,864.3828,423.8164,868.3828" style="stroke:#202020;stroke-width:1;stroke-linejoin:miter;stroke-miterlimit:10;"/><line style="stroke:#202020;stroke-width:1;stroke-dasharray:2,2;" x1="417.8164" x2="756.9282" y1="864.3828" y2="864.3828"/><text fill="#000000" font-family="Inter" font-size="13" font-weight="700" lengthAdjust="spacing" textLength="18.0908" x="554.7603" y="877.4497">13</text><text fill="#000000" font-family="monospace" font-size="13" lengthAdjust="spacing" textLength="39.1333" x="576.8511" y="877.4497">error</text></g><line style="stroke:#989898;stroke-width:1;stroke-dasharray:2,2;" x1="349.6846" x2="1122.4087" y1="890.5156" y2="890.5156"/><text fill="#989898" font-family="Inter" font-size="11" font-weight="700" lengthAdjust="spacing" textLength="138.542" x="354.6846" y="900.7261">[signature completed]</text><g class="message" data-entity-1="part4" data-entity-2="part3" data-source-line="247" id="msg14"><polygon fill="#202020" points="778.9282,921.4531,768.9282,925.4531,778.9282,929.4531" style="stroke:#202020;stroke-width:1;stroke-linejoin:miter;stroke-miterlimit:10;"/><line style="stroke:#202020;stroke-width:1;" x1="772.9282" x2="1090.7334" y1="925.4531" y2="925.4531"/><text fill="#000000" font-family="Inter" font-size="13" font-weight="700" lengthAdjust="spacing" textLength="18.0908" x="887.2852" y="920.3872">14</text><text fill="#000000" font-family="Inter" font-size="13" lengthAdjust="spacing" textLength="63.0005" x="909.376" y="920.3872">Signature</text></g><g class="message" data-entity-1="part3" data-entity-2="part2" data-source-line="249" id="msg15"><polygon fill="#202020" points="423.8164,933.4531,413.8164,937.4531,423.8164,941.4531" style="stroke:#202020;stroke-width:1;stroke-linejoin:miter;stroke-miterlimit:10;"/><line style="stroke:#202020;stroke-width:1;stroke-dasharray:2,2;" x1="417.8164" x2="761.9282" y1="937.4531" y2="937.4531"/><text fill="#000000" font-family="Inter" font-size="13" font-weight="700" lengthAdjust="spacing" textLength="18.0908" x="553.3469" y="950.52">15</text><text fill="#000000" font-family="monospace" font-size="13" lengthAdjust="spacing" textLength="46.96" x="575.4377" y="950.52">result</text></g><path d="M228,985.0859 L228,1063.0859 A3.5,3.5 0 0 0 231.5,1066.5859 L583.5,1066.5859 A3.5,3.5 0 0 0 587,1063.0859 L587,991.5859 L577,981.5859 L231.5,981.5859 A3.5,3.5 0 0 0 228,985.0859" fill="#DFDFDF" style="stroke:#202020;stroke-width:1.5;"/><path d="M577,981.5859 L577,989.8359 A1.75,1.75 0 0 0 578.75,991.5859 L587,991.5859 L577,981.5859" fill="#DFDFDF" style="stroke:#202020;stroke-width:1.5;"/><text fill="#202020" font-family="Inter" font-size="13" lengthAdjust="spacing" textLength="334.1089" x="234" y="998.6528">The response contains serverRandom and the total</text><text fill="#202020" font-family="Inter" font-size="13" lengthAdjust="spacing" textLength="317.751" x="234" y="1013.7856">challenge, which was signed by the end user. RP</text><text fill="#202020" font-family="Inter" font-size="13" lengthAdjust="spacing" textLength="320.8232" x="234" y="1028.9185">concatenates the randomChallenge from storage</text><text fill="#202020" font-family="Inter" font-size="13" lengthAdjust="spacing" textLength="330.9033" x="234" y="1044.0513">with the serverRandom from response and verifies</text><text fill="#202020" font-family="Inter" font-size="13" lengthAdjust="spacing" textLength="232.9272" x="234" y="1059.1841">that the provided signature is valid.</text><g class="message" data-entity-1="part2" data-entity-2="part1" data-source-line="261" id="msg16"><polygon fill="#202020" points="175.3027,1072.25,165.3027,1076.25,175.3027,1080.25" style="stroke:#202020;stroke-width:1;stroke-linejoin:miter;stroke-miterlimit:10;"/><line style="stroke:#202020;stroke-width:1;stroke-dasharray:2,2;" x1="169.3027" x2="401.8164" y1="1076.25" y2="1076.25"/><text fill="#000000" font-family="Inter" font-size="13" font-weight="700" lengthAdjust="spacing" textLength="18.0908" x="202.8994" y="1089.3169">16</text><text fill="#000000" font-family="Inter" font-size="13" lengthAdjust="spacing" textLength="29.6309" x="224.9902" y="1089.3169">User</text><text fill="#000000" font-family="Inter" font-size="13" lengthAdjust="spacing" textLength="4.1323" x="254.6211" y="1089.3169">&#160;</text><text fill="#000000" font-family="Inter" font-size="13" lengthAdjust="spacing" textLength="10.3848" x="258.7534" y="1089.3169">is</text><text fill="#000000" font-family="Inter" font-size="13" lengthAdjust="spacing" textLength="4.1323" x="269.1382" y="1089.3169">&#160;</text><text fill="#000000" font-family="Inter" font-size="13" lengthAdjust="spacing" textLength="90.9492" x="273.2705" y="1089.3169">authenticated</text></g></g></svg>